<svg xmlns="http://www.w3.org/2000/svg" viewBox="0 0 384 512"><!--! Font Awesome Pro 7.2.0 by @fontawesome - https://fontawesome.com License - https://fontawesome.com/license (Commercial License) Copyright 2026 Fonticons, Inc. --><path style="fill:var(--fa-secondary-color,currentColor);opacity:var(--fa-secondary-opacity,.4)" d="M64 96l256 0 0 304-256 0 0-304zm160 72a24 24 0 1 0 48 0 24 24 0 1 0 -48 0zm0 80a24 24 0 1 0 48 0 24 24 0 1 0 -48 0zm0 80a24 24 0 1 0 48 0 24 24 0 1 0 -48 0z"/><path style="fill:var(--fa-primary-color,currentColor);opacity:var(--fa-primary-opacity,1)" d="M384 448l-64 0 0 64-256 0 0-64-64 0 0-48 384 0 0 48zM336 32l-48 0 0 64-192 0 0-64-48 0 0-48 288 0 0 48z"/></svg>