<svg xmlns="http://www.w3.org/2000/svg" viewBox="0 0 512 512"><!--! Font Awesome Pro 7.2.0 by @fontawesome - https://fontawesome.com License - https://fontawesome.com/license (Commercial License) Copyright 2026 Fonticons, Inc. --><path style="fill:var(--fa-secondary-color,currentColor);opacity:var(--fa-secondary-opacity,.4)" d="M0 64l0 384 512 0 0-384-512 0zM48 256l96 0 0 48-96 0 0-48zm0 96l96 0 0 48-96 0 0-48zM192 112l112 0 0 288-112 0 0-288zm160 0l112 0 0 288-112 0 0-288z"/><path style="fill:var(--fa-primary-color,currentColor);opacity:var(--fa-primary-opacity,1)" d="M304 400l-112 0 0-288 112 0 0 288zm160 0l-112 0 0-288 112 0 0 288zM248 160a24 24 0 1 0 0 48 24 24 0 1 0 0-48zm160 0a24 24 0 1 0 0 48 24 24 0 1 0 0-48z"/></svg>