<svg xmlns="http://www.w3.org/2000/svg" viewBox="0 0 320 512"><!--! Font Awesome Pro 7.2.0 by @fontawesome - https://fontawesome.com License - https://fontawesome.com/license (Commercial License) Copyright 2026 Fonticons, Inc. --><path style="fill:var(--fa-secondary-color,currentColor);opacity:var(--fa-secondary-opacity,.4)" d="M0-32L0 384c0 88.4 71.6 160 160 160s160-71.6 160-160L320-32 0-32zM104 296a24 24 0 1 1 -48 0 24 24 0 1 1 48 0zM56 376c0-13.3 10.7-24 24-24s24 10.7 24 24-10.7 24-24 24-24-10.7-24-24zM256 128a96 96 0 1 1 -192 0 96 96 0 1 1 192 0zm-144 0a48 48 0 1 0 96 0 48 48 0 1 0 -96 0zm72 168a24 24 0 1 1 -48 0 24 24 0 1 1 48 0zm-48 80c0-13.3 10.7-24 24-24s24 10.7 24 24-10.7 24-24 24-24-10.7-24-24zm0 80c0-13.3 10.7-24 24-24s24 10.7 24 24-10.7 24-24 24-24-10.7-24-24zM264 296a24 24 0 1 1 -48 0 24 24 0 1 1 48 0zm-48 80c0-13.3 10.7-24 24-24s24 10.7 24 24-10.7 24-24 24-24-10.7-24-24z"/><path style="fill:var(--fa-primary-color,currentColor);opacity:var(--fa-primary-opacity,1)" d="M160 432c13.3 0 24 10.7 24 24s-10.7 24-24 24-24-10.7-24-24 10.7-24 24-24zM80 352c13.3 0 24 10.7 24 24s-10.7 24-24 24-24-10.7-24-24 10.7-24 24-24zm80 0c13.3 0 24 10.7 24 24s-10.7 24-24 24-24-10.7-24-24 10.7-24 24-24zm80 0c13.3 0 24 10.7 24 24s-10.7 24-24 24-24-10.7-24-24 10.7-24 24-24zM80 320a24 24 0 1 1 0-48 24 24 0 1 1 0 48zm80 0a24 24 0 1 1 0-48 24 24 0 1 1 0 48zm80 0a24 24 0 1 1 0-48 24 24 0 1 1 0 48z"/></svg>