<svg xmlns="http://www.w3.org/2000/svg" viewBox="0 0 448 512"><!--! Font Awesome Pro 7.2.0 by @fontawesome - https://fontawesome.com License - https://fontawesome.com/license (Commercial License) Copyright 2026 Fonticons, Inc. --><path style="fill:var(--fa-secondary-color,currentColor);opacity:var(--fa-secondary-opacity,.4)" d="M64 96l0 64 128 0 0-64-128 0zm0 256l0 64 128 0 0-64-128 0zM256 96l0 64 128 0 0-64-128 0zm0 256l0 64 128 0 0-64-128 0z"/><path style="fill:var(--fa-primary-color,currentColor);opacity:var(--fa-primary-opacity,1)" d="M448 480l-448 0 0-448 448 0 0 448zM256 416l128 0 0-64-128 0 0 64zM64 416l128 0 0-64-128 0 0 64zm0-128l320 0 0-64-320 0 0 64zM256 160l128 0 0-64-128 0 0 64zM64 160l128 0 0-64-128 0 0 64z"/></svg>