<svg xmlns="http://www.w3.org/2000/svg" viewBox="0 0 512 512"><!--! Font Awesome Pro 7.2.0 by @fontawesome - https://fontawesome.com License - https://fontawesome.com/license (Commercial License) Copyright 2026 Fonticons, Inc. --><path fill="currentColor" d="M408.5 0c26.6 0 53.2 10.2 73.5 30.5 40.6 40.6 40.6 106.4 0 147.1l-18.3 18.3-33.9-33.9 18.3-18.3c21.9-21.9 21.9-57.3 0-79.2-10.9-10.9-25.2-16.4-39.6-16.4-29.6 1.3-55.4 20.9-60.6 51l-71.2 413-40.4 0-71.2-413c-5.2-30.1-31-49.7-60.6-51-14.4 0-28.7 5.5-39.6 16.4-21.9 21.9-21.9 57.3 0 79.2l18.3 18.3-33.9 33.9-18.3-18.3C-9.7 136.9-9.7 71.1 31 30.5 51.3 10.2 77.9 0 104.5 0 157.1 2.3 203.1 37.3 212.4 90.9l44.1 255.9 44.1-255.9C309.9 37.3 355.8 2.3 408.5 0z"/></svg>