<svg xmlns="http://www.w3.org/2000/svg" viewBox="0 0 512 512"><!--! Font Awesome Pro 7.2.0 by @fontawesome - https://fontawesome.com License - https://fontawesome.com/license (Commercial License) Copyright 2026 Fonticons, Inc. --><path fill="currentColor" d="M48 102.1L75.1 75c100-100 262.1-100 362 0 50 50 75 115.6 75 181 0 141.4-114.6 256-256 256-102.4 0-190.7-60.1-231.6-146.8 14.5-6.8 29-13.7 43.4-20.5 33.3 70.6 105.1 119.3 188.2 119.3 114.9 0 208-93.1 208-208 0-53.3-20.3-106.5-60.9-147.1-81.2-81.2-212.9-81.2-294.2 0L41 177 0 160 0 0 48 0 48 102.1zM180.1 160c33.1 0 60 26.9 60 60 0 13.5-4.5 26-12.1 36 7.6 10 12.1 22.5 12.1 36 0 33.1-26.9 60-60 60l-52 0 0-48 52 0c6.6 0 12-5.4 12-12s-5.4-12-12-12l-44 0 0-48 44 0c6.6 0 12-5.4 12-12s-5.4-12-12-12l-52 0 0-48 52 0zm164 0c30.9 0 56 25.1 56 56l0 80c0 30.9-25.1 56-56 56l-16 0c-30.9 0-56-25.1-56-56l0-80c0-30.9 25.1-56 56-56l16 0zm-16 48c-4.4 0-8 3.6-8 8l0 80c0 4.4 3.6 8 8 8l16 0c4.4 0 8-3.6 8-8l0-80c0-4.4-3.6-8-8-8l-16 0z"/></svg>