<svg xmlns="http://www.w3.org/2000/svg" viewBox="0 0 640 512"><!--! Font Awesome Pro 7.2.0 by @fontawesome - https://fontawesome.com License - https://fontawesome.com/license (Commercial License) Copyright 2026 Fonticons, Inc. --><path fill="currentColor" d="M615.7-10.2l-42.3 169.1-61-61-301.4 301.4 12.7 50.8 3.3 13.2-9.6 9.6-94 94c-6.5-25.9-14.1-56.3-22.8-91.2l-91.1-22.8 94-94 9.6-9.6 13.2 3.3 50.8 12.7 301.4-301.4-61-61 169.1-42.3 38.8-9.7-9.7 38.8zM103.4 427c16.7 4.2 29 7.3 36.8 9.2 2 7.8 5 20.1 9.2 36.8l24.4-24.4-9.2-36.8-36.8-9.2-24.4 24.4zm408-398l36.1 36.1 12-48.1-48.1 12z"/></svg>