<svg xmlns="http://www.w3.org/2000/svg" viewBox="0 0 512 512"><!--! Font Awesome Pro 7.2.0 by @fontawesome - https://fontawesome.com License - https://fontawesome.com/license (Commercial License) Copyright 2026 Fonticons, Inc. --><path fill="currentColor" d="M48 102.1L75.1 75c100-100 262.1-100 362 0 50 50 75 115.6 75 181 0 141.4-114.6 256-256 256-102.4 0-190.7-60.1-231.6-146.8 14.5-6.8 29-13.7 43.4-20.5 33.3 70.6 105.1 119.3 188.2 119.3 114.9 0 208-93.1 208-208 0-53.3-20.3-106.5-60.9-147.1-81.2-81.2-212.9-81.2-294.2 0L41 177 0 160 0 0 48 0 48 102.1zM208.1 352l-48 0 0-129.2-18.7 9.4-21.5-42.9c11.7-5.9 31.2-15.6 58.5-29.3l29.7 0 0 192zm152-144l-72 0 0 24 20 0c33.1 0 60 26.9 60 60s-26.9 60-60 60l-68 0 0-48 68 0c6.6 0 12-5.4 12-12s-5.4-12-12-12l-68 0 0-120 120 0 0 48z"/></svg>