<svg xmlns="http://www.w3.org/2000/svg" viewBox="0 0 512 512"><!--! Font Awesome Pro 7.2.0 by @fontawesome - https://fontawesome.com License - https://fontawesome.com/license (Commercial License) Copyright 2026 Fonticons, Inc. --><path fill="currentColor" d="M512.1 160l-41 17-68.1-68.1c-81.2-81.2-212.9-81.2-294.2 0-40.6 40.6-60.9 93.8-60.9 147.1 0 114.9 93.1 208 208 208 83.1 0 154.9-48.7 188.2-119.3 14.5 6.8 28.9 13.7 43.4 20.5-41 86.7-129.3 146.8-231.6 146.8-141.4 0-256-114.6-256-256 0-65.5 25-131 75-181 100-100 262.1-100 362 0l27.1 27.1 0-102.1 48 0 0 160zm-304 192l-48 0 0-129.2-18.7 9.4-21.5-42.9c11.7-5.9 31.2-15.6 58.5-29.3l29.7 0 0 192zm152-144l-72 0 0 24 20 0c33.1 0 60 26.9 60 60s-26.9 60-60 60l-68 0 0-48 68 0c6.6 0 12-5.4 12-12s-5.4-12-12-12l-68 0 0-120 120 0 0 48z"/></svg>