<svg xmlns="http://www.w3.org/2000/svg" viewBox="0 0 576 512"><!--! Font Awesome Pro 7.2.0 by @fontawesome - https://fontawesome.com License - https://fontawesome.com/license (Commercial License) Copyright 2026 Fonticons, Inc. --><path fill="currentColor" d="M320.4 104c0 48.6-39.4 88-88 88l-2.2 0 5.2 67.9c39.1-22.8 84.6-35.9 133.1-35.9 63.5 0 121.8 22.4 167.3 59.8l18.6 15.2-30.4 37.1-18.6-15.2c-37.3-30.6-84.9-48.9-136.9-48.9-48.4 0-92.9 15.9-128.9 42.7 1.4 19 2.7 36.1 3.9 51.5l-47.8 3.7-1.8-23.9-17.2-226.7-1.8-23.9 47.9-3.6c1.2 15.2 2.5 32.7 4 52.3l5.9 0c22.1 0 40-17.9 40-40l0-56-149.4 0c-.8 3.2-1.8 6.8-2.7 10.8-4.4 18.4-10.3 44.9-16.2 77.4-11.8 65.1-23.6 153.6-23.6 247.7 0 44 35.6 79.8 79.6 80l358.8-23.9 23.9-1.6 3.2 47.9-23.9 1.6-360 24-.8 .1-.8 0c-70.7 0-128-57.3-128-128 0-97.9 12.2-189.4 24.4-256.3 6.1-33.5 12.2-60.9 16.8-80.1 2.3-9.6 4.2-17.1 5.6-22.2 .7-2.6 1.2-4.6 1.6-5.9 .2-.7 .3-1.2 .4-1.6 0-.2 .1-.3 .1-.4 0 0 0-.1 0-.1l0-.1 0 0 5-17.4 234.1 0 0 104z"/></svg>