<svg xmlns="http://www.w3.org/2000/svg" viewBox="0 0 512 512"><!--! Font Awesome Pro 7.2.0 by @fontawesome - https://fontawesome.com License - https://fontawesome.com/license (Commercial License) Copyright 2026 Fonticons, Inc. --><path fill="currentColor" d="M192.4 400.6l12.1 47.7C231 421 246.7 405 251.5 400l9.1 0c4.8 5 20.5 21 47 48.3l12.1-47.7 .2-.6 127.8 0c3.9 13.9 10.2 36 18.7 66.2-23.6-6.7-59-16.7-106.2-30-12 47.6-21 83.2-27.1 107-17.1-17.6-42.7-43.9-77-79.1-34.2 35.2-59.9 61.5-77 79.1-6-23.8-15.1-59.4-27.2-107-47.2 13.3-82.6 23.4-106.2 30 8.5-30.3 14.8-52.4 18.7-66.3l127.8 0 .2 .6zM69.9 174.2l26.1 58.6 0-72.9 48 0 0 192-47.6 0-6.3-14.2-26.1-58.7 0 72.9-48 0 0-192 47.6 0 6.3 14.2zM312 208l-80 0 0 24 64 0 0 48-64 0 0 24 80 0 0 48-128 0 0-192 128 0 0 48zm72 56.9c0 5.2 1.1 10.4 3.1 15.2 6.3-9.4 11.7-17.5 16.1-24.1l25.7 0c4.4 6.7 9.8 14.7 16.1 24.1 2-4.8 3.1-10 3.1-15.2l0-104.9 48 0 0 104.9c0 13.6-3.2 27.1-9.3 39.3l-17.3 34.5-6.6 13.3-27.7 0c-3.9-5.9-10.3-15.5-19.2-28.7-8.8 13.2-15.2 22.8-19.2 28.7l-27.7 0-6.6-13.3-17.3-34.5c-6.1-12.2-9.3-25.7-9.3-39.3l0-104.9 48 0 0 104.9zM343.5 10.3L360 75.7c47.2-13.3 82.6-23.3 106.2-30-8.6 30.2-14.8 52.3-18.7 66.3l-127.8 0-.2-.6-12.1-47.7C281 90.9 265.4 107 260.5 112l-9.1 0-12.7-13-34.3-35.3-12.1 47.7-.2 .6-127.8 0c-3.9-14-10.2-36.1-18.7-66.3 23.6 6.7 59 16.7 106.2 30 12.1-47.5 21.1-83.2 27.1-106.9 17.1 17.6 42.7 43.9 76.9 79.1 34.2-35.1 59.9-61.5 77-79.1l10.5 41.6z"/></svg>