<svg xmlns="http://www.w3.org/2000/svg" viewBox="0 0 512 512"><!--! Font Awesome Pro 7.2.0 by @fontawesome - https://fontawesome.com License - https://fontawesome.com/license (Commercial License) Copyright 2026 Fonticons, Inc. --><path fill="currentColor" d="M408 152c57.4 0 104 46.6 104 104 0 141.4-114.6 256-256 256-64 0-122.6-23.5-167.5-62.4 10.5-12.1 21-24.2 31.4-36.3 36.5 31.6 84 50.7 136.1 50.7 78.9 0 147.5-43.9 182.8-108.7-9.7 3-20.1 4.7-30.8 4.7-57.4 0-104-46.6-104-104s46.6-104 104-104zM256 0c64 0 122.6 23.5 167.5 62.4-10.5 12.1-21 24.2-31.4 36.3-36.5-31.6-84-50.7-136.1-50.7-78.9 0-147.6 43.9-182.8 108.6 9.7-3 20.1-4.6 30.8-4.6 57.4 0 104 46.6 104 104S161.4 360 104 360 0 313.4 0 256C0 254.1 .1 252.2 .2 250.3 3.2 111.5 116.5 0 256 0zM408 200a56 56 0 1 0 0 112 56 56 0 1 0 0-112zm-304 0a56 56 0 1 0 0 112 56 56 0 1 0 0-112z"/></svg>