<svg xmlns="http://www.w3.org/2000/svg" viewBox="0 0 640 512"><!--! Font Awesome Pro 7.2.0 by @fontawesome - https://fontawesome.com License - https://fontawesome.com/license (Commercial License) Copyright 2026 Fonticons, Inc. --><path fill="currentColor" d="M449.2 417.7l111.8 44.7c29.3-9.8 50.1-16.7 62.5-20.8l15.2 45.5c-9.6 3.2-35.9 12-79.1 26.4l-8.2-3.3-111.1-44.4-120 48-120-48-111.1 44.4-8.2 3.3C37.9 499.2 11.6 490.4 2 487.2l15.2-45.5c12.4 4.1 33.2 11 62.4 20.8l111.8-44.7 8.9-3.6 120 48 120-48 8.9 3.6zM608.4 320c0 34-13.3 64.9-35 87.9l-10.8 3.6-48.1-19.3c27.1-12.8 45.9-40.3 45.9-72.2l0-6.3-33.5 22.3-413.1 0-33.5-22.3 0 6.3c0 31.9 18.8 59.4 45.8 72.2l-48.1 19.3-10.8-3.6C47.1 386.4 34.1 358 32.5 326.6l-.2-6.6 0-96 96 64 384 0 96-64 0 96zm-212-80l-76.8 0-80-64-31.2 0 0 64-48 0 0-112 96 0 140 112zM208.4 96a48 48 0 1 1 0-96 48 48 0 1 1 0 96z"/></svg>