<svg xmlns="http://www.w3.org/2000/svg" viewBox="0 0 576 512"><!--! Font Awesome Pro 7.2.0 by @fontawesome - https://fontawesome.com License - https://fontawesome.com/license (Commercial License) Copyright 2026 Fonticons, Inc. --><path fill="currentColor" d="M24 32c41.7 0 78.4 21.3 99.9 53.5 24.9-32.5 64-53.5 108.1-53.5 75.1 0 136 60.9 136 136l0 84.1c21.9-17.6 49.7-28.1 80-28.1 70.7 0 128 57.3 128 128S518.7 480 448 480c-30.3 0-58.1-10.5-80-28.1l0 60.1-144 0 0-48 96 0 0-296c0-48.6-39.4-88-88-88s-88 39.4-88 88l0 248-48 0 0-264c0-39.8-32.2-72-72-72L0 80 0 32 24 32zM448 272a80 80 0 1 0 0 160 80 80 0 1 0 0-160z"/></svg>