<svg xmlns="http://www.w3.org/2000/svg" viewBox="0 0 448 512"><!--! Font Awesome Pro 7.2.0 by @fontawesome - https://fontawesome.com License - https://fontawesome.com/license (Commercial License) Copyright 2026 Fonticons, Inc. --><path fill="currentColor" d="M448 512l-48 0 0-32-352 0 0 32-48 0 0-512 448 0 0 512zM48 304l0 128 352 0 0-128-352 0zm224 80l-96 0 0-48 96 0 0 48zM48 256l152 0 0-80-152 0 0 80zm200 0l152 0 0-80-152 0 0 80zM48 128l152 0 0-80-152 0 0 80zm200 0l152 0 0-80-152 0 0 80z"/></svg>