<svg xmlns="http://www.w3.org/2000/svg" viewBox="0 0 576 512"><!--! Font Awesome Pro 7.2.0 by @fontawesome - https://fontawesome.com License - https://fontawesome.com/license (Commercial License) Copyright 2026 Fonticons, Inc. --><path fill="currentColor" d="M136 240c24.1 0 46.3 8.3 64 22 9.9-3.9 20.8-6 32-6 44.5 0 81.4 34 87.2 76.4 29.1 16.5 48.8 47.7 48.8 83.6l0 96-368 0 0-96c0-28.5 12.4-54 32.1-71.5 0-55.8 46-104.5 103.9-104.5zm0 48c-33.4 0-60.2 31.2-55.4 64.1l2.2 15.2-12.9 8.3C56.7 384.3 48 399.1 48 416l0 48 272 0 0-48c0-20.9-13.4-38.7-32.1-45.3l-17.1-6 1.1-18.1c1.4-22.5-17.3-42.6-39.9-42.6-8.4 0-16.1 2.5-22.5 6.9L192 322.8 178 307c-10.3-11.7-25.3-19-42-19zm256-96c37 0 69.3 19.3 87.8 48.3 53.8 4 96.2 48.9 96.2 103.7l0 104-160 0 0-32c0-5.4-.3-10.7-.9-16l112.9 0 0-56c0-30.9-25.1-56-56-56-1.3 0-2.7 .1-4.6 .2l-17.2 1.4-6.8-15.8c-8.6-20-28.4-33.8-51.4-33.8-20.5 0-38.3 11-48.1 27.4-9.3-13.5-20.9-25.2-34.3-34.7 19-24.7 48.8-40.7 82.4-40.7zM253.2-24.8l47.3 70.4 83.3-16.3 23.3-4.5-4.5 23.2-16.3 83.3 19.8 13.3c-4.6-.4-9.3-.7-14.1-.7-22.3 0-43.4 4.8-62.5 13.4-.3-.7-.5-1.4-.8-2.2-20.3-49-76.5-72.3-125.4-52-37 15.3-59.3 51.2-59.2 88.9-2.6-.1-5.3-.2-8-.2-33.4 0-64.1 11-89 29.2-16.5-11.1-31-20.9-43.4-29.3l19.7-13.2 70.4-47.3-16.3-83.3-4.6-23.3 23.3 4.5 83.3 16.3 47.4-70.4 13.2-19.7 13.2 19.7zM221.6 147.7c24.5-10.1 52.6 1.5 62.7 26 1.6 3.9 2.6 8 3.2 12-8.4 7.9-15.9 16.8-22.3 26.5-10.6-2.7-21.8-4.1-33.2-4.1-8.2 0-16.2 .8-24 2.2-4.7-2.5-9.6-4.8-14.6-6.9-5.5-22.6 6.1-46.5 28.2-55.7z"/></svg>