<svg xmlns="http://www.w3.org/2000/svg" viewBox="0 0 640 512"><!--! Font Awesome Pro 7.2.0 by @fontawesome - https://fontawesome.com License - https://fontawesome.com/license (Commercial License) Copyright 2026 Fonticons, Inc. --><path fill="currentColor" d="M305.8 512l-50.6 0 37.3-112 50.6 0-37.3 112zm120 0l-50.6 0 37.3-112 50.6 0-37.3 112zm120 0l-50.6 0 37.3-112 50.6 0-37.3 112zM253.7-24.7l47.3 70.4 83.3-16.3 23.3-4.5c-2.8 14.2-6.3 32.3-10.6 54.2-.4 .3-.8 .7-1.1 1l-3.4 0c-35.4 0-67.1 15.3-89.1 39.6-26.6-23.1-64.9-30.7-99.6-16.3-49 20.3-72.2 76.4-52 125.4 10.8 26.2 32 44.9 56.7 53.6l0 50.4-28.6 5.6 0 0-83.3 16.3-23.3 4.5 4.5-23.2 16.3-83.3-70.4-47.4-19.7-13.2c4.7-3.1 34.7-23.4 90.1-60.6l-16.3-83.2-4.5-23.3 23.3 4.5 83.3 16.3 47.4-70.4 13.3-19.7 13.2 19.7zM480.4 96c44.2 0 80 35.8 80 80l0 9.7c28.5 14.6 48 44.1 48 78.3l0 88-352 0 0-80c0-38.8 27.6-71.2 64.3-78.5 3.3-36.7 34.1-65.5 71.7-65.5l24 0c14.6-19.4 37.8-32 64-32zm0 48c-12.7 0-23.8 7.4-28.9 18.3l-6.5 13.7-52.6 0c-13.3 0-24 10.7-24 24l0 40-32 0c-17.7 0-32 14.3-32 32l0 32 256 0 0-40c0-18.6-12.7-34.3-30-38.8l-18-4.6 0-44.6c0-17.7-14.3-32-32-32zM222 147.7c19.1-7.9 40.3-2.6 53.5 11.7-28.6 15.5-50.7 41.6-60.9 73.1-8.1-5.1-14.7-12.6-18.6-22.1-10.1-24.5 1.5-52.6 26-62.7z"/></svg>