<svg xmlns="http://www.w3.org/2000/svg" viewBox="0 0 640 512"><!--! Font Awesome Pro 7.2.0 by @fontawesome - https://fontawesome.com License - https://fontawesome.com/license (Commercial License) Copyright 2026 Fonticons, Inc. --><path fill="currentColor" d="M216.4 192c37.9 0 71.6 17.6 93.6 45 14.9-8.3 32.1-13 50.4-13 50 0 91.7 35.3 101.7 82.3 47 10 82.3 51.7 82.3 101.7l0 104-512 0 0-104c0-43.3 26.4-80.3 64-96l0 0c0-66.3 53.7-120 120-120zm0 48c-39.8 0-72 32.2-72 72l0 37.2-19.2 3.9C99.6 358.3 80.4 381 80.4 408l0 56 416 0 0-56c0-30.9-25.1-56-56-56l-24 0 0-24c0-30.9-25.1-56-56-56-15.6 0-29.6 6.3-39.8 16.6l-24.3 24.5-14.5-31.3c-11.5-24.7-36.4-41.8-65.4-41.8zM413.7-24.7l47.3 70.4 83.3-16.3 23.3-4.5-4.5 23.2-16.3 83.3 70.4 47.4 19.7 13.2-19.7 13.2-70.4 47.3 11.7 59.6c-15.4-19-35.4-34.2-58.2-43.9-4.4-10.2-9.8-19.9-16.2-28.8 14.1-24.9 17-55.7 5.2-84.2-20.3-49-76.5-72.2-125.4-51.9-29.8 12.4-50.1 38-56.8 67.2-21.4-13.8-46.2-22.8-72.9-25.6l20.1-13.6c-12.8-65.5-19.8-101-20.8-106.5l23.3 4.5 83.3 16.3 47.4-70.4 13.3-19.7 13.3 19.7zM382 147.7c24.5-10.1 52.6 1.5 62.7 26 4 9.7 4.6 20 2.3 29.5-24.6-17.1-54.5-27.1-86.7-27.1-1.8 0-3.5 0-5.3 .1 4.4-12.4 13.8-23 26.9-28.4z"/></svg>