<svg xmlns="http://www.w3.org/2000/svg" viewBox="0 0 640 512"><!--! Font Awesome Pro 7.2.0 by @fontawesome - https://fontawesome.com License - https://fontawesome.com/license (Commercial License) Copyright 2026 Fonticons, Inc. --><path fill="currentColor" d="M340.4-21.4l58 86.2c-14.9 6.4-28.8 14.5-41.7 24l-36.3-53.9-47.8 71-8.9 13.2-15.6-3.1-84-16.4 16.4 84 3.1 15.6-13.2 8.9-71 47.8 71 47.8 13.2 8.9-3.1 15.6-16.4 84 84-16.4 15.6-3.1 8.9 13.2 47.8 71 36.2-53.8c12.8 9.5 26.8 17.6 41.7 24-45 66.9-70.9 105.6-77.9 115.8-6.8-10.1-33-49.1-78.7-117-80.3 15.7-126.4 24.7-138.3 27.1 2.3-11.9 11.4-58.1 27-138.4-67.9-45.7-106.9-71.9-117-78.7 10.1-6.8 49.1-33 117-78.7-15.7-80.3-24.7-126.4-27-138.3 11.9 2.3 58.1 11.4 138.3 27 45.7-67.9 71.9-106.9 78.7-117l19.9 29.6zM480.5 416a160 160 0 1 1 0-320 160 160 0 1 1 0 320zM310.3 136.4c-12.6 17.9-22.4 37.8-28.9 59.1-19.8 12.8-32.9 35.1-32.9 60.4 0 25.3 13.1 47.6 32.9 60.4 6.5 21.4 16.3 41.3 28.9 59.1-61.5-5.2-109.8-56.7-109.8-119.5s48.3-114.4 109.8-119.6zM480.5 144a112 112 0 1 0 0 224 112 112 0 1 0 0-224z"/></svg>