<svg xmlns="http://www.w3.org/2000/svg" viewBox="0 0 576 512"><!--! Font Awesome Pro 7.2.0 by @fontawesome - https://fontawesome.com License - https://fontawesome.com/license (Commercial License) Copyright 2026 Fonticons, Inc. --><path fill="currentColor" d="M578.4 261.8l-7.6 9.3c-16.4 19.9-35.7 37.5-56.2 53.3l54.5 94.4-41.6 24-52.4-90.8c-17 10.6-36.2 20.8-57.3 29.6l27.8 103.9-46.4 12.4-27.1-100.9c-18.9 5-38.9 8.5-60 10.1l0 105-48 0 0-105c-21.1-1.6-41.1-5.1-60-10.1l-27 100.9-46.4-12.4 27.8-103.9c-21.1-8.7-40.3-18.9-57.3-29.5l-52.4 90.8-41.6-24 54.4-94.3C41.3 308.7 22 291.1 5.6 271.2l-7.6-9.3 37.2-30.2 7.5 9.3c19 22.9 42.8 42.5 67.1 59.4 43.5 30.3 104.8 59.7 178.3 59.7s134.7-29.4 178.3-59.7c24.3-16.9 48.1-36.6 67.1-59.4l7.5-9.3 37.3 30.2z"/></svg>