<svg xmlns="http://www.w3.org/2000/svg" viewBox="0 0 576 512"><!--! Font Awesome Pro 7.2.0 by @fontawesome - https://fontawesome.com License - https://fontawesome.com/license (Commercial License) Copyright 2026 Fonticons, Inc. --><path fill="currentColor" d="M280 380c24.3 0 44 19.7 44 44l0 16-40 0 0-16c0-2.2-1.8-4-4-4l-16 0c-2.2 0-4 1.8-4 4l0 80c0 2.2 1.8 4 4 4l16 0c2.2 0 4-1.8 4-4l0-16 40 0 0 16c0 24.3-19.7 44-44 44l-16 0c-24.3 0-44-19.7-44-44l0-80c0-24.3 19.7-44 44-44l16 0zm164 40l-44 0c-6.6 0-12 5.4-12 12s5.4 12 12 12c28.7 0 52 23.3 52 52s-23.3 52-52 52l-52 0 0-40 52 0c6.6 0 12-5.4 12-12s-5.4-12-12-12c-28.7 0-52-23.3-52-52s23.3-52 52-52l44 0 0 40zm128 0l-44 0c-6.6 0-12 5.4-12 12s5.4 12 12 12c28.7 0 52 23.3 52 52s-23.3 52-52 52l-52 0 0-40 52 0c6.6 0 12-5.4 12-12s-5.4-12-12-12c-28.7 0-52-23.3-52-52s23.3-52 52-52l44 0 0 40zM416 160l0 176-48 0 0-128-160 0 0-160-128 0 0 416 96 0 0 48-144 0 0-512 224 0 160 160zm-160 0l92.1 0-92.1-92.1 0 92.1z"/></svg>