<svg xmlns="http://www.w3.org/2000/svg" viewBox="0 0 576 512"><!--! Font Awesome Pro 7.2.0 by @fontawesome - https://fontawesome.com License - https://fontawesome.com/license (Commercial License) Copyright 2026 Fonticons, Inc. --><path fill="currentColor" d="M344 380c24.3 0 44 19.7 44 44l0 124-40 0 0-48-24 0 0 48-40 0 0-124c0-24.3 19.7-44 44-44l16 0zm120 0c33.1 0 60 26.9 60 60s-26.9 60-60 60l-12 0 0 48-40 0 0-168 52 0zM580 548l-40 0 0-168 40 0 0 168zM351.3 18.4L364 71c.3 .1 .6 .3 1 .4l46.3-28.2 16.1-9.9 13.3 13.4 70 70c-3.5 5.7-16.2 26.5-38.2 62.3 .1 .3 .3 .6 .4 .9 40.8 9.9 64.5 15.6 71.1 17.2l0 117.8-18.4 4.4-52.7 12.7c-.5 1.3-1.1 2.6-1.7 4l-54 0c6.2-9.9 11.2-20.6 15-31.9l4.2-12.6c3-.7 22.9-5.5 59.6-14.4l0-42.2-46.7-11.2-12.9-3.1-4.2-12.6c-2.3-6.9-5-13.5-8.2-19.8l-6-11.9 7-11.4 25-40.9-29.9-29.9-41 25-11.3 6.9-11.9-5.9c-6.3-3.2-12.9-5.9-19.8-8.2l-12.6-4.2-3.1-12.9-11.2-46.7-42.2 0c-8.9 36.7-13.7 56.6-14.4 59.6l-12.6 4.2c-6.9 2.3-13.5 5-19.8 8.2l-11.9 5.9-11.4-6.9-40.9-25-29.9 29.9 25 40.9 6.9 11.4-5.9 11.9c-3.2 6.3-5.9 12.9-8.2 19.8l-4.2 12.6-12.9 3.1-46.7 11.2 0 42.2c36.7 8.9 56.6 13.7 59.6 14.4l4.2 12.6c2.3 6.9 5 13.5 8.2 19.8l5.9 11.9-6.9 11.3-25 41 29.9 29.9 40.9-25 11.4-7 11.9 6c6.4 3.2 13.1 5.9 19.9 8.2l0 49.9c-10-2.5-19.7-5.7-29-9.6-35.8 21.9-56.6 34.6-62.3 38.2l-70-70-13.4-13.3 9.9-16.1 28.2-46.3c-.1-.3-.3-.6-.4-1-40.8-9.8-64.5-15.5-71-17.1l0-117.8 18.4-4.5 52.6-12.8c.1-.3 .3-.6 .4-.9l-28.2-46.2-9.9-16.1 83.3-83.3 16.1 9.9 46.2 28.2c.3-.1 .6-.3 .9-.4l12.8-52.6 4.5-18.4 117.8 0 4.4 18.4zM328 420c-2.2 0-4 1.8-4 4l0 36 24 0 0-36c0-2.2-1.8-4-4-4l-16 0zm124 40l12 0c11 0 20-9 20-20s-9-20-20-20l-12 0 0 40zM288 352a96 96 0 1 1 0-192 96 96 0 1 1 0 192zm0-144a48 48 0 1 0 0 96 48 48 0 1 0 0-96z"/></svg>