<svg xmlns="http://www.w3.org/2000/svg" viewBox="0 0 576 512"><!--! Font Awesome Pro 7.2.0 by @fontawesome - https://fontawesome.com License - https://fontawesome.com/license (Commercial License) Copyright 2026 Fonticons, Inc. --><path fill="currentColor" d="M344 380c24.3 0 44 19.7 44 44l0 124-40 0 0-48-24 0 0 48-40 0 0-124c0-24.3 19.7-44 44-44l16 0zm120 0c33.1 0 60 26.9 60 60s-26.9 60-60 60l-12 0 0 48-40 0 0-168 52 0zM580 548l-40 0 0-168 40 0 0 168zM328 420c-2.2 0-4 1.8-4 4l0 36 24 0 0-36c0-2.2-1.8-4-4-4l-16 0zm124 40l12 0c11 0 20-9 20-20s-9-20-20-20l-12 0 0 40zM367.4 2.7l15.4 68.2c6.2 3.2 12.2 6.7 18.1 10.4l66.8-20.7 18.3-5.7 9.6 16.6 56 97 9.6 16.6c-3.2 2.9-25 23.1-65.5 60.4 .2 3.4 .3 6.9 .3 10.5 0 3.5-.1 7-.3 10.4l51.4 47.4 14.1 13-5.3 9.1-55.6 0-45.8-42.2-8.9-8.2 1.3-12c.6-5.9 1-11.8 1-17.6 0-5.8-.4-11.7-1-17.6l-1.3-12 8.9-8.2 45.8-42.3-36.8-63.8-59.6 18.5-11.6 3.6-9.8-7.2c-9.4-6.9-19.6-12.8-30.4-17.6l-11.1-4.9-2.7-11.8-13.7-60.8-73.6 0-13.8 60.8-2.7 11.8-11.1 4.9c-10.8 4.8-21 10.6-30.3 17.5l-9.8 7.2-11.6-3.6-59.6-18.5-36.8 63.8 45.8 42.3 8.9 8.2-1.3 12c-1.3 11.5-1.3 23.7 0 35.2l1.3 12-8.9 8.2-45.8 42.3 36.8 63.8 59.5-18.5 11.6-3.6 9.8 7.2c14 10.3 29.8 18.3 46.7 23.7l0 49.7c-23.4-5.6-45.3-15-64.9-27.7l-66.7 20.8-18.3 5.7-9.6-16.6-56-97-9.6-16.6c3.2-2.9 25-23.1 65.4-60.5-.2-3.4-.3-6.9-.3-10.4 0-3.5 .1-7 .3-10.5l-51.3-47.4-14.1-13 9.6-16.6 56-97 9.6-16.6c4.1 1.3 32.5 10.1 85.1 26.4 5.8-3.8 11.8-7.2 18-10.4l15.5-68.2 4.2-18.7 150.4 0 4.2 18.7zM288 352a96 96 0 1 1 0-192 96 96 0 1 1 0 192zm0-144a48 48 0 1 0 0 96 48 48 0 1 0 0-96z"/></svg>