<svg xmlns="http://www.w3.org/2000/svg" viewBox="0 0 576 512"><!--! Font Awesome Pro 7.2.0 by @fontawesome - https://fontawesome.com License - https://fontawesome.com/license (Commercial License) Copyright 2026 Fonticons, Inc. --><path fill="currentColor" d="M124.1 384c23.5 30.1 55.2 53.6 91.7 67.1-12.1-19.1-23.4-41.9-32.5-67.1l51.5 0c4.1 9.6 8.5 18.7 13.1 27.2 11.2 20.5 22.9 35.6 32.7 44.8 3.2 3 5.7 4.9 7.5 6.2 1.8-1.3 4.3-3.2 7.5-6.2 9.8-9.3 21.4-24.3 32.7-44.8 4.6-8.4 9-17.5 13.1-27.2l51.5 0c-9.2 25.2-20.4 48-32.6 67.1 36.5-13.5 68.1-37 91.7-67.1l57.8 0C465.4 460.5 382.7 512 288 512S110.6 460.5 66.3 384l57.8 0zM36 227c0 16.8 3 33.4 8.9 49.2l3.1 8.2 7.7-20.4c2.9-7.7 4.3-15.8 4.3-24l0-20 40 0 0 20c0 8.2 1.5 16.3 4.3 24l7.7 20.4 3.1-8.2c5.9-15.7 8.9-32.4 8.9-49.2l0-55 40 0 0 55c0 21.6-3.9 43-11.5 63.2l-13.8 36.8-4.8 13-43.7 0c-3.2-8.5-6.5-17.5-10.1-27.1-3.6 9.6-7 18.6-10.1 27.1l-43.7 0-4.8-13-13.8-36.8C-.1 270-4 248.6-4 227l0-55 40 0 0 55zm208 0c0 16.8 3 33.4 8.9 49.2l3.1 8.2 7.7-20.4c2.9-7.7 4.3-15.8 4.3-24l0-20 40 0 0 20c0 8.2 1.5 16.3 4.3 24l7.7 20.4 3.1-8.2c5.9-15.7 8.9-32.4 8.9-49.2l0-55 40 0 0 55c0 21.6-3.9 43-11.5 63.2l-13.8 36.8-4.8 13-43.8 0c-3.2-8.5-6.5-17.5-10.1-27.1-3.6 9.6-7 18.6-10.1 27.1l-43.7 0-4.8-13-13.8-36.8C207.9 270 204 248.6 204 227l0-55 40 0 0 55zm208 0c0 16.8 3 33.4 8.9 49.2l3.1 8.2 7.7-20.4c2.9-7.7 4.3-15.8 4.3-24l0-20 40 0 0 20c0 8.2 1.5 16.3 4.3 24l7.7 20.4 3.1-8.2c5.9-15.7 8.9-32.4 8.9-49.2l0-55 40 0 0 55c0 21.6-3.9 43-11.5 63.2l-13.8 36.8-4.8 13-43.8 0c-3.2-8.5-6.5-17.5-10.1-27.1-3.6 9.6-7 18.6-10.1 27.1l-43.8 0-4.8-13-13.8-36.8C415.9 270 412 248.6 412 227l0-55 40 0 0 55zM288 0c94.7 0 177.4 51.5 221.7 128l-57.8 0c-23.5-30.1-55.2-53.6-91.7-67.1 12.1 19.1 23.4 41.9 32.6 67.1l-51.5 0c-4.1-9.6-8.5-18.7-13.1-27.2-11.2-20.5-22.9-35.6-32.7-44.8-3.2-3-5.7-4.9-7.5-6.2-1.8 1.3-4.3 3.2-7.5 6.2-9.8 9.3-21.4 24.3-32.7 44.8-4.6 8.4-9 17.5-13.1 27.2l-51.5 0c9.2-25.2 20.4-48 32.5-67.1-36.5 13.5-68.1 37-91.7 67.1l-57.7 0C110.6 51.5 193.3 0 288 0z"/></svg>