<svg xmlns="http://www.w3.org/2000/svg" viewBox="0 0 640 512"><!--! Font Awesome Pro 7.2.0 by @fontawesome - https://fontawesome.com License - https://fontawesome.com/license (Commercial License) Copyright 2026 Fonticons, Inc. --><path fill="currentColor" d="M96 64l432 0 80 80 0 224-80 80-176 0 0 48-224 0 0-48-80 0 0-368-48 0 0-48 96 0 0 32zm0 336l412.1 0 51.9-51.9 0-184.2-51.9-51.9-412.1 0 0 288zm304-32a112 112 0 1 1 0-224 112 112 0 1 1 0 224zM256 336l-112 0 0-48 112 0 0 48zm172-35.3l-2.1 4.2-10.7 21.4c23.3-5 42.4-21.2 51.3-42.7l-31.2-15.6-7.3 0 0 32.7zm-98.4-29.6c5 23.3 21.2 42.4 42.7 51.3l15.6-31.2 0-7.3-32.7 0-4.2-2.1-21.4-10.7zm55.2-85.5c-23.3 5-42.4 21.2-51.3 42.8l31.2 15.6 7.3 0 0-32.7 2.1-4.2 10.7-21.4zM412 220.7l0 7.3 32.7 0 4.2 2.1 21.4 10.7c-5-23.3-21.2-42.4-42.7-51.3L412 220.7zM256 224l-112 0 0-48 112 0 0 48z"/></svg>