<svg xmlns="http://www.w3.org/2000/svg" viewBox="0 0 576 512"><!--! Font Awesome Pro 7.2.0 by @fontawesome - https://fontawesome.com License - https://fontawesome.com/license (Commercial License) Copyright 2026 Fonticons, Inc. --><path fill="currentColor" d="M368 69C471 90.7 542.9 181.3 544 288l0 64 32 0 0 128-576 0 0-128 32 0 0-64C32 180.3 104.7 90.4 208 68.9l0-36.9 160 0 0 37zM48 432l480 0 0-32-480 0 0 32zM208 118.2C132.2 138.6 80 206.5 80 288l0 64 128 0 0-233.8zM256 352l64 0 0-272-64 0 0 272zm112 0l128 0 0-63.7c-1-81.2-52.8-149.4-128-169.9L368 352z"/></svg>