<svg xmlns="http://www.w3.org/2000/svg" viewBox="0 0 448 512"><!--! Font Awesome Pro 7.2.0 by @fontawesome - https://fontawesome.com License - https://fontawesome.com/license (Commercial License) Copyright 2026 Fonticons, Inc. --><path fill="currentColor" d="M244.9 42.5l70.9 104 9.7 14.2-10.3 13.8-133.7 178.2c46.8 68.6 75.8 111 86.9 127.3L0 480 0 32 237.7 32 244.9 42.5zM448 480l-121.5 0-32.7-48 106.2 0 0-352-71.4 0-32.7-48 152.2 0 0 448zM48 432l129.5 0-45.3-66.5-9.7-14.2 10.3-13.8 133.7-178.3-54.1-79.3-164.4 0 0 352zm320-48l-107 0-20.5-30 58.6-78.2 68.9 108.2zM128 192a32 32 0 1 1 0-64 32 32 0 1 1 0 64z"/></svg>