<svg xmlns="http://www.w3.org/2000/svg" viewBox="0 0 640 512"><!--! Font Awesome Pro 7.2.0 by @fontawesome - https://fontawesome.com License - https://fontawesome.com/license (Commercial License) Copyright 2026 Fonticons, Inc. --><path fill="currentColor" d="M224 63.6l1.2 3.9 24.6 84.1 174.8 174.8 84.2 24.6 3.9 1.2 126.2 126.2-96.2 96.2-126.2-126.2-1.2-3.9-24.6-84.1-174.9-174.9-84-24.5-3.9-1.2-126.2-126.2 96.2-96.2 126.2 126.2zM190.4 228.1l14.5 14.5c-60.8 80.9-82.2 161.5-89.3 218 56.6-7.1 137.2-28.6 218-89.3l14.4 14.4 8.3 28.5C236.8 501.4 118.2 512 64.1 512 64.1 457.9 74.7 339.4 162 219.8l28.4 8.3zm268.5 195l83.6 83.6 28.3-28.3-83.6-83.6-40.1-11.7 11.7 40.1zM314.1 351.8c-25.1 19.5-61.4 17.8-84.4-5.3-23.1-23.1-24.8-59.4-5.3-84.5l89.7 89.7zM576.1 0c0 54.1-10.6 172.6-97.8 292.2l-28.5-8.3-14.4-14.4c60.8-80.9 82.2-161.5 89.4-218.1-56.6 7.1-137.2 28.6-218.1 89.4l-14.5-14.5-8.3-28.4C403.5 10.6 522.1 0 576.1 0zm-250 160.2c25.1-19.6 61.4-17.8 84.5 5.3 23.1 23.1 24.8 59.4 5.2 84.5l-89.8-89.8zM69.4 33.6l83.6 83.6 40 11.7-11.7-40.1-83.6-83.6-28.3 28.3z"/></svg>