<svg xmlns="http://www.w3.org/2000/svg" viewBox="0 0 512 512"><!--! Font Awesome Pro 7.2.0 by @fontawesome - https://fontawesome.com License - https://fontawesome.com/license (Commercial License) Copyright 2026 Fonticons, Inc. --><path fill="currentColor" d="M512 448l-512 0 0-48 512 0 0 48zM256 32c97.2 0 176 78.8 176 176 0 16.6-2.4 32.7-6.7 48l86.7 0 0 48-144 0 0-33.9 .8-1.4c9.7-18 15.2-38.6 15.2-60.6 0-70.7-57.3-128-128-128S128 137.3 128 208c0 22 5.5 42.6 15.2 60.6l.8 1.4 0 33.9-144 0 0-48 86.7 0c-4.3-15.3-6.7-31.4-6.7-48 0-97.2 78.8-176 176-176z"/></svg>