<svg xmlns="http://www.w3.org/2000/svg" viewBox="0 0 576 512"><!--! Font Awesome Pro 7.2.0 by @fontawesome - https://fontawesome.com License - https://fontawesome.com/license (Commercial License) Copyright 2026 Fonticons, Inc. --><path fill="currentColor" d="M416 544l-48 0 0-128 48 0 0 128zm137.9-88L520 489.9 446.1 416 480 382.1 553.9 456zm-440-240L77.4 252.5c-18.8 18.8-29.4 44.4-29.4 71 0 55.5 45 100.4 100.4 100.4 26.6 0 52.2-10.6 71-29.4L320 294.1 353.9 328 253.4 428.5c-27.8 27.8-65.6 43.5-105 43.5-82 0-148.4-66.5-148.4-148.4 0-39.4 15.6-77.1 43.5-105L80 182.1 113.9 216zM427.6 40c82 0 148.4 66.5 148.4 148.4 0 39.4-15.6 77.1-43.5 105l-36.5 36.5-33.9-33.9 36.5-36.5c18.8-18.8 29.4-44.4 29.4-71 0-55.5-45-100.4-100.4-100.4-26.6 0-52.2 10.6-71 29.4L256 217.9 222.1 184 322.6 83.5C350.4 55.6 388.2 40 427.6 40zM129.9 96L96 129.9 22.1 56 56 22.1 129.9 96zM208 96l-48 0 0-128 48 0 0 128z"/></svg>