<svg xmlns="http://www.w3.org/2000/svg" viewBox="0 0 512 512"><!--! Font Awesome Pro 7.2.0 by @fontawesome - https://fontawesome.com License - https://fontawesome.com/license (Commercial License) Copyright 2026 Fonticons, Inc. --><path fill="currentColor" d="M256 0C397.4 0 512 114.6 512 256S397.4 512 256 512C214 512 174.4 501.8 139.4 483.8 235 452.2 304 362.2 304 256S235 59.7 139.4 28.1C174.4 10.2 214 0 256 0zm7.3 48.2C317.9 100.6 352 174.2 352 256s-34.1 155.4-88.8 207.8C374.7 460 464 368.5 464 256S374.8 52 263.3 48.2zM67.4 343.8c12.7 27.2 31.1 51.3 53.7 70.5-10.4 12.2-20.8 24.3-31.1 36.5-27.8-23.7-50.5-53.3-66.1-86.8 14.5-6.8 29-13.5 43.5-20.3zM53.3 209c-3.5 15.1-5.3 30.8-5.3 47s1.8 31.9 5.3 47L6.6 313.8C2.3 295.2 0 275.8 0 256s2.3-39.2 6.6-57.8L53.3 209zM121.2 97.6c-22.6 19.3-41.1 43.3-53.7 70.5L23.9 147.8C39.5 114.3 62.2 84.8 90 61.1l31.1 36.6z"/></svg>