<svg xmlns="http://www.w3.org/2000/svg" viewBox="0 0 640 512"><!--! Font Awesome Pro 7.2.0 by @fontawesome - https://fontawesome.com License - https://fontawesome.com/license (Commercial License) Copyright 2026 Fonticons, Inc. --><path fill="currentColor" d="M339.9-21.4l58.8 87.4c80.3-15.7 126.4-24.7 138.4-27-2.3 11.9-11.4 58.1-27.1 138.3 67.9 45.7 106.9 71.9 117 78.7-10.1 6.8-49.1 33-117 78.7 15.7 80.3 24.7 126.4 27.1 138.4-11.9-2.3-58.1-11.4-138.4-27.1-45.7 67.9-71.9 106.9-78.7 117-6.8-10.1-33-49.1-78.7-117-80.3 15.7-126.4 24.7-138.3 27.1 2.3-11.9 11.4-58.1 27-138.4-67.9-45.7-106.9-71.9-117-78.7 10.1-6.8 49.1-33 117-78.7-15.7-80.3-24.7-126.4-27-138.3 11.9 2.3 58.1 11.4 138.3 27 45.7-67.9 71.9-106.9 78.7-117l19.9 29.6zM272.2 105.9l-8.9 13.2-15.6-3.1-84-16.4 16.4 84 3.1 15.6-13.2 8.9-71 47.8 71 47.8 13.2 8.9-3.1 15.6-16.4 84 84-16.4 15.6-3.1 8.9 13.2 47.8 71 47.8-71 8.9-13.2 15.6 3.1 84 16.4-16.4-84-3.1-15.6 13.2-8.9 71-47.8-71-47.8-13.2-8.9 3.1-15.6 16.4-84-84 16.4-15.6 3.1-8.9-13.2-47.8-71-47.8 71zM320 160c13.8 0 26.9 2.9 38.8 8.1-23 12-38.8 36.1-38.8 63.9 0 39.8 32.2 72 72 72 4 0 7.9-.3 11.7-.9-16.5 29.2-47.8 48.9-83.7 48.9-53 0-96-43-96-96s43-96 96-96z"/></svg>