<svg xmlns="http://www.w3.org/2000/svg" viewBox="0 0 512 512"><!--! Font Awesome Pro 7.2.0 by @fontawesome - https://fontawesome.com License - https://fontawesome.com/license (Commercial License) Copyright 2026 Fonticons, Inc. --><path fill="currentColor" d="M256 0C114.6 0 0 114.6 0 256S114.6 512 256 512C298 512 337.6 501.8 372.6 483.8 277 452.2 208 362.2 208 256S277 59.7 372.6 28.1C337.6 10.2 298 0 256 0zm-7.2 48.2C194.1 100.6 160 174.2 160 256s34.1 155.4 88.8 207.8C137.3 460 48 368.5 48 256S137.2 52 248.8 48.2zM444.6 343.8c-12.7 27.2-31.1 51.3-53.8 70.5 10.4 12.2 20.7 24.3 31.1 36.5 27.8-23.7 50.5-53.3 66.1-86.8-14.5-6.8-29-13.5-43.5-20.3zM458.7 209c3.5 15.1 5.3 30.8 5.3 47s-1.8 31.9-5.3 47l46.7 10.8c4.3-18.6 6.6-37.9 6.6-57.8s-2.3-39.2-6.6-57.8L458.7 209zM390.8 97.6c22.6 19.3 41 43.3 53.8 70.5l43.5-20.3c-15.6-33.5-38.3-63.1-66.1-86.8L390.8 97.6z"/></svg>