<svg xmlns="http://www.w3.org/2000/svg" viewBox="0 0 512 512"><!--! Font Awesome Pro 7.2.0 by @fontawesome - https://fontawesome.com License - https://fontawesome.com/license (Commercial License) Copyright 2026 Fonticons, Inc. --><path fill="currentColor" d="M419.7 453.1c-38.6 32-86.7 52.8-139.4 57.7l0-48.3c39.5-4.5 75.7-20.1 105.3-43.6l34.2 34.2zM127.2 419c29.5 23.4 65.6 39 105 43.5l0 48.3c-52.6-4.9-100.6-25.7-139.2-57.7L127.2 419zM49.8 280c4.5 39.4 20.1 75.5 43.5 105.1L59.1 419.2C27.2 380.7 6.4 332.7 1.5 280l48.3 0zm461.4 0c-4.9 52.6-25.7 100.6-57.6 139.2L419.4 385c23.4-29.6 39-65.6 43.5-105l48.2 0zM93.3 126.8C69.9 156.4 54.3 192.5 49.8 232L1.5 232C6.4 179.3 27.2 131.2 59.2 92.7l34.2 34.2zM453.5 92.7c31.9 38.5 52.8 86.6 57.7 139.3l-48.2 0c-4.5-39.5-20.1-75.5-43.6-105.1l34.2-34.2zM280.2 1.2C332.9 6 381 26.8 419.6 58.8L385.4 92.9c-29.6-23.4-65.7-39-105.2-43.6l0-48.2zm-48 48.2C192.8 54 156.8 69.5 127.3 92.9L93.1 58.7C131.6 26.8 179.6 6.1 232.2 1.2l0 48.2z"/></svg>