<svg xmlns="http://www.w3.org/2000/svg" viewBox="0 0 512 512"><!--! Font Awesome Pro 7.2.0 by @fontawesome - https://fontawesome.com License - https://fontawesome.com/license (Commercial License) Copyright 2026 Fonticons, Inc. --><path fill="currentColor" d="M256 0c-31.2 0-61.1 5.6-88.8 15.8-.3 .1-.6 .3-.9 .4-2.6 1-5.3 2-7.9 3.1-.7 .3-1.4 .6-2 .9-2.5 1.1-5 2.1-7.4 3.3-.4 .2-.7 .3-1.1 .5-5.4 2.5-10.7 5.2-15.9 8.1-1 .6-2 1.1-3.1 1.7-1.5 .9-3.1 1.8-4.6 2.7-1.3 .8-2.5 1.5-3.8 2.3-1.9 1.2-3.7 2.4-5.5 3.6-.7 .4-1.4 .9-2 1.3-.8 .6-1.7 1.1-2.5 1.7l.1 0C97.4 54.5 85.1 64.9 73.8 76.2l-.1 0c-1.4 1.4-2.6 2.8-4 4.2-.5 .5-.9 1-1.4 1.5-1.6 1.7-3.1 3.4-4.6 5.1-1 1.1-1.9 2.2-2.9 3.3-1.1 1.3-2.1 2.5-3.2 3.8-1.3 1.6-2.5 3.1-3.8 4.7-.9 1.1-1.7 2.2-2.6 3.3-1 1.4-2.1 2.8-3.1 4.2-.9 1.3-1.9 2.6-2.8 3.9-1.4 1.9-2.7 3.9-4 5.9-.7 1-1.3 2-1.9 3-25.1 39.6-39.7 86.5-39.7 136.8 0 50.4 14.6 97.4 39.8 137 .6 .9 1.2 1.8 1.8 2.8 1.2 1.8 2.3 3.5 3.5 5.3 .9 1.2 1.7 2.5 2.6 3.7 1.4 1.9 2.7 3.7 4.1 5.6 .3 .3 .5 .7 .8 1.1 1.8 2.3 3.6 4.6 5.4 6.8 .7 .9 1.4 1.8 2.2 2.6 1.2 1.4 2.5 2.8 3.7 4.2 1.3 1.5 2.6 3 4 4.4 1.1 1.2 2.2 2.3 3.2 3.4 .9 .9 1.7 1.9 2.6 2.8l0-.1c11.2 11.4 23.5 21.7 36.8 30.9l0 0c.5 .3 1 .7 1.5 1 1.4 .9 2.7 1.8 4.1 2.7 1.4 .9 2.8 1.8 4.2 2.7 1.3 .8 2.6 1.6 4 2.4 1.5 .9 3 1.8 4.6 2.7 1.1 .6 2.1 1.2 3.2 1.8 1.9 1.1 3.9 2.1 5.8 3.1 1 .5 2 1 3 1.5 1.8 .9 3.5 1.7 5.3 2.6 1.3 .6 2.5 1.2 3.8 1.8 1.7 .8 3.5 1.6 5.3 2.3 1.1 .5 2.2 1 3.3 1.4 30 12.4 62.9 19.3 97.4 19.3 54 0 104.1-16.8 145.4-45.3l-31-37C338.9 450.4 301.5 462.9 261.3 463.9 325.9 417.4 368 341.7 368 256S325.9 94.5 261.3 48.1c40.2 1 77.6 13.4 109.1 34.2l31-37C360.1 16.8 310 0 256 0zM184.1 60.8C263.5 90.1 320 166.5 320 256S263.4 421.8 184 451.1c-.2-.1-.3-.1-.5-.2-6.3-2.3-12.4-4.9-18.3-7.8-3.7-1.8-7.4-3.7-10.9-5.7-.3-.2-.6-.4-.8-.5-4-2.3-8-4.7-11.8-7.2-13.4-8.9-25.7-19.2-36.8-30.9l-5.5-6.1c-12.5-14.3-23-30.3-31.2-47.6-.1-.3-.3-.6-.4-.9-9.3-19.9-15.6-41.5-18.2-64.2l0 0c-.9-7.9-1.4-15.9-1.4-24s.5-16.1 1.4-24l1.2-8.5c4.9-31.1 16.7-59.9 33.7-84.8 .1-.1 .1-.2 .2-.3 6.1-8.9 12.9-17.3 20.3-25.2l0 0c11-11.6 23.3-22 36.8-30.9l0 0c10-6.6 20.7-12.4 31.8-17.2 2.9-1.3 5.8-2.4 8.8-3.6 .6-.2 1.3-.5 1.9-.7zM462.6 280c-5.3 45.8-25.4 87-55.4 118.8l31 37c40.4-40.9 67-95.3 72.7-155.8l-48.2 0zM407.1 113.1c30.1 31.8 50.2 73.1 55.5 118.9l48.2 0c-5.6-60.5-32.3-115-72.7-155.9l-31 37z"/></svg>