<svg xmlns="http://www.w3.org/2000/svg" viewBox="0 0 512 512"><!--! Font Awesome Pro 7.2.0 by @fontawesome - https://fontawesome.com License - https://fontawesome.com/license (Commercial License) Copyright 2026 Fonticons, Inc. --><path fill="currentColor" d="M256 0C397.4 0 512 114.6 512 256S397.4 512 256 512L256 0zM111.3 405.4C137.8 431 171 449.6 208 458.3l0 49.1c-50-9.5-94.9-33.5-130.1-67.5 11.1-11.5 22.3-23 33.4-34.5zM304 458.3c91.7-21.7 160-104 160-202.3S395.7 75.3 304 53.6l0 404.7zM49.1 277.8c3.6 35 15.9 67.4 34.7 95-13.2 9-26.5 18-39.7 27-23.1-34-38.3-74-42.8-117l47.8-4.9zM64 125.7l19.8 13.5c-18.8 27.6-31.1 60-34.7 95L1.4 229.3c4.5-43.1 19.7-83 42.8-117L64 125.7zM208 53.6c-37 8.7-70.2 27.3-96.7 52.9-11.2-11.5-22.3-23-33.4-34.5 35.1-34 80-58 130.1-67.5l0 49.1z"/></svg>