<svg xmlns="http://www.w3.org/2000/svg" viewBox="0 0 512 512"><!--! Font Awesome Pro 7.2.0 by @fontawesome - https://fontawesome.com License - https://fontawesome.com/license (Commercial License) Copyright 2026 Fonticons, Inc. --><path fill="currentColor" d="M256 0C114.6 0 0 114.6 0 256S114.6 512 256 512L256 0zM400.7 405.4C374.2 431 341 449.6 304 458.3l0 49.1c50-9.5 94.9-33.5 130.1-67.5-11.1-11.5-22.3-23-33.4-34.5zM208 458.3C116.3 436.7 48 354.3 48 256S116.3 75.3 208 53.6l0 404.7zM462.9 277.8c-3.6 35-15.9 67.4-34.7 95 13.2 9 26.5 18 39.7 27 23.1-34 38.3-74 42.8-117l-47.8-4.9zM448 125.7l-19.8 13.5c18.8 27.6 31.1 60 34.7 95l47.8-4.9c-4.5-43.1-19.6-83-42.8-117L448 125.7zM304 53.6c37 8.7 70.2 27.3 96.7 52.9 11.2-11.5 22.3-23 33.4-34.5-35.1-34-80-58-130.1-67.5l0 49.1z"/></svg>