<svg xmlns="http://www.w3.org/2000/svg" viewBox="0 0 512 512"><!--! Font Awesome Pro 7.2.0 by @fontawesome - https://fontawesome.com License - https://fontawesome.com/license (Commercial License) Copyright 2026 Fonticons, Inc. --><path fill="currentColor" d="M256 0c31.2 0 61.1 5.6 88.8 15.8 .3 .1 .6 .3 .9 .4 2.6 1 5.3 2 7.9 3.1 .7 .3 1.4 .6 2 .9 2.5 1.1 5 2.1 7.4 3.3 .4 .2 .7 .3 1.1 .5 5.4 2.5 10.7 5.2 15.9 8.1 1 .6 2 1.1 3.1 1.7 1.5 .9 3.1 1.8 4.6 2.7 1.3 .8 2.5 1.5 3.8 2.3 1.9 1.2 3.7 2.4 5.5 3.6 .7 .4 1.4 .9 2 1.3 .8 .6 1.7 1.1 2.5 1.7l-.1 0c13.2 9.1 25.5 19.5 36.7 30.8l.1 0c1.4 1.4 2.6 2.8 4 4.2 .5 .5 .9 1 1.4 1.5 1.6 1.7 3.1 3.4 4.6 5.1 1 1.1 1.9 2.2 2.9 3.3 1.1 1.3 2.1 2.5 3.2 3.8 1.3 1.6 2.5 3.1 3.8 4.7 .9 1.1 1.7 2.2 2.6 3.3 1 1.4 2.1 2.8 3.1 4.2 .9 1.3 1.9 2.6 2.8 3.9 1.4 1.9 2.7 3.9 4 5.9 .7 1 1.3 2 1.9 3 25.1 39.6 39.7 86.5 39.7 136.8 0 50.4-14.6 97.4-39.8 137-.6 .9-1.2 1.8-1.8 2.8-1.2 1.8-2.3 3.5-3.5 5.3-.9 1.2-1.7 2.5-2.6 3.7-1.4 1.9-2.7 3.7-4.1 5.6-.3 .3-.5 .7-.8 1.1-1.8 2.3-3.6 4.6-5.4 6.8-.7 .9-1.4 1.8-2.2 2.6-1.2 1.4-2.5 2.8-3.7 4.2-1.3 1.5-2.6 3-4 4.4-1.1 1.2-2.2 2.3-3.3 3.4-.9 .9-1.7 1.9-2.6 2.8l0-.1c-11.2 11.4-23.5 21.7-36.8 30.9l0 0c-.5 .3-1 .7-1.5 1-1.4 .9-2.7 1.8-4.1 2.7-1.4 .9-2.8 1.8-4.2 2.7-1.3 .8-2.6 1.6-4 2.4-1.5 .9-3 1.8-4.6 2.7-1.1 .6-2.1 1.2-3.2 1.8-1.9 1.1-3.9 2.1-5.8 3.1-1 .5-2 1-3 1.5-1.8 .9-3.5 1.7-5.3 2.6-1.3 .6-2.5 1.2-3.8 1.8-1.7 .8-3.5 1.6-5.3 2.3-1.1 .5-2.2 1-3.3 1.4-30 12.4-62.9 19.3-97.4 19.3-54 0-104.1-16.8-145.4-45.3l31-37c31.5 20.8 68.8 33.2 109.1 34.2-64.6-46.4-106.7-122.2-106.7-207.9S186.1 94.5 250.7 48.1c-40.2 1-77.6 13.4-109.1 34.2l-31-37C151.9 16.8 202 0 256 0zm71.9 60.8C248.5 90.1 192 166.5 192 256s56.6 165.8 136 195.1c.2-.1 .3-.1 .5-.2 6.3-2.3 12.4-4.9 18.3-7.8 3.7-1.8 7.4-3.7 10.9-5.7 .3-.2 .6-.4 .8-.5 4-2.3 8-4.7 11.8-7.2 13.4-8.9 25.7-19.2 36.7-30.9l5.5-6.1c12.5-14.3 23-30.3 31.3-47.6 .1-.3 .3-.6 .4-.9 9.3-19.9 15.6-41.5 18.2-64.2l0 0c.9-7.9 1.4-15.9 1.4-24s-.5-16.1-1.4-24l-1.2-8.5c-4.9-31.1-16.7-59.9-33.7-84.8-.1-.1-.1-.2-.2-.3-6.1-8.9-12.9-17.3-20.3-25.2l0 0c-11-11.6-23.3-22-36.7-30.9l0 0c-10-6.6-20.7-12.4-31.8-17.2-2.9-1.3-5.8-2.4-8.8-3.6-.6-.2-1.3-.5-1.9-.7zM49.4 280c5.3 45.8 25.4 87 55.4 118.8l-31 37C33.5 394.9 6.8 340.5 1.2 280l48.3 0zm55.5-166.9C74.8 144.9 54.7 186.2 49.4 232L1.2 232C6.8 171.5 33.5 117 73.9 76.1l31 37z"/></svg>