<svg xmlns="http://www.w3.org/2000/svg" viewBox="0 0 512 512"><!--! Font Awesome Pro 7.2.0 by @fontawesome - https://fontawesome.com License - https://fontawesome.com/license (Commercial License) Copyright 2026 Fonticons, Inc. --><path fill="currentColor" d="M512 448l-512 0 0-384 512 0 0 384zM48 344l0 56 96 0 0-56-96 0zm144 56l112 0 0-288-112 0 0 288zm160 0l112 0 0-288-112 0 0 288zM48 296l96 0 0-184-96 0 0 184zm200-88a24 24 0 1 1 0-48 24 24 0 1 1 0 48zm160 0a24 24 0 1 1 0-48 24 24 0 1 1 0 48z"/></svg>