<svg xmlns="http://www.w3.org/2000/svg" viewBox="0 0 640 512"><!--! Font Awesome Pro 7.2.0 by @fontawesome - https://fontawesome.com License - https://fontawesome.com/license (Commercial License) Copyright 2026 Fonticons, Inc. --><path fill="currentColor" d="M610.4 64l-33.9 33.9-32-32-193.3 193.3-14.9 111.9-1.1 8.1-182.7 182.7-137.9-137.9 182.7-182.7 8-1.1 111.9-14.9 193.3-193.3-32-32 33.9-33.9 97.9 97.9zM443.7 241.3L626.4 424 488.4 561.9 354.4 427.9c10.3-10.4 19.1-19.1 26.3-26.2l1.8-13.7 106 106.1 70.1-70.1-137.3-137.3-24.9-3.3 .2-1.7 41.1-41.2 6 .8zm-224 45.4l-137.3 137.3 70.1 70.1 137.3-137.3 10.8-80.8-80.8 10.8zM162.4 0l-32 32 149.8 149.8-59.9 8-123.8-123.8-32 32-33.9-33.9 97.9-97.9 33.9 33.9z"/></svg>