<svg xmlns="http://www.w3.org/2000/svg" viewBox="0 0 448 512"><!--! Font Awesome Pro 7.2.0 by @fontawesome - https://fontawesome.com License - https://fontawesome.com/license (Commercial License) Copyright 2026 Fonticons, Inc. --><path fill="currentColor" d="M417.4 32.5l-6.8 6.6c-5.1 5.6-10.2 11.2-15 17.1-8.4 10.4-19.7 25.6-30.9 44.9-19.7 33.7-38.9 78.7-43.6 130.9l126.9 0 0 48-126.9 0c4.7 52.2 23.9 97.2 43.6 130.9 11.3 19.3 22.5 34.5 30.9 44.9 4.8 5.9 9.9 11.5 15 17.1l6.8 6.6-34.1 33.8-6.4-6.6c-6.8-6.2-12.7-13.5-18.5-20.7-9.6-11.9-22.3-29.1-35.1-50.8-22.5-38.5-45.5-92-50.3-155.1L175 280c-4.8 63.2-27.8 116.6-50.3 155.1-12.7 21.7-25.5 39-35.1 50.8-5.8 7.2-11.7 14.4-18.5 20.7l-6.4 6.6-34.1-33.8 6.8-6.6c5.1-5.6 10.2-11.2 15-17.1 8.4-10.4 19.7-25.6 30.9-44.9 19.7-33.7 38.9-78.7 43.6-130.9L0 280 0 232 126.9 232c-4.7-52.2-23.9-97.2-43.6-130.9-11.3-19.3-22.5-34.5-30.9-44.9-4.8-5.9-9.9-11.5-15-17.1l-6.8-6.6 34.1-33.8 6.4 6.6c6.8 6.2 12.7 13.5 18.5 20.7 9.6 11.9 22.3 29.1 35.1 50.8 22.5 38.5 45.5 92 50.3 155.1l97.9 0c4.8-63.2 27.8-116.6 50.3-155.1 12.7-21.7 25.5-39 35.1-50.8 5.8-7.2 11.7-14.4 18.5-20.7l6.4-6.6 34.1 33.8z"/></svg>