<svg xmlns="http://www.w3.org/2000/svg" viewBox="0 0 640 512"><!--! Font Awesome Pro 7.2.0 by @fontawesome - https://fontawesome.com License - https://fontawesome.com/license (Commercial License) Copyright 2026 Fonticons, Inc. --><path fill="currentColor" d="M640 448l-640 0 0-384 640 0 0 384zM48 400l544 0 0-288-544 0 0 288zm73.7-229.3l46.3 88 0-98.7 40 0 0 192-36.1 0-5.6-10.7-46.3-88 0 98.7-40 0 0-192 36.1 0 5.6 10.7zM368 200l-88 0 0 36 76 0 0 40-76 0 0 36 88 0 0 40-128 0 0-192 128 0 0 40zm72 62.9c0 6 1.2 11.8 3.6 17.3l4 9.3c12.1-18.7 19.2-29.9 21.6-33.5l21.8 0c2.3 3.6 9.5 14.8 21.5 33.5l4-9.3c2.3-5.5 3.6-11.4 3.6-17.3l0-102.9 40 0 0 102.9c0 11.4-2.3 22.6-6.8 33.1l-18.8 43.9-5.2 12.1-24.1 0c-1.7-2.7-10.1-15.7-25.1-39.1-15 23.4-23.4 36.4-25.1 39.1l-24.1 0-5.2-12.1-18.8-43.9c-4.5-10.4-6.8-21.7-6.8-33.1l0-102.9 40 0 0 102.9z"/></svg>