<svg xmlns="http://www.w3.org/2000/svg" viewBox="0 0 576 512"><!--! Font Awesome Pro 7.2.0 by @fontawesome - https://fontawesome.com License - https://fontawesome.com/license (Commercial License) Copyright 2026 Fonticons, Inc. --><path fill="currentColor" d="M560 448l-544 0 0-384 544 0 0 384zM64 400l448 0 0-288-448 0 0 288zm88-48l-48 0 0-192 48 0 0 192zM252 160c37.6 0 68 30.4 68 68 0 17.4-6.6 33.2-17.3 45.2 10.8 12.6 17.3 28.9 17.3 46.8l0 32-48 0 0-32c0-13.3-10.7-24-24-24l-8 0 0 56-48 0 0-192 60 0zm172 0c30.9 0 56 25.1 56 56l0 24-48 0 0-24c0-4.4-3.6-8-8-8l-16 0c-4.4 0-8 3.6-8 8l0 80c0 4.4 3.6 8 8 8l16 0c4.4 0 8-3.6 8-8l0-24 48 0 0 24c0 30.9-25.1 56-56 56l-16 0c-30.9 0-56-25.1-56-56l0-80c0-30.9 25.1-56 56-56l16 0zM240 248l12 0c11 0 20-9 20-20s-9-20-20-20l-12 0 0 40z"/></svg>