<svg xmlns="http://www.w3.org/2000/svg" viewBox="0 0 576 512"><!--! Font Awesome Pro 7.2.0 by @fontawesome - https://fontawesome.com License - https://fontawesome.com/license (Commercial License) Copyright 2026 Fonticons, Inc. --><path fill="currentColor" d="M560 448l-544 0 0-384 544 0 0 384zM64 400l448 0 0-288-448 0 0 288zM176 160c35.3 0 64 28.7 64 64l0 128-48 0 0-48-32 0 0 48-48 0 0-128c0-35.3 28.7-64 64-64zm160 0c35.3 0 64 28.7 64 64s-28.7 64-64 64l-16 0 0 64-48 0 0-192 64 0zM472 352l-48 0 0-192 48 0 0 192zM176 208c-8.8 0-16 7.2-16 16l0 32 32 0 0-32c0-8.8-7.2-16-16-16zm144 32l16 0c8.8 0 16-7.2 16-16s-7.2-16-16-16l-16 0 0 32z"/></svg>