<svg xmlns="http://www.w3.org/2000/svg" viewBox="0 0 576 512"><!--! Font Awesome Pro 7.2.0 by @fontawesome - https://fontawesome.com License - https://fontawesome.com/license (Commercial License) Copyright 2026 Fonticons, Inc. --><path fill="currentColor" d="M576 448l-576 0 0-384 576 0 0 384zM48 400l480 0 0-288-480 0 0 288zm244.4-32l-48.7 0 40-224 48.7 0-40 224zM149.9 174.2l26.1 58.6 0-72.9 48 0 0 192-47.6 0-6.3-14.2-26.1-58.7 0 72.9-48 0 0-192 47.6 0 6.3 14.2zM416 160c35.3 0 64 28.7 64 64l0 128-48 0 0-48-32 0 0 48-48 0 0-128c0-35.3 28.7-64 64-64zm0 48c-8.8 0-16 7.2-16 16l0 32 32 0 0-32c0-8.8-7.2-16-16-16z"/></svg>