<svg xmlns="http://www.w3.org/2000/svg" viewBox="0 0 640 512"><!--! Font Awesome Pro 7.2.0 by @fontawesome - https://fontawesome.com License - https://fontawesome.com/license (Commercial License) Copyright 2026 Fonticons, Inc. --><path fill="currentColor" d="M320 563l-2-3 4 0-2 3zM448 320c39.5 0 72.4 28.6 78.8 66.3 5.5-1.5 11.2-2.3 17.2-2.3 35.3 0 64 28.7 64 64l0 64-320 0 0-72c0-39.8 32.2-72 72-72 4.8 0 9.5 .5 14.1 1.4 12-29 40.6-49.4 73.9-49.4zM339.9-21.4l58.8 87.4c80.3-15.7 126.4-24.7 138.4-27-2.3 11.9-11.4 58.1-27.1 138.3 67.9 45.7 106.9 71.9 117 78.7-15.4 10.4-43.8 29.4-85.1 57.2-11.6-12.6-25.7-22.8-41.5-29.9l40.6-27.3-71-47.8-13.2-8.9 3.1-15.6 16.4-84-84 16.4-15.6 3.1-8.9-13.2-47.8-71-47.8 71-8.9 13.2-15.6-3.1-84-16.4 16.4 84 3.1 15.6-13.2 8.9-71 47.8 71 47.8 13.2 8.9-3.1 15.6-16.4 84 84-16.4 .7-.2C243 409.4 240 424.4 240 440l0 6.2c-79.2 15.5-124.9 24.4-137.1 26.8 2.3-11.9 11.4-58.1 27-138.4-67.9-45.7-106.9-71.9-117-78.7 10.1-6.8 49.1-33 117-78.7-15.7-80.3-24.7-126.4-27-138.3 11.9 2.3 58.1 11.4 138.3 27 45.7-67.9 71.9-106.9 78.7-117l19.9 29.6zM320 136c66.3 0 120 53.7 120 120 0 5.6-.4 11-1.2 16.4-20 1.4-38.7 7.4-55.1 17 5.2-10 8.3-21.3 8.3-33.4 0-39.8-32.2-72-72-72s-72 32.2-72 72c0 38.8 30.8 70.4 69.3 71.8-19.7 7.5-36.8 20-50 36-39.9-19.5-67.3-60.4-67.3-107.8 0-66.3 53.7-120 120-120z"/></svg>