<svg xmlns="http://www.w3.org/2000/svg" viewBox="0 0 640 512"><!--! Font Awesome Pro 7.2.0 by @fontawesome - https://fontawesome.com License - https://fontawesome.com/license (Commercial License) Copyright 2026 Fonticons, Inc. --><path fill="currentColor" d="M224 512a32 32 0 1 1 0-64 32 32 0 1 1 0 64zm160 0a32 32 0 1 1 0-64 32 32 0 1 1 0 64zm160 0a32 32 0 1 1 0-64 32 32 0 1 1 0 64zM339.9-21.4l58.8 87.4c80.3-15.7 126.4-24.7 138.4-27l-60.8 60.8 0-.1-84 16.4-15.6 3.1-8.9-13.2-47.8-71-47.8 71-8.9 13.2-15.6-3.1-84-16.4 16.4 84 3.1 15.6-13.2 8.9-71 47.8 71 47.8 13.2 8.9-3.1 15.6-16.4 84 .1 0-60.8 60.8c2.3-11.9 11.4-58.1 27-138.4-67.9-45.7-106.9-71.9-117-78.7 10.1-6.8 49.1-33 117-78.7-15.7-80.3-24.7-126.4-27-138.3 11.9 2.3 58.1 11.4 138.3 27 45.7-67.9 71.9-106.9 78.7-117l19.9 29.6zM304 432a32 32 0 1 1 0-64 32 32 0 1 1 0 64zm160 0a32 32 0 1 1 0-64 32 32 0 1 1 0 64zm-80-80a32 32 0 1 1 0-64 32 32 0 1 1 0 64zm160 0a32 32 0 1 1 0-64 32 32 0 1 1 0 64zM320 136c33.1 0 63.1 13.4 84.8 35.2l-33.9 33.9c-13-13-31-21.1-50.9-21.1-39.8 0-72 32.2-72 72 0 19.9 8.1 37.9 21.1 50.9l-33.9 33.9c-21.7-21.7-35.2-51.7-35.2-84.8 0-66.3 53.7-120 120-120zM464 272a32 32 0 1 1 0-64 32 32 0 1 1 0 64zm80-80a32 32 0 1 1 0-64 32 32 0 1 1 0 64z"/></svg>