<svg xmlns="http://www.w3.org/2000/svg" viewBox="0 0 640 512"><!--! Font Awesome Pro 7.2.0 by @fontawesome - https://fontawesome.com License - https://fontawesome.com/license (Commercial License) Copyright 2026 Fonticons, Inc. --><path fill="currentColor" d="M224 464l0 48-128 0 0-48 128 0zm384 0l0 48-336 0 0-48 336 0zm-64-48l-512 0 0-48 512 0 0 48zM339.9-21.4l58.8 87.4c80.3-15.7 126.4-24.7 138.4-27-2.3 11.9-11.4 58.1-27.1 138.3 67.9 45.7 106.9 71.9 117 78.7-13.7 9.2-45.5 30.6-95.2 64l-73.6 0-1.4-7.4 13.2-8.9 71-47.8-71-47.8-13.2-8.9 3.1-15.6 16.4-84-84 16.4-15.6 3.1-8.9-13.2-47.8-71-47.8 71-8.9 13.2-15.6-3.1-84-16.4 16.4 84 3.1 15.6-13.2 8.9-71 47.8 71 47.8 13.2 8.9-1.4 7.4-73.6 0c-49.7-33.5-81.5-54.8-95.2-64 10.1-6.8 49.1-33 117-78.7-15.7-80.3-24.7-126.4-27-138.3 11.9 2.3 58.1 11.4 138.3 27 45.7-67.9 71.9-106.9 78.7-117l19.9 29.6zM320 136c66.3 0 120 53.7 120 120 0 23.5-6.8 45.5-18.5 64L353 320c23.2-12 39-36.1 39-64 0-39.8-32.2-72-72-72s-72 32.2-72 72c0 27.9 15.8 52.1 39 64l-68.5 0c-11.7-18.5-18.5-40.5-18.5-64 0-66.3 53.7-120 120-120z"/></svg>