<svg xmlns="http://www.w3.org/2000/svg" viewBox="0 0 576 512"><!--! Font Awesome Pro 7.2.0 by @fontawesome - https://fontawesome.com License - https://fontawesome.com/license (Commercial License) Copyright 2026 Fonticons, Inc. --><path fill="currentColor" d="M544.1 512l-512 0 0-48 512 0 0 48zM200.3 200.1l87.7 58.2c68.2-45.2 107.4-71.2 117.5-77.9l7.1 34.9 20.8 103.2c80.3 16.2 126.3 25.6 138.2 28-12 18.1-27.4 41.3-46.1 69.5l-57.6 0 24.2-36.6-83.8-17-15.6-3.1-3.2-15.6-17-83.9-71.3 47.3-13.3 8.8-13.2-8.8-71.3-47.3-17 83.9-3.1 15.6-15.6 3.2-83.9 17 24.3 36.6-57.6 0c-18.7-28.2-34.1-51.4-46.1-69.5 11.9-2.4 58-11.7 138.2-28 16.2-80.2 25.6-126.2 28-138.2l29.7 19.7zm41.8 153C302.7 328 372 356.2 398.1 416l-56.3 0c-19.8-22.1-52.2-30.6-81.2-18.5-10.3 4.3-19.1 10.7-26 18.5l-56.3 0c12-27.5 34.2-50.5 64-62.9zM386.1 72l-33.9 33.9-40-40 0 126.1-48 0 0-126.1-40 40-33.9-33.9 97.9-97.9 97.9 97.9z"/></svg>