<svg xmlns="http://www.w3.org/2000/svg" viewBox="0 0 448 512"><!--! Font Awesome Pro 7.2.0 by @fontawesome - https://fontawesome.com License - https://fontawesome.com/license (Commercial License) Copyright 2026 Fonticons, Inc. --><path fill="currentColor" d="M96 480l0-48-48 0 0-152 352 0 0 152-48 0 0 48 96 0 0-448-448 0 0 448 96 0zM400 80l0 152-352 0 0-152 352 0zM173.1 532.9l50.9-50.9 50.9 50.9 34-33.9-50.9-50.9 50.9-50.9-34-33.9-50.9 50.9-50.9-50.9-33.9 33.9 50.9 50.9-50.9 50.9 33.9 34z"/></svg>