<svg xmlns="http://www.w3.org/2000/svg" viewBox="0 0 576 512"><!--! Font Awesome Pro 7.2.0 by @fontawesome - https://fontawesome.com License - https://fontawesome.com/license (Commercial License) Copyright 2026 Fonticons, Inc. --><path fill="currentColor" d="M512.4 128l-48 0 0-48-152 0 0 352 152 0 0-48 48 0 0 96-448 0 0-448 448 0 0 96zm-400 304l152 0 0-352-152 0 0 352zM565.2 205.1l-50.9 50.9 50.9 50.9-33.9 34-50.9-50.9-50.9 50.9-33.9-34 50.9-50.9-50.9-50.9 33.9-33.9 50.9 50.9 50.9-50.9 34 33.9z"/></svg>