<svg xmlns="http://www.w3.org/2000/svg" viewBox="0 0 448 512"><!--! Font Awesome Pro 7.2.0 by @fontawesome - https://fontawesome.com License - https://fontawesome.com/license (Commercial License) Copyright 2026 Fonticons, Inc. --><path fill="currentColor" d="M448 480l-448 0 0-448 448 0 0 448zM48 432l152 0 0-80-152 0 0 80zm200 0l152 0 0-80-152 0 0 80zM144 304l56 0 0-96-56 0 0 96zm208 0l48 0 0-96-48 0 0 96zm-104 0l56 0 0-96-56 0 0 96zM48 304l48 0 0-96-48 0 0 96zm0-144l152 0 0-80-152 0 0 80zm200 0l152 0 0-80-152 0 0 80z"/></svg>