<svg xmlns="http://www.w3.org/2000/svg" viewBox="0 0 384 512"><!--! Font Awesome Pro 7.2.0 by @fontawesome - https://fontawesome.com License - https://fontawesome.com/license (Commercial License) Copyright 2026 Fonticons, Inc. --><path fill="currentColor" d="M72 8c0 66.3 53.7 120 120 120S312 74.3 312 8l0-24 48 0 0 24c0 59.9-31.4 112.4-78.5 142.1 60.9 32.2 102.5 96.2 102.5 169.9 0 106-86 192-192 192S0 426 0 320C0 246.3 41.5 182.3 102.5 150.1 55.3 120.4 24 67.9 24 8l0-24 48 0 0 24zM192 176a144 144 0 1 0 0 288 144 144 0 1 0 0-288z"/></svg>