<svg xmlns="http://www.w3.org/2000/svg" viewBox="0 0 640 512"><!--! Font Awesome Pro 7.2.0 by @fontawesome - https://fontawesome.com License - https://fontawesome.com/license (Commercial License) Copyright 2026 Fonticons, Inc. --><path fill="currentColor" d="M72 32c27 0 51.2 12.2 67.3 31.4 18.2-19.3 44-31.4 72.7-31.4 30.4 0 57.7 13.7 76 35.1 18.3-21.5 45.6-35.1 76-35.1 55.2 0 100 44.8 100 100l0 48.1c18.1-12.7 40.2-20.1 64-20.1 61.9 0 112 50.1 112 112S589.9 384 528 384l-64 0 0 80 65.8 0 0 48-113.8 0 0-128-48 0 0-48 48 0 0-204c0-28.7-23.3-52-52-52s-52 23.3-52 52l0 348-48 0 0-348c0-28.7-23.3-52-52-52s-52 23.3-52 52l0 348-48 0 0-360c0-22.1-17.9-40-40-40l-40 0 0-48 40 0zM528 208c-35.3 0-64 28.7-64 64l0 64 64 0c35.3 0 64-28.7 64-64s-28.7-64-64-64z"/></svg>