<svg xmlns="http://www.w3.org/2000/svg" viewBox="0 0 384 512"><!--! Font Awesome Pro 7.2.0 by @fontawesome - https://fontawesome.com License - https://fontawesome.com/license (Commercial License) Copyright 2026 Fonticons, Inc. --><path style="fill:var(--fa-secondary-color,currentColor);opacity:var(--fa-secondary-opacity,.4)" d="M32 32l0 96 320 0 0-96-320 0zm0 128l0 128 320 0 0-128-320 0zm0 160l0 128 320 0 0-128-320 0zM144 192l96 0 0 32-96 0 0-32zm0 160l96 0 0 32-96 0 0-32z"/><path style="fill:var(--fa-primary-color,currentColor);opacity:var(--fa-primary-opacity,1)" d="M384 512l-32 0 0-32-320 0 0 32-32 0 0-512 384 0 0 512zM32 320l0 128 320 0 0-128-320 0zm208 64l-96 0 0-32 96 0 0 32zM32 288l320 0 0-128-320 0 0 128zm208-64l-96 0 0-32 96 0 0 32zM32 128l320 0 0-96-320 0 0 96z"/></svg>