<svg xmlns="http://www.w3.org/2000/svg" viewBox="0 0 576 512"><!--! Font Awesome Pro 7.2.0 by @fontawesome - https://fontawesome.com License - https://fontawesome.com/license (Commercial License) Copyright 2026 Fonticons, Inc. --><path style="fill:var(--fa-secondary-color,currentColor);opacity:var(--fa-secondary-opacity,.4)" d="M39.9 176l17.8-80 460.6 0 17.8 80-496.2 0zM64 208l448 0 0 48-448 0c0-16 0-32 0-48z"/><path style="fill:var(--fa-primary-color,currentColor);opacity:var(--fa-primary-opacity,1)" d="M576 208l-32 0 0 240-32 0 0-160-448 0 0 160-32 0 0-240-32 0 32-144 512 0 32 144zM64 256l448 0 0-48-448 0 0 48zM39.9 176l496.2 0-17.8-80-460.6 0-17.8 80z"/></svg>