<svg xmlns="http://www.w3.org/2000/svg" viewBox="0 0 576 512"><!--! Font Awesome Pro 7.2.0 by @fontawesome - https://fontawesome.com License - https://fontawesome.com/license (Commercial License) Copyright 2026 Fonticons, Inc. --><path style="fill:var(--fa-secondary-color,currentColor);opacity:var(--fa-secondary-opacity,.4)" d="M304 64l0 384 176 0 0-384-176 0z"/><path style="fill:var(--fa-primary-color,currentColor);opacity:var(--fa-primary-opacity,1)" d="M64 96l32 0 0-32 176 0 0 384-176 0 0-32-32 0 0 64 448 0 0-448-448 0 0 64zM480 448l-176 0 0-384 176 0 0 384zM80 240l-72 0 0 32 72 0 0 72 32 0 0-72 72 0 0-32-72 0 0-72-32 0 0 72z"/></svg>