<svg xmlns="http://www.w3.org/2000/svg" viewBox="0 0 448 512"><!--! Font Awesome Pro 7.2.0 by @fontawesome - https://fontawesome.com License - https://fontawesome.com/license (Commercial License) Copyright 2026 Fonticons, Inc. --><path style="fill:var(--fa-secondary-color,currentColor);opacity:var(--fa-secondary-opacity,.4)" d="M32 272l0 176 384 0 0-176-384 0z"/><path style="fill:var(--fa-primary-color,currentColor);opacity:var(--fa-primary-opacity,1)" d="M64 32l0 32-32 0 0 176 384 0 0-176-32 0 0-32 64 0 0 448-448 0 0-448 64 0zM416 448l0-176-384 0 0 176 384 0zM208 48l0-72 32 0 0 72 72 0 0 32-72 0 0 72-32 0 0-72-72 0 0-32 72 0z"/></svg>