<svg xmlns="http://www.w3.org/2000/svg" viewBox="0 0 448 512"><!--! Font Awesome Pro 7.2.0 by @fontawesome - https://fontawesome.com License - https://fontawesome.com/license (Commercial License) Copyright 2026 Fonticons, Inc. --><path style="fill:var(--fa-secondary-color,currentColor);opacity:var(--fa-secondary-opacity,.4)" d="M32 64l0 96 176 0 0-96-176 0zm0 288l0 96 176 0 0-96-176 0zM240 64l0 96 176 0 0-96-176 0zm0 288l0 96 176 0 0-96-176 0z"/><path style="fill:var(--fa-primary-color,currentColor);opacity:var(--fa-primary-opacity,1)" d="M448 480l-448 0 0-448 448 0 0 448zM32 448l176 0 0-96-176 0 0 96zm208 0l176 0 0-96-176 0 0 96zM128 320l80 0 0-128-80 0 0 128zm224 0l64 0 0-128-64 0 0 128zm-112 0l80 0 0-128-80 0 0 128zM32 320l64 0 0-128-64 0 0 128zm0-160l176 0 0-96-176 0 0 96zm208 0l176 0 0-96-176 0 0 96z"/></svg>