<svg xmlns="http://www.w3.org/2000/svg" viewBox="0 0 576 512"><!--! Font Awesome Pro 7.2.0 by @fontawesome - https://fontawesome.com License - https://fontawesome.com/license (Commercial License) Copyright 2026 Fonticons, Inc. --><path style="fill:var(--fa-secondary-color,currentColor);opacity:var(--fa-secondary-opacity,.4)" d="M304.1 64l0 384 176 0 0-384-176 0z"/><path style="fill:var(--fa-primary-color,currentColor);opacity:var(--fa-primary-opacity,1)" d="M64.1 128l32 0 0-64 176 0 0 384-176 0 0-64-32 0 0 96 448 0 0-448-448 0 0 96zm416 320l-176 0 0-384 176 0 0 384zM17.5 200l56 56-56 56 22.6 22.6 56-56 56 56 22.6-22.6-56-56 56-56-22.6-22.6-56 56-56-56-22.6 22.6z"/></svg>