<svg xmlns="http://www.w3.org/2000/svg" viewBox="0 0 512 512"><!--! Font Awesome Pro 7.2.0 by @fontawesome - https://fontawesome.com License - https://fontawesome.com/license (Commercial License) Copyright 2026 Fonticons, Inc. --><path fill="currentColor" d="M480 0c17.7 0 32 14.3 32 32l0 160c0 14.3-9.5 26.9-23.2 30.8s-28.4-1.7-36-13.9l-32-51.4-.1-.2-.1-.2C386.9 101.2 325.8 64 256 64 150 64 64 150 64 256s86 192 192 192c65.2 0 122.8-32.5 157.6-82.3 10.1-14.5 30.1-18 44.6-7.9s18 30.1 7.9 44.6C419.9 468.6 343 512 256 512 114.6 512 0 397.4 0 256S114.6 0 256 0c76.5 0 145.1 33.6 192 86.7L448 32c0-17.7 14.3-32 32-32zM173.3 162.5c7.4-3.7 16.3-3.3 23.3 1.1S208 175.7 208 184l0 144c0 13.3-10.7 24-24 24s-24-10.7-24-24l0-105.4c-11.3 4-24-.9-29.5-11.8-5.9-11.9-1.1-26.3 10.8-32.2l32-16zM336 160c13.3 0 24 10.7 24 24s-10.7 24-24 24l-48 0 0 24 20 0c33.1 0 60 26.9 60 60s-26.9 60-60 60l-44 0c-13.3 0-24-10.7-24-24s10.7-24 24-24l44 0c6.6 0 12-5.4 12-12s-5.4-12-12-12l-44 0c-13.3 0-24-10.7-24-24l0-72c0-13.3 10.7-24 24-24l72 0z"/></svg>