<svg xmlns="http://www.w3.org/2000/svg" viewBox="0 0 576 512"><!--! Font Awesome Pro 7.2.0 by @fontawesome - https://fontawesome.com License - https://fontawesome.com/license (Commercial License) Copyright 2026 Fonticons, Inc. --><path fill="currentColor" d="M556.1-31.5c5.4-1.4 11.2 .3 15.2 4.2s5.6 9.7 4.2 15.2l-32 128c-1.4 5.6-5.7 10-11.3 11.5-5.6 1.5-11.5 0-15.6-4.1l-31.1-31.1-307.1 307.1 12.7 50.8c2 8.2-.4 16.8-6.3 22.8l-64 64c-6.1 6.1-15 8.5-23.4 6.2s-14.8-8.9-16.9-17.3l-12.5-50-50-12.5c-8.4-2.1-15-8.5-17.3-16.9S.9 429.1 7 423l64-64 2.3-2.1c5.8-4.4 13.3-6 20.4-4.2l50.8 12.7 307.1-307.1-31-31c-4.1-4.1-5.6-10-4.1-15.6s5.9-9.9 11.5-11.3l128-32z"/></svg>