<svg xmlns="http://www.w3.org/2000/svg" viewBox="0 0 512 512"><!--! Font Awesome Pro 7.2.0 by @fontawesome - https://fontawesome.com License - https://fontawesome.com/license (Commercial License) Copyright 2026 Fonticons, Inc. --><path fill="currentColor" d="M460.1 430.5c2.4 8.4 0 17.4-6.1 23.5-6.1 6.1-15.1 8.5-23.5 6.1l-59.8-16.9c-4.3-1.2-8.8 1.4-9.9 5.7l-15.3 60.3c-2.1 8.4-8.6 15-17 17.3s-17.3-.2-23.4-6.5l-43.3-44.5c-3.1-3.2-8.3-3.2-11.4 0L206.9 520c-6.1 6.2-15 8.7-23.4 6.5s-14.9-8.9-17.1-17.3l-15.2-60.2c-1.1-4.3-5.6-6.9-9.9-5.7L81.5 460.1c-8.4 2.4-17.4 0-23.5-6.1s-8.4-15.1-6.1-23.5l8.6-30.5 391 0 8.6 30.5zM120 160c13.3 0 24 10.7 24 24l0 144c0 10.9-7.4 20.5-18 23.2s-21.7-2-27-11.6L64 276.6 64 328c0 13.3-10.7 24-24 24s-24-10.7-24-24l0-144 .3-4c1.6-9.2 8.4-16.8 17.6-19.2 10.6-2.7 21.7 2 27 11.6l35 63 0-51.4c0-13.3 10.7-24 24-24zm168 0c13.3 0 24 10.7 24 24s-10.7 24-24 24l-56 0 0 24 40 0c13.3 0 24 10.7 24 24s-10.7 24-24 24l-40 0 0 24 56 0c13.3 0 24 10.7 24 24s-10.7 24-24 24l-80 0c-13.3 0-24-10.7-24-24l0-144c0-13.3 10.7-24 24-24l80 0zm184 0c13.3 0 24 10.7 24 24l0 80.9c0 13.6-3.2 27.1-9.3 39.3l-17.3 34.5c-3.8 7.6-11.4 12.7-20 13.3-7.5 .5-14.7-2.6-19.5-8.1l-1.9-2.5-12-18-12 18c-4.7 7.1-12.9 11.2-21.5 10.7s-16.1-5.6-20-13.3l-17.3-34.5c-6.1-12.2-9.3-25.7-9.3-39.3l0-80.9c0-13.3 10.7-24 24-24s24 10.7 24 24l0 80.9c0 5.2 1.1 10.4 3.1 15.2l9-13.4C400.5 260 408 256 416 256s15.5 4 20 10.7l8.9 13.4c2-4.8 3.1-10 3.1-15.2l0-80.9c0-13.3 10.7-24 24-24zM305.1-8c6.1-6.2 15-8.7 23.4-6.5s14.9 8.9 17.1 17.3l15.2 60.3c1.1 4.3 5.6 6.9 9.9 5.7l59.8-16.9c8.4-2.4 17.4 0 23.5 6.1s8.5 15.1 6.1 23.5l-8.6 30.5-391 0-8.6-30.5c-2.4-8.4 0-17.4 6.1-23.5s15.1-8.5 23.5-6.1l59.8 16.9c4.3 1.2 8.8-1.4 9.9-5.8l15.2-60.2 1-3.1c2.8-6.9 8.7-12.3 16.1-14.2 8.4-2.2 17.3 .2 23.4 6.4l43.3 44.5c3.1 3.2 8.3 3.2 11.4 0L305.1-8z"/></svg>