<svg xmlns="http://www.w3.org/2000/svg" viewBox="0 0 640 512"><!--! Font Awesome Pro 7.2.0 by @fontawesome - https://fontawesome.com License - https://fontawesome.com/license (Commercial License) Copyright 2026 Fonticons, Inc. --><path fill="currentColor" d="M375 437.7c38.4-29 90.6-29 129 0 16.9 12.7 32.9 21.5 47.8 24.6 13.7 2.8 27.4 .9 42.3-10.3 10.6-8 25.6-5.8 33.6 4.7 8 10.6 5.9 25.6-4.7 33.6-26.4 19.8-54.2 24.4-80.7 19.1-25.3-5.1-48.1-18.9-67.2-33.3-21.3-16.1-49.9-16.1-71.2 0-24.2 18.3-52.3 35.9-83.4 35.9s-59.1-17.7-83.4-35.9c-21.3-16.1-49.9-16.1-71.2 0-23.7 17.9-54.1 35.5-88 35.3-20.4-.1-40.7-6.7-59.8-21.1-10.6-8-12.7-23-4.7-33.6 8-10.6 23-12.7 33.6-4.7 11.3 8.5 21.6 11.4 31.2 11.5 17.6 .1 37.3-9.4 58.9-25.7 38.4-29 90.6-29 129 0 24 18.1 40.7 26.3 54.5 26.3s30.5-8.2 54.5-26.3zM32.5 291.8c0-23.8 25-39.2 46.3-28.6l9.2 4.6C114.6 281 144 288 173.8 288l293.3 0c29.8 0 59.2-7 85.9-20.3l9.2-4.6c21.3-10.6 46.3 4.8 46.3 28.6l0 28.2c0 34.4-13.7 65.7-35.8 88.7-2.6 1.5-5.1 3.1-7.5 4.9-4.7 3.5-9.5 0-14.3-2.5-5.2-2.7-11.1-6.6-18-11.7-28.1-21.1-61.3-31.6-94.4-31.4-32.5 .2-64.9 10.7-92.3 31.4-22.1 16.6-29.1 16.6-51.2 0-28.1-21.1-61.3-31.6-94.4-31.4-32.5 .2-64.9 10.7-92.3 31.4-8.8 6.6-16 10.9-21.7 13.5-4.2 1.9-7 3.5-10.7 .7-2.4-1.8-5-3.5-7.6-4.9-22.1-23-35.7-54.2-35.8-88.7l0-28.2zM220 128c13.2 0 26.1 4.4 36.6 12.5l127.8 99.5-224 0 0-52.4c0-32.9 26.7-59.6 59.6-59.6zM208.5 96a48 48 0 1 1 0-96 48 48 0 1 1 0 96z"/></svg>