<svg xmlns="http://www.w3.org/2000/svg" viewBox="0 0 448 512"><!--! Font Awesome Pro 7.2.0 by @fontawesome - https://fontawesome.com License - https://fontawesome.com/license (Commercial License) Copyright 2026 Fonticons, Inc. --><path fill="currentColor" d="M448 480c0 17.7-14.3 32-32 32s-32-14.3-32-32L64 480c0 17.7-14.3 32-32 32S0 497.7 0 480l0-160 448 0 0 160zM200 368c-13.3 0-24 10.7-24 24s10.7 24 24 24l48 0c13.3 0 24-10.7 24-24s-10.7-24-24-24l-48 0zm0-96l-200 0 0-96 200 0 0 96zm248 0l-200 0 0-96 200 0 0 96zM200 128L0 128 0 48C0 21.5 21.5 0 48 0l152 0 0 128zM400 0c26.5 0 48 21.5 48 48l0 80-200 0 0-128 152 0z"/></svg>