<svg xmlns="http://www.w3.org/2000/svg" viewBox="0 0 576 512"><!--! Font Awesome Pro 7.2.0 by @fontawesome - https://fontawesome.com License - https://fontawesome.com/license (Commercial License) Copyright 2026 Fonticons, Inc. --><path fill="currentColor" d="M128 256c30.8 0 57.5 17.4 70.8 42.9 9.3-6.8 20.7-10.9 33.2-10.9 30.9 0 56 25.1 56 56 0 3.2-.3 6.4-.9 9.5 36.9 7.1 64.9 39.5 64.9 78.5 0 41.4-31.5 75.5-71.8 79.6l-8.2 .4-192 0c-44.2 0-80-35.8-80-80 0-33.9 21.2-62.9 51-74.5-1.9-6.8-3-14-3-21.5 0-44.2 35.8-80 80-80zm272-80c32.9 0 61.1 19.9 73.4 48.2 2.2-.1 4.4-.2 6.6-.2 53 0 96 43 96 96s-43 96-96 96l-81.1 0c-5.2-41.7-30.4-77.2-65.8-96.5-6.7-27.7-24.4-51-48.3-65.1 10.4-7.8 23.1-12.9 36.8-14.1 7.3-36.7 39.6-64.3 78.4-64.3zM240 144c26.5 0 48 21.5 48 48 0 .8-.1 1.6-.1 2.4-1 1.8-2 3.7-2.9 5.5-20.9 8.1-39 21.8-52.4 39.4-23-3.6-40.5-23.4-40.5-47.3 0-26.5 21.5-48 48-48zm0-175.8c5.3 0 10.3 2.7 13.3 7.1l47.3 70.4 83.3-16.3c5.2-1 10.6 .7 14.3 4.4 3.8 3.8 5.4 9.2 4.4 14.4l-15.8 80.6c-22.2 2.3-42.7 10.2-60.1 22.4-15.4-32.5-48.4-55.1-86.7-55.1-53 0-96 43-96 96 0 5.9 .5 11.6 1.5 17.2-5.7-.8-11.6-1.2-17.5-1.2-25.8 0-49.8 7.6-69.9 20.7L23.3 205.3c-4.4-3-7.1-8-7.1-13.3 0-5.3 2.6-10.3 7-13.3l70.4-47.4-16.3-83.2-.2-2c-.3-4.6 1.3-9.1 4.6-12.4 3.8-3.8 9.2-5.4 14.4-4.4l83.2 16.3 47.3-70.4 1.2-1.6c3-3.5 7.4-5.5 12.1-5.5z"/></svg>