<svg xmlns="http://www.w3.org/2000/svg" viewBox="0 0 576 512"><!--! Font Awesome Pro 7.2.0 by @fontawesome - https://fontawesome.com License - https://fontawesome.com/license (Commercial License) Copyright 2026 Fonticons, Inc. --><path fill="currentColor" d="M544 64c17.7 0 32 14.3 32 32l0 32c0 17.7-14.3 32-32 32l0 256c0 17.7-14.3 32-32 32s-32-14.3-32-32l0-16-160 0 0 16c0 17.7-14.3 32-32 32s-32-14.3-32-32l0-256-160 0 0 256c0 17.7-14.3 32-32 32s-32-14.3-32-32l0-256c-17.7 0-32-14.3-32-32L0 96C0 78.3 14.3 64 32 64l512 0zM344 224c-13.3 0-24 10.7-24 24s10.7 24 24 24l112 0c13.3 0 24-10.7 24-24s-10.7-24-24-24l-112 0z"/></svg>