<svg xmlns="http://www.w3.org/2000/svg" viewBox="0 0 384 512"><!--! Font Awesome Pro 7.2.0 by @fontawesome - https://fontawesome.com License - https://fontawesome.com/license (Commercial License) Copyright 2026 Fonticons, Inc. --><path fill="currentColor" d="M384 480c0 17.7-14.3 32-32 32s-32-14.3-32-32L64 480c0 17.7-14.3 32-32 32S0 497.7 0 480l0-80 384 0 0 80zm0-128l-384 0 0-144 384 0 0 144zM168 256c-13.3 0-24 10.7-24 24s10.7 24 24 24l48 0c13.3 0 24-10.7 24-24s-10.7-24-24-24l-48 0zM336 0c26.5 0 48 21.5 48 48l0 112-384 0 0-112C0 21.5 21.5 0 48 0L336 0zM168 64c-13.3 0-24 10.7-24 24s10.7 24 24 24l48 0c13.3 0 24-10.7 24-24s-10.7-24-24-24l-48 0z"/></svg>