<svg xmlns="http://www.w3.org/2000/svg" viewBox="0 0 640 512"><!--! Font Awesome Pro 7.2.0 by @fontawesome - https://fontawesome.com License - https://fontawesome.com/license (Commercial License) Copyright 2026 Fonticons, Inc. --><path fill="currentColor" d="M320-32c8.4 0 16.3 4.4 20.6 11.7L393 67.1c-23.9 11-45.3 26.5-63.3 45.3-3.2-.2-6.4-.3-9.7-.3-79.5 0-144 64.5-144 144s64.5 144 144 144c3.2 0 6.4-.2 9.6-.4 18 18.8 39.4 34.2 63.3 45.3l-52.3 87.4c-4.3 7.2-12.2 11.7-20.6 11.7s-16.3-4.4-20.6-11.7L243.9 439.7 139.2 466c-8.2 2-16.8-.4-22.8-6.3S108 445 110 436.8l26.2-104.7-92.6-55.5C36.4 272.2 32 264.4 32 256s4.4-16.3 11.7-20.6L136.3 179.9 110 75.1c-2-8.2 .3-16.8 6.3-22.8S131 44 139.2 46l104.7 26.2 55.5-92.6 1.8-2.6c4.5-5.7 11.4-9.1 18.8-9.1zM480 416a160 160 0 1 1 0-320 160 160 0 1 1 0 320zM293.5 163.7C279.8 191.5 272 222.9 272 256s7.8 64.4 21.5 92.2C253.4 336.7 224 299.8 224 256s29.4-80.8 69.5-92.3z"/></svg>