<svg xmlns="http://www.w3.org/2000/svg" viewBox="0 0 576 512"><!--! Font Awesome Pro 7.2.0 by @fontawesome - https://fontawesome.com License - https://fontawesome.com/license (Commercial License) Copyright 2026 Fonticons, Inc. --><path fill="currentColor" d="M13.3 230.4c14.1-10.6 34.1-7.8 44.8 6.3 .2 .2 22.4 29.2 61.2 57.4 40.5 29.4 98 57.9 169.2 57.9s128.7-28.4 169.2-57.9c39-28.3 61.2-57.4 61.2-57.4 10.6-14.1 30.6-16.9 44.8-6.3s17 30.6 6.4 44.8c-16.1 19.6-33.6 37.3-52.8 53.4l40.1 69.5c6.6 11.5 2.7 26.2-8.8 32.8s-26.2 2.7-32.8-8.8l-37.3-64.7c-17.2 11.2-36.7 22.1-58.5 31.4l19.7 73.5c3.4 12.8-4.2 26-17 29.4-12.8 3.4-25.9-4.2-29.4-17l-18.8-70.2c-19.4 5.2-40.1 8.9-62 10.5l0 73c0 13.2-10.8 24-24 24-13.3 0-24-10.7-24-24l0-73c-21.9-1.6-42.6-5.3-62-10.5l-18.8 70.2c-3.4 12.8-16.6 20.4-29.4 17s-20.4-16.6-17-29.4L157 388.8c-21.7-9.3-41.3-20.1-58.4-31.3L61.3 422.1c-6.6 11.5-21.3 15.4-32.8 8.8-11.5-6.6-15.4-21.3-8.8-32.8l40-69.4C40.5 312.5 23.1 294.8 6.9 275.2-3.7 261-.8 241 13.3 230.4z"/></svg>