<svg xmlns="http://www.w3.org/2000/svg" viewBox="0 0 576 512"><!--! Font Awesome Pro 7.2.0 by @fontawesome - https://fontawesome.com License - https://fontawesome.com/license (Commercial License) Copyright 2026 Fonticons, Inc. --><path fill="currentColor" d="M344 380c24.3 0 44 19.7 44 44l0 104c0 11-9 20-20 20s-20-9-20-20l0-28-24 0 0 28c0 11-9 20-20 20s-20-9-20-20l0-104c0-24.3 19.7-44 44-44l16 0zm120 0c33.1 0 60 26.9 60 60s-26.9 60-60 60l-12 0 0 28c0 11-9 20-20 20s-20-9-20-20l0-128c0-11 9-20 20-20l32 0zm96 0c11 0 20 9 20 20l0 128c0 11-9 20-20 20s-20-9-20-20l0-128c0-11 9-20 20-20zM328 420c-2.2 0-4 1.8-4 4l0 36 24 0 0-36c0-2.2-1.8-4-4-4l-16 0zm124 40l12 0c11 0 20-9 20-20s-9-20-20-20l-12 0 0 40zM317.9-16c15.2 0 28.3 10.7 31.3 25.6l14.4 69.9c14.1 6 27.3 13.7 39.3 22.7l67.8-22.5c14.4-4.8 30.2 1.2 37.8 14.4l29.9 51.8c7.6 13.1 4.9 29.8-6.4 39.9l-53.5 47.5c.9 7.4 1.4 15 1.4 22.7 0 7.7-.5 15.2-1.4 22.7l53.5 47.5c3.2 2.8 5.6 6.2 7.4 9.8L304 336c-35.3 0-64 28.7-64 64l0 41.9c-24.6-6.3-47.3-17.4-67-32.2l-67.8 22.5c-14.4 4.8-30.2-1.2-37.8-14.4L37.5 366.1c-7.6-13.1-4.9-29.8 6.5-39.9l53.4-47.5c-.9-7.4-1.3-15-1.3-22.7s.5-15.2 1.3-22.7L44 185.8c-11.3-10.1-14.1-26.8-6.5-39.9L67.4 94.1C75 80.9 90.8 74.9 105.2 79.7L173 102.2c12.1-9 25.3-16.7 39.3-22.7L226.7 9.6C229.8-5.3 242.9-16 258.1-16l59.8 0zM288 172c-46.4 0-84 37.6-84 84 0 23.7 9.8 45 25.6 60.3 19.8-17.6 45.9-28.3 74.4-28.3l61.6 0c4.1-9.9 6.4-20.7 6.4-32 0-46.4-37.6-84-84-84z"/></svg>