<svg xmlns="http://www.w3.org/2000/svg" viewBox="0 0 576 512"><!--! Font Awesome Pro 7.2.0 by @fontawesome - https://fontawesome.com License - https://fontawesome.com/license (Commercial License) Copyright 2026 Fonticons, Inc. --><path fill="currentColor" d="M344 380c24.3 0 44 19.7 44 44l0 104c0 11-9 20-20 20s-20-9-20-20l0-28-24 0 0 28c0 11-9 20-20 20s-20-9-20-20l0-104c0-24.3 19.7-44 44-44l16 0zm120 0c33.1 0 60 26.9 60 60s-26.9 60-60 60l-12 0 0 28c0 11-9 20-20 20s-20-9-20-20l0-128c0-11 9-20 20-20l32 0zm96 0c11 0 20 9 20 20l0 128c0 11-9 20-20 20s-20-9-20-20l0-128c0-11 9-20 20-20zM288 0c10.1 0 20.1 .6 29.9 1.8 10.4 1.2 18.2 9.7 19.5 20l2.8 22.5c.8 6.5 5.5 11.7 11.7 13.8 10 3.2 19.6 7.2 28.9 11.8 5.8 2.9 12.7 2.4 17.8-1.5l18.3-14.3c8.2-6.4 19.6-6.8 27.8-.4 3 2.4 6 4.8 8.9 7.2l29.5 29.5c2 2.4 4 4.8 6 7.3 6.5 8.2 6 19.7-.4 27.9l-14 18c-4 5.1-4.4 12.2-1.5 18 4.8 9.4 8.9 19.3 12.3 29.5 2 6.2 7.3 10.8 13.7 11.6l22.8 2.8c10.3 1.3 18.8 9.1 20.1 19.4 .2 1.7 .4 3.4 .6 5l0 52.4c-.2 1.7-.4 3.3-.6 5-1.3 10.3-9.7 18.1-20.1 19.4l-22.8 2.8c-6.4 .8-11.7 5.4-13.7 11.6-1.7 5.1-3.5 10.1-5.6 15l-176 0c-35.3 0-64 28.7-64 64l0 58.3c-16.3-3.9-31.8-9.6-46.3-17-5.8-3-12.8-2.5-18 1.5l-18 14c-8.2 6.4-19.7 6.8-27.9 .4-16.6-13-31.5-28.1-44.4-44.7-6.3-8.2-5.9-19.6 .5-27.8l14.3-18.4c3.9-5.1 4.4-12 1.5-17.8-4.4-8.8-8.2-18-11.3-27.4-2-6.2-7.3-10.8-13.7-11.6l-22.8-2.8c-10.3-1.3-18.7-9.1-20-19.4-1.3-10.3-1.9-20.7-1.9-31.3 0-10.7 .7-21.2 1.9-31.5 1.3-10.3 9.7-18.1 20-19.4l22.9-2.9c6.4-.8 11.7-5.4 13.7-11.6 3.1-9.4 6.9-18.5 11.2-27.3 2.9-5.8 2.4-12.7-1.5-17.8L85.9 127.2c-6.4-8.2-6.8-19.6-.5-27.8 12.9-16.7 27.8-31.7 44.4-44.7 8.2-6.4 19.7-6 27.9 .4l18 14c5.1 4 12.2 4.5 18 1.5 8.9-4.6 18.2-8.5 27.8-11.8 6.1-2.1 10.7-7.3 11.5-13.7l2.9-23.1c1.3-10.3 9-18.7 19.3-20 10.7-1.4 21.7-2.1 32.8-2.1zm40 420c-2.2 0-4 1.8-4 4l0 36 24 0 0-36c0-2.2-1.8-4-4-4l-16 0zm124 40l12 0c11 0 20-9 20-20s-9-20-20-20l-12 0 0 40zM288 172c-46.4 0-84 37.6-84 84 0 23.7 9.8 45 25.6 60.3 19.8-17.6 45.9-28.3 74.4-28.3l61.6 0c4.1-9.9 6.4-20.7 6.4-32 0-46.4-37.6-84-84-84z"/></svg>