<svg xmlns="http://www.w3.org/2000/svg" viewBox="0 0 576 512"><!--! Font Awesome Pro 7.2.0 by @fontawesome - https://fontawesome.com License - https://fontawesome.com/license (Commercial License) Copyright 2026 Fonticons, Inc. --><path fill="currentColor" d="M368.2 384c-6 23.4-13.6 44.9-22.2 63.4-11.4 24.4-23.7 41.8-35.1 52.4-11.2 10.5-18.9 12.2-22.9 12.2s-11.7-1.7-22.9-12.2c-11.3-10.6-23.7-28-35.1-52.4-8.6-18.5-16.2-39.9-22.2-63.4l160.4 0zm-209.8 0c10.2 44.1 25.4 83.2 44 113.3-57.7-20.5-105.8-61-136.1-113.3l92.1 0zm351.3 0c-30.2 52.2-78.4 92.8-136.1 113.3 18.6-30.1 33.7-69.2 43.9-113.3l92.1 0zM144 172c11 0 20 9 20 20l0 31.6c0 40.6-14.4 76.1-35.3 107.5-3.7 5.6-10 8.9-16.7 8.9s-12.9-3.3-16.7-8.9L81.1 309.7c-.4-.6-.7-1.2-1.1-1.8-.4 .6-.7 1.2-1.1 1.8L64.7 331.1c-3.7 5.6-10 8.9-16.7 8.9s-12.9-3.3-16.7-8.9C10.4 299.7-4 264.1-4 223.6L-4 192c0-11 9-20 20-20s20 9 20 20l0 31.6c0 20.3 4.8 39.4 13.2 57.9 7-12.7 10.8-26.9 10.8-41.4 0-11 9-20 20-20s20 9 20 20c0 14.5 3.7 28.8 10.7 41.4 8.4-18.4 13.3-37.6 13.3-57.9l0-31.6c0-11 9-20 20-20zm208 0c11 0 20 9 20 20l0 31.6c0 40.6-14.4 76.1-35.3 107.5-3.7 5.6-10 8.9-16.7 8.9s-12.9-3.3-16.7-8.9l-14.2-21.4c-.4-.6-.7-1.2-1.1-1.8-.4 .6-.7 1.2-1.1 1.8l-14.2 21.4c-3.7 5.6-10 8.9-16.7 8.9s-12.9-3.3-16.7-8.9c-21-31.4-35.3-67-35.3-107.5l0-31.6c0-11 9-20 20-20s20 9 20 20l0 31.6c0 20.3 4.8 39.4 13.2 57.9 7-12.7 10.8-26.9 10.8-41.4 0-11 9-20 20-20s20 9 20 20c0 14.5 3.7 28.8 10.7 41.4 8.4-18.4 13.3-37.6 13.3-57.9l0-31.6c0-11 9-20 20-20zm208 0c11 0 20 9 20 20l0 31.6c0 40.6-14.4 76.1-35.3 107.5-3.7 5.6-10 8.9-16.7 8.9s-12.9-3.3-16.7-8.9l-14.2-21.4c-.4-.6-.7-1.2-1.1-1.8-.4 .6-.7 1.2-1.1 1.8l-14.2 21.4c-3.7 5.6-10 8.9-16.7 8.9s-12.9-3.3-16.7-8.9c-21-31.4-35.3-67-35.3-107.5l0-31.6c0-11 9-20 20-20s20 9 20 20l0 31.6c0 20.3 4.8 39.4 13.3 57.9 7-12.7 10.7-26.9 10.7-41.4 0-11 9-20 20-20s20 9 20 20c0 14.5 3.7 28.8 10.7 41.4 8.4-18.4 13.3-37.6 13.3-57.9l0-31.6c0-11 9-20 20-20zM202.4 14.7c-18.6 30.1-33.8 69.2-44 113.3l-92.1 0C96.5 75.7 144.7 35.2 202.4 14.7zM288 0c4 0 11.7 1.7 22.9 12.2 11.3 10.6 23.7 28 35.1 52.4 8.6 18.5 16.1 39.9 22.2 63.4l-160.4 0C213.8 104.5 221.4 83.1 230 64.6 241.4 40.2 253.7 22.8 265.1 12.2 276.3 1.7 284 0 288 0zm85.6 14.7C431.3 35.2 479.5 75.7 509.7 128l-92.1 0c-10.2-44.1-25.4-83.2-44-113.3z"/></svg>