<svg xmlns="http://www.w3.org/2000/svg" viewBox="0 0 640 512"><!--! Font Awesome Pro 7.2.0 by @fontawesome - https://fontawesome.com License - https://fontawesome.com/license (Commercial License) Copyright 2026 Fonticons, Inc. --><path fill="currentColor" d="M74.5 32.1C86.6 33.4 96 43.6 96 56l0 8 405.5 0c17 0 33.2 6.8 45.2 18.8l42.5 42.5c12 12 18.7 28.3 18.7 45.2l0 171c0 17-6.7 33.2-18.7 45.2l-42.5 42.5c-12 12-28.3 18.7-45.2 18.7l-149.5 0 0 16c0 17.7-14.3 32-32 32l-160 0c-17.7 0-32-14.3-32-32l0-16-16 0c-35.3 0-64-28.7-64-64l0-304-24 0C10.7 80 0 69.3 0 56S10.7 32 24 32l48 0 2.5 .1zM459.4 288c-2.6 29.2-13.8 57-32.2 79.8 1.6 .1 3.2 .2 4.8 .2 23.2 0 44.8-7.1 62.7-19.2l-1.9-7.3c-5.6-20.9-17.3-39.4-33.4-53.4zM418 295.7c-26.6 12.4-56.3 16.6-85.3 12.1 11.1 21.2 28.7 38.5 50.3 49l5.4-5.4c15.3-15.3 25.5-34.7 29.6-55.7zM152 288c-13.3 0-24 10.7-24 24s10.7 24 24 24l80 0c13.3 0 24-10.7 24-24s-10.7-24-24-24l-80 0zm384.4-41.9c-20.9-5.6-42.8-4.8-63 2.2 24 16.9 42.5 40.5 53.1 67.8 11.1-17.4 17.5-38 17.5-60.1 0-2.7-.2-5.3-.3-8l-7.3-1.9zM337.5 195.9c-11.1 17.4-17.5 38-17.5 60.1 0 2.7 .1 5.3 .3 7.9l7.3 2c20.9 5.6 42.8 4.7 63-2.2-24-16.9-42.5-40.5-53.1-67.8zM152 176c-13.3 0-24 10.7-24 24s10.7 24 24 24l80 0c13.3 0 24-10.7 24-24s-10.7-24-24-24l-80 0zm280-32c-23.2 0-44.8 7.1-62.7 19.2l2 7.4c5.6 20.9 17.3 39.4 33.3 53.4 2.6-29.2 13.8-57 32.2-79.8-1.6-.1-3.2-.1-4.8-.1zm43.6 16.7c-15.3 15.3-25.5 34.7-29.6 55.6 26.6-12.4 56.3-16.6 85.3-12.1-11.1-21.2-28.7-38.5-50.3-49l-5.4 5.4z"/></svg>