<svg xmlns="http://www.w3.org/2000/svg" viewBox="0 0 448 512"><!--! Font Awesome Pro 7.2.0 by @fontawesome - https://fontawesome.com License - https://fontawesome.com/license (Commercial License) Copyright 2026 Fonticons, Inc. --><path fill="currentColor" d="M271.9 152.1L137.5 331.3c-5.4 7.2-8.7 15.8-9.4 24.8l-.2 3.8 .2 3.9c.8 9.2 4.2 17.9 9.8 25.3L208.2 480 64 480c-35.3 0-64-28.7-64-64L0 96C0 60.7 28.7 32 64 32l115.1 0 92.8 120.1zM384 32c35.3 0 64 28.7 64 64l0 320c0 35.3-28.7 64-64 64l-115.1 0c-34-44-64.9-84-92.8-120.1L310.5 180.7c6.2-8.3 9.5-18.3 9.5-28.6 0-10.6-3.5-20.8-10-29.2L239.8 32 384 32zM236.4 359.4l43.7 56.6 79.9 0c8.7 0 16.7-4.7 20.9-12.2s4.1-16.8-.5-24.2L309 262.6 236.4 359.4zM128 112a48 48 0 1 0 0 96 48 48 0 1 0 0-96z"/></svg>