<svg xmlns="http://www.w3.org/2000/svg" viewBox="0 0 576 512"><!--! Font Awesome Pro 7.2.0 by @fontawesome - https://fontawesome.com License - https://fontawesome.com/license (Commercial License) Copyright 2026 Fonticons, Inc. --><path fill="currentColor" d="M512 64c35.3 0 64 28.7 64 64l0 256-.3 6.5c-3.1 30.1-27 54.1-57.1 57.1l-6.5 .3-448 0-6.5-.3c-30.1-3.1-54.1-27-57.1-57.1L0 384 0 128C0 92.7 28.7 64 64 64l448 0zM64 384l448 0 0-256-448 0 0 256zM440 160c13.3 0 24 10.7 24 24l0 144c0 13.3-10.7 24-24 24s-24-10.7-24-24l0-144c0-13.3 10.7-24 24-24zM144 288a32 32 0 1 1 0-64 32 32 0 1 1 0 64zm96 0a32 32 0 1 1 0-64 32 32 0 1 1 0 64zm96 0a32 32 0 1 1 0-64 32 32 0 1 1 0 64z"/></svg>