<svg xmlns="http://www.w3.org/2000/svg" viewBox="0 0 576 512"><!--! Font Awesome Pro 7.2.0 by @fontawesome - https://fontawesome.com License - https://fontawesome.com/license (Commercial License) Copyright 2026 Fonticons, Inc. --><path fill="currentColor" d="M19.2-16.1c21.2-21.2 55.7-21.2 76.9 0l82.1 82.1c3.4 3.4 6 7.4 7.8 11.8l28.2 70.4 181.8 181.8 70.4 28.2c4.4 1.8 8.4 4.4 11.8 7.8L560.2 448c21.2 21.2 21.2 55.7 0 76.9l-3.3 3.3c-21.2 21.2-55.7 21.2-76.9 0l-82.1-82.1c-3.4-3.4-6-7.4-7.8-11.8l-28.2-70.4-181.8-181.8-70.4-28.2c-4.4-1.8-8.4-4.4-11.8-7.8L15.9 64.1C-5.3 42.8-5.3 8.4 15.9-12.9l3.3-3.3zM153.2 223l39.1 39.1c-19.5 25.1-17.8 61.4 5.3 84.5s59.3 24.8 84.4 5.3l39 39 7.9 19.8c-85.5 63.9-171 88.1-233.1 96.8-35 4.9-64.1-24.2-59.2-59.2 8.7-62.1 32.9-147.6 96.8-233.2l19.8 7.9zM480.3 4.6c35-4.9 64.1 24.2 59.2 59.2-8.7 62.1-32.9 147.6-96.8 233.1l-19.8-7.9-39-39c19.5-25.1 17.9-61.4-5.2-84.5s-59.4-24.8-84.5-5.2l-39.1-39.1-7.9-19.8C332.7 37.5 418.2 13.3 480.3 4.6z"/></svg>