<svg xmlns="http://www.w3.org/2000/svg" viewBox="0 0 512 512"><!--! Font Awesome Pro 7.2.0 by @fontawesome - https://fontawesome.com License - https://fontawesome.com/license (Commercial License) Copyright 2026 Fonticons, Inc. --><path fill="currentColor" d="M498.1 314.2c8.5 3.9 13.9 12.4 13.9 21.8s-5.4 17.9-13.9 21.8l-218.6 101c-14.9 6.9-32.1 6.9-47 0L13.9 357.8C5.4 353.8 0 345.3 0 336s5.4-17.9 13.9-21.8l68.7-31.8 129.7 59.9c27.7 12.8 59.6 12.8 87.3 0l129.7-59.9 68.8 31.8zM232.5 53.2c14.9-6.9 32.1-6.9 47 0l218.6 101c8.5 3.9 13.9 12.4 13.9 21.8s-5.4 17.9-13.9 21.8l-218.6 101c-14.9 6.9-32.1 6.9-47 0L13.9 197.8C5.4 193.8 0 185.3 0 176s5.4-17.9 13.9-21.8l218.6-101z"/></svg>