<svg xmlns="http://www.w3.org/2000/svg" viewBox="0 0 576 512"><!--! Font Awesome Pro 7.2.0 by @fontawesome - https://fontawesome.com License - https://fontawesome.com/license (Commercial License) Copyright 2026 Fonticons, Inc. --><path fill="currentColor" d="M384 416c17.7 0 32 14.3 32 32l0 64c0 17.7-14.3 32-32 32s-32-14.3-32-32l0-64c0-17.7 14.3-32 32-32zM57.4 201.4c12.5-12.5 32.8-12.5 45.2 0s12.5 32.8 0 45.2L91.1 258.2c-17.3 17.3-27.1 40.9-27.1 65.4 0 51 41.4 92.4 92.4 92.4 24.5 0 48-9.8 65.4-27.1l75.6-75.5c12.5-12.5 32.8-12.5 45.2 0s12.5 32.8 0 45.2l-75.5 75.6C237.8 463.5 197.9 480 156.4 480 70 480 0 410 0 323.6 0 282.1 16.5 242.2 45.8 212.9l11.6-11.5zm384 176c12.5-12.5 32.8-12.5 45.2 0l48 48c12.5 12.5 12.5 32.8 0 45.2s-32.8 12.5-45.2 0l-48-48c-12.5-12.5-12.5-32.8 0-45.2zM419.6 32c86.4 0 156.4 70 156.4 156.4 0 41.5-16.5 81.3-45.8 110.7l-11.6 11.5c-12.5 12.5-32.8 12.5-45.2 0s-12.5-32.8 0-45.2l11.5-11.6c17.3-17.3 27.1-40.9 27.1-65.4 0-51-41.4-92.4-92.4-92.4-24.5 0-48 9.8-65.4 27.1l-75.6 75.5c-12.5 12.5-32.8 12.5-45.2 0s-12.5-32.8 0-45.2l75.5-75.6C338.2 48.5 378.1 32 419.6 32zM41.4 41.4c12.5-12.5 32.8-12.5 45.2 0l48 48c12.5 12.5 12.5 32.8 0 45.2s-32.8 12.5-45.2 0l-48-48c-12.5-12.5-12.5-32.8 0-45.2zM192-32c17.7 0 32 14.3 32 32l0 64c0 17.7-14.3 32-32 32s-32-14.3-32-32l0-64c0-17.7 14.3-32 32-32z"/></svg>