<svg xmlns="http://www.w3.org/2000/svg" viewBox="0 0 576 512"><!--! Font Awesome Pro 7.2.0 by @fontawesome - https://fontawesome.com License - https://fontawesome.com/license (Commercial License) Copyright 2026 Fonticons, Inc. --><path fill="currentColor" d="M288-32c8.4 0 16.3 4.4 20.6 11.7L364.1 72.3 468.9 46c8.2-2 16.9 .4 22.8 6.3S500 67 498 75.1l-26.3 104.7 92.7 55.5c7.2 4.3 11.7 12.2 11.7 20.6s-4.4 16.3-11.7 20.6L471.7 332.1 498 436.8c2 8.2-.4 16.9-6.3 22.8S477 468 468.9 466l-104.7-26.3-55.5 92.7c-4.3 7.2-12.2 11.7-20.6 11.7s-16.3-4.4-20.6-11.7L211.9 439.7 107.2 466c-8.2 2-16.8-.4-22.8-6.3S76 445 78 436.8l26.2-104.7-92.6-55.5C4.4 272.2 0 264.4 0 256s4.4-16.3 11.7-20.6L104.3 179.9 78 75.1c-2-8.2 .3-16.8 6.3-22.8S99 44 107.2 46l104.7 26.2 55.5-92.6 1.8-2.6c4.5-5.7 11.4-9.1 18.8-9.1zm0 144c-40.2 0-76.5 16.4-102.6 42.9-25.6 26-41.4 61.7-41.4 101.1 0 79.5 64.5 144 144 144 58.6 0 109.1-35.1 131.5-85.3 8-17.9 12.5-37.8 12.5-58.7 0-79.5-64.5-144-144-144zm0 48c5.6 0 11.1 .5 16.5 1.4 5.8 1 10.6 5.1 12.4 10.7s.5 11.7-3.5 16c-10.8 11.5-17.4 26.9-17.4 43.8 0 31.6 22.9 57.8 53 63.1 5.8 1 10.6 5.1 12.5 10.7s.5 11.7-3.5 16c-17.5 18.6-42.4 30.2-69.9 30.2-53 0-96-43-96-96s43-96 96-96z"/></svg>