<svg xmlns="http://www.w3.org/2000/svg" viewBox="0 0 576 512"><!--! Font Awesome Pro 7.2.0 by @fontawesome - https://fontawesome.com License - https://fontawesome.com/license (Commercial License) Copyright 2026 Fonticons, Inc. --><path fill="currentColor" d="M457.9-22.6c12.5-12.5 32.8-12.5 45.3 0l64 64c12.5 12.5 12.5 32.8 0 45.2s-32.8 12.5-45.3 0l-9.4-9.4-195.1 195-11.7 88.2c-1.6 12.2-7.2 23.5-15.9 32.2L167.4 515c-25.9 25.9-68 25.9-93.9 0l-44-44C3.6 445 3.6 403 29.5 377L151.9 254.7c8.7-8.7 20-14.3 32.2-15.9l88.2-11.8 195-195-9.4-9.4c-12.5-12.5-12.5-32.8 0-45.2z"/></svg>