<svg xmlns="http://www.w3.org/2000/svg" viewBox="0 0 576 512"><!--! Font Awesome Pro 7.2.0 by @fontawesome - https://fontawesome.com License - https://fontawesome.com/license (Commercial License) Copyright 2026 Fonticons, Inc. --><path fill="currentColor" d="M457.4-22.6c12.5-12.5 32.8-12.5 45.2 0l64 64c12.5 12.5 12.5 32.8 0 45.3s-32.8 12.5-45.2 0l-9.4-9.4-195.1 195-11.7 88.2c-1.6 12.2-7.2 23.5-15.9 32.2L167 515c-25.9 25.9-68 25.9-93.9 0l-44-44C3.1 445 3.1 403 29.1 377L151.4 254.7c8.7-8.7 20-14.3 32.2-15.9l88.2-11.8 195-195-9.4-9.4c-12.5-12.5-12.5-32.8 0-45.3zM411.9 245.2c4.6 2.5 9 5.7 12.7 9.5L547 377c25.9 25.9 25.9 68 0 93.9l-44 44c-25.9 25.9-68 25.9-93.9 0l-87.1-87.1 1.3-1.3c16.1-16.1 26.5-37.2 29.5-59.8l0 0 9.6-72.1 49.5-49.5zM73.4-22.6c12.5-12.5 32.8-12.5 45.2 0s12.5 32.8 0 45.3l-9.4 9.4 144.8 144.8-4.8 4.8-71.4 9.5-113.8-113.8-9.4 9.4c-12.5 12.5-32.8 12.5-45.2 0s-12.5-32.8 0-45.3l64-64z"/></svg>