<svg xmlns="http://www.w3.org/2000/svg" viewBox="0 0 512 512"><!--! Font Awesome Pro 7.2.0 by @fontawesome - https://fontawesome.com License - https://fontawesome.com/license (Commercial License) Copyright 2026 Fonticons, Inc. --><path fill="currentColor" d="M256 0c26.2 0 51.6 3.9 75.4 11.3L306.7 70.8c15.7 4.3 30.5 10.5 44.3 18.4l24.7-59.5c45.3 24 82.5 61.3 106.5 106.6l-59.5 24.6c7.9 13.8 14.1 28.6 18.4 44.3l59.5-24.6c7.3 23.8 11.3 49.1 11.3 75.4 0 26.2-4 51.5-11.3 75.3l-59.5-24.7c-4.3 15.7-10.5 30.5-18.4 44.3l59.5 24.7c-24 45.3-61.2 82.5-106.6 106.6l-24.7-59.5c-13.8 7.9-28.6 14.1-44.3 18.4l24.7 59.5c-23.8 7.3-49.2 11.3-75.4 11.3-26.2 0-51.5-3.9-75.4-11.3l24.6-59.6c-15.7-4.3-30.5-10.5-44.3-18.4l-24.6 59.5C91 458.3 53.7 421 29.7 375.7l59.5-24.7c-7.9-13.8-14.1-28.7-18.4-44.4L11.3 331.4C4 307.5 0 282.2 0 256 0 229.8 3.9 204.4 11.3 180.6l59.5 24.7c4.3-15.7 10.5-30.5 18.4-44.3L29.7 136.3C53.8 91 91 53.7 136.3 29.7l24.6 59.5c13.8-7.9 28.7-14.1 44.3-18.4L180.6 11.3C204.5 4 229.8 0 256 0zm0 112c-10.7 0-21.2 1.2-31.2 3.4-16.7 3.7-32.4 10.3-46.3 19.3-17.7 11.3-32.7 26.4-44 44.1-8.9 13.9-15.4 29.5-19.1 46.2-2.2 10-3.4 20.4-3.4 31 0 10.7 1.2 21.2 3.4 31.2 3.6 16.3 10 31.6 18.6 45.3 11.5 18.3 27.1 33.9 45.4 45.4 13.5 8.5 28.4 14.8 44.4 18.4l0 0c10.3 2.4 21.1 3.7 32.2 3.7 11.1 0 21.8-1.3 32.2-3.7 15.9-3.6 30.9-9.9 44.3-18.4 18.4-11.5 33.9-27.1 45.5-45.5 8.5-13.5 14.7-28.4 18.4-44.3 2.4-10.3 3.7-21.1 3.7-32.1 0-11.1-1.3-21.8-3.7-32.2l0 0c-3.6-15.9-9.9-30.9-18.4-44.3-11.5-18.4-27.1-33.9-45.5-45.5l0 0c-13.4-8.5-28.4-14.7-44.3-18.4l0 0c-10.3-2.4-21.1-3.7-32.2-3.7zm0 240a96 96 0 1 1 0-192 96 96 0 1 1 0 192z"/></svg>