<svg xmlns="http://www.w3.org/2000/svg" viewBox="0 0 512 512"><!--! Font Awesome Pro 7.2.0 by @fontawesome - https://fontawesome.com License - https://fontawesome.com/license (Commercial License) Copyright 2026 Fonticons, Inc. --><path fill="currentColor" d="M448 64c35.3 0 64 28.7 64 64l0 256c0 35.3-28.7 64-64 64L64 448c-35.3 0-64-28.7-64-64L0 128C0 92.7 28.7 64 64 64l384 0zM96 160c-13.3 0-24 10.7-24 24l0 144c0 13.3 10.7 24 24 24s24-10.7 24-24l0-144c0-13.3-10.7-24-24-24zm88 0c-13.3 0-24 10.7-24 24l0 144c0 13.3 10.7 24 24 24s24-10.7 24-24l0-32 8 0c13.3 0 24 10.7 24 24l0 8c0 13.3 10.7 24 24 24s24-10.7 24-24l0-8c0-17.9-6.6-34.2-17.3-46.8 10.7-12 17.3-27.8 17.3-45.2 0-37.6-30.4-68-68-68l-36 0zm192 0c-30.9 0-56 25.1-56 56l0 80c0 30.9 25.1 56 56 56l16 0c30.9 0 56-25.1 56-56 0-13.3-10.7-24-24-24s-24 10.7-24 24c0 4.4-3.6 8-8 8l-16 0c-4.4 0-8-3.6-8-8l0-80c0-4.4 3.6-8 8-8l16 0c4.4 0 8 3.6 8 8 0 13.3 10.7 24 24 24s24-10.7 24-24c0-30.9-25.1-56-56-56l-16 0zM220 208c11 0 20 9 20 20s-9 20-20 20l-12 0 0-40 12 0z"/></svg>