<svg xmlns="http://www.w3.org/2000/svg" viewBox="0 0 512 512"><!--! Font Awesome Pro 7.2.0 by @fontawesome - https://fontawesome.com License - https://fontawesome.com/license (Commercial License) Copyright 2026 Fonticons, Inc. --><path fill="currentColor" d="M448 64c35.3 0 64 28.7 64 64l0 256c0 35.3-28.7 64-64 64L64 448c-35.3 0-64-28.7-64-64L0 128C0 92.7 28.7 64 64 64l384 0zM128 160c-35.3 0-64 28.7-64 64l0 104c0 13.3 10.7 24 24 24s24-10.7 24-24l0-24 32 0 0 24c0 13.3 10.7 24 24 24s24-10.7 24-24l0-104c0-35.3-28.7-64-64-64zm120 0c-13.3 0-24 10.7-24 24l0 144c0 13.3 10.7 24 24 24s24-10.7 24-24l0-40 16 0c35.3 0 64-28.7 64-64s-28.7-64-64-64l-40 0zm160 0c-13.3 0-24 10.7-24 24l0 144c0 13.3 10.7 24 24 24s24-10.7 24-24l0-144c0-13.3-10.7-24-24-24zM128 208c8.8 0 16 7.2 16 16l0 32-32 0 0-32c0-8.8 7.2-16 16-16zm160 0c8.8 0 16 7.2 16 16s-7.2 16-16 16l-16 0 0-32 16 0z"/></svg>