<svg xmlns="http://www.w3.org/2000/svg" viewBox="0 0 640 512"><!--! Font Awesome Pro 7.2.0 by @fontawesome - https://fontawesome.com License - https://fontawesome.com/license (Commercial License) Copyright 2026 Fonticons, Inc. --><path fill="currentColor" d="M576 64c35.3 0 64 28.7 64 64l0 256c0 35.3-28.7 64-64 64L64 448c-35.3 0-64-28.7-64-64L0 128C0 92.7 28.7 64 64 64l512 0zM172 160c-11 0-20 9-20 20l0 77.5-50.7-87.5c-4.5-7.8-13.8-11.6-22.5-9.3S64 171 64 180l0 152c0 11 9 20 20 20s20-9 20-20l0-77.5 50.7 87.6c4.5 7.8 13.8 11.6 22.5 9.3S192 341 192 332l0-152c0-11-9-20-20-20zm88 0c-11 0-20 9-20 20l0 152c0 11 9 20 20 20l88 0c11 0 20-9 20-20s-9-20-20-20l-68 0 0-36 56 0c11 0 20-9 20-20s-9-20-20-20l-56 0 0-36 68 0c11 0 20-9 20-20s-9-20-20-20l-88 0zm296 0c-11 0-20 9-20 20l0 79.9c0 7.3-1.8 14.4-5.2 20.8l-4.8 8.9-12.3-23.1c-3.5-6.5-10.3-10.6-17.6-10.6-6.5 0-12.5 3.1-16.2 8.2l-1.4 2.3-12.4 23.1-4.8-8.9c-3.4-6.4-5.2-13.5-5.2-20.8l0-79.9c0-11-9-20-20-20s-20 9-20 20l0 79.9c0 13.8 3.4 27.5 10 39.7l22.4 41.8c3.5 6.5 10.3 10.6 17.6 10.6s14.1-4.1 17.6-10.6l12.4-23.1 12.4 23.1c3.5 6.5 10.3 10.6 17.6 10.6s14.1-4.1 17.6-10.6L566 299.6c6.5-12.2 10-25.8 10-39.7l0-79.9c0-11-9-20-20-20z"/></svg>