<svg xmlns="http://www.w3.org/2000/svg" viewBox="0 0 512 512"><!--! Font Awesome Pro 7.2.0 by @fontawesome - https://fontawesome.com License - https://fontawesome.com/license (Commercial License) Copyright 2026 Fonticons, Inc. --><path fill="currentColor" d="M448 64c35.3 0 64 28.7 64 64l0 256c0 35.3-28.7 64-64 64L64 448c-35.3 0-64-28.7-64-64L0 128C0 92.7 28.7 64 64 64l384 0zM275.7 128.3c-13.1-2-25.4 7-27.4 20.1l-32 208c-2 13.1 7 25.4 20.1 27.4s25.4-7 27.4-20.1l32-208c2-13.1-7-25.4-20.1-27.4zM168 160c-13.3 0-24 10.7-24 24l0 51.4-35-63c-5.3-9.6-16.4-14.3-27-11.6-9.3 2.4-16.1 10-17.6 19.2l-.3 4 0 144c0 13.3 10.7 24 24 24s24-10.7 24-24l0-51.4 35 63.1c5.3 9.6 16.4 14.3 27 11.6s18-12.3 18-23.2l0-144c0-13.3-10.7-24-24-24zm216 0c-35.3 0-64 28.7-64 64l0 104c0 13.3 10.7 24 24 24s24-10.7 24-24l0-24 32 0 0 24c0 13.3 10.7 24 24 24s24-10.7 24-24l0-104c0-35.3-28.7-64-64-64zm0 48c8.8 0 16 7.2 16 16l0 32-32 0 0-32c0-8.8 7.2-16 16-16z"/></svg>