<svg xmlns="http://www.w3.org/2000/svg" viewBox="0 0 320 512"><!--! Font Awesome Pro 7.2.0 by @fontawesome - https://fontawesome.com License - https://fontawesome.com/license (Commercial License) Copyright 2026 Fonticons, Inc. --><path fill="currentColor" d="M256-32c35.3 0 64 28.7 64 64l0 352c0 88.4-71.6 160-160 160S0 472.4 0 384L0 32C0-3.3 28.7-32 64-32l192 0zM160 432c-13.3 0-24 10.7-24 24s10.7 24 24 24 24-10.7 24-24-10.7-24-24-24zM80 352c-13.3 0-24 10.7-24 24s10.7 24 24 24 24-10.7 24-24-10.7-24-24-24zm80 0c-13.3 0-24 10.7-24 24s10.7 24 24 24 24-10.7 24-24-10.7-24-24-24zm80 0c-13.3 0-24 10.7-24 24s10.7 24 24 24 24-10.7 24-24-10.7-24-24-24zM80 272a24 24 0 1 0 0 48 24 24 0 1 0 0-48zm80 0a24 24 0 1 0 0 48 24 24 0 1 0 0-48zm80 0a24 24 0 1 0 0 48 24 24 0 1 0 0-48zM160 32a96 96 0 1 0 0 192 96 96 0 1 0 0-192zm0 144a48 48 0 1 1 0-96 48 48 0 1 1 0 96z"/></svg>