<svg xmlns="http://www.w3.org/2000/svg" viewBox="0 0 384 512"><!--! Font Awesome Pro 7.2.0 by @fontawesome - https://fontawesome.com License - https://fontawesome.com/license (Commercial License) Copyright 2026 Fonticons, Inc. --><path fill="currentColor" d="M352 32c17.7 0 32 14.3 32 32l0 32c0 17.7-14.3 32-32 32l-28.9 0 28.8 317.1c1.6 17.6-11.4 33.2-29 34.8s-33.2-11.4-34.8-29L276.2 320 107.8 320 95.9 450.9c-1.6 17.6-17.2 30.6-34.8 29s-30.6-17.2-29-34.8L60.9 128 32 128C14.3 128 0 113.7 0 96L0 64C0 46.3 14.3 32 32 32l320 0zM113.6 256l156.8 0-11.6-128-133.6 0-11.6 128z"/></svg>