<svg xmlns="http://www.w3.org/2000/svg" viewBox="0 0 576 512"><!--! Font Awesome Pro 7.2.0 by @fontawesome - https://fontawesome.com License - https://fontawesome.com/license (Commercial License) Copyright 2026 Fonticons, Inc. --><path fill="currentColor" d="M168 464c13.3 0 24 10.7 24 24s-10.7 24-24 24l-80 0c-13.3 0-24-10.7-24-24s10.7-24 24-24l80 0zm384 0c13.3 0 24 10.7 24 24s-10.7 24-24 24l-288 0c-13.3 0-24-10.7-24-24s10.7-24 24-24l288 0zm-64-96c13.3 0 24 10.7 24 24s-10.7 24-24 24L24 416c-13.3 0-24-10.7-24-24s10.7-24 24-24l464 0zM288-32c8.4 0 16.3 4.4 20.6 11.7L364.1 72.3 468.8 46c8.2-2 16.9 .4 22.8 6.3S500 67 498 75.1l-26.3 104.7 92.7 55.5c7.2 4.3 11.7 12.2 11.7 20.6s-4.4 16.3-11.7 20.6L491.9 320 417 320c9.6-19.3 15-41 15-64 0-79.5-64.5-144-144-144S144 176.5 144 256c0 23 5.4 44.7 15 64l-74.8 0-72.5-43.4C4.4 272.2 0 264.4 0 256s4.4-16.3 11.7-20.6L104.3 179.9 78 75.1c-2-8.2 .4-16.8 6.3-22.8S99 44 107.2 46l104.7 26.2 55.5-92.6 1.8-2.6c4.5-5.7 11.4-9.1 18.8-9.1zm0 192c53 0 96 43 96 96 0 24.6-9.2 47-24.4 64l-143.1 0c-15.2-17-24.5-39.4-24.5-64 0-53 43-96 96-96z"/></svg>