<svg xmlns="http://www.w3.org/2000/svg" viewBox="0 0 576 512"><!--! Font Awesome Pro 7.2.0 by @fontawesome - https://fontawesome.com License - https://fontawesome.com/license (Commercial License) Copyright 2026 Fonticons, Inc. --><path fill="currentColor" d="M192.5 512a32 32 0 1 1 0-64 32 32 0 1 1 0 64zm160 0a32 32 0 1 1 0-64 32 32 0 1 1 0 64zm160 0a32 32 0 1 1 0-64 32 32 0 1 1 0 64zM288.5-32c8.4 0 16.3 4.4 20.6 11.7L364.6 72.3 469.3 46c8.2-2 16.9 .4 22.8 6.3L390.3 154.2c-26.1-26.1-62.1-42.2-101.8-42.2-79.5 0-144 64.5-144 144 0 39.8 16.1 75.8 42.2 101.8L84.8 459.6c-6-6-8.4-14.6-6.3-22.8l26.2-104.7-92.6-55.5C4.9 272.2 .5 264.4 .5 256s4.4-16.3 11.7-20.6l92.6-55.5-26.2-104.7c-2-8.2 .3-16.8 6.3-22.8S99.5 44 107.7 46l104.7 26.2 55.5-92.6 1.8-2.6c4.5-5.7 11.4-9.1 18.8-9.1zm-16 464a32 32 0 1 1 0-64 32 32 0 1 1 0 64zm160 0a32 32 0 1 1 0-64 32 32 0 1 1 0 64zm-80-80a32 32 0 1 1 0-64 32 32 0 1 1 0 64zm160 0a32 32 0 1 1 0-64 32 32 0 1 1 0 64zm-224-192c26.5 0 50.5 10.8 67.9 28.1L220.6 323.9c-17.4-17.4-28.1-41.4-28.1-67.9 0-53 43-96 96-96zm144 112a32 32 0 1 1 0-64 32 32 0 1 1 0 64zm80-80a32 32 0 1 1 0-64 32 32 0 1 1 0 64z"/></svg>