<svg xmlns="http://www.w3.org/2000/svg" viewBox="0 0 576 512"><!--! Font Awesome Pro 7.2.0 by @fontawesome - https://fontawesome.com License - https://fontawesome.com/license (Commercial License) Copyright 2026 Fonticons, Inc. --><path fill="currentColor" d="M544.1 416c0 17.7-14.3 32-32 32-17.7 0-32-14.3-32-32l0-128-384 0 0 128c0 17.7-14.3 32-32 32-17.7 0-32-14.3-32-32l0-208 512 0 0 208zm-23-352c13.8 0 26 8.8 30.3 21.9l10.7 32c6.9 20.7-8.5 42.1-30.3 42.1L44.5 160c-21.8 0-37.2-21.4-30.3-42.1l10.7-32C29.2 72.8 41.4 64 55.2 64l465.9 0z"/></svg>