<svg xmlns="http://www.w3.org/2000/svg" viewBox="0 0 448 512"><!--! Font Awesome Pro 7.2.0 by @fontawesome - https://fontawesome.com License - https://fontawesome.com/license (Commercial License) Copyright 2026 Fonticons, Inc. --><path fill="currentColor" d="M384 32c33.1 0 60.4 25.2 63.7 57.5l.3 6.5 0 320-.3 6.5c-3.1 30.1-27 54.1-57.1 57.1l-6.5 .3-320 0c-35.3 0-64-28.7-64-64L0 96C0 60.7 28.7 32 64 32l320 0zM64 416l128 0 0-64-128 0 0 64zm192 0l128 0 0-64-128 0 0 64zM160 288l32 0 0-64-32 0 0 64zm192 0l32 0 0-64-32 0 0 64zm-96 0l32 0 0-64-32 0 0 64zM64 288l32 0 0-64-32 0 0 64zm0-128l128 0 0-64-128 0 0 64zm192 0l128 0 0-64-128 0 0 64z"/></svg>