<svg xmlns="http://www.w3.org/2000/svg" viewBox="0 0 576 512"><!--! Font Awesome Pro 7.2.0 by @fontawesome - https://fontawesome.com License - https://fontawesome.com/license (Commercial License) Copyright 2026 Fonticons, Inc. --><path fill="currentColor" d="M7.5-24.9c9.4-9.4 24.6-9.4 33.9 0l62 62c7.7-3.3 16.2-5.1 25.1-5.1l320 0c35.3 0 64 28.7 64 64l0 320c0 8.9-1.9 17.3-5.2 25l62.1 62.1c9.4 9.4 9.4 24.6 0 33.9s-24.6 9.4-33.9 0L7.5 9.1c-9.4-9.4-9.4-24.6 0-33.9zm121 222.7l0 58.2 58.2 0 64 64-122.2 0 0 96 218.2 0 64 64-282.2 0-6.5-.3c-30.1-3.1-54.1-27-57.1-57.1l-.3-6.5 0-282.2 64 64zm320 184.3l0-62.2-62.2 0 62.2 62.2zM322.3 256l126.2 0 0-96-222.2 0 96 96z"/></svg>