<svg xmlns="http://www.w3.org/2000/svg" viewBox="0 0 576 512"><!--! Font Awesome Pro 7.2.0 by @fontawesome - https://fontawesome.com License - https://fontawesome.com/license (Commercial License) Copyright 2026 Fonticons, Inc. --><path fill="currentColor" d="M448.4 32c35.3 0 64 28.7 64 64l0 32-64 0 0-32-128 0 0 320 128 0 0-32 64 0 0 32c0 35.3-28.7 64-64 64l-320 0c-35.3 0-64-28.7-64-64l0-320c0-35.3 28.7-64 64-64l320 0zm-320 384l128 0 0-320-128 0 0 320zM514.4 188.1c9.4-9.4 24.6-9.4 33.9 0s9.4 24.6 0 33.9l-33.9 33.9 34 34c9.4 9.4 9.4 24.6 0 33.9-9.4 9.4-24.6 9.4-34 0l-33.9-33.9-33.9 33.9c-9.4 9.4-24.6 9.4-33.9 0s-9.4-24.6 0-33.9l33.9-33.9-33.9-33.9c-9.4-9.4-9.4-24.6 0-33.9s24.6-9.4 33.9 0l33.9 33.9 33.9-33.9z"/></svg>