<svg xmlns="http://www.w3.org/2000/svg" viewBox="0 0 448 512"><!--! Font Awesome Pro 7.2.0 by @fontawesome - https://fontawesome.com License - https://fontawesome.com/license (Commercial License) Copyright 2026 Fonticons, Inc. --><path fill="currentColor" d="M0 416c0 35.3 28.7 64 64 64l32 0 0-64-32 0 0-128 320 0 0 128-32 0 0 64 32 0c35.3 0 64-28.7 64-64l0-320c0-35.3-28.7-64-64-64L64 32C28.7 32 0 60.7 0 96L0 416zM384 96l0 128-320 0 0-128 320 0zM156.1 481.9c-9.4 9.4-9.4 24.6 0 33.9s24.6 9.4 33.9 0l33.9-33.9 34 34c9.4 9.4 24.6 9.4 33.9 0 9.4-9.4 9.4-24.6 0-34l-33.9-33.9 33.9-33.9c9.4-9.4 9.4-24.6 0-33.9s-24.6-9.4-33.9 0l-33.9 33.9-33.9-33.9c-9.4-9.4-24.6-9.4-33.9 0s-9.4 24.6 0 33.9L190 448 156.1 481.9z"/></svg>