<svg xmlns="http://www.w3.org/2000/svg" viewBox="0 0 448 512"><!--! Font Awesome Pro 7.2.0 by @fontawesome - https://fontawesome.com License - https://fontawesome.com/license (Commercial License) Copyright 2026 Fonticons, Inc. --><path fill="currentColor" d="M384 32c35.3 0 64 28.7 64 64l0 320c0 33.1-25.2 60.4-57.5 63.7l-6.5 .3-320 0-6.5-.3c-30.1-3.1-54.1-27-57.1-57.1L0 416 0 96C0 60.7 28.7 32 64 32l320 0zM64 416l128 0 0-32 64 0 0 32 128 0 0-320-128 0 0 32-64 0 0-32-128 0 0 320zM215 175c9.4-9.4 24.6-9.4 33.9 0l64 64 1.7 1.8c7.7 9.4 7.1 23.3-1.7 32.1l-64 64c-9.4 9.4-24.6 9.4-33.9 0s-9.4-24.6 0-33.9l23-23-86.1 0c-13.3 0-24-10.7-24-24s10.7-24 24-24l86.1 0-23-23c-9.4-9.4-9.4-24.6 0-33.9z"/></svg>