<svg xmlns="http://www.w3.org/2000/svg" viewBox="0 0 576 512"><!--! Font Awesome Pro 7.2.0 by @fontawesome - https://fontawesome.com License - https://fontawesome.com/license (Commercial License) Copyright 2026 Fonticons, Inc. --><path fill="currentColor" d="M288 96c35.3 0 64 28.7 64 64 0 23.7-12.9 44.3-32 55.4L320 480c0 17.7-14.3 32-32 32s-32-14.3-32-32l0-264.6c-19.1-11.1-32-31.7-32-55.4 0-35.3 28.7-64 64-64zM112.1 11.5c11.3-6.8 26.1-3.2 32.9 8.1 24.8 41 39 89.1 39 140.4s-14.2 99.4-39 140.4c-6.9 11.3-21.6 15-32.9 8.1s-15-21.6-8.2-32.9C124.3 241.9 136 202.3 136 160S124.3 78.1 103.9 44.4c-6.8-11.3-3.2-26.1 8.2-32.9zM431 19.6c6.9-11.3 21.6-15 32.9-8.1s15 21.6 8.2 32.9C451.7 78.1 440 117.7 440 160s11.7 81.9 32.1 115.6c6.8 11.3 3.2 26.1-8.2 32.9s-26.1 3.2-32.9-8.1c-24.8-41-39-89.1-39-140.4s14.2-99.4 39-140.4zM27 57.8c11.2-7.2 26-3.9 33.2 7.2 17.6 27.4 27.8 60 27.8 95s-10.2 67.6-27.8 95c-7.2 11.1-22 14.4-33.2 7.2s-14.4-22-7.2-33.2C32.6 209.1 40 185.5 40 160s-7.4-49.1-20.2-69C12.7 79.8 15.9 65 27 57.8zM515.8 65c7.2-11.1 22-14.4 33.2-7.2s14.4 22 7.2 33.2c-12.8 19.9-20.2 43.6-20.2 69s7.4 49.2 20.2 69.1c7.2 11.2 3.9 26-7.2 33.2s-26 3.9-33.2-7.2c-17.6-27.4-27.8-60.1-27.8-95s10.2-67.6 27.8-95z"/></svg>