<svg xmlns="http://www.w3.org/2000/svg" viewBox="0 0 512 512"><!--! Font Awesome Pro 7.2.0 by @fontawesome - https://fontawesome.com License - https://fontawesome.com/license (Commercial License) Copyright 2026 Fonticons, Inc. --><path fill="currentColor" d="M280.5 0c30.9 0 56 25.1 56 56l0 40.9c13.1 2.2 25.3 8.3 34.7 17.8l58.5 58.5c12 12 18.7 28.3 18.7 45.2l0 229.5c0 35.3-28.7 64-64 64l-256 0c-35.3 0-64-28.7-64-64l0-288c0-29.8 20.4-54.8 48-61.9l0-42.1c0-30.9 25.1-56 56-56l112 0zm89 223c-9.4-9.4-24.6-9.4-33.9 0l-25 25-108.1 0-25-25c-9.4-9.4-24.6-9.4-33.9 0s-9.4 24.6 0 33.9l25 25 0 76.1-25 25c-9.4 9.4-9.4 24.6 0 33.9s24.6 9.4 33.9 0l25-25 108.1 0 25 25c9.4 9.4 24.6 9.4 33.9 0s9.4-24.6 0-33.9l-25-25 0-76.1 25-25c9.4-9.4 9.4-24.6 0-33.9zm-73 121l-80 0 0-48 80 0 0 48zm103-297c9.4-9.4 24.6-9.4 33.9 0l64 64c9.4 9.4 9.4 24.6 0 33.9s-24.6 9.4-33.9 0l-64-64c-9.4-9.4-9.4-24.6 0-33.9zm-231 1c-4.4 0-8 3.6-8 8l0 40 128 0 0-40c0-4.4-3.6-8-8-8l-112 0z"/></svg>