<svg xmlns="http://www.w3.org/2000/svg" viewBox="0 0 512 512"><!--! Font Awesome Pro 7.2.0 by @fontawesome - https://fontawesome.com License - https://fontawesome.com/license (Commercial License) Copyright 2026 Fonticons, Inc. --><path fill="currentColor" d="M480 0c17.7 0 32 14.3 32 32 0 16.6-12.6 30.2-28.7 31.8l-3.3 .2 0 416c0 17.7-14.3 32-32 32s-32-14.3-32-32l-136 0 0-416-48 0 0 416-136 0c0 17.7-14.3 32-32 32s-32-14.3-32-32l0-416-3.3-.2C12.6 62.2 0 48.6 0 32 0 14.3 14.3 0 32 0L480 0zM168 192c-13.3 0-24 10.7-24 24l0 48c0 13.3 10.7 24 24 24s24-10.7 24-24l0-48c0-13.3-10.7-24-24-24zm176 0c-13.3 0-24 10.7-24 24l0 48c0 13.3 10.7 24 24 24s24-10.7 24-24l0-48c0-13.3-10.7-24-24-24z"/></svg>