<svg xmlns="http://www.w3.org/2000/svg" viewBox="0 0 616 560"><!--! Font Awesome Pro 7.2.0 by @fontawesome - https://fontawesome.com License - https://fontawesome.com/license (Commercial License) Copyright 2026 Fonticons, Inc. --><path fill="currentColor" d="M238.1 36.8c70.5-2 141 .5 211.2 6.8 15.5 1.4 30.5 3.2 44.1 5.3 11.4 1.2 22.7 2 34.1 3.3 2.5 .3 4.9 1.2 6.6 2.6l.9 .7c.9 .7 1 1.5 .9 2.3 0 0 0 .1 0 .1-.1 .3 0 .5-.2 .8l-4.8 6c-1.2 1.5-3.7 2.3-6.3 2-60.9-7.3-122.1-11.9-183.3-13.3-1.2 0-2.4-.4-3.3-1.1-.2-.1-.1-.4-.2-.5-71.6-2.1-141.8-.1-209.8 7.5-17.1 1.9-34.2 4.2-51.1 7.1-8.4 1.4-16.9 3-25.1 4.8-2.2-1.8-4.7 8.3-6.6 16-12.3 66.8-14.4 136.9-16.1 205.7-.5 34.5-.2 69.1 1.8 103.5 1 17.2 2.4 34.3 4.8 51.1 1.2 8.4 2.8 16.7 5 24.5 1.1 3.9 2.4 7.7 4 10.8 .8 1.6 1.6 2.8 2.4 3.7 .3 .1 .7 .7 .7 .5 .1-.4-.2 .6-.2 .6s-.1 .1-.1 .3l1-.8c151.3 21.1 305.5 29.3 457 11.2 18.8-2.4 37.7-5.2 56.1-9.1l4.1-.9c0 0 .1 0 1-2.2 1.4-3.6 2.6-8.1 3.6-12.6 2-9 3.4-18.4 4.7-27.7 5-37.6 7.5-75.8 9.4-114 1.8-38.2 2.5-76.4 2.1-114.6-.7-38-1.9-76.5-8.2-113.3-2-11.2-4.6-21.9-7.3-27.5-2.9-5.4-2.2-3.9-2.4-5.4 .8-3 5.9-3.3 10-1.9 1.6 .4 6.4 6.3 9.5 15.7 3.4 9.4 6.1 22.1 7.7 36l0-.1c8 75.6 6.1 151 2.6 226.3-2.2 37.6-4.8 75.2-10.6 112.9-1.6 9.5-3.1 18.8-6.3 28.6-.9 2.6-1.5 4.6-3.7 8.4-1.2 1.7-2.7 3.5-4.6 4.3-1.9 .5-4.5 1.6-5.3 1.7l-14.1 2.9c-18.7 3.5-37.4 6.1-56.2 8.3-150.4 16.7-302.1 8.3-451.3-12.5l1 .1c-10.5-1.2-13.5-8.4-15.9-12.4-2.4-4.7-3.8-9.2-5.1-13.7-2.5-9-4.1-17.9-5.4-26.7-2.5-17.7-3.9-35.4-4.9-53-1.9-35.3-2.2-70.6-1.7-105.8 .6-35.2 2-70.4 4.4-105.5 2.8-35.2 5.1-70.1 13.2-105.7 1.3-4.6 2.3-8.8 5.3-14.4 1.9-3.9 5.5-6.5 9.7-7.4l6.8-1.5c13.1-2.7 39.3-7.5 78.8-11.8 35.1-3.7 70.3-5.9 105.6-7zM197.6 291.2c19.6 0 39.2 .8 58.7 1.2 12.6 .3 22.7 6.8 30.7 13.6 8.1 7.1 14.6 15.2 20.2 24 5.5 8.8 9.9 18.3 12.6 28.9 1.3 5.3 2.1 10.9 1.4 17.1 .1 2.9-1.6 6.5-2.6 9.6-2.2 3-4.1 6.6-7.6 8.1-6.9 4.5-11.7 4-16.9 5.3-5 .7-10 1.4-14.9 1.9-9.9 1.1-19.7 1.7-29.5 2.4-39.4 2-78.6 2.9-118.5-1.3-3.2-.3-6.3-1.3-8.4-2.2-2.1-1-3.1-2-2.7-2.8l3.9-7.5c1-1.9 6.9-2.3 14.1-1.7 37.9 3.5 76.9 2.6 115.3 .4 9.6-.6 19.2-1.4 28.6-2.5 4.7-.6 9.4-1.2 13.8-2.1 2.3-.4 4.1-.9 5.8-1.5l0 .1c.8-.9 2.3-.9 2.7-2.2 3.2-3.4 2.8-13.1 0-21.2-2.7-8.4-6.9-16.6-11.9-24.1-10.1-14.8-24.1-28.4-40.2-27.7-19.3-.3-38.7-1.4-58-1l-29 1.1c-5 .2-9.8 .3-12.7 1-3.5 1.1-7.2 2.5-10.6 5-13.9 9.6-25 25.7-31.1 42.1-.5 1.4-1.2 3.6-2.4 6.8-2 7.7-1.2 15.9 1.4 18 .6 .3 .8 1 .8 2.4l.1 .7c.1 1-.1 2.3-.8 3.1-1.3 1.7-3 3.3-4.9 4.7-1.4 1-4.1 1.1-5.7-.6-9.6-11-7.1-23.4-5.1-32.9 2.5-9.9 6.6-19 11.7-27.5 10.6-16.2 23.4-33.6 47.2-38.3 .9-.1 1.9 .1 2.6 .6 .2 .1 .1 .3 .2 .5 4.4-.4 8-.4 12.1-.7l29.4-1.1zm315.7 40.3l0 0c1 0 1.9 .4 2.5 1s1 1.5 .9 2.4l-.8 8c-.2 2-2.1 3.5-4.3 3.5l-142.5-.5c-1.9 0-3.8-.6-5.3-1.8l-.7-.6c-1-.8-1.3-2-.8-3.1l3.2-6.5c.8-1.7 2.7-2.8 4.7-2.8l143 .4zm0-58.6c1 0 1.9 .4 2.5 1l0 0c.6 .6 1 1.5 .9 2.4l-.8 8c-.2 2-2.1 3.5-4.3 3.5l-142.5-.5c-1.9 0-3.8-.7-5.3-1.8l-.7-.5c-1-.8-1.3-2-.8-3.1l3.2-6.6c.8-1.7 2.7-2.8 4.7-2.8l143 .4zM200.4 155.2c1.8-.2 3.5 .1 4.7 .7 .2 .1 .1 .2 .2 .3l9.4-.5c.2 0 .2 .7 .2 1.5 32.5 3.4 58.5 37.9 49.4 71.5-.1 .7-.5 1.2-1.2 1.4-.2 .1-.6 0-.8 0-5.3 19.8-21.7 36.2-41.8 40.9-20.6 5.4-43.9-1.8-57.9-18.1-14.3-15.9-18.9-40.1-10.8-60.2 7.6-20.2 27-35.4 48.7-37.7zm-.6 15.1c-16 2.4-30.1 14.4-35 29.7-5.2 15.2-1.4 33.1 9.9 44.5 10.9 11.6 28.3 16.5 43.5 11.9 15.2-4.2 27.6-17.3 30.7-32.6 .3-1.7 1.1-3.1 1.8-4.6 2.9-23.4-16.8-47.1-40.2-47.7-.4 0-.8-.5-1.2-.8l-6.8 .7s-.1-.4-.2-1c0-.2-.1-.6-.1-.9-.8 .3-1.5 .7-2.4 .9zm313.5 44c1 0 1.9 .4 2.5 1l0 0c.6 .6 1 1.5 .9 2.4l-.8 8c-.2 2-2.1 3.5-4.3 3.5l-142.5-.6c-1.9 0-3.8-.6-5.3-1.8l-.7-.5c-1-.8-1.3-2-.8-3.1l3.2-6.6c.8-1.7 2.7-2.8 4.7-2.8l143 .4z"/></svg>