<svg xmlns="http://www.w3.org/2000/svg" viewBox="0 0 560 560"><!--! Font Awesome Pro 7.2.0 by @fontawesome - https://fontawesome.com License - https://fontawesome.com/license (Commercial License) Copyright 2026 Fonticons, Inc. --><path fill="currentColor" d="M118 14.5c24.9-.2 49.9 9.1 68.6 25.6 2.8 2.4 5.1 5.3 6.5 8.1 27.6-10.5 57.1-16 86.8-15.7 30.4-.7 60.1 5.1 87.8 16.1 .7-1.5 1.9-3.1 3.4-4.6 18.7-18.2 44.6-28.8 70.8-28.8 54.7-1.6 104.6 47.6 103.5 102.8 .2 24.8-9 49.6-25.3 68.4-2.6 3-5.7 5.3-8.5 6.8 10.7 27.4 16.3 56.8 15.6 86.8 .3 10.9-.4 21.7-1.8 32.4-.1 1.6-.1 3.2-.2 4.9-5.8 71.8-47.4 136.8-105.6 177.6 27.4 16.3 56.6 30.5 87.1 37.4 .5-.2 2.4-.6 3.3-1.3 1.9-.9 3.8-2.2 5.6-3.4 2.2-1.4 4.8-4.1 6.2-5.6-9-22-20.7-44-31.4-66-.6-1.3-.9-2.6-.8-3.7s.6-1.9 1.4-2.2c2.5-.8 5-1.6 7.4-2.4 1.8-.6 4.3 1.2 5.8 4.1 10.9 22.4 22.6 44.1 32.1 68.1l.4 3.5c-3.4 10.7-8.3 12-12.8 15.9-2.3 1.7-4.8 3.2-7.5 4.5-3.1 1.2-4.3 3.3-12 2.6-33.8-7.6-64.7-22.9-93.6-40.3-1.4-.8-2.6-1.8-3.7-2.9-37.9 23.4-81.7 36.8-127 36-45.1 1-89.1-12.2-127.2-35.4-.8 .7-1.8 1.5-3 2-28.4 12.3-56.8 26.2-87.5 35.2-1.3 .4-2.9 1.1-4.9 1.7-2.4 .2-2.8 3.1-11.4-.2-5.5-4-8.2-7.4-11.6-11.5-1.6-2-3.2-4.1-4.6-6.5-1.3-2.7-3.3-4.1-3.6-10.7 .1-1.9 .5-3.5 1-4.8 9.6-29.1 24.1-55.5 38-81.6 .3-.5 .6-1.1 .9-1.6 .9-1.4 2.1-2.8 3.3-3.9-18-28.3-30.2-60.3-34.6-94.1-1.4-9.7-1.6-19.4-.8-26.9 .1-1.2 .3-2.4 .4-3.7 .3-2.7 .9-4.5 1.4-5.1 .3-2.8 .7-4.5 1.3-5 2.5-2.4 5-4.8 7.6-7.2 .8-.7 1.6 2.4 2.4 8.4S48.8 303 50 311.8c13.1 111.4 117.5 202.9 230 200.8 114.6 2.9 219-92.5 231.7-205.1 .2-2.4 .4-4.8 .7-6.9 .5-6.8 .8-13.7 .6-20.6 3.2-124.1-108.6-236.3-233-233.4-82.6-.9-163.3 46.3-203.5 118.4-9.4 16.4-16.3 31.9-20.2 38.3-5.1 8.2-9.7 17-13.8 26-1.9 4.4-2.6 1-1-8.6 .4-2.3 .8-4.7 1.3-7 1.3-6.5 3.2-13.8 5.8-21.4-1.4-.7-2.9-1.8-4.2-3.1-18.4-18.7-29.2-44.9-29.2-71.3-1.6-54.7 47.6-104.6 102.8-103.5zM77 435.3c-13.7 25.7-27.6 51.3-36.4 78.1-.2 .6-.2 1-.2 1.2-.3-1.2 2.6 4.8 5.1 7.5 2 2.5 4.7 5.4 6.8 7.2 .2-.1 .5-.1 .6-.2 1.5-.5 3.2-1.2 5.5-1.9 27.5-8.1 53.8-20.6 80.8-32.5-23.8-16.6-44.8-37.3-61.7-60.8-.2 .4-.3 .9-.5 1.3zM277.6 95.8l6.6 6.2c1.7 1.6 2.8 5.3 2.8 9.5l.5 134.9 .1 13.6c10.1 3.3 17.8 14 15 25.8 0 0-.2 .1-.2 .1l14.8 10 60.8 41c1.7 1.1 3 2.5 3.8 3.7s.9 2.4 .2 3l-5.8 5.8c-1.4 1.4-5.4 .5-9.3-2l-60.5-40.8-13.5-9.1c-2.3 1.8-4.8 3.2-7.7 4-7.7 2.1-16.7-.5-22.1-6.6-5.5-6-7.4-15.3-4.4-23.1 2.3-6.3 7.6-11.2 13.9-13.5l-.1-14.6-.4-133.6c0-4 .6-7.9 1.7-10.9l.5-1.5c.7-2.1 2-2.8 3.1-1.8zM442 29.5c-18.4 0-36.7 6.1-51.5 16.9 53.9 25.7 97.5 70.3 124.8 123.3 10.5-15.1 16.2-33.3 16.1-51.7 .9-47.6-42.2-90-89.4-88.5zm-324-.8c-47.6-.9-90 42.2-88.5 89.4 0 18.4 6.1 36.7 16.9 51.5 25.2-53.9 73-95 126.3-119.4 .9-.4 1.9-.8 2.8-1-16-13.3-36.7-20.7-57.4-20.5z"/></svg>