<svg xmlns="http://www.w3.org/2000/svg" viewBox="0 0 448 560"><!--! Font Awesome Pro 7.2.0 by @fontawesome - https://fontawesome.com License - https://fontawesome.com/license (Commercial License) Copyright 2026 Fonticons, Inc. --><path fill="currentColor" d="M215.8-7c11.8-2.1 24.2-.4 34.9 4.5 21.4 9.6 38.1 30.4 39.7 55.3 .1 1-.2 2-.8 2.6-.2 .3-.6 .2-.9 .3 0 5.7-.5 11.3-1.9 16.6-2.6 13.4-15.9 30.4-13.7 28.2 .2 .3 .6 .3 .8 .3l13.1 0 18.1-.1 31.7 0c2.8-.3 5.9 1.1 7.7 1.9 4.5 1.8 9.6 7.9 9 13.9-.7 6.6-2.5 8.8-4.1 12.4-3.5 6.6-8 12.7-13.7 17.7-6.2 5-11.4 9.2-21.8 10.7-13.8 .4-26.1 .7-37 1-1.9 .5-4.4 .9-7.1 .8l-9.7-.1c-.7 .2-1.4 .3-1.5 .7-1.1 .8-1.9 2.2-2 3.6l-.1 9.3c-1.2 239.2-1.2 229.2-1.2 239.2-.1 3.1 .2 2 .7 3 .3 .2 .5 .3 .8 .4l4.1-.1c12.9-.3 25.8-1.5 38.4-3.9 25-4.9 49.9-14.3 64.8-33.4 7.6-9.3 12.4-20.7 14.7-32.7 .6-3 .9-6.1 1.3-9.1 .2-2.7 .4-7.3 .2-7.1 0-.2-.2-.5-.5-.4l-10.3 0c-4.1-.1-8.1 .1-12.3-.2-5.2-1.1-9.8-4.3-10.3-9.7-.6-4.7 2.9-10.5 6.4-14.7 3.4-4.4 5-5.8 7.7-8.6 9.7-9.7 19.6-18.5 29.2-27.5l7.3-6.9c3.9-2.9 5.8-6.9 11.4-9 5.3-2.3 11.4 .6 14.2 5.5 3.4 5.4 4.1 10.9 4.8 13.9 2.3 14.3 2.3 27.7 2 41.3-.1 4.1-.6 8.2-.8 12.3-.2 5-.6 9.9-1 14.9-.4 4.9-.6 9.9-1.1 14.9-1.2 12.4-3 24.8-5.4 37.2l.1 0c-.1 .4-.1 .9-.2 1.3-1.7 8-3.4 15.8-5.9 23.8-.4 1.4-.6 2.9-1.1 4.3-.6 1.8-1.5 3.6-2.5 5.1-1.1 2.4-2.1 4.8-3.4 7.3-7.8 12.4-18.6 22.5-30.4 30.3-23.9 15.5-50.5 22.6-74.8 31.8-24.4 8.9-47.6 20.4-60.8 40.9-1.7 2.6-3.1 5.1-4.5 7.7-2.1 4.4-3.8 8.9-4.8 13.5-.2 1.1-1 2.1-2.3 2.8l-.6 .3c-.2 .1-.4-.1-.7 0-.1 0-.4 .5-.5 .4-.1-.1-.2-.3-.3-.4-.6 0-1.1 .3-1.7 0l-6.1-3.1c-1.5-.9-2.4-2.4-2.1-3.9 3.8-17.2 13.8-32.6 26.5-44.2 6.6-5.9 12.9-10.8 21.4-15.2l21.7-10.4c.6-.3 1.3-.2 2 .2 .1 0 .1 .2 .2 .2 31.7-12.8 65-19.6 89.1-40.5 9.2-8.4 17.4-17.3 20.8-28.8 1.3-3.8 2.2-7.9 3.2-11.9 .9-3.8 1.9-7.7 2.7-11.6 .8-4.2 1.7-8.4 2.4-12.7 .2-1.2 .3-2.4 .5-3.5 1.6-10.3 2.8-20.8 3.7-31.2 .4-4.5 .7-8.9 1-13.4 .3-4.7 .4-9.3 .5-14 .2-7.7 .4-15.5 .2-23.1-.4-8.7-1.1-18.4-3.3-25.2l-.4 .4-11.3 11-22.6 21.4c-3.7 3.6-7.2 7.2-10.4 10.7-.5 .6-.8 1.1-1.3 1.7 .3 0 .7 0 1.3 0l7.6-.1c3 0 3.5-.3 11.2 0 5.7 1.2 9.1 7.5 9.5 13.6 .3 4.8-.1 7.7-.4 11.4-.7 7.1-2.1 14.1-4.3 20.9-4.3 13.7-12.3 26.4-22.8 36.3-21.5 20-49.6 27.4-76.3 31.6-6.8 1-13.6 1.6-20.4 2l-10.2 .4c-2.1 .2-9.9 .5-14.4-3.9-2.3-1.9-4-4.5-5-7.4-1.1-2.9-.9-6.2-.9-7.3 0-5 .1-14.9 .2-29.8 .6-125.6 1-191.6 1-198.2l.1-16-46.9 .7c-.7 0-1.4-.6-1.9-1.7l-.3-.5c-.4-.7-.5-2-.2-3.1l.8-4.3c-8.7-.1-21.3-.2-37.8-.4l-11.4-.2-5.7-.1c-1.9-.2-3.4 .4-7.4-.6-18.3-5.8-29.8-19.4-35.9-37.1-2.2-6.8 2.3-15.2 8.2-17.7 1.3-.7 2.5-1.2 4-1.7 1.6-.6 4-.8 4.9-.7l5 0 20-.1 35.3-.3c-.1-.2-.2-.3-.3-.4 .2 .3-4-5.3-5.7-8.5-4.2-7.6-6.9-16-7.8-24.7-2-17.7 4.6-35.1 15.1-48.4 1.6-2 3.8-4.5 6.2-6 1.7-1.1 3.3-2 4.8-2.8 8.5-7.5 18.9-13.6 30.7-15.7zM202.4 182.8c2 .7 3.6 7.3 3.7 15.3l2.1 211.7 0 3.3c.1 1.6-.2 3.9-.9 5.7-1.3 3.8-3.9 7-7.4 9-3.2 2.2-8.8 2.3-10.2 2.1l-6.8-.2c-9-.3-18.1-1-27.2-2.3-18.1-2.7-35.9-7.2-52.9-15.9-16.9-8.4-31.8-22.6-40.4-40-4.3-8.7-7.1-18-8.5-27.5-.7-4.7-1.2-9.4-1.3-14.2-1.4-8.1 4.8-17.2 13.7-16.8l16.4 .2c0-.3 .6 .4-.5-.9-8.2-9-18.9-18.4-28.8-27.6-3.9-3.6-7.2-7.3-10-10.9l-6.2-5.9c-2.4 7.9-2.9 18.4-3.1 28.1 .2 40.1 4.1 82.5 15.8 119.8 .5 1.3 .5 2.4 .7 3.7 1.7 4 3.7 7.8 6.4 10.9 16.1 21.9 43.4 32.5 70.6 42 27 9.9 57.6 17.9 80.8 41.1 3.7 3.7 6.5 8.1 7.9 12l0 .1 .7 1.9c.8 2.7 .3 4-1.3 3.5-3.3-1-6.5-1.7-9.7-2.2-2.5-.4-6-3-9.4-6.2-19.8-19.1-48.7-27.1-76.3-37-27.5-9.5-58.2-21.9-77-48.8-10.1-14.4-12.2-29.6-15.6-44.2-3-14.8-5-29.6-6.5-44.4-1.5-14.9-2.5-29.8-2.6-44.8 0-7.6 .1-15.1 .8-22.9 .4-3.9 .8-7.7 1.7-11.9 1.2-4.2 1.2-8.1 6.1-14.1 2.2-2.2 5.3-3.9 9.2-3.7 .9 .1 1.6 .4 2.4 .7l.1 0c0 0 .1 .1 .1 .1 .9 .3 1.5 .6 2.1 1 4.6 2.2 5.7 4.5 7.4 5.6L59.7 268.7 82.7 290c3.8 3.6 7.7 7.5 11.5 11.6 1.9 2.2 3.8 4.4 5.6 7.4 .9 1.6 1.9 3.4 2.5 6.3 .2 1.9 .3 3.8-.4 5.9-.8 2.2-2.9 4.8-4.4 5.7-1.7 1-3.8 1.7-5.3 1.9-1.1 0-2.1-.2-3-.4-.5-.2-.8-.4-1.2-.7l-19.6 .1c-.8 .1-1.3 .4-1.1 1.9 0 4.2 .5 8.3 1.1 12.4 1.3 8.2 3.7 16.2 7.5 23.4 7.4 14.6 19.8 26.2 34.8 33.4 15 7.3 32.1 11.7 49.1 14.1 8.6 1.1 17.2 1.8 25.9 2l6.1 .1c.3 0 .6-.2 1-.5s.5-.7 .5-1.1l-.1-6.4-2.2-214.5c0-3.4 .3-6.7 .9-9.1s1.5-3.6 2.3-3.3l8.1 2.6zM223.5 7.6c-10.8 .7-21.3 4.8-29.5 12.9-1.1 1-2.6 1.6-4.3 1.6l-.8 0c-.2 0-.3-.3-.5-.3-1 1.9-2.2 4-4 6.5-8.2 11.2-12.7 25-10.5 38.3 .9 6.6 3.4 13.1 6.9 18.8 .9 1.5 1.7 2.6 3 4.3l5.8 7.7c3.9 5.8 4.7 10 .9 14.1-1.6 1.7-3.9 2.1-5.9 1.9l-6.3 .1c-6.3 .1-18.8 .4-37.6 .7l-25.2 .5-3.1 .1c-.7 0-.4 0-.6 .1-.9 .3-2 1-2 1-.1 .8-.7-.5 .5 2.8 4.4 11.8 16.7 23.5 26 24.3l.1 .1c25.2 .3 66.8 .8 124.7 1.3 .6 0 1.2-.3 1.8-.2 31.3-.9 47.7-1.3 49.4-1.4 2.6-.1 .6 .1 2.7-.4 1.2-.4 2.4-.9 3.6-1.5 4.7-2.3 9-6 12.5-10.3 3.4-4 6.7-10.3 7.8-13.9 0-.2 .1-.1-.2-.4-1.8-.9-.4-.7-5.4-.8-32.5-.4-54.2-.7-65.1-.8-3.5-.3-7.4 .9-10.9-2.7-3.4-3.8-3.7-8-.6-13.4 1.1-2.4 3.7-5.7 4.9-7.7l2.9-4.4c1.6-2.6 3.1-5.2 4.3-7.8 2.5-5.3 4.3-10.8 5-16.5 3.6-22.4-13-45.3-34.5-52.4-5.3-1.7-10.6-2.2-15.8-2.1zM213.1 41.9c5.4-4.9 15.5-5.6 21.7-1.3l0 0c6.3 3.6 10.7 12 9.1 19.8-.8 7.2-7.3 14.7-14.8 16.3-7.2 1.7-15.3 .5-21.4-6.2-5.8-7.8-4.8-15.5-1.7-22.3 .7-1.4 2.1-2.4 3.7-2.6l.8-.1c1.1-.1 2.1 .6 2.7 1.6 .5 .9 1.2 1.6 1.9 2.4 .1-.2 .2-.4 .3-.5 .1-.1 .2-.2 .2-.2l-2.2-2.3c-1.4-1.4-1.5-3.5-.2-4.6z"/></svg>