<svg xmlns="http://www.w3.org/2000/svg" viewBox="0 0 560 560"><!--! Font Awesome Pro 7.2.0 by @fontawesome - https://fontawesome.com License - https://fontawesome.com/license (Commercial License) Copyright 2026 Fonticons, Inc. --><path fill="currentColor" d="M85.3 101.9c9 .6 18 1.4 27 3.3 9 2.6 17.9 2.5 28.2 13.5l-.3-.5c22.2 29 44.9 57.7 68 86 11.6 14.1 23.3 28.1 35.2 41.9l18.1 20.5 9.2 10 7.8 8.1c.2 .1 0 .3 .8-.3 2.5-1.8 5.2-4.2 7.7-6.5 5.2-4.7 10.2-9.8 15.2-14.9 10-10.3 19.7-21 29.3-31.9 19.1-21.7 37.7-44 55.7-66.7 9-11.4 17.9-22.8 26.4-34.5l6.3-8.7c1-2 7.2-8.4 10.7-9.5 8.1-4.4 15.6-5.6 23.3-7.1 15.2-2.5 30.4-2.9 45.6-1.6 13.5 1.6 27.4 3.6 40.8 11.6 .1 0 .2 .1 .3 .1s.2 .1 .3 .2c1.4 .9 2.9 1.5 4.3 2.5 1.4 1.2 2.5 2.8 3.8 4.3 0 .1 .1 .1 .2 .2 0 0 .1 .1 .1 .1 .9 1.1 1.8 2.1 2.5 3.4 .3 .5 .7 .9 1 1.4 .7 2 1.3 4.2 1.8 6.3 0 .2 0 .3 0 .5 0 .1 0 .1 .1 .2 0 .2 0 .3 0 .5l0 .1c1.2 8.2-1.9 15.6-5.3 20.9-.6 1-1.4 1.8-2.3 2.1s-1.8 .1-2.4-.5l-6.2-5.4c-1.5-1.3-2.1-3.6-1.2-5.1 12.4-17.3-15.3-25.9-36.1-27.6-21.4-1.8-46.5-.7-63.5 7.5-1.4 .5-1.8 .6-2.9 .5-.6 .3-1.7 1.4-2.7 3l-12.4 17-25.8 33.1c-17.5 21.8-35.4 43.2-54 64.1-9.3 10.5-18.7 20.8-28.6 30.9-4.9 5-9.9 10-15.3 14.8-2.7 2.5-5.4 4.8-8.8 7.2-2.6 1.6-5.4 3.4-8.3 3.9-3 .2-5.8-.9-8.1-2.5l-11.1-11.5-9.4-10.2-18.3-20.7c-18.1-20.9-53.5-63.1-103.9-128.7l-.3-.5c-1.9-2.2-11.4-6-19-7.1-8-1.8-16.5-2.5-24.9-3-16.7-.7-34.2 .2-49 5.5-7.5 2.4-13.6 6.9-14.1 11.2-.6 4.8 1.9 10.7 7.4 18.2 9.8 14.4 20 28.6 30.4 42.6 41.5 56.2 86.5 109.8 133.4 161.6 23.4 25.9 47.5 51.3 72 76.3l9.2 9.4 1.9 1.9 .2 0c5.6-3 12.8-9 19-14.5 12.8-11.4 24.9-23.9 37-36.5 47.9-50.7 93.2-104.2 137.2-158.6 7.5-9.3 14.8-18 21.8-26.1l27.2-36.3c.6-.8 1.6-1.1 3-1l.7 .1c.9 .1 2 .7 2.7 1.5l4.3 5.2c1.1 1.3 1.4 2.7 .8 3.5l-42.3 56.7c-.3 .4-.8 .5-1.5 .4-.3-.1-.5-.3-.8-.4-2.9 3.8-6 7.8-9.3 11.8-43.9 54-88.9 107.1-137.1 157.7-12.1 12.6-24.5 25-38 36.6-3.4 2.9-6.9 5.8-10.7 8.5-1.9 1.3-3.9 2.7-6.2 3.9-2.3 1.2-7 3.2-10.5 2.6-1.7-.7-3.7-1-5.1-2.1-1.4-1-3.1-3.1-3.6-3.5-2.3-2.3-6.9-7-13.7-14-24.3-24.9-48.3-50.2-71.6-76.1-46.7-51.7-91.5-105.2-132.9-161.4-10.4-14-20.5-28.3-30.3-42.7-4.5-6.7-11.9-17.5-8.3-30.2 4.2-12.4 15.4-18 23.9-20.6 18.3-6.1 36.3-6.7 54.3-6z"/></svg>