<svg xmlns="http://www.w3.org/2000/svg" viewBox="0 0 392 560"><!--! Font Awesome Pro 7.2.0 by @fontawesome - https://fontawesome.com License - https://fontawesome.com/license (Commercial License) Copyright 2026 Fonticons, Inc. --><path fill="currentColor" d="M49.6 5.5c8.6-1.7 16.5 1.7 22.1 5.2 1 .6 1.8 1.4 2.1 2.3 .1 .3-.2 .5-.2 .7 6.9 4.5 12.3 9.1 18.7 13.7l25.5 19.5c33.7 26.2 66.8 53.1 99.5 80.7 32.6 27.6 64.8 55.6 96 84.9 15.6 14.7 31 29.6 45.4 46 3.6 4.1 7.1 8.4 10.4 13.1 1.7 2.8 3.1 4.1 5 8.7l.7 1.7c1.2 4.2-.3 8.2-2.4 11.6l-23.9 23.4c-61.3 59.5-125.3 116.3-192.7 169-16.9 13.2-34 26-51.4 38.5L78.1 543.1c-7.2 5-21.1 15.9-36.7 9.1-14.1-7.9-16.7-21-19.8-31.6-2.8-11.2-3.5-22.3-3.7-33.4-.1-11.1 .7-22.1 2.3-33.2 1.1-5.5 1.9-11 3.9-16.7 1.8-5.5 3.6-11.6 10.9-17.8l-.5 .3c49.5-38.1 98.7-77.1 145.2-118.5l17.1-15.8 4-3.9 .1-.1c0 0-.1-.1-.2-.2l-2.6-3.3c-9.5-11.2-21-22-32.3-32.5-22.9-21-46.7-41.2-71-60.9-5.9-4.7-11.1-9.3-15.5-13.3L65.6 160.6c-.3-.3-.4-.8-.2-1.5s.6-1.4 1.1-2.1l5.2-6.2c1.3-1.5 2.8-2.2 3.6-1.6l48.5 38c.6 .5 .7 1.4 .6 2.5 20.4 17.1 40.6 34.4 60.1 52.8 5.5 5.2 10.9 10.5 16.3 16.1 2.7 2.8 5.3 5.6 7.8 8.6l3.8 4.8c1.5 2.2 3.6 5.3 4.4 8.4 1 3.2-.5 6.2-2.3 8.7l-5.6 5.4-8.3 7.8-16.8 15.3c-45.4 40-92.6 77.3-140.4 114.1l-.4 .3c-1 1.2-3.8 5.3-4.9 10.1-1.6 4.5-2.4 9.6-3.4 14.6-1.5 10.2-2.2 20.5-2.1 30.9 .3 10.3 .9 20.7 3.4 30.3 2.2 9.3 6.6 19.2 12.3 21.2 5.4 2.1 13.2-2.1 22.3-8.8l26.2-18.5c17.3-12.5 34.4-25.4 51.3-38.5 67.4-52.7 131.4-109.7 192.8-169.4l19-18.8c.9 1.5-2.5-4.8-5.4-8.2-3.1-4-6.5-7.9-10-11.8-14.1-15.6-29.5-30.4-45.1-45-31.2-29.2-63.6-57.3-96.3-84.8-32.8-27.6-66.1-54.5-100-80.7L77.7 34.9c-8.7-6.3-17.4-13.9-23.2-13.9-5.2-1.2-10.7 5.7-13.8 15-3 9.1-4.8 19.1-5.4 29.3-.6 8.2-.6 16.2-.3 23.9 .9 12.1 3.1 23.8 7.6 33 .6 1.7 .8 1.7 .5 3.5l-.1 .7c-.1 .6-.6 1.1-.9 1.7 0 .3-.1 .5-.3 .5-.2 .2-.2 .5-.4 .7-1.8 1.2-4 2-6.5 2.6-1.9 .5-4.7-1-5.5-3.1-11-24.6-10.6-48.4-8.9-72.9 1.6-12.1 3.6-24.5 10.6-36.6 2.1-3 3.6-6.1 7.2-8.6 1.6-1.3 3.2-2.5 4.9-3.6 2-.7 4.2-1.3 6.3-1.8z"/></svg>