<svg xmlns="http://www.w3.org/2000/svg" viewBox="0 0 392 560"><!--! Font Awesome Pro 7.2.0 by @fontawesome - https://fontawesome.com License - https://fontawesome.com/license (Commercial License) Copyright 2026 Fonticons, Inc. --><path fill="currentColor" d="M340 5.2c4.3-.9 9.5 1.7 13.6 3.4 3.2 2.8 7.3 5.8 8.9 9.2 8.4 13.5 10.2 27.3 11.8 40.7 1.2 13.5 .7 26.9-.8 40.4-.8 6.7-2 13.4-3.7 20.2-.9 2.6-1.4 5.1-2.5 7.7l-1.3 2.7c-1 1.8-1.6 3.5-2.8 5.4-1.7 2-3.6 4-5.5 5.8l.5-.3c-40.1 30.8-79.9 62.3-118.4 95-5.1 4.3-10 8.4-15 12.6l-36.2 33.9c-.8 .7-1.9 1-3.3 .7l-.7-.1c-.9-.2-1.9-1-2.5-1.9l-3.4-5.8c-.9-1.5-.9-3-.1-3.7l57-53.5c.4-.4 1-.4 1.7-.2 .2 .1 .4 .3 .5 .4 36.5-30.7 73.7-60.3 111.5-89.2l.2-.1 .2-.2c1.7-1.1 4.6-8 6-13.3 1.5-5.9 2.6-12 3.3-18.3 1.4-12.5 1.6-25.3 .6-37.8-1.3-12.2-3.9-25.2-9.8-33.7-5.8-8.7-13.9-5.2-24.9 2.1-43 29.3-84.3 61.2-124.5 94.5-40.2 33.2-79.2 68-117.2 103.7l-28.3 27-14 13.7-7 6.9-1.6 1.6c-.1 .1-.1 .3-.1 .5-.5-.9 1.6 3.1 3.1 5.1 1.7 2.4 3.6 4.9 5.6 7.3 4 4.8 8.3 9.6 12.7 14.3 8.8 9.4 18.1 18.5 27.5 27.5 75.8 71.4 156.7 138.1 240 200.8 11 8.4 18.7 12 24.4 5.9 6.3-7 9.6-19.9 11.1-31.9 1.5-12.3 1.6-24.9 .5-37.4-.6-6.2-1.6-12.3-2.9-18.2-1.4-5.2-3.8-12-5.8-13.4-41.3-30.4-82.9-64.1-122-99-5.6-5-10.6-10-14.7-14.3l-9.3-8c-.4-.3-.4-.9-.2-1.5s.7-1.4 1.3-2l5.9-5.5c1.4-1.4 3.2-1.9 4-1.2l51.6 44.4c.5 .4 .5 1.2 .5 2 13.8 11.7 27.5 23.5 41.6 34.8l30.5 23.7 15.5 11.4c1.3 1 2.5 1.7 4 3 1.7 1.7 3.3 3.5 4.8 5.3 1.8 3.5 3.9 7 4.8 10.4 7.9 27 7.7 53.6 2.2 80.6-1.6 6.7-3.8 13.5-7.5 20-3.9 6.2-9.9 13.8-19.9 14.7-4.5 .9-8.7-.9-12.9-1.6l-10-5.6-15.7-11.6c-82.5-62.9-162.3-128.8-237.6-200.5-9.3-9.1-18.5-18.3-27.4-28.1-4.4-4.9-8.8-9.9-12.9-15.4-2.1-2.8-4.1-5.7-5.9-9.3-3.5-5.7-2-11.9 1.6-16.4 19.8-19.5 37.4-36.6 56.7-54.6 37.8-35.5 76.6-69.9 116.6-102.9 40.1-32.9 81.2-64.6 124.3-93.9 2.4-1.8 6.1-3.7 9.6-5.5 3.2-2.1 7.6-2.9 12.3-3.2z"/></svg>