<svg xmlns="http://www.w3.org/2000/svg" viewBox="0 0 560 560"><!--! Font Awesome Pro 7.2.0 by @fontawesome - https://fontawesome.com License - https://fontawesome.com/license (Commercial License) Copyright 2026 Fonticons, Inc. --><path fill="currentColor" d="M277.4 103.1c4.9-3.3 12-3 16.8 .4l28.8 29.4 27.3 28.7c18.1 19.2 35.8 38.8 53.3 58.6 34.9 39.6 68.6 80.4 100.4 122.6 15.9 21.4 31.4 41.8 46.2 65.3 1.6 3.8 4.3 6.5 4.5 11.6l.7 6.9c-.3 2.3-1.2 4.8-1.9 7.2-1.2 5.1-5.3 7.6-8.1 11.2-3.4 2-6.9 4.6-10.3 6-14 5.9-27.8 7.5-41.5 8.1-3.2 .1-6.4 0-9.6 0-7.5 0-15-.3-22.5-1.1-12.5-2-24.3-2.8-37.8-11.7-1.1-.7-1.9-2.5-1.8-4.2l.1-.8c0-.7 .8-1.1 1.4-1.5 .1-.1 0-.2 .2-.2 .2-.1 .3-.5 .5-.5 2.3-.7 4.3-1.7 6.2-2.9 1.3-1 2.5-1.5 3-1.1 7.4 4.7 19.9 7.1 30.9 8.3 11.3 1.2 22.9 1.4 34.2 .4 .2 0 .3 .3 .5 .4 .6 0 1.1-.1 1.6-.1 12.3-1.2 25.2-3.6 34.1-9.4 9.9-5.6 6.2-14.1-.7-24.8-21.9-32.2-67.4-96-145.2-183.9-17.3-19.5-34.9-38.7-52.8-57.8l-27-28.3-13.7-13.9c-4.2-4.1-10.8-11.3-9.8-9.7-.5 .1 .2-.1-.9 .4l-3.6 2.2c-2.4 1.8-4.9 3.5-7.3 5.6-4.9 3.9-9.7 8.3-14.4 12.6-9.4 8.8-18.5 18-27.5 27.4-18 18.7-35.5 38.1-52.7 57.7-34.4 39.2-67.9 79.3-100.4 120.1-16.2 20.4-32.2 41-47.8 61.9-4.3 5.4-7.2 10.3-9.3 14.5-.7 4.3-1.5 7.6 2 10.6 6 6.7 19.3 10.1 31.1 11.7 12.3 1.7 25 1.9 37.4 .9 6.2-.6 12.3-1.4 18.2-2.8 5.6-1.3 12-3.5 14.4-5.8 .9 0 3.4-4 5.2-6.4l5.9-8 11.9-15.8 24.5-30.9c16.6-20.4 33.5-40.5 51-60.1 8.8-9.8 17.7-19.5 27-29 4.7-4.7 9.4-9.4 14.6-13.9 2.7-2.4 4.9-4.3 8.8-6.9 2.7-1.7 5.5-3.2 8.5-3.6 1.5 0 2.9 .2 4.2 .9 1.5-.3 2.6 1.2 3.9 1.7l26.1 27 23.8 25.8c15.7 17.4 30.9 35.3 45.6 53.6 5.9 7.4 11.2 14.9 14.7 20.5 .2 .2 .2 .3 .3 .5 4.8 6.1 10 12 14.8 18.2 .7 1 1.2 2.1 1.2 3.2s-.4 1.9-1.2 2.3l-7 4c-1.7 1-4.4 .1-6.1-2.2-36.5-47.3-75.7-92.7-117.5-135.2-1.2-1.2-1.9-2.8-2.5-4.3-.3-.2-.8 0-1.1 .2-1.7 1.3-4.5 3.5-6.8 5.5-4.7 4.2-9.4 8.7-13.9 13.3-9.1 9.2-18 18.9-26.7 28.6-17.4 19.5-34.3 39.6-50.8 60l-24.4 30.8-11.8 15.6-5.8 7.9-2.9 4c-1.2 1.5-3.3 3.4-5.1 4.9-14.4 9-27.8 9.5-41.5 11.2-13.7 1-27.3 .6-41-1.5-13.3-2.7-28.3-4.7-39.9-18.6-3.2-3.1-3.8-8.5-4.8-13 .6-4.2 1-9.2 2.9-12.6 3.7-7.4 7.8-12.8 11.7-17.9 15.8-21.2 32-42 48.5-62.6 32.9-41.2 66.7-81.7 101.6-121.3 17.5-19.8 35.2-39.4 53.6-58.4 9.2-9.5 18.6-18.9 28.5-27.9 4.9-4.5 10.1-9 15.6-13.2 2.8-2.1 5.8-4.2 9.2-6.1z"/></svg>