<svg xmlns="http://www.w3.org/2000/svg" viewBox="0 0 504 560"><!--! Font Awesome Pro 7.2.0 by @fontawesome - https://fontawesome.com License - https://fontawesome.com/license (Commercial License) Copyright 2026 Fonticons, Inc. --><path fill="currentColor" d="M454.5 400.7c7-.1 13.9 .5 20.9 1.7 7.1 1.8 13.7 1.9 22.1 9.1 2.5 2.2 3.8 5 4.6 8.1 .9 3.8 .4 3.9 .7 6l.6 9.7 1.1 19.5 0 0 1.6 39.1c.5 17.2 0 34-2 47.4l-1.2 6.7c0 .1 0 .1 0 .1-.1 3.4 0 6.8-.1 10.2-.1 2.1-.8 3.5-2.2 5.6l-.8 1.1c-1.2 1.5-2.4 1.3-3.2 .2-1.7-2.3-3.8-3.1-5.9-4.3-1.6-.9-2.6-2.5-2.5-4.3 1-43.6 .5-88.3-1.6-131.8-.1-.9 .2-1.7 .8-2.4 .1-.1 .3-.1 .4-.2-.4-.9-1.3-.8-4.6-2.7-10.4-3.8-23.7-4.9-35.4-3.8-5.5 .2-12.6 2.8-13 3.8-.2 .2-.2 .5-.2 .8 0 2.3 .1 7.2 .2 14.5 0 13.1 .9 25.7 0 39.9-.6 3.6-.3 7.4-4 12.8-1.8 2.8-5.8 4.6-8.5 4.9-3.2 .4-4.1 .2-5.9 .2-3.3 0-35.9 .1-97.8 .3l-156.5 .8c-26.2 0-52 .5-78.8-.8-3.4-.3-6.8-.5-10.7-1.3-1.6-.1-4.3-1.1-6.6-2.1-3.3-1.4-6.4-6.1-6.4-9.4-.3-8.1-.1-13.5-.2-20.4-.1-12.9 .5-26.6-.7-38-.2-1.4-.4-2.4-.7-3.3l0-.1-5.5 0c-13.8 0-25.4 .1-34.7 .1-.1 .1-.2 .2-.2 .4L17 421c-.5 2.9-.8 6.1-1.1 9.2-2.1 25.3-2.2 51.5-1.5 77.2 .5 12.8 1 26 2.8 38l.4 2.3 .2 .3 4.9 0 19.6 0 78.3-.1 313.1-.4c4.6 0 9.1 .1 13.2 .3l10.7-.2c1.8 0 3.5 .6 4.9 1.7l.7 .5c.1 .1 0 .3 .1 .4 .3 .2 1 .4 .8 .7l-.5 .6c.1 .5 .5 .9 .4 1.4l-2.7 6.6c-.7 1.7-2.3 2.8-4.2 2.8l-130.2 3.1c-.9 0-1.7-.3-2.3-.9-.5-.5-.7-1.2-.7-1.9-379.1 .5-276 .4-309.7 .4-3-.1-5.2-1.4-7.3-3.3-1.8-2-2.7-5-3.4-7.9-.6-2.6-.8-3.8-1-5.7L1.1 535.9c-1.2-13.2-1.6-26.3-1.8-39.4-.1-26.3-.4-51.9 3.4-79.1 .7-4.4 2.9-11.9 8.4-13.1 2-1 6.8-.4 8-.6l39.1 0c2.6 .1 6.2 .7 9.2 3.3 5.4 5.4 5.2 10 6 13.6 .4 3.7 .6 7.1 .7 10.4l.1 39.1 .1 7c.4 .1 .9 .2 1.6 .3 5.2 .9 11.9 1.1 18.2 1.4 25.6 .7 51.7 .4 77.5 .3l155.7-.8 77.9-.2 14.2 0c.2-.7 .4-1.9 .6-3.1 .3-2.7 .5-5.7 .5-8.9l-.5-38.7c.5-3.7-1.2-5 1.1-12.5 2.3-6.1 8.2-9.7 11.7-10.6 7.8-2.8 14.8-3.3 21.9-3.5zM289.7-12.3c3.9 0 7.7 .5 10.9 1.4 2.1-.1 4.6-.2 8.7 1.1 5.8 1.3 8.9 9.6 9.2 12.4 5.6 29.1 4 55.7 4.4 83.2l-.5 81.6c.1 13.5 .3 27.1 1.1 40.4 .4 6.7 1 13.3 2 19.6 .6 3.1 1.2 6.1 2.1 8.7 .8 2 .5 1.3 1.2 1.6 14.6-.2 33.8-1.6 51.1-1.4 9.1 .4 17.7 .2 28.3 3.8 6.6 2 13.6 10.1 10 18-.9 3.6-3.3 6-4.8 8.6l-4.3 5.1c-23.1 26.5-47.7 51.3-72.7 75.6-12.6 12.1-25.3 24.1-38.4 35.7-13.5 11.6-25.6 23-42.5 33.2-3.6 2-7.6 2.9-11.5 1.9-1.8-.8-3.5-1.8-5-3.3l-2.8-2.4-10.1-8.4-19.9-17c-13.1-11.5-26.1-23.3-38.8-35.3-25.3-24.2-49.7-49.4-71.8-76.9-2.8-3.6-5.4-6.7-8.2-10.9-2.9-3.3-7.7-14.2-2.1-20.6 1.4-1.4 3.1-2.7 4.6-3.9l5.3-2.1c2.9-.8 5.4-1.2 7.8-1.4 4.8-.5 9.4-.6 13.8-.6l52.1 1.3 5.7 0c.4-.1 .8-.2 1-.5 .3-.3 .5-.6 .5-1l0-5.5 0-26.1-.2-52.1-.6-104.3c0-9 .3-17.7 .8-25.9 0-1.6 0-3.1 0-4.6 .1-3.5 .2-7 .5-10.8 .2-2.5 1-11 5.3-15 4.6-4.6 12.8-2.2 14.8-2.7l10.3-.1 82.5-.4zM192 3.3l-.2 1.4-.4 4.8-.4 10 0 41.2 1.3 165.9c0 2.2-.3 4.4-1 5.9-.1 .3-.3 .4-.4 .6l0 1.4c.2 7.1-5.1 14.5-12.4 16.1-4.2 .9-6 .4-8.2 .5l-6.6-.1c-17.3-.2-34.8-1.4-51.4-1.2-4.1 .1-8.3 .3-11.6 1l0-.1c-3.2 .6-2.8 .8-3 1.5-.2 .1 1 2.4 4 6.1l7.8 10c21.5 26.3 45.5 50.9 70.3 74.5 12.4 11.8 25.2 23.2 38.1 34.5l19.6 16.7 9.9 8.2c.6 .4 .5 .5 .8 .5 .3-.1 0 .1 2.1-1.2 26.8-18.4 52.2-43.2 76.9-66.5 24.6-23.9 48.8-48.4 71.1-74.1 7.2-8.9 5.7-6.3 3.9-7.7-6.3-1.9-15-2.4-23.2-2.6-17.4-.2-32.6 1.1-52.8 1.4-3-1.1-6.5-1.5-8.6-4.3-2.6-2-3.7-6.1-4.4-7.7-1.3-4.1-2.1-7.9-2.7-11.6-1.2-7.4-1.7-14.7-2.1-21.9-.8-14.4-.9-28.6-1-42.8l.5-84.9c0-14.1-.1-28.2-.7-42.1-.3-6.9-.7-13.9-1.5-20.5-.4-5.9-3.2-15.2-2.5-12.6l-81 .1c-7.9 0-15.4-.4-20.8-1-.6-.1-.8-.1-1.3-.2l-5.7 0c-2.8-.1-2-.2-2.5 .4z"/></svg>