<svg xmlns="http://www.w3.org/2000/svg" viewBox="0 0 448 560"><!--! Font Awesome Pro 7.2.0 by @fontawesome - https://fontawesome.com License - https://fontawesome.com/license (Commercial License) Copyright 2026 Fonticons, Inc. --><path fill="currentColor" d="M224.3-7c4.1-1.8 8.2-.6 11.8 1 57 46.8 108.2 93.3 157.1 145.9 12.1 13.1 23.9 26.5 35.1 40.4 5.7 7.2 11 13.4 16.6 22l.1-.1c2.5 3.6 6.6 11.3 2.8 19.6-1.8 4.1-5.6 5.8-8.4 7.8-2.6 .9-5.6 2.2-8 2.4-19.7 3.2-36.9 1.4-54.8 1.1l-26.4-.8-13.2-.2c-3.9 0-10.1-.3-10.7 .2-1.7 .6-3.1 2-3.5 3.8-.1 .4-.1 .9-.2 1.4l0 10c0 13.2 .1 39.8 .2 79.5l.5 106.1c.1 35.5 .9 70.5-.4 106.5-.4 4.8-.3 8.7-1.5 14.6l-.9 4.3-3 5.6c-2.6 3.2-6.7 5.2-11 4.7l-27.1-.1-53 .1c-10.4 0-20.4-.4-27.6-1s-10.7-1.5-9.8-2.3l8.1-8c2-2 22.1-3.6 46.4-3.6l52 0 6.5 0 3.3 .2c.2 0 .4 0 .5 0 .4 0 .6-.4 .7-.7l.8-4c.8-8 1.1-16.6 1.3-25.2 .5-34.4 0-69.1-.1-103.8l-.5-104c-.1-39-.1-65-.2-78-.4-5.6 2.5-13.2 7.9-17 5.2-4.5 13.5-4.3 16.7-4.2 17.5 0 34.9 .8 52.2 1.4 16.6 .3 35.8 1.7 48.4-2.4 1.9-1.1 1.8-.8 1.5-2.1-.5-2-2.7-5.2-5.1-8.5-7.6-10.2-23.7-30.4-50-58.8-46.5-49.9-99.5-97.6-150.5-139.6-.1-.2-.5-.1-.5-.1-.2 0-2.9 1.5-4.3 2.3-3.5 2.2-7.1 4.6-10.6 7.2-7.1 5.2-14 10.9-20.9 16.6-13.7 11.5-27.1 23.5-40.4 35.7-26.5 24.4-52.3 49.6-77.5 75.4-12.6 12.9-25 26-37 39.3-10.2 12-30.4 31.9-20.4 29.8 13.1 5 32.8 4.5 50.1 4.3l55.2-1.8c2.5 1 5.3 1.4 7.4 2.8 1.7 1.9 4.3 3.9 5.1 5.7 1.8 3.5 3 6.7 3.7 9.7 1.7 6.1 2.5 11.8 3.2 17.6 1.4 11.4 2.1 22.8 2.5 34 .9 22.5 .9 44.9 .8 67.3-.1 44.7-1.3 89.4-.5 133.7 .1 6.6 .3 13.1 .4 19.4 .3 5.3 .4 10.7 .9 15.9 1.1 10.6 2.4 23.2 5.7 30.2 .2 .7 .3 1 0 1-.2 .2-.4 .5-.6 .8l-.1 0-.5 .1c-.2 .1-.4 .2-.6 .3-.3 .3-.4 .8-.5 1.2 0 0 0 .1 0 .1-.2 .5-.1 .8-.1 1 0 .3 0 .6 0 .8-.1 1.9-2.9 4-5.2 4.4-1.9 .6-5.1-1.4-5.9-3.6-5.4-13.1-5.6-24.2-7-36-1-11.6-1.6-23.2-2-34.7-.8-23-.9-46-1.1-68.9 0-.9 .4-1.8 1-2.5 .2-.2 .5-.2 .7-.3 .2-22.5 .5-44.9 .5-67.3 0-21.5 0-43.1-.9-64.5-.4-10.7-1.2-21.3-2.5-31.7-.6-5.1-1.5-10.3-2.8-14.9-.6-2.4-1.5-4.4-2.2-6-.4-.8-.6-.8-1.1-.9l-53.4 1.8c-18.5-.2-36.2 1.7-56.8-5.8-4.8-1-12.9-9.9-10.4-17.4l1.3-5.3 2.3-3.6c1.6-2.5 3.2-4.6 4.6-6.2l18-20.6c12.2-13.5 24.7-26.7 37.4-39.7 25.4-26 51.4-51.3 78.1-76 13.4-12.3 26.9-24.4 40.9-36.2 7-5.9 14.1-11.6 21.6-17.1 3.7-2.8 7.6-5.5 11.8-8 2.5-1.3 3.7-2.3 7.7-3.8zM150.8 555.3l0 0-.3 .4 0-.1 .2-.4 .1 0zm0-.1l.4-.6 .4-.4-.8 1z"/></svg>