<svg xmlns="http://www.w3.org/2000/svg" viewBox="0 0 616 560"><!--! Font Awesome Pro 7.2.0 by @fontawesome - https://fontawesome.com License - https://fontawesome.com/license (Commercial License) Copyright 2026 Fonticons, Inc. --><path fill="currentColor" d="M188.4 17.5c8.8 .1 17.3 .5 23.3 1.2 6 .7 9 1.5 8.3 2.4l-6.9 8c-1.7 2-18.8 3.4-39.3 3.2l-81.1-.4c-13.4 .1-27 .3-39.5 2-6.1 .8-12.2 2.7-13.4 5.1-1.9 2.1-1.8 9.2-2 16L35.2 217.1c-.6 54.1-.7 108.2 .8 162.1 .8 26.9 2 53.9 4.2 80.6 2.7 26.3 5 54.1 14.2 77.1 2.1 5.5 6 10.6 8 10.5 .2 0 .4 .1 .7 .2l17.7 0c169.2-.2 378.9-.5 446.6-.6l20.3 0c6.9-.1 13.6 .3 18-1 8.1-1.3 11.2-13.8 12.9-26.6 3-25.7 2.4-53.1 2.5-80 0-4.5 0-9 0-13.4-.2-14.2-.3-28.4-.5-42.7 0-2.5 .5-5 1.6-6.9l.5-.9c.5-.9 1.3-1.2 2.1-1.2 .1 0 .1-.1 .2 0 .3 0 .5-.1 .8 .1l6.7 3.8c1.7 1 2.8 3.4 2.9 6l0 .1c.5 30.6 1.3 61.3 1.1 92.1-.1 15.4-.4 30.9-2.4 46.8-1.3 8-2.3 16.2-7.1 24.9-2.4 4.3-6.3 8.4-11.2 11.1-4.8 2.4-9.8 3.4-14.2 3.7-1.4 .1-2.8-.2-3.8-.8-.3-.1-.2-.4-.4-.6l-38.3 .2c-578.3 .7-360.5 .4-449 .5-3.8-.2-5.6 .6-12.4-1-5.5-1.8-8.9-5.6-11.5-8.9-4.9-6.9-7-13.9-9.4-20.8-7.8-27.5-10-54.9-12.3-82.2-2.1-27.4-3-54.6-3.7-81.9-1.2-54.6-1-109.1-.4-163.5 .9-55 1-107.6 3.4-164.6 .5-4.2 3.1-10 7.4-13.4 4.2-3.5 8.6-4.8 12.3-5.8 7.8-2 14.7-2.3 21.8-2.8 13.9-.7 27.6-.8 41.3-.8l81.7 .6zM338.5-.6c46-2.2 91.9-2 137.9-.4 23 .9 45.9 2.1 69.1 5 5.9 .8 11.6 1.6 17.7 3.1 2.1 .8 8.8 2 11.6 6.3 1.2 2.3 2.6 4.3 2.4 7.2l.4 4.6 2.9 34.3c3.4 45.8 4.9 91.9 3.3 138-.9 23.1-2.4 46.1-5.7 69.2-1 3.5-.6 6.2-3.5 10.9-1.6 4.6-7.2 8.1-12.3 8.3-11.5-1.2-15.3-6.4-20.2-10-9.3-8-16.9-16.6-24.8-24.9l-23.4-24.8-6-6c-2.5-2.6-1.9-1.8-3.2-2.4-2-.3-2.4 0-7.5 5.3l-48.4 48.7-96.6 97.6-24.5 24.3c-4.2 4-8.3 8-13 12l-3.6 3c-1.8 1.3-3.7 2.5-5.6 3.6-4.4 2.1-10.7 3-14.7-1.1l-49.9-49.8c-6.3-6.3-12.1-12.6-16-17.4s-5.4-7.5-4.3-7.6l10.6-.8c2.7-.2 15.9 10.9 30.6 25.6l24 24 11.8 11.9c2.3 2.7 1.2 1.9 5-.5 16.3-13.9 32.2-30.8 48-46.5l95.3-96.3 35.8-36 6-6 3-3c1.4-1.4 3.4-2.9 5.5-3.9 4.1-1.9 9.1-2.2 13.5-.8 4.6 1.4 8 5.2 9.5 6.8l11.9 12.3 23.2 24.7c7.6 8 15.6 16.4 23.4 21.8 4.4 2.4 3.3 2 4.3 .9 .8-1.6 1.9-8.2 2.5-13.6 2.7-22.1 4-44.4 4.7-66.8 1.2-44.8-.4-89.8-4-134.6l-2.8-32.6c0-.3-.2-.4-.4-.5-1.5-.5-4.4-1.2-6.9-1.7-5.2-1.1-10.7-1.7-16.2-2.4-22-2.4-44.5-3.6-67-4.4-44.9-1.5-90-1.6-134.7 .6l-16.7 1.1c-5.8 .3-10.7 1.5-9.7 1.4-.5-.8 .4 2.4 3.2 6.9 2.9 4.1 6.2 8.2 9.9 12.2 15.1 16.4 31.3 29.8 49.3 47.3 1.5 1.8 1.7 4.2 3.1 6.1 .1 2.3 .2 4.6 0 6.8-1.3 4.3-2.4 6.5-3.8 8.9-2.7 4.8-5.7 8.9-8.8 12.9-6.1 7.8-12.6 15.2-19.1 22.3-13.1 14.3-26.8 27.8-40.4 41.4-27.2 27-55 53.5-81.3 80.8-4.2 4.4-8.4 8.7-12.5 13-2.7 3-5.5 6.1-8.1 9.2-5.7 7-12.6 15.6-14.6 21.3-.3 .6-.4 .6-.5 .3 0 0-.9 0-1.7 0l.7-.1 0-.1-.1-.1-.4-.4c-.2-.1-.5-.2-.7-.3 0 0-.1 .1-.1 .1-.5 .8-.8 1-1.2 .5-.5 .1-.7 .3-.8 .5-.2 .2-.4 .4-.6 .5-1.4 1.4-4.7 1-6.6-.2-1.7-.8-2.6-4.3-1.7-6.1 2.4-5.8 5.3-10.4 8.3-14.5l9.3-11.8c6.4-7.7 13.1-15.1 19.8-22.3 13.5-14.5 27.2-28.5 41-42.5 .5-.6 1.4-.9 2.2-.8 .3 0 .4 .3 .7 .3 13.8-13.5 27.6-27 41.2-40.6 13.1-13 26.1-26.1 38.5-39.6 6.2-6.7 12.2-13.6 17.6-20.7 5.2-6.2 11.1-17 8.9-15.8-14.8-14.4-33.5-30.1-49.1-47.2-4-4.4-7.8-9-11.3-14.5-1.8-2.7-3.3-5.8-4.5-9.9-1-4.2-.5-10.5 3.3-14.1 2.2-1.3 4.4-2.9 6.5-4l5.4-1.1c3.7-.7 6-.6 9.1-1L338.5-.6zM184 306.4c.1 0 .3-.1 .3-.1l.7-.1c.2 0 .5-.1 .8-.1l-1.8 .3z"/></svg>