<svg xmlns="http://www.w3.org/2000/svg" viewBox="0 0 448 560"><!--! Font Awesome Pro 7.2.0 by @fontawesome - https://fontawesome.com License - https://fontawesome.com/license (Commercial License) Copyright 2026 Fonticons, Inc. --><path fill="currentColor" d="M222-8.6c10.4 0 20.4 .3 27.6 1s10.7 1.5 9.8 2.3l-8.1 8c-2 2-22.1 3.6-46.4 3.6l-39.6 .1-19.9-.1c-5.3-.3-2.8-.9-4.5 5.6-2 25.1-1.1 52.1-1.3 78.3l.8 158.2c.1 29.7 .1 49.5 .1 59.3l0 9.9 0 4.9c0 2.4-.4 5-1.3 7.4-1.8 4.8-5.4 8.8-10 11-4.8 2.5-10.2 2-12.8 2l-19.9-.3-39.6-1.3c-12.9-.3-26.4-.8-37.6 1.4-6.2 2.1-6.1 1.4-5.1 4 1.3 3.4 5.6 9 9.6 14.1 16 20.5 33.5 40.1 51.4 59.2 36 38 74.6 73.9 114.5 108l29.7 24.9c.5 .2-.1 .4 1.4-.2 2.4-1.2 5-2.8 7.6-4.6 5.2-3.5 10.3-7.4 15.4-11.4 20.3-16.2 39.8-33.9 59.1-51.7 38.3-35.9 75.7-73 110.9-111.8l12.9-14.7c4.5-5.1 7.7-10 6.8-10.1 1.3-.1-4.2-2.7-9.7-3.9-5.9-1-12.1-1.7-18.5-1.9-26-1-51 1.3-79.5 1.6-2.5-1-5.3-1.4-7.4-2.8-1.7-1.9-4.3-3.9-5.1-5.7-1.8-3.5-2.9-6.7-3.7-9.7-1.7-6.1-2.5-11.8-3.3-17.6-1.4-11.4-2.1-22.8-2.5-34-.9-22.5-.9-44.9-.8-67.3 .1-44.7 1.3-89.3 .5-133.7-.1-6.6-.3-13.1-.4-19.5-.3-5.3-.4-10.7-.9-15.9-1.1-10.6-2.3-23.3-5.7-30.2-.2-.7-.3-1-.1-1 .2-.2 .4-.5 .7-.8l0 0 .5 0c.2-.1 .4-.2 .6-.4 .3-.3 .4-.8 .4-1.2 0 0 0-.1 0-.1 .2-.5 .2-.8 .2-1 0-.3 0-.6 0-.8 .1-1.9 2.9-4.1 5.2-4.4 1.9-.6 5.1 1.4 5.9 3.6 5.4 13.1 5.6 24.2 7 36 1 11.6 1.6 23.2 2 34.7 .8 23 1 46 1.1 69 0 .9-.4 1.8-1 2.4-.2 .2-.5 .2-.7 .3-.2 22.5-.5 44.9-.5 67.3 0 21.5 0 43.1 .9 64.4 .4 10.7 1.2 21.3 2.5 31.7 .6 5.1 1.5 10.3 2.8 14.9 .6 2.4 1.5 4.4 2.2 5.9 .4 .8 .6 .9 1.1 .9 24.9-.3 52.7-2.8 79.8-1.6 6.9 .4 13.8 .9 21.1 2.5 3.6 .9 7.3 1.8 11.3 4.1l-.1 .1c3.8 2.2 8.8 7.1 9 13.5l-1.9 7.9c-1 1.9-2.2 3.6-3.3 5.3-2.4 3.7-4.4 5.5-6.7 8.3l-13.3 15.2c-36.2 39.8-74.2 77.5-113.5 114.1-19.7 18.2-39.6 36.2-61.1 52.9-5.4 4.2-10.9 8.3-17.1 12l-5.1 2.7c-2.4 1.3-5.9 2-8.7 1.8-2.9-.7-5.8-1.6-7.9-3.9L206 561 175.2 535c-40.7-35-79.9-71.8-116.6-111.1-18.3-19.8-36-40-52.4-61.8-2-3.4-4.5-5.8-6-10.9-2.2-3.7-1.4-12.7 3.1-16.7 9.7-7.7 16.8-6.7 23.9-7.7 14.2-1 27.5-.3 40.9 .1L108 328c16.6-.4 18.3 2.6 17.7-12.3l-.2-80.2-.8-160.4 .2-40.2c.1-6.8 .3-13.5 .9-20.6l.4-5.3 1.4-6.6c.7-2.1 2.4-5.8 4.4-7.9 2.3-2.2 5.4-3.3 8.6-3.3L222-8.6zm76 13l-.2 .4-.1 0-.5 .7c-.1 .2-.2 .3-.4 .4l1.1-1.5 0 .1z"/></svg>