<svg xmlns="http://www.w3.org/2000/svg" viewBox="0 0 616 560"><!--! Font Awesome Pro 7.2.0 by @fontawesome - https://fontawesome.com License - https://fontawesome.com/license (Commercial License) Copyright 2026 Fonticons, Inc. --><path fill="currentColor" d="M170 92c2.5 0 5.1 .6 7.3 1.9l27.6 23.2 25.6 22.9c16.8 15.6 33.2 31.6 48.8 48.5 7.8 8.4 15.4 17.1 22.7 26.1l5.4 6.8 0-.1c1.8 2.4 3.3 4 5.9 8.8 2.3 4 3.5 10 .7 14.3-2.4 4.1-8.7 6.9-12.3 7.4-14.1 2.2-24.5 .9-36.2 .7l-17-.5-8.4-.1c-2.7 0-6.4-.1-5.6 0-.2 .1-.4 .3-.4 .5l0 7.1c.1 31.2 .3 71 .5 119.3 0 22.8 .6 45.3-.2 68.7l-.3 4.8c-.1 1.6-.2 3-1.1 6.1-.6 5.6-4.7 10-9.8 10.5-10.7 0-28.6 0-53.8 .1-6.7 0-13.2-.3-17.7-1-4.6-.6-6.9-1.5-6.3-2.3l5.2-8.1c1.3-2 14.3-3.5 29.9-3.5l33.4 0 4.8 0c.5-.1 .5-.7 .6-1.1 .5-4.3 .7-10.1 .7-15.5l-.1-66.7-.4-66.8c-.1-25.1-.1-41.8-.1-50.1-.4-3.3 1.4-9.9 5.4-12.9 3.4-3.6 10.8-4.1 12.5-3.8 11.3 0 22.6 .5 33.6 .9l16.4 .3c4.9 0 11.7-.8 12.2-1.1 .5-.6 1.1-.2-1-3-3.2-4.3-6.6-8.6-10.1-12.9-7-8.4-14.3-16.7-21.8-24.8-15.1-16.1-30.8-31.6-47.1-46.6l-24.7-22.1-24-20.2c-.2-.2-.4-.1-.7 .1-2.1 1.2-4.3 2.8-6.6 4.4-4.5 3.3-8.9 6.8-13.3 10.5-8.8 7.3-17.4 15.1-25.9 22.9-17 15.7-33.6 31.9-49.8 48.5-8.1 8.3-16.1 16.7-23.8 25.2L39.2 232.1c-2.5 3-2.1 2.5-2.2 2.8 0 .1 .1 .2 .2 .3-.4-.2 2 .7 4.3 1 2.4 .4 5.1 .6 7.8 .8 5.5 .3 11.1 .4 16.8 .2l36.5-1.2c3.4 .3 6.4 2.1 8.8 4.5 2.1 2.4 3.8 6.6 4.1 8.2 1.3 4.3 1.8 8.1 2.4 11.9 1 7.6 1.5 15 1.8 22.3 .6 14.7 .6 29.2 .6 43.7-.1 29-.8 57.9-.2 86.5 .3 13.3 .2 26.4 .9 35.9 0 1.6 .3 2.8 .5 4.3 .5 2.6 .7 2.9-.8 2.8-.9 .8-.1 1-.3 1.7-1.9 .1-4.4-4.2-6.1-7.1-1.8-3.3-3.3-6.7-4.8-10.2-2.3-5.3-4.1-18.3-4.3-32.7l.4-84c0-13.9-.1-27.8-.7-41.6-.3-6.9-.8-13.7-1.7-20.3-.4-3.2-1-6.6-1.8-9.2-.6-2.2-.6-1.7-1.3-1.9L66.3 252c-5.9 .1-11.9 .1-18-.2-6.3-.8-11.8-.1-21-5.3-4.2-2.6-7.5-7.7-5.6-12.8 .6-4.8 5-9.7 6.3-11.2l11.7-13.3c7.9-8.7 16-17.2 24.2-25.6 16.4-16.7 33.1-33.1 50.4-49 8.6-7.9 17.3-15.8 26.4-23.4 4.5-3.8 9.2-7.5 14.1-11.1 2.5-1.8 5-3.6 8-5.3 2.2-1.4 4.9-2.3 7.4-2.8zm256.5 311c.5 0 .9 .4 1.2 1s.5 1.5 .4 2.3l-.6 8c-.1 2-1.1 3.5-2.2 3.5l-17.1 0-8.5 .1-4.2 .1-1.5 .1c-.4 .2-.8 .5-1.2 .7-1.5 .4-1.6 .3-2.5 .4l-2.6 .1-4.5 .1-8.7 .1-17.2 0c-1 0-1.8-.6-2.5-1.8l-.3-.5c-.5-.7-.6-2-.4-3.1l1.6-6.6c.4-1.7 1.3-2.8 2.3-2.8l17.2 0c5.2-.4 12.6 .6 15.3-1.2 13.8-.8 23.8-.4 35.8-.5l0-.1zm-28.1 9.8c.8 .2 .5 0 0-.1 0 0 0 .1 0 .1zm-1.1-5.7c.8 1.5 1.1 2.8 1.2 4 0-.6 0-1.4-.2-2-.2-.7-.6-1.4-1-1.9zm76.3-91.5l0 0c.8 0 1.5 .4 2 1s.7 1.5 .6 2.4l-.8 8c-.2 2-1.7 3.5-3.5 3.5-18.7-.2-37.2-.4-55.6 .8-18.9 1.2-37.9 1.1-56.6 .9-1.5 0-3-.7-4.2-1.8l-.5-.6c-.8-.8-1-2-.6-3.1l2.6-6.5c.6-1.7 2.1-2.7 3.7-2.7 18.8 .2 37.3 .2 55.9-1 19.1-1.2 38.1-1 56.9-.8zM543.9 228l.1 0c1.2 0 2.4 .4 3.2 1s1.2 1.5 1.1 2.4l-1.1 8c-.3 2-2.7 3.5-5.5 3.4-59.2-1.2-118.6 2.8-178.6 1.8-2.5 0-4.8-.7-6.7-1.9l-.9-.6c-1.2-.8-1.6-2-1-3.1l4-6.5c1-1.7 3.3-2.7 5.9-2.7 59.5 .9 119.3-3.1 179.5-1.9zm46.9-87.5c1.5 0 3 .4 4 1l0 .1c1 .6 1.5 1.5 1.4 2.4l-1.4 8c-.3 2-3.3 3.5-6.8 3.4-74-1-148.2 2.7-222.8 1.9-3.1 0-6-.7-8.4-1.9l-1.1-.6c-1.6-.8-2.1-2-1.3-3.1l5-6.5c1.2-1.7 4.1-2.7 7.3-2.7 74.4 .7 149-3.1 224.1-2z"/></svg>