<svg xmlns="http://www.w3.org/2000/svg" viewBox="0 0 504 560"><!--! Font Awesome Pro 7.2.0 by @fontawesome - https://fontawesome.com License - https://fontawesome.com/license (Commercial License) Copyright 2026 Fonticons, Inc. --><path fill="currentColor" d="M114 477.1c101.3 .4 202.8 .2 304.1 .1 26.1 .1 49.9-.3 78.4 .3 .9 .2 2.1 .3 4.2 1.5 2.1 1 4.4 5 4.2 7.4 .4 21.3 .6 42.4-.6 63.9 .5 .5-2.3 6.3-3.7 6.6-1.4 .9-2.2 1.1-3 1.4-1.4 .4-2.5 .6-3.5 .8-2 .4-3.8 .6-5.6 .7-3.6 .4-7.2 .6-10.7 .8-7 .4-14 .7-20.9 .9-14 .4-27.7 .7-41.8 .9-107.5 1.4-215 1.4-322.4 1.4-28.9-.3-53.2 1-86.7-1.3-.9-.4-2.6-.9-4.5-3.3-1.9-2.7-1.7-5-1.7-5.4 0-4.6 .1-8.1 .1-12.2 0-2.2 0-4.4 .1-6.6 .1-13.8 .6-27.1 1.6-37.7 .2-1.7 .3-3.4 .5-5.1 .7-7.1 1.9-9.5 2.9-6 2.1 7.2 4.2 14.3 6.3 21.5 1.6 5.5 2.7 18.5 2.6 33.1 0 .3 0 .6 0 .9 0 2.5-.1 5.2-.1 7.7 22.9 .3 52.7 .3 78.8 .3 107.3 0 215 0 322.2-1.4 14-.2 27.7-.5 41.5-.9 6.8-.2 13.8-.5 20.6-.9 3.4-.2 6.8-.4 10.1-.7 1.1-.1 2.2-.3 3.3-.4 .8-17.8 .8-36 .5-54-22.2 0-48.5 0-72.6 0-101.3 .1-202.8 .3-304.2 0-19.4-.1-38.5-.8-57.6-1.2-6.8-.1-13.3-.6-17.9-1.2-4.6-.6-6.9-1.5-6.4-2.3 1.7-2.5 3.5-5.1 5.3-7.6 1.4-1.9 14.6-3.2 30.6-2.8 15.4 .3 30.9 .8 46.2 .9zM253.3-11.2c2.5 0 5.1 .6 7.2 1.8L283 9.4 303.9 27.5c13.7 12.3 27.3 24.7 40.5 37.7 13.2 12.9 26 26.1 38.4 39.9 6.2 6.9 12.3 13.9 18.2 21.1l8.7 10.9c2.6 3.9 6.2 6.5 8.7 15.3 2.8 8.9-6.2 15.9-13.1 17.1-5.5 1.2-10.4 1.4-15.1 1.6-9.6 .2-18.8-.2-27.9-.5l-27.3-.7-6.8-.1c-1.8 0-1.4 .1-2.1 .4-.9 1-.9 .3-.9 6.4l.4 109.9c0 36.8 1 73-.2 110.4l-.7 7.5c-.9 3.9-1.6 7.9-4.4 11.2-2.7 3.2-7.8 3.6-11.1 3.2-3.3-.2-4.9 0-7.4-.1-13.7 0-41.2 0-82.4 .1l-13.7 0-6.9 0c-1.7-.1-4.5 .4-6.2-1-2.1-.5-4-1.4-5.4-3.2-1.7-1.3-2.7-3.4-3.6-5.6-.8-1.6-1-2.8-1.4-4.2-.8-2.7-1.2-5.1-1.6-7.6-.8-4.9-1.2-9.6-1.6-14.3-1.3-18.8-1.4-37.2-1.4-55.6 0-36.7 1-73.4 .2-109.7-.5-15.7-.6-31.1-1.8-42.2-.1-1.9-.5-3.4-.8-5.1-.2-.9-.5-1.9-.8-2.9-.2-.5 .8-1.4 .8-1.4 .3-1-.2 .1 .4-.8 2.5 0 5.1 5 7.1 8.4 1.9 3.8 3.6 7.9 5.2 12 2.5 6.3 4.5 21.5 4.8 38.3 .6 36.6-.4 73-.4 109.2 .1 18.1 .2 36.3 1.8 53.8 .6 8.3 3.1 19.5 4 17.1 12.6 0 39.5-.1 80.6-.1l27.3-.1c4.7 .1 3.1 .4 3.8-.9 .1-.2 .3-2.2 .5-4.5l.4-6.5c.8-35.8 0-72.5-.1-108.8l-.4-109.2c-.1-1.5-.1-6.8 1.9-10 1.8-3.5 5-6.4 8.7-7.9 1.8-.8 3.9-1.2 5.9-1.2l3.7 0 6.9 .1 27.4 .8c9 .3 18.1 .7 26.7 .4 4 0 9-.7 11-1.3 1.2-.3 .9-.6 .8-1-39-53-97.6-106.5-149.7-149.5-.3 0 .2-.3-.9 .3-2.2 1.2-4.6 2.9-6.9 4.5-4.7 3.4-9.4 7.2-14.1 11-9.3 7.7-18.4 15.7-27.4 23.9-18 16.4-35.5 33.3-52.7 50.6-17.1 17.3-34.1 34.9-49.7 53.3-3.8 4.6-3.4 4.5-3.3 4.4l.9 .4 3.4 .9c2.6 .4 5.2 .9 8.1 1.1 11.4 .9 23.5 .5 35.7 .1 7.8-.3 15.5-.3 21 .2 5.5 .5 8.3 1.3 7.6 2.2l-6 8.1 0-.1c-1.5 1.9-16.4 4.3-35 4.7-12 0-23.6 .7-36.9-2.5-1.6-.4-3.3-.8-5.6-2.2-2.2-1-4.3-2.3-5.8-4.5-2.1-1.7-2.3-4.5-3-6.9 .6-2.4 .7-5.4 1.8-7.3l3.4-5.5 2.9-3.5 5.8-6.8c15.7-17.7 32-34.6 48.6-51.3 16.7-16.6 33.6-32.9 51.1-48.7 8.7-7.9 17.6-15.7 26.8-23.3 4.6-3.7 9.3-7.5 14.3-11 2.5-1.8 5.1-3.5 8.1-5.2 1.9-1.2 4.8-2.1 7.2-2.6z"/></svg>