<svg xmlns="http://www.w3.org/2000/svg" viewBox="0 0 560 560"><!--! Font Awesome Pro 7.2.0 by @fontawesome - https://fontawesome.com License - https://fontawesome.com/license (Commercial License) Copyright 2026 Fonticons, Inc. --><path fill="currentColor" d="M280.2-9.5c61.9-.3 123.7 20.6 172.7 58.4 8.8 6.8 17.3 14.1 25.3 21.9 1.6 1.6 4.1 1.7 5.6 .7 .1-.1 .2-.2 .3-.3 11.8-10.4 24.2-20.5 35.7-27.2 2.7-1.8 5.4-3.5 8.2-5.1 1.4-.8 2.9-1.8 4.6-3 .9-.6 1.8-1.1 3-1.8 .7-.3 1.4-.7 2.8-1.1 .9-.4 5.7-.8 8.2 2.7 3.6 6.3 2.3 9 2.6 11.9 .2 50.6-.3 101.2-1.1 151.7 0 3.9 0 7.9 .1 11.9l-.2-1.5c.4 4.7-.5 4.1-.7 4.9-.3 .6-.6 .9-.8 1.1-.4 .5-.7 .7-.9 .9-.5 .4-.7 .5-.9 .7-.4 .2-.7 .4-.9 .5-.5 .2-.8 .3-1.1 .4-.5 .2-1 .4-1.4 .5-.8 .2-1.5 .4-2.3 .6-1.4 .4-2.8 .6-4.2 .9-2.7 .5-5.4 1-8 1.4-5.3 .9-10.5 1.7-15.8 2.4-41.8 4.9-82.8 4.3-123.9 4.3-5.1 0-10.1-.1-15.2-.1-2.5 0-5.1-.1-7.7-.2-1.3 0-2.6-.1-3.9-.1-.7 0-1.4-.1-2.2-.1-.4 0-.8-.1-1.4-.2-.4-.1-.6-.1-1.5-.3-.4-.2-1-.1-2.9-1.5-1.1-.8-3-3.5-2.8-6.2 .2-2.4 .7-3 .7-3.1 6.2-12.6 13.9-21.8 21.7-31.4 3.7-4.4 7.8-8.3 11.5-11 2.7-2.9 5.3-5.9 8-8.7 2.3-2.3 2.2-6.2 .1-7.7-29-25.1-67.1-39.2-105.5-39-85.9-1.9-163.1 75.6-160.8 161.3-1.9 85.7 75.4 162.6 160.8 160.4 28 0 56-7.5 80.2-21.6 9-5.2 17.4-10.7 24.1-15 1.1-.7 2.2-1.4 3.3-2.2 4.5-3 6.6-3.6 5.4-.9-2.6 5.3-5.6 10.6-8.9 15.8-2.5 4-10.5 11.1-20.9 16.8-25.3 13.9-54.3 21.2-83.2 21.2-92.9 2.4-177-81.2-174.9-174.4-2.4-93.2 81.4-177.5 174.9-175.4 41.6-.2 83.2 15.1 114.7 42.4 8.7 7.3 8.1 21.2 .8 28.3-9.9 10.3-19.5 21.3-27.9 32.7-1.6 2.2-3.3 4.2-4.8 6.1 1.1 0 2.2 .1 3.2 .1 5 .1 10 .1 15.1 .1 40.8 0 82.3 .5 121.9-4.2 5.2-.7 10.3-1.5 15.4-2.4 2.5-.4 5.1-.9 7.5-1.4 .6-.1 1.3-.3 1.9-.4 0-2.3 0-4.6 0-6.9 .8-49.4 1.2-98.7 1-148l-.1 .1c-10.5 6-20.2 13.8-29.8 22.1-2.2 1.9-4.6 3.6-6.5 4.4-.8 .4-1.5 .6-2.1 .7-1.1 1-2.2 2.2-3.4 3.3-3.2 2.9-7.8 4.6-12.3 4.5-4.7-.1-9.3-2.1-12.6-5.3-7.6-7.4-15.6-14.4-24.1-20.8-46.6-35.9-105.3-55.7-164.1-55.5-143.6-3.3-272.7 126.2-269 269.5-3.3 143.3 126 272.1 269 268.5 61.1 .1 121.8-21.5 169-60.2 6.6-5 6.7-15.9 .4-21.9-2.7-2.7-5.4-5.4-8.1-8.1-6.3-6.3-12.2-12.7-16.1-17.4-3.9-4.7-5.5-7.5-4.5-7.6 3.4-.2 6.9-.3 10.3-.5 2.4-.1 14.4 9.9 28.3 23.5 1 1 1.9 2 2.7 3.1 9.2 11.4 8 30.4-4.2 39.8-49.7 40.7-113.7 63.5-178 63.3-150.5 3.8-286.6-131.8-283.1-282.6-3.8-150.8 132.1-287.1 283.1-283.6z"/></svg>