<svg xmlns="http://www.w3.org/2000/svg" viewBox="0 0 504 560"><!--! Font Awesome Pro 7.2.0 by @fontawesome - https://fontawesome.com License - https://fontawesome.com/license (Commercial License) Copyright 2026 Fonticons, Inc. --><path fill="currentColor" d="M43.8 401.3c7.7-.3 15.4 0 23.6 1.9 4.1 1.3 8.6 1.9 13.3 7.4 2.7 2.4 2.9 6 3.8 9.3l-.1 5.7c0 14.3-.6 29-.4 42.7 .1 3.3 .4 6.9 .8 9 .3 1.3 .3 .7 .6 .9l63.7 0 172.1 .4c28.7 0 57.4 .3 85.8-.3 6.9-.2 14.4-.5 20.2-1.3 2.6-.4 2.6-.5 2.6-.5l0-7.1c.1-14.1-.4-28.2 .2-43.3 .7-4.8-.3-9.4 4.7-17.4 2.5-3.4 6.6-5.3 10.7-5.5 2.9-.1 4.5 .1 6.7 .1 8.3 .3 16.1 .7 22.9 1.3l6.7 .5c9.2 .7 12.3 2 7.7 3.1L462 414.9c-2.9 .9-10.5 1.5-15.4 2.1-1.1 .8-1.1 .7-1.6 4.5-.4 3.6-.5 8-.6 12.6l0 44.8c-.1 2-.7 4.8-1.8 6.6-1.8 2.5-4.6 4.1-7.6 5.1-4.8 1.2-8.8 1.7-12.4 1.9-7.4 .6-14.5 .8-21.7 .9l-85.3 .2-170.3-.4-53.6 0c-4-.4-5.8 1-13.3-1.3-6.2-2.5-8.4-10.9-8.6-14.2-.5-4.1-.7-7.9-.7-11.5l.4-42.7 0-3c-.1-.3-.1-.3-.6-.6-1.1-.8-4.1-2-7-2.5-6-1.2-12.7-1.4-19.3-1-6.6 .4-13.3 1.4-19.1 3.3-2.6 .8-5.9 2.6-6.1 2.9-.2 .1-.2 .3-.2 .5l-.3 5.2-2.1 42.4c-.6 14.1-1 28.3-1.1 42.3-.1 7 0 14 .2 20.9 .2 6.2 1.3 15.9 1.4 14.5l0 .2c212.2-.4 358.2-.6 438.2-.7l32.9-.1 0-.1 .4-2.2c.5-2.9 .8-5.9 1.1-8.9 .6-6.1 1-12.4 1.2-18.7 1-25.1 .9-50.6-.5-75.6-.4-6.1-.7-12.5-1.3-22.2 0-2.7-.7-4.6 .2-4.5 .9-.4 1.7-1.2 2.3-1.7-.7 .7 .1 0 .2 .1 .7-.3 1.5 .2 2.3 .4 1.7 .6 3.2 1.4 4.8 2.3l-.1-.1c2.7 1.4 6.4 18.7 6.9 39.2 .8 25.2 .7 50.1-.9 75.4-.5 6.4-1 12.6-2.3 19.5-.7 2.6-1.3 5.5-2.8 7.7-1.7 1.8-3.8 3.6-6.3 4-6.6 .5-8.5 .2-11.8 .3l-37.4 .1-373.7 .4-37.4 .1-9.4 0c-3.7 .1-4.5-.2-12 .2l-6.3 3c-.1-.2 1-.3 1.4-.5l3.6-.9 .9-.2 .5-.1 .1 0c-1.1 3.4-.4 .9-.7 1.7l-.2 0-2 .2-3.9 .4-.5-4.1c-.9-8.7-3.7-13.9-3.4-17.4-.5-3.9-.6-7.5-.8-11.2-.3-7.3-.3-14.6-.3-21.9 .1-14.5 .5-28.9 1.1-43.3l2.2-43.1c0-2 .2-10.9 6.2-15.2 4.3-3.2 8.4-4.7 12.3-5.8 7.8-2.3 15.4-3.2 23.1-3.6zM253.5-11.2c2.5 0 5.1 .6 7.3 1.8L283.2 9.3 304 27.5c13.8 12.3 27.3 24.7 40.5 37.7 13.2 12.9 26 26.2 38.4 39.9 6.2 6.9 12.3 13.8 18.2 21l8.8 10.9c2.6 3.9 6.2 6.5 8.7 15.2 2.8 8.9-6.2 15.9-13.1 17.1-5.5 1.2-10.4 1.4-15.2 1.6-9.6 .2-18.8-.2-27.9-.5l-27.3-.7-6.8-.1c-1.8 0-1.4 .1-2.1 .4-.9 1-1 .3-.9 6.4l.4 109.9c0 36.8 1 73-.1 110.4l-.7 7.5c-.9 3.9-1.6 7.9-4.4 11.2-2.7 3.2-7.8 3.6-11.1 3.2-3.3-.2-4.8-.1-7.4-.1l-27.5 0-55 .1-23.7 0c-1.1-.1-2.2-.3-3-1-2.1-.5-4-1.5-5.4-3.3-1.7-1.3-2.7-3.4-3.6-5.6-.8-1.7-1-2.9-1.4-4.2-.8-2.7-1.2-5.1-1.6-7.5-.8-4.9-1.2-9.6-1.6-14.3-1.3-18.8-1.4-37.2-1.4-55.5 0-36.7 1.1-73.4 .2-109.7-.5-15.7-.6-31.1-1.8-42.2-.1-1.9-.6-3.3-.8-5.1-.2-.9-.5-1.9-.8-2.9-.2-.5 .8-1.4 .8-1.4 .3-1.1-.2 .1 .4-.8 2.5 0 5.1 5 7.1 8.4 1.9 3.8 3.6 7.9 5.2 12 2.5 6.3 4.5 21.5 4.8 38.4 .6 36.6-.4 73-.4 109.2 .1 18.1 .2 36.3 1.8 53.9 .6 8.3 3.2 19.5 4 17.1 12.6 0 39.4 0 80.6-.1l27.3-.1c4.7 0 3.1 .4 3.8-.9 .1-.1 .3-2.2 .5-4.5l.4-6.5c.8-35.8 0-72.5-.1-108.8l-.4-109.2c-.1-1.5-.1-6.8 1.9-10 1.8-3.6 5-6.4 8.7-7.9 1.8-.8 3.9-1.2 5.8-1.2l3.7 0 6.9 .1 27.4 .8c9 .3 18.1 .7 26.7 .4 4.1 0 9-.8 11-1.3 1.2-.3 .9-.6 .8-1-39-53-97.7-106.5-149.7-149.5-.3 0 .2-.3-.9 .3-2.2 1.2-4.6 2.9-6.9 4.5-4.7 3.4-9.4 7.2-14.1 11-9.3 7.7-18.4 15.7-27.4 23.9-18 16.4-35.5 33.4-52.7 50.6-17.1 17.3-34.1 34.9-49.7 53.2-4 4.8-3.4 4.5-3.3 4.4l.9 .4 3.4 .9c2.6 .4 5.2 .9 8.1 1.1 11.4 .9 23.5 .5 35.7 .1 7.8-.3 15.5-.3 20.9 .2 5.5 .5 8.3 1.3 7.6 2.2l-6 8.1 0-.1c-1.5 1.9-16.4 4.3-35.1 4.7-12 0-23.6 .7-36.9-2.5-1.6-.4-3.3-.8-5.6-2.2-2.2-1-4.2-2.3-5.8-4.5-2.1-1.7-2.4-4.5-3-6.9 .6-2.4 .7-5.4 1.8-7.3l3.4-5.5 2.9-3.5 5.8-6.7c15.7-17.7 32-34.6 48.6-51.3 37.5-37.3 64.1-60.7 77.9-72 4.6-3.7 9.3-7.4 14.3-11 2.5-1.8 5.1-3.5 8.1-5.2 1.9-1.2 4.8-2.1 7.2-2.6zm236.7 425c.1-.1 .2-.3 .4-.5 .1 0 .1-.1 .2-.1-.2 .1-.4 .4-.6 .6zm1.2-.9c-.1 .1-.3 .2-.5 .3 0 0 .1-.1 .1-.1 .2 0 .3-.1 .4-.2zm.2-.4c0 .1-.1 .2-.2 .4 .2-.1 .2-.3 .3-.6 0 .1 0 .2 0 .3z"/></svg>