<svg xmlns="http://www.w3.org/2000/svg" viewBox="0 0 616 560"><!--! Font Awesome Pro 7.2.0 by @fontawesome - https://fontawesome.com License - https://fontawesome.com/license (Commercial License) Copyright 2026 Fonticons, Inc. --><path fill="currentColor" d="M169.8 15.1c15.6 .5 31.3 1.3 46.9 2.5l11.7 1 5.8 .5c1.5 .2 7.1 .1 9.2 2.3 3.2 1.5 4.4 5.3 5.6 8.8 .8 2.8 1.1 4.5 1.5 6.6 .7 4.1 1.2 8.1 1.6 12 3.1 31.5 3.7 62.6 3.7 93.9-.1 15.6-.4 31.3-1.4 47-.4 5.1-.8 14.4-5.3 17.3-5.2 3.4-12.2 .4-18.7-3.2-7.5-4.6-13.6-9.3-19.9-14.3-6.2-5-12.2-10.1-18-15.3l-4.7-4.2c-.3 .1 .3-.4-.8 .8-10.2 10.8-18.2 23.4-24.9 36.6-13.2 26.5-18.8 56.6-16.3 86.2 4.6 59.2 44.3 114.1 99.4 136.5 8.1 3.4 16.2 6.1 24.1 8.3 12 2.8 24.2 4.4 36.4 4.4 1.6 0 3.2 .6 4.5 1.7l.6 .6c.5 .5 .4 1.1 .5 1.8l-.1 0c.2 .2 .4 .4 .1 .5 0 .3 .3 .5 .2 .7l-2.7 6.6c-.7 1.7-2.4 2.8-4.3 2.8-44.3-.2-88.5-17.7-120.9-48.6-.7-.6-1.1-1.5-1.1-2.3 0-.4 .3-.6 .4-.9-30.9-31-50.8-73.1-52.5-117.1-1.9-31.9 5.7-64.1 20.4-92.4 4.2-6.8 7.8-14 12.8-20.3 2.4-3.2 4.6-6.5 7.2-9.5 7.5-8.2 12.6-13.9 15.3-17 .6-.6 1.3 .9 1.9 1.2l7.8 7.2 9.3 8.3c5.7 5 11.5 9.9 17.4 14.5l8.9 6.7c2.7 1.9 7.1 4.6 6.5 4.2 .4 .2 1.3 .5 1.2-.3l.4-5.7c.8-15.1 1.1-30.4 1.1-45.7-.1-30.5-.7-61.3-3.9-91.2-.8-7.1-2.5-16.7-2.8-14.5L214 32.2c-15.2-1.2-30.5-2-45.7-2.4s-30.4-.5-45.6 0L100 31 81.7 32.7c-.4 0-.7 .2-.4 .6l2.7 4.2c3.9 5.7 8.2 11.4 12.7 17 4.5 5.6 9.1 11.1 13.8 16.5 18.1 9.8-4.4 23.2-5 26.2-19.1 20.9-35.1 44.9-46.3 70.9-23.6 51.6-29.4 110.7-18.4 166.3 11.5 55.5 40.4 107.2 82.1 145.7 41.4 38.7 95.3 63.6 151.5 70.3 7.2 .8 14.4 1.7 24.8 3 6.4 .8 9.7 1.7 8.9 2.5l-7.6 7.8c-1.9 2-21.2 3.1-44.1-1-57.4-10.2-111.5-38.7-152.4-80.3-20.4-20.9-37.7-44.7-51.4-70.4-13.4-26-22.4-54-27.7-82.7-9.8-57.4-2.7-118.2 22.6-171 12.2-26.5 28.4-51.3 48.4-72.6l3.9-4.3c.2-.1 0-.3-.1-.4l-1.3-1.4c-4.7-5.4-9.4-11-13.9-16.7-4.5-5.7-8.9-11.5-13.1-17.7l-3.5-5.6c-1.6-3-3.1-6-3.7-8.8-.6-2.9-.6-5.3 .9-7.7 1.6-1.9 3.8-3 6.5-4l15.9-1.9 11.8-1 23.6-1.2c15.7-.5 31.4-.4 47.1 .1zM301-4.1c1.8-1.8 21.2-4 44.7-.9 59.1 7.5 115.6 34.1 159 75 43.6 40.7 73.8 95.2 85.7 153.7 11.2 58.5 5 120.6-20 174.9l.1 0c-11.9 27.3-28.7 52.5-48.8 74.5l-4.8 5.3c-.4 .4 0 .3 .5 1l14.7 16.1 14.7 16.4c2.5 3.2 8.7 10 9.6 14.8 .4 2.3 .2 4.9-1.2 6.8-1.9 1.3-2.7 3-6.2 3.7l-16.9 2.4-11.9 1.4c-7.9 .8-15.9 1.5-23.9 2-15.9 1-31.9 1.4-47.8 1.3s-31.8-.7-47.7-1.9l-11.9-.9-5.9-.5c-1.1-.1-6.7-.3-9.3-1.7-2.9-2.1-5-4.9-5.8-8.8-1.1-3.6-1.1-4.8-1.6-7.1-.7-4.1-1.2-8.2-1.6-12.2-2.9-32-3.4-63.6-3.4-95.3 .1-15.9 .4-31.7 1.1-47.7l.4-6.6 1-11.2c1.4-2.1 2.1-5.1 4-6.4 2.5-1.7 4.9-1.8 7.6-1 2.7 .6 5.7 2.7 8.7 4.8 1.5 1.1 3 2.3 4.4 3.6l2.5 2.3 8.8 8.3 28.8 28.1 .2-.1 1.6-1.8c2.6-2.8 5.1-5.6 7.2-8.7 4.7-5.9 8.8-12.2 12.4-18.8 14.9-26.1 22.3-56.5 20.9-86.5-1.6-60.5-40.2-117.8-95.4-142.2-8.2-3.8-16.6-6.7-24.7-9.2-12.1-3.1-24.5-5-36.9-5.3-1.6 0-3.2-.6-4.4-1.8l-.6-.6c-.5-.5-.3-1.2-.4-1.8-.2-.2-.4-.4-.1-.5 0-.3-.3-.5-.2-.7l2.7-6.5c.7-1.6 2.4-2.7 4.3-2.7 43.1 1.1 85.9 18.5 117.4 48.6 .6 .6 1 1.4 1 2.3 0 .3-.3 .6-.4 .9 32.8 32.9 53 78.6 52.8 125.5-.2 32.4-8.7 64.9-25.8 92.6-3.8 7.2-9.2 13.3-13.8 20-6.6 7.3-12.2 13.5-16.6 18.5-2.6-1.6-5.2-4.7-7.8-7l-35.3-34.2-7.5-6.9c-.4-.3-.9-.8-1.4-.9-.5 .2-.2 1.1-.4 1.5l-.5 9.1c-.7 15.4-.9 31-1 46.5 .1 31 .6 62.3 3.5 92.8 .4 3.8 .9 7.5 1.5 11l.6 3c0 .2 .2 .4 .5 .4l21 1.7c15.4 1.1 30.9 1.6 46.3 1.7 15.5 .1 30.9-.3 46.3-1.3l23-1.9 17.9-2.2c.4 0 .8-.1 .4-.5l-2-2.4-14.7-16.4-15.9-17.3-7.1-7.9c-1-.7-.5-1.3 .2-2l1.8-2 3.6-4 8.9-9.9c19.1-21.6 35.6-46 46.6-72.8 11.4-26.6 18.6-54.9 21.5-83.7 2.5-28.9 .3-58-6.1-86.2-12.2-56.7-44.8-108-88.3-145.9-43.8-37.9-99.9-60.8-157.6-64.8-7.4-.5-14.9-1.1-25.6-1.8-6.7-.7-10.1-1.6-9.3-2.5L301-4.1z"/></svg>