<svg xmlns="http://www.w3.org/2000/svg" viewBox="0 0 560 560"><!--! Font Awesome Pro 7.2.0 by @fontawesome - https://fontawesome.com License - https://fontawesome.com/license (Commercial License) Copyright 2026 Fonticons, Inc. --><path fill="currentColor" d="M267.1-9.4c-73-.4-145.7 29.2-197.8 80.3-1.8 1.8-4.7 1.9-6.3 .4-13.3-11.5-26.8-24-43.3-33.4-1.4-.8-2.9-1.8-4.6-2.9-.9-.6-1.8-1.2-3.1-1.9-.7-.4-1.4-.8-3-1.2-1-.4-6.4-.9-9.3 3.1-4 6.9-2.4 9.5-2.8 12.4 0 50.6 .5 101.2 1.5 151.7 0 3.9 0 7.9 0 11.9l.2-1.6c-.4 5.1 .6 4.4 .8 5.3 .3 .6 .6 1 .8 1.2 .4 .5 .7 .8 1 1 .5 .4 .7 .5 1 .7 .4 .3 .7 .4 1 .5 .5 .2 .8 .3 1.1 .5 .6 .2 1.1 .4 1.4 .5 .8 .3 1.6 .5 2.3 .6 1.4 .4 2.8 .6 4.2 .9 2.7 .5 5.4 1 8 1.4 5.3 .9 10.5 1.6 15.8 2.4 41.9 4.8 82.9 4.1 124 4 5.1 0 10.1-.1 15.2-.2 2.5 0 5.1-.1 7.7-.2 1.3 0 2.6-.1 3.9-.1 .7 0 1.4-.1 2.2-.1 .4 0 .8-.1 1.4-.2 .4-.1 .6-.1 1.5-.4 .4-.2 1-.1 2.9-1.5 1.1-.8 3.1-3.6 2.9-6.3-.1-2.4-.7-3-.7-3.1-2.8-6-6.1-10.8-9.4-15.6-10-13.8-21-25.5-29.2-33.4-8.3-7.8-13.3-11.2-12.8-9.7 1.4 4.8 2.6 9.6 3.7 14.4 .2 2.9 16 19.1 30 41.8-6.4 .1-12.9 .2-19.4 .3-40.8 .1-82.2 .7-122-3.9-5.2-.7-10.3-1.5-15.4-2.3-2.5-.4-5.1-.9-7.5-1.3-.8-.2-1.5-.4-2.3-.5 0-2.4 0-4.9 0-7.3-1-50-1.5-99.9-1.5-149.8 .5 .3 1 .7 1.6 1 14.6 8.3 27.5 20 40.9 31.7 7.2 6.5 19 5.6 25.5-1 49.6-48.6 118.5-76.7 187.9-76.3 143.4-3.4 272.6 126 269 269.2 3.4 143.3-125.9 272.3-269 268.7-61.1 .2-122-21.4-169.3-60.1-6.7-5.1-6.8-16.3-.4-22.5 12.2-12.2 24.4-24.4 36.6-36.6 6-6.3 17.4-6.4 25-.8 29.5 21.2 65.8 32.9 102.1 32.8 93.5 2.3 177.9-81.9 175.7-175.5 1.3-78.3-56.6-152.5-132.8-170.5-14.3-3.6-28.9-5.2-42.8-4.9-18.8 .2-36.2 3.8-50.5 8.8-4 1.4-8 3-11.9 4.6-16.1 7.3-20.4 11.7-12.4 8.6 16.7-5.8 34-8.9 51-9.2 5.3-.1 13.6-.5 23.8 0 14.7 .6 33.3 3.1 52 9.6 64.1 21 110.6 85.7 109.6 153.2 2 86.1-75.6 163.6-161.6 161.4-33.5 .1-66.8-10.6-93.9-30.2-12.2-9.1-31.5-9.5-43.1 2.3-12.2 12.2-24.4 24.4-36.6 36.6-11.8 11-12.1 32.9 1.5 43.3 49.7 40.7 113.8 63.5 178.1 63.3 150.6 3.7 286.7-132 283.1-282.8 3.8-150.8-132.2-286.9-283.1-283.4z"/></svg>