<svg xmlns="http://www.w3.org/2000/svg" viewBox="0 0 616 560"><!--! Font Awesome Pro 7.2.0 by @fontawesome - https://fontawesome.com License - https://fontawesome.com/license (Commercial License) Copyright 2026 Fonticons, Inc. --><path fill="currentColor" d="M130.8-7.6c41.7 .1 83.2 1.4 124.6 2.4 12.7 .3 24.8 1.2 34.8 2.4l6.6 .1c1.2 .1 2.1 .8 3.2 1.1 4.2 .7 5.8 1.6 4.6 2.4 1.6 1.2 3 2.6 3.9 4.2 1.8 3.3 2.9 6.6 3.5 9.7 1.3 6.3 1.5 12.4 1 18.5-1 6.3-.9 12.2-7.5 19.9-3.1 3.7-10.7 3.7-12.3 3.7l-8.3 0c-44.3 0-88.5-.1-132.8-.2l-33.1 .1-16.3 .4c-5.8 .4-9.8 .8-9.1 1.3l-.2 261.3 .2 132.6c.2 11 .4 22.1 1.2 32.5 .4 2.3 .6 5.3 1.1 6.8l14.2 0c44.2-.2 88.5-.4 132.8-.7l33.3 .1c5.6 .1 11.2 .2 17.1 .6 2.6 .2 6.6 .4 11.1 2l0 0c5.3 1.4 8.6 6.3 8.6 11.6l.9 34.7c-.3 5.3 1 13.7-7.1 21.6-8.3 6-14.6 5.1-20.6 6-23.2 .6-44.7-.7-66.9-.6-7.8-.1-15.2-.3-20.6-1-.8-.1-1.2-.2-1.9-.3l-51.7 .5c-20.8 .2-41.6 .4-62.6-.3-10.5-.4-21.1-1-32.1-3.2-5.5-1.3-11.3-2.9-17-6.5-5.6-3.7-10.3-10.5-11.2-16.8-2.3-12.7-1-22.1-1.4-32.7 0-25.9-.2-145.2-.3-217.8L20.5 40c.1-4.8-.3-11.7 2.2-17.9 1.8-6.5 6.9-12.2 12.1-15.9 10.9-7.2 22.1-8.9 32.8-10.8 21.5-3 42.3-2.9 63.2-3zM124.5 7.1c-20.6 .3-41.5 .5-61.1 4-9.5 1.9-19.4 4.6-23.9 10.4-4.8 5.4-4.3 14.5-4.3 25.5 1.1 672.6 .5 359.8 .7 469.3 .1 10.6-.5 21 3.5 25.3 3.8 4.6 13.9 6.9 23.4 8.1 9.9 1 20.2 1.5 30.5 1.7l0 .1c20.6 .4 41.5 .1 62.3-.1L280.8 550c5.8 0 11.1 .3 15.5 .7 3.4-1.5 2.9-12.3 2.5-22l-.5-16.3-.1-4c0-.2 0-.4 0-.7-.6-.5 .1-.4-2-.7-18.8-1.7-42.6-.9-63.8-1-43.7 .3-87.5 .5-131.2 .6-3.1 0-4.6 .2-9.1-.1-2.8-.2-7-2.5-8.3-5.1-2-2.9-1.6-3.9-2.5-6-1.5-6.6-1.7-12.1-2.1-17.7-.5-11.1-.7-22.1-.8-33.1 0-87.5 0-175 .2-262.4l0-123.4c-.2-4.3 .9-10.4 5.6-12.7 9.9-4.4 15.1-3.1 20.6-3.7l16.7-.4 32.9-.1c43.7 .2 87.4 .3 131.1 .3l9.8 0 .1-.1c.6-.6 2.6-6.2 2.7-10.5 .4-4.6 .2-9.6-.8-13.9-.4-2.2-1.2-4-1.8-5.3-.4-.6-.1-.2-.3-.4L195.2 9.8c-14.3-.3-28-1.2-39.4-2.4-10.4-.1-20.9-.4-31.3-.4zM437.1 119.7c4.5 .3 7.7 2.2 10.7 4.3 2.8 1.8 4 3.2 6 4.8l10.8 9.5c28.4 25.8 55.2 52.8 81.2 80.8 13 14.1 25.8 28.2 37.7 43.6 2.9 3.9 5.9 7.8 8.6 12.4l0-.1c1.3 2.4 4.2 7.7 2.9 11.5-.4 4.1-4.8 7.7-5.5 9l-18.5 21.9c-24.9 29-51.1 56.9-79.1 83-14.1 13-28.5 25.7-44.1 37.4-4 3.2-15.2 8.9-21.8 1.9-3-2.7-5.1-7.9-5.5-10.8-.6-2.9-.9-5.5-1.1-8.1-.7-10.3-.2-19.8 .1-29.3l.8-28.3 0-7c0-2.9 0-1.6-.2-2.4-.6-.7-.2-.7-6.5-.7l-57 .2-113.9 .6-28.7-.1c-4.8-.1-9.6-.2-14.8-.6l-3.9-.4-6.4-1.6c-4-1.5-7.7-4.7-8.1-9.2l-.1-59.6c0-7.4 .3-14.5 1-19.6 .6-5.1 1.5-7.6 2.3-7l8 5.7c2 1.4 3.6 15.7 3.6 33l.1 28.1 0 13.6c-.2 1.7 0 1.5 2.2 1.8 17.5 1.4 36.8 .8 55.3 .9l112.4-.6 28.1-.1 24.6 0c1.6 0 4 .3 5.8 1 3.9 1.3 7.2 4.2 9.1 7.9 2.1 3.7 1.9 8.6 1.9 10.2l-.2 14.2-.9 28.1c-.2 9.1-.5 18.8 .9 26.3 .9 2.9-.5 3.4 9.3-3.9 14.5-11.3 28.4-23.6 41.9-36.4 26.9-25.6 52.4-52.8 76.5-81.2l17-20.3c2.2 2.2-5.1-9-10.3-15.3-11.4-14.3-23.9-28.2-36.6-41.8-25.4-27.2-51.8-53.7-79.3-78.6l-10.4-9.1c-4.1-3.6-5.5-4.4-5.3-4.2 .3-2.7-2.8 8-2.7 16.7-.4 8.9-.1 18.1 .2 27.4l1 29.6c-1 3.6-2.2 7.2-5.3 9.6-3.5 2.5-6.6 3.4-8.5 3.9-4.6 1.4-8.8 1.9-13 2.5-8.3 1-16.4 1.6-24.5 1.9-16.2 .7-32.2 .7-48.2 .6-31.9-.1-63.8-.9-95.4-.3-5.5 .1-10.9 .2-16.1 .3-3 .2-6 .3-8.9 .5-7.3 .7-16.6 1.9-20.5 3.9l-.5 .1c.2 0 .2-.3-.4-1.1-.4-.6-.9-1-1.4-1.4l1.6 1.2 0-.8c0-.2-.1-.4-.2-.5-1 .2-1.5 .2-1.4-.8-.2-.2-.4-.3-.5-.3l-1.2 0c-2 .2-4.1-2.3-4.8-4.4-.7-1.7 .9-4.6 2.6-5.2 10-4.1 17.8-4.2 26.3-5.3 8.3-.8 16.6-1.2 24.8-1.5 16.4-.7 32.8-.8 49.1-1 .7 0 1.3 .4 1.8 1 .1 .2 .1 .5 .2 .7 16.1 .1 32.2 .3 48.2 .4 15.4 0 30.7-.1 45.9-.7 7.6-.3 15.2-.8 22.5-1.8 3.6-.5 7.3-1.1 10.3-2 1.8-.5 2.4-.8 2.5-.9 .3-.2 .5-.5 .4-.8-.2-16.3-2-37-1.1-56.2 .3-5 .7-10 2-15.4 .3-3.9 5.8-16.5 14.8-15zm-244.3 109l.5 .3c.1 .1 .2 .2 .3 .3l-1.1-.8 0 0 .2 .1z"/></svg>