<svg xmlns="http://www.w3.org/2000/svg" viewBox="0 0 616 560"><!--! Font Awesome Pro 7.2.0 by @fontawesome - https://fontawesome.com License - https://fontawesome.com/license (Commercial License) Copyright 2026 Fonticons, Inc. --><path fill="currentColor" d="M460.9-6c10.5-.2 20.9-.5 31.4-.5 21 .3 42 .3 63.6 4.1 10.5 2.3 22.6 4.5 31.9 15 9.2 11.1 7.4 25.1 7.7 34.4 1.1 672.6 .5 359.8 .7 469.3-.7 9.6 2.5 22.3-6.8 35.1-10.5 11.3-23.1 11.9-33.6 13.9-10.8 1.2-21.4 1.7-32 1.9-21.1 .5-41.9 .2-62.8 .1l-115.8-.8c-4.7 .1-9.4 .1-14.4-.2-4.8-.1-9.3-.4-12.7-.9-4.6-.6-6.9-1.5-6.4-2.4l.7-1.1c-.4-.2-.8-.4-1.1-.6-1.7-1.5-3.3-3.4-4.5-5.3-1.8-3.9-2.5-7.5-2.6-10.6-.4-6.3-.1-11.7 .1-17.2l.4-16.4 .1-4.2c0-2.5 .2-5 1.2-7.1 1.8-4.2 7.9-6.5 11.2-6.8 24.7-2.6 44.8-1.2 67.2-1.6 42.8 .2 88.4 .2 137 .2 0-.2 .1-.5 .2-.6 .9-4 1.2-9.6 1.6-14.8 .5-10.7 .6-21.6 .7-32.5-.1-66.8-.6-195.4-1.3-385.7 .4-.1-6.2-.9-11.3-.9l-16.1-.3-32.7 .1c-43.7 .3-87.5 .5-131.2 .6l-8.2 0c-.8 .1-3.8 0-6.4-.8-2.7-.2-4.8-2.3-6.8-4-6.2-8.1-6.2-13.9-7.2-20.2-.5-6.2-.3-12.4 1-18.8 .6-3.2 1.7-6.5 3.6-10.1 2.3-4.3 7.4-7.8 12.7-8.3L421.3-6.6c14.4-.3 28-.1 39.5 .6zm25 14.3c-41.2 .2-82.7 1.7-124.2 2.7-12.4 .4-24.3 .1-34.3-.6l-6.3 .1c-.6 .1-.7 .2-1.4 1.1-.7 1.6-1.5 3.5-2 5.9-.9 4.5-1.1 9.6-.7 14.4 .2 4.5 2.3 10.3 3.1 11-1.1 .6 6.2 .2 11.5 .3 44.2-.1 88.5-.4 132.8-.7l33.3 0c12.8 .3 20.6 .4 26.3 1.3 3.3 .4 9.4 2.2 11.6 6.5 1.2 2.1 1.5 4.5 1.6 7.1l0 4.5 .1 8.3 0 16.7c0 16.7 .1 50 .2 99.8 .5 88.5 .7 177 .8 265.7-.2 11.2-.3 22.2-1.2 33.8-.5 3.2-.6 5.8-1.6 9.5-.9 2.1-.4 3.3-3 6.5-1.2 2.7-7 4.9-8.8 4.7l-17.3 .1c-44.3 0-88.6-.1-132.8-.3l-33 .1c-10-.1-25.6 1.4-21.2 1.3l-.7 31.6c-.3 5.4 .9 9.5 1.4 9.4 .7 .9 6.3 1.9 11 2.1 21.1 .5 43.8-.8 65.9-.8 7.9-.1 15.4 .4 20.8 1 1.1 .1 1.6 .3 2.5 .5l51.1 .4c20.7 .2 41.4 .3 61.8-.5 10.2-.4 20.4-1.1 29.8-3 9.6-2.2 16.3-5.2 17.4-12.9 1.5-7.7 .7-19.3 .9-29.3-.2-108.9-.5-311.2-.7-466.7 0-10.5-1.3-16.6-7.7-21-6.5-4.4-16.4-6.5-26-8-19.7-2.7-40.5-2.6-61-2.7zm37.4 486.8c.3 .3 .2 .2 0-.1l0 .1zM276.8 119.7c4.5 .3 7.6 2.2 10.7 4.3 2.8 1.8 4 3.2 6 4.8l10.8 9.5c28.4 25.7 55.2 52.8 81.2 80.7 13 14.1 25.8 28.2 37.7 43.6 3 3.9 5.9 7.8 8.6 12.5 1.3 2.4 4.3 7.7 2.9 11.5-.4 4.1-4.9 7.7-5.5 9l-18.5 21.9 0-.1c-24.9 29-51.1 56.9-79.1 83.1-14.1 13-28.5 25.7-44.1 37.4-4 3.2-15.2 8.9-21.8 1.9-3-2.7-5.1-7.9-5.6-10.8-.6-2.9-.9-5.6-1.1-8.1-.7-10.3-.2-19.8 .1-29.3l.8-28.3 .1-7c0-2.9 0-1.6-.3-2.4-.6-.7-.1-.7-6.5-.7l-57 .2-113.9 .6-28.7-.1c-4.8-.1-9.6-.2-14.8-.6l-3.9-.4-6.4-1.6c-4-1.5-7.7-4.7-8-9.2l-.1-59.6c0-7.4 .3-14.5 1-19.6s1.5-7.6 2.3-7l8 5.7c2 1.4 3.6 15.7 3.6 33 0 21.2 0 35.1 0 41.7-.2 1.7 0 1.6 2.2 1.9 17.5 1.4 36.8 .8 55.3 .8l112.4-.6 28.1-.1 24.6 0c1.6 0 4 .2 5.8 .9 3.9 1.3 7.2 4.2 9.1 7.9 2.1 3.7 1.9 8.5 1.9 10.1l-.2 14.2-.9 28.1c-.2 9.1-.5 18.8 .9 26.3 .9 2.9-.5 3.4 9.3-3.9 14.5-11.3 28.4-23.7 41.9-36.4 27-25.6 52.4-52.8 76.5-81.2l17-20.3c2.2 2.3-5.1-9-10.3-15.3-11.4-14.3-23.9-28.2-36.6-41.8-25.4-27.2-51.8-53.7-79.3-78.6l-10.4-9.1c-4.2-3.6-5.6-4.4-5.4-4.2 .3-2.7-2.8 8-2.7 16.6-.4 8.9-.2 18.1 .2 27.4l1 29.6c-1 3.6-2.1 7.2-5.3 9.6-3.5 2.5-6.6 3.4-8.5 3.9-4.6 1.4-8.8 1.9-13 2.5-8.3 1-16.4 1.6-24.5 1.9-16.2 .7-32.2 .7-48.2 .6-31.9-.1-63.8-.9-95.4-.3-5.5 .1-10.9 .2-16.1 .3-3 .2-6 .3-8.9 .5-7.3 .7-16.6 1.9-20.5 3.9l-.5 .1c.2 0 .2-.3-.5-1.1-.4-.5-.9-1-1.4-1.4l1.6 1.2 0-.8c0-.2-.1-.3-.2-.5-1 .2-1.5 .2-1.4-.8-.2-.2-.4-.3-.5-.3l-1.2 0c-2 .2-4.1-2.3-4.8-4.5-.7-1.7 .9-4.6 2.6-5.2 10-4.1 17.8-4.2 26.3-5.3 8.3-.8 16.6-1.2 24.8-1.6 16.4-.7 32.8-.8 49.1-1 .7 0 1.3 .4 1.8 1 .1 .2 .1 .4 .2 .7 16.1 .1 32.2 .3 48.2 .4 15.4 0 30.7 0 45.9-.7 7.6-.3 15.2-.9 22.4-1.8 3.6-.5 7.3-1.1 10.3-2 1.8-.5 2.4-.8 2.5-.9 .3-.2 .5-.5 .4-.8-.2-16.3-2-37-1.1-56.2 .3-5 .7-10 2-15.4 .3-3.9 5.8-16.5 14.8-15zM32.4 228.7l.5 .4c.1 .1 .2 .2 .3 .3l-1.1-.8 0 0 .2 .1z"/></svg>