<svg xmlns="http://www.w3.org/2000/svg" viewBox="0 0 616 560"><!--! Font Awesome Pro 7.2.0 by @fontawesome - https://fontawesome.com License - https://fontawesome.com/license (Commercial License) Copyright 2026 Fonticons, Inc. --><path fill="currentColor" d="M361.5 66.6c1-4.8 9.9-12.9 17.4-10.4l5.3 1.3 3.6 2.3c2.5 1.6 4.6 3.2 6.2 4.6l20.6 18c13.5 12.2 26.7 24.8 39.7 37.4 26 25.4 51.3 51.4 76 78 12.3 13.4 24.4 26.9 36.2 40.9 5.9 7 11.6 14.1 17.2 21.6 2.8 3.7 5.4 7.6 8 11.8 1.3 2.5 2.3 3.6 3.8 7.7l.1 .1c1.8 4.1 .6 8.2-1 11.8-46.8 57-93.3 108.2-145.9 157.1-13.1 12.1-26.5 23.9-40.4 35.1-7.2 5.7-13.4 11-22 16.6-3.6 2.5-11.3 6.6-19.6 2.8-4.1-1.8-5.8-5.6-7.8-8.4-.9-2.6-2.2-5.6-2.4-8-3.2-19.7-1.4-36.9-1.1-54.8l.9-26.4 .2-13.2c0-3.9 .3-10.1-.2-10.7-.6-1.7-2-3.1-3.8-3.5-.4-.1-.9-.1-1.4-.2l-9.9 0-26.5 0-53 .2-106 .5c-35.5 0-70.5 .9-106.6-.4-4.8-.4-8.7-.3-14.6-1.5l-4.4-.9-5.6-3c-3.2-2.6-5.2-6.7-4.7-11l.1-27.1-.1-53c0-10.4 .3-20.5 1-27.6 .6-7.1 1.5-10.7 2.3-9.8l8 8.1c2 2 3.6 22.1 3.6 46.4l0 52 0 6.6-.2 3.3c0 .2 0 .4 0 .5 0 .4 .4 .6 .7 .7l4 .8c8 .8 16.6 1.1 25.2 1.2 34.4 .5 69.2 0 103.8-.1l104-.5c39-.1 65-.2 78-.2 5.6-.4 13.2 2.5 17 7.9 4.6 5.2 4.4 13.5 4.2 16.8 0 17.5-.8 34.9-1.4 52.2-.3 16.6-1.7 35.8 2.4 48.4 1.1 1.9 .8 1.8 2.1 1.5 2-.5 5.2-2.7 8.5-5.1 6.8-5.1 13.5-10.4 20.1-15.9 13.2-10.9 26.1-22.4 38.7-34.1 49.9-46.5 97.6-99.5 139.6-150.5 .1-.1 0-.4 0-.4 0-.1-1.5-2.9-2.3-4.3-2.2-3.5-4.6-7.1-7.2-10.6-5.2-7.1-10.8-14-16.6-20.9-11.5-13.7-23.5-27.1-35.7-40.4-24.4-26.5-49.6-52.3-75.4-77.5-12.9-12.6-26-25-39.3-37.1-12-10.2-31.9-30.4-29.9-20.4-5 13.1-4.5 32.8-4.3 50.1l1.8 55.2c-1 2.5-1.4 5.3-2.8 7.4-1.9 1.7-3.9 4.3-5.7 5.1-3.5 1.8-6.7 2.9-9.7 3.7-6.1 1.7-11.8 2.5-17.6 3.2-11.4 1.4-22.8 2.1-34 2.5-22.5 .9-44.9 .9-67.3 .8-44.7-.1-89.4-1.3-133.7-.4-6.6 .1-13.1 .3-19.4 .4-5.3 .3-10.6 .4-15.9 .9-10.6 1.1-23.3 2.4-30.2 5.7-.7 .2-1 .3-1 .1-.2-.2-.5-.4-.8-.7l0-.1 0-.5c-.1-.2-.2-.4-.4-.6-.3-.3-.8-.4-1.2-.5 0 0-.1 0-.1 0-.5-.2-.8-.1-1-.1-.3 0-.6 0-.8 0-1.9-.1-4-2.9-4.4-5.2-.6-1.9 1.4-5.1 3.6-5.9 13.1-5.4 24.2-5.6 36-7 11.6-1 23.2-1.6 34.7-2 23-.8 46-1 69-1.1 .9 0 1.8 .4 2.4 1 .2 .2 .2 .5 .3 .7 22.5 .2 44.9 .5 67.3 .5 21.5 0 43.1 0 64.5-.9 10.7-.4 21.3-1.2 31.7-2.5 5.1-.6 10.3-1.5 14.9-2.8 2.4-.6 4.4-1.4 5.9-2.2 .8-.4 .9-.6 .9-1.1l-1.8-53.4c.2-18.5-1.8-36.2 5.7-56.8zM32.7 206.1l.4 .2 0 0 .7 .5c.2 .1 .3 .2 .4 .3l0 .1-1.5-1.1 .1 0z"/></svg>