<svg xmlns="http://www.w3.org/2000/svg" viewBox="0 0 504 560"><!--! Font Awesome Pro 7.2.0 by @fontawesome - https://fontawesome.com License - https://fontawesome.com/license (Commercial License) Copyright 2026 Fonticons, Inc. --><path fill="currentColor" d="M413.2 474.5c28.9 .3 53.2-1 86.7 1.3 .9 .4 2.6 .9 4.5 3.3 1.9 2.7 1.7 5 1.7 5.4 0 4.6-.1 8.1-.1 12.2 0 2.2 0 4.4-.1 6.6-.1 13.8-.6 27.1-1.6 37.7-.2 1.7-.3 3.4-.5 5.1-.7 7.1-1.9 9.5-2.9 6-2.1-7.2-4.2-14.4-6.3-21.5-1.6-5.5-2.7-18.5-2.6-33.1 0-.3 0-.6 0-.9 0-2.5 .1-5.2 .1-7.7-22.9-.3-52.7-.3-78.8-.3-107.3 0-215 0-322.2 1.4-14 .2-27.7 .5-41.5 .9-6.8 .2-13.8 .5-20.6 .9-3.4 .2-6.8 .4-10.1 .7-1.1 .1-2.3 .3-3.3 .4-.8 17.8-.8 36-.5 54 22.2 0 48.5 0 72.7 0 101.3-.1 202.8-.3 304.2 0 19.4 .1 38.5 .8 57.6 1.1 6.8 .1 13.3 .6 17.9 1.2 4.6 .6 6.9 1.5 6.4 2.3-1.7 2.6-3.5 5.1-5.3 7.6-1.4 1.9-14.6 3.2-30.6 2.8-15.4-.3-30.9-.8-46.2-.9-101.3-.4-202.8-.2-304.1-.1-26.1-.1-49.9 .4-78.4-.2-.9-.2-2.1-.4-4.2-1.6-2.1-1-4.4-5-4.2-7.4-.4-21.3-.5-42.4 .6-63.9-.5-.6 2.2-6.3 3.7-6.6 1.4-.9 2.2-1.1 3-1.4 1.4-.4 2.5-.6 3.5-.8 2-.3 3.8-.6 5.6-.7 3.6-.4 7.2-.6 10.7-.8 7-.4 14-.7 20.9-.9 13.9-.4 27.7-.7 41.8-.9 107.5-1.4 215-1.4 322.4-1.4zM289.6-12.3c3.9 0 7.7 .5 10.9 1.4 2.1-.1 4.6-.2 8.7 1 5.8 1.3 8.9 9.5 9.2 12.4 5.6 29.1 4 55.7 4.4 83.2l-.5 81.6c.1 13.5 .2 27.1 1.1 40.4 .4 6.7 1 13.3 2 19.6 .6 3.1 1.2 6.1 2 8.7 .8 2 .5 1.3 1.2 1.6 14.6-.2 33.8-1.6 51.1-1.4 9.1 .4 17.7 .1 28.3 3.8 6.6 2 13.6 10.2 10 18-.9 3.5-3.3 6-4.8 8.6l-4.3 5.1c-23.1 26.5-47.7 51.3-72.7 75.6-12.6 12.1-25.3 24-38.4 35.7-13.5 11.6-25.6 23.1-42.5 33.2-3.6 2-7.6 2.9-11.5 1.9-1.8-.8-3.5-1.8-5-3.3l-2.8-2.4-10.1-8.4-19.9-17c-13.2-11.5-26.1-23.3-38.8-35.3-25.3-24.2-49.7-49.4-71.8-76.9-2.8-3.6-5.4-6.7-8.2-10.8-2.9-3.3-7.7-14.2-2.1-20.6 1.4-1.4 3.1-2.7 4.6-3.9l5.3-2.1c2.9-.8 5.4-1.2 7.8-1.5 4.8-.5 9.4-.6 13.8-.6l52.1 1.4 5.7 0c.4-.1 .8-.2 1-.5 .3-.3 .5-.6 .5-1.1l0-5.5-.1-26.1-.2-52.1-.6-104.3c0-9 .3-17.7 .8-25.9 0-1.6 0-3.1 0-4.6 .1-3.6 .2-7 .5-10.8 .2-2.5 1-11 5.3-15 4.6-4.6 12.8-2.2 14.8-2.7l10.3-.1 82.4-.4zM191.9 3.3l-.2 1.4-.4 4.8-.4 10 0 41.3 1.3 165.9c0 2.2-.3 4.4-1 5.9-.1 .3-.3 .4-.4 .6l0 1.4c.2 7.2-5.1 14.5-12.4 16.2-4.2 .9-6 .4-8.2 .5l-6.6 0c-17.3-.2-34.8-1.4-51.4-1.2-4 .1-8.3 .3-11.6 1l0-.1c-3.2 .6-2.8 .7-3.1 1.5-.2 .1 1 2.4 4 6.1l7.8 10c21.5 26.4 45.5 51 70.3 74.5 12.4 11.8 25.2 23.2 38.1 34.5l19.6 16.7 9.9 8.2c.6 .4 .5 .5 .8 .5 .3-.1 0 0 2.1-1.2 26.8-18.4 52.1-43.2 76.8-66.5 24.6-23.9 48.9-48.4 71.1-74 7.2-8.9 5.7-6.3 3.9-7.7-6.3-1.9-15-2.4-23.2-2.6-17.4-.2-32.6 1.1-52.8 1.4-3-1.1-6.5-1.5-8.6-4.3-2.6-2-3.7-6.1-4.4-7.7-1.3-4.1-2.1-7.9-2.7-11.6-1.2-7.4-1.7-14.6-2.2-21.8-.8-14.4-.9-28.6-1-42.8l.5-84.9c0-14.1-.1-28.2-.7-42.1-.3-6.9-.7-13.9-1.5-20.5-.4-6-3.2-15.2-2.5-12.6l-80.9 .1c-7.9 0-15.5-.3-20.9-1-.6-.1-.8-.1-1.3-.2l-5.7 0c-2.8-.1-2-.2-2.5 .4z"/></svg>