<svg xmlns="http://www.w3.org/2000/svg" viewBox="0 0 392 560"><!--! Font Awesome Pro 7.2.0 by @fontawesome - https://fontawesome.com License - https://fontawesome.com/license (Commercial License) Copyright 2026 Fonticons, Inc. --><path fill="currentColor" d="M134 284.5c4-2.8 9.6-4.1 14.3-2.4 4.8 1.8 7.4 7.4 8.5 11.8 1.1 4.7 1 7.3 1.3 10.5 .4 12.2-.3 23.5-.7 34.9l-.3 16.9 0 3.5 .1 .2c.4 .1-.5 .2 1.1 .2l137.1-.6c22.9 0 45.6-.5 69.1 .5 2.9 .1 5.9 .4 9.2 .8 3.2 .6 6.6 .7 11.8 3.8 3.1 2 5.2 6.6 5.3 9.2 .3 2.9 .1 3.7 .2 5.3l0 8.6 .1 0 .1 34.3c0 6.8-.4 13.3-1 17.9s-1.5 6.9-2.3 6.4l-8-5.3c-2-1.3-3.6-14.4-3.6-30.2l0-33.6c0-.3 0-.5 0-.7-1.1-.4-3.5-.9-5.8-1.1-5.1-.6-10.6-.8-16.1-.9-11.1-.2-22.2-.3-33.4-.2l-100.7 .6c-57.4 .2-51.8 .2-58.8 .2l-4.7-.1c-2.6-.1-5.1-1-7.3-2.4-4.4-2.7-7.1-8.4-6.9-13.1l.1-8.5 .4-16.9c.3-11.1 1.1-22.6 .2-32.6-.6-4.9-.6-3.8-1.4-4.1 .5-.6-5 3.6-9.2 6.9-8.6 6.9-16.9 14.1-25.1 21.6-16.3 14.9-31.9 30.8-47.1 47l-22.3 24.8-20.3 24.1c-2.2-2.2 5.9 9.7 11.2 15.8 5.9 7.3 12.2 14.4 18.5 21.5 12.7 14.1 25.9 27.9 39.3 41.4 13.4 13.5 27.1 26.8 41.2 39.4l10.6 9.3c2.6 2.2 1.3 1.1 1.8 1.4l.3-.1c-.2 1 1-3.1 1.4-7.4 .4-4.4 .6-8.9 .6-13.6 0-9.3-.4-18.8-.8-28.4l-.3-7.3c.3-1.4-1.1-7.1 1.6-10.9 1.6-4 6.4-6.7 10.1-7.7 2.8-.8 5.5-1.4 8-1.8 20.3-3 39.3-2.8 58.6-3.1 38.5-.2 76.8 .9 114.8 .1 6.6-.2 13.2-.2 19.2-.3 1.6-.1 3.3-.1 4.9-.3 6.3-.6 14.6-1.7 17.6-3.3 .9-.6-.7 1.3 .8 1.7l.5 .2c.7 .2 1.8 .5 2.7 1.2 1.6 1.3 3.7 3.1 4.5 5.3 .8 1.7-.8 4.5-2.3 5-17 5.9-30.3 5-45 6.2-14.4 .6-28.7 .8-43 1-.6 0-1.2-.4-1.6-1-.1-.2-.1-.5-.2-.7l-77.1-.1c-18.6 .3-38 .3-55.2 3.4-5.2 1.3-3.9 .9-4.3 2l.4 13.1c.4 9.5 .8 19 .7 28.8-.1 4.9-.2 9.8-1 15-.3 2.4-.9 5.5-2 8.8-1.6 3.6-4.1 7.4-7.7 9.2-7.4 3.5-17.4-4.6-19.4-6.6l-10.8-9.5c-14.2-12.8-27.8-26.1-41.2-39.6-13.4-13.5-26.5-27.3-39.3-41.5-6.4-7.1-12.7-14.3-18.8-21.8-3-3.7-6-7.6-8.9-11.7-1.6-2.5-2.5-3.3-4.7-7.8-1.9-3.8-2.2-8.5 .4-11.9l23.4-27.8c7.6-8.7 15.2-17.3 23.1-25.7 15.7-16.8 31.9-33.3 49.1-48.8 8.6-7.8 17.3-15.3 26.6-22.5 2.8-2 3.5-3.2 8.1-5.7zM14.6 93l0 0-2-2.2 0 0 .5 .5 1.4 1.6 .2-.4c.2-.4 .3-.9 .3-1.3-1 .1-1.5 .1-1.2-1.2-.4-.5-.6-.5-.8-.5l-.3 0c-.2 .1-.4 .2-.7 .2 0-.1 .1-.1 .2-.2l-.9 0c-1.7-.4-2.7-3.2-2.8-5-.2-1.9 1.7-4.2 3.3-4.5 19.8-5 37-4.7 55.2-5.8 18-.7 36-.9 53.9-1.1 .7 0 1.4 .4 1.9 1 .2 .2 .1 .5 .2 .8l53.2 .1c18.6-.3 38-.3 55.2-3.4 5.2-1.3 3.9-.9 4.3-2l-.4-13.1c-.4-9.5-.8-19-.7-28.8 .1-4.9 .3-9.8 1-15 .3-2.4 .9-5.5 2-8.8 1.6-3.5 4-7.4 7.6-9.2 7.4-3.5 17.5 4.6 19.4 6.6l10.8 9.5c14.2 12.8 27.8 26.1 41.2 39.6 13.4 13.5 26.5 27.3 39.3 41.5 6.4 7.1 12.7 14.3 18.8 21.8 3 3.7 6 7.6 8.9 11.7 1.6 2.5 2.5 3.3 4.7 7.8 1.9 3.8 2.2 8.5-.4 11.9l-23.4 27.8c-7.6 8.7-15.2 17.3-23.1 25.7-15.7 16.8-31.9 33.3-49.1 48.8-8.6 7.8-17.3 15.4-26.6 22.6-2.8 2-3.5 3.1-8.1 5.7-4 2.8-9.6 4.1-14.2 2.5-4.8-1.8-7.4-7.4-8.5-11.8-1.1-4.7-1.1-7.3-1.3-10.5-.4-12.2 .3-23.5 .6-34.8l.4-16.9 0-3.5-.1-.2c-.4-.1 .5-.2-1.1-.2l-137.1 .6c-22.9 0-45.6 .5-69.1-.5-2.9-.1-6-.4-9.2-.8l-.1 0c-3.2-.6-6.6-.7-11.8-3.8-3.1-2-5.2-6.6-5.3-9.2-.3-2.9-.1-3.7-.2-5.3l0-8.6-.1-34.3c0-6.8 .3-13.3 1-17.9 .6-4.6 1.5-6.9 2.3-6.4l8 5.3c2 1.3 3.6 14.4 3.6 30.2l.1 33.6c0 .3 0 .5 0 .8 1.1 .4 3.5 .9 5.8 1.1 5.1 .6 10.6 .8 16.1 .9 22.1 .5 44.6 .2 67 .1l67.2-.4c57.4-.2 51.8-.2 58.8-.2l4.7 .1c2.6 .1 5.2 1 7.4 2.4 4.4 2.7 7.1 8.4 6.9 13.1l-.1 8.5-.5 16.9c-.3 11.1-1.1 22.6-.2 32.6 .6 4.9 .5 3.8 1.4 4.1-.5 .6 5-3.6 9.2-6.9 8.6-6.9 16.9-14.1 25.1-21.6 16.4-14.9 32-30.8 47.1-47l22.3-24.9 20.3-24.1c2.2 2.2-5.9-9.7-11.2-15.8-5.9-7.3-12.2-14.4-18.5-21.5-12.7-14.1-25.9-27.9-39.3-41.4-13.4-13.5-27.1-26.8-41.2-39.4l-10.6-9.3c-2.6-2.2-1.3-1.1-1.8-1.4l-.3 .1c.2-1-1 3.1-1.4 7.4-.4 4.4-.6 8.9-.6 13.6 0 9.3 .4 18.8 .8 28.4l.2 7.3c-.3 1.4 1.1 7.2-1.5 10.9-1.6 4-6.5 6.7-10.1 7.7-2.8 .8-5.5 1.4-8 1.8-20.3 3-39.3 2.8-58.7 3.1-38.5 .2-76.8-.9-114.8-.2-1.7 0-3.2 .1-4.9 .1-13.1 .7-26.3 1.6-36.5 4.4-.5 .2-1 .1-.9-.1-.2-.4 .2 .2-.7-1z"/></svg>