<svg xmlns="http://www.w3.org/2000/svg" viewBox="0 0 616 560"><!--! Font Awesome Pro 7.2.0 by @fontawesome - https://fontawesome.com License - https://fontawesome.com/license (Commercial License) Copyright 2026 Fonticons, Inc. --><path fill="currentColor" d="M214.4 92.4c2.6-.2 5-.3 7.1 .5 4.7 1.6 6.1 6.8 7.2 11.6 .9 6.8 .9 12.1 1 17.8 .1 44.7 .1 89.3-.1 133.8l0 50.1c0 2.2 .2 1.5 .5 2.1 .9 .3-.6 .4 3.2 .3 11 0 22-.5 33.2-.9l17-.4c6 .5 11-.7 20.5 3.4l0-.1c4.5 2.1 7.8 6.4 7.5 11.4-.6 4.9-3.3 9.4-5.3 12.3-3.4 4.6-6.9 9-10.5 13.4-7.2 8.8-14.6 17.2-22.3 25.5-15.3 16.5-31.3 32.4-47.7 47.6l-25 22.5-27 22.9c-2.2 1.3-4.8 1.8-7.4 1.9-2.5-.5-5.3-1.5-7.5-2.8-2.9-1.7-5.5-3.5-8-5.3-4.9-3.6-9.6-7.3-14.1-11.1-9.1-7.6-17.9-15.4-26.6-23.3-17.3-15.9-34.1-32.2-50.6-48.9-8.2-8.4-16.3-16.9-24.3-25.6L23.5 337.9c-1.2-1.3-5.9-6.6-6.5-11.6-1.9-5.3 1.5-10.7 5.9-13.5 9.7-5.5 15.1-4.7 21.5-5.5 6.1-.3 12.2-.4 18.1-.3l33.4 1c.3-.5-.2 1.1 .5-1.5 .8-2.6 1.3-6 1.8-9.4 .8-6.7 1.3-13.8 1.6-20.9 .6-14.2 .5-28.6 .5-43-.2-28.8-1-57.7-.5-86.9 .3-13.7 1.4-27.1 4.5-38 .4-1.7 1.3-3.7 1.9-5.5 1.8-3.9 4.5-7.8 8.5-7.9 2.8 .1 1.5 .5-1.5 2.4-3.6 4.8-1.9 8.3-2 12 .4 3.6 1.1 7.2 1.8 10.7 1.1 5.4 1.5 17.9 1.4 32.1L115 236c.1 14 .1 28.1-.5 42.3-.3 7.1-.8 14.2-1.7 21.5-.5 3.7-1 7.3-2.3 11.4-.3 1.6-2 5.6-3.9 7.6-2.1 2.2-4.9 3.7-8 4l-36.3-1c-5.7-.1-11.4-.1-16.9 .2-5.1 .2-12 1.6-12.6 2.1-.4 .2-.7 .6-.5 1 .3 .6 .1 .4 2.6 3.3l11.4 12.9c7.8 8.5 15.8 16.9 23.9 25.2 16.2 16.5 32.9 32.7 50 48.3 8.6 7.8 17.2 15.5 26 22.8 4.4 3.7 8.9 7.2 13.4 10.5 2.2 1.6 4.5 3.2 6.6 4.4 .4 .2 .7 .4 1 .1l24.5-20.8 25.2-22.7c16.5-15.4 32.5-31.3 47.7-47.8 7.6-8.3 15-16.7 22-25.4l5.2-6.6c1.6-2.1 3.8-5 3.8-5.1 .3-1 .9-.8-1.2-1.2-8.4-1.2-20.9-.5-31.9-.2l-17.1 .6-8.6 .2c-2.9-.3-5.1 .9-11.3-1.1-5.2-1.9-9-6.7-10-12-.3-1.6-.3-2.7-.3-3.5 0-36.6 0-78.6 .2-125.8 0-22.6 .4-45.7-.4-67.7l-.5-6-14.4 0-34.1 .1c-6.7 0-13.2-.3-17.8-1s-6.9-1.5-6.3-2.4l5.2-8c1.3-2 14.2-3.6 29.9-3.6l33.4-.1 4.3 0zM586.8 403.2c1.5 0 3 .3 4 .9s1.5 1.4 1.5 2.3l-1 8.1c-.2 2-3.1 3.6-6.7 3.7-74.5 2-148.8-.8-222.7 1-3 .1-6-.5-8.3-1.5l-1.1-.5c-1.6-.7-2.1-2-1.4-3.1l4.6-6.7c1.2-1.7 4-2.9 7.3-3 74.9-1.8 149.7 .9 223.9-1.2zm-47-87.5c1.2 0 2.4 .3 3.2 .9s1.3 1.4 1.2 2.3l-.7 8.1c-.2 2-2.5 3.6-5.3 3.7-59.8 2.1-119.4-.8-178.5 1.1-2.4 .1-4.8-.5-6.7-1.6l.1 0-.9-.5c-1.3-.7-1.7-1.9-1.1-3l3.6-6.7c.9-1.7 3.2-2.9 5.8-3 60.1-2 120 .9 179.4-1.3zm-70.4-87.5c.8 0 1.5 .3 2 .9 .5 .6 .8 1.4 .8 2.3l-.4 8.1c-.1 2-1.5 3.6-3.3 3.6-18.7 .7-37.6 1.4-56.6 .7-18.5-.7-36.9-.1-55.6 .6-1.5 0-3-.5-4.2-1.6l-.6-.5c-.8-.7-1.1-2-.7-3l2.2-6.7c.6-1.7 2-2.8 3.6-2.9 18.8-.7 37.9-1.3 56.8-.6 18.5 .6 37.1-.1 55.9-.8zm-47-87.5c.5 0 .9 .3 1.2 .9s.5 1.5 .5 2.3l-.1 8.1c-.1 2-.9 3.5-2 3.6l-17.2 .8-8.7 .3-4.4 .1-2.4 0-1.4-.1-1-.1-.5-.1c-.3-.1 .3 .3-2.2-.7l-30.1 1.1c-.9 0-1.9-.5-2.6-1.6l0-.1-.4-.5c-.5-.7-.7-2-.5-3.1l1.3-6.6c.3-1.7 1.2-2.8 2.2-2.9 11.6-.1 22.8-2.2 35.1-.2 9.2 0 22.2-.7 33.1-1.2z"/></svg>