<svg xmlns="http://www.w3.org/2000/svg" viewBox="0 0 560 560"><!--! Font Awesome Pro 7.2.0 by @fontawesome - https://fontawesome.com License - https://fontawesome.com/license (Commercial License) Copyright 2026 Fonticons, Inc. --><path fill="currentColor" d="M528.4 167.6c-15.7-31-35.5-60.4-61.5-83.5-11.9-12.9-27-21.9-40.7-32.6-7.5-4.4-15.2-8.5-22.8-12.7l-11.4-6.3-12.2-4.7c-31.9-14.5-67.5-18.6-102.2-18.9-17.3 2.3-35.1 2.1-51.6 8.1-8.4 2.4-16.9 4.5-25.2 7.3L177.1 35.4c-31.5 15.1-58.6 37.4-83 61.8-24.9 24.1-44.3 53.8-58.6 85.3-28.4 63-36.6 136.1-16.8 203.3 10 33.4 27.7 64.6 52 90 24.3 25.3 54.8 43.8 87.1 56.4 25 9.8 51.2 15.6 77.7 17.9 2.4 .9 4.9 1.8 7.9 2 47.7 3.4 96.2-5.3 139.6-25.3 43.4-19.9 81.6-50.5 111-87.6 2.8-3.5 4-7.3 2.6-8.8l-5.4-6c-.6-.6-1.7-.6-3-.1-1.3 .6-2.7 1.8-3.9 3.2-24.7 31.8-56 58.1-91.3 77.2-5.9 2.9-12.4 6.4-20.2 9-60.7 26.3-131 29.6-194.2 10.3-62.6-19.8-118.6-65.3-140.9-127.9-23-61.7-18.5-132.8 5.7-194.2 23.9-62 71.2-114 128.4-147.6 57.6-31.9 128.8-40.8 191.1-17.2l23.2 8.8 21.8 12c7.5 3.6 14.2 8.5 20.8 13.6 6.6 5.1 13.6 9.6 19.8 15.1 24.7 22.2 46.1 48.1 61.9 77.3 4.3 7.1 6.8 15.1 10.2 22.6 3.4 7.6 6.7 15.2 8.3 23.3l6.2 24 2.4 24.6c2.2 16.5-.4 32.4-5.1 47.6-5.2 15.1-14.8 28.2-26.4 39.1-23.9 20.8-58.2 30.8-89.3 23.8-31.2-6-58-30.6-62.9-62.6-1.2-6.5-2.2-12.7-3-18.7l.2-.2c1-1.2 1.5-2.7 1.3-4.1-2.7-35.1-2.8-72.7 6.3-105.9 .5-1.5-.5-3.3-2.3-4.2l-7.3-3.4c-.8-.4-1.7-.4-2.4-.1-.8 .3-1.4 .9-1.6 1.7-6.8 24-8.7 47.6-8.8 71.1-1.4 16.5-1.4 36.6 1.6 57.4 .4 5 1.4 10 2.7 15-.4 .6-.9 .9-1.3 1.5-15.9 28.1-42 51.4-72.9 53.7-15.2 0-30.4-4.2-43.3-13.1-12.2-9.5-22.6-21.7-28.2-36.4-11.5-29.4-3.3-63.7 17.2-88.6 9.9-12.8 22.4-23.2 37-29.1 14.6-5.9 31-7.8 47.4-7.2 5.7 .1 10.8-.4 13.2-2l9.4-5.6c1.6-.9 .8-2.3-2.1-3.3l-2.1-.8c-4.2-1.7-9.8-2.7-15.6-3-17.5-.7-35.9 .6-53.3 7.2-17.4 6.5-32.4 18.3-43.8 32-23.7 26.8-34.5 66.9-22.7 102.2 6.7 17 16.8 33 31.7 44.1 14.8 10.6 32.5 18.6 51.4 18.1 18.4-.4 37.1-6 51.2-17.4 3.6-2.7 7.5-5.2 10.8-8.2l9-9.9c5.4-5.2 9.5-11.3 13.3-17.5 11.4 23 31.9 42.1 56.6 49 35.2 11 74.3 3.7 103.7-17.7 30.2-21.1 46.5-58.4 46-94.3-1.9-35-9-69.9-24.6-101.3l-.1 0z"/></svg>