<svg xmlns="http://www.w3.org/2000/svg" viewBox="0 0 616 560"><!--! Font Awesome Pro 7.2.0 by @fontawesome - https://fontawesome.com License - https://fontawesome.com/license (Commercial License) Copyright 2026 Fonticons, Inc. --><path fill="currentColor" d="M569.4 78.5c3.4-.8 7.4-2.7 13.8-1 3 .5 5.6 1.9 7.6 4.3 1.7 2.4 2.2 5.4 3.2 8.2l0 0c5.9 117.6 2.1 232.2-1 348.3-.2 6.5-.8 12.5-1.6 18.1l-.2 5.1c-.3 3.7 .3 6.4-1.3 13.7-1.9 6.6-9.6 9.2-15.9 8.4-4.8-.6-8.6-1.8-12.3-3.1-7.4-2.7-14-6.1-20.6-9.6-13.1-7-25.4-14.8-37.6-22.8-24.3-16.1-47.7-33.4-70.7-51.2-22.9-17.8-45.4-36.3-67.2-55.6-10.9-9.7-21.6-19.6-31.9-30.2-5.1-5.3-10.2-10.7-15-16.7-2.4-3-4.7-6.1-6.9-10-2.9-4.8-4.9-13.6 .7-18.1l55.8-46.9 55.4-44.7c37.5-29.2 74.9-58.3 116.4-83.2 9-5 17.8-9.7 27.1-12.1 .8-.3 1.5-.6 2.3-.9zM293.7 77.1l0 .1c6.8 .6 9.7 7.1 11 12.9 5.9 117.2 2.1 232.2-1 348.2-.2 6.5-.8 12.6-1.6 18.2l-.2 4.3-.3 9.3c-.5 4.4-1.7 8.9-6 10.6-3.7 1.9-8.7 1.2-13.2 .1-3.1-.9-5.6-1.8-8.1-2.9-38.5-18-71-42.1-104.5-65.7-33-24-65.2-49.1-96.2-75.9-15.4-13.7-30.7-27-44.4-43.7-1.7-2.2-3.4-4.4-5-6.9-.8-1.2-1.6-2.7-2.3-4.2-1-2.2-1.7-4.7-1.7-7.1-.2-4.7 3.9-9.8 5.2-11.2 1.8-2.2 3.7-4.2 5.5-6.1 7.4-7.6 14.9-14.5 22.6-21.4 3.2-2.8 6.5-5.5 9.8-8.3 31.1-27.9 63.9-53.4 97.3-78.3 19.9-14.7 40.3-28.8 61.3-42.1 .8-.5 1.5-1 2.3-1.5 .5-.4 1-.7 1.6-1.1 1-.6 2.1-1.1 3-1.7 7.3-4.5 14.6-8.9 22.1-13.1 6.1-3.1 12.2-6.2 18.3-8.4 3.6-1.4 7.2-2.7 11.3-3.7 3.8-.7 7.3-2.1 13.5-.4zM579.2 92.3c3.8-2.5-12.5 1.6-23 8.1-11.3 6.1-22.5 13.1-33.4 20.5-21.9 14.7-43.2 30.5-64.2 46.6-42.1 32.3-83.2 66-123.7 100.4-3.4 2.9-6.9 5.4-9.6 6.9-.2 .1-.4 .1-.6 .2l-.4 .3c-.4 .6-.6 .4 .4 2 1.5 2.5 3.5 5.3 5.6 8 4.4 5.4 9.3 10.7 14.3 15.8 10.1 10.3 20.8 20.2 31.7 29.9 21.8 19.3 44.4 37.9 67.5 55.8 23.1 17.8 46.7 35.1 71 51 12.2 7.9 24.5 15.6 37.2 22.1 6.3 3.2 12.8 6.3 18.9 8 1.5 .4 3 .8 4.2 .8l.7 0c.3-.6 .2 .9 .3-2.4 3.7-117.2 7.3-234.8 3.5-351.6-.3-4.9-.2-9.4-.1-13.3-.1-3-.2-6-.3-9zM289.3 91.2c-.2 0-3.7 .1-6.1 .9-5.5 1.5-11.5 3.9-17.3 6.8-8 3.8-15.8 8.3-23.6 12.9-4.3 2.5-8.5 5.1-12.7 7.7-8.2 5.2-16.3 10.6-24.3 16.1-17.9 12.3-35.5 25.2-52.9 38.3-28 21.3-55.4 43.5-81.8 66.6-9 8.1-17.8 16.4-26.3 24.9-3 3.1-5.8 6-8 7.7-.1 .1-.2 .1-.3 .2-.7 .9-1 1.3-1 1.5 0 .1 .1 .4 .1 .4 .1 .4 .8 1.5 1.2 2.3 2.2 3.6 5.4 7.4 8.6 11 13.2 14.6 28.5 28.1 43.9 41.4 30.9 26.3 63.2 51.2 96.2 75 16.5 11.8 33.3 23.4 50.3 34.3 8.5 5.4 17.2 10.7 25.9 15.6 8.2 4.6 18.8 9.9 25 11.6 .4 .2 .8-.1 .7-.5l.5-14.7 1-30.6 1.7-61.3c1.8-81.6 3.2-163.4 .3-244.6-.2-4.8-.2-9.3-.1-13.2-.1-3.2-.2-6.4-.3-9.6-.1-.3-.2-.6-.6-.6z"/></svg>