<svg xmlns="http://www.w3.org/2000/svg" viewBox="0 0 504 560"><!--! Font Awesome Pro 7.2.0 by @fontawesome - https://fontawesome.com License - https://fontawesome.com/license (Commercial License) Copyright 2026 Fonticons, Inc. --><path fill="currentColor" d="M74.4-7.6c3.9 0 6.7 0 11.6 .3 3.2 .3 6.5 .6 8.9 2 2.4 1.5 3.3 4.2 3.9 6.9l.1 88.2c1.4 664.8 .8 372.7 1 464.7 .1 5.9-5 9.9-10.9 11.3-4.9 1.2-7.2 1.4-10.7 1.9-12.8 1.4-25.2 1.6-37.8 1.1-4.7-.2-9.3-.8-13.7-1.7-1.2-.1-2.4-.2-3.7-.4-2.8-.5-6-.7-11.7-3.1-5-2.2-6.8-7.2-6.2-12.9l0-8.7 0-34c0-67.9 0-203.7 .1-407.4 0-5.8 .2-11.4 .3-16.9L5.3 39.4c0-3.6 .6-7.1 1.7-9.8l.5-1.3c.7-1.8 2-2.5 3.1-1.6l6.6 5.6C18.9 33.6 20 37 20 40.8l1.7 261.9c0 1.8-.3 3.5-1 4.7-.2 .4-.6 .3-.8 .6l0 242.8c.1 .4 .3 .3 1 .5 4.7 1 10.2 1.5 15.6 1.9 10.8 .6 22 .6 32.8-.1 5-.3 11.6-1.1 14.5-1.9 .8-.4 .5 1 .5-6.7L84 83.7 83.8 15.5c0-.7 .1-1.3 .1-2l0-6 0 0-2.3-.1-13.4 0-27.3 .9c-7.6 .4-15 .4-20.2 .1-5.2-.3-7.9-1-7.3-1.9l5.4-8.4c1.3-2.1 16.1-4.5 34.1-5.2l21.5-.5zM476.6 28.1c4.2-1.3 15.7 1.2 17.8 9l1.7 5.6 .2 3.2c.2 3.2 .5 9.6 1.1 19.3 5.2 137.2 1.2 273.9-2.7 410.7-.2 8-.9 15.5-1.8 22.5l-.2 3.9-.2 6.7c-.1 2.1-.1 4.1-.7 8.9-.3 8.7-10.2 11.9-18 9.8-5.5-1.2-9.8-2.9-14.1-4.8-8.7-3.7-16.7-8.1-24.6-12.5-15.8-8.9-31-18.6-46.1-28.5-30-19.8-59.2-40.8-87.9-62.4-28.7-21.6-56.9-43.9-84.3-67.2-13.7-11.7-27.2-23.6-40.2-36.3-6.5-6.4-12.9-12.9-19-20-3-3.6-6-7.3-8.7-11.8-2.3-2.8-7.6-15.4-.3-20.9 47.1-40.4 91.2-76.6 138.2-113.7 46.8-36.4 93.5-72.7 145-103.6 9.9-5.5 19.7-10.6 29.7-13.8 .2-.1 .4-.2 .7-.3 4.4-1.6 8.6-3.3 14.3-3.7zm4 14.5c-2.8-.4-12.5 2.3-19.3 5.6-14.9 6.9-29.4 15.9-43.7 25-28.5 18.6-56.1 38.9-83.4 59.6-54.4 41.6-107.6 85.1-159.9 129.4-4.2 3.6-8.5 6.8-11.8 8.8-.3 .2-.4 .2-.6 .3-.5 .4-1 .8-1.5 1.2-.3 1-1-.3 1.4 4 2 3.3 4.7 6.7 7.5 10 5.7 6.6 11.9 13 18.3 19.3 12.9 12.5 26.4 24.4 40.1 36.1 27.5 23.4 56 45.8 85 67.6 29 21.7 58.5 42.8 88.7 62.6 15.1 9.9 30.4 19.5 46 28 7.8 4.2 15.8 8.3 23.6 11.1 1.9 .7 3.8 1.3 5.6 1.7 .6 .1 .4 .1 .7 .1 .4-.9 .1 1.7 .4-4.7l0 0c4.7-145.1 9.1-290.7 4.4-435.4-.4-7.2-.4-14-.2-19.4l-.4-7.4-.2-2.8-.1-.4c-.2-.2-.1-.3-.7-.4z"/></svg>