<svg xmlns="http://www.w3.org/2000/svg" viewBox="0 0 504 560"><!--! Font Awesome Pro 7.2.0 by @fontawesome - https://fontawesome.com License - https://fontawesome.com/license (Commercial License) Copyright 2026 Fonticons, Inc. --><path fill="currentColor" d="M204.2-4.3c9.3 .2 18.4 .8 27.9 2.9 9.5 1.3 20.9 9.1 25.8 17.4 11.1 16.8 14.9 35 18.3 52.7 2.4 14 3.8 28 4.7 42 19.3 .1 38.6 .7 57.9 1.9 17.6 1 35.2 2.5 52.7 4.7-.1-.5-.3-.8-.4-1.3-1.4-30.6-3.7-63.6-17.7-88.7-3.6-5.9-8.3-10.7-13.4-12.5-6.1-2.1-13.9-3.1-21.2-3.7-14.7-.6-30.9-.5-42.8 5.3-2 1-4.3 1.4-6.5 1.2l-1.1-.1c-1.5-.1-2.5-1-2.5-2.2 0-2.4 .2-5 .4-7.5 .2-2 2.1-4.2 4.8-5.5 16.8-7 33.6-6.7 50.1-5.9 8.4 .8 16.5 1.6 25.5 5 9.7 4.4 15.7 12 20.2 19.6 16.3 31.3 17.5 64.4 19.1 96.6 0 .6-.3 .9-.4 1.4 7 1.1 14 2.4 21 4.3 4.9 1.3 9.9 2.8 14.9 5.1 2.5 .9 5.2 2.8 7.7 4.6 1.4 1.3 2.7 2.6 3.9 4.2l2.4 6.3c19.6 164.9 32.7 274.7 39.2 329.5l-.1 .2 6.5 55c.4 4.4-1.5 8.9-3.9 11.7-2.3 2.7-4.9 4.4-7.3 5.9-4.8 2.8-9.6 4.4-14.3 6-9.4 2.9-18.7 4.6-28 6.1-74.3 10-148.3 8.3-222.2 6.3-83.1-3.1-138.3-8.9-166.1-12.7-9.2-1.3-18.4-2.7-27.8-4.6-4.7-1-9.3-2-14.2-3.6-3-.8-15.6-4.8-15.2-14.2l25-316.1c.9-11.6 2-22.9 3.3-33.3l2.9-38.4c.4-4.4 3.7-8.6 6.8-10.6 2.8-2 5.2-3.1 7.7-4.2 4.9-2 9.6-3.3 14.4-4.5 9.4-2.4 18.7-3.9 28.1-5.3 2.4-.4 4.8 0 6.7 .8l1 .4c1.3 .6 1.9 1.8 1.4 2.9l-2.8 7c-.7 1.8-2.8 3.2-5.2 3.5-8.8 1.3-17.7 2.8-26.1 5-4.2 1.1-8.4 2.3-12 3.8-1.7 .8-3.5 1.6-4.5 2.5-.8 .5-.6 .6-.7 1l-8.9 118c-.1 1.1-.5 2.2-1.2 3l-.1 0-20.7 262.1c-2.5 .4 9.3 4 17.4 5.5 8.8 1.8 17.8 3.2 26.8 4.4 18.1 2.5 36.3 4.4 54.6 5.9 36.5 3.2 73.2 5.2 109.9 6.6 30.4 .9 61 1.5 91.5 1.4 0-.4 0-.8 0-1.2 8.6-136.1 19.3-271.6 30.1-407.4 .2-2 .5-4 .8-5.9l.6-8.2c-6.5-.4-12.9-.9-19.4-1.2-16.1-.9-32.2-1-48.2-1.1 .5 14.8 .3 29.7-.4 44.6 3.3 .9 6.5 2.3 9.1 4.9 4.2 4.2 6.6 9.7 6.7 15.7 .2 6.1-2.8 12.2-7.1 16-8 8.3-23.8 8.3-31.9-.1-4.2-3.8-7.1-9.2-7.8-15.2-1.5-6.2 3.4-15 7.7-17.5 1.4-1.1 3-1.4 4.5-1.1l.2 .1c1.3-.8 2.4-1.9 3.7-2.4l0-.3c.7-14.9 .8-30 .2-45-20.2 .1-40.5 .5-60.7 .8-9.7 .1-19-.1-25.7-.6-6.6-.6-10-1.4-9.2-2.2l7.2-8.1c1.8-2 20.6-3.8 43.3-4.2 14.8-.3 29.5-.4 44.3-.5-1-14.6-2.6-29.2-5.2-43.5-3.3-16.5-7.8-33.8-17.2-45.4-4.6-5.9-9.6-8.2-18.2-9.6-8-1.4-16.5-2-24.8-1.9-8.3 .1-16.7 .9-24.2 2.9-7 2.3-14.1 6-19.7 11-11.5 10-17.4 25.7-20.4 42-6 33.1-1.9 68-2.5 103.8 0 .4-.1 .8-.1 1.2 2.3 1 4.7 2.1 6.5 4 4.2 4.2 6.6 9.7 6.7 15.7 .2 6.1-2.8 12.2-7.1 16-8 8.3-23.8 8.3-31.9-.1-4.2-3.8-7.1-9.2-7.8-15.2-1.5-6.2 3.4-15 7.7-17.5 1.4-1.1 3-1.4 4.5-1.1l.2 .1c2.2-1.4 4.4-2.4 6.7-2.9 0-1-.2-1.8-.2-2.8 .4-34.6-3.8-70.5 3.3-106.9 3.6-17.9 11.5-37 27.3-49.5 3.7-3.4 8-5.8 12.6-7.8 4.3-2.4 9.2-4.1 13.9-5.1 9.5-2 18.7-2.6 28-2.5zM358 219c0 .6-.5 1.2-1.1 1.5-.1 0-.2 0-.2 0-8.6 110.2-17.1 220.4-23.9 330.4 30.4-.4 60.6-2.2 90.5-5.3-6-74.3-5.1-148.2-9.3-221.6-.1-1.5 .2-3 .8-4s1.4-1.6 2.3-1.5l8.1 .7c2 .2 3.7 3 3.9 6.5 4.1 73.1 3.2 146.4 9 218.5 2.6-.3 5.2-.4 7.7-.8 8.9-1.4 17.7-3.1 25.9-5.7 4-1.3 8.1-2.7 11.2-4.6l-.1 0c3.4-2 4.2-3.7 3.9-3.6-5.4-45.4-30.5-255.9-45.7-383.7 .8 .5-2.1-2.4-6.4-3.9-4-1.8-8.7-3.2-13.5-4.3-9.6-2.4-19.6-4-29.7-5.3-9-1.2-18.2-2.1-27.3-2.8L358 219z"/></svg>