<svg xmlns="http://www.w3.org/2000/svg" viewBox="0 0 560 560"><!--! Font Awesome Pro 7.2.0 by @fontawesome - https://fontawesome.com License - https://fontawesome.com/license (Commercial License) Copyright 2026 Fonticons, Inc. --><path fill="currentColor" d="M532.3 472.9c3.3 0 6.4 .4 8.6 1s3.4 1.5 3.1 2.4l-2.5 8c-.7 2-6.9 3.5-14.6 3.5l-481.3-.9c-6.6 0-13-.7-18-1.8l-2.5-.5c-3.4-.8-4.5-2-2.8-3.1l10.4-6.6c2.7-1.7 8.9-2.7 15.9-2.7l483.7 .8zM519.6 267.2c6.7 0 13.2 .5 18.3 1.6l2.5 .5c3.4 .7 4.6 2 2.9 3.1l-10.4 6.6c-2.7 1.7-8.9 2.8-16 2.9-162.9 .1-325.7 6.2-488.9 7.4-3.3 0-6.5-.3-8.8-.9-2.2-.6-3.4-1.4-3.1-2.3l2.5-8.1c.6-2 7-3.6 14.7-3.6 81-.6 162-2.2 243-4.2 81.1-1.8 162.2-2.5 243.2-3zM532.2 72.8c3.3 0 6.5 .4 8.7 1s3.4 1.5 3.1 2.4l-2.6 8c-.7 2-7 3.5-14.7 3.5L40.4 87.1c-6.7 0-13.2-.6-18.2-1.8l-2.5-.6c-3.4-.8-4.6-2-2.8-3.1l10.5-6.6c2.7-1.7 9-2.8 16-2.8l488.9 .5z"/></svg>