<svg xmlns="http://www.w3.org/2000/svg" viewBox="0 0 616 560"><!--! Font Awesome Pro 7.2.0 by @fontawesome - https://fontawesome.com License - https://fontawesome.com/license (Commercial License) Copyright 2026 Fonticons, Inc. --><path fill="currentColor" d="M118.2 109.4c67.2-.1 134.3-.4 201.6 .6l137.7 1.6 23.6 .1c.1 0 .3 .2 .4 .2l42.6 .5c2.9 .8 6.2 1.9 7.7 5.1 1.5 2.5 2.3 7.7 2.6 9.1 .7 4 1.1 7.8 1.5 11.7 .7 7.7 1.3 15.2 1.7 22.8 .6 11.6 .9 23.1 1.2 34.7 1.5-.7 3.2-1.2 5.3-1.2l29.6-.2c9.8-1.3 14.3 10.9 15.1 14.5 1.5 5.2 2.5 10.2 3.4 15.2l.1 0c3.1 19.9 4.1 39.7 4.4 59.5 0 19.9-.2 39.5-4.2 60-1.5 5.5-1.5 9.7-6.9 17.4-2.8 3.7-8.1 5.4-12.2 5.1l-7.3 0-28.6 .2c-.3 7-.6 14-1 21-1.1 15.2-2.1 30.1-5 45.8-.4 2-.9 4-1.5 6.1-.7 2.4-2.2 6.8-4.6 9-2.4 2.7-5.9 3.2-9.5 3.1l-6.3 0-22.5 0c-120.3 .5-240.3-.4-360.7-2-20.1-.2-39.4-1-55.5-2.1l-26-.3c-3.6-1.1-6.9-2.7-9.1-6-2.4-3-2.7-5.1-3.7-7.5-1.5-4.5-2.4-8.8-3.3-13.1-1.5-8.6-2.7-17.1-3.6-25.6-1.8-17-2.7-33.9-3.4-50.8-1.3-33.8-1.4-67.5-.5-101.3 1.1-33.8 2.4-67.4 7.7-101.5 .6-4.2 1.6-8.6 2.6-12.9 1.8-4.5 1.1-8.5 7-14.9 1.1-1.7 3-2.2 4.7-2.8 1.5-1.4 3.5-1 5.8-1.1 7.4 0 30.5 0 69.3 0zm-.4 14.8l-50.5 .1-18.8 0c-.1 0-.2 0-.2 .1 .2-.9-1.8 4.3-2.5 7.5-.9 3.8-1.7 7.7-2.4 11.8-5 32.4-6.4 66.1-7.5 99.4-.9 33.4-.8 66.9 .5 100.3 .7 16.7 1.6 33.4 3.3 49.8 .8 8.2 2 16.3 3.4 24.3 1 7.4 5.2 17.5 4.2 14.6l115.2 1.3c11.1 .1 21.6 .6 29.2 1.3 1.8 .2 3.5 .4 4.8 .5 98.3 1.1 196.6 1.7 294.9 1.3l22.3 0c1.6 .1 1.4-.1 1.8-.8 .6-1.9 1.5-6.1 2-9.4 2.3-14.1 3.3-28.9 4.3-43.5l0-.1c1.8-29.4 2.5-59 2.9-88.6 .7-66.6-.8-111-2.1-133-.4-7.3-.9-14.7-1.6-21.8-.4-3.6-.8-7.2-1.4-10.5-.4-2.1-.2-1.6-.8-1.8l-53.9-.6-105.1-.5c-.7 0-1.2-.5-1.9-.7l-38.4-.5c-67.2-.9-134.6-.7-201.9-.6zm275.5 49.9l9.8 0 17.8 .2c6.5 .1 12.8 1 17.6 2.3l2.4 .6c3.3 .8 4.3 2.1 2.7 3.1l-10.2 6.3c-2.6 1.6-8.6 2.5-15.3 2.4l-17.5-.1-7.6 0c-.6 0-1 .2-1.2 1-.5 2.2-1.2 9.7-1.2 14.9l-.2 17.4c.4 47.1 .6 93.5 .8 139.2 .1 4.6-.2 13.4 .2 11.6-1.5 .1 6.6 .3 11.8 .1l32.8-1.5c.2 0 .3-.1 .3-.2l.5-2.3c.6-3.6 1-7.3 1.4-11.1 .7-7.6 1.3-15.3 1.6-23.1 .7-15.5 1.1-31.1 1.2-46.8 .1-31.1 .1-62.8-2.5-93.2-.3-3-.4-5.9-.1-7.5 0-.6 .2-.3 .4-.5-1.1 .8 3.8-2.4 4-1.8-.3-.2 0-.4 .4-.5-.2 .1-.2 .5-.4 .5l.1 0c.4-.1 .3-.3 .5-.5 .3 0 .6-.1 .7-.1 1.3-.2 2.8-.2 4.2-.1l0 0c2.2 .3 4.9 6.9 5.4 14.3 2.2 31 2.2 61.5 2 92.1-.2 15.3-.5 30.6-1.3 46-.4 7.7-.8 15.4-1.6 23.2-.4 3.9-.9 7.8-1.6 11.9-.2 1.6-1.2 5.6-2.7 8.6-1.9 2.5-4.5 4.8-7.7 5.5l-37.7 1.8-9.2 .1c-2.7-.1-9.6-.2-13.7-3.3-2.1-1.6-3.3-4-3.7-6.6-.3-2.4-.1-3.4-.2-5.2l0-9.5c-.2-48.5-.5-96.3-.8-143.4l.3-18 .6-9.4c.3-1.8 .3-3 .7-5.4 .6-2.5 1.2-5 2.9-7.4 2.2-5.3 10.8-6.3 13.2-5.9zm-265.3-.4c17.9 .7 25.4 .1 44.3 .1 1.4 .7 3.5 .1 4.2 1.9 1.5 .6 2.6 1.8 3.7 2.9 1.4 2.7 2.9 7.3 3 8.9 .8 4.1 1.3 7.9 1.8 11.7l.1 0c.9 7.7 1.4 15.2 1.9 22.8 .9 15.1 1.4 30.1 1.6 45.1 .4 30.1 .4 60-2.4 90.5-.7 6.4-2 12.5-4.7 17.7l-1.5 2.7c-.7 1.1-1.8 2.2-2.5 2.8-1 .9-3.4 1.7-4.1 1.5-1.8-.3-1-.7 .9-2.1 2.4-3.2 .8-4.9 .5-6.8-.6-1.8-1.3-3.6-2.1-5.3-1.2-2.6-1.5-8.2-.9-14.6 2.4-28.8 2.5-58.3 2.1-87.5-.6-32.9-2.3-54.8-3.5-65.4-.4-3.5-.9-7.1-1.6-10.3-.5-2.2-.3-1.6-1-1.8-8.3 0-27.4 .5-36.6 .1-.2 0-.4 .1-.5 .3l-.8 2.9c-.9 3.7-1.5 7.7-2 11.8-1.1 8.1-1.7 16.5-2.3 24.9-1.1 16.7-1.5 33.6-1.5 50.4 0 16.8 .3 33.7 1.3 50.4 .5 8.4 1.2 16.7 2.2 24.8 .5 4 1.2 8 2.1 11.7 1.3 4.8 .8 2.8 1 3.3 3.2 .7 8.8 .5 14.3 .6l16.3 .2c3.1 0 6 .4 8.1 1.1 2.1 .7 3.1 1.5 2.9 2.4l-2.4 8c-.6 2-6.5 3.4-13.7 3.4-9.8-.3-17.1 .3-29.3-.9-7.9-.4-11-11.3-11.6-14.5-1.1-4.5-1.8-8.9-2.4-13.3-1.1-8.7-1.8-17.3-2.3-25.8-1-17.1-1.3-34.2-1.3-51.3 .1-17.1 .5-34.2 1.6-51.3 .6-8.6 1.2-17.2 2.4-25.8 .6-4.3 1.2-8.7 2.3-13.3 .2-1.1 .6-2.3 1-3.6 .4-1.8 1.5-3.6 2.4-5.3 1.9-3.2 5.3-5.5 9.1-5.8zm129.5 0c20.4 .6 30.4 .1 51.8 .1 1.4 .7 3.5 .1 4.2 1.9 1.6 .6 2.6 1.8 3.8 2.9 1.4 2.7 2.9 7.3 3.1 8.9 .8 4.1 1.3 7.9 1.8 11.7l1.1 11.3c.3 3.8 .6 7.5 .8 11.3 .9 15 1.4 30 1.7 45 .4 30 .3 59.7-2.4 90.1-.7 6.6-2.1 12.9-4.7 18.2l-1.6 2.8c-.6 1-1.8 2.3-2.5 2.9-.8 .8-3.4 1.8-4.1 1.6-1.9-.3-1-.7 1-2.1 2.4-3.2 .8-5 .5-6.9-.6-1.9-1.3-3.7-2.1-5.4-1.2-2.7-1.5-8.5-.9-15 2.3-28.7 2.4-58 2-87.1-.3-14.6-.8-29.1-1.7-43.6-.5-7.2-1-14.5-1.8-21.5-.4-3.5-.9-7-1.6-10.2-.5-2.1-.3-1.6-.9-1.8-10.8 0-32.5 .5-44.1 .1-.1-3.3-3.2 11.1-3.9 19.9-1.1 9.8-1.8 19.9-2.2 29.9-1 20.1-1.2 40.3-.8 60.4 .4 20 1.1 40.4 3.9 59.6 .4 2.4 .8 4.7 1.3 6.9 .2 1.2 .6 2.1 .8 3.1 .2 .9 .1 .3 .2 .5 .1 0-.2 0 .4 0l7.5 .1 30.3 .5c3.5-.1 6.2 .7 8 1.3 2.1 .6 3.2 1.5 2.9 2.4l-2.5 8c-.9 2-6.2 3-13.8 3.1l-30-.5-4.1-.1c-2.2-.1-4.5 .1-6.2-1.5-3.9-1.4-6.2-6.7-7.1-9.8-1.7-5.6-2.4-10.6-3.1-15.8-2.6-20.3-3.2-40.3-3.6-60.3-.6-45 1.6-75 3.3-90.3 .6-5.1 1.3-10.2 2.4-15.4 .7-2.9 .7-4.7 2.9-9.5 1.6-4.4 5.6-7.3 10-7.6zm314.3 35.4l-18.7 .1c.3 .7 .6 1.4 .6 2.1 .8 46.5 1.1 93.1-2.8 140l17.5-.1c6.6-.1 5.9 .3 6.4-.9 1.5-3 2.7-7.5 3.4-11.9 3.1-18.2 3.6-37.6 3.4-56.7-.3-19.1-1.4-38.5-4.4-56.9-.8-4.6-1.8-9.1-3.1-13-.3-1-.7-1.9-1-2.5-.1-.2-.1-.2-.1-.2s-.2 0-1.3 0zM443.5 184.6c-.1 0-.1 0-.2 0 .1-.1 .2-.1 .3-.2 0 0 0 .1-.1 .2zm.7-1l0 0c0 .4-.3 .6-.7 .8 .6-.7 .5-1.3 .6-.8z"/></svg>