<svg xmlns="http://www.w3.org/2000/svg" viewBox="0 0 616 560"><!--! Font Awesome Pro 7.2.0 by @fontawesome - https://fontawesome.com License - https://fontawesome.com/license (Commercial License) Copyright 2026 Fonticons, Inc. --><path fill="currentColor" d="M313.5 84.4c2.6-2.3 9.8-.6 11.6 3.5 2.9 3.8 3.2 14.5 3.1 22.6l-.3 9.2-.4 7.3-1.1 14.5c-1.7 19.3-3.8 38.4-6.2 57.5l-3.7 28.6-1 7.1c-.3 2.4-.2 1.9 .1 2.8 .8 1.2 1.1 2 3.9 1.8 15.3-.5 30.3-1 46.1 .7 .1-.1 .3-.3 .4-.3 4.2 .1 8.4 .9 12.7 2.2 .1 0 .2 .1 .4 .1 5.8 1.8 14.3 3.6 17.7 13.3 1.2 1.4 2.3 3.6 2.5 6.2 .6 5.9 .4 11.3-.8 17.4-2.4 8.4-5.6 10.5-8.1 15.4l-16 26.1 0 0-32.2 52.1-32.8 51.8-17.2 25.6c-3 4.3-6 8.5-9.4 12.7-3.8 4.3-5.7 8.1-13.2 13-1.8 .7-3.8 2.3-8.8 .9-2-.6-3.7-2.3-4.9-3.9-.6-1.1-.9-2.2-1.3-3.3-.4-2.3-.2-3.8 .2-5.1-.1-.2-.2-.4-.3-.6l.7-7.2 1.5-14.4 11.8-115.6 .3-2.6c-13.7 1.2-27.3 .7-40.7-.3l-20.1-1.8c-3.4-.5-6.2-.4-11.1-1.5-4.4-.6-12.1-5.9-12.6-13.7-.3-2.5 1-5.2 3-6.6 0-.7-.1-1.4 .1-2.1-.6-1.8 1-3.7 1.3-5.5L313.5 84.4zm210.3 28.5c9.5 .1 10 14.9 10.6 17.6 .7 5.2 1.2 10.2 1.6 15.3 .8 10 1.3 20 1.8 30 .3 6.7 .3 13.5 .5 20.3 1.5-.9 3.4-1.5 5.7-1.5l29.6-.2c9.8-1.3 14.3 10.9 15.1 14.5 1.5 5.2 2.5 10.2 3.4 15.2l.1 0c3.1 19.9 4.1 39.7 4.4 59.5 0 19.9-.2 39.6-4.1 60-1.5 5.5-1.5 9.7-6.9 17.3-2.8 3.7-8.1 5.4-12.2 5.1l-7.3 .1-28.6 .2c-.7 16.3-1.6 32.7-3.4 49.2-.6 5-1.2 10.1-2.1 15.3-.5 2.6-1 5.2-1.8 8-.8 3-3 9-6.7 11.1-10.6 2.8-13.7 .8-19 1.4l-14.9 0-119.4 .3c-8.5 0-16.9-.6-23.4-1.7l-3.2-.6c-4.4-.7-5.9-2-3.7-3.1l13.3-6.6c3.4-1.7 11.5-2.8 20.5-2.8l118.5-.3 14.8-.1 7.4 0c.5 0 .9 .1 1.1-.3l.2-.5 .8-2.9c.5-2.1 .9-4.5 1.3-6.8 .8-4.7 1.4-9.5 1.9-14.3 2-19.3 2.9-39 3.7-58.7 1.4-39.3 1.7-78.7 1.3-118.1-.2-19.7-.7-39.4-1.5-59l-1.7-29.3c-.6-8.9-2.6-22.8-2.5-19l-149.6-1.6c-4.2 0-8.3-.5-11.2-1.1-2.9-.6-4.3-1.5-4-2.4l3.3-8c.8-2 9-3.4 18.9-3.3l147.7 1.6zm-311.5-4.5c8.8 0 17.3 .6 24 1.7l3.3 .6c4.5 .7 6.1 2 3.8 3.1l-13.8 6.6c-3.5 1.7-11.8 2.8-21.1 2.8l-160.2 .4c-.8 .4-.4-.5-1.5 2.2-1 2.6-1.9 5.7-2.5 8.9-1.5 6.4-2.4 13.2-3.3 19.9-1.7 13.5-2.8 27.2-3.7 41-1.7 27.5-2.4 55.1-2.6 82.7 0 27.6 .4 55.2 2 82.7 .8 13.7 1.8 27.5 3.5 40.9 .9 6.7 1.8 13.5 3.3 19.7 .6 3.2 1.6 6.3 2.6 8.8 1.3 3.1 .7 1.5 1 2l149.2 1.4c4.3 0 8.5 .4 11.5 1.1l0-.1c3 .6 4.5 1.5 4.1 2.4l-3.3 8c-.8 2-9.2 3.4-19.4 3.3L44.6 447.1c-5.9-1.1-11.2-7.6-12-11.2-1.5-3.9-2.5-7.5-3.3-11-1.7-7.2-2.6-14.2-3.6-21.2-1.8-14-2.8-28-3.6-41.9-1.6-27.9-2.1-55.8-2-83.6 .2-27.9 .9-55.7 2.6-83.6 .9-14 2-27.9 3.8-41.9 1-7 1.9-14 3.6-21.2 .7-3.6 1.7-7.2 3.2-11.2 .6-1.7 1.9-5 4.5-7.1 1-1.3 2.3-2.3 3.9-2.7 .7-.5 1.6-.2 2.1-1.2l2.4-.4 166.1-.4zm100.8 2.1c-.6-.5-.2-.3-3.3 4.6l.1-.1-106.1 180.7c-.4 .4 0 .8 .4 .8 1.4 .4 7.2 1.5 11 1.8 8.7 .9 17.7 1.1 26.7 1.1 9.5 0 16.9-.3 28.2-.7 8.6-1.9 16.3 6 14.5 14.6l-1.6 13.9-11.1 98.3c-.8 7.7-2.3 19.2-1.7 16.1 .2-.1 .3-.3 .4-.4l2.2-3.5c9.6-15 19.1-30.9 28.6-46.5l57-94.2c5.7-9.3 11.7-17.9 17.1-24.9l6.7-11.6c.2-.3-.1-.7-.2-.8-.3-.2-2.1-1.8-3.8-2.6-1-.5-2.3-.8-3.4-1.2-2.5-.4-5.2-.8-8.2-1.1-8.9-1-18.1-1.3-27.3-1.3l-13.9 .2-7.4 .2c-3.7 0-7.5-1.3-10.5-3.6-3-2.3-5.3-5.6-6.3-9.2-1.2-3.6-.5-8.1-.2-9.8l1.9-13.9 3.5-27.8c2.2-18.6 4.2-37.2 5.7-55.7l.9-13.8 .3-7.8c0-.6 0-1.3-.2-1.9zm258.6 98.7l-19.3 .1c.3 .7 .6 1.3 .6 2.1 1 46.4 2 93.1-1.3 140l16.6-.1c6.6-.1 5.9 .3 6.4-1 1.5-3 2.7-7.5 3.5-11.9l-.1 0c3.1-18.2 3.6-37.6 3.4-56.7-.3-19.1-1.4-38.4-4.5-56.8-.8-4.6-1.7-9.1-3-13-.3-1-.7-1.9-1-2.5-.1-.3-.1-.2-.1-.2-.5 0 .9 0-1.2 0z"/></svg>