<svg xmlns="http://www.w3.org/2000/svg" viewBox="0 0 616 560"><!--! Font Awesome Pro 7.2.0 by @fontawesome - https://fontawesome.com License - https://fontawesome.com/license (Commercial License) Copyright 2026 Fonticons, Inc. --><path fill="currentColor" d="M265.5 39.4c46.1-1 92.2-.8 138.4 .9 23.1 .9 46.2 2.1 69.3 4.2 11.6 1.1 23.1 2.4 34.8 4.3 5.9 1 11.7 2.2 17.7 3.9 3 .8 6.1 1.9 9.5 3.6 4.5 2 9 6.9 8.9 12.5l1.3 138.1c0 4.7-.3 9.1-.9 12.3 0 .2-.1 .2-.1 .4 17.8 7.8 34.9 20.8 42.9 40.1 4.5 10.8 6.6 22.2 7 33.3 .6 11 .4 21.1 .6 31.6l-.1 0 .7 62.7c.2 14-.3 27.6-1.3 38.3l-.5 5.2c-.3 2.6-.6 4.3-.9 5.6l0 1.2-.1 61.7c-.1 2.7 .3 4.4-.3 10.1-1.1 4.7-4.9 7.8-9.5 9.5-7.6 2.2-12.1 2.2-18 2.5-5.6 .1-11-.1-16.8-1-3.3-.3-19.2-3.4-17.3-14.8l-.5-59.9c-158.3 1.6-316.4-1.3-474.3 .9-6.2 .1-12-.3-17.1-1.1l.4 52.9c0 7.4 0 5.6 .1 5.8 1.5 .5 7.8 1.4 12.1 1.4 4.7 .1 9.6-.2 14.1-.9 6.1-1.2 3.5-.8 4.1-.9l-1-24.1c-.3-7.1-.2-13.9 .2-18.8 .5-4.9 1.2-7.3 2.1-6.7l8.2 5.1c2.1 1.3 4.1 14.3 4.7 30l.6 16.1c2.1 10.7-13.2 13.6-16.7 13.9-5.7 .9-11.3 1.2-16.8 1.1-6-.4-10.2-.1-18.4-2.9-4.7-1.5-7.3-5.6-8.1-10l-.1-9.4c-.2-31.4-.7-94.1-1.4-188.2-.5-20.2 .2-45 14.4-64.4 14.8-18.9 36.9-27.6 57.4-33 8-2 16.1-3.4 24.1-4.8-.7-.6-1.4-1.4-2.2-2-1.7-1.3-2.6-4.1-2.7-7.4 0-9.5-1-20.3 3-31.4 3.7-11.4 13.9-19.9 23.8-24 20.5-8.6 40.7-8.1 60.3-9.4 9.9-.4 19.9-.5 30.1 .1 5.1 .4 10.2 .7 15.9 2.1 6.3 1.5 11.3 4.7 16 8.5 9.3 8.2 13.6 20 15 30.6 1.2 8.5 1 16.7 .4 24.7 16.6 .1 33.2 .2 49.7 .4-.9-8.8-1.4-17.8 .3-27.4 1.6-10.7 8.5-22.2 18.6-28.1 10.7-6.4 21.3-6.5 31-7.7 9.9-.9 19.6-1.3 29.4-1.5 9.8-.2 19.4-.2 29.4 .2 10.3 .9 21.4 2 31.3 8.1 10 5.7 17.7 15.6 21.2 26.3 3.6 10.7 4.1 21.5 3.3 31.9-.1 1.5-.9 2.6-1.3 4 13.5 1.8 27 4.6 40.3 8.8-.8-3.8-1.4-9.2-1.5-15.4L529.2 70.6c-.1-.5 0-.6-1-1.1-1.9-.9-4.3-1.8-6.9-2.5-5.1-1.5-10.6-2.6-16.2-3.5-11.1-1.8-22.5-3.2-33.9-4.2-22.8-2.1-45.9-3.3-68.9-4.2-46.1-1.6-92.3-1.8-138.5-.8-46.1 1.2-92.4 2.9-137.8 8.6-11.2 1.5-22.7 3.3-32.4 6.6-2.4 .7-4.8 2.1-4.1 1.7 0 .7 0-1.5 0 2.7 0 2.9 .4 31.9 1 86.9 0 3.4-.1 6.5-.2 9.7l.5 25.2c0 1.7-.5 3.3-1.6 4.6l-.5 .6c-.7 .9-2 1.2-3.1 .8L79 199c-1.7-.7-2.8-2.2-2.9-4L73.4 71.9c0-.8 .3-1.6 1-2.2 .2-.1 .4-.1 .6-.2 .1-5 3.3-9.4 7.8-11.5 3.3-1.7 6.3-2.8 9.3-3.7 11.9-3.4 23.4-5 35-6.6 46.2-5.6 92.3-7.3 138.4-8.4zM578 444.6c-2.6 .5-5.7 .9-9.1 1-8 .1-15.9 .1-23.9 .2 .1 1 .3 2.1 .3 3.3l.2 55c-3.7 2.1 44.5 7 32.5-5.2l.1-54.2zm.3-113.8c-2.5 .5-5.4 .9-8.7 .9-165 2.7-329.8-1.2-494.3 1.2-3.1 .1-6.2 0-9.1-.2l-28 .4 .7 103 0 .7 3-1.9c2.8-1.7 9.4-2.9 16.8-3.1l0 0c172.1-2.4 344 1.5 515.6-1.5 1.3 0 2.5 .1 3.7 .1l.2-99.9zM218.7 215c-41.2 1.3-83.1 2.4-122 12.6-19 5.3-37.9 13.4-48.1 28.4l0-.1C38.1 271.2 37.4 290.4 38 311.5l0 7 85.1-1.5c.6 0 1.2 .3 1.6 1 150.2-1.2 300.2 1.5 450-1.1 1.2 0 2.3 0 3.5 .1l0-4.6c0-3.7 .7-7.1 1.6-10.1-.4-14.7-1.7-28.6-8.1-40.6-8.5-16.7-25.7-27.2-44.6-33-19-5.9-39.4-8.5-59.7-10.3-41-3-82.6-2.7-124.2-3-41.7-.3-83.1-1.2-124.5-.2zm-18.9-66.4c-19 1.1-38.9 1.6-54.2 8.6-7.7 3.5-12.7 8.9-15 16.1l0 0c-2.3 7.4-1.9 16.4-1.7 26.5 0 2.3-.8 4.5-1.4 6.6 31.3-4.6 62.6-5.3 93.8-6.3 14.2-.3 28.4-.2 42.6-.2 1.3-17.6 .2-36.7-11.9-45.4-3.3-2.5-6.2-3.9-10.3-4.6-4.2-.8-8.8-1.2-13.5-1.4-9.3-.5-18.9-.3-28.5 .1zM406 150.4c-9.6 .2-19.1 .7-28.5 1.6-4.7 .5-9.3 1.1-13.5 2-4.2 .8-7 2.1-10.4 4.5-11.7 7.6-12 24.8-10.2 41.9 1.2 0 2.3 0 3.5 0 41.8 .5 83.7-.1 126 3.5 2 .2 4.1 .4 6.2 .7-.5-1.5-.9-3.2-.8-5.1 1.7-17.9-3.9-36.2-18.6-43.4-14.2-7.8-34.7-5.4-53.7-5.6z"/></svg>