<svg xmlns="http://www.w3.org/2000/svg" viewBox="0 0 560 560"><!--! Font Awesome Pro 7.2.0 by @fontawesome - https://fontawesome.com License - https://fontawesome.com/license (Commercial License) Copyright 2026 Fonticons, Inc. --><path fill="currentColor" d="M281.3-8c5-.6 11.6 .1 16.9 3.1 5.4 3 9.4 7.8 11.9 12.6 4.2 8.4 5.5 17 5.3 25.6 .2 0 .4 .1 .6 .1 27.5 3.3 54.6 12.7 78.3 27.7 1 .6 1.9 1.2 2.8 1.9 3.5 2.3 7.1 4.3 10.4 6.9 8.7 6.8 16.4 14.8 23.5 23.1 .3 .3 .6 .7 .8 1 5.7 6.7 10.8 13.8 15.5 21.2 1.1 1.7 2.2 3.4 3.2 5.2 5.6 9.4 10.6 19.1 14.6 29.2 1.5 3.8 2.7 7.7 4.1 11.5 0 .1 .1 .2 .1 .3 13.4 37.8 19.1 77.1 22.1 116.4 .2 3.2 .5 6.4 .7 9.6 .8 12 1.4 23.9 1.9 35.8 .8 16.7 1.7 33.3 3.6 49.2 .3 1.7 .7 3.4 1 5 .3 1.3 .7 2.6 1.1 3.8 .4 1.1 .7 2.4 1.1 3.2 .3 .6 .6 .7 .7 1 0 0 .1 .1 .1 .1 .5 .6 1.8 1.6 2.6 2.5l5.7 5.3c1.5 1.4 2.7 3 4.1 4.4 .6 .6 1.3 1.2 1.9 1.9 1.3 1.3 2.4 2.7 3.6 4 3.9 4.2 8.1 8.1 11.7 12.6 6.6 8.1 12.7 17 17.8 26.6 4.8 9.7 9.4 20.2 8.5 33.5-.1 3.1-1.2 6.1-2.8 9-.2 .3-.4 .7-.6 1l-.2-.1c-.9 1.5-1.9 2.9-3.1 4.1-.7 .8-1 1.7-1.9 2.5-4.5 4.2-10.5 5.7-15.2 6.3l-12 1.3c-50.2 4.9-100.4 7.6-150.7 9.2 .1 .1 .3 0 .4 .1 .7 .6 1.1 1.4 1.1 2.3l-.5 8.1c-.1 2-2.2 3.6-4.6 3.7-49.3 1.9-98.7 3-148.3 .3 11.8 15.2 30 25.1 49.5 27.8 25.7 3.8 53-2.4 75.3-16.4 .9-.5 2-.7 3-.6 1 .2 1.7 .7 2.1 1.4l3.6 7.2c.9 1.8-.3 4.3-2.7 5.7-25.1 15-55.5 21.9-85.1 16.9-29.4-4.3-58.2-24.5-68.9-53.9-.3-.7-.1-1.4-.2-2.2-17.9-.7-35.9-1.5-53.8-2.5-1.2-.1-2.5 0-3.7-.1-1.9-.1-3.9-.2-5.8-.4-20.1-1.2-40.2-2.5-60.3-4-3-.2-5.8-1.1-8-2.3l-1-.6c-1-.6-1.3-1.4-1.2-2.2 0-.1 0-.1 .1-.2 .1-.3 0-.5 .2-.8l5.2-6.2c1.3-1.6 4.2-2.5 7.3-2.2 26.9 1.9 53.9 3.6 80.9 5 125.3 5.6 251.2 4 375.8-9 7.3-.7 9.8-2.9 11.2-8.2 .5-2.4 .3-5.3-.2-8.3-.1-.8-.3-1.7-.5-2.5-.7-2.9-1.5-5.8-2.7-8.6-5.5-13.6-14.9-26.3-25.1-38-5.1-5.8-10.6-11.5-16.3-16.8-2.9-3-5.4-4.2-9.6-10.4-2.4-4.8-3.5-9.3-4.3-13.5-.2-1.3-.2-2.5-.4-3.8-.2-1.1-.4-2.2-.5-3.3-.2-1.7-.2-3.3-.4-5-1.4-12.5-2-24.7-2.7-36.9-.2-4.8-.5-9.7-.7-14.5-.6-11.4-1.1-22.7-1.9-34-.1-1.5-.3-3.1-.4-4.6-.7-8.9-1.5-17.9-2.7-26.9-4.8-39.8-13.6-79.5-32.1-114.2-18.1-34.8-48.1-62.5-84.7-75.7-1.3-.5-2.1-1.1-3.3-1.6-16.9-6-34.8-9.8-52.9-10.8-61.1-2.4-127.9 17-166.2 65.4-38.5 48.9-47.8 114.7-51 177.4l-1.8 48c-1.1 16.3-.3 32-6.6 50.4-1.4 4.7-7.2 10.5-9.2 12.2l-8.5 8.1c-5.4 5.5-10.8 11.2-15.7 17.1-9.7 11.8-18.2 25-21.7 38.4-1 4.2-1.1 8-.8 11 .9 4.3 3.1 7 6.7 7.6 .5 .1 .8 .5 1.1 1.2 .2 .7 .4 1.6 .2 2.4l-1.5 7.9c-.4 1.9-2.6 3.1-5.1 2.6-6.5-1.9-12.2-7.4-14.5-13.5-2.5-6.1-2.6-12.3-1.9-17.8 1.6-11.2 6.1-20.8 11.1-29.8 10.6-17.6 24.1-32.6 38.4-46.2 1-.9 2.3-1.3 3.7-1.5 .5-.5 1.1-1.1 1.7-1.6 2.6-2.7 4.7-11 5.6-18.2 3.4-30.6 2.4-63.1 4.9-95.1 2.2-32.1 6.5-64.5 15.9-95.8 9.2-31.3 24.7-61.5 47.7-85.8 23-24.3 53.8-40.3 85.1-49.2 9.4-2.8 19-4.8 28.7-6.5 .7-8.8 1.8-18.2 7-27.3 5.1-9.7 17-16.1 27.2-16.3zM491.7 93.4c1.8 0 3.6 1.1 4.5 2.9 19.8 41.7 35.4 85.5 46.3 130.5 .2 .9 .1 1.9-.4 2.7-.5 .8-1.2 1.2-2.1 1.4l-8 1.1c-2 .3-3.9-1.1-4.4-3.2l0 0c-10.7-43.7-25.8-86.3-45.1-126.9-.8-1.7-1-3.6-.6-5.3l.2-.8c.3-1.2 1.3-2 2.4-2.1l7.2-.2zM113.4 31.2c.8 .2 1.5 .8 1.9 1.5l4.1 6.9c1 1.7 .8 3.8-.5 4.7-26.9 19.9-46.4 49.4-54.6 81.4-.3 1.3-1.3 2.4-2.6 3.2l-.7 .4c-.9 .5-2.2 .5-3.1-.1l0 0-5.9-3.7c-1.5-1-2.2-2.6-1.8-4.2 9.2-35.6 30.9-67.9 60.9-89.8 .6-.5 1.4-.6 2.2-.4zM281.7 6.8c-8.7 .4-13.6 5.9-16.5 13.6l33.2-1.7c-.6-1.6-.9-3.5-1.7-4.9-3.5-5.8-7.9-7.9-15-7z"/></svg>