<svg xmlns="http://www.w3.org/2000/svg" viewBox="0 0 504 560"><!--! Font Awesome Pro 7.2.0 by @fontawesome - https://fontawesome.com License - https://fontawesome.com/license (Commercial License) Copyright 2026 Fonticons, Inc. --><path fill="currentColor" d="M316.7 5.8c16.6-13.6 44.1-3.9 48.9 16.9 1.5 4.9 1.1 10.4 .3 14.8l-2.4 11.6c-1.7 7.7-3.6 15.4-5.7 23-8.5 30.5-20.9 60-36.1 87.6l-11.3 20.4c-3.7 6.3-7.3 15.2-6.1 13.3 .5 .2-.7 .3 3.5 .4l11.5-.2 23.2-.5c31-.7 62-2.5 93.7-1.4 15.9 1.1 32.1 1 49.1 10.6l0 0c8.9 4.9 14.5 17.4 12.9 26.9-.7 9.8-4.4 17.5-7.9 25-15.6 28.9-36.3 52.4-56.8 76.2-20.7 23.5-42.1 46.1-63.9 68.4-43.4 44.7-87.9 88.2-132.6 131.5-7.8 7.5-15.5 14.5-21.3 19.2-5.8 4.7-9 6.7-9 5.4l.5-11.6c.1-2.9 14.1-18.4 32.2-36 44-42.8 87.8-85.8 130.4-129.9 21.2-22.1 42.1-44.5 62-67.6 19.1-23.1 40.1-47.2 50-73.5 5-13.8 0-21.9-14.3-25.6-13.5-3.6-28.8-4.1-43.9-4.3-30.3-.2-61.1 1.4-91.9 2.1l-23.1 .4c-3.1 0-12 .1-16.7-5.3-2.3-2.6-3.2-6.1-3-9.5 .2-1.7 .7-3.6 1-5.2l1.2-3.4c7-15.4 15.1-27.6 21.9-41.3 14-26.8 25-55 32.4-84.2 1.9-7.3 3.5-14.7 5-22.1 1.8-7.4 1.2-11.5-1.8-16.3-3.1-4.2-8.4-7.2-13.7-7.1-2.6-.1-5.2 .6-7.4 1.9-2.2 1-4.3 3.2-7.4 6.1L253.6 85.4c-44.2 42.5-87.9 85.6-129.2 130.7-20.5 22.6-40.7 45.6-58.1 70.2-8.5 12.2-16.9 25.1-21.4 38.1-2.3 6.4-3 12.9-1.3 16.3 1.5 3.2 6.7 5.6 13.4 6.3 28.4 .9 60.8-.3 91-.4l46.1-.5 5.7-.1c2.3 0 5 .2 7.5 .7 5 1.1 9.8 3.5 13.7 6.8 7.9 7.1 12.5 15.7 11.2 28.8l-1.4-.2c-.1 .7-.1 1.3-.4 2.2l-.5 1.2c.1 .1 .4 .4 .4 .4l-.2 .4-.7 1.4-1.4 3.1-2.8 6.5-2 5-.5 1.2c-6 15.6-11.9 31.2-17.4 46.9-1.6 4.5-3 9-4.6 13.5-4.8 13.9-9.5 27.9-13.6 42-4.7 17-9.8 35.2-10 51 0 1.3-.2 2.5-.4 3.7 0 .8-.2 1.6-.6 2.5l-.4 .9c-.4 .9-1 1.6-1.7 1.9 0 0-.1 0-.1 0-.2 .1-.5 .3-.7 .3-2.3-.3-4.8-1.1-7.4-2.5-2.3-1.2-3.2-4.3-3.3-7.9 .7-20.1 6.1-37.6 11-55.6 .6-2.1 1.4-4.2 2-6.3 1.3-4.8 2.7-9.7 4.3-14.7 2.5-7.8 5.4-15.5 8-23.3 1-2.7 1.7-5.6 2.7-8.3 .7-1.8 1.4-3.7 2.1-5.5 3-8.6 6.3-17 9.5-25.5 2.6-6.9 5-13.8 7.7-20.6l5.1-12.9c.9-2.3 1.9-4.7 1.6-4.1 .1-1.5 0-3.1-.3-4.5-1.2-6-6.4-10.9-12.3-12.1-1-.1-1.8-.7-2.5-1.3-.1-.1-.1-.3-.2-.4-2.1-.1-4.4-.2-7.4-.1-31.1 .4-62.2 .7-93.2 1.1-16-.3-30 1.4-47.8-.6-4.4-.7-8.9-2.2-13.4-4.6-4.2-2.9-8.6-7.2-10-12.6-3.2-10.7-.1-19.6 2.7-27.3 6.2-15.6 15.2-28.8 24.3-41.8 18.6-25.6 39.2-49.1 60.3-72.2 42.3-45.9 86.8-89.6 131.6-132.7 22.8-21.7 44.4-42.5 68.6-64.4z"/></svg>