<svg xmlns="http://www.w3.org/2000/svg" viewBox="0 0 560 560"><!--! Font Awesome Pro 7.2.0 by @fontawesome - https://fontawesome.com License - https://fontawesome.com/license (Commercial License) Copyright 2026 Fonticons, Inc. --><path fill="currentColor" d="M59.8 58.8c2.1-.2 4 2 5 4.8 5.1 15.1 15.9 29.5 29.6 35.1 6.8 2.8 14 2.6 20.6-.2 6.9-2.6 12.2-8 19.4-14.4 13.5-12.1 33.3-23.2 54.4-19.7 10.4 1.6 19.4 5.9 27.6 10.5 8.4 4.6 17.4 12.8 21.2 23 .1 .3 .1 .6 .2 1 8-3.7 16.1-7.2 24.4-10.3 7.2-2.7 14.4-5.1 21.7-7.3l11-3 6-1.5c3.6-1.1 7.1-1.3 10.3 .2 6.1 2.8 8.2 11.6 9.1 13.2l4 9.7 7.9 19.3c2.1 5.1 3.5 10.3 4 14.6l.2 2.1c.3 2.9-.4 4.3-2 3.4l-4.6-2.7 1.7 8.1c.5 2.1-3.4 5.6-8.8 8.8-25.5 14.2-49.3 33-78.3 45-14.4 5.9-30.1 9.6-46 9.8-4.4 .2-7-.1-12.8-.4-3.2-.6-8 1-8.5-3.6l-1.4-3.1c-23.6 29-40.1 63.9-45.9 100.6-5.8 36.9-1 75.3 14.1 109.5 .4 .9 .3 1.8 .4 2.7 10.8 24.9 25.6 48.1 45 67.1 31.1 31.1 72.2 51.6 115.5 58.5 43.2 6.7 88.7 .1 127.7-20 78.5-38.5 131.4-128.9 117.4-215.9-6.7-42.8-30.5-82.3-59.2-115.4-29-32.9-67.6-57.4-110.4-65.5-4.7-.9-9.8-1.9-18.3-3.5-4.7-1-7.2-2.1-6.5-2.9l6.2-7.5c1.5-1.8 16.4-2.4 33.7 2.1 45.5 11.7 85.1 40.4 114 76.3 14.6 18 27.1 37.3 37.4 58.1 10.9 20.7 16.6 43.9 19.2 67l0-.1c9.5 94.1-49.7 187-135 224.8-21.4 9.3-44 15.7-67.1 18.6-23.2 2.5-46.7 1.4-69.6-3-45.7-9.2-88.8-32.4-120.5-66.7-32.1-33.9-53.2-78-59.7-124.3-6.6-46.5 3.5-94.9 26.7-135.3 1.6-3 3.6-5.5 5.4-8.3 1.9-3 3.9-6 5.9-9 .6-.7 1.1-1.5 1.6-2.2 4-5.7 7.8-11.4 12.3-16.7 1.1-1.3 2.5-2 3.8-3l-4.9-10.9c-1.5-3.5-3.1-6.4-4.6-11.3-1.8-4.7-.7-13 3.2-17.1 3.7-4.4 6.7-6.1 9.7-8.6l9.1-6.9c12.3-9.1 25.2-17.2 38.6-24.5 1.6-.9 3.2-1.6 4.8-2.4-.6-.8-1.3-1.7-1.7-2.7-2.9-6.8-8.5-11.5-15.8-15.5-7.5-4.2-14.9-7.3-22.5-8.1-15.4-2-30 6.3-42.7 17.7-6.1 5.5-14.1 13.2-24.3 16.6-10.2 3.8-22.2 2.9-31.8-1.6-19.4-9.3-30.8-27-36.8-45.8-.4-1.6-.5-3.1-.1-4.3 .4-1.2 1.1-1.9 1.9-2l8.1-.6zM405.3 191.1c1.4-1.2 3.7-1.3 5.7-.4 46.7 22.1 83.1 65 96.5 115.6 .3 1 .2 2.1-.2 3s-1.2 1.4-2 1.5l-8 1.1c-2 .3-4-1.2-4.6-3.3-12.5-45.7-46.2-85.1-88.7-104.8-1.8-.8-3.2-2.1-4.1-3.7l-.5-.8c-.6-1.1-.5-2.4 .4-3.2l5.5-4.7zM304.6 91.2c-.3-.2-.6 0-1 .1l-5.1 1.3-10.7 3c-7.1 2.2-14.1 4.4-21 7.1-13.8 5.2-27.3 11.4-40.3 18.5-13 7.1-25.4 15-37.3 23.9l-8.8 6.8c-3.1 2.4-5.7 4.5-6.2 5.7l-.1-.1c-.5 1.1-.6 1.7 .4 4.7l4.4 10 9.3 20.7c.6 .4-.9 .3 2 .4 3.5 .4 7.1 .2 10.6 .1 14.1-.6 27.9-4 41.1-9.9 26.5-11.5 50.4-30.3 77.7-45.2 2.5-1.3 5.1-2.2 7-2.5 .8-.1 1.3-.1 1.9 0l-3.2-1.9c-2.4-1.4-5.3-5.8-7.5-11.1l-7.5-18.3c-2.4-5.5-5.7-14.6-5.7-13.2zM23 79.2c.6 .3 1.3 .7 2 1.3l.1 0 6.2 5.2c1.5 1.3 2.4 2.6 2.1 3.1l-22 29.8c-.3 .4-1.1 .4-2.2 0l-.5-.2c-.8-.3-1.8-1-2.5-1.8l-4.7-4.8c-1.2-1.2-1.7-2.3-1.4-2.7l22-30c.1-.2 .6-.2 1.2 .1zm89.5-54.7c.3-.1 .6 .2 1 .7s.7 1.3 .9 2.2l1.9 7.8c.5 1.9 .5 3.6 0 3.7-10.6 3.8-21.7 9.7-30.8 16.1-.4 .3-1.1 0-2-.7L83 54c-.6-.5-1.4-1.4-1.9-2.4l-3.1-5.9c-.8-1.5-1-2.7-.5-3.1 11.1-7.7 22.1-13.6 35.1-18.2zM30.4 37.2c.2 .1 .2 .5 .1 1.1s-.4 1.5-.7 2.2l-3.3 7.3c-.8 1.8-1.8 3.1-2.2 2.9L-3.9 40.5c-.4-.1-.5-.9-.4-2l.1-.5c.1-.8 .5-1.9 1-2.9L0 29.1c.8-1.5 1.6-2.3 2-2.2L30.4 37.2zM53-5.1c2-.1 3.6 .2 3.6 .8L58.7 31c0 .5-.6 .9-1.7 1.3l-.5 .2c-.7 .2-2 .3-3.1 .2l-6.6-.9c-1.7-.2-2.8-.7-2.8-1.2l-2.2-34c0-.2 .3-.5 1-.7s1.5-.4 2.3-.4l8-.5z"/></svg>