<svg xmlns="http://www.w3.org/2000/svg" viewBox="0 0 616 560"><!--! Font Awesome Pro 7.2.0 by @fontawesome - https://fontawesome.com License - https://fontawesome.com/license (Commercial License) Copyright 2026 Fonticons, Inc. --><path fill="currentColor" d="M161.9 42.1c34.1-3.5 68.8 1 101.1 12.8 5.9 2.3 11.3 5 16.3 7.9 3.6 1.8 7.4 3.1 10.9 5.2 2.7 1.7 5 3.9 6.4 6.2l.7 1.1c.6 1 .5 1.8 .1 2.4 0 .1-.1 .3-.3 .3-.2 .2-.2 .4-.5 .5L289 81.3c-1.9 .8-4.8 .2-7.4-1.4-30.8-17.4-67.4-24.6-103-23.5-35.5 1.2-71.3 10.9-99.8 31.6-.7 .5-1.4 .6-2.2 .8 .7 342.1 .6 305.1 .7 336.8 0 .2 .1 .1 .2 .1l1.6-1.1 5.3-3.1c7.6-4.2 15.4-8.1 23.5-11.1 65.3-25.7 139.6-12.7 198.7 20.1-.4 .2 0 .2 .7 .3 0-.7 0-1.3 0-2.1-.1-29.9-.6-156.5-1.2-317.6 0-4.5 .4-8.7 1-12.6l0-13.8 1.7-1c4.1-2.4 11.6-6.6 15.6-8.9 20-10.8 41.3-19.5 63.4-25.3 44.1-11.7 92.4-11.2 135.6 6 10.8 4.3 21.1 9.6 30.9 15.9l8 5.5 3.3 2.2c.5 .4 1.2 .7 1.6 1.2l0 15.8c3.5 0 8.5 .8 14.4 2.3 1.8 .5 3.2 1 5.4 1.9 2.7 1.1 5.3 2.6 7.2 4.6 2.2 1.8 1.5 5.1 1.8 7.9l0 5.4c0 16.1 .1 90.2 .1 135.3 .1 116 .2 193.3 .2 231.9l.1 .1 0 19.3c-.2 2 .3 4.8-2.3 9-2.8 4.4-9 5.5-11.3 4.9-5.7-.8-8.4-2.5-11.8-3.9-12.3-6.2-22.8-12.9-34.1-18.9-43.8-24.5-94.5-38.7-142.9-26.9-7.9 1.7-15.6 3.5-21.8 4.7l-3.1 .5c-4.2 .8-6.1 .2-4.5-1.6 3.3-3.5 6.6-7.3 10.2-10.7 2.8-2.6 10.4-6.2 19.5-8.1 26.3-5.4 53.9-4.7 80 1.4 26.1 6 50.6 17.1 73.6 29.8 11.4 6.1 22.9 13.6 33.3 18.1 .1 0 .3 .1 .4 .1l0-3.1 0-19.4c0-25.9-.1-129.6-.4-311l-.1-38.9 0-16.9 0 0c-.1 0-.4-.1-1.3-.4-2.6-.9-5.5-1.6-8.8-2.4-1.4-.4-2.6-.8-3.8-1.2 .1 68.5 .4 289 .5 344.4 .1 .6 0 .7-.2 .7 0 .7-.3 1.3-1.1 1.5l-8.3 2.4c-2.1 .6-5.3-.2-8.1-2.1-68.6-43.8-159.9-39-230.7-1.4-1.5 .7-3 1.1-4.3 1.1s-2.2-.6-2.5-1.4l-.9-2.7-.5 .7c-1.2 1.6-4.8 1.6-8.2-.1-71.6-35.9-162.5-38.7-229.2 6-2.7 1.8-5.6 3.1-8.4 3.6l-1.3 .2c-1.8 .4-3.1-.3-3-1.6l.5-8.4c.1-.8 .6-1.7 1.2-2.6l0-15.9-.1-54-.4-198.2c-.1-37.1-.1-61.9-.1-74.3l0-5.7c-3.7 2-10.1 4.4-17.5 6.8-3.1 1-6.3 2.1-8.9 3.3-1.1 .5-1.2 .7-1.1 1.4 .1 17 .3 96.2 .5 144.2 .4 124.2 .7 205.7 .8 244.5 1.7-.6 3.6-1.3 5.5-2.4 5.8-2.9 11.8-6.3 17.8-9.6 12-6.7 24.4-13.4 37.2-19.2 25.5-11.6 53.2-20.2 81.8-22.3 14.3-1 28.7-.4 42.9 1.9 7.1 1.1 14.1 2.7 21 4.7 3.4 1.1 6.9 1.9 10.3 3.3l15.2 5.7c-.2 3.6-.6 8.6-.4 11 .1 1.6 .2 3.3 .5 4.8 .5 3.3 1.6 4.8 2.3 5.2 4.1 2.9 11.5 5.4 18.3 6.7 14 2.7 29.4 3.1 42.1-1 8.5-2.7 14.6-6.9 17.6-12.1 .7-.7 7.3 5.4 4.9 11.4-1.1 5.3-10.7 13.3-22.4 16-16 3.6-31.9 3-47.3-.4-7.8-2.1-15.3-3.4-23.5-10.1-5-4.5-5.7-9.7-6.6-13.8-.4-2.2-.6-4.3-.7-6.3l0-1.3-5.1-1.9c-3.1-1.2-6.4-2-9.6-3-6.4-1.9-13-3.4-19.6-4.3-13.2-2.1-26.6-2.6-40-1.6-26.8 2-52.9 10.3-77.6 21.8-12.4 5.7-24.4 12.3-36.6 19.1-6.1 3.4-12.1 6.8-19 10-3.8 1.3-6.6 3.6-14.1 3.2-1.8-.1-4.4-1.2-6.5-3.1-1.6-1.6-2.7-4.2-3-5.7-.6-3.5-.5-5.3-.5-6.9-.1-41.8-.4-125.3-.9-250.6-.5-144.5-.4-127-.5-135.7 .1-1-.2-4.7 .2-8.1-.6-3.7 4-5 6.1-7.1 6.1-3.4 8-3.7 12-5.2l10.4-3.2c5.1-1.4 10-2.3 13.6-2.5l.1 0 0-5.9c-.1-2.1-.3-4.2 2-5l12.9-8.8c3.5-2.5 7.5-4.2 11.2-6.4 7.5-4.3 15.6-7.4 23.6-10.5 16.1-6.1 33.2-9.3 50.1-11.1zM509.8 66.4c-40.7-14.3-86-12.5-127.3 .1-20.8 6.2-40.8 15.2-59.6 26.4l-.1-.1c-1.5 .9-.8 .4-1 .8l0 6.5 0 16.8 .1 33.6 .4 268.3c0 4.2-.1 8.1-.4 11.8 .1 .1 .3 .1 .3 .1-1 .5 5.1-2.1 8.7-3.8l12.5-5.9c8.5-4 17.3-7.5 26.3-10.7 17.9-6.2 36.7-10.5 55.6-12.3 3.1-.3 6.1-.2 8.2 .3 .8 .2 1.3 .4 1.8 .6 1.5-.1 3-.3 4.6-.4 23-.8 46.3 2 68.4 8.8 11.1 3.4 21.9 7.8 32.2 13.2 2.6 1.3 5.1 2.8 7.6 4.2l3.3 2c1.2 1 1.8 1.3 1.5-.2-.1-83.8-.3-170.9-.4-261.5l-.1-67.1 0-9.5c0-.1-.1-.1-.4-.3-3.2-2.2-8.4-5.9-12.9-8.2-9.2-5.5-19.1-9.7-29.2-13.3zM128.4 327.6c39.3-15.4 83.5-18.7 125-8.7 .8 .2 1.6 .7 2 1.5s.5 1.6 .2 2.5l-2.7 7.6c-.7 1.9-2.5 3-4.3 2.6-38.3-9-79.2-5.8-115.5 8.6-1.5 .6-3.1 .6-4.7 0l-.8-.3c-1.1-.4-1.8-1.4-1.8-2.6l0-7.1c0-1.8 1.1-3.4 2.8-4.1zM372.5 320c40.8-10.6 84.8-8.3 124.5 6.3l.1 0c1.6 .6 3 1.8 3.8 3.3l.4 .7c.5 1 .3 2.3-.5 3.1l-4.9 5.2c-1.2 1.3-3.1 1.8-4.6 1.2-37.2-13.4-78.5-15.4-116.4-5.1-.8 .2-1.6 0-2.3-.4s-1.2-1.2-1.3-2.1l-1.5-7.9c-.3-1.9 .9-3.8 2.8-4.3zM126.6 263.1c44.1-9.4 89.8-11.1 134.7-5 .9 .1 1.7 .6 2.2 1.3s.7 1.6 .5 2.4l-1.9 7.8c-.5 1.9-2.4 3.2-4.5 3-42.9-5.8-86.7-4-128.8 5.1-1.7 .4-3.6 .1-5.1-.7l-.8-.4c-1.1-.6-1.6-1.7-1.4-2.8l1.4-7c.4-1.8 1.9-3.3 3.7-3.7zM371 260.5c41.4-10.2 85.5-9.4 126.8 2.1l0-.1c1.7 .5 3.2 1.6 4.1 3l.5 .7c.6 1 .6 2.2-.2 3.1l-4.5 5.6c-1.1 1.4-3 2-4.6 1.6-39.1-10.6-80.9-11.2-119.9-1.2-.8 .2-1.7 0-2.4-.5s-1.2-1.2-1.3-2.1l-1.3-8c-.3-2 .9-3.8 2.9-4.3zM120.5 202c41-12.3 85.3-14.1 127.3-4.5 .9 .2 1.6 .7 2 1.4s.5 1.6 .2 2.5l-2.6 7.7c-.6 1.9-2.6 3-4.4 2.6-39.4-8.7-80.8-6.9-119.2 4.7-1.6 .5-3.3 .3-4.8-.4l-.8-.3c-1.1-.5-1.7-1.6-1.6-2.7l.6-7.1c.2-1.8 1.4-3.4 3.2-3.9zm256.2-2.6c37.9-6.1 76.9-6.5 115.1-1.2 1.6 .2 3 1.1 4 2.4l.5 .6c.7 .9 .7 2.1 .2 3.1l-3.4 6.2c-.9 1.6-2.5 2.4-4.1 2.2-37-4.9-74.7-4.4-111.3 1.7l0 0c-.7 .1-1.5-.1-2.1-.7s-1-1.3-1.1-2.2l-.7-8c-.2-2 1.1-3.8 2.9-4zM367 139.7c43.5-11.5 89.8-12.6 134-3.3 1.8 .4 3.5 1.4 4.6 2.8l.5 .7c.7 1 .8 2.2 .1 3.2l-4.3 5.8c-1.1 1.5-3 2.2-4.8 1.8-42.2-8.7-86.5-7.4-127.8 3.9-.8 .2-1.7 .1-2.5-.4l0 0c-.7-.5-1.3-1.2-1.4-2l-1.4-8c-.3-2 1-3.9 3.1-4.4zm-251.6-1.9c44-10.2 90.5-10 134.7 .8 .9 .2 1.7 .8 2.1 1.5s.5 1.7 .2 2.5l-2.7 7.6c-.5 1.4-1.8 2.4-3.2 2.6l-1.5-.1c-41.7-10-85.6-10.1-127.1-.4-1.7 .4-3.5 .2-5.1-.6l-.8-.4c-1.1-.5-1.7-1.7-1.5-2.8l1.2-7.1c.3-1.8 1.8-3.3 3.7-3.7z"/></svg>