<svg xmlns="http://www.w3.org/2000/svg" viewBox="0 0 504 560"><!--! Font Awesome Pro 7.2.0 by @fontawesome - https://fontawesome.com License - https://fontawesome.com/license (Commercial License) Copyright 2026 Fonticons, Inc. --><path fill="currentColor" d="M433.1 91.4c-.5-10.9 0-20.4-1.4-32.5-1.7-11.7-6.3-22.8-13.4-32.2-7.2-9.3-16.8-17-28.1-21.2-11.4-4.7-23.8-3.8-33.7-4L103.4-.1c-13-.1-24.1 .6-30.3 1.7-3.9-.4-7.7-.6-11.5-.1-3.8 .3-7.2 1.5-10.1 2.8-.7 .1-1.4-.2-2 0-11.2 4.6-20.7 12.7-26.8 23.3-6.1 11.5-7.1 21.9-8.5 32.7-1.9 21.1-1.8 41.3-2.7 61.9-.1 1.9 1.4 3.7 3.4 4l8 1.2c.7 .1 1.3-.2 1.9-.5l91.8 .8c-1.1 39.7-2.1 79.5-2.5 119.3-.9 92.4 .2 184.8 3.4 277.2 .3 8.8 2.1 16 4.1 16.6l6.3 2-3.4 4.2c-2.7 3.3 .3 2.6 7.4-1.6l5.2-3.1c10.5-6.3 23.4-15.1 36-25 19.6-15.2 38.8-30.8 57.7-46.9l28-24.4 21.8-19.9 17.4 16.7 23.2 21.7c15.6 14.4 31.6 28.4 48 42l24.9 19.9 14.9 11.3c9.3 6.8 15.5 11.3 18.6 13.6 .5 .2 1.2 1.1 1.4 .8l.1-1.9 .1-3.8 2.1-75.2c2.1-84.5 3.5-169 3.3-253.5-.1-42.3-.6-84.6-1.7-126.8l0 .1zM35.1 35.8c4-7.6 11-13.9 19.2-17.4 0 0 0-.1 .1-.1 2-.6 4-1.2 6.1-1.6 3.6-.7 7.1-.7 10.6-.3 .6 1.2 1.2 2.2 2.3 2.6 13.9 6.1 21.7 23.2 25.1 40.8 3.5 17.1 3.8 34.8 4.4 53.3l-76.2-.6c.5-16.5 .8-33.2 2.1-49.2 .9-9.6 2.6-20 6.3-27.3l0 0zM416.8 468.1l-1.4 55.4c-.7 1.1 .9 1.3-10.4-7L380 496.6c-16.4-13.5-32.4-27.5-48.1-41.9l-23.4-21.8-27.6-26.7-30.7 28.1-26.5 23.2c-17.8 15.3-36 30.1-54.5 44.6-13.2 10.3-24.5 20.1-28.6 25.2l-8.5 10.4c.3-2.3 .5-4.9 .4-7.7-3.3-92.6-4.5-185.4-3.7-278.1 .4-46.4 1.3-92.7 2.8-139.1 .6-23.1 1-48.2-9.4-71.4-4.5-10.1-11.4-19.3-20.2-26.7l244.6 1.5c10.3 .3 22.4-.5 30.6 .9 8.9 1.6 17.4 6.1 24 12.6 6.7 6.4 11.6 14.9 14.1 23.8 1.4 4.5 1.8 9.1 2.1 13.9l.4 16c1.1 42.7 1.7 85.4 1.9 128.1 .3 85.4-1.1 170.9-3.1 256.3z"/></svg>