<svg xmlns="http://www.w3.org/2000/svg" viewBox="0 0 560 560"><!--! Font Awesome Pro 7.2.0 by @fontawesome - https://fontawesome.com License - https://fontawesome.com/license (Commercial License) Copyright 2026 Fonticons, Inc. --><path fill="currentColor" d="M464.7 54.3c7.2 0 14.3 .2 21.1 .5l33.4 0c1.7 0 9.2-.8 13.7 3.8 7.4 7.8 8.1 13.5 10.6 20 1.9 6.3 3.3 12.5 4.4 18.7l.1 0c4.2 25 6 49.7 2.8 75.6-1.1 7.1-3.2 14.4-7.5 20.3-.9 1.6-2 3.3-3.7 4.9-2.3 2.8-6.5 4.1-10.3 4.4l-11.5 .1c0 .1 .1 .2 .1 .2l-2.2 8c-.5 2-6.3 3.5-13.3 3.5l-441.6-.6c-4.3 0-8.4-.4-12.1-1l.9 20.8c0 .2-.4 .5-1 .6-.3 .1-.7 .1-1 .1 .3 5 .5 10.8 .4 17-.6 41.2-.9 82.3-.1 123.3 .4 20.5 1.1 41 2.5 61.4 .7 10.1 1.6 20.3 3 30.2 .7 4.9 1.6 9.8 2.8 14.3 .6 2.2 1.4 4.5 2 5.8 .3 .7 .5 .8 .9 .8 112.8 5.4 229.4 5.8 343.8 1.5l86.2-3.9 10.8-.6 4.3-.2 .2-.1c-.1 .4 1.6-3.8 2.2-6.5 .7-3.2 1.3-6.5 1.8-9.9 1.9-13.7 2.7-28 3.3-42.2 1.8-57.1-.2-114.7-2.7-172-.3-6.3-.2-12.4 .2-16.8s1.1-6.5 2-6.1l8.3 4.5c2 1.1 4.2 13.3 4.9 28.1 2.3 56.8 4.2 113.5 1.9 170.7-.8 14.4-1.6 28.6-4.4 43.4-.8 3.7-1.6 7.4-3.3 11.6-.6 2-2.7 5.1-5.1 7.2-2.5 1.6-5.8 3.2-8.8 3l-21.3 1.1-85.1 3.7c-114 4-226.2 3.7-342-1.9-1.3 0-2.3-.9-3.4-1.4-1.1-.6-2.5-.7-3.3-1.7-1.5-1.8-3.8-3.6-4.5-5.7-1.7-3.4-2.4-6.2-3.2-9-1.5-5.6-2.4-11-3.2-16.4-1.5-10.7-2.4-21.4-3.1-32-1.4-21.2-2-42.3-2.4-63.5-.7-42.2-.4-84.4 .2-126.5 .1-7.6 .5-14.8 1-21.6l-.7-19.9c-5.8-.1-11-4.1-13.1-7.3-2.7-3.5-3.9-6.9-5.2-10.2-2.3-6.6-3.5-13-4.4-19.3-1.8-12.7-2.2-25.2-2.1-37.7 .2-12.5 1-24.9 2.7-37.5 .9-6.3 2-12.6 3.7-19 .9-3.2 1.9-6.5 3.6-10 1.5-4 6.6-9.7 12.4-9.6l433.7 .7zM346.5 257.2c1 0 2 .4 2.7 1s1.1 1.5 1 2.3l-.8 8c-.2 2-2.1 3.5-4.5 3.6l-148.6 2.2c-2 0-4-.6-5.6-1.7l-.8-.6c-1.1-.7-1.4-2-.9-3.1l3.1-6.6c.8-1.7 2.7-2.8 4.9-2.9l0 .1 149.4-2.4zM33.1 68.3c-.6 .3-.3-.3-1.2 1.4-1 2.1-1.9 4.6-2.6 7.4-1.5 5.4-2.5 11.3-3.3 17.1-1.6 11.7-2.4 23.7-2.5 35.7-.1 11.9 .3 23.9 1.9 35.5 .8 5.8 1.9 11.4 3.7 16.4 1.6 5.2 4.9 8.6 4.8 7.7l495.1-1.8c.1 0-.2 .1 .4-.4 .6-.8 1.4-2.1 2.1-3.9 1.4-3.4 2.3-7.8 3-12.1 1.4-8.8 1.7-18.1 1.6-27.4-.3-18.5-2.2-37.5-6.6-55.2-1.8-7.3-4-14.2-5.6-17.4-.3-.5-.4-.8-.5-1.2-.4-.4-.6-.6-.6-.3l-35.3-.1c-73.7 0-221.1 0-442.3-.1-4 0-7.8-.4-10.5-1-.1 0-.2 0-.2-.1l-1.4 0z"/></svg>