<svg xmlns="http://www.w3.org/2000/svg" viewBox="0 0 560 560"><!--! Font Awesome Pro 7.2.0 by @fontawesome - https://fontawesome.com License - https://fontawesome.com/license (Commercial License) Copyright 2026 Fonticons, Inc. --><path fill="currentColor" d="M239.9 6.7c11-5.2 13.5-2.5 11.1 8-.5 2.1-2.9 4.4-6 5.9-36.9 17.5-73.7 34.9-109.9 53.3-36 18.6-72.6 37.2-104.5 60.6-1.6 1.2-3.1 1.8-5 1.4 1.2 5.4 2.1 15.9 2.1 27.9l.5 258.4c73.1 56.9 159 92.3 243.9 127.2 31.9-16.8 63.2-34.7 95.2-51.2 39.1-20.1 78.4-39.7 116.8-60.5l47.9-27.3c-.1-113.7 .1-193.7-.2-240.1-.1-13.2 3.8-12.6 11.9-6.4 1.7 1.3 2.8 4.3 2.8 7.7l1.6 237.5c0 2.2-1.8 10.5-3.1 10.8l-60.4 34.3c-39 21-78.6 40.7-117.7 60.9-29.4 15.2-58.5 31-87.2 47.4-2.3 1-4.5 3.4-6.9 3.3-81.8-33.6-165.3-66.1-237-118.9-4.6-3.2-9-6.7-13.4-10.2-3.1-2.4-7-4.6-9.4-7.7l-.4-276.8c0-6.6-1.7-20.2 3.3-25.7l4.8 3.3c-1.9-3.5 0-6.4 3.1-8.8 33.9-24.2 70.2-42.5 106.4-61.1 36.3-18.4 73.1-35.7 109.7-53.1zM285-5.1c1.6-1.4 9.2 .4 18.2 3.9 47.6 18.2 96.4 35.1 143.6 56.2 23.6 10.5 46.9 21.9 69.3 35.5 12.5 8.2 25.8 16.1 37.2 25.8-89.1 53-183.7 95.9-273.5 147.7l2.4 228.8c.1 12.2-4 11.9-11.9 6.2-1.7-1.2-2.8-4.2-2.8-7.4-.8-75.8-2.4-151.8-2.4-227.6-21.7-8.9-43.1-18.4-64.9-27-2.3-.9-2.4-4.5-1.1-6.2l4-5.4c1.1-1.4 2.4-2.1 3.3-1.7l67.8 26.6c75.2-42.9 153.8-79.4 229.2-121.8 10-5.6 26.8-15.4 23-13.4l-22.8-14.7c-21.8-12.9-44.9-23.9-68.4-34.2-21.4-9.5-43.2-18-65.1-26.3-2.5 2.1-6.2 4.4-10.6 6.6l-250.3 124-12.6 7.1-4.1 64.5 62.6 30.3 3.9-61.4c.5-2.2-.1-5.1 1.3-6.7l13.2-6.8c77.9-39.5 156.6-77.4 234.7-116.8 11.3-5.8 14.5-3.7 11.6 7.5-.6 2.2-3.2 4.7-6.5 6.4L176.8 214.1c-1.1 .6-3.2 .9-3.2 .9l-5.1 80.2-91.3-44.2 4.8-76.5c.6-3.4-.6-8.2 4-9.1l18-8.9 248.7-123.3c-20.4-7.6-40.9-15.2-61.5-23.2-4-1.6-7.6-3.6-10.1-5.6-2.5-1.9-3.4-3.3-2.7-3.9L285-5.1z"/></svg>