<svg xmlns="http://www.w3.org/2000/svg" viewBox="0 0 560 560"><!--! Font Awesome Pro 7.2.0 by @fontawesome - https://fontawesome.com License - https://fontawesome.com/license (Commercial License) Copyright 2026 Fonticons, Inc. --><path fill="currentColor" d="M398.4 28.5l.1 0c2 .1 3.5 1.3 3.5 2.8 .3 17.3 .5 28.9 .6 34.7-.2 4 .7 6.9-.6 13.4-1.4 5.6-4.9 10.6-9.8 13.7l-10.4 6-18.1 10.3 2.8 8.6c1.3 10.3 2.2 20.5 1.9 29.5 0 .6-.1 1.1-.2 1.7 .7 .1 1.3 .2 2 .3 11 2.1 22.2 4.6 33 9.9 10.7 5.2 21.1 13.4 27.1 24.9 2.2 3.6 3.4 7.4 4 11.1 .9 3.2 1.1 6.1 1 8.6 1.2 10.4 .8 19.5 .8 28.8 1-.4 2.1-.7 3.4-.7 7.4-.2 15.2 .2 21.3-.8 6.4-1.1 12.5-3.7 17.8-7.3 10.8-7.6 17.6-18.8 19.5-32.6L515 103.4c.2-1.2 .8-2.3 1.6-3s1.7-.9 2.5-.7l7.7 2.5 .1 0c1.9 .6 3 3.2 2.4 6l-16.9 87.4c-2.4 16-12.3 32.2-26.7 41.3-7.1 4.7-15.3 7.8-23.8 9-9 1.2-15.8 .6-23.3 .9-.8 0-1.6-.1-2.4-.2 .1 19.3 .2 37.1 .2 53.5l103.9-.4c.7 0 1.4 .4 1.9 1s.7 1.5 .7 2.3l-.7 8 0 0c-.2 2-1.6 3.5-3.2 3.5l-102.6 .2 .1 34.9c0 2-.4 4-1 5.4-.2 .4-.4 .7-.6 1-.1 4.9-.3 9.8-.7 14.7l21.4 0c8.3 .3 16.6 2.4 24.1 6.2 15 7.4 26.6 21.6 30.8 38l17.6 87.3c.2 1.2 .1 2.4-.4 3.3s-1.2 1.5-2.1 1.6l-8.1 .6c-2 .1-3.9-1.8-4.5-4.5l-17.3-85.7c-3.6-12.1-12.4-22.4-23.8-27.7-5.6-2.7-11.9-4-18-4.2l-21.6 .1c-.8 4.9-1.9 9.8-3.3 14.6-11.7 43.7-44.2 80.7-85.1 99.4-40.9 19.1-90.2 18.6-131-.8-41-19-72.8-56.8-84.1-100.7-1.3-4.7-2.3-9.3-3.1-14.1 0 0-.1 0-.1 0-15 0-27.3-.3-38.1 7-10.7 6.5-18.2 17.6-20.5 29.7L52 505.3c-.2 1.2-.8 2.2-1.6 2.9s-1.7 .9-2.5 .6l-7.7-2.4 0 0c-1.9-.6-3-3.1-2.5-5.7l15.4-84.6c3.4-16 14-30.2 28.1-38.6 7.1-4.1 15.1-6.8 23.3-7.7 7.7-.7 13.4-.5 19.8-.6-.9-12.7-.7-25.2-.7-37.2l0-18.4-94.5 3.9c-.7 0-1.4-.3-1.8-.9s-.7-1.5-.7-2.3l.3-8.1 0 0c.1-2 1.4-3.6 3-3.6l93.8-3.7 0-31.4c.1-7.6 0-14.9 0-22.2-7.1-.1-14.2 .5-22.6-.7-8.3-1.2-16.3-4.5-23.4-9.1-14.2-9-23.9-25.6-26.2-41.3L33 106.7c-.2-1.2-.1-2.4 .3-3.3s1.2-1.5 2.1-1.6l8.1-.7 0 0c2-.2 4 1.8 4.6 4.6l18.3 87.1c2.3 13.3 9.7 24.3 20.5 31.1 10.5 7.1 22.1 7 36.8 6.7 0-9.2 .2-18.6 .8-28.7 1.6-12.2 8.1-24.5 17.7-32.4 9.5-8.2 20.7-12.6 31.6-15.7 5.9-1.5 11.9-2.8 17.8-3.8 .4-4.8 3.2-10.1 7.4-12.9 4.4-3 8.8-3.7 12.8-4.1l20.5-.7 40-1.2c26.8-.1 53.8 1.7 80.8 2.5l0 0c-.9-13.9-4-26.5-12.5-37-10.1-13.2-26-21.6-42.7-24.6-33.3-6.6-72.1 9.6-81.8 41.8-.7 2.6-2 5-3.7 6.8l-.8 .9c-1.1 1.2-2.5 1.5-3.3 .7-1.7-1.8-3.5-3.8-5.2-6-1.2-1.5-1.4-4.5-.7-7.7L182.7 98c-3.7-2-6.3-3.2-10.9-5.9-4.7-3.2-8.2-8.2-9.4-13.9-1-6.6-.4-8.7-.7-13.1-.1-5.8-.3-17.4-.6-34.9 0-.6 .3-1.2 1-1.6s1.5-.6 2.3-.6l8 .5 .1 0c2 .1 3.5 1.3 3.6 2.8 .3 17.3 .4 28.9 .5 34.7 .1 3.6-.1 8.5 .4 9.6 .6 1.9 1.8 3.5 3.5 4.5l9.8 5.3 17.9 9.5c8.1-13.6 20.7-24.6 35-30.9 18.6-8.3 39.4-10.3 59.3-6.3 19.8 3.9 39.1 14.5 51.3 31.8 1.2 2.1 2.5 4.2 3.7 6.3l17.4-10 9.4-5.5c1.7-1.2 2.8-3.1 3.1-5.1l-.7-45c0-.6 .4-1.2 1-1.6s1.5-.6 2.3-.6l8 .5zM273.6 160c-36 0-72.5-.3-104.6 10.9-9.2 3.5-17.7 8.5-23 15.8-5.5 7.2-7.3 16-7.5 25.8 0 42.8 0 85.6-.1 128.4-.5 21.8 .3 41.6 7.1 61.1 12.8 38.6 42.9 71.1 80.6 86.4 15 6.1 31.1 9.4 47.2 10.1-.2-1.3-.4-2.7-.4-4.1l.2-329.2c0-1.7 .1-3.5 .3-5.1zm13.6 .5c.5 1.9 .8 4.2 .8 6.6L288 497.6c0 .2-.1 .5-.1 .7 19.5-1.2 38.8-6.2 56.2-15.3 36.4-18.2 63.3-53.5 72.4-92.9 3.7-14.6 3.9-30 3.8-45.9l0-80.3c0-10.4 .3-20.6 1-29.5-.2-12.3 .7-25.2-1.9-34.8-4.9-21.1-28.6-30.6-51.7-34.3-23.6-3.8-48.3-4-73-4-2.6 0-5.2-.3-7.5-.7z"/></svg>