<svg xmlns="http://www.w3.org/2000/svg" viewBox="0 0 560 560"><!--! Font Awesome Pro 7.2.0 by @fontawesome - https://fontawesome.com License - https://fontawesome.com/license (Commercial License) Copyright 2026 Fonticons, Inc. --><path fill="currentColor" d="M204.1-4.2c2 0 3.5 .7 3.6 1.4l1.3 40.3 59.7-.4 .4 49.6 19.1-.1 .6 99.6c0 1-.3 1.8-.6 2.7L335.7 202c-.3-46.8-.5-72.4-.5-76.8l0-7.5c.4-2-1.3-6.2 2.2-5.1l14.1-.1 31.7-.2 126.8-.8c1.7 0 3.3 .3 4.5 1 1.1 .6 1.7 1.5 1.6 2.3l-.4 2 4.1 5.6c1.7 2.3 2.8 7.6 2.8 13.6l1.6 414.1c0 .7-.2 1.3-.3 2l14.2-.1c7.2 0 14.2 .6 19.7 1.7l2.7 .5-.1-.1c3.7 .7 5 2 3.1 3.1l-11.2 6.6c-2.9 1.7-9.7 2.8-17.2 2.8L7.8 568.3c-3.6 0-7-.3-9.4-1S-5.2 565.8-5 565l2.8-8c.7-2 7.6-3.6 15.9-3.6l33.6-.1-1.6-3.1c-1.7-3.3-2.8-11.2-2.8-20-.7-265.7-.6-232-.6-243.3 .1-.6-.2-1.7 .2-2l2.2 0c19.2 0 48.8-.1 73.1-.2l38.3-.1 12-.1 9.2 0c2.2-.7 1 2.1 1.3 3.3l0 4.6 0 23.3c.1 38.3 .3 114.7 .6 229.4 0 2.8-.2 5.4-.5 7.8l232.8-.7c-.5-2.4-.9-5.2-1-8.5-1.1-76.8-2.1-153.6-2.1-230.5l.5-57.7 .4-14.5 .1-3.2c0-.2-.2-.2-.3-.2l-26.3-7.3-111-30.8c-2.4-.7-4.6-1.5-6.8-2.2 0 .2 .1 .5 .1 .7l1.5 308.1c0 4.2-.6 8.3-1.7 11.6l-.6 1.6c-.7 2.2-2 2.9-3.1 1.8l-6.6-6.6c-1.7-1.7-2.8-5.7-2.8-10.1l-.7-134.8c0 1.9-.5 3.4-1.2 3.4l-45.1 1.2-.1 0c-.6 0-1.2-.6-1.6-1.7l-.2-.5c-.3-.8-.3-2-.1-3.1l1.4-6.6c.3-1.7 1-2.8 1.6-2.8l43.8-1.4c.3 0 .6 .4 .8 1 .2 .6 .4 1.5 .4 2.3l.2 7.1-.3-53.2c-.2 .9-.5 1.6-1 1.6l-45.1 1.2c-.6 0-1.2-.6-1.6-1.7l-.2-.5c-.3-.8-.3-2-.1-3.1l1.4-6.6c.3-1.7 1-2.8 1.6-2.8l43.8-1.3c.3 0 .6 .4 .8 1 .2 .5 .2 1.1 .3 1.7l-.2-46.7c-.3 1.6-1.2 2.9-2.4 2.9l-89.1 1.2c-1.2 0-2.4-.6-3.3-1.7l-.4-.5c-.6-.7-.8-2-.4-3.1l2.1-6.6c.6-1.7 1.7-2.8 3-2.8L249 246c.6 0 1.2 .4 1.6 1 .1 .1 .1 .3 .1 .3l-.2-44.4c-.4 1.1-1.1 1.9-2.1 1.9l-89.1 1.2c-1.2 0-2.4-.6-3.3-1.7l-.4-.5c-.6-.7-.7-2-.4-3.1l2.1-6.6c.6-1.7 1.7-2.8 3-2.8l88.8-1.3c.6 0 1.2 .4 1.6 1 .2 .3 .2 .8 .3 1.2 .1-.7 .1-1.5 .4-2.1-.5-.7-.4-1.3 .6-1.7l1.2-.4c.2-.1 .4-.6 .6-.5l.7 .1 8.8-2.9c2.2-.7 6.3-.3 10.9 .5-.1-.7-.4-1.2-.4-2l-.5-82.1-145.1 .9 1.4 165.9c0 2.3-.6 4.6-1.7 6.3l-.5 .8c-.7 1.2-2 1.6-3.1 1l-6.6-3.6c-1.7-.9-2.8-3.1-2.8-5.5L113.3 98.3c0-1.1 .3-2.2 1-3 .6-.8 1.5-1.2 2.3-1.2l.7 .1 3.2-4c1.4-1.7 4.5-2.8 8-2.8l7.5-.1c-.8-1.3-1.4-2.9-1.4-4.8L134.4 63c0-6.6-.1-12.9-.1-18.9 .4-2.6-1.5-7.5 2.9-6.2l45-.3 12.1-.1-1.4-40.9c0-.3 .3-.6 1-.8s1.5-.3 2.3-.3l8 .2zM150.8 299.5c-25.4 .1-50.8 .1-76.2 .2l-17.1 .1c-.1 0-.5-.1-.4 .2l0 4.9 .2 76.3 0 0 .4 152.5c0 7.1-.5 13.8-1.3 19.6l109.7-.3c-.9-3.4-1.6-8.5-1.6-14.5-.3-114.5-.4-190.9-.5-229.1l0-9.5c-.1 .2 .1-.4-.2-.4l-13 .1zM506.9 126.4l-126.1 .7-30.6 .2c-.4 0-.4 .1-.3 .7l.1 15.8 .4 62.3 34.9 9.7-1.6-54.8c0-.4 .3-.7 1-1s1.5-.4 2.3-.4l8 .3c2 .1 3.6 .8 3.6 1.7l1.5 55.5c0 .8-.6 1.5-1.7 2.1l-.3 .2 24.1 6.7c.9 .4 2.6 .3 2.8 1.2l-.2 3.4-.3 6.8-.4 7.9-.3 14.4-.4 57.8c.1 77.1 1.1 154.4 2.3 231.5 0 1.3-.3 2.3-.4 3.5l37.7-.1-.3-.4c-1.7-2-2.8-6.8-2.8-12.1l-1.6-371.1c0-2.5 .4-4.9 1-6.6s1.5-2.6 2.3-2.4l8 1.9c2 .5 3.6 5.3 3.6 11.2l1.5 369.1c0 3.7-.4 7.2-1 10.4l36.2-.1c-.4-1.9-.7-4.1-.7-6.6l-1.5-412.3c0-2.4 .1-4.8 .4-7.1-.5 0-.8 .2-1.2 .2zm-212 376.4l6.6 .7c1.7 .2 2.8 .6 2.8 1l1.6 30.2c0 .2-.3 .4-1 .5s-1.5 .2-2.3 .2l-8-.2c-2 0-3.5-.4-3.6-.9l0 0-1.5-30c0-.4 .6-.8 1.7-1.1l.5-.2c.7-.2 2-.3 3.1-.2zm40 0l6.6 .7c1.7 .2 2.8 .6 2.8 1l1.6 30.2c0 .2-.3 .4-1 .5s-1.5 .2-2.3 .2l-8-.2c-2-.1-3.5-.4-3.6-.9l0 0-1.4-30c0-.4 .6-.8 1.7-1.1l.5-.2c.7-.2 2-.3 3.1-.2zm39.9 0l6.6 .7c1.7 .2 2.8 .6 2.8 1l1.6 30.2c0 .2-.3 .4-1 .5s-1.5 .2-2.4 .2l-8-.2c-2-.1-3.5-.4-3.5-.9l0 0-1.5-30c0-.4 .6-.8 1.7-1.1l.6-.2c.7-.2 2-.3 3.1-.2zM128.5 490.8l6.5 1.1 0 0c1.7 .3 2.8 .5 2.8 .8l.8 14.4c-.1 0-.4 .2-1 .3-.6 .1-1.5 .2-2.3 .3l-8 .5c-2 .1-3.5 0-3.5-.2l-.6-16.8c0-.2 .6-.4 1.7-.5l.5 0c.8 0 2 .1 3.1 .2zm-34.3 .1c1.7 .1 2.8 .3 2.8 .5l1.6 15.6c0 .1-.3 .2-1 .3s-1.5 .1-2.3 .1l-8-.1c-2 0-3.5-.2-3.6-.5l-1.5-15.6c0-.2 .6-.4 1.7-.6l.5-.1c.7-.1 2-.1 3.1-.1l6.6 .3zm155.8-20.6c.3 0 .6 .4 .8 1s.4 1.5 .4 2.3l.2 8c0 2-.5 3.5-1.2 3.5L205 486.3c-.6 0-1.2-.6-1.6-1.7l-.2-.5-.1-.1c-.3-.8-.3-2-.1-3.1l1.4-6.6c.3-1.7 1-2.8 1.6-2.8l43.8-1.4zm45.1-30.9l6.6 .6c1.7 .2 2.8 .6 2.8 1l1.6 30.2c0 .2-.3 .4-1 .5s-1.5 .2-2.3 .2l-8-.2c-2 0-3.5-.4-3.6-.9l0 0-1.5-30c0-.4 .6-.8 1.7-1.1l.5-.1c.7-.2 2-.3 3.1-.2zm40 0l6.6 .6c1.7 .2 2.8 .6 2.8 1l1.6 30.2c0 .2-.3 .4-1 .5s-1.5 .2-2.3 .2l-8-.2c-2 0-3.5-.4-3.6-.9l-1.5-30c0-.4 .6-.8 1.7-1.1l.5-.1c.7-.2 2-.3 3.1-.2zm39.9 0l6.6 .6c1.7 .2 2.8 .6 2.8 1l1.6 30.2c0 .2-.3 .4-1 .5-.6 .1-1.5 .2-2.4 .2l-8-.2c-2 0-3.5-.4-3.5-.9l-1.5-30c0-.4 .6-.8 1.7-1.1l.6-.1c.7-.2 2-.3 3.1-.2zm-241.3-5.1c2 0 3.5 .3 3.5 .5l1.5 15.6c0 .2-.6 .4-1.7 .6l-.6 .1c-.7 .1-2 .2-3.1 .1l-6.6-.3c-1.7-.1-2.8-.3-2.8-.5l-1.6-15.6c0-.1 .3-.2 1-.3s1.5-.1 2.4-.1l8 .1zm-48.1 .8l8 .5c2 .1 3.5 .4 3.5 .6l.7 14c0 .2-.6 .4-1.8 .4l-.5 .1c-.8 0-2 0-3.1-.1l-6.6-.7c-1.7-.2-2.7-.4-2.8-.6l-.8-14.1c0-.1 .4-.2 1-.2s1.5 0 2.3 0zm164.4-20.9c.3 0 .6 .4 .8 1s.4 1.5 .4 2.3l.2 8c0 2-.5 3.5-1.2 3.6L205 430.3c-.6 0-1.2-.6-1.6-1.7l-.2-.5-.1 0c-.3-.8-.3-2-.1-3.1l1.4-6.6c.3-1.7 1-2.8 1.6-2.8l43.8-1.3zM301 376.4l0 0c2 0 3.5 .4 3.6 .9l1.5 30c0 .4-.6 .8-1.7 1.1l-.5 .1c-.7 .2-2 .3-3.1 .2l-6.6-.6c-1.7-.2-2.8-.6-2.8-1L289.7 377c0-.2 .3-.4 1-.5s1.5-.2 2.3-.2l8 .2zm40 0c2 .1 3.6 .4 3.6 .9l1.5 30c0 .4-.6 .8-1.7 1.1l-.5 .1c-.7 .2-2 .3-3.1 .2l-6.6-.6c-1.7-.2-2.8-.6-2.8-1L329.6 377c0-.2 .4-.4 1-.5s1.5-.2 2.3-.2l8 .2zm40 0c2 0 3.6 .4 3.6 .9l1.5 30c0 .4-.6 .8-1.7 1.1l-.5 .1c-.7 .2-2 .3-3.1 .2l-6.6-.6c-1.7-.2-2.8-.6-2.8-1L369.6 377c0-.2 .3-.4 1-.5s1.5-.2 2.3-.2l8 .2zM88.5 379.7l6.6 .6c1.7 .1 2.8 .4 2.8 .7l.7 16.6s-.4 .2-1 .2c-.6 0-1.5-.1-2.3-.1l-8-1c-1.9-.2-3.5-.6-3.5-.8l-.6-15.5c0-.2 .6-.4 1.7-.5l.6 0c.7-.1 2-.1 3.1 0zm40.4 .1l6.6 1c1.7 .3 2.8 .6 2.8 .8l.8 14.4s-.4 .2-1 .3c-.6 .1-1.5 .2-2.4 .3l-8 .5c-2 .1-3.5 0-3.5-.2l-.6-16.8c0-.2 .6-.4 1.8-.5l.5 0c.8 0 2 .1 3.1 .2zm166-59.8l6.6 .6c1.7 .2 2.8 .6 2.8 1l1.6 30.2c0 .2-.3 .4-1 .5-.6 .1-1.5 .2-2.3 .2l-8-.2c-2 0-3.6-.5-3.6-.9l0 0-1.5-30c0-.4 .6-.8 1.7-1.1l.5-.1c.7-.2 2-.3 3.1-.2zm40 0l6.6 .6c1.7 .2 2.8 .6 2.8 1l1.6 30.2c0 .2-.3 .4-1 .5-.6 .1-1.5 .2-2.3 .2l-8-.2c-2 0-3.6-.5-3.6-.9l-1.5-30c0-.4 .6-.8 1.7-1.1l.5-.1c.7-.2 2-.3 3.1-.2zm39.9 0l6.6 .6c1.7 .2 2.8 .6 2.8 1l1.6 30.2c0 .2-.3 .4-1 .5-.6 .1-1.5 .2-2.4 .2l-8-.2c-2-.1-3.5-.5-3.5-.9l-1.5-30c0-.4 .6-.8 1.7-1.1l.6-.1c.7-.2 2-.3 3.1-.2zM93.6 323.3c2 0 3.5 .2 3.6 .5l1.5 15.6c0 .2-.6 .4-1.7 .6l-.5 .1c-.7 .1-2 .1-3.1 .1l-6.6-.3c-1.7-.1-2.8-.3-2.8-.5l-1.6-15.6c0-.1 .3-.2 1-.3s1.5-.1 2.3-.1l8 .1zm40 0c2 0 3.5 .2 3.5 .5l1.5 15.6c0 .2-.6 .4-1.7 .6l-.6 .1c-.7 .1-2 .1-3.1 .1l-6.6-.3c-1.7-.1-2.8-.3-2.8-.5l-1.6-15.6c0-.1 .3-.2 1-.3 .6-.1 1.5-.1 2.4-.1l8 .1zM301 257.2c2 0 3.6 .4 3.6 .9l1.5 30c0 .4-.6 .8-1.7 1.1l-.5 .2c-.7 .2-2 .3-3.1 .2l0 0-6.6-.7c-1.7-.2-2.8-.6-2.8-1l-1.6-30.2c0-.2 .3-.4 1-.5s1.5-.2 2.3-.2l8 .2zm40 0c2 0 3.6 .4 3.6 .9l1.5 30c0 .4-.6 .8-1.7 1.1l-.5 .2c-.7 .2-2 .3-3.1 .2l-6.6-.7c-1.7-.2-2.8-.6-2.8-1l-1.6-30.2c0-.2 .3-.4 1-.5s1.5-.2 2.4-.2l8 .2zm39.9 0c2 0 3.6 .4 3.6 .9l1.5 30c0 .4-.6 .8-1.7 1.1l-.5 .2c-.7 .2-2 .3-3.1 .2l-6.6-.7c-1.7-.2-2.8-.6-2.8-1l-1.6-30.2c0-.2 .3-.4 1-.5s1.5-.2 2.3-.2l8 .2zM249.1 134c.6 0 1.2 .4 1.6 1s.6 1.5 .6 2.3l-.3 8c-.1 2-1.2 3.6-2.6 3.6l-89.1 1.2 0 0c-1.2 0-2.4-.6-3.3-1.7l-.4-.5c-.6-.7-.7-2-.4-3.1l2.1-6.6c.6-1.7 1.7-2.8 3-2.8l88.8-1.3zM181.3 52.5l-32.4 .3 0 0 .3 31.1c0 1.3-.6 2.3-.8 3.5l105.6-.7-.3-34.8-72.4 .6z"/></svg>