<svg xmlns="http://www.w3.org/2000/svg" viewBox="0 0 336 560"><!--! Font Awesome Pro 7.2.0 by @fontawesome - https://fontawesome.com License - https://fontawesome.com/license (Commercial License) Copyright 2026 Fonticons, Inc. --><path fill="currentColor" d="M159.3-7.9c18.5-.4 36.9-.4 55.5 .5 9.3 .5 18.6 1.1 28 2.4 4.7 .7 9.4 1.4 14.5 2.8 2.8 .9 4.4 .9 8.7 3.4 4.3 2 6 6.2 7.1 10.3l.8 36.1c0 1.8-.5 3.2-.8 4.9l28.7-.1c3.3 0 6.3 .6 8.9 1.4 4.7 .2 11.5-1.9 9.7 5.1l.1 3c.9 .5 1.5 1.1 1.5 1.8-.8 11.5-.8 22.9-.6 34.4l.4 26.8c.1 4.9 .3 9.6 .3 14.5 0 0-.1 .1-.1 .1l0 1.3 .7 137.9-.1 0 .7 275.8c0 3.8-.3 7.2-.8 9.5-.6 2.4-1.4 3.7-2.2 3.4l-8.1-2.2c-2.1-.7-3.7-8.1-3.8-16.8l-.6-274.4-.7-137.1c0-6.1-.2-12.2-.3-18.3-.2-7.1-.3-14-.4-21.1-.2-9.6-.2-19.4-.5-28.8-.6-.5 1.2-.2-1.6-.3-8.6 0-25.7 .1-51.4 .1-6.2 0-12-.5-17.1-1.2l-212.2 1.2 1.6 2.7c1.6 2.6 2.6 8.6 2.5 15.3-1.2 156 .8 312.2 .8 468.5 1.4-.6 3.1-.9 4.9-.9l57.7-.4-1.2-87.9 0-.1-15.5 .2c-1.2 0-2.4-.3-3.3-1s-1.3-1.5-1.2-2.3l1-8c.2-2 2.6-3.6 5.5-3.6l181.8-1.5c2.5 0 4.9 .6 6.8 1.7l.9 .5c1.3 .7 1.7 2 1.1 3.1l-3.9 6.6c-1 1.7-3.4 2.8-6 2.8l-14.6 .1c.6 .6 1.1 1.2 1.1 2l1.4 86.4 28.8-.2c1.6 0 3.2 .3 4.3 1s1.7 1.5 1.5 2.3l-1.3 8c-.3 2-3.4 3.6-7.2 3.6L32.3 569c-2.1 0-4-.6-5.9-1.1-.4 .5-.9 .7-1.3 .5l-7.9-3.1c-2-.7-3.4-6.5-3.4-14 0-155.7-2-311.5-.7-467.6 .1-6.5 .8-12.7 2.2-17.7l.7-2.4c.5-1.8 1.1-2.8 1.7-3.2l.5-3.1c.4-2 4-3.6 8.3-3.6l234-1.3c-.9-1.7-1.5-3.7-1.6-6.1l-.8-32.2c2.4-.7-10-3.9-18-4.7-8.9-1.2-18-1.8-27.2-2.2-18.3-.8-36.7-.9-55.1-.4-18.4 .6-36.8 1.5-54.8 3.6-8.4 .9-19.3 2.8-24.2 4.6-.1-3.9 .1 10.3 .1 18.6 0 1.7-.3 3.4-1 4.6S76.9 40.2 76 40l-8-1.3c-2-.3-3.5-3.7-3.5-7.7l-.1-13.7c.1-1.4-.8-7.5 1.7-10.3 1.9-3.1 6.8-5.4 9.4-6.2 10-3.1 19.1-4 28.4-5.2 18.5-2.1 37-3 55.5-3.5zM104.6 465.7c.1 .3 .3 .5 .3 .8l0 0 1.4 87.3 54.9-.4-1.3-87.5c0-.3 .3-.5 .4-.7l-55.7 .5zm69.5-.6c.3 .4 .6 .9 .6 1.4l1.4 86.8 54.4-.4-1.3-87c0-.5 .5-.9 .7-1.3l-55.8 .5zM81.1 376.4c2 .1 3.6 .6 3.6 1.3L86.1 419c0 .6-.6 1.1-1.7 1.6l-.6 .2c-.7 .3-2 .4-3.1 .2l-6.6-.9 0 0c-1.7-.2-2.8-.8-2.8-1.4l-1.6-41.6c0-.3 .3-.5 1-.7s1.5-.3 2.3-.3l8 .2zm60.4 0c2 .1 3.6 .6 3.6 1.3l1.5 41.3c0 .6-.6 1.1-1.7 1.6l-.5 .2c-.7 .3-2 .4-3.1 .2l-6.6-.9c-1.7-.2-2.8-.8-2.8-1.4l-1.6-41.6c0-.3 .4-.5 1-.7s1.5-.3 2.3-.3l8 .2zm60.4 0c2 .1 3.6 .6 3.6 1.3l1.4 41.3c0 .6-.6 1.1-1.7 1.6l-.5 .2c-.7 .3-2 .4-3.1 .2l-6.6-.9 0 0c-1.7-.2-2.8-.8-2.8-1.4l-1.6-41.6c0-.3 .3-.5 1-.7s1.5-.3 2.3-.3l8 .2zm60.4 0c2 .1 3.6 .6 3.6 1.3l1.5 41.3c0 .6-.6 1.1-1.7 1.6l-.5 .2c-.7 .3-2 .4-3.1 .2l-6.6-.9c-1.7-.2-2.8-.8-2.8-1.4L251 377.2c0-.3 .3-.5 1-.7s1.5-.3 2.3-.3l8 .2zM75.1 288l6.6 .9c1.7 .2 2.8 .8 2.8 1.4l1.6 41.6c0 .3-.3 .6-1 .8s-1.5 .2-2.3 .2l-8-.2c-2 0-3.6-.6-3.6-1.2L69.7 290c0-.6 .6-1.1 1.7-1.6l.5-.2c.7-.3 2-.4 3.1-.2zm60.4 0l6.6 .9c1.7 .2 2.8 .8 2.8 1.4l1.6 41.6c0 .3-.3 .6-1 .8s-1.5 .2-2.3 .2l-8-.2c-2 0-3.6-.6-3.6-1.2L130.1 290c0-.6 .6-1.1 1.7-1.6l.5-.2c.7-.3 2-.4 3.1-.2zm60.4 0l6.6 .9c1.7 .2 2.8 .8 2.8 1.4l1.6 41.6c0 .3-.4 .6-1 .8s-1.5 .2-2.3 .2l-8-.2c-2-.1-3.6-.6-3.6-1.2L190.5 290c0-.6 .6-1.1 1.7-1.6l.5-.2c.7-.3 2-.4 3.1-.2zm60.4 0l6.6 .9c1.7 .2 2.8 .8 2.8 1.4l1.6 41.6c0 .3-.3 .6-1 .8s-1.5 .2-2.3 .2l-8-.2c-2 0-3.6-.6-3.6-1.2L250.9 290c0-.6 .6-1.1 1.7-1.6l.5-.2c.7-.3 2-.4 3.1-.2zM81.1 201.3c2 0 3.5 .6 3.6 1.2l1.5 41.3c0 .6-.6 1.2-1.7 1.6l-.5 .2c-.7 .3-2 .4-3.1 .2l-6.6-.9c-1.7-.2-2.8-.8-2.8-1.4l-1.6-41.6c0-.3 .3-.6 1-.8s1.5-.2 2.3-.2l8 .2zm60.4 0c2 0 3.5 .6 3.6 1.2l1.5 41.3c0 .6-.6 1.2-1.7 1.6l-.5 .2c-.7 .3-2 .4-3.1 .2l-6.6-.9c-1.7-.2-2.8-.8-2.8-1.4l-1.6-41.6c0-.3 .4-.6 1-.8s1.5-.2 2.3-.2l8 .2zm60.4 0c2 0 3.5 .6 3.6 1.2l1.5 41.3c0 .6-.6 1.2-1.7 1.6l-.5 .2c-.7 .3-2 .4-3.1 .2L195 245c-1.7-.2-2.8-.8-2.8-1.4l-1.6-41.6c0-.3 .3-.6 1-.8s1.5-.2 2.3-.2l8 .2zm60.4 0c2 0 3.5 .6 3.6 1.2l1.5 41.3c0 .6-.6 1.2-1.7 1.6l-.5 .2c-.7 .3-2 .4-3.1 .2l-6.6-.9c-1.7-.2-2.8-.8-2.8-1.4L251 202.1c0-.3 .3-.6 1-.8s1.5-.2 2.3-.2l8 .2zM75.1 112.8l6.6 .9c1.7 .2 2.8 .8 2.8 1.4l1.6 41.6c0 .3-.3 .5-1 .7s-1.5 .3-2.3 .3l-8-.2c-2 0-3.6-.6-3.6-1.3l-1.5-41.3c0-.6 .6-1.1 1.7-1.6l.5-.2c.7-.3 2-.4 3.1-.2zm60.4 0l6.6 .9c1.7 .2 2.8 .8 2.8 1.4l1.6 41.6c0 .3-.3 .5-1 .7s-1.5 .3-2.3 .3l-8-.2c-2 0-3.6-.6-3.6-1.3l-1.5-41.3c0-.6 .6-1.1 1.7-1.6l.5-.2c.7-.3 2-.4 3.1-.2zm60.4 0l6.6 .9c1.7 .2 2.8 .8 2.8 1.4l1.6 41.6c0 .3-.4 .5-1 .7s-1.5 .3-2.3 .3l-8-.2c-2 0-3.6-.6-3.6-1.3l-1.4-41.3c0-.6 .6-1.1 1.7-1.6l.5-.2c.7-.3 2-.4 3.1-.2zm60.4 0l6.6 .9c1.7 .2 2.8 .8 2.8 1.4l1.6 41.6c0 .3-.3 .5-1 .7s-1.5 .3-2.3 .3l-8-.2c-2 0-3.6-.6-3.6-1.3l-1.5-41.3c0-.6 .6-1.1 1.7-1.6l.5-.2c.7-.3 2-.4 3.1-.2z"/></svg>