<svg xmlns="http://www.w3.org/2000/svg" viewBox="0 0 560 560"><!--! Font Awesome Pro 7.2.0 by @fontawesome - https://fontawesome.com License - https://fontawesome.com/license (Commercial License) Copyright 2026 Fonticons, Inc. --><path fill="currentColor" d="M159.4 24c63.3-3.9 126.2-2.6 189.1-1.6 31.9 1 61.9 .5 95.3 3.1 16.8 2.9 33.8 11.3 44.3 26.4 11.1 16.6 8.6 35 9.1 49.8 .2 13.6 .2 27.2 .2 40.8l13.3-.2 7-.1 3.6 0 5.9 .2c5.5 .2 8.2 5.9 9 11 .9 4.6 1.1 6.9 1.5 10.3 .6 6.3 .9 12.4 1.2 18.6l0 0c.5 12.3 .7 24.5 .7 36.8l-.2 18.4-.3 9.3-.2 4.7c-.1 2.4-.4 5.9-1.6 8.1-1.8 5.1-9.9 6.6-13.4 7.1-3.4 .5-6.7 .7-9.9 .8-5.4 .2-10.7 .1-16-.2 0 7.7 0 15.3 0 23l.1 94.2c-.1 16 .3 30.7-.2 47.8-.9 16.8-10.5 33.7-24.8 43.3 .6 1 1 2.2 1 3.5l.1 45.8c-.2 3.2 .8 9.6-4.5 15.7-5.8 5.4-11.1 5.2-15.3 5.8-8.6 .4-15.6-.1-23.4-.1l-23-.3c-7.5-.4-15.9 .7-26-4.2-5.1-2.5-9.4-8.3-10.6-13.5-1.5-5.4-1.2-9.7-1.4-13.3l-.5-23.1c0-.5 .2-.8 .3-1.3-30 .6-59.9 .4-89.8 .2l-87.5-.5c-.1 16.9-.1 28.2-.1 34.1-.3 3.3 1 9.4-4.2 15.7-5.7 5.6-11.2 5.5-15.4 6-4.6 .3-8.2 .1-12.1 .1l-23.2-.3c-7.9-.2-15.1 .1-23.8-.7-4.3-.5-9.1-1.3-14.2-4.1-5.2-2.9-9-8.9-10.1-14-1.3-5.5-.9-9.4-1.1-13.1-.1-5.8-.3-17.4-.7-34.9 0-.9 .4-1.6 .6-2.5-9-6.6-16.9-16.1-19.7-27.1-2.9-11-2.2-20.6-1.7-28.5l.5-7.7c.6-10.3 1.3-13.8 2.8-8.8 2.9 10.3 4.1 21.7 7.4 31.7 1.3 3.8 2.8 10.2 6.8 16.3 4.1 5.9 11.2 12.5 19.8 16.8 12.8 7 26.8 6.7 43.2 6.3l47.5-.1 94.8 .5c31.6 .2 63.1 .3 94.5-.5 15.6-.6 31.4-1.1 46.7-2.9 7.6-.9 15.3-1.9 22.2-3.9 6.6-1.7 12.5-4.8 17.5-9.8 10.1-9.6 13.9-22.9 13-38.1 0-23.7-.1-71.1-.1-142.2-.3-63.1 .3-126.5-.6-189.5 0-15.8-2.4-28.1-13.8-36.9-10.5-8.9-24.7-13.2-39.3-13.3l-94.7-2.1c-63-.8-126.4-2.2-188.5 3-15.1 1.6-31.6 3.5-43.2 8.8-10 5.1-16.7 20.7-20.2 34.2-1.7 7.1-2.4 14.1-2.2 21.6 0 11.8 0 35.5 .1 71.1l.2 189.6c0 10.3-.4 20.1-1 27.1s-1.5 10.5-2.3 9.7l-8-8c-2-2-3.6-21.7-3.6-45.6l-.1-83.5c-.8 .4-1.5 .8-2.5 .9-7.5 .5-14.8 .6-22.5 .2-2-.2-3.8-.3-6.1-.7-3.1-.6-6.5-1.3-8.8-3.3-2.5-1.9-3.2-5-3.6-8.3l-.5-6.5c-.8-14.6-1.1-29.1-1.1-43.6 0-14.5 .1-28.9 1.5-43.9 .3-2.1 .3-3.2 .9-6.4 .5-3 1.5-6.8 3.6-9 2.7-1.8 4.9-3.6 8.8-3.3l6.9-.2 21.5 0c.7 0 1.2 .4 1.8 .5l0-28.4c-.7-15.3 .8-33.7 7.7-48.9 3.4-7.7 7.3-15.4 14-22.1 7-7.2 16.6-9.5 24.4-11.6 16.1-3.7 32-4.9 47.8-6.2zM458.8 495.4c-1.4 1.3-4.8 3.7-7.7 3.8l-10.9 .5c-11.4 .5-30.1 1.3-56.1 2.4l.3 13.6c0 8.3 .9 11.8 5 13.4 4.7 2 12.3 1.9 20 2l22.9 .3c7.3 0 16.1 .5 22.1-.1 3.4-.4 4.6-1.2 4.3-1.2 .1 .5 .5-3.5 .4-7.4l-.1-27.6c0 0-.1 .1-.2 .2zm-356.3 8c.4 7.1-.2 16.9 1.1 21.2 .8 8.1 20.7 6.1 35.3 6.6l23.2 .3c3.9 .1 7.8 .2 10.7-.2 3.4-.5 4.4-1.2 4.1-1.2l0-.1c.1 .5 .4-3.8 .3-7.7l.1-11.6 0-9.9c-30.5-.2-51-.3-61.5-.4-3.9-.1-5.9 .1-11.4-.2-.8-.2-1.3-.5-1.9-.8l.1 3.9zm39.1-127.6c6.1-.2 13.5 1.8 18.6 6.9 4.9 4.9 7.7 11.4 7.8 18.4 .2 7.1-3.3 14.2-8.3 18.7-5 4.6-11.5 7.3-18.6 7.4-7.2 0-13.8-3.1-18.7-7.6-4.9-4.5-8.3-10.9-9.1-17.9-1.6-7.2 3.8-17 8.9-20 1.4-1.1 2.9-1.3 4.4-1.3 4.7-3.2 9.9-4.4 15-4.6zm280.7 0c6.1-.2 13.5 1.8 18.6 6.9 4.9 4.9 7.7 11.4 7.8 18.4 .2 7.1-3.3 14.2-8.3 18.7-5 4.6-11.5 7.3-18.6 7.4-7.2 0-13.8-3.1-18.7-7.6-4.9-4.5-8.3-10.8-9.2-17.9-1.6-7.2 3.8-17 8.9-20 1.4-1.1 2.9-1.3 4.4-1.3 4.7-3.2 9.9-4.4 15-4.6zm-227-252.8c74.7-2.4 149.2-.1 223.5 1.1 11.3 .2 21.4 4.2 30.2 10.7 2.1 1.7 4.3 3.1 6.6 7.5 1.9 3.7 1.9 5.5 2.9 8.4 1 4.9 1.9 9.8 2.5 14.5 2.4 19 3.1 37.8 3 56.7-.3 18.9-1.4 37.9-5.5 57-2.3 9.5-4.8 19.3-12 28.9-2.4 2.2-4.5 4.9-7.4 6.3-3 1.4-6.3 2.6-8.5 2.9-5.1 1.2-9.8 1.9-14.6 2.6-75.3 7.7-149.4 7.1-224.3 5.4-6.1-.1-11.9-.8-16-1.6s-6.1-1.8-5.6-2.6l5.1-7.8c1.3-1.9 12.9-2.9 26.9-2.5 36.8 .9 73.8 1 110.6 .2 36.7-1 74.1-1.7 109.6-7 9.9-1.7 12.4-2.9 16.3-11.1 3.1-7.5 5.5-15.9 6.8-24.8 2.9-17.6 3.7-35.9 3.7-54-.1-14.4-1-28.8-2.7-42.9-.6-1.2-1.1-2.6-1.5-4l-3.1-10.6c0-1-2.2-3.6-4-4.9-4-2.9-10.3-3.8-17.3-3.9l-44.1-.7-88.2-1.1c-29.4-.1-58.7 .1-88 1.1l-43.9 1.9c-14.1 1-30.5 1.3-34.3 8.9-1.7 2.4-3.3 5.9-5.1 8.8-.4 3.5-.8 7.1-1.1 10.6-1.5 18-1.9 36.3-1.2 54.4 .9 17.9 2.5 36.4 8.2 52 .9 2.7 1.5 4.8 2.2 6.8 .4 1.3 .8 2.3 1.3 3.3 .4 .9 .7 1.8 1.1 2.5 2.1 4.1 4.9 6.3 9.8 8 2.1 .7 4.4 1.9 6.2 3.2l.9 .7c.8 .6 1.1 1.4 1.1 2.2 0 .1 0 .3-.1 .4-.1 .2 0 .5-.2 .7-1.7 1.9-3.6 4-5.6 5.8-1.6 1.4-5 1.8-8.5 .6-5.1-1.8-10.2-5.3-13.9-10-3.6-4.7-5.4-10.3-6.6-14.2-3.3-7.9-6.2-18.2-7.7-27.2-3.2-18.6-4-37.1-4.1-55.5 .2-18.6 .7-36.5 3.9-55.8 1.1-5 2.6-10.3 6-15.4 3.4-5.2 9.1-9.2 14.4-11.1 10.7-3.7 20-3.8 29.2-4.6 1.5-.1 2.9 .2 3.9 .8 .2 .1 .2 .3 .3 .4l0 0c12.9-.7 25.6-1.3 38.6-1.8zM354 239.3c.2-.1 .6 .1 1.1 .5s.9 1.2 1.3 1.9l3.4 7.3c.9 1.8 1.1 3.4 .6 3.7l-31.8 19.9c-.4 .3-1.2 0-2.1-.7l-.4-.4 0 0c-.6-.5-1.4-1.5-1.9-2.5l-2.8-5.9c-.7-1.5-.9-2.7-.4-3L354 239.3zM505.2 157l2.7 95.4c2.4 0 4.8 .1 7.1 0 2.8-.1 5.8-.4 8-.8 .6-.1 1.1-.2 1-.8l.6-15.2 0 0 .2-17.9c0-11.9-.2-23.8-.7-35.7-.3-5.9-.6-11.8-1.2-17.6-.2-2.5-.8-6.5-1-7.4-.1-.5-.1-.3-.2-.3l-16.4 .2zM38.1 155.7c-.3 0-.6 0-.7 .4l-.2 1.4-.6 5c-1.2 13.9-1.2 28.3-1.2 42.6 .1 14.3 .4 28.8 1.3 42.8l.2 2.5 .1 .1 .2 .1 0 0c.7 .1 3.9 .5 6.5 .6 3.5 .1 7.1-.1 10.6-.2l-2.5-95.4-10.3 0-3.2 .1zm265.6 18.5c.7 .3 1.4 .9 1.7 1.7l3.1 7.4c.8 1.8 .2 3.9-1.4 4.7L206.8 241.4c-1.4 .7-3 .9-4.6 .4l0 0-.8-.2c-1.1-.3-1.9-1.3-2-2.4l-.9-7c-.2-1.8 .6-3.4 2-4.2l100.8-53.7c.7-.4 1.5-.4 2.2-.1zm58.6-99.9c1.1 0 2.1 .4 2.8 1 .7 .6 1.1 1.5 1 2.3l-1.1 8c-.3 2-2.3 3.5-4.8 3.6L204.9 90.4c-2.1 0-4.2-.6-5.9-1.7l-.8-.6c-1.1-.7-1.5-2-1-3.1l3.2-6.6c.8-1.7 2.8-2.8 5-2.8l156.9-1.4z"/></svg>