<svg xmlns="http://www.w3.org/2000/svg" viewBox="0 0 560 560"><!--! Font Awesome Pro 7.2.0 by @fontawesome - https://fontawesome.com License - https://fontawesome.com/license (Commercial License) Copyright 2026 Fonticons, Inc. --><path fill="currentColor" d="M383.8 49.7c15.8-4.9 30.3 4 40.2 11.6 20.7 16.7 35.5 37 50.7 57 29.6 40.4 56.4 82.4 83.2 124.4l-.1 .1c6.4 13.2 5.8 23.2 6.2 34.3 0 2.4-.5 4.6-1.2 6.2-.3 .6-.6 .9-.9 1.2-.1 1.2-.1 2.4-.2 3.7-.9 8.1-3.7 16.1-7.7 23.5-.6 2-1.4 4.1-2.3 6.4-2.9 5.2-2.8 10.3-8.6 17-3.9 4.8-8.6 9.3-14.1 12.9-10.9 7.6-25.8 9.5-37.9 6.8-6.2-1.2-12-3-17.6-5.2l-8.2-3.4c-2.8-1.2-5.8-2.6-5.3-2.2-.8 .3 0-.6-1.9 1.5-2.3 2.3-4.7 4.7-7.4 6.6-5.3 3.9-11.4 6.8-17.6 8.6-12.5 3.3-25.5 3.1-37.6 0-6-1.5-12-3.6-17.6-6.5-5.5-2.9-11.6-7-12.1-6.4-.6-.4-6.7 3.4-11.9 6.4-5.5 2.8-11.2 5.3-17.1 7.1-11.8 3.7-24.2 5.2-36.4 4.6-12.3-.5-24.5-3.2-35.9-8-5.7-2.3-11.3-5.5-16.2-8.7-2.3-1.5-4.5-2.8-6-3.3-1.4-.5-2.5-.6-4.8-.2-20.1 3.9-44.5 15-70.9 7.2-2.7-.7-7.4-3.1-8.3-3.4-.5-.2-1.9-.3-3.9 .2-3.7 .8-8.9 3.7-14.6 6-10.9 4.8-22.6 8.7-35.1 10.1-12.3 1.4-26.2 .4-38.1-6.3-5.9-3.1-11.2-7.4-15.5-11.9l-5.1-5.3c-.1 0-.7 0-2.5 .1-6 .6-13.8 1.4-20.3 .1l.2 .4c1.7 4.3 2.8 14.3 2.9 25.4l.2 49.4c3.4-.6 7.9-.7 13.2 .1 165.7 22.2 333.9 17.9 500.8 6.8l1.2 0-.2-31.2c-1.3 .2-2.7 .4-4.2 .5-152.5 10.3-306.3 19-459.7 3.6-6.3-.7-12.4-2-17.1-3.6l-2.3-.8c-3.1-1.1-4.1-2.5-2.4-3.4l10.5-5.5c2.7-1.4 8.7-1.8 15.3-1.1 152.6 14.9 306.5 6.1 459.7-4.4l0-11.3c0-5.3 .3-10.3 .9-13.8 .6-3.5 1.4-5.3 2.3-4.8l8 4.5c2 1.1 3.6 11.3 3.6 23.4l.5 107.7c-.1 6.8-5.3 11.8-8.6 13.8-3.6 2.4-7.2 4-10.7 5.3-7.1 2.6-14 4.3-21 5.8-13.9 2.8-27.8 4.6-41.6 6-27.7 2.8-55.4 4.1-83.1 4.9-55.4 1.5-110.7 .8-165.9-1.3-55.3-2.4-110.4-5.4-165.7-13.5-6.9-1.1-13.9-2.3-20.9-3.9-3.5-.8-7-1.7-10.6-2.8-3.7-1.4-6.8-1.6-12.9-6.5-2.3-2.3-3.8-5.3-3.9-8.7l0-6.3 0-10.4c-.1-13.8-.1-27.7-.2-41.6-1.1-.8-1.5-1.6-.3-2.2l.3-.1-.3-59.8c0-10.6 .5-20.8 1.6-28.9l.4-3c-1.4-.4-2.7-.7-4.1-1.4-10.1-5.4-12.9-16.5-13.3-24.1-.5-16 3.4-30.6 10.5-44.1 1.6-3 3.5-5.5 5.3-7.6 4.2-7.6 9.3-14.9 16.4-20.6 9.5-7 18-10.5 27-15.9l160.5-89.2 .1 0 1.8-1c2.4-1.3 5.1-2.1 7.5-2.2l1.1 0c1.6 0 2.6 .8 2.5 2.1l-.7 8c-.2 2-2 4.3-4.5 5.7L46 239.8c-.4 .2-.7 .1-1.1 .2-3.5 2-6.8 4.1-9.1 6.2-6.5 5.8-11.5 13.6-15.1 22.2-.6 1.4-1.5 2.6-2.4 3.4-.2 .1-.3 0-.5 .1-.4 .9-.7 1.7-1.1 2.5-4.7 11.2-7.5 25.5-5 35.7 1.5 5 4.1 7.1 8.6 7.5 4.7 .4 10.8-1.6 17.7-3.6 1.8-.5 3.6-1 6-1.3 2.8-.2 6.4-.4 8.9 1.5 6.1 4.1 6.3 5.9 9.2 8.4 4.4 4.5 9.2 7.9 14.5 10.3 10.7 4.8 23.6 4.3 36 1.3 6.2-1.3 12.4-3.7 18.5-6.1 6.1-2.3 11.4-5.8 20.2-8.1 3.9-1.2 10.8-.7 14.8 1.8 2.5 1.2 5.2 2.3 8 2.9 5.6 1.4 11.8 1.4 18.1 .8 12.8-1.2 25.3-5.3 39.3-8.7 3.6-.7 8.3-1.7 13.6-.3 5.1 1.4 8.3 3.8 11.3 5.6 5.6 3.5 10.9 6.4 16.9 8.6 23.6 8.9 51.5 7.4 73.6-4.5l8.9-5.2c2.9-2.1 11-4.2 16.2-1.6 8.9 4.3 12 7.2 18.3 9.4 11.4 4.5 24.3 6 35.9 3.4 5.8-1.2 11.2-3.5 15.7-6.9 2.6-1.9 3.6-3.1 6.7-6.3 4.3-5.4 12.7-5.9 17.9-3.2 12.8 5.7 24.7 10.5 36.7 11.3 23.3 2.5 43.1-20.5 44.3-44.5 .6-7.1 .6-14.3 .8-20.6-.6-4.7-1.6-9-3.1-11.7-26.9-42.1-53.7-84.3-83.1-124.2-14.9-19.5-30-40-48.3-54.1-9.1-7.1-18.9-11.2-27.3-7.9-11.1 4.1-22.2 9.2-33.3 14.8-4 2-8.2 3.4-11.8 3.9l-1.8 .2c-2.4 .3-3.7-.5-3.1-1.9l3.4-9c.9-2.3 4.2-5.2 8.4-7.2 11.4-5.6 22.2-10.9 35.3-15.3zM26.7 449.9l.1 20.5 0 10.2c0 1.3 0 1.2 1.1 1.8 10.5 4.4 24.8 6.6 37.9 8.7 53.7 7.6 108.5 10.6 163 12.9 54.6 2.1 109.3 2.7 163.8 1.2 27.2-.8 54.5-2.2 81.5-4.9 13.5-1.4 26.9-3.2 39.9-5.8 6.5-1.4 12.8-3 18.6-5.1 5.7-1.6 11-6.4 9.6-5.5l-.2-44.9c-1.8 .3-3.8 .6-5.9 .7-166.5 10.8-334.7 14.8-501.1-7.9l.1 0c-2.9-.4-5.7-1-8.4-1.6l.1 19.9zm506.8-191c2.1 0 3.4 .4 3.5 1.3l1 8.1c.2 2-5 5.5-12.2 8.1-37.2 10-74.6 13.7-112.1 17.1-37.4 3.1-75 4.6-112.4 5.4-75 .7-150.1 .2-225.1-12-6.2-1.3-12.1-3.2-16.5-5.4l-2.2-1c-3-1.4-3.7-2.9-1.9-3.6l10.9-4.3c2.8-1.2 8.5-.8 14.7 .2l0 0c73.3 11.6 148.9 12.2 223.6 11.2 37.4-.9 74.8-2.6 112.1-5.7 36.9-3.7 75-7.1 109.1-17.9 2.7-1 5.4-1.5 7.4-1.6zM250.8 229.7c.5-.3 1.2 .1 2 .9l.4 .4c.6 .6 1.2 1.6 1.5 2.7l2.2 6.3c.6 1.6 .7 2.8 .2 3-9.6 5.5-18.3 12.6-25.3 20.9-.1 .2-.5 .1-1.1-.2l-.1 0c-.6-.3-1.2-.8-1.8-1.4l-5.8-5.6c-1.4-1.4-2.2-2.8-1.8-3.3 8.3-9.5 18.3-17.5 29.5-23.7zm-132-.5c.6 .3 1.3 .8 1.9 1.3l6.3 5c1.6 1.2 2.6 2.4 2.4 2.8L116 258.1c-.2 .3-.9 .2-1.9-.3l-.5-.2 0 0c-.7-.3-1.7-1-2.5-1.8l-4.9-4.4c-1.2-1.1-1.9-2-1.8-2.3L117.7 229c.1-.1 .5 0 1 .2zm249 5.1c8 4.7 17.3 7 26.3 6.8 .2 0 .3 .4 .5 1s.1 1.5 .1 2.3l-.4 8c-.1 2-.6 3.5-1.1 3.5-11.7 0-23.4-3.3-33.7-9.5-.4-.3-.5-1-.1-2.2l.2-.5c.2-.8 .9-1.8 1.6-2.6l4.3-5.1 0 0c1.1-1.3 2-2 2.4-1.8zm108.9-15.7c.2 .1 .2 .5 0 1.1s-.5 1.4-.9 2.2l-3.8 7.1-.1 0c-.9 1.8-2 3-2.4 2.8L443 219.9c-.4-.2-.4-.9-.2-2l.1-.5c.2-.7 .7-1.9 1.3-2.8l3.6-5.6c.9-1.4 1.8-2.3 2.1-2.1l26.7 11.8zm-267.9-9.8c.2 .1 .2 .5 .1 1.1-.1 .6-.4 1.5-.8 2.2l-3.4 7.2c-.8 1.8-1.8 3-2.3 2.8L172.6 207c-.4-.2-.5-.9-.1-2l.2-.5c.2-.7 .9-1.8 1.6-2.6l4.4-5.1c1.1-1.3 2.1-2 2.5-1.8l27.7 13.9zm9.6-168.4c16.7 2.3 33 9.1 46.5 19.6 12.5 10 23.3 22.2 28.7 39 3.7-.9 7.5-1.5 11.2-1.8 6.7-.4 14.2-1.2 22.1 .9 7.7 1.9 14.7 6 20.3 11.2 11.3 10.6 17.3 24.8 19.5 39 .4 2.3 .2 4.6-.3 6.3-.1 .3-.2 .4-.4 .7 .6 12.5-1.9 25.5-9.5 36.2-10.7 15.7-28.6 25.2-47.1 26.8-18.4 1.9-38.7-5.4-50.8-20.3-1-1.2-1.7-2.5-1.8-3.7 0-.1 .1-.1 .1-.2-8.8-11.9-13.5-27-11.7-41.8 1.2-14.8 8.3-29.1 19.7-38.9 4.5-4.1 9.6-7.1 15-9.5-8.7-25.9-36.8-45.9-64.8-48.9-.6-.1-1.1-.6-1.4-1.3-.3-.7-.4-1.6-.2-2.4l1.5-7.9c.4-2 1.9-3.3 3.5-3zm85.1 71.8c-23.6 2.3-43.1 20.7-43.6 43.7-1.3 22.6 16.1 44.2 38.3 46.6 21.9 2.9 46.5-10.9 51.5-32.2 .3-1 .6-1.9 .9-2.8 4.1-22.3-8-50.1-28.8-54.2-1.3-.2-2.4-.9-3.6-1.4-4.6-.4-9.4-.3-14.7 .3zm123.2 39.1l.5 .3c.7 .4 1.6 1.3 2.2 2.2l3.7 5.6c1 1.4 1.3 2.6 1 3l-25.4 26.4c-.2 .2-.6 .1-1.2-.2l0 0c-.6-.3-1.3-.8-1.9-1.4l-5.7-5.7c-1.4-1.4-2.2-2.8-1.8-3.2l26.4-27.2c.4-.4 1.1-.2 2.1 .3zM378.4 93.5c.6 .1 1.4 .5 2.2 .8l7.3 3.4c1.8 .8 3.1 1.7 3 2-2 5.8-3 11.9-2.9 17.9 0 .2-.6 .4-1.8 .6l-.5 .1 0 0c-.8 .1-2 .1-3.1-.1l-6.6-.8c-1.6-.2-2.7-.6-2.8-.9 0-7.8 1.4-15.6 4.1-23 0-.2 .4-.2 1.1 0z"/></svg>