<svg xmlns="http://www.w3.org/2000/svg" viewBox="0 0 560 560"><!--! Font Awesome Pro 7.2.0 by @fontawesome - https://fontawesome.com License - https://fontawesome.com/license (Commercial License) Copyright 2026 Fonticons, Inc. --><path fill="currentColor" d="M117.6 167c5.3-.2 7.3 .7 4.9 2.1-4.9 3-9.8 6-14.5 9.1-3.7 2.4-12.8 5.3-23 7.9-13 3.4-25.9 7.3-37.9 12.7-11.4 5-24.7 13.6-24.5 21.2-.3 6.3 9.9 14 19.3 18.6 9.9 5 20.7 8.7 31.6 11.9 22 6.3 44.9 10.5 67.7 13.8 45.9 6.4 92.4 8.8 138.9 8.8 46.5-.1 92.9-2.8 138.8-9.3 22.8-3.3 45.7-7.6 67.6-14 10.9-3.2 21.6-7 31.4-12 9.4-4.6 19.1-12.5 18.6-17.7-.1-8.9-19.2-18.9-34.2-24.2-15.9-5.8-32.8-9.9-49.8-13.3-4.8-1-9.6-2.1-12.8-3.3-3.2-1.2-4.8-2.3-4.3-3 1.7-2.3 3.4-4.6 5.2-6.9 1.3-1.7 11.2-1.5 22.9 1 16.1 3.5 32.1 7.6 47.7 13.7 7.8 3.1 15.6 6.6 23 11.6 6.9 5 16 11.7 16.5 24.4-1.7 18.4-16.2 24.5-26.4 30.4-11.1 5.6-22.4 9.5-33.9 12.9-22.9 6.7-46.3 11-69.5 14.4-46.7 6.7-93.7 9.3-140.8 9.4-47.1 0-94.1-2.4-140.9-8.9-23.3-3.3-46.7-7.6-69.7-14.2-11.5-3.4-22.9-7.2-34.1-12.9-4.4-2.6-9.6-5.2-14.3-8.8 1.8 5.5 3.4 17.2 4 30.2 1.4 30.4 2.5 60.9 2.1 91.5-.7 40.1-2.6 80.1-4.6 120.1-.1 6.1 9.9 13.8 19.3 18.3 9.9 5 20.6 8.7 31.6 11.9 22 6.3 44.9 10.5 67.7 13.8 45.9 6.4 92.4 8.8 138.9 8.8 46.5-.1 92.9-2.7 138.8-9.2 22.8-3.3 45.7-7.6 67.6-14 10.9-3.2 21.7-7 31.4-11.9 9.4-4.6 19.2-12.5 18.7-17.8-.1-40.9-.2-81.9-.2-122.8-1.8 1.3-6.2 1.6-10.6 3.7-15.1 6.5-19 33.2-46.5 41-41.2 5.3-74.7-25.2-105-11.7-21 13.2-41.8 29.3-69.7 33.2-28.5 3.3-52.6-12.2-72.8-26.5-37.9-13.9-78.5 39.2-132 13.2-12.3-9.7-16.7-19.5-24-28.2-4-5-7.6-9.6-10.2-12.2-.4-.4-.8-.8-1.2-1.2-1.5-1.3-2.4-2.2-1.2-3.2 2.8-2 7.7-1.7 11.8-.8 3.4 .6 9.1 5.1 13.5 10.9 6.6 8.3 12.9 18.4 19 22.9 36.3 21.7 77.5-29.6 130-14.3l1.6 .8c19.7 14.2 41.6 27.4 63.9 24.6 22.3-2.9 43.2-18 64.1-31.3l1.1-.6c42.5-16.5 77.1 16.7 108.9 10.5 15.8-1.9 19.6-32.4 49.8-42.1 3.5-.7 6.9-.3 9.5 .4 0-15.7 0-31.4-.1-47 0-6.4 .3-12.6 .9-17 .6-4.3 1.4-6.6 2.2-6.1 2.6 1.7 5.1 3.3 7.7 5 1.9 1.2 3.4 13.6 3.4 28.7 .1 56.8 .2 113.5 .2 170.3-1.8 18.5-16.3 24.5-26.4 30.4-11.1 5.6-22.5 9.5-33.9 12.9-22.9 6.7-46.3 11-69.5 14.4-46.7 6.6-93.7 9.3-140.8 9.4-47.1 0-94.1-2.5-140.8-9-23.3-3.3-46.7-7.6-69.7-14.2-11.5-3.4-22.9-7.2-34-12.9-10.2-6-25-11.8-26.9-31l0-.4c2-39.9 3.9-79.9 4.6-119.7 .4-31.8-.9-64-2.4-96-.6-13-.7-25.6-.2-35.5 0-1 .1-1.9 .1-2.8-1.1-2.8-2-5.9-2.3-9.5 .3-11.8 8.2-18.8 14.4-23.6 6.6-4.9 13.5-8.3 20.4-11.4 13.9-6 28.1-10.1 42.3-13.6 10.2-2.5 20.1-3.9 28.1-4.3 1.3-.1 2.6-.1 3.9-.2zm277.9-52.1c2.1 .7 4.2 1.4 6.3 2 1.6 .5 2.7 1.7 2.7 3.1 .3 18.5 .8 37.1 1.4 55.6 .2 7.7 .5 15.2 1 22.8 .3 5.3 .7 10.7 1 16.2 0 .6-.3 1.3-.8 1.8-.6 .5-1.4 .7-2.2 .7-2.6-.1-5.1-.2-7.7-.3-1.9-.1-3.4-1.2-3.5-2.7-.3-4.9-.7-10-1-15.1-.5-7.7-.7-15.5-1-23.2-.5-18.7-1-37.5-1.3-56.3 0-1.3 .6-2.6 1.6-3.6 .2-.2 .3-.3 .5-.5 .7-.7 1.9-.9 2.9-.6zm-117.7-1.7c2.1 .7 4.2 1.3 6.3 2 1.6 .5 2.7 1.7 2.7 3.1 0 .3 0 .5 0 .8 .5 16.4 .7 32.7 .6 49.1-.1 15.7-1.5 30.8 .2 44.9 .1 .6-.2 1.2-.7 1.7s-1.3 .8-2.1 .8c-2.5 .2-5.1 .3-7.7 .5-1.9 .1-3.5-1-3.7-2.6-1.6-15.8-.2-31-.1-45.5 .1-16.2-.1-32.5-.5-48.6 0-.4 0-.9-.1-1.3 0-1.3 .5-2.6 1.6-3.6 .2-.2 .4-.3 .5-.5 .7-.7 1.9-1 2.9-.6zm-119.1 .3c2.1 .7 4.2 1.4 6.3 2.1 1.6 .5 2.7 1.8 2.7 3.1 .3 31.9-1.4 63.5 1.9 94.1 .1 .6-.2 1.2-.8 1.7s-1.3 .8-2.2 .8c-2.6 .1-5.1 .2-7.7 .3-1.9 .1-3.5-1-3.6-2.6-3.3-32.1-1.5-63.9-1.8-95 0-1.3 .6-2.5 1.6-3.5 .2-.2 .3-.3 .5-.5 .7-.7 1.9-.9 2.9-.6zM402 11.9c1.9 .2 3.9 1.2 5.4 2.7 14.7 16.2 29.9 38.9 16.1 64.9-.6 .9-1.5 1.5-2.5 1.7l-.1 0c-.2 .3-.3 .6-.5 .9-6.9 6.9-13.5 8.2-20.9 9.1-3.7 .3-7.7 .2-12-1.4-4.2-1.4-9-5.7-10.4-10.8-5.4-20.5-4.3-42.9 11.3-60.9 1.4-1.5 3.2-2.6 5-3.1 .7-.5 1.4-1.1 2.1-1.6 2-1.3 4.4-1.7 6.5-1.4zM161.1 15.5c2.7 .3 5.4 1.9 7.1 4.2 .4 .6 .8 1.2 1.3 1.8 1.5 1.8 3 4 4.3 6.5 3.5 5.5 6.5 11.2 9.2 17.4 .2 .4 0 1-.4 1.5-.1 .1-.2 .1-.2 .2 .4 1.1 .9 2.1 1.3 3.2 1.8 5.5 3.4 11.3 3 18.2 .1 6.8-5.5 16-12.9 18.2-6.8 2.5-15.4 5.2-24.9 .5-7.3-4-10.5-10.9-11.8-17.2-.4-1.5-.7-3.1-.8-4.7 0-.1 0-.3-.1-.4-1-15.3 2.7-29.2 11.3-42.1 1-1.5 2.4-2.6 3.9-3.3 .4-.4 .8-.9 1.2-1.4 2.4-2.3 5.7-3.1 8.5-2.7zm112.1 3.3c2.3-4 7.5-6.1 12-4.9 2.4 .6 4.7 2.2 6.2 4.5 5.7 9 9.6 18.2 12.4 28.2 2.2 9.9 5.9 21.7-3.3 34.5-.8 1-1.9 1.6-3 1.6l0 0c-.3 .3-.5 .6-.8 .8-5.6 4.1-11.4 5.6-17.6 6-6 .2-13.8-1.2-19-7.8-8.3-10.8-5.9-24-2.8-33.3 1.9-5.6 4.3-10.8 6.9-15.8 1.5-3.3 3.1-6.3 4.9-8.9 .3-.6 .7-1.1 1-1.7 .7-1.3 1.7-2.3 2.8-3.1 .1-.1 .1-.2 .2-.3z"/></svg>