<svg xmlns="http://www.w3.org/2000/svg" viewBox="0 0 560 560"><!--! Font Awesome Pro 7.2.0 by @fontawesome - https://fontawesome.com License - https://fontawesome.com/license (Commercial License) Copyright 2026 Fonticons, Inc. --><path fill="currentColor" d="M395.3 8.9c7.5-1 14.9-1.1 22.4 .1 7.4 1.4 15.3 3 22.9 10.3 2.1 2.5 3.3 5.7 2.9 8.6 .2 .8 .8 1.4 .8 2.2 .5 3.2 .1 3.8 .2 5.8l-.1 10.1-.2 31.2c.4-.2 .8-.5 1.3-.5 16.5-.2 33-.4 49.9 .6 8.4 .6 16.9 1.2 26.4 4.3 4.7 1.7 11 5.6 13.6 12.1 2.4 6.3 2 11.1 2.2 15.3 0 .7-.4 1.3-1 1.8-.2 .1-.4 .1-.6 .2-.1 7.5-.2 28.4-.5 62.9l.1 90c.3 60 1.6 119.9 2.8 180l-.1-.1c.2 15 .4 30.1 .1 45.3-1.2 15.4 .8 30.2-7.6 47.5-2 4.3-6.7 8.3-11.3 10.4-4.9 1.9-9.4 2.4-13.6 2.5l-22.7 .2-45 .1-180 1c-60 .3-119.9 1.5-180.4 .3-7.6-.2-15.2-.7-22.9-1.3-8-1.3-15.2-.4-25.6-6.8-2.6-1.2-4.6-4.8-6-8.1-.7-2.8-.8-6-.8-8.2l.8-10.9 .2-22.5 .4-90c-.1-60-.9-119.9-2.2-179.9 0-2.2-.1-4.5-.1-6.7-1.1-.7-1.5-1.4-.4-2.1l.4-.3c-.1-3.5-.1-7.1-.2-10.6-.9-.6-1.2-1.3-.2-1.9l.2-.1c-.5-22.8-.9-45.6-.4-68.7 .6-7.8 .5-15.3 1.9-23.4 .9-7.6 2.7-16.9 10-25.3 4.4-4.2 9.4-6 14.4-7.1 4.3-.4 9.1-.8 12.6-.7l22.5-.1c9.7 0 19.1 .3 25.8 1 1.7 .1 3.2 .3 4.4 .5l.1-7.6c0-4.1 .7-8.1 1.9-11.3l.6-1.5c.8-2.1 2-2.8 3.1-1.8l6.5 6.5c1.7 1.7 2.7 5.6 2.7 10-.3 28.5-.5 47.4-.6 56.8-.1 1.8 2.6 4.6 7.6 6.4 9.8 3.5 22.5 3.4 32.8 .5 5.2-1.3 9.4-4.6 9.3-6.2 0-.2 .1-.3 .3-.6l0-2.4 .1-4.7 .1-9.4 .6-75.5 .1-4.7c-.4-.6-.1-.8-.4-1.2-.5-.6-1.4-2-3.5-3-3.9-2.1-9.4-3.4-14.9-3.9-10.4-.9-24.5 1.4-28.6 6.2-.2 .6-1 .7-1.4 1-.7 .2-1.8 .6-2.6 .5-2.6-.3-5.2-.9-7.7-2.1-2.2-.3-2.1-8.3 3.7-12.2 13.8-9.2 27.6-9.2 41.4-7.9 6.9 1.1 13.9 2.5 20.9 7.5 3.2 2.6 7.1 6.6 7.7 12.1 .8 5.3 .2 6.9 .3 10.5l-.6 75.5-.1 9.4-.1 4.8c-.3 1.4-.5 3-.9 4.5l.1 4.9c0 1.2 .1 1.9 0 3.4-.2 1.8-.6 3.6-1.1 5.3-3 6.6-8.2 9.7-12.8 12.1-9.4 4.1-18.8 5.1-28.2 4.9-9.4-.6-18.9-1.2-28.7-8.4-2.4-1.8-4.7-4.5-6.3-7.9-1.3-3.1-1.6-8.1-1.6-9.4l-.2-12.7c0-.2 .2-.4 .3-.6 .1-11.1 .3-24.7 .5-40.8l-2.7 2.8c-1.9 2-20.6 3.6-43.3 3.6-7.4 .2-15.4-.4-19.7 1.4-4.2 1.5-6.5 6.2-8.1 12.8-2.7 13.3-2.7 28.4-3 43.1 0 14.9 .4 29.9 .7 44.8 3-.7 6.4-1.2 10.5-1.2l473.3-1.6c.3 0 .5 .1 .8 .1l0-25.6 .3-44.8c-.1-7.1 .6-16.1-.4-20.3-.6-2-1-2.5-2.8-3.7-1.2-.7-3.2-1.2-5-1.7-5.9-1.5-12.7-2.3-19.5-2.7-15.9-.9-32.2-.8-48.5-.6-.3 0-.5-.3-.8-.4l-.3 35.9 0 2.5c-.1 .8-.3 1.7-.5 2.6 0 .2 .2 .4 .2 .6l.1 6.5c0 1.2 .1 1.9 0 3.4-.2 1.8-.6 3.6-1.1 5.3-3 6.6-8.2 9.7-12.8 12.1-9.4 4.1-18.8 5.1-28.2 4.9-9.4-.6-18.9-1.2-28.7-8.4-2.4-1.8-4.7-4.5-6.3-7.9-1.3-3.1-1.6-8-1.6-9.4l-.1-9.1c0-.4-.3-.8-.3-1.3l.3-38.6-136.3 2.3c-1.9 0-3.7-.6-5.1-1.7l-.7-.5c-1-.7-1.3-2-.8-3.1l2.9-6.6c.7-1.7 2.5-2.8 4.5-2.8l135.7-2.4 .2-27c0-2.7 .3-5.3 .8-7.7l0-8.1c0-5.3 2.9-11.7 6.7-14.4 7.5-6.3 15.2-7.8 22.6-9.1zM520.9 218c-1.9 .3-3.9 .4-6.1 .4L44.1 219.9c-2.5 0-5-.2-7.4-.4 .1 6.2 .2 12.3 .3 18.5 1.2 59.7 1.9 119.4 1.9 179.2l-.5 89.6c.2 6.7-.6 16.6-.8 21.9 0 1.1 .1 2 .4 1.8-.4 .3 .8 .8 1.4 1.1 1.8 .7 5.4 1.7 8.5 2.2 13.7 2.1 28.9 2.1 43.6 2.5 59.4 .7 119.2-.3 178.9-.6l179.1-.9 44.8-.1c7.4-.2 15.5 .4 19.4-1.3 3.8-1.3 5.9-5.4 7.5-12l0 0c4.5-27 2.7-58 2.5-87.4-1.2-59.6-2.4-119.4-2.6-179.1l0-36.8zM307.3 271.5l18.6 .1c3.6-.5 11.2 1.8 13.4 6.9 3 5.7 2.4 9.9 2.3 13.4-1.3 14.3-6 25.8-10.3 37.8-18.7 46.9-42 90.6-66.9 134-1 1.8-2.4 3.3-3.7 4.2-1.3 .9-2.4 1.1-3.1 .4l-5.9-5.7c-1.5-1.4-.8-5.4 1.6-9.3 24.1-42.4 47.5-86.1 65-131.1 4-11 8.2-23.2 8.5-33 0-3-.2-2.5-.3-2.7-.1-.2 .5-.1-3.7-.1l-18.4-.1-73.6-.5c-4 0-8-.7-11-1.8l-1.5-.5c-2.1-.8-2.8-2.1-1.8-3.1l6.3-6.5c1.6-1.7 5.5-2.8 9.7-2.7l74.5 .5zM413.9 24.6c-11.1-1.8-26.2 .6-31.3 5.7-.2 .7-1.1 .8-1.6 1.1l-.1 0c-.1 .4-.1 1-.2 2.2l0 10.1-.3 81.2c0 1-.4 1.8-.9 2.5l.1 2.6c.4 2 4.9 4.8 10 6 5.5 1.5 11.8 2 17.8 1.6 6-.4 12.1-1.6 16.7-3.9l.1 0c2.3-1.1 4-2.6 4.3-3.6 .5-.6 .1-.8 .5-1.5l.1-5.1 .7-80.9 .1-10.1c-.4-1.7-.1-1.7-1.6-3.1-2.7-2.4-8.6-4.4-14.4-5.1z"/></svg>