<svg xmlns="http://www.w3.org/2000/svg" viewBox="0 0 616 560"><!--! Font Awesome Pro 7.2.0 by @fontawesome - https://fontawesome.com License - https://fontawesome.com/license (Commercial License) Copyright 2026 Fonticons, Inc. --><path fill="currentColor" d="M306.1 29.5c30.7-.2 61.2-.3 92.6 4.3 4 .6 8 1.5 12.2 2.7 3.1 .7 12.9 4.7 13.4 12.4 2.9 11 8.6 33.1 17.3 66.3 .8 3.2 .9 6.1 1.2 9.1 15.7 .7 31.4 1.3 47 2.4l37.8 2.5c14.2 1 23.6 1.7 28.3 2.1l4.7 .4c1.5 .4 2.9-.3 6.2 1 5.8 1.4 10 7.5 10.8 10.3 1.8 3.6 2.6 6.7 3.7 10 1.9 6.5 3.2 12.8 4.4 19.2 2.3 12.7 3.8 25.4 5.2 38l0 .1c4.9 50.6 6.5 101.2 5.9 151.9-.4 25.3-1.4 50.7-3.7 76.1-1.2 12.7-2.7 25.4-5.2 38.2-1.3 6.4-2.7 12.8-5.1 19.4-1.2 3.3-2.5 6.6-4.8 10.2-1.7 3.7-6.9 7.7-13 8.9-141.7 11.3-283.5 11.6-425.1 6-22.5-.8-44.2-2.6-61.3-4.8l-8.3-1c-11.5-1.4-15.3-2.9-9.5-3.6L96 506.7c9-1.1 30.2-1.2 53.7-.3 137.9 5.2 276.6 4.6 413.9-6.4 .2 .6 3.8-4 5.5-9.6 1.9-5.5 3.3-11.5 4.5-17.6 2.3-12.2 3.7-24.7 4.9-37.3 2.2-25.2 3.2-50.7 3.5-76.1 .5-50.9-1.1-102-6.4-152.4-1.3-12.6-3.1-25.1-5.5-37.3-1.2-6.1-2.7-12-4.6-17.4-.8-2.3-2.5-5.5-2.7-5.6-.1-.2-.2-.2-.4-.2l-4-.3c-25.5-1.8-50.9-4-76.4-5.3-50.9-3.2-102-4.8-153-5.4-51-.6-102 .2-152.9 2.8-25.4 1.2-50.9 3-76.2 5.4-12.6 1.2-25.3 2.6-37.8 4.3-5.6-1.6-10.3 12.9-13.2 24.1-10.9 48.4-12.5 100.1-13.3 150.6 .1 50.6 1.4 102.2 11.6 150.8 2.4 10.3 5.5 20.1 8.2 24.8 2.7 4.2 2.5 3.7 2.6 5.1-1 2.6-5.3 3.9-9.7 2.9-4.5-.2-15.8-21.6-19.1-47.6-7.8-50.7-8.9-101.4-8.2-152 .5-25.3 1.7-50.7 4-76 2.7-25.3 5.1-50.5 13.7-76 2.9-6.2 4.3-13.3 13.6-19.3 1.4-.6 2.8-1.2 4.2-1.6l2.5-.4 4.7-.7 9.5-1.2 6.6-.7c-.2-.5-.4-1-.2-1.5 2.5-4.8 5.2-10.8 12.3-15 6.7-3.3 11.8-3.9 17.4-4.9 5.5-.8 10.9-1.2 16.5-1.4 5.9 .1 10.3-.4 18.5 2 2.1 .8 4.1 2.4 5.6 3.9 1.2 1.2 2.1 2.3 2.9 3.5 1.7 2.3 3.1 4.5 4.5 7 0 .1 0 .3 0 .3 5.8-.3 11.6-.8 17.4-1.1 .2-1.1 .3-2.3 .7-3.5l16.7-66.4 1.7-6.6c.6-3.6 4-5.4 6.8-7.2 5.7-2.6 8.9-2.9 13.1-3.8 31.2-5.2 61.6-6 92.3-6.7zm-1.8 132.4c38.8-1.1 77.9 12.4 107.7 37.6 30 24.9 50 61.3 55.4 99.9 1.2 6.2 .9 12.4 .5 16.7-.1 1.1-.3 1.6-.4 2.4 .1 3.6 .7 7.2 .5 10.9 0 1.8-.3 3.5-.4 5.3 .1 .8 .1 1.5 .1 2.3 .2 41-16.5 81.8-45.3 111.1-28.5 29.6-69.1 47.4-110.3 48.1-41.2 1.2-82.6-14.4-112.7-42.6l0 0c-30.4-27.9-49.3-68-51.2-109.3-.4-5.6 .1-10.5 .8-14.9-.3-7.2-.4-14.5 .3-21.7 3.4-38.7 21.5-75.8 49.8-102.3 28.1-26.6 66.4-42.8 105.3-43.4zm13.8 15.4c-7.2-.5-14.4-.8-21.7-.1-35 2.9-68.5 18.9-92.7 44.3l0 0c-24.5 25.1-39 59.5-40.1 94.4-1.5 34.9 9.9 70.3 32.2 97.3 22.1 27.1 54.2 45.8 88.6 51.4 34.4 6 70.8-1.3 100.3-20 29.6-18.4 52-47.9 62-81.2 1.8-6.2 3.3-12.3 4.6-18 1.1-6.7 2.1-13.4 2.1-20.3 .6-35-11.8-69.9-34.5-96.5-22.5-26.8-55.1-44.5-89.6-49.2-3.9-.8-7.6-1.4-11.1-2.1zm-79.6 47.2c22.9-16.4 51.6-24.4 79.7-22.2 28.2 2 55.3 14.9 75.2 34.8 41.3 39.5 47.3 109.4 12.8 155.4-2.5 3.9-5.9 6.8-8.3 8.8-2.5 1.9-4.1 2.5-4.5 1.7l-3.7-8c-.9-2 3.1-8.8 8.2-16.6 13.1-21 18.4-46.5 15-70.9-3.1-24.5-15.9-47.4-34.2-63.8-36.4-33.9-97.4-35.9-135.5-4.1-39.8 30-51.4 89.5-27 132.4 11.8 21.4 31.1 38.6 53.9 47.3 22.7 8.9 48.6 9.5 71.6 1.6 7.6-2.5 14.9-5.4 20.8-7.7l2.8-1.2c4-1.6 5.9-1.4 4.8 .6-2.5 4.1-5.1 8.6-8.3 12.5-2.3 3.1-9.7 8.1-18.9 10.7-26.7 8.2-56.3 6.7-82.1-4.4l-.1-.1c-25.8-11-47.3-31.6-59.7-56.7-12.5-25.1-15.9-54.7-8.9-81.9 6.8-27.3 23.4-52 46.3-68.4zM322 256.2c.7 .1 1.5 .6 2 1.3l5 6.3c1.2 1.6 1.3 3.6 .2 4.8l-69.9 71.9c-1 1-2.3 1.5-3.9 1.4l-.7 0c-1.1 0-2.1-.7-2.6-1.7l-3.2-6.1c-.8-1.6-.7-3.2 .3-4.3l70.8-73.1c.5-.5 1.2-.7 1.9-.6l0 0zm49.7 28.3c.6 .3 1.3 .8 1.8 1.5l0 0 5.2 6.2c1.3 1.5 1.8 3.2 1.2 3.8l-38.1 40.2c-.5 .6-1.5 .6-2.7 .3l-.6-.2c-.8-.2-1.8-1-2.4-1.9l-3.9-5.4c-1-1.4-1.3-2.7-.7-3.3l38.9-41.2c.3-.3 .8-.3 1.4 0zM144.5 170.6c.4 0 .7 .3 1 1 .2 .6 .3 1.5 .3 2.4l-.5 8c-.1 2-.9 3.5-1.7 3.6l-53.7 2.3 0 .1c-.7 0-1.5-.6-2.1-1.7l-.3-.5c-.4-.7-.6-2-.4-3.1l1-6.6c.2-1.7 .9-2.8 1.7-2.8l54.8-2.4zM303.2 44.3c-30.2 .8-61.4 1.7-89.9 7.1-1.6 .4-3.4 .8-4.7 1.3-1.3 .4-.5 .2-.8 .3l-2 8-5.6 22.3 0 0-6.5 25.7c.7-.2 1.4-.5 2.2-.6 76.7-5.2 152.9-1.2 228.9 1-7.2-27.5-12.2-46.6-15-57.4-.5-.5 .2 0-1.1-.7-1.4-.5-2.8-1.1-4.5-1.4-3.3-.9-6.9-1.5-10.5-2-29.4-3.9-60.3-4-90.6-3.6z"/></svg>