<svg xmlns="http://www.w3.org/2000/svg" viewBox="0 0 616 560"><!--! Font Awesome Pro 7.2.0 by @fontawesome - https://fontawesome.com License - https://fontawesome.com/license (Commercial License) Copyright 2026 Fonticons, Inc. --><path fill="currentColor" d="M298 51.3l76.9-.4 38.8 .1c13 .6 25.2-1.7 41.2 4.1 8.2 3.6 13.5 10.8 16.8 16.5 3.6 5.9 6.5 11.6 9.6 17.3 6.1 11.6 11.6 23.4 16.8 35.3 8 18.3 15.2 37 22 55.7 .1-.1 .1-.2 .2-.3 5.3-5.9 12.3-8.8 20.3-8.7l-.7 0c7.7-.3 15.5-.6 23.4-.5 8.3 .7 15.3-1 26.9 5.3l.1 0c6.9 3.8 6.5 14.4 6.2 17-.2 4.2-.8 8.7-2 13.1-2.2 8.9-8.5 17.7-16.4 22.8-1.7 1.2-3.8 1.6-5.6 1.3l-.9-.2c-1.2-.2-2-1.2-2-2.4-.1-2.4-.3-4.8-.7-7.1-.3-1.8 .4-3.4 1.6-4.3 5.2-3.6 8.4-8.6 10-14.8 1.6-5.8 1.9-15.7 .9-13.7-2.7-1.5-11.5-2.3-18.4-2.2-7.4 0-14.9 .2-22.5 .5l-.7 0c-6.4 .2-10.6 4.9-11.1 13 3 10 8.7 19.3 16.4 25.6 2.2 1.9 4.7 3.5 7.2 4.9 1.5 .9 2 1 4.5 2.1 3.2 1 5.1 4.1 6.6 6.8 3.7 7.7 4.9 14.5 6.9 20 1.7 4 3.2 7.9 4.5 11.9 7.7 26.3 9.7 53 9.2 79.9-.7 13.4-1.8 26.9-5.3 40.3-3.6 12.4-8.2 26.1-20.6 36 1.2 1.1 2.1 2.8 2.1 5.1l0 51.2c-.2 4.4 .6 7.9-1.2 14.9-1.1 3.6-4.1 7.1-7.4 8.8-3.1 1.6-6 2.3-8.5 2.6-10.4 1.1-17.8 .2-26.7 .3l-25.7-.4c-8.3-.5-17.9 1-29.1-5.7-5.6-3.6-8.8-10.6-9.6-15.9-.9-5.8-.5-9.4-.7-13.9l-.5-25.8c0-1.2 .5-2.1 .7-3.2-17.8 1.3-35.7 2.8-53.5 3.7-52.3 2.4-104.7 3-157.2 1.2-24.5-1.2-49-2.3-73.6-4.8l-.2 25.9-.1 13.4c-.5 4.3 1.2 8.6-2.6 16.6-5.2 7.9-12.7 8-17.3 8.7-5.3 .4-9.4 .1-14 .1l-26.9-.4c-9-.4-17.5 .5-28.4-1.8-5.2-1.2-12.1-4.5-15.6-10.8-3.5-5.9-3.7-12.4-3.7-16.6l0-54.1c0-2.9 .6-5.8 1.8-8l.1-.1c-1.8-1-3.5-2-5.5-3.8-4-4.1-5.4-7.9-6.9-11.4-5.1-14.1-6.1-27.2-7.7-40.5-2.5-26.5-3-52.8-2.5-79.2 .4-9 .5-16.8 2.1-26.3 1.5-6.2 2.8-7.9 4.7-12.3 .2-.4 .5-.7 .7-1.1 1.4-3.1 3.3-6.4 6.1-9.4-4.1-1.4-8.2-3.1-12.1-5.6-6.6-4-12.4-10.6-15.3-18-3-7.5-3.9-14.5-4.1-22.3-.8-9.1 9.8-15.1 14.3-15.5 5.4-1.4 10.1-1.7 14.8-2 9.4-.5 18.3-.3 27.3-.1l-.7 0c7.5-.1 13.8 1.9 19.4 6.9 .3 .3 .5 .7 .8 1 10.2-31.9 19-59.4 26.4-82.5 2-6.2 3.7-12.2 6.1-18.5 2.4-6.1 5.3-13.6 12.2-19.2 6.8-5.7 16-6.6 22.3-6.9 6.8-.3 13.5-.1 19.9 .2 12.4 .6 25.2-.4 38.3-.3l77.2 .5zM73.2 480.7c.4 8.5 2 10.7 9.4 12.3 7.2 1.3 16.8 .8 25.6 1.1l26.8 .4c9 .9 18.7-1.3 16.6-1.8 .5-1.3 .3-7 .4-11.3l0 0c.1-9.2 .1-17.7 .2-25.6-13.5-.6-25.7-4.2-37.7-7.4l-41.4-11.2 0 43.4zm472-37c-26 6.6-52.7 10.6-79.6 11.8l.4 18.9c0 9.5 .4 15.3 4.6 17.1 4.7 2.5 13.4 2.5 21.9 2.6l25.6 .3c8.2-.1 18.1 .8 24.1-.4 3.3-1.2 2.2-.3 2.8-2l0 0c.4-2.3 .2-7.6 .2-11.6l0-36.6zM416.7 239.1c-104.8-.6-209.9 .9-314.8 1.2-8 0-15.5-.3-21.2-.8l-2.1 0c-9.2-.1-13.5 .3-16.8 4.2-2.7 3.6-7.1 12.6-6.4 17.9l-2.7 47.2c.2 19.7 .9 39.3 3 58.7 1.6 12.1 3.7 26.8 8.6 34.4 .2 1.3 3.8 2.8 6.2 4.2l7.8 4.4c5.4 2.6 11.8 4.1 17.7 6.2 49.2 13.7 102.3 15.9 154.2 18 52.2 1.5 104.6 .7 156.8-2 26.1-1.4 52.3-3.1 78.1-5.9 13-1.2 25.8-3 38.6-4.9 12.8-2.6 25-3.6 30.5-12.3l0-.1c12.9-18.3 15-46.2 15.1-71-.4-25.3-3.2-51.8-12.3-74.3-2.4-5.5-5.1-10.2-8.7-12.7-3.4-2.7-9.6-4.4-15.4-5.7-12-2.5-24.9-3.8-37.8-4.6-25.9-1.6-52-2.1-78.2-2.3zM72.7 424.6c0-.1 .2-.1 .2-.1l-.2-.1c0 .1 .1 .3 .1 .3zM469.9 302.6c12.1-4.3 26-4.4 38.4 2.4 13.1 7 18.5 22.8 18.5 34.6 .1 1.6-.3 3.2-.9 4.2-.7 1.1-1.5 1.6-2.4 1.4l-8-1.4c-2-.3-3.4-2.9-3.7-5.9-.7-9.6-4.6-17.3-12.1-20.8-7.5-3.6-17.5-3.5-25.9-.3-8.5 3.4-16.2 9.6-22.3 17.2-3 3.8-5.6 8-7.8 12.4-1.1 2.2-2 4.4-2.9 6.7-.8 2.2-1.8 5.1-1.6 5-.1 .3 .2 .5 .4 .5 .1 .1 4.8 1 7.4 1.1 6.3 .5 13 .5 19.7 .2 12.8-.8 28.3-1.5 38.4-4.9 2.2-.6 4.7-.6 5.7-.4l.6 .1c.8 .2 2.1 .4 2.8 1.4 1.4 2 1.6 4.9 1.1 7.8-.4 2.4-2.9 4.1-6.5 5.3-15.2 4.3-28 4.4-42.2 5.4-7 .2-14 .3-21.3-.3-4.1-.5-6.4-.4-12.6-2.5-2.6-1.5-5.5-2.8-7.1-5.4-1.2-1.1-1.2-2.6-1.3-4.1-.2-1.5-.7-2.8-.4-4.3 1.3-5.4 2.1-7.5 3.2-10.5 1.1-2.8 2.3-5.6 3.7-8.3 2.7-5.3 6-10.4 9.8-15.1 7.6-9.4 17.4-17.4 29.5-21.7zm-340.6-2.4c25.6-3.4 48.5 11.8 61 31.3l0 0c1.7 2.7 2.7 5.7 2.7 8.4l0 1.3c0 1.8-.9 2.7-2.2 2.5-2.7-.5-5.2-.9-7.9-1.1-2-.2-4.1-1.8-5.6-4-10.2-15.6-29.1-26.5-46.3-23.6-8.6 1.4-15 6.4-17.5 14.1-1.3 3.9-1.8 8.4-1.8 13 0 2.3 .1 4.7 .4 7.1 .2 2.7 .9 2.9 .8 4.6-.4 .1 2 1.3 4.9 1.9 2.5 .8 5.2 1.7 8.7 2.1 6.6 1 13.3 1.7 20 1.9 13.4 .5 26.8-.6 39.8-3.3 1.3-.3 2.7-.2 3.7 .2s1.7 1.2 1.8 2l.7 8.1c.1 2-2.3 4.1-5.7 4.7-13.9 2.6-28.1 3.6-42.2 3-7.1-.3-14.1-1-21.1-2.2-3.3-.4-7.3-1.6-11.3-2.9-3.6-1.1-8.4-2.2-12.2-8.3-3-8.3-3-13.6-3.1-19.3 0-5.8 .6-12 2.8-18.1 4-12.8 17.3-22.2 29.6-23.5zm243.7 45.5c.9 0 1.7 .4 2.4 1s.9 1.5 .9 2.3l-.4 8c-.1 2-1.8 3.6-3.9 3.6l-130.9 1.2c-1.8 0-3.6-.6-4.9-1.7l-.6-.5c-.9-.7-1.2-2-.7-3.1l3-6.6c.8-1.7 2.5-2.8 4.3-2.8l130.8-1.3zm-23.6-38.4c.6 0 1.3 .4 1.7 1s.6 1.5 .6 2.4l-.6 8c-.2 2-1.4 3.5-3 3.4l-95.7-1.6c-1.3 0-2.6-.7-3.5-1.8l0 0-.4-.6c-.6-.8-.8-2-.4-3.1l2.4-6.5c.6-1.7 1.9-2.7 3.3-2.7l95.8 1.4zM176.2 65.7c-6.3-.2-12.5-.2-18.2 .5-5.1 .7-8.4 2.3-11 6.1-5.3 7.9-8.7 22.3-12.7 34l-11.8 36.8 0 0-23.5 73.6c-1 3-2.1 5.6-3.2 7.9l80.3-1.3c2.6 0 5.2 .5 7.2 1.6l.3 .1c81.8-.5 163.6-1.3 245.5-.6 26.2 .4 52.4 .8 78.8 3.1 3.8 .4 7.5 .8 11.3 1.2l-8.9-32.9c-8.3-23.4-17.3-46.6-27.3-69.3-5.2-11.7-10.7-23.2-16.7-34.4-6.4-11.3-11.4-23.1-20.6-24.6-10.2-2.5-24.3-1.5-36.9-1.7l-38.6-.1-77.7 .4c-25.9-.2-51.7-.7-77.4-.4-12.5 .2-26.2 .8-39.1 .1zM49.7 184.9c-4.2 .2-8.4 .6-11.8 1.5-4 1.2-2.9 1.2-3.2 1.8l0 .1c.2 11.7 3.8 22.6 13.2 27.6 4.6 2.8 10.5 4.6 16.5 6.2l3.6 .3c0-.1-.1-.2-.1-.2 7.5-6 16.3-22.2 18-31.7l.7-.2c-2.4-3.5-6.2-5.4-10.3-5.4l-.6 0c-8.9-.1-17.8-.3-26.2 .2zm372.8-68.7c.9 .3 1.6 .9 1.8 1.8l2.2 7.8c.5 1.9-.8 4.2-3.1 5.3L280 197.7c-2 .9-4.1 1.2-6.1 .9l-1-.2c-1.3-.2-2.2-1.2-2.2-2.4l.3-7.4c.1-1.9 1.5-3.7 3.6-4.7l144.9-67.4c1-.5 2-.6 3-.3zM272.8 97.6c.6 .4 1.1 1.1 1.4 1.9l2.8 7.6c.7 1.9 .3 3.7-.9 4.3l-75.9 35.5c-1.1 .5-2.3 .4-3.6-.3l-.6-.3 0 0c-.9-.5-1.6-1.5-1.8-2.6L193 137c-.3-1.7 .2-3.1 1.3-3.7l76.7-36c.5-.3 1.2-.1 1.8 .3z"/></svg>