<svg xmlns="http://www.w3.org/2000/svg" viewBox="0 0 616 560"><!--! Font Awesome Pro 7.2.0 by @fontawesome - https://fontawesome.com License - https://fontawesome.com/license (Commercial License) Copyright 2026 Fonticons, Inc. --><path fill="currentColor" d="M31.8-1.6c1-2 11.2-3.6 23.8-2.4 16.2 1.7 34.6 6.3 47.5 19.7 6.4 6.5 11 14.4 14.1 22.4 3.1 8.8 4.2 16.5 5.9 24.6 5.5 31.8 9.5 63.4 13.6 95.1l22.9 190.1 2.8 23.4c.9-.5 1.8-.8 2.9-.9l32.7-1.8c6.4-1.2 15.3-2.1 25.1-2.5 28.6-1.4 57.4-2.5 86.1-3.7l21.6-1.2c.3 0 .5 .2 .8 .2 45.1-2.1 90.1-5.1 134.6-11.5 19.4-2.9 38.3-8.7 53.2-20.3 14.8-11.6 25-28.3 31.1-46.7 11.2-38.2 21.1-78.3 27.3-117.8 2.8-19.7 5.3-40.1 2.9-58.7-.9-9.3-4.7-17.9-9.5-19.5-1.7 0-2.5-.6-4.8-.7l-7.6 .1-15.3 0c-61.1 .1-183.4 .3-366.8 .6-6.6 0-13-.3-17.5-1-4.5-.6-6.8-1.5-6.2-2.3l5.1-8c1.3-2 14-3.6 29.4-3.6 423.1-.6 367.3-.6 380-.5 3.5 .6 7.1 .9 10.4 2.3 2.9 2 6.7 3.8 8.4 6.6 8.4 10.9 9.3 22.5 10 33l-.1 0c1.1 21.4-1.7 41.9-5.1 62.1-7.5 40.7-16.1 79.4-29.3 119.5-7.6 19.8-21 38.8-39.6 50.8-18.6 12.1-40.1 17.2-60.7 19.6-47.4 6.6-95.1 9.2-142.8 11.3l-153.5 8.5c-.4 0-.7-.3-1.1-.3l1.2 10.5c2.3 16 2.5 32.2 8.1 44.7 5.5 12.9 16.4 22.1 30.1 26.4 6.6 2.3 14.5 3.6 21.2 3.9l23.9 .6 191.4 4.8c8.1 .2 15.8 .9 22.6 1.7 7.2-1.2 14.5-1.4 21.6 .5 .8 .2 1.4 1.1 1.6 2.3 6.9 2.5 13.4 6.7 18.1 12.5 7.1 8.5 9.9 19.6 9.6 30.2-.5 10.6-4.8 21.6-12.9 29.4-7.7 7.3-18 12.2-29 13.1-22.9 1.4-42.6-14.8-48.9-35.6-3.4-10.3-1.5-24 5.4-32.8 1.9-2.7 4.5-4.6 6.8-6.9l-160.9-4c2.5 1.9 4.8 4 6.8 6.5 7.1 8.5 9.9 19.6 9.6 30.3-.5 10.6-4.8 21.6-12.9 29.4-7.7 7.3-18 12.2-29 13.1-22.9 1.4-42.6-14.8-48.9-35.6-3.5-10.3-1.5-24 5.4-32.8 3.6-5.1 8.3-9.2 13.5-12.6-8.5-.9-17.2-2.6-25.3-6.3-16.6-6.4-30.4-21.6-35.5-38.5-5.3-17.3-5.2-33-7.7-48.9l-5.7-47.8-23.2-191c-4.2-31.7-8.1-63.7-14-94.6-2.5-15.1-8.7-27.9-19.8-36-10.9-8-26-10.6-41.3-11.4-5-.3-9.9-.7-13.3-1.4-3.5-.7-5.2-1.5-4.8-2.4l4-8zM245.5 491.3c-10.4 .7-20.4 5.8-26.3 14.1-.2 .2-.6 .2-1.2 0 0 0-.1-.1-.1-.1-.5 .6-1.1 1-1.5 1.6-4.2 6.2-4.6 13.1-2.2 20.5 4.7 14.3 20.5 25.8 34.8 23.5 7.3-1 14.5-4.6 19.5-10.1 4.7-5.1 7.4-12.5 7.1-19.9 .1-15.4-11.3-28-26.6-28.1-1.2 0-2.4-.4-3.3-1.1-.1-.1 0-.2-.1-.3zm223.2 0c-10.4 .7-20.3 5.9-26.1 14.1-.2 .2-.6 .2-1.2 0-.1 0-.2-.1-.2-.1-.5 .6-1.1 1-1.5 1.6-4.2 6.2-4.6 13.1-2.2 20.5 4.7 14.3 20.5 25.8 34.8 23.5 7.3-1 14.5-4.6 19.5-10.1 4.7-5.1 7.3-12.5 7.1-19.9 .1-15.4-11.3-28-26.7-28.1-1.2 0-2.4-.4-3.3-1.1-.1-.1-.1-.2-.1-.2zM247.3 136.4l6.6 3c1.7 .8 2.8 2.5 2.9 4.5l2.6 137.9c0 .9-.3 1.8-1 2.5s-1.5 1-2.3 .9l-8-.5c-2-.1-3.5-1.9-3.6-4.1L242 143.1c0-1.9 .5-3.7 1.6-5.1l.6-.7c.7-1 2-1.3 3.1-.8zm92.6 0l6.6 3c1.7 .8 2.8 2.5 2.9 4.5L352 281.8c0 .9-.3 1.8-1 2.5s-1.5 1-2.4 .9l-8-.5 0 0c-2-.1-3.5-1.9-3.6-4l-2.5-137.6c0-1.9 .6-3.7 1.7-5.1l.5-.7c.7-1 2-1.3 3.1-.8zm92.6 0l6.6 3c1.7 .8 2.8 2.5 2.8 4.5l2.6 137.9c0 .9-.3 1.8-1 2.5s-1.5 1-2.3 .9l-8-.5 0 0c-2-.1-3.5-1.9-3.6-4l-2.5-137.6c0-1.9 .6-3.7 1.7-5.1l.5-.7c.7-1 2-1.3 3.1-.8z"/></svg>