<svg xmlns="http://www.w3.org/2000/svg" viewBox="0 0 504 560"><!--! Font Awesome Pro 7.2.0 by @fontawesome - https://fontawesome.com License - https://fontawesome.com/license (Commercial License) Copyright 2026 Fonticons, Inc. --><path fill="currentColor" d="M107.9 74.5c9.3-10.1 21.3-16.7 31.8-25.2 11.3-7.2 23.2-13.8 35.4-19.5 22.8-9.7 47.1-15.7 71.8-17.2 3-.1 6-.4 9-.4 11.6 .2 23.2 1 34.7 2.7 1.4 .2 2.9 .4 4.3 .6 4.2 .7 8.3 1.7 12.4 2.6 2.9 .7 5.7 1.3 8.6 2.1 5.6 1.6 11.1 3.3 16.5 5.5 5.9 2.2 11.6 4.7 17.3 7.4 .8 .4 1.6 .8 2.4 1.2 4.2 2 8.4 4.3 12.5 6.6 2.5 1.4 5.1 2.9 7.6 4.4 2.9 1.8 5.7 3.6 8.5 5.4 3 2 6.1 4.1 9 6.3 2.6 1.9 5.1 3.8 7.6 5.8 2.8 2.2 5.5 4.4 8.1 6.7 2.7 2.4 5.4 4.8 8 7.2 2.2 2.1 4.3 4.2 6.5 6.3 2.8 2.9 5.6 5.8 8.3 8.8 .7 .8 1.4 1.6 2.1 2.4 .3 1.2 .5 2.4 1.3 3.3 29.4 34.1 50 76.5 54.3 121.7 .2 2.2 2 3.8 4 3.8l8.1-.1c.9 0 1.7-.4 2.2-1.2 .6-.7 .8-1.7 .7-2.6-1.8-20.2-6.8-39.8-14.1-58.6-2.7-7.5-5-15.7-9.5-23-1.4-3-3.2-5.7-4.8-8.6-1-1.9-1.7-3.8-2.9-5.7-.6-1-1.3-2-1.9-3-1.3-2.2-2.8-4.3-4.2-6.5-2.8-4.3-5.6-8.5-8.6-12.6-.8-1-1.6-2-2.3-3-3.7-4.9-7.5-9.6-11.6-14.2-1.3-1.5-2.6-2.9-3.9-4.3-2.6-2.8-5.1-5.7-7.8-8.4-1.3-1.4-2.6-2.8-3.9-4.2-2.3-2-4.6-3.9-6.9-5.9-2.6-2.4-5.3-4.6-8-6.9-1.6-1.3-3.1-2.5-4.7-3.7-3.5-2.7-6.9-5.4-10.5-8-4.4-3.2-9-6.2-13.7-9.2-.6-.3-1.1-.7-1.7-1.1-4.8-3-9.8-5.7-14.9-8.3-3.3-1.8-6.7-3.3-10.1-4.9-.6-.3-1.2-.6-1.9-.9-.6-.3-1.2-.5-1.8-.7-3-1.4-6-2.9-9-4.1-1.2-.5-2.5-.8-3.7-1.2-18.6-7.3-38.2-11.8-58.1-13.7-.8-.1-1.5-.1-2.3-.2-4.5-.4-9-.7-13.4-.8-2.1-.1-4.3-.4-6.4-.4-2.6 .1-5.2 .4-7.8 .6-3.9 .1-7.7 .5-11.6 .8-1.4 .1-2.7 .3-4.1 .4-5.5 .6-10.9 1.3-16.4 2.3-2.7 .5-5.3 1.1-7.9 1.6-4 .9-8 1.8-12 2.9-2.6 .7-5.2 1.6-7.7 2.4-3.1 1-6.2 1.8-9.2 2.9-3.6 1.2-7.1 3-10.6 4.7-3.1 1.2-6.1 2.5-9.1 4-6.7 3.4-13.3 7-20.1 10.1-11.8 8.6-24.1 16.5-35.4 25.7-10.5 10.1-21.3 19.8-31.4 30.2-9.9 10.8-18.5 22.6-26.5 34.8-31.2 48.7-46.7 107.1-43.7 164.9-.5 3.4-.9 7.4-.9 11.7 0 17 .4 33.8 1.1 50.6l1.1 25.2 .3 6.3 .1 1.6c0 .8 .2 2.1 .3 2.3l.5 3.2 2.4 12.7c7.3 33.6 22.5 67.2 47.7 91.7 48.6 50.8 119.7 73.2 187.8 73.2 34.3-.1 68.7-6.5 100.8-19.1 32-12.4 62.1-31.5 85.4-57 23.6-25.2 41.5-55.4 53.1-87.7 2.8-7.8 5.8-16.6 6.9-25.3 1.4-8.5 2.4-16.9 3.3-25.3 1.7-16.8 2.9-33.6 3.9-50.4 .6-10.4 .1-19.7-1.1-24.7 1.4-14.3 .5-24.8-.9-26.1l-7.7-7.4c-.3-.3-.6 .1-1 .8-.5-.3-1.2-.6-2.2-.8-2.1-.4-4.9-.5-7.9-.2-36.4 3.5-73.6 4.1-110.8 7.7-36.5 3.5-74 7.8-108.7 3.3-3.9-.5-8.9-2.3-9.5-2.8-.3-.5-.2 .4-.4-1.4-.3-2-.4-3.7-.3-5.6 .4-7.4 3.5-16 6.7-24.5 6.5-17 13.9-34 21.1-51.1L318.1 63.5c2.4-5.9 3.6-11.6 2.9-14.5l-2.5-11.3c-.4-1.8-2-1.3-3.8 1.3l-1.4 1.9c-2.8 3.9-5.6 9.1-7.9 14.7-31.8 76.4-53.1 127.4-63.7 153.1-3.3 8.8-6.8 17.5-8.5 28.1-.3 2.7-.6 5.5-.3 8.2 .3 3-.1 4.8 1.8 9.5 .6 1.9 2 3.6 3.6 5 .7 2.6 1.6 5.4 3.2 8 55.3 92.7 92.1 154.4 110.6 185.3l.4 .7c-29.8 13.5-62.6 21.1-95.2 22.8-55.2 2.8-112.1-10.7-157.8-41.7-22.4-15.7-43-35.1-56-58.9-12.5-22.5-19.6-48-22.6-74 .1-2.8 0-6-.3-9.6-4.6-53.7 8.5-108.8 35.9-155.4 13.4-23.6 31.3-44 51.6-62.2l.1 0zm364 315.8c-10.2 30.6-26.5 59.2-48 83.3-15.2 17.5-33.6 31.7-53.6 43-.4-21.5-.6-37.4-.8-47.5l-.1-7.3c13.3-6.8 26-14.9 37.9-24.2 33.1-26.4 57.7-62 73.3-101-.2 2.1-.3 4.3-.5 6.5-1.9 16.4-2.9 32.9-8.3 47.3l0 0zm-142.7-4.8L257.7 265.9c36.8 4.8 71.2 .5 106.2-2.5 36.2-3.8 73.1-4.4 110.1-7.7 5-.4 9.2-1.7 11.4-3-1.1 8-1.9 14.2-2.7 20-8 54.6-33.4 107.2-74.2 144.4-12.8 11.8-27.3 21.6-42.7 29.8l-36.6-61.3zM80.7 439.5c46.7 35.9 105.8 52.5 163.7 52.2 37.7-.2 75.6-7.8 110.3-23 .1 7 .4 24.3 .8 51.6 0 1.4 .4 2.4 .6 3.5-32.5 15.5-68.8 23.9-104.9 25.2-64.6 2.1-131.3-18.8-178.4-63.1-23.8-21.9-39.3-50.7-47.2-82.1-2-7.7-3.6-16-4.8-23.5l-1-20.4c1.6 4.1 3 8.1 4.8 12.1 12.3 27.1 32.9 49.8 55.8 67.6l0 0z"/></svg>