<svg xmlns="http://www.w3.org/2000/svg" viewBox="0 0 616 560"><!--! Font Awesome Pro 7.2.0 by @fontawesome - https://fontawesome.com License - https://fontawesome.com/license (Commercial License) Copyright 2026 Fonticons, Inc. --><path fill="currentColor" d="M60.1 58.3l6.5 9.1c1.7 2.3 2.7 7.9 2.7 14L67.4 468.8c171.9-.2 344-2.3 516-3.9 3.6 0 7.1 .3 9.5 .9 2.5 .6 3.7 1.4 3.4 2.3l-2.8 8.1c-.7 2-7.6 3.6-16 3.6-170.1 1.5-340 3.5-510.3 3.7l-.1 24.9c0 2.9-.4 5.7-1 7.6s-1.5 2.9-2.4 2.7l-8-2.3c-2-.6-3.5-6.2-3.5-12.9l.1-20c-1.8 0-3.6 0-5.4 0-7.4-.1-14.3-.7-20.2-2.1l-2.8-.6c-3.8-.9-5-2.2-3-3.2l11.7-6.2c2.9-1.7 9.8-2.7 17.4-2.6l2.4 0 2-390c0-5.8 .7-11.5 1.9-15.9l.6-2.2c.8-3 2-4 3.1-2.5zM194.5 253.2c10.6 .4 21.2 1.4 32.1 5.3 5.3 2.1 11.5 4.9 15.8 12 3.7 9.1 1.6 13.2 2.2 18.3 .3 40.3 .6 81.3-.7 121.7 .5 5.7-2.5 14.8-8.4 19.1-5.4 5.2-15.3 5.5-19.1 5.2-20.3 0-40.5 .1-60.8 .2l-15.2 .1c-2.3-.1-5.1 .3-9.3-.6l0 0c-3.7-.9-7.3-2.6-10.1-5.2-5.8-4.6-8.6-13.8-7.8-19.7l.3-15.2 .5-30.3-.1-60.6c0-6.7 .5-13.2 1.7-18.3l.5-2.5c.7-3.4 2-4.6 3.1-2.9l6.6 10.4c1.7 2.7 2.8 9 2.8 16l.1 61.2c-.4 23.1-.7 38.2-.8 45.1 .2 2.8 2 5.5 4.5 6.8 1.2 .6 2.6 1 3.9 1l7.6 0c7.7 0 23-.1 45.9-.1l30.5-.1c3.5 .1 5.6-1.1 7.3-3.4 1.7-2.1 1.5-4.5 1.7-10.5 1.2-40.7 .8-81.1 .5-122 0-6.9 .3-5.8-1.8-8.1-2.1-1.9-6.3-3.7-10.5-4.8-8.8-2.3-18.6-3-28.2-3.1-19.1 .1-40.4 2.4-55.9 9.6-2.3 1.2-3.6 2.2-4.2 1.9-2.3-.9-1.4-.6-2.3-.6-2.5 0-5.4-1.6-7.1-3.9-2-2.4 4.2-10.7 12.2-13.2 20.8-7.5 41.5-9 62.6-8.7zm313.4-80c9.2 .6 18.3 1.5 27.6 3.9 4.6 1.2 9.3 2.6 14 5.2 4.3 2.3 11 7.1 11.4 16-.7 228.5-.6 201-.7 215.2-.6 8.2-5.8 15.7-13.3 19.1-3.3 1.8-8.9 2.3-11.2 2.1l-8.3 0c-8.3 0-24.8 0-49.5 .1l-16.5 .1-8.3 0c-3.5 .1-8.2-.9-11.7-2.9-7.2-4-12-12-12-20.3 0-8.4 .1-25 .1-49.7l.4-131.9c0-8.7 .7-17.2 1.8-23.8l.5-3.2c.8-4.5 2-6 3.1-3.8l6.5 13.6c1.7 3.5 2.7 11.7 2.7 20.9-.3 103.9-.4 158.6-.4 164 0 4.9-.2 12.2 .1 15.1 .4 3 2.7 5.7 5.4 6.6 1.6 .9 8.7 .3 13.8 .5 8.2 0 24.6 0 49.2-.1l16.4-.1 8.2 0c1.6 0 2.9-.4 4.1-1.1 2.5-1.6 4.1-4.1 4-7.5l.1-16.4c.1-32.8 .3-98.3 .5-196.5 .3 .4-.7-1.7-4.3-3.4-3.3-1.6-7.3-3-11.5-3.9-8.5-1.9-17.5-2.9-26.6-3.2-17.7-.5-37.3 .7-51.9 6.9-1.1 .6-2.7 1.4-5.9 3.1-.9 .1-1.6 .5-2.5 .4-2.5-.4-5.3-2.1-7-4.5-.8-.8 0-4.7 3.3-7.8 3.1-3.2 7.9-5.9 13.2-7.5 18.5-5.4 36.8-6 55.1-5.3zM303.4 62.8c18.1-4 36.1-5.3 54.5-4.3 9.2 .6 18.4 1.8 27.9 5.4 4.7 1.9 9.9 4.4 13.8 10.2 2 2.7 2.9 7 2.8 10l0 6.6c-.1 52.9-.3 158.7-.6 317.3 .2 3.4 .1 11.5-4 16.7-3.7 5.4-9.9 9.1-16.4 9.8l-27.2 .2-52.8 .1-6.6 0c-2.6 .1-6.4-.4-9.3-1.7l0-.1c-6.2-2.4-11.1-7.7-13.2-14-2.1-7.3-.8-11.4-1.1-15.7l0-13.2c0-8.8 .2-96.9 .4-264.1 0-11.6 .7-22.9 1.8-31.8l.5-4.3c.8-6 2-8 3.1-5l6.5 18.1c1.7 4.6 2.7 15.6 2.7 27.8l-.3 212.7-.1 53.2c-.5 22.6-1.2 24.5 22 23.3l53.1-.1c8.2-.5 19.9 1 22.3-1.3 2-1.2 3.3-3.3 3.6-5.5l.1-12.4c.3-159.6 .4-265.4 .4-317.4 .6-1.8-7-6.4-14.6-7.7-7.8-1.7-16.3-2.4-24.7-2.5-16.8 0-34.4 1.7-49.8 6.6-4.8 1.6-9.4 3.4-10.8 4.3-.4 .2-.8 .2-.8 .2 0 0-1.3-.4-1.1-.4-.5-.1-.5 0-.7-.1-2.7 0-4.9-2.9-5.5-6.1-.9-3.4 10.3-12.2 24-14.7z"/></svg>