<svg xmlns="http://www.w3.org/2000/svg" viewBox="0 0 616 560"><!--! Font Awesome Pro 7.2.0 by @fontawesome - https://fontawesome.com License - https://fontawesome.com/license (Commercial License) Copyright 2026 Fonticons, Inc. --><path fill="currentColor" d="M526.4 39.7c7.6-.1 14.3 2.2 19.6 5.2 21.4 12.6 35.8 30.4 46.7 51.4 3.3 7 5.6 14.6 4.2 22.3 0 .6 .2 1.2 .2 1.9 .1 2.5-2.1 6.8-3.3 8.9l-3.7 4.7-14.9 18.8c-20.4 24.5-41.5 48.3-63.1 71.6-43.1 46.7-87.7 91.8-132.8 136.4-45.1 44.6-90.8 88.6-136.9 132L225 509.1c-2.5 2.3-6.3 6.4-11.6 8.5-5 2.1-10.6 2.6-15.9 1.6-5.3-1.1-10.3-3.9-13.9-7.5l-8.6-8.2-17.2-16.3c-23-21.8-46.2-43.6-68.4-66.5-22.1-23-43.5-46.9-61.6-74.1-10.1-14.8-12.1-35.5-5.4-52.1 6.3-16.9 18.7-29.9 33.2-39.4 7.3-4.7 15.5-8.4 24.7-10 8.7-1.7 21-.8 28.9 8.4l30.4 36.6c20.4 24 41.6 47.4 63.5 69.9 3.8 3.9 3 3.1 3.2 3.2l4.3-3.5c5.8-4.9 11.6-10.3 17.3-15.7l33.9-33 .8-.8c45.3-45.9 89.4-93.5 133.7-140.4l88.7-95.8 22-24.1c1.3-1.8 4.9-4.7 8-6.9 3.2-1.9 7.6-3.1 11.3-3.3zm-4 16.5c-1.9 1.2-3.8 3.1-6.7 6.2l-22.1 24.3-9.1 9.8c-5.7 7.2-12.9 15.8-21.1 24.7-43 47.1-86.8 93.4-131.1 139.3-13.3 13.7-26.9 27.3-40.3 40.9-23.2 23.9-46.7 47.6-71.3 70.7-2.8 2.4-5.8 4.5-8.8 5.7-.7 .3-1.4 .5-2.1 .7-.5 .3-1.1 .7-1.5 .8-3.2 1.6-6.2-.3-8.8-2l-6-6.1-8.3-8.6c-22.2-23.1-43.4-47-64-71.5l-15.3-18.5-7.5-9.2c-1-.7-1.9-1.4-2.7-2.3L92 259.7c-11.4-2.3-26.4 4.8-37 14.2-11.1 9.3-19.5 22.2-21.3 35.7-2.1 14 3.3 26 13.3 38.7 18.4 25.3 39.7 48.6 62 71.1 22.3 22.5 45.6 44.2 68.7 66.1l17 16.2c3.8 3.4 9.6 4.1 13.9 1.7 1.2-.6 1.9-1.2 3.2-2.3l4.3-4.1 26.1-24.5c46.2-43.7 92-88 137.2-132.8 45.1-44.8 89.6-90.3 132.4-137.2 21.4-23.4 42.4-47.2 62-72l7.3-9.3c1.9-2.1 .5-1.7 1.2-1.9l-.1-3.1c-.9-5.6-4.8-12.4-8.6-18.5-8.2-12.3-18.5-24.1-30.3-32.6-7.5-5.7-15.5-9.3-19.2-9.3-.9-.1-1.2 .2-1.8 .3z"/></svg>