<svg xmlns="http://www.w3.org/2000/svg" viewBox="0 0 560 560"><!--! Font Awesome Pro 7.2.0 by @fontawesome - https://fontawesome.com License - https://fontawesome.com/license (Commercial License) Copyright 2026 Fonticons, Inc. --><path fill="currentColor" d="M272.5 9.1c1.1 .1 1.7 .2 2.6 .3 9.8 0 19.5 .5 29.3 1.3 .5 0 1-.1 1.5-.1 .9 .1 1.8 .3 2.7 .4 2.6 .3 5.3 .3 7.9 .6 .2 0 .3 .5 .5 .6 73 9.4 141.1 50.5 184 110.4 22.7 31.4 38.7 67.7 45.9 105.8l0-.1c3.4 19.3 5.7 37.9 4.6 58.5-1.8 18.9-3.7 37.6-7.1 56.8-.6 3.1-1.6 6.1-2.8 8.2-.8 1.3-1.4 1.9-2 2.3-12.3 44.3-36.3 85-68.5 117.7-35.1 34.4-79.2 60-127.3 71.2-47.8 12.3-98.8 9.4-145.9-4.7-46.9-15.2-89.8-42.8-122.1-80.2-65.7-73.9-86-185.3-48.5-277.4 35.4-92.7 125-161.6 224-171.5 8-.6 15.7-.5 21.2-.2zm-16 14.3c-4.8 .7-10.1 1.5-16 2.7-46.1 6.6-89.6 27.3-125.4 56.8-35.4 30.1-63 69.4-77.8 113.6-15.5 43.8-17.4 92-8.2 137.3 10.1 45.3 32 87.9 64.1 121.5 63.1 68.3 165.1 97.6 254.6 71.4 45.3-12.1 86.4-37.7 118.5-71.7-1.4-1.7-2.8-3.8-4.1-6.3-15.1-28.6-36.8-56-64.8-70.2-7-3.3-14.3-5.7-21.6-5.9l-25.1-.7-50.6-1.3c-33.8-1.9-67.5 1.2-101.3 2-33-3.2-58.7 19-78.8 44.3-3.3 4.2-6.8 8.1-10 10.9l-1.6 1.4c-2.2 1.9-3.7 2.1-3.9 .3-.3-3.6-.6-7.3-.6-10.9-.1-2.8 2.2-7.9 5.9-12.6 11-13.7 23.7-26.3 39.2-35.8 7.8-4.7 16.3-8.5 25.6-10.4 9.9-1.9 18.1-1.4 26.6-1.9 34.1-1 68.2-3.7 102.2-1.9l51.1 1.3c8.8 .4 16.3 0 26.3 1 9.6 1.2 18.6 4.5 26.8 8.9 31.2 17.9 52.4 46 68.3 76.3 26.1-31.2 45.4-68 53.7-108.1 1.1-5.5 2.1-10.9 3.1-16.2 1.6-12.7 3.1-25.5 4.3-38.3-.1-7.9-.9-17.9-1.3-26.7l-4.3-27c-7.7-35.7-23.1-69.6-44.8-98.8-42.8-58.1-110.8-97.2-182.8-102.8-15.4-1.3-30.9-1.9-46.3-1.1-.4 0-.8-.3-1-1l0-.1zM270.6 136c2.7-.2 5.3 0 7.1 .6 .4 .1 .6 .3 .9 .5l13.7-.2c.2 0 .3 .7 .4 1.5 23.8 3 46.2 16.1 60.4 35.6l0 0c7.6 10.3 13 22.3 15.4 34.9 1.1 6.6 2.1 12 1.6 19.8l-2.5 18.8c-.1 1-.6 1.9-1.3 2.4-.2 .2-.5 0-.8 .1-8.1 30.3-33.5 55.4-64.3 62.5-31.5 8.1-67.1-2.8-88.3-27.8-21.8-24.3-28.6-61.1-16.3-91.6 11.6-30.7 41.2-53.7 74.1-57zm-2.1 15.4c-27 4-50.9 24.1-59.3 50-8.9 25.7-2.5 56 16.5 75.5 18.5 19.8 48.2 28.2 74.1 20.5l0 .1c26-7 47.2-29.3 52.5-55.6 .5-2.4 1.2-4.4 1.8-6.6l1.2-9.5c0-4.3-.7-10.4-1.8-15.3-2.3-10.4-6.9-20.2-13.3-28.7-12.7-17-32.8-28.2-53.8-29.5-.5 0-.9-.5-1.4-.6l-11.8 .4c0-.1-.2-.4-.3-1 0-.2-.1-.4-.1-.7-1.3 .4-2.8 .7-4.3 1z"/></svg>