<svg xmlns="http://www.w3.org/2000/svg" viewBox="0 0 560 560"><!--! Font Awesome Pro 7.2.0 by @fontawesome - https://fontawesome.com License - https://fontawesome.com/license (Commercial License) Copyright 2026 Fonticons, Inc. --><path fill="currentColor" d="M309.4 507.6c0 8.8-.3 17.2-1 23.3-.6 6-1.5 9-2.3 8.3l-8-6.8c-2-1.7-3.6-18.7-3.6-39.2-.8-731.9-.4-340.6-.5-465.4l0-10.1 0-4.8c-.2-.6-.1-1.3-.5-1.7-.4-2.1-6.2-4.5-11.8-5.2-5.8-.9-12.1-.7-18.5-.1-12.7 1.3-25.4 4.3-37.9 8.3-25 8.1-48.8 20-70.8 34.3-43.9 28.9-81.1 69-102.5 117-22.2 47.5-29.4 101.8-21.5 153.6 7.4 52 30.2 101.7 64.8 140.9 33.5 41 82.6 64.1 132.8 80.5 16.6 5.2 32.9 9.7 45.7 12.6 2.1 .6 4.1 .8 6.2 1.2 8.4 1.3 11.5 2.3 7.2 3.4l-.1 0c-8.9 2.2-18.6 3-28.2 3.2-7.4 .3-24.4-2.5-42.4-8.6-26.1-8.8-51.5-19.7-75.4-34-24.1-14.2-44.9-33.6-62.6-54.8-35.2-43.1-57.7-96.2-64.2-151.4-6.1-55.2 3.2-112.3 28.4-162.1 25.1-49.9 65.6-91 112.9-119.8 23.8-14.3 49.2-26 76.2-33.4 13.6-3.6 27.5-6.3 42.2-6.2 7.4 .2 15 .6 23.2 4.7 4 2.2 8.4 5.8 10.4 11.5 1.6 6.4 .9 9.2 1.1 12.6 .1 81.4 .3 244.2 .6 488.3z"/></svg>