<svg xmlns="http://www.w3.org/2000/svg" viewBox="0 0 560 560"><!--! Font Awesome Pro 7.2.0 by @fontawesome - https://fontawesome.com License - https://fontawesome.com/license (Commercial License) Copyright 2026 Fonticons, Inc. --><path fill="currentColor" d="M272.5 9.1c1.1 .1 1.7 .2 2.6 .3 9.8 0 19.5 .5 29.3 1.3 .5 0 1-.1 1.5-.1 .9 .1 1.8 .3 2.7 .4 2.6 .3 5.3 .3 7.9 .6 .2 0 .3 .5 .5 .6 73 9.4 141.1 50.5 184 110.4 22.7 31.4 38.7 67.7 45.9 105.8l0 0c3.4 19.3 5.7 37.9 4.6 58.5-1.8 18.9-3.7 37.6-7.1 56.8-.6 3.1-1.6 6.1-2.8 8.2-.8 1.3-1.4 1.9-2 2.3-12.3 44.3-36.3 85-68.5 117.7-35.1 34.4-79.2 60-127.3 71.2-47.8 12.3-98.8 9.4-145.9-4.7-46.9-15.2-89.8-42.8-122.1-80.2-65.7-73.9-86-185.3-48.5-277.4 35.4-92.7 125-161.6 224-171.5 8-.6 15.7-.5 21.2-.2zM256.6 23.4c-4.8 .7-10.1 1.5-16 2.7-46.1 6.6-89.6 27.4-125.4 56.8-35.4 30.1-63 69.5-77.8 113.6-15.5 43.8-17.4 92-8.2 137.3 10.1 45.3 32 87.9 64.1 121.5 63.1 68.3 165.2 97.6 254.6 71.4l0 .1c89.7-24 163-100.4 181.9-191.5 1.1-5.5 2.1-10.9 3.1-16.2 1.6-12.7 3-25.5 4.2-38.3-.1-7.9-.9-17.9-1.3-26.7l-4.3-27c-7.7-35.7-23.2-69.6-44.8-98.8-42.7-58.1-110.8-97.2-182.7-102.8-15.4-1.3-30.9-1.9-46.3-1.1-.4 0-.8-.3-1-1l0-.1zM242.4 217.1c13.1 .5 26-.5 40.9 4.6 3.7 1.6 8.4 4.2 10.9 9.8 2.4 6 .5 10.9-.9 14.7L285.6 264c-10.1 23.5-18.7 47.7-24 72.3-1.5 6.1-2.6 12.3-3.1 18.5-1 6.2-1.1 12.2-1 18.2 .3 11.6 3 24.2 10.2 28.5 6.7 4.6 18.3 1.5 28.3-4.2 10.1-6 19.6-14.1 28.1-23.2 1.4-1.4 3-2.6 4.5-3.1l0 0c1.4-.5 2.6-.5 3.1 .2l4.8 6.6c1.2 1.6-.6 5.6-4.2 9.3-9.2 9.6-19.9 18-32 24.9-6.5 3-13.1 5.8-20.9 6.6-3.7 .7-8.1-.5-12.1-.9-3.8-1.3-7.9-3.6-11.1-6.1-12.4-12.2-13.5-27.9-13.5-41.2-.2-13.8 2.1-27 5-39.9 6-25.8 14.7-50.5 25.2-74.4 2.3-5.6 5.7-12.9 7.2-17.1 .7-2.1 .4-2.1 .2-2.2-.1-.3-1.7-1.5-4.1-2.1-9.9-3-23.3-2.8-35.8-3.1-4.2 0-8.4-.7-11.6-1.9l-1.6-.6c-2.2-.8-2.9-2.1-1.8-3.1l6.8-6.5c1.7-1.7 5.7-2.7 10.2-2.7zm50.2-75.9c9.1-.6 14 2.9 18.2 9.4l0 0c7.9 20.6-20.2 29.4-29.1 13.7-3.4-6-2.3-13.6 1.7-18.6 1-1.2 2.5-1.8 4-1.8 1.5-1.4 3.3-2.5 5.3-2.7z"/></svg>