<svg xmlns="http://www.w3.org/2000/svg" viewBox="0 0 560 560"><!--! Font Awesome Pro 7.2.0 by @fontawesome - https://fontawesome.com License - https://fontawesome.com/license (Commercial License) Copyright 2026 Fonticons, Inc. --><path fill="currentColor" d="M272.5 9.1c1.1 .1 1.7 .2 2.6 .3 9.8 0 19.5 .5 29.3 1.3 .5 0 1-.1 1.5-.1 .9 .1 1.8 .3 2.7 .4 2.6 .3 5.3 .3 7.9 .6 .2 0 .3 .5 .5 .6 73 9.4 141.1 50.5 184 110.4 22.7 31.4 38.7 67.7 45.9 105.8l0 0c3.4 19.3 5.7 37.9 4.6 58.5-1.8 18.9-3.7 37.6-7.1 56.8-.6 3.1-1.6 6.1-2.8 8.2-.8 1.3-1.4 1.9-2 2.3-12.3 44.3-36.3 85-68.5 117.7-35.1 34.4-79.2 60-127.3 71.2-47.8 12.3-98.8 9.4-145.9-4.7-46.9-15.2-89.8-42.8-122.1-80.2-65.7-73.9-86-185.3-48.5-277.4 35.4-92.7 125-161.6 224-171.5 8-.6 15.7-.5 21.2-.2zM256.6 23.4c-4.8 .7-10.1 1.5-16 2.7-46.1 6.6-89.6 27.4-125.4 56.8-35.4 30.1-63 69.5-77.8 113.6-15.5 43.8-17.4 92-8.2 137.3 10.1 45.3 32 87.9 64.1 121.5 63.1 68.3 165.2 97.6 254.6 71.4l0 .1c89.7-24 163-100.4 181.9-191.5 1.1-5.5 2.1-10.9 3.1-16.2 1.6-12.7 3-25.5 4.2-38.3-.1-7.9-.9-17.9-1.3-26.7l-4.3-27c-7.7-35.7-23.2-69.6-44.8-98.8-42.7-58.1-110.8-97.2-182.7-102.8-15.4-1.3-30.9-1.9-46.3-1.1-.4 0-.8-.3-1-1l0-.1zm4 366.9c6.7-2 15.5 2.3 18.6 9.3 3.7 7.2-1 15.5-8.1 18.8-7.2 3.3-16.3 .1-19.9-6.4-3.1-5.4-2.4-12.7 1.6-17.7 .8-1 2.1-1.2 3.4-1.3 1.4-1.4 3-2.6 4.3-2.7zm30.2-249.1c17.7 1.1 36.1 7.4 49.7 19.9l0 .1c13.6 12.1 23.2 28.7 26.4 46.8 7.6 37.1-16.4 75.2-50.9 88.2-17.8 6.9-37.4 4.1-40.8 13.6-2.4 4.7-3.4 13.7-4 21.2-.6 7.8-.5 15.9-.2 24.1 .1 2.7-.2 5.2-.7 7.1-.5 1.9-1.4 2.8-2.2 2.7l-8.1-1.8c-2-.4-3.8-5.6-4-12-.2-8.4-.2-17 .7-25.7 1.3-8.4 1.1-17.6 8.4-27.2 7.9-9.1 18.8-10.4 26.8-11.6 8.4-1.1 15.1-2.5 22.1-5.6 27.4-12.1 45.6-44.1 37.7-73.3-3.4-14.5-11.7-28-23.2-37.3-11.4-9.3-26.2-14-41.5-14.5-30-1.5-61.8 14.7-74.9 41-1.9 4.3-4 8.4-5.9 11.9l-.9 1.7c-1.2 2.3-2.6 3.1-3.4 1.7-1.6-2.9-3.5-6.3-4.6-9.7-1-2.7-.3-8.5 2.7-14.1 17.6-32.5 55.1-49.4 90.5-46.9z"/></svg>