<svg xmlns="http://www.w3.org/2000/svg" viewBox="0 0 448 560"><!--! Font Awesome Pro 7.2.0 by @fontawesome - https://fontawesome.com License - https://fontawesome.com/license (Commercial License) Copyright 2026 Fonticons, Inc. --><path fill="currentColor" d="M178-7.3c13.5-12 32-14.7 48.3-12.1 16 3.1 33.5 11.2 41.1 29.2 1.6 3.8 2.7 6.8 4.2 11 1.4 3.5 2.3 10 2.1 12.9 .2 2.4 3 5.6 8.2 5.1 16.8-.2 28-.3 33.6-.4l5.6-.1c1 0 1.6-.1 3 0 1.7 .2 3.5 .5 5.2 1 12.7 6.1 14.2 16.1 16.8 23.8 .4 1.7 .5 3.4 .8 5l70.2-.2c.9 0 1.6 .7 2.3 1.5l.7 0c2.7 .6 5.5 1.7 7.1 4.1 1.6 2.2 2.7 6.1 3.1 7.9 .9 3.7 1.5 7.2 2.1 10.7 1.1 7 1.8 13.9 2.6 20.8 1.4 13.8 2.4 27.6 3.3 41.4 1.8 27.5 3 55.1 4 82.6l.1 0c1.9 55.1 2.9 110.2 2.5 165.3-.3 27.6-.8 55.2-2.5 82.9-.9 13.9-1.8 27.6-4.4 41.9-.8 3.9-1.2 6.6-3.3 11.9-1.6 6.6-10.4 8.6-13.9 8.4l-20.6 2c-55.1 4.7-110.3 6.9-165.5 6.7-55.2-.1-110.4-2.2-165.4-6.1l-20.6-1.5-10.3-.8c-1.7 0-6.2-.6-8.5-2.5-2.7-1.6-4.8-5.2-5.7-6.9-6.7-15.2-7.9-28.5-10.3-42.5-3.9-27.7-5.9-55.2-7.5-82.8-3.1-55.2-4-110.3-3.3-165.5 .4-27.6 1.3-55.2 3.1-82.9 2.1-27.7 3.7-55.1 11.2-83.5 1.2-3.6 2.2-7.1 4.3-10.9 1.4-3.2 7.2-10.4 13.5-10 6.9 .1 12.8 .3 18.3 .6l27.5-1.1c.6 0 1.2 .6 1.6 1.7l.2 .5c.2 .5 .1 1.4 .1 2.2 0 0 0 .1 0 .1 0 .3 .1 .5 .1 .8l-1.1 6.6c-.3 1.7-.9 2.8-1.5 2.8L37.1 76.5c-.3 0-.6-.3-.8-1-.1-.2-.1-.6-.1-.9-1.6 1.6-4.7 10-6.3 17.8-10.1 52.3-10.7 107.8-11.9 162-.6 54.5 .4 109.2 3.6 163.5 1.7 27.2 3.8 54.4 7.8 81 1 6.6 2.2 13.3 3.7 19.6 .8 3.1 1.6 6.3 2.6 9.1 1 2.8 2.5 5.7 2.4 5.3 .4 .2-.1 .1 1.2 .2l5.1 .4 10.2 .8 20.4 1.5c108.8 7.3 218.3 8.4 326.8-1.3l19.4-1.9c.5-.5 .1 .8 .8-1.5 .8-2.6 1.4-5.9 2-9 2.1-12.9 3-26.5 3.9-40 1.5-27.1 2.1-54.4 2.3-81.6 .4-54.5-.6-109.2-2.5-163.7-1-27.3-2.2-54.6-4-81.7-.9-13.6-1.9-27.2-3.3-40.6-.7-6.7-1.5-13.4-2.5-19.9-.5-3.2-1.1-6.5-1.8-9.4-.3-1.4-.1-.4-.2-.7l-25.2-.2c-9.1-.1-17.8-.5-24-1.2-.1 0-.3-.1-.3-.1l-18 .1c0 1.5 .2 3.1 .1 4.6-.3 4.5-.7 9-1.8 13.5 .8-.1 1.4-.3 2.3-.4 3.7-.3 6.9-.6 9.6-.8 3.5 .2 7.4-1.9 15.1 1.6 5.8 4.1 7.6 9.3 8.8 13.2 1.4 4.2 2.1 8.2 2.7 12.1 1.3 7.9 2 15.5 2.6 23.2 1.2 15.3 1.9 30.5 2.4 45.8 1.1 30.5 1.6 60.8 2.2 91.2l2.1 183.1c-.7 6.2-6.8 12-10.3 13.1-3.9 1.9-7.4 3.1-11 4.1-7.1 2.2-14.1 3.4-21.1 4.7-14 2.4-27.9 3.9-41.9 5.1-27.9 2.4-55.8 3.4-83.7 3.6-27.9 .1-55.8-.6-83.8-2.8-14-1.2-28-2.8-42.1-5.4-7-1.3-14.1-3-21.3-5.4-3.6-1.5-7.1-2.6-11-5.3-3.7-1.6-8.3-7.3-9.2-14.1L56 290.2 54.5 201.4c-.2-14.8-.3-29.6-.1-44.6 0-7.4 .3-15 .7-22.6 1.1-8 .1-14.8 5.3-25.3 2.1-2.9 4.6-5.6 8.1-6.7 3.4-1.4 5.6-1.1 7.6-1.4 3.3-.1 6.7-.2 10.5-.2 2.8 0 5.1 .1 7.7 .1l13.6-1.2c-2-9.7-2.2-19.3-1-28.9 .8-5 1.7-10 4-15.2 .9-2.5 2.8-5.3 4.8-7.8 1.4-1.3 2.9-2.5 4.6-3.6l6.2-1.8 22.6-1 5.6-.3c1.9-.1 1.9-.1 2.9-.5 1.4-.6 2.6-1.9 3.2-3.7 .3-.9 .4-1.7 .3-2.9-.1-2.1-.1-4.3 .1-6.4 .3-4.3 1.1-8.6 2.5-12.8 2.9-8.3 7.7-15.9 14.4-21.7zM368.5 119.9c-3.7-7.2 1.1-5.1-9.5-5.3-2.9 0-5.7 0-8.4-.1 0 1.2 0 2.3-.5 3.7-2.1 5.2-5.3 11.7-12.6 15.3-3.9 1.3-7.4 1.7-9.6 1.8-2.7 .3-5.3 .5-7.8 .6-10.3 .7-20.4 .9-30.5 1.2l-60.7 1-60.6 .2-30.4-.1c-4.8 0-11.9-.2-18.1-3.3-6.5-2.8-11.7-8.9-14.2-14.8-.9-2-1.4-4-1.6-5.8l-22.7 2.3c-.2 0-.5-.3-.7-1-.1-.4-.1-.9-.2-1.4-2.8 .4-6.2 .8-6.7 1.3-.5 0-.3 .6-.8 .9-.3 1.3-.9 2.1-1.2 3.7-4 26.3-2.3 56.8-2.4 85.4 .7 43.6 2.3 130.8 4.8 261.5-.7 .2 4.7 4.4 10.5 6.2 6 2 12.4 3.7 19.1 4.9 13.2 2.5 26.8 4 40.5 5.2 27.3 2.2 54.9 2.9 82.4 2.8 27.6-.2 55.1-1.2 82.5-3.6 13.7-1.2 27.3-2.7 40.7-4.9 6.6-1.2 13.3-2.4 19.4-4.3 6.2-1.7 12.3-4.9 10.6-4.5l-2.2-187.2c-.5-31.3-1.2-62.6-2.4-93.8-.7-15.6-1.4-31.2-3-46.4-.8-7.5-1.7-15.4-3.6-21.5zm-73 281.3c1 0 2 .3 2.6 1s1 1.5 .9 2.4l-.7 8c-.2 2-2 3.5-4.3 3.6l-144.7 2.5c-2 0-3.9-.5-5.4-1.6l-.7-.6c-1-.7-1.4-2-.9-3.1l3.1-6.6c.8-1.7 2.6-2.8 4.7-2.9l145.5-2.7zm3.4-63.2c1 0 2 .3 2.8 .9 .7 .6 1.1 1.5 1.1 2.3l-.4 8.1c-.1 2-2 3.5-4.4 3.6l-151.5 2.7c-2.1 0-4.1-.5-5.6-1.6l-.8-.6c-1-.7-1.4-2-.8-3.1l3.4-6.6c.9-1.7 2.8-2.8 5-2.9L298.9 338zm-2.1-69.2c1 0 2 .3 2.6 .9 .6 .6 1 1.5 .9 2.3l-.9 8.1c-.2 2-2.2 3.6-4.5 3.6l-145.7 2.8c-2 0-4-.5-5.5-1.6l-.8-.5c-1.1-.7-1.5-2-1-3.1l2.9-6.6c.7-1.7 2.6-2.8 4.7-2.8l147.2-3zm3-64.4c1 0 2 .4 2.8 1s1.1 1.5 1 2.3l-.6 8c-.1 2-2.1 3.5-4.5 3.5L145.8 220c-2.1 0-4.1-.6-5.7-1.7l-.8-.5c-1.1-.7-1.4-2-.8-3.1l3.5-6.6c.9-1.7 2.9-2.8 5.1-2.8l152.8-.8 0 0zM252.6 13.1c-11.6-20.4-48.7-25.2-65.9-8.4-4.1 4.2-7.7 9.4-9.4 15.3-.9 2.9-1.4 6-1.5 9.1l0 5.2c0 2.7-.5 5.5-1.5 8.1-2 5.2-6.4 9.9-11.9 11.9-6.5 2-9.6 1.1-13.2 1.5l-21.8 1c.2-.5-1.7 1-3.1 4.6-1.4 3.2-2.3 7.4-2.9 11.5-1 8.3-.7 17.2 1.1 25 .8 3.9 2.3 7.6 4 9.8 .8 1.3 1.6 1.6 2.2 2.1 .3-.1 .6-.1 .8 .1 .7 .1 2.2 0 3.3 0l27.9-.2 111.6-.9 .3 0c14.8-.3 29.6-.4 44.4-1 2.4-.2 4.9 .4 6.8 1.3 8.1-.2 10-15.5 9.9-27.3-.2-6.7-1.2-13.6-3.3-19.5-1-2.9-2.3-5.9-3.9-7.3-.7-1.2-1.4-1-1.9-1.6-.8 .3 0-.3-2.6-.2-15.2 0-28.3 .6-45.3 .2-5.3-.9-10.3-3.6-13.8-8-1.7-2.2-3.1-4.8-3.7-7.7-.3-1.4-.5-2.9-.5-4.4l-.1-2.1c-.2-2.6-1.1-5.5-2.3-8.8s-2.7-7.3-3.9-9.3zm-39.9 2c1.2-.2 2.5 .3 3.4 1.5l.4 .6c.4 .6 .2 1.4 .2 2.2l.1-.3c.4-2 1.8-3.3 3.1-2.8 6.2 2.3 11.1 8.6 10.2 16.3-.9 6.9-6.7 13.3-15.1 13.3-7.7-.5-14-5.6-15.1-14.1-.4-8.7 5.5-15 13-16.6z"/></svg>