<svg xmlns="http://www.w3.org/2000/svg" viewBox="0 0 560 560"><!--! Font Awesome Pro 7.2.0 by @fontawesome - https://fontawesome.com License - https://fontawesome.com/license (Commercial License) Copyright 2026 Fonticons, Inc. --><path fill="currentColor" d="M272.5 9.1c1.2 .1 1.7 .2 2.6 .3 9.8 0 19.5 .5 29.3 1.3 .5 0 1-.1 1.5-.1 .9 .1 1.8 .3 2.7 .4 2.6 .3 5.3 .3 7.9 .6 .2 0 .3 .5 .5 .6 73 9.4 141.1 50.5 184 110.4 22.7 31.4 38.7 67.7 45.9 105.8 3.4 19.3 5.6 37.9 4.6 58.4l0 0c-1 10.4-2.1 20.7-3.4 31.1 .4 5.1 .1 11.9-1.2 19.4-10.1 64.8-45.1 125.3-96 166.8-50.7 42-117.4 63.5-183 60.5-65.7-2.4-130.4-29.9-177.4-76.3-47.4-45.8-77-109.4-81.6-175.3-.3-5.4-.2-10.5 .3-14.2 .1-.9 .3-1.4 .4-2.1-2.7-39.4 2.7-79.2 17.6-116 35.4-92.7 125-161.6 224-171.5 8-.6 15.7-.5 21.2-.2zM256.6 23.5c-4.8 .7-10.1 1.5-16 2.6-46.1 6.6-89.6 27.4-125.4 56.8-35.4 30.1-63 69.4-77.8 113.6l0 .1c-15.5 43.8-17.4 92-8.2 137.3 10.1 45.3 32 88 64.1 121.6 63.1 68.3 165.2 97.6 254.6 71.5 89.7-24 163-100.4 181.9-191.5 1.1-5.5 2.1-10.9 3.1-16.2 1.6-12.7 3.1-25.5 4.3-38.3-.1-7.9-.9-17.9-1.3-26.7l-4.3-27c-7.7-35.7-23.1-69.6-44.8-98.8-42.7-58.1-110.8-97.2-182.8-102.8-15.4-1.3-30.9-1.9-46.3-1.1-.4 0-.8-.4-1-1l0-.1zm21.1 60.3l6.6 6.2c1.7 1.6 2.8 5.3 2.8 9.5l.5 146.9 .1 13.6c10.1 3.3 17.8 14 15 25.8 0 0-.2 .1-.2 .1l14.8 10 60.8 41c1.6 1.1 3 2.5 3.8 3.7s.9 2.4 .2 3l-5.8 5.8c-1.4 1.4-5.5 .5-9.3-2l-60.5-40.8-13.5-9.1c-2.3 1.8-4.8 3.2-7.7 4-7.7 2.1-16.7-.5-22.1-6.6-5.5-6-7.4-15.3-4.4-23.1 2.3-6.3 7.6-11.2 13.9-13.5l0-14.6-.4-145.6c0-4 .6-7.9 1.7-10.9l.5-1.5c.7-2.1 2-2.8 3.1-1.8z"/></svg>