<svg xmlns="http://www.w3.org/2000/svg" viewBox="0 0 504 560"><!--! Font Awesome Pro 7.2.0 by @fontawesome - https://fontawesome.com License - https://fontawesome.com/license (Commercial License) Copyright 2026 Fonticons, Inc. --><path fill="currentColor" d="M235 111.3l69.5 .4 34.7-.6c5.7-.3 12 .3 17.9 .5l13.2 .6 2.2 .1 .7 2 1.4 4.1 1.2 3.6c23.9 .3 47.8 .6 71.8 1.6l22.4 1 11.2 .6 9.3 .5 5.3 .3 .6 5.2 1.5 15 .8 11.3 1.2 22.4-.1 0c4.4 119.6 4.5 238.9 2.5 358.4-.1 4.8-.6 9.5-1.3 12.8-.7 3.3-1.6 4.9-2.4 4.5l-8-4c-2-1-3.3-10.3-3-21.6 1.8-118.5 1.8-237.3-2.8-355.5l-1.3-22-.8-10.9c-.3-2.3 .1-1.3-.4-1.7l-40.6-2c-29.5-1.1-59.1-1.7-88.7-1.8-59.2-.3-118.5 .8-177.9 1.3-5.4 0-10.6-.1-15.6-.4l-1 0-11.3 .1c-.3 0-.4 0-.3 .2l.1 .1 0 1.6-.2 28.4c0 .1-.1 .2-.1 .3-.9 62.9 .3 125.8 1.3 188.8l1.2 99.5-.1 49.8-.7 42 30.5-.4 38.4 .1 76.8 1.2 153.3 3.4c9.6 .1 19 .9 26.4 2l3.6 .6c5 .8 6.6 2 4.2 3.1l-15.1 6.5c-3.9 1.7-13 2.6-23.2 2.5l-151.4-3.3-75.6-1.2-37.7-.1-45.3 .6 1.2-58.1 0-50.6-.3-23.4-1.3 0c-4.8-.2-10.1 .2-14.5-.4l.3-15.4 .3-17.4c.6-29 3-162.3 4.5-243.4l.8-41.5c-.6-2 1.6-1.2 2.8-1.4l4.2-.1c5.4-.1 11.1-.2 17-.3l17.5-.2 69.8 .5zM407.5 419.2c1.2 0 2.3 .3 3.1 .9s1.2 1.5 1.1 2.3l-.7 8.1c-.2 2-2.5 3.6-5.2 3.6-58.2 1.3-116.3 2.4-174.9-.3-2.4-.1-4.8-.9-6.5-2.1l-.8-.6c-1.2-.8-1.5-2.1-.8-3.1l4.2-6.3c1.1-1.6 3.4-2.6 5.9-2.5 57.9 2.5 116.4 1.4 174.6 0l0 0zM238.5-7.9c34.3 .3 68.7 1 103.1 2.8l13.9 .8c4 .4 8.8 .1 12.2 1.1l.6 12.1c.7 13.4 2.1 39.5 4.2 78.2 .1 2.8-.1 5.5-.6 7.4s-1.4 2.9-2.2 2.7l-8.1-1.9c-2-.5-3.8-5.7-4.2-12.2-2.1-38.6-3.4-62.7-3.9-72.4 .1-.4-.3-.4-.6-.4l-3.4-.2-12.7-.7c-33.9-1.6-67.9-2.4-101.9-2.7-68-.5-136.1 1.1-204.3 1.7-3 0-5.9-.2-8.7-.5l-4 .1c-.3 0-.3 0-.3 .2l0 .1 0 1.6-.2 28.3c0 0-.1 .1-.1 .2-1 73.7 .9 147.6 2 221.6 .6 39.9 1.1 79.9 .7 120l-.5 30.1-.2 8.3c.6 .1-2.1 0 5.2 0l60.1-.2c6.6 0 13 .6 18 1.7l.1 0 2.4 .5c3.4 .7 4.5 2 2.8 3.1l-10.4 6.6c-2.6 1.7-8.8 2.8-15.7 2.8l-60.1 .2-17.4 0c-.3-.3-.1-1.1-.1-1.6 .1-2.7 .3-11.1 .6-25.1l.4-30c.3-40.1-.3-80.2-.9-120.3-1.2-80.3-3.5-160.6-1.7-241.2 0-.4 .1-.7 .1-1l0-4.6 .2-12.9c.1-1-.1-2.4 .2-3.2l3.3 0 6.6 0 16.5-.1 58-.5c.3 0 .6 .3 .8 .4 49.9-.7 99.9-1.4 150-1zM403.3 359c2.4 0 4.7 .7 6.5 1.8l.9 .5-.1 0c1.2 .8 1.6 2 1 3.1l-3.8 6.5c-1 1.7-3.2 2.7-5.7 2.7l-175.2-.8c-1.2 0-2.3-.3-3.1-1s-1.2-1.5-1.1-2.4l1-8c.3-2 2.6-3.5 5.3-3.5l174.3 1zM232.5 297.6c58.2-.1 116.8-3.1 175.7 .7 1.2 .1 2.3 .5 3.1 1.2l.1 0c.7 .7 1.1 1.5 .9 2.4l-1.5 8c-.4 2-2.8 3.4-5.5 3.2-57.6-3.6-115.5-.7-173.9-.7-2.4 0-4.7-.6-6.6-1.8l-.9-.5c-1.2-.7-1.6-2-1-3.1l3.8-6.6c1-1.7 3.2-2.8 5.7-2.8zm170.7-59.8c2.4 0 4.7 .7 6.5 1.8l.9 .5c1.2 .8 1.6 2 1 3.1l-3.8 6.5c-1 1.7-3.3 2.7-5.8 2.7l-175.2-.8-.1 0c-1.2 0-2.3-.4-3.1-1s-1.2-1.5-1.1-2.4l1-8c.3-2 2.6-3.5 5.3-3.5l174.3 1z"/></svg>