<svg xmlns="http://www.w3.org/2000/svg" viewBox="0 0 616 560"><!--! Font Awesome Pro 7.2.0 by @fontawesome - https://fontawesome.com License - https://fontawesome.com/license (Commercial License) Copyright 2026 Fonticons, Inc. --><path fill="currentColor" d="M257.1 80.1c57.6-12 120.8 4.1 163.8 45.3 21.4 20.4 37 48 41.3 77.7 1.4 7.4 1.8 14.9 1.7 22.3 .2 3.7-.1 7.4-.5 11.1l-.3 3.3 13 1.3c7.3 .6 14.4 3 21.6 4.4 28.2 7.5 56.4 22.2 74.7 46.6 18.7 23.8 27.9 54.7 25.2 84.8-.7 8.7-2.5 17-5 24.8-.2 .6-.3 1.3-.5 1.9l-.1 .1c-.6 1.9-1.4 3.6-2.1 5.4-1.6 4.7-3.1 9.5-5.3 14-12.2 26.1-35.8 48.2-64.9 55.7-4.8 .9-9.6 1.2-13.4 .7l-1.8-.2c-2.5-.3-3.4-1.4-2.3-2.7 2.2-2.6 4.2-5.2 6.1-7.8 1.4-2 5.1-3.8 9.3-4.5 24.5-6.6 44-26.4 54.4-49.7 10.7-23.3 13.1-50.4 6.6-75.1-6.5-24.6-22.1-46.5-43.8-60.3-21.9-13.2-47.3-21.1-73.6-23.1-2.1-.3-4.1-.9-5.5-1.7-.3-.2-.4-.4-.7-.5l-6-.6-2.4-.3c.1-1.2 .4-3.6 .7-7.3l.8-8.6c1.6-13.4 .3-27-2.5-40.1-6-26.3-21.4-49.6-42-67.2-41.6-34.9-101.3-47.3-153.6-33-53.3 13.8-93 59.7-106.8 112.6l-4.6 20.1-3.4 23.8c-.3 1.6-.4 3.4-.8 5-2.8 .4-7.2 1.1-13.4 2l-9.8 1.4c-6.1 2.2-12.6 3.9-18.4 6.8-23.6 11.6-41.9 33.1-51.6 57.9-9.6 24.8-10.2 53.1-1 77.7 9 24.8 28.9 44.6 53.3 55.6 9.9 2.9 25.9 4 39.3 4.9 21 1.4 63.4 3 127.1 3.4 56.6 .5 113.3 .2 170-.5 9.2-.1 18 .1 24.3 .7 6.3 .5 9.4 1.4 8.7 2.2l-7 8.2c-1.8 2-19.5 3.8-40.9 4-56.4 .6-112.8 .7-169.3 .2-28.2-.4-56.5-.8-84.8-1.9-14.1-.6-28.3-1.2-42.5-2.5-7.1-.5-14.4-1.4-21.7-2.6-9-1.6-14.9-5.9-21.4-9.5-25.7-14.9-46-40.4-53.1-69.8-6.9-29.4-2.5-60.5 10.7-87.2 12.8-26.9 36.8-48.9 65.4-58.6 7.1-3 14.5-4.1 22-5 1.6-.2 1 0 1.3-.5l1.2-8.3c.8-7.2 2.4-14.3 4.1-21.4 1.4-7.1 3.5-14.1 6-21 9.4-27.5 24.3-54 46.2-74.1 21.6-20.2 48.9-34.3 77.8-40.1z"/></svg>