<svg xmlns="http://www.w3.org/2000/svg" viewBox="0 0 616 560"><!--! Font Awesome Pro 7.2.0 by @fontawesome - https://fontawesome.com License - https://fontawesome.com/license (Commercial License) Copyright 2026 Fonticons, Inc. --><path fill="currentColor" d="M235.3 50.5c75.1-1.5 150.2-1.8 225.4 .9 37.7 1.9 75 2.7 113.4 10.5 5 1.3 9.4 2.2 15.7 5.6 4 2.4 6.7 6.3 7.3 10.7l.1 8.4c0 14.1 0 42.2 .1 84.4l.2 225c0 24.7-.6 48.7-1.7 67.6l-.5 9.2c-.7 12.7-2 17-3.1 10.7l-6.6-38.6c-1.7-9.8-2.8-33.1-2.8-59.1-.3-401.8-.2-248.6-.2-304 0-1.7 0-1.2-.3-1.8 0-.3-5.8-2.6-9.5-3.4-4.2-1.1-8.8-2-13.3-2.7-36.5-5.5-74.3-6.9-111.8-8.3-75.2-2.3-150.5-1.9-225.8-.1-37.6 .9-75.3 2.3-112.8 4.4-18.7 1.1-37.5 2.4-55.9 4.4-8.7 1-21.1 3-18.1 3.3l0 26.1c.2 169.7 .3 282.8 .3 339.3l0 28.2 .1 12.3c0 .2 0 .2 .3 .3 1 .5 3.1 1.4 5 1.9 16.6 4.5 35.8 6 54.2 7.5 74.7 4.9 150.2 4.3 225.4 3.1 75.2-1.6 150.7-4 225.3-10.4 9.8-.9 19.4-1.8 31.5-3 2.4-.3 5-.6 7.7-.8 .3 .5 1.4 2 2.2 3-.5-.6-1.4-1.6-1-1.1 .1 .3 .4 .7 .1 1.1-.4 .8-.7 1.7-1.3 2.6-1.1 1.7-2.4 3.4-3.7 5.1l-.1 0c-2 2.8-25.7 7.6-54.2 9.7-75.1 5.5-150.1 7.9-225.2 9.1-75.1 .7-150.2 1.5-225.6-5-9.5-1-18.9-2.1-28.5-3.9-4.8-.9-9.6-2-14.7-3.9-2.2-.7-5.7-2.2-9.1-5.4-3.3-2.7-3.4-8.7-3.3-11.1-.1-103.1-.2-234.4-.4-393.7l0-10.5c.1-1.3-.1-3.2 0-4.8l.7-3c.1-.5 .3-.9 1-1.1 .4-1 .9-1.8 1.5-2.6 1.3-1.5 3.3-2.4 5.5-3 5.1-1.6 6-1.6 8.9-2.1 9.7-1.7 19.1-2.5 28.5-3.4 18.8-1.7 37.6-2.8 56.4-3.8 37.6-1.9 75.1-3.1 112.6-4zM588.1 486.2c-.1 0-.1 0-.2 0 .1 .1 .1 .1-.1-.1 .1 .1 .2 .1 .2 .1zm-.7-.6c0 0 0 .1 .1 .1-.1-.1-.2-.2-.3-.4 .2 .2 .3 .3 .3 .3zm-2.4-3.3l-.1 0c-.1-.2-.1-.2 .1 0zM364.7 134.6c1.5-1.6 2.9-1.7 3.5-.4l3.6 8.4c.9 2.1 .4 6-1.2 9.9L256.3 421.7c-.8 1.8-1.8 3.4-3 4.4s-2.2 1.3-2.9 .8l-6.8-4.5 .1 0c-1.7-1.1-1.6-5.2 .2-9.4l113.9-268c1.6-3.7 3.6-7 5.9-9.4l1.1-1.1zM407 185.4c1.6-1.2 5.1-.1 8 2.7 78.5 73.9 70.8 66.6 80.4 75.6 2.1 2.1 3.4 3 6.2 6 2.4 2.7 5.8 8.3 4.2 13.1-3 10.3-7.5 12.2-11.3 16.7-4 3.9-8 7.4-12 10.9l-24.2 20.5-48.3 40.5c-2.6 2.2-5.6 3.9-8.3 4.8l-1.3 .4c-1.8 .5-3.1 0-3.1-1.4l-.1-8.5c0-2.2 1.8-5.1 4.6-7.5l48.6-40.8 24-20.4c3.9-3.4 7.8-6.9 11.2-10.4 3.4-3.4 6.4-7.7 5.7-7.3L402.7 197c-1.2-1.2-2.2-2.6-2.6-3.9s-.3-2.3 .4-2.8l6.5-4.9 0 0zm-199.8-2c1.8-.5 3.1 0 3.1 1.4l.1 8.5c0 2.2-1.8 5.1-4.6 7.5l-48.6 40.8-24 20.4c-3.9 3.4-7.8 6.9-11.2 10.4-3.4 3.4-6.4 7.6-5.7 7.2L204.7 363c1.2 1.2 2.2 2.6 2.6 3.8s.3 2.3-.4 2.8l-6.5 4.9 0 .1c-1.6 1.2-5.1 0-8-2.7l-68.9-64.8-11.5-10.8c-2.1-2.1-3.4-3-6.2-6-2.4-2.7-5.8-8.2-4.2-13 3-10.3 7.6-12.2 11.3-16.8 4-3.9 8-7.4 12-10.9l24.2-20.5 48.3-40.5c2.6-2.2 5.6-3.9 8.3-4.8l1.4-.4z"/></svg>