<svg xmlns="http://www.w3.org/2000/svg" viewBox="0 0 616 560"><!--! Font Awesome Pro 7.2.0 by @fontawesome - https://fontawesome.com License - https://fontawesome.com/license (Commercial License) Copyright 2026 Fonticons, Inc. --><path fill="currentColor" d="M287.1 26.4l.7 0c.5 0 .9 0 1.3 0 62.8-.1 125.6 .8 188.3 2.7 11.6 .3 22.7 1.1 30.6 2s11.8 1.9 10.8 2.7l-9.3 7.7c-2.3 1.9-24.7 2.6-51.6 1.9-58.3-1.6-116.7-2.2-175.1-2.1-.5 0-.9 .1-1.4 .1-251.7 6.6-157 4.1-195.5 5.1l-8.9 .2-4.5 .1c-1 .2-1.5 .5-2.4 .6-3 1.1-6 4.1-8.6 8-.3 .4-.5 .7-.8 1.1-2.8 4.2-5.2 9.4-7.1 14.2-1.4 3.5-2.5 7.2-3.6 10.9-.7 2.4-1.5 4.9-2.2 7.3-1.3 4.9-2.4 9.8-3.4 14.8-9 45.6-11 93.2-9.8 140 .7 23.5 2.5 46.9 5.9 70 3.7 22.8 8.2 46.5 18.5 65.3 2.5 4 4.9 7.4 7.2 10.2 2 1.7 4 3 6 3.3 6.5 1 16.8 .7 25.2 .9 17.8 .3 35.4-1 54.8 3 4.8 1.2 10.2 2.6 15.3 7.1 5.6 4.4 7 13.6 6.5 16.8 .3 13.5 .7 40.4 1.4 80.9l.2 12.6c.2 1.8 .3 1.2 .7 1.4l.3-.1 2.2-.9c1.6-.8 3.2-1.8 4.8-2.9 3.3-2.3 6.6-4.8 9.8-7.6 12.9-11.2 24.8-24.2 36.3-37.4 11.5-13.3 22.5-27 33.1-41l8-10.8c3.5-4.5 8.4-8.6 14.8-10.3 7.4-1.6 11.2-.2 15.6-.3l13.2 .6c35.3 1.5 70.8 2 106.1 1.8 35.2-.4 71.1-.8 105.1-5.5 8.8-1.3 15.6-2.9 20.5-7.5 5.3-4.6 9.7-11.5 13-19 6.9-15 10.9-32.1 13.8-49.1 10.5-68.8 8.5-140.6-3-209.3-1.5-8.3-3.2-16.3-5-24-3.5-13.3-7.9-26.1-14.4-36.8-2.3-3.5-4.2-5.8-5.5-8l-.7-.6c-.6-.7-1-1.6-1-2.4 0-.1 0-.3 .1-.3 .1-.2-.1-.5 .2-.7 2.1-1.9 5.7-3.1 9.4-2.8 3-.1 8 3.5 10.9 8.4 16.1 28.8 19.9 59.1 24.8 89.2l-.1 0c4.1 30.2 6.1 60.5 6.5 90.9 .2 30.4-1 60.9-5.4 91.2-2.3 15.2-5.2 30.3-10 45.3-5 14.7-11.1 30.3-25.5 42.2-2.1 2.1-5.4 2.8-7.4 3.3-.4 .1-.6 0-.9 0-.6 .3-1.1 .7-1.8 .9-9.8 3.2-18.7 4.2-27.9 5.3-36.2 3.7-71.9 4-107.8 4.2-35.8 0-71.6-.7-107.5-2.5-10.7-.8-13.8-1.2-18.5 4.4l-16 21.2c-11.1 14.2-22.6 28.1-34.7 41.5-12.3 13.3-24.5 26.6-40.3 37.7-2.1 1.4-4.2 2.7-6.6 3.9l-4 1.6c-2 .5-4.1 1.2-6.1 1-8.7 1.1-14.5-8.9-14.3-15.6-.3-13.9-.7-40.6-1.4-80.1-.6-8.4 .9-20-2.3-20.2-4-3.2-13.3-4.7-21.4-5.3-17.1-1.2-35.1-.4-53.1-.9-4.9-.4-8.1 .4-15.1-1.4-6.1-1.6-10.9-5.5-14.4-9.4-6.9-8-11.3-16.8-14.5-25.6-12.7-35.3-16-71.5-18.4-107.5-2.1-36-1.5-72.1 1.6-108.1 1.7-18 3.9-36 7.5-53.9 4-17.8 7.9-35.8 18.3-53 2-3.2 4.6-6.3 7.7-9.2 .3-.3 .6-.6 .9-.9 .7-.6 1.3-1.4 2.1-2 2.6-1.6 4.9-3.6 8.4-4.2l4.9-1.1 3.4-.2 26.8-1.4 53.6-2.1c35.8-1.1 71.6-1.7 107.3-1.9 8.1 0 16.2 .1 24.3 .1zm50.1 264.5c1.3 0 2.5 .3 3.4 1 .9 .6 1.4 1.4 1.3 2.3l-.9 8.1c-.2 2-2.7 3.6-5.7 3.6l-190.7 3.7c-2.6 0-5.2-.5-7.2-1.6l-1-.5c-1.4-.7-1.8-2-1.2-3.1l4-6.6c1-1.7 3.5-2.8 6.2-2.9l0 0 191.8-3.9zm134.1-77.7c4.4-.4 8.7-.2 12.2 .7l1.7 .4c2.3 .6 3.2 1.7 2.2 2.9l-6.3 7.2 0 0c-1.6 1.8-5.8 3.3-10.5 3.7-109.6 6.9-218.8 4.6-328.1 2.8-2.2 0-4.3-.5-5.8-1.1s-2.2-1.6-2-2.4l2-8c.5-2 4.8-3.4 9.9-3.3 108.3 1.8 217.3 4.2 324.8-2.8zm9-77.5c2.2 0 4.3 .3 5.8 .9l0 0c1.5 .6 2.3 1.5 2.1 2.3l-1.7 8c-.4 2-4.7 3.6-9.9 3.6l-325.3 3.7c-4.5 .1-8.8-.5-12.3-1.6l-1.7-.5c-2.3-.7-3.2-2-2.1-3.1l6.8-6.6c1.7-1.7 5.9-2.9 10.6-2.9l327.5-3.9z"/></svg>