<svg xmlns="http://www.w3.org/2000/svg" viewBox="0 0 616 560"><!--! Font Awesome Pro 7.2.0 by @fontawesome - https://fontawesome.com License - https://fontawesome.com/license (Commercial License) Copyright 2026 Fonticons, Inc. --><path fill="currentColor" d="M88.6 52.6c82.4-3.4 164.9-2.4 247.1 .5 3.3 .1 6.5 .6 8.8 1.3 .3 .1 .5 .2 .7 .3 .8 0 1.6 .1 2.4 .1l5.8 1.6c1.6 1 3.1 2.1 4.4 3.2 2 2.2 3.9 4.5 5 6.7 2.7 4.5 4.3 8.9 5.9 13.3 3 8.8 5.1 17.6 6.8 26.4 3.4 17.6 5.4 35.3 6.5 53.1 .6 12.3 .9 24.6 .9 36.9 1.1-1.8 5.7-3 11.4-2.9 168 2.5 147.8 2.2 157.9 2.3l6.1 .1 3.1 0c1.7 .3 3.5 .7 5.2 1.2 12 6.4 14.4 15.8 17.8 23.7l.1 .1c10.7 32.8 12 65.6 12.4 98.4-.1 16.4-.8 32.9-2.8 49.3-2.3 16.5-4.6 32.9-12.7 49.5-2.3 4.5-6 9-10.8 11.5-1.5 1.1-2.9 2.1-4.8 3-6.7 1.8-9 1.1-13 1.3l-10.7 0c-7 0-13.9 0-19.9 1.1-6.2 1.1-10 3.3-11.3 6.9-1.4 3.3-1 12.2-1.3 19.4-.3 16.8-.6 28-.7 33.6l-.1 2.8-1.3 4.3c-.6 2.9-2.6 5.2-5.2 6.5-4.9 2.5-12.2 .3-16.4-2.8-5.4-3.2-6.9-5-10.1-7.7-5.6-5-10.6-10.3-15.6-15.6-9.8-10.7-18.9-21.9-27.6-33.4-2-2.6-4.8-6.7-5.4-6.9-1.8-.9-1-1.1-5.4-1.1-17.7-.3-99.1-2.1-148.7-3.2-1.5 0-3.6 0-6.8-.5-2.9-.1-5.3-1.6-7.8-2.7-4.4-2.9-7.7-6.5-10-10.1-4.6-7.3-7.1-14.7-9-22-3.9-14.6-5.4-29.2-6.4-43.7-.6-9.6-.2-18.9 .9-26.1l.6-3.5c.8-4.9 2.1-6.5 3.1-4l6.6 14.6c1.7 3.7 3 12.3 3.7 22 1 13.9 3 27.9 6.7 40.8 2 6.3 4.6 12.5 8.1 16.6 3.9 4.5 5.3 3.9 14.1 4.1 64.5 1.4 107.4 2.3 128.9 2.7 18.4 .4 16.6 .3 18.8 .4 1.4 0 2.8 .2 4.1 .5 5.3 .9 10.6 6 12.4 9l6.3 8.4c8.6 11.1 17.7 22 27.3 32.1 4.8 5 9.7 10 14.8 14 4.9 3.8 4 2.8 4.6 2.3l.7-38.7c.3-5.5-1.1-16.4 6.9-24.7 7.8-7.8 17.1-8.7 24.6-9.5 7.7-.6 15-.4 22.1-.4l10.4-.2c2.3-.4 2.4-.2 4.4-2.2 6.8-7.4 10.5-22.4 13-35.4 4.7-27.3 5.7-55.7 4.6-83.7-1.5-27.5-3.9-57.4-14.7-80.1-1.7-2.8-3.2-5.2-4-6.2-.7-.6-1.4-.9-1.8-.7-20.9-.3-112.8-1.6-166.4-2.4 .3 1.1 .6 2.2 .6 3.5-.3 18.1-1.3 36.3-5.1 54.6-2 9.1-4.4 18.3-9.9 27.3-2.7 4.4-6.6 9.3-13 11.8-2.8 1.6-7.3 1.5-9.4 1.7l-6.7 .2-106.6 3.2c-1.4 0-2.8-.3-3.9-.9-1-.6-1.5-1.5-1.4-2.3l.9-8c0-.5 .7-.9 1.1-1.4-10.4 .3-25 .6-43.9 1.1-5.5 .1-5.7 .1-7.4 1.5-.4 .2-1.7 2.2-3.1 4l-4 5.4c-10.9 14.1-22.1 27.8-34.9 40.7-3.2 3.2-6.5 6.4-10.3 9.4-2.9 2.5-10.7 8.2-17.9 8.2-3.6 .4-7-2.2-8.9-4.9-1.3-3.1-2.7-7.6-2.4-9.3-.2-6.9-.5-20.7-1-41.5 0-11.2-.7-13.5-5.5-16.4-5.1-2.7-13.9-3-22.2-3.1l-13.1 .1c-5-.4-7.6 .9-16.1-1.8-12.7-7.1-15.3-17.3-18.8-25.9-3.1-9-5-17.9-6.5-26.8-3-17.9-4.2-35.7-4.7-53.5-.1-35.7 .6-71.3 12.3-107.1 2-5.5 5.1-10.5 8.9-14.7 .9-1.1 1.9-2.2 3-3.3 .4-.3 .6-.8 1-1.1 .3-.2 .6-.2 .9-.4 .5-.4 .8-.8 1.4-1.1 2.8-2.4 9.3-3 10.7-3l30.9-1.5zm258.1 17c-78.7-3.1-158.2-4.6-237.2-2.2-9.1 .3-17.7 .3-25.9 .2-9.4 .5-20.4 .9-27.8 1.6-2.9 .1-8.6 10.5-10.8 19.2-5.4 18.5-7.6 38.7-8.8 58.7-1.1 20-1 40.2 .5 60.2 1.6 19.8 4.3 40.2 11.1 57.4 2.1 4.9 4.1 9 5.8 11.5 0 0 .1 .1 .1 .1 2 1.5 2.5 1.5 7.8 1.6 8.4 .2 17-.3 26.2 .2 8.7 .8 20.4 1.1 28.8 11.9 3.8 5.2 4.4 11.6 4.6 16l.2 12.4 .5 24.7 .1 6.2c.1 2.5 0 1.2 .1 1.9 .5 .4 .5 .5 1.9-.4 4-2.7 11.6-9.8 16.9-15.5 11.6-12.3 22.4-25.6 32.6-39.2 1.8-2.5 6.3-9.5 13.3-11.1 1.7-.5 3.4-.7 5-.8l3.3-.1 6.5-.2 0 0c132.2-3.3 140.9-3.5 143.1-3.6 4.2-.3 4.3-.1 6.8-2.2 4.2-3.5 7.5-11.4 9.7-19 8.3-31.7 8-66.8 6.1-100.5-1.1-17-3.2-33.9-6.3-50.4-1.7-8.2-3.6-16.4-6.3-24-1.3-3.7-2.8-7.5-4.6-10.4-1.8-3.3-3.8-4.7-3.4-4.2zm26.1 201.3c-2.8 7.5-6.4 15.3-15.3 21.2 .5 0 1 0 1.4-.1 1 0 1.9-.3 2.9-.8 1.9-1.2 4.1-3.6 5.9-6.8 2.2-3.9 3.9-8.6 5.2-13.5z"/></svg>