<svg xmlns="http://www.w3.org/2000/svg" viewBox="0 0 504 560"><!--! Font Awesome Pro 7.2.0 by @fontawesome - https://fontawesome.com License - https://fontawesome.com/license (Commercial License) Copyright 2026 Fonticons, Inc. --><path fill="currentColor" d="M122.2 58.4c42.4-34.3 98.4-53.2 153.4-47.8 55.3 4.2 106.4 32.5 144.2 71.6 38.6 38.8 62.5 92.5 64.1 147.8 .4 15.5-1 30.9-3.6 46.2l0 .1 .7 1.8c1.5 4.2 2.2 13.9 1.5 24.7-.9 15.7-2 31.5-3.6 47.2-.8 7.9-1.7 15.8-3.1 23.8-1.1 8.2-3.9 16.5-6.5 23.8-10.9 30.3-27.7 58.6-49.8 82.3-21.9 24-50.1 41.8-80.1 53.5-30 11.8-62.3 17.9-94.5 17.9-63.8 0-130.5-20.9-176.1-68.6-23.7-23-38-54.6-44.8-86.1l-2.3-12-.5-3c0-.3-.3-1.5-.3-2.2l-.1-1.5-.3-5.9-1-23.6c-.6-15.7-1-31.5-1-47.4 0-4.8 .5-9.3 1.2-12.8-3.8-40.9 2.7-82.6 17.9-120.6 3.4-8.6 7.5-16.8 11.7-24.3 4.6-8.8 9.4-17.5 15-25.8 1.4-2.1 3.4-3.8 5.4-4.8l1-.5c1-.4 1.8-.2 2.4 .3 0 0 .1 0 .1 .1 .2 .2 .5 .3 .6 .5l3.1 7c.8 1.8 .4 4.3-1 6.3-32.5 49.2-47.1 110.2-39 168.2 .2 1.2 0 2.4-.6 3.3-.1 .1-.2 .1-.3 .2 1.7 11.7 4.2 23.3 7.7 34.6 14.7 50 57.2 87.1 105.1 106.4 48.2 19.5 102.8 23 153.3 11 25.3-5.9 49.6-16.2 71.3-30 21.5-14.2 40.2-32.7 54.8-54.1 29.4-42.4 44.4-95.7 40.1-147-3.1-51.6-30.6-99.7-67.8-135.2-37-36.4-88-57.5-139.1-59.5-51.8-2.7-101.7 20.8-140.4 54.8-6.1 5.8-12.3 11-17 14.6-4.7 3.5-7.4 4.9-7.5 3.9l-1-10.1c-.1-2.4 10.9-15.6 26.6-29.2zM465.9 327c-8.2 20.2-18.8 39.3-32 56.7-16.7 21.9-37.5 40.7-61.4 54.7-23.8 13.8-50 23.2-76.9 28.5-53.7 10.4-110.7 4.9-160.9-17.7-25-11.3-48.3-27.2-67.3-47.4-14.4-14.3-25.2-32.1-32.8-50.9 .1 1.7 .1 3.4 .1 5.1l1.1 22.9c1 7 2.6 14.8 4.5 22 7.4 29.4 21.9 56.2 44.1 76.7 44 41.3 106.3 60.9 166.6 58.9 60.2-2.2 121.5-24.8 161.2-70.4 20-22.4 35.2-49.2 44.8-77.8l-.1 .1c5.1-13.4 6-28.8 7.7-44.1 .6-5.7 .8-11.4 1.3-17.1zM227.4 56.8c43.4-7.4 88.6 3.8 125.1 27.2 2 1.3 3.7 3 5.7 4.4 6.3 4.4 12.4 9.1 18.2 14.2 1.5 1.4 2.9 2.8 4.4 4.3 14.4 13.7 26.7 29.4 36.2 46.8 .5 .9 1 1.7 1.5 2.6 4 7.6 7.4 15.4 10.3 23.4 .7 1.9 1.8 3.6 2.4 5.5 .6 2.6 1.3 5.1 1.9 7.7 .1 .4 .2 .8 .3 1.2 .4 1.7 .7 3.4 1.1 5.1 2.3 9.9 3.8 20.1 4.2 30.5 .2 4 .2 7.9-.5 10.3-.6 2.5-1.4 3.8-2.3 3.5l-8.1-2.9c-1.9-.8-3.8-8-4.4-16.3-.4-5.1-1.1-10.1-2-15.1-2.2-2.1-4.1-6.7-6.1-11.9l.1 0c-12.7-33.5-35.9-62.8-64.9-83.8-29.4-20.5-65-32-100.5-30.5-35.6 .9-69.7 16.4-97 39.5-27.1 23.4-50.3 52.8-63.4 85.8-.6 1.6-1.3 2.6-2 3.9-4 15.7-6.1 31.8-6.1 47.9 0 4.1-.1 8.2-.2 11.9 2 32.6 12.2 65 35 87.7 27.6 28.9 67 45.3 107 49.5 40 4.2 81.8-3 116.6-23.1 34.6-19.8 60.3-53.9 73-91.8 1.4-4 3-8.5 5.7-16.3 1.6-4.2 2.9-6.2 3.7-5.5l6.7 6.8c1.7 1.7 .2 15.4-6 30.7-15.9 39.9-45.9 75.3-85.3 94.2-38.9 19.2-83.5 25.1-126 18.6-42.4-6.4-84.2-26-112.6-59.8-28.7-34.8-36-81-32.1-123.5 7.6-86.5 74.2-165 160.7-182.7zm99.2 103.2c8.8-3.4 18.3-6.1 21.7-3.8 1.9 .8 3.7 2.9 3.4 4.8l.4 3.1c0 .1-.2 .3-.2 .5 .3 1.4 .5 3 .2 4.8l-.9 5.6c-53.4 97.3-47.7 86.8-54.3 98.8-2 4.6-7.3 11.6-13.4 14.6-20.1 9.5-38.9 17.9-58.7 26.4-9.8 4.2-19.7 8.3-29.8 12.2l-15.4 5.5-8.1 2.4c-3.8 .9-10.3 2.3-14.1 .6-1.6-.7-3.2-2-4-3.1-.6-1.7-1.1-3.4-1.4-5 .2-2.6 0-5.3 .3-6.7l.1-.4c-.1-2.1-.9-3.7 1.9-8l58.8-99.6c.8-1.4 1.9-2.5 3-3.1 .1-.1 .2 0 .4 0 .7-1.4 1.5-3.1 3.1-3.5l8.2-3.7 13.7-6.2 55.2-24.1 13.9-5.8 16-6.2zm1.3 15.3l-26.2 10.6-55.5 24.3-13.8 6.2-3.5 1.6c-.7 .3-.3 .1-.5 .2l0 0-3 5.1c-7.8 13-23.3 39.1-46.6 78.2-1.3 2.1-2.7 4.1-4 6.1 .4-.1 1-.3 1.6-.6 9.8-3.6 19.5-7.7 29.3-11.8 19.5-8.3 38.9-16.8 58.3-25.6 1.8-.8 3.6-1 5.4-1.3l6.1-2.7 53.4-90.1c1-1.2-.5-.7-1.1-.4zm-78.6 49.1c9.6-1.8 18.3 4.3 20.4 13.7 .1 .5-.5 .9-.9 1.4 .1 .5 .2 1 .2 1.6-.1 5.5-2.6 11.3-8.1 14.7-4.8 2.8-10 3.2-15.1 1.7l0 0c-2.5-.8-5.5-2.4-7.3-4.6-1.6-2.4-2.5-5.4-3.9-8-.6-4.2 .1-7.9 1.8-11.4 .4-.8 1.3-1 2.2-1.3 2.3-3.6 5.8-6.4 10.6-7.7z"/></svg>