<svg xmlns="http://www.w3.org/2000/svg" viewBox="0 0 560 560"><!--! Font Awesome Pro 7.2.0 by @fontawesome - https://fontawesome.com License - https://fontawesome.com/license (Commercial License) Copyright 2026 Fonticons, Inc. --><path fill="currentColor" d="M292.9 20.7c62.4 .9 126.5 24.3 170.2 70.9 15.8 16.1 28.4 34.5 38.7 54 .1 .3 .3 .5 .4 .8 .9 1.7 1.8 3.4 2.6 5.1 10.2 18.7 18.5 38.5 24.3 59 5.1 18.3 7.9 37.1 9 56 .3 3 .5 5.8 .4 8l0 .1c.3 9.6 .3 19.2-.4 28.7-.2 4.1-.9 8.2-1.3 12.3 .3 4.7 .2 10.4-.7 16.5-8.1 62.4-39.7 122.4-89.4 162.1-49.3 39.9-113.4 60.2-176.6 56.9-63.3-2.9-125.1-29.7-170.6-73.8-45.7-43.7-75.2-105-78.4-168.6-.2-3.7-.1-7.1 .1-10.1-4-55 10-111.2 40-157.5 33.4-53.3 87.3-92.8 147.5-110.4 10-2.8 19.8-5.5 29.4-6.3 5.6-.8 10.9-1.3 16.1-1.7 12.9-1.5 25.8-2.3 38.7-2zm-6.4 14.7c-59.2-.3-118.1 20.3-163.2 58.4-45.5 37.6-76 92.6-84.1 150.8-1.5 7.6-2.3 14.9-3.4 21.4-1.3 21 0 42.1 4.1 62.8 12 58.3 47 111.2 94.7 146.6 47.6 36 108.3 53.2 167.7 48.4 59.5-4 116.7-31.1 157.6-73.9 40.9-43.1 62.9-102.3 64.3-161.6 .1-7.9-.2-15.9-.8-23.8-.7-2.8-1.3-5.9-1.9-9.2-4.1-29.7-13.1-58.4-24.4-85.8-3.1-6.5-6.4-12.9-9.8-19.2-.7-1.2-1.4-2.5-2.2-3.7-1.2-2.2-2.6-4.4-3.9-6.6-3.9-6-8.1-11.8-12.4-17.5-36.1-47.2-92-76.9-150.8-84.2-6.3-.8-13.1-1.6-21.5-2.6-3.3-.1-6.6-.4-9.9-.4l0 0zM82.2 303.2l7.6 5.8c2 1.4 3.6 5.1 4.4 9.4 10.7 49.7 42.5 94.2 85.6 120.9 42.7 27.4 96.6 35.6 145.6 24.2 2-.5 4-.6 5.5-.3l0 0c1.5 .3 2.4 .9 2.5 1.8l.5 8.2c.1 2-3.6 4.6-8.7 5.7-52.8 11.4-110.2 1.4-155.6-28.5-45.8-29.1-79.2-77.2-90.2-130.7-.7-4.4-.8-8.9-.2-12.4l.3-1.7c.4-2.3 1.5-3.2 2.8-2.3zm66.3-7.7l7.2 3.6c1.9 .8 3.3 3.2 3.9 6 7.2 32.7 28.5 61.8 57.1 78.9 28.4 17.4 63.9 22.2 96 13.7 1.3-.3 2.6-.3 3.7 0 1.1 .4 1.8 1 1.9 1.9l1.2 8c.3 2-2.1 4.3-5.5 5.1-35.7 8.7-75.2 2.9-106.6-17.1l0 0c-31.6-19.4-54.9-52-62.5-88.7-.5-3-.4-6.1 .4-8.5l.4-1.2c.5-1.7 1.7-2.3 2.9-1.7zm130.4-83c15.8-.8 33.1 3.7 45.7 15 12.7 11.2 19.6 27.1 22.4 42.4 .2 1-.2 1.9-.2 3 .5 4.4 .7 8.8 .4 13.2-1 16.1-8 32.1-20 43.4-11.9 11.5-28.1 17.8-44.3 18.3l0 0c-33 1.7-64.9-23.6-69.8-56.8-6.2-32.8 16.1-67.7 48.3-76.4 3.6-1.1 7-1.3 10.3-1.2 2.4-.3 4.8-.8 7.3-.8zm-.8 14.9c-26.1 .9-48.8 23.5-49.8 49 0 1-.4 2-1.1 2.7 0 .1-.1 0-.2 .1-.1 3.9 .1 7.8 .9 11.5 5.1 25.6 31.1 44.9 57.1 42.1 12.9-.9 25.2-6.9 33.9-16 8.7-9.2 13.4-22 13.6-34.8 .5-25.9-18.2-51.3-44.2-53.5-1.6-.2-2.9-.6-4.2-1.1-2 0-4.1-.2-6.1-.1zm9.6-83.5c27.8 .7 56 9.7 78.2 27.5 22.2 17.7 38 42.4 46.1 69.4 .7 2.2 .7 4.6 0 6.5l-.3 1c-.5 1.3-1.6 2-2.8 1.6l-7.2-1.7c-1.8-.4-3.4-2-4.1-4.1-7.6-24.3-22.2-46.7-42-61.9-19.8-15.4-45-23.2-70.1-23.5l0 0c-1 0-2-.4-2.7-1-.7-.6-1.1-1.5-1-2.3l.8-8c.2-2 2.4-3.5 5.1-3.4zm4.2-66.7c43.8 1.4 87.8 16.7 121.5 45.9 33.5 29.3 56 69.5 66 112.5 .8 3.6 .9 7.2 .2 10.1l-.3 1.4c-.4 2-1.5 2.7-2.8 2l-7.4-4.2c-1.9-1-3.6-4-4.5-7.4-9.6-40.2-31.3-78-62.6-104.5-31.3-26.5-72.4-40.3-113.5-41l-.1 0c-1.7 0-3.3-.4-4.4-1s-1.7-1.5-1.6-2.4l1.4-8c.3-2 3.8-3.5 8-3.4z"/></svg>