<svg xmlns="http://www.w3.org/2000/svg" viewBox="0 0 616 560"><!--! Font Awesome Pro 7.2.0 by @fontawesome - https://fontawesome.com License - https://fontawesome.com/license (Commercial License) Copyright 2026 Fonticons, Inc. --><path fill="currentColor" d="M171.7 271.5c33.6-.5 67 .1 100.7 2.6 8.4 .7 16.8 1.5 25.6 3.1 2.8 .4 14.5 2.7 15 10.5l1.3 14.2 0 .1c1.4 16.7 2.6 33.5 3.3 50.3 1.3 33.6 1.3 67.3-2.2 101.1L314 466.2c-1.2 6.7-5.2 15.4-13.2 14.8-7.6-.4-13.6-5.8-16.4-8.1-3.4-3-6.4-6.1-9.4-9.2l-17.2-18.3-8.6-8.9-4-4c-.1-.1-.2-.1-.4-.1l-66.8 67.1-35.2 35.6-17.8 17.8-9.2 8.8c-1.6 1.5-3 2.9-5.1 4.6l-3 2.5-5.1 2.9c-3.4 1.3-7.6 1.3-10.5-1-1.5-.7-3-3-4-3.9l-2.2-2.2c-7.2-7.2-41.8-41.6-63.5-63.4-3.5-4.3-3.9-10.3-.8-15.4 2.1-4.2 3.8-6.2 5.7-8.9 3.8-5 7.8-9.5 11.8-14 8.1-8.8 16.4-17.2 24.7-25.5l25.5-24.9c15.7-15.6 31.4-31.2 46.2-47.4 1.5-1.7 3.4-2.8 5.4-3.3l1-.3c.5-.1 .6 .4 1 .5l.7-.6c4.9-4.3 7.4-5.2 6-2.1-1.1 2.5-2.3 4.9-3.4 7.3l1.2 3.2c.7 1.8 0 4.2-1.6 6-3.9 4.3-8 8.3-12 12.5-3.5 4.3-8 9.2-13.1 14.2l-18.4 18c-4.9 4.9-9.8 9.8-14.7 14.7-9.7 9.7-19.5 19.5-28.8 29.5-4.7 5-9.2 10-13.5 15.1-3.9 4.6-8.5 10.8-9.5 13.8 25.5 25.4 42.9 42.8 52.1 51.9l9 8.9 2.1 2.1c.2 .2 .6 0 .8-.2 .6-.5 4.6-3.9 7.3-6.5l9-8.7 17.9-17.9c23.7-24 47.5-48.1 71.3-72.1 13.4-13.5 22.4-22.5 26.9-27l2.4-2.4c1.4-1.4 3.1-2.5 5-3.2 3.7-1.5 8.1-1.4 11.8 .3 1.8 .8 3.7 2.2 4.8 3.3l2.2 2.3 4.5 4.6c4.5 4.7 13.1 13.9 26.1 27.5 2.8 2.8 6 5.7 8.4 7.6 2 1.4 1.2 .9 1.9 .8 .1-.1 .2-.3 .3-.8l.7-5.1 1.3-12.3c3-33.1 2.9-66.8 1.3-100.3-.8-16.8-2-33.5-3.7-50.2l-.3-3.4c0-.1-.1-.1-.3-.2-1.1-.3-6.7-1.4-10.2-1.9-8.1-1.1-16.4-1.8-24.7-2.3-33.4-2.1-67.1-2.5-100.7-1.8l-25 1-11.9 .8c-1.4 .1-.5 .1-.8 .2-.3-.7 .7 1.6 3.3 4.9 2.2 2.9 5 5.9 7.7 8.9 5.6 5.9 11.7 11.6 17.8 17.3 4.7 4.3 9 8.8 11.8 12.3 2.8 3.6 3.8 5.7 2.8 6l-9.2 2.3c-2.2 .6-12.3-6.5-23.3-16.9-6.1-5.9-12.2-11.8-17.9-18.7-2.7-3.8-5.8-6.4-8-13.7-2.8-7 1.4-14.9 9-16.1 7-2.1 9.9-1.3 14.5-1.9l12.6-.7 25.2-.7zM513.5-11.4c5-2.2 10.4-.5 13.8 4.2l12.4 12.9 48.8 51.1c2.7 2.8 4.8 6 6.1 8.9l.6 1.4 0 0c.8 2 .4 3.3-1.1 3.3l-8.9 .2c-2.3 0-5.6-1.8-8.3-4.7L528.2 15.1 517.4 3.9c-.2-.4-.7-.2-1 .1-.7 .6-3.1 2.5-5 4.4-8.3 7.8-16.6 16.3-24.8 24.6l-99 100.8c-1.3 1.3-2.9 2.4-4.2 2.9-.2 .1-.2-.1-.4-.1l-1 1.1c-2.2 2.3-5.4 3.9-8.7 4.3-6.8 1.6-13.7-5-14.9-6.7L328.4 104c-4.5-4.8-11.5-10.4-11-9.5-.6 0-.8 .3-1 1.3l-1.2 9.1c-3.1 28.1-3.6 56.7-3 85.3 .4 14.3 1 28.6 2 42.8l1.6 21.4 1 10.7 .2 2.5c0 .2 .2 .2 .4 .3l2.9 .7 5 .8 10.3 1.3 21.2 1.7c14.2 .8 28.5 1.3 42.8 1.6 28.6 .5 57.3 .3 85.6-1.6l5.1-.4c1.8-.1 .7-.1 1.1-.1 .2-.1 .2-.3 .1-.5-.2-.5-1.8-3.1-4-5.7-2.1-2.5-4.4-5-6.8-7.5-4.8-4.9-10-9.8-15.2-14.7l-17.1-16c-4.4-4.5-3.4-11.6-.7-16.7 1.8-3.6 3.9-6.4 5.9-9.2 4.1-5.5 8.4-10.4 12.8-15.3 8.8-9.6 17.8-18.8 26.9-27.9L548 104.5c4-4 8-7.7 11.1-10 3.1-2.4 5-3.2 5.4-2.3l2.8 8.7c.7 2.2-5.9 11.3-15.3 20.7l-51.2 50.6c-8.4 8.4-16.7 17-24.6 25.8-3.9 4.4-7.7 8.8-11 13.3-1.5 2.1-3.3 4.7-4 6.3-.2 .5-.3 1 .1 1.3L476 232.7c5.3 5 10.7 10 15.9 15.4 2.6 2.7 5.2 5.5 7.7 8.6 2.1 3 5.4 6.3 7.1 12.6 2.4 6.2-.7 13.1-6.6 15.5-7.4 2.3-10.4 2.2-14.1 2.5-29.3 2-58.4 2.1-87.6 1.6-32.8-.6-54.7-2.3-65.8-3.5l-11.2-1.5c-3.6-.8-7.4-.8-14.2-4.3-5.4-4-4.8-12.6-5.2-14.8l-1-10.9-1.6-21.8c-1-14.5-1.6-29.2-1.9-43.8-.6-29.2 0-58.5 3.5-87.9l.7-5.6c.6-2.2 1.3-6.2 2.8-8.8 2.7-6.3 10.1-8.8 16.3-6.1 3.5 1 5.3 2.9 7.8 4.3l4.6 3.9c2.9 2.6 5.5 5.3 8.1 8 10.2 10.7 19.8 21.4 29.8 31.3L484.9 12.6c4.9-4.8 9.7-9.1 14.5-13.1 1.3-1.2 2.4-2.5 3.7-3.7 2.6-2.3 4.8-4.4 10.4-7.3z"/></svg>