<svg xmlns="http://www.w3.org/2000/svg" viewBox="0 0 560 560"><!--! Font Awesome Pro 7.2.0 by @fontawesome - https://fontawesome.com License - https://fontawesome.com/license (Commercial License) Copyright 2026 Fonticons, Inc. --><path fill="currentColor" d="M-1.7 267.9c.7-4.8 2-6.4 3.1-4L8 278.4c1.7 3.7 2.8 12.4 2.8 22.2l.3 127.3c0 1.8-1.3 9.9 1 10.1 6 1.1 13.3 1.8 20.1 2.4 55.9 4 112.7 4.5 169.1 5.1 56.5 .4 113.1 .1 169.6-.9 56.3-1.3 113.4-1.9 168.7-7.6 3.8-.5 8.4-1.5 12.3-.8-.5-.7 .7 2.3 2.3 3.6l0 0c0-.1-.1-.1-.2-.2 .9 2 .7 4.1 .4 6.2-.5 2.5-9.7 5.9-20.5 6.9-113.2 8.4-225.5 7.7-338.3 7.5-56.4-.7-112.6-1-169.4-5.5l-10.8-1.2c-4.8-.8-10.5-1.3-14.6-4.1-1.5-.7-1.4-2.7-3.1-3.4-.4-1.5-.9-2.9-1.2-4.4l-.3-144.9c0-9.3 .6-18.3 1.7-25.4l.6-3.4zM142.9 100.6c73-1.8 145.9-.8 218.9 1.6 36.5 1.2 72.9 2.8 109.3 5.2 18.2 1.2 36.4 2.6 54.7 4.6l13.8 1.8 7 1.2c2.7 .6 3.9 .6 8.9 2.2 3.9 1.3 7.7 4.1 8 8.2 .6 1.7 .2 4.5 .3 6.3l0 3.4 0 13.6 .4 218.4 0 .1c0 2.3-.1 4.6-.2 6.9l.2 30.5c0 3.7-.6 7.3-1.7 10.1l-.5 1.4c-.7 1.9-2 2.5-3.1 1.6l-6.6-5.8c-1.7-1.5-2.8-4.9-2.8-8.8l-1-174.2-4.7 2.7c-2.9 1.7-9.9 2.8-17.6 2.9-721.8 3.1-386.1 1.7-503.6 2.2-5.6 0-11.1 .1-16.5 .1l-4.2 0c-1.4 0-3.1 .3-2.7-1.6l-2.1-23.4c-.3-3.6-.3-7.1 .1-9.7 0-.2 .1-.3 .2-.5l-.1-53.2 0-13.6c.1-2.9-.2-3.2 .1-8.2 .4-4.2 3.5-7.5 6.9-9.6 10.6-5.6 19.3-6.5 28.7-8.4 36.8-5.5 73.3-6.7 109.8-7.9zm43.4 281.8c.2 0 .4 .4 .6 1 .2 .6 .2 1.5 .2 2.3l-.3 8c-.1 2-.5 3.5-1.1 3.5l-33.6 .8c-.5 0-.9-.6-1.2-1.7l-.2-.5c-.2-.7-.3-2-.1-3.1l.8-6.6 0 0c.2-1.7 .7-2.8 1.2-2.8l33.8-.9zm-55.5-2.1c.2 0 .4 .4 .5 1s.2 1.5 .2 2.4l-.3 8c-.1 2-.5 3.5-1 3.5l-32 .9c-.5 0-.9-.6-1.2-1.7l-.1-.5c-.2-.7-.3-2-.1-3.1l.8-6.6c.2-1.7 .6-2.8 1.1-2.8l32.2-1zM75.1 380c.2 0 .3 .4 .5 1s.2 1.5 .2 2.3l0 8c0 2-.3 3.5-.7 3.5l-25.8 .5c-.4 0-.7-.6-.8-1.7l-.1-.5c-.1-.8-.1-2 .1-3.1l1.1-6.5c.3-1.7 .7-2.8 1.1-2.8l24.5-.7zm90.8-41.1l0 0c.8 0 1.6 .3 2.1 1s.8 1.5 .8 2.3l-.5 8c-.1 2-1.6 3.5-3.4 3.5l-116-1c-1.6 0-3.1-.7-4.3-1.8l-.6-.5c-.8-.8-1-2-.5-3.1l2.8-6.5c.7-1.7 2.3-2.7 3.9-2.7l115.7 .8zM548.2 182.9c-2.8 .6-6.4 1-10.4 1L25.9 186.1c-4.8 0-9.4-.3-13.6-.9l.1 27.5c0 .7-.1 1.3-.1 2 .1 .6 .2 1.1 .2 1.7l.5 4.9c-.1 .7 .4 .6 1 .5l14.7-.1c116.8-.5 333.9-1.4 500.7-2.1l-.1 0c7 0 13.6 .5 19.1 1.5l-.2-38.3zM354 116.7c-73.1-2.2-146.2-3.1-219.2-1-36.2 1.4-73.3 2.5-107.9 9.1-4.2 .9-8.4 2-11.8 3.4-4.3 2.3-2.4 .4-2.8 2.2l.1 27.5 0 16.4c2.9-1.7 9.5-2.8 16.8-2.8l514.6-2.2c1.6 0 3.1 .1 4.5 .2L548 133c0-1 .3-1.8 .5-2.7-.5-.1-1.5-.3-4-.8-8.5-1.6-17.6-2.6-26.6-3.5-18-1.8-36.2-3.1-54.4-4.3-36.4-2.3-73-3.9-109.5-5z"/></svg>