<svg xmlns="http://www.w3.org/2000/svg" viewBox="0 0 616 560"><!--! Font Awesome Pro 7.2.0 by @fontawesome - https://fontawesome.com License - https://fontawesome.com/license (Commercial License) Copyright 2026 Fonticons, Inc. --><path fill="currentColor" d="M523.6 268.9l0 0 7.2 3.7c1.8 .9 2.5 3.4 1.6 5.7-18.7 48-37 95.7-58.7 143.1-.4 .8-1.2 1.2-1.8 1.9 .5 .3 1 .6 1.4 .9 2.7 1.9 3.6 6.1 4.7 8.7 .5 2.1 1 4.3 1.3 6.3 .7 4.1 1.1 8.1 1.4 12.1 .5 8 .6 16-.1 24.1-.4 4.1-.8 8.2-2 12.7-.3 1.1-.5 2.2-1.1 3.5-.8 1.6-1.5 3.7-2.7 4.8-2.2 3.1-5.7 3.7-9 4.8-309.3 2.9-277.9 2.6-315.8 3l-3 0c-1.8-.1-3.9 .4-5.3-.8-3.4-1.2-5.9-3.9-8.2-6.8-2.7-5.3-3.7-8.9-4.7-13-1.9-8-2.8-15.9-3.1-23.9-.1-8.7 .6-17.3 3.7-25 .7-2.4 1.5-4.8 3.2-7.5 .8-1.9 3.3-3.3 4.9-4.9 2-1.2 4.6-1.4 6.8-2.2l.6 0 .9-4.4c.4-2 4.3-3.5 9-3.5l297.4-.6c3.4 0 6.4 .7 9.2 1.4 20.9-46.1 39.4-94.2 57.8-141.8 .4-1 1.1-1.8 1.9-2.2s1.7-.5 2.5-.1zM144.8 435.6c-.7 .9-1.4 3.3-1.8 5.5-1 4.5-1.2 9.8-1.2 15 .1 10.3 1.5 21.6 4.7 30.2 .4 .8 .7 1.5 .8 2.3 0 .3 0 .5-.1 .9l.7 0 5.6 0c37.2-.4 207.1-2 309.7-3 .2 0 .4-.1 .5-.3 .1-.2 .3-.8 .7-2.3l0 0c.8-3 1.2-6.7 1.6-10.3 .6-7.3 .5-14.9-.1-22.3-.6-8.6-1.9-13.3-2.3-15.2-.1-.2-.1-.4-.3-.5l-19.1 0c-47 0-141.1-.1-282.2-.2-2.8 0-5.4-.1-7.9-.3l-8.9 0c-.2 .2 0-.3-.4 .6zM53.3 174.3c11.6-4.2 24.5-4 36.4 .1 11.9 4.2 22.5 14.1 26.7 26.5 .3 1.2 0 2.2-.1 3.4 3.1 11.1 2.1 23.4-3.6 33.3-5.2 10.1-13.9 18.6-24.8 22.9-.4 .1-.7 .2-1.1 .3l57.6 138.1c.4 .9 .4 2 .1 2.9s-.9 1.6-1.8 1.9l-7.6 2.6c-1.9 .6-4-.6-5-2.8l0 0-58.1-139.6c-6 .3-12.1-.4-17.8-2-11-3-20.6-10.1-27.5-19.8-7.3-9.7-8.7-22.8-6.2-34 .7-3.1 2.2-5.8 4-7.8 .3-.7 .4-1.5 .8-2.2 5.7-11.4 16.3-19.8 27.9-23.7zM295.6 302c5-6 13.2-4.4 19 .5 3.6 2.7 6.4 5.2 9.4 7.8l17.3 15.3c.9 .8 1.4 2 2 3l4.5 4.6c1.5 1.5 6.3 5.5 7.3 10.2 1.2 4.6-2.6 10.1-4.8 12.6-2.4 2.8-4.1 4.5-6.2 6.6l-23.3 23.7-2.9 3c-1.2 1.3-3.5 3.7-5.8 4.6-4.7 2.2-10.5 1.6-14.5-1.8-9-7.9-17.7-15.6-26.1-23l-6.4-5.6 0 .1c-2.1-2-4.1-3.1-7-7.4-.9-1.4-2.1-4-1.5-7.7 .8-3.8 3.5-5.7 4.9-6.1 .1-.3 0-.5 .1-.8 1-3.1 5.1-7.6 6.3-9 4.3-4.7 13.7-14.9 27.9-30.4zm-91.9 38.1c5 1.3 7.3 5.6 8.2 7.9 .8 2.4 1.5 5.2 1 8.7-1 7.6-9 12.4-15.1 11.7-3.2-.1-6.8-1.2-9.8-4.1-3-3-4.1-7.2-4-10.5 0-.3 .5-.5 .7-.8 0-.9-.1-2 .1-2.8l.2-1.1 .6-1c2.2-3.6 3.8-4.7 6.2-6.6 .4-.3 1.1 .1 1.7 .4 2.3-1.5 5.3-2.4 10.3-1.9zm216.6 0c5 1.3 7.3 5.6 8.2 7.9 .8 2.4 1.5 5.2 1 8.7l0 0c-1 7.6-9 12.4-15.1 11.7-3.2-.1-6.8-1.2-9.8-4.1-3-3-4.1-7.2-4-10.5 0-.3 .5-.5 .7-.8 0-.9-.1-2 .1-2.8l.2-1.1 .6-1c2.2-3.6 3.8-4.7 6.2-6.6 .4-.3 1.1 .1 1.7 .4 2.3-1.5 5.3-2.4 10.3-1.9zM305.7 314.3c-.4-.4-1.2-.6-1.5 .1-12.5 13.7-21 23-25.6 27.9-1.8 2-1.1 1.3-.9 2l15.4 15c5.4 5.4 12.4 10 13 8.5 2.9-.8 9.4-7.8 14.4-13.3l13.2-14.4-3.4-3.5c-.4-.4-.5-1-.6-1.6l-15.9-14.1c-2.7-2.3-5.8-5-8-6.6zm-17-254.9c11.6-4.2 24.5-4 36.4 .1 11.9 4.2 22.5 14.1 26.7 26.5 .3 1.2 0 2.2-.1 3.4 3.1 11.1 2.1 23.4-3.6 33.3-3.3 6.4-8.1 12-13.9 16.5 1.8 1 3.7 2.6 5.2 5.1l67.5 110.8 8.4 13.9 4.1 6.7c.3 .4 .4 .7 .5 .6l9.1-4.5 14.1-7.5c18.7-10.3 36.5-22.1 53.7-34.8 .8-.5 1.5-.7 2.3-1-1.6-6.8-1.6-13.9-.1-20.4 .7-3.1 2.2-5.8 4-7.8 .3-.7 .5-1.5 .8-2.2 5.7-11.4 16.3-19.8 27.9-23.7 11.6-4.2 24.5-4 36.4 .1 11.9 4.2 22.5 14.1 26.7 26.5 .3 1.1 0 2.2-.1 3.4l-.1-.1c3.1 11.1 2.1 23.4-3.6 33.3-5.2 10.1-13.9 18.6-24.8 22.9-10.8 4.3-22.8 4.4-33.6 1.3-11-3-20.6-10.1-27.5-19.8-.1-.2-.2-.4-.3-.5-.6 .6-.9 1.2-1.6 1.7-17.6 12.9-36 24.8-55.3 35.3l-14.5 7.6-7.9 3.9-6.9 3.3c-2.2 .7-5.1 3.6-5.9 0-5-8.2-34-55.9-87-143.1-.9-1.6-1.2-3.1-1.8-4.7-.2 .1-.4 .3-.6 .3-10.8 4.3-22.8 4.4-33.6 1.3-2.2-.6-4.3-1.5-6.3-2.4-.3 .8-.3 1.6-.8 2.4-136.4 222.1-64.9 105.5-87.6 142.5l-1.9 3c-.9 0-2.1-.8-3.1-1.1l-11.3-4.9c-17.7-7.4-36-16.2-52.4-27-2.7-1.8-5-4-6.4-6.3l-.7-1.1c-.9-1.5-.7-2.9 .6-3.3l7.8-2.7c2-.7 5.1 0 7.8 1.8 15.9 10.4 32.8 18.3 50.7 25.8 1.1 .7 1.3 .4 1.6-.5 3.8-6.2 11.4-18.5 22.8-37.1L271.2 137c0-.1 .1-.1 .2-.2-3.4-2.9-6.5-6-9.1-9.7-7.3-9.7-8.7-22.8-6.2-34.1 .7-3.1 2.2-5.7 4-7.8 .3-.7 .5-1.5 .8-2.2 5.7-11.4 16.3-19.8 27.9-23.7zM86.5 189.9c-14.4-6.7-34.2-2.4-43.8 9.6-.4 .5-.9 .8-1.4 1.1-6 8.7-7.6 20.1-3 29.3 .2 .6 .3 1.3-.1 2l0 0c4.5 7.8 12.5 13.8 21.8 16.1 16.4 4.6 33.9-3.4 40.4-18.7 7.2-14.7 .8-33.4-13.9-39.3zm478.4 0c-14.4-6.7-34.2-2.4-43.8 9.6-.4 .5-.9 .8-1.4 1.1-6 8.7-7.6 20.1-3 29.3 .2 .6 .3 1.3-.1 2l-.1 0c4.5 7.8 12.5 13.8 21.8 16 16.4 4.6 33.9-3.4 40.4-18.7 7.2-14.7 .8-33.4-13.9-39.4zM321.9 75c-14.4-6.7-34.2-2.4-43.8 9.6-.4 .5-.9 .8-1.4 1.1-6 8.7-7.6 20.1-3 29.2 .2 .6 .2 1.3-.1 2l-.1 .1c4.5 7.8 12.5 13.8 21.8 16 16.4 4.6 33.9-3.4 40.4-18.7 7.2-14.7 .8-33.4-13.9-39.3z"/></svg>