<svg xmlns="http://www.w3.org/2000/svg" viewBox="0 0 392 560"><!--! Font Awesome Pro 7.2.0 by @fontawesome - https://fontawesome.com License - https://fontawesome.com/license (Commercial License) Copyright 2026 Fonticons, Inc. --><path fill="currentColor" d="M136.9-5.1c56.2-4.8 112.8-.2 167.6 12.3 9 2.2 17.6 4.9 24.1 8l3.2 1.5c4.3 2 5.5 3.7 3 4.1l-15.5 2.4c-4 .8-12.4-.4-21.7-2.4-53.7-11.8-109.4-15.9-164-10.7-27.1 2.8-54.8 7.2-79.4 17.1-12.2 5.1-24 11.6-32.6 20.6-9 8.7-13.2 20.2-9.8 30.5 3.5 10.5 13.7 19.2 24.8 25.7 11.3 6.6 23.9 11.3 36.8 15.1 26.1 7.3 53.4 11.2 80.8 13.1 27.4 2 55.1 2.1 82.7 1.1 23.8-1.1 48.1-1.4 71-4.5 23.1-4 45.7-11.3 61-26.6 9.1-9.5 12.3-22.2 8.5-33.9-3.7-11.8-14.1-21.6-25.7-28.2-2-1-3.6-2.6-4.7-4.4l-.5-.9c-.7-1.2-.6-2.6 .4-3.3l6.3-4.1c1.7-1 4.4-.8 6.9 .5 13.7 8.1 27 20.2 31.8 37.4 1.9 5.9 1.9 12.1 1.1 18.3 1.5 .7 2.5 2 2.5 3.4l0 68.1c.1 1.8 .1 3.6 .1 5.5 .7 322.4 .6 291 .7 330.3l.1 .1c-.3 4.4 .7 6.6-.7 13.4-.9 4.7-2.9 9-5.1 13-4.6 8-11.1 14.3-18 19.4-28.5 19.8-62.1 24.2-93.6 26.4-31.6 2.2-63.3 3.1-95 2.5-31.7-1-63.6-3.7-95.1-10.4-15.7-3.6-31.4-7.7-46.5-14.7-14.9-6.9-30.2-15.5-40.5-31.3-3.1-5.1-5.3-11.1-5-15.5 0-4.4 .6-6.4 1.5-5.9 2.9 1.4 5.8 2.6 8.6 3.3 1.9 .8 4.9 8.3 11.9 15.9 19.7 20.3 51.3 29.1 80.8 35 30.2 5.8 61.2 8 92.1 8.6 31 .8 62.1-.9 93.1-2.9 29.9-2.5 61.8-8.5 83.5-26.7 5.2-4.6 9.4-10 11.7-15.9 .6-1.5 1.1-3 1.4-4.5 .2-.9 .2-1.2 .2-1.3l0-14.7c-.1-31-.1-62.9-.2-95.8-10.1 10.6-23.2 17.3-36 22.3-16.8 6.1-34.1 9.3-51.4 11.1-34.4 2.8-68.4 4.7-102.8 3.9-34.3-.7-68.8-3.2-102.9-10.4-16.9-4-34-8.4-50.2-16.4-9.3-4.7-18.8-10.5-26.9-18.4l.2 60.6c0 4.9-.6 9.7-1.7 13.4L9.1 457c-.7 2.5-2 3.4-3.1 2.1l-6.6-7.7c-1.7-2-2.8-6.6-2.8-11.8L-5 80c0-2.4 .3-4.8 1-6.5 .1-.3 .3-.4 .4-.6-1-16.3 8.4-30.7 18.9-39.6 11.5-10 24.8-16.7 38.3-21.8 27.4-9.9 55.3-13.9 83.3-16.6zM266.3 483.1c15.3-10.1 27 8.4 19.9 19.3-4.8 7.3-14.4 6.8-19.1 3.2-5.8-3.2-7.9-12.5-5.5-17.6 .3-.8 1.2-1.4 2.5-1.4l.6 0c.8 0 2 .5 2.8 1.2 .8 .6 1.6 1.1 2.4 1.6 0-.1 0-.2 .1-.3 0 0 .1-.1 .1-.1-1-.6-2-1.1-2.8-1.6-1.7-1-2.5-3-1.1-4.2zm67.2-6.4c15.3-10.1 27 8.3 19.9 19.3-4.8 7.3-14.4 6.8-19.1 3.2-5.8-3.2-7.9-12.5-5.5-17.6 .3-.8 1.2-1.4 2.5-1.5l.6 0c.8 0 2 .5 2.8 1.2 .8 .6 1.6 1.1 2.4 1.6 0-.1 0-.2 .1-.3 0 0 .1 0 .1-.1-1-.6-2-1.1-2.8-1.6-1.7-1-2.5-3-1.1-4.2zM10.9 356.1c.6 1.2 1.2 2.2 1.9 3.5 6.6 12.6 20.9 21.6 35.4 28.2 14.7 6.7 30.8 11 47 14.3 32.5 6.6 66.1 8.9 99.6 9.4 33.4 .6 67.4-1.2 100.4-4.1 16.3-1.9 32.5-5 47.3-10.9 14.6-5.7 28.6-14.5 35.2-26.7l0 0c1.6-2.6 2.6-5.2 3.7-7.6l0-18.3-.2-93.4c-10.1 10.4-23.1 17-35.8 21.9-16.7 6.1-34.1 9.3-51.4 11.1-34.4 2.8-68.4 4.7-102.8 3.9-34.3-.7-68.8-3.2-102.9-10.4-16.9-4-34-8.4-50.2-16.4-9.5-4.8-19.3-10.8-27.5-19l.5 114.3zM266.3 339c15.3-10.1 27 8.4 19.9 19.3-4.8 7.3-14.4 6.8-19.1 3.2-5.8-3.2-7.9-12.5-5.5-17.6 .3-.8 1.2-1.4 2.5-1.4l.6 0c.8 0 2 .5 2.8 1.2 .8 .6 1.6 1.1 2.4 1.6 0-.1 0-.2 .1-.3 0 0 .1-.1 .1-.1-1-.6-2-1.1-2.8-1.6-1.7-1-2.5-3-1.1-4.3zm67.2-6.4c15.3-10.1 27 8.4 19.9 19.3-4.8 7.3-14.4 6.8-19.1 3.1-5.8-3.2-7.9-12.5-5.5-17.6 .3-.8 1.2-1.4 2.5-1.5l.6 0c.8 0 2 .5 2.8 1.2 .8 .6 1.6 1.1 2.4 1.6 0-.1 0-.2 .1-.3 0 0 .1 0 .1-.1-1-.6-2-1.1-2.8-1.6-1.7-1-2.5-3-1.1-4.2zM10.4 216.3c.8 1.4 1.5 2.9 2.4 4.6 6.6 12.6 20.9 21.6 35.4 28.2 14.7 6.7 30.8 11 47 14.3 32.5 6.6 66.1 8.9 99.6 9.4 33.4 .6 67.4-1.2 100.4-4.1 16.3-1.9 32.5-5 47.3-10.9 14.6-5.7 28.6-14.5 35.2-26.7 1.4-2.4 2.4-4.7 3.4-7l0-26.9c-.1-.3-.4-.5-.4-.8l.1-85.8c-.8 .9-1.5 2.1-2.3 2.9-12 12.1-27.1 19-42.1 23.8-3.1 1.1-6.3 1.6-9.4 2.4-3.4 1.4-7.8 2.8-12.7 3.5-1.7 .2-3.3 .3-5 .5-6.3 1-12.6 2-18.8 2.7-1.1 .1-2.1-.1-3-.5-19.1 1.4-37.9 1.8-56.9 2.5-27.9 .7-55.9 .4-83.8-1.9-27.9-2.4-55.9-6.4-83.2-15-13.6-4.2-27.1-9.8-39.6-17.9-4.8-3.3-9.5-7.3-13.8-11.7l.5 114.5zm255.9-21.4c15.3-10.1 27 8.3 19.9 19.3-4.8 7.3-14.4 6.8-19.1 3.2-5.8-3.2-7.9-12.5-5.5-17.6 .3-.8 1.2-1.4 2.5-1.5l.6 0c.8 0 2 .5 2.8 1.2 .8 .6 1.6 1.1 2.4 1.6 0-.1 .1-.2 .1-.3 0 0 .1 0 .1-.1-1-.6-2-1.1-2.8-1.6-1.7-1-2.5-3-1.1-4.2zm67.2-6.4c15.3-10.1 27 8.4 19.9 19.3-4.8 7.3-14.4 6.8-19.1 3.2l0 0c-5.8-3.2-7.9-12.5-5.5-17.6 .3-.8 1.2-1.4 2.5-1.4l.6 0c.8 0 2 .5 2.8 1.2 .8 .6 1.6 1.1 2.4 1.6 0-.1 0-.2 .1-.3 0 0 .1-.1 .1-.1-1-.5-2-1.1-2.8-1.6-1.7-1-2.5-3-1.1-4.3z"/></svg>