<svg xmlns="http://www.w3.org/2000/svg" viewBox="0 0 616 560"><!--! Font Awesome Pro 7.2.0 by @fontawesome - https://fontawesome.com License - https://fontawesome.com/license (Commercial License) Copyright 2026 Fonticons, Inc. --><path fill="currentColor" d="M582.7 103.2c.7-5.6 2-7.5 3.1-4.7l6.6 17c1.7 4.4 2.8 14.6 2.8 26.1l-.1-.1 .7 284.2c-1.1 1.7-.2 4.8-3 5.3-1 1.7-3 3-5.5 3.3-5.7 1.1-7.9 .9-10.7 1.3l-16.4 .9-32.6 1-64.9 1-92.8 .2 .1 19.5c.1 7.9-.4 15.6-1.5 21.8l-.5 3c-.7 4.1-1.9 5.7-3 3.7l-8.4-6.6c-1.7-3.1-1.2-16-1.3-24.5l0-2.5-91.6-1.1c-.5 0-1-.5-1.5-.8l.8 46.5c53.8-.9 107.4 1.7 160.6 2.5 1.5 0 3 .4 4 1s1.5 1.5 1.4 2.3l-1.3 8c-.3 2-3.3 3.5-6.8 3.4-74.5-1.2-148.7-6.1-221.9 .6-3 .3-6 0-8.4-1l-1.2-.4c-1.6-.6-2.3-1.8-1.6-2.9l4.1-7c1.1-1.8 3.9-3.2 7.1-3.5 16.4-1.5 32.9-2.2 49.3-2.7l-.9-60c-57.9-.5-115.9-1.5-174.2-4.4-5.5-.4-10.8-1.1-14.7-2.3-2.1-.6-3.3-1.1-5.2-2.2l-1.3-.9c-1.4-1-2.3-2.7-2.5-3.6-.3-1.9 0-2 .4-1 .5 1.6 2.6 3.3 3.5 3.2l1.2-.6c.7-.5 1.4-1 1.8-1.6 1.1-1.2 1.9-2.3 2.8-3.6 1.2-1.7 11.3-2.2 23.8-1.6 84.6 3.7 169.7 4.1 254.6 4.6l127.4-.2 63.7-.9 31.7-1c9.8-.4 24.8-1.3 20.8-1.6l-.7-282.9c0-10.9 .6-21.5 1.7-29.9l.5-4.1zM262.1 438.9c.1-.3 .3-.5 .5-.7l-.5 0 0 .7zM447.7 44.3c43.8 1.1 86.7 .5 131.6 7.4 3.8 .8 7.5 2.1 10.8 4.5 1.8 1.5 3.2 2.7 4.1 5.9 .4 2.4-.2 3.1-.6 2.6-3.5-3.4-6.5-1.2-8.4 .7-.8 1.5-6.3 1-14.3-.1-41.8-5.3-85.5-5.4-128.5-6.2-43.1-.5-86.3-.2-129.5 .4L183.3 62.4c-40.5 1.3-81.2 1.7-121.2 4.3L35.5 68.8c-.3 .3-.2-.2-.2 1.3 0 1.6 .1 3.5 .2 5.2 0 .5 .1 1 .1 1.6l1.2 84.4c.4 28.4-2.1 56.7-2.1 84.4-.1 28.6 .5 57.4 1.1 86.1 .5 0 .9-.2 1.4-.2L317.1 333c2.6 0 4.9 .7 7.2 1.2l204.7-4c3 0 6 .5 8.3 1.6l1.2 .5c1.6 .7 2.1 2 1.3 3.1l-4.6 6.7c-1.2 1.7-4 2.8-7.1 2.9l-220.1 4.5c-1.5 0-2.9-.3-4-.9-.4-.2-.3-.6-.5-.8l.1-.1-267.4-1.2c.4 22.7 .7 45.4 .2 68.2-.1 4.7-.9 9.2-2.2 12.7l-.6 1.7c-.9 2.4-2.1 3.1-3.2 1.9l-6.3-7.5c-1.6-1.9-2.5-6.3-2.4-11.1 .9-56.2-1.9-112.8-1.6-169.6 .1-28.7 2.6-56.7 2-84.7l-1.3-84.8 0-.1c0-1.4-.2-2.7-.1-4.1-.2-6 2.8-14.7 10.3-14.7l22.2-1.8c.9-.1 1.8-.3 2.8-.4 1.2-.1 2.4-.1 3.6-.2l12.2-1c.2 0 .3 .3 .5 .4 38.3-2.1 76.4-2.7 114.4-3.9l130.5-2.9c43.5-.6 87.1-.8 130.6-.3zm10.6 93.1c1.1-.1 2 .2 2.5 1l4.2 6.9c1.1 1.7 .1 4.5-2.3 6.5-49.3 42.5-92.1 92.3-141 137.6-2 1.9-4.6 3.2-6.9 3.7l-1.1 .2c-1.6 .3-2.7-.3-2.8-1.6l-1-7.8c-.3-2 .9-4.4 3-6.3 47.9-44.5 91.2-95 142.1-138.7 1-.9 2.3-1.4 3.4-1.6zM245.9 147.5l0 0c.7 .2 1.4 .8 1.9 1.4l4.7 6.6c1.2 1.6 1.2 3.6 .1 4.5l-70.8 59.3c-1 .8-2.3 1.1-3.8 .9l-.7-.1c-1-.2-1.9-1-2.4-2.1l-2.6-6.4c-.7-1.6-.5-3.3 .6-4.1l71.1-59.7c.5-.4 1.2-.5 1.9-.3z"/></svg>