<svg xmlns="http://www.w3.org/2000/svg" viewBox="0 0 392 560"><!--! Font Awesome Pro 7.2.0 by @fontawesome - https://fontawesome.com License - https://fontawesome.com/license (Commercial License) Copyright 2026 Fonticons, Inc. --><path fill="currentColor" d="M191.2-6.1c.7-2.2 1.4-2.4 1.9 .2l0 .2 8.5 3.3c2.9 .8 9.4 16.9 18.6 35.9 23 50.4 52.4 98.1 81.1 146.2 28.4 48.3 58.3 96.4 77.2 150.6 8.9 26.9 16.5 55.9 11.7 85.8-5.2 30-19.8 55.4-37.8 78.3-36.6 45.7-94 72.1-151.8 74.6-57.4 3.1-118.2-16.2-158-60.3-19.8-21.7-33.5-49-39.2-77.8-5.8-28.8-4.2-58.5 1.9-86.6 12.1-56.2 39.4-108.5 73.9-153.2 33.2-45.2 70.1-88.1 93.1-137.5 7.7-16.2 12.6-32.5 16-45.5l1-6.5c.5-3.2 1-5.3 1.5-6.9 0-.4 .1-.7 .2-.8zm4.6 29.6c0 7.7-4.4 25.4-13.3 43.3-26.1 51.6-63.5 94.7-96.3 140-16.4 22.8-31.9 45.5-42.7 71.1-11.6 25.1-21 51.4-25.3 78.5-4.6 26.9-4.6 54.7 2.2 80.8 6.8 26.1 20.6 50.1 39.9 68.9 39.3 37.1 96.5 53.3 150.4 47.4 54.1-5.5 106.1-33.2 137.4-77.7 15.5-22.2 27.8-47.4 28.2-73.6 .8-26.5-6.1-53.4-16.1-79.1-42.4-102.7-114.5-192.3-159.9-297.2-1.8-4.6-3.5-9.1-4.9-13.3l.2 10.9zM317.6 332.4c2 0 3.8 2.1 4 5 2.9 29.2 1.5 60.3-11.3 88.5-12.4 28.5-38.1 50-66.1 61.1-2.3 .9-4.8 1.3-6.9 .9l-1-.2c-1.4-.3-2.2-1.3-2-2.5l1.2-7.6c.3-1.9 1.9-3.7 4.1-4.6 25.6-10.5 47.3-29.6 57.9-54.7 11-24.9 12.4-53.6 9.2-81.4-.1-1.1 .1-2.3 .7-3.1s1.4-1.3 2.2-1.4l8.1 0z"/></svg>