<svg xmlns="http://www.w3.org/2000/svg" viewBox="0 0 616 560"><!--! Font Awesome Pro 7.2.0 by @fontawesome - https://fontawesome.com License - https://fontawesome.com/license (Commercial License) Copyright 2026 Fonticons, Inc. --><path fill="currentColor" d="M303 76.6c72.7-.2 145.3 .2 218.1 3.3 18.2 .9 36.4 1.8 54.9 4l7 1 3.6 .7c1.8 .5 4.1 1.1 5.9 1.8 3.9 1.4 5.7 5.2 6.3 8.9l0 8.8 0 27.3c.1 54.1 .2 163.7 .3 328.8-.5 3.8-2.7 7.4-6.6 9-1.8 .8-4 1.4-5.6 1.9l-3.6 .8c-4.7 .9-9.2 1.6-13.7 2.1-9 1.1-17.9 1.9-26.9 2.6-17.8 1.3-35.6 2.2-53.4 3-35.5 1.5-71 2.4-106.6 2.9-71 1.1-142.1 1-213.1-.5-35.5-.9-71-1.9-106.8-4.7-8.9-.8-17.8-1.6-27.1-3.2-2.5-.5-4.2-.7-7.7-1.8-4-1.1-8.2-2.9-9.5-6.9-2.3-2.6-1.2-9.3-1.5-10.3l0-6.6c0-8.9-.1-97.6-.2-266.1 0-16.8 .3-33.2 .9-47.9l-.2-38.4c1-9 14.3-11.3 17.5-11.6 5.1-.9 10.1-1.5 15.1-2 9.9-1.1 19.8-1.8 29.6-2.5 19.7-1.3 39.3-2.2 59-3 3.6-.1 7 .4 9.8 1.4l.4 .1c51.4-1.7 102.7-2.6 154-2.9zm47.1 224.3c-10.7 9.4-19.8 19.2-33.7 27.9-3.7 2.1-9.6 4.1-15.8 2.2-6-2.6-7.9-4.7-10.9-6.8-5.7-4.2-11.4-8.5-16.9-12.8-10.7-8.3-21.1-16.7-31.4-25.2L45.2 460.2c-.5 .5-1 .8-1.6 1.2 .3 0 .6 .1 .9 .1 8.4 1.1 17.1 1.9 25.8 2.5 34.7 2.5 69.7 3.5 104.7 4.3 70 1.4 140.1 1.4 210.1 .4 35-.6 70-1.4 105-2.9 17.5-.7 34.9-1.7 52.3-3 8.7-.6 17.3-1.4 25.8-2.5l0-.1c4.1-.5 8.2-1.1 12.1-1.9-1.4-.7-2.8-1.7-4.2-3-66-59.9-136.8-115.6-206.3-172.3l-19.6 17.8zM33.4 243.7c0 1.7-.3 3.4-1 4.6-.2 .3-.4 .2-.6 .4l0 0c.2 274.6 .2 191.3 .2 210.1 0 .1 .1 .1 .1 .1l.1-3.2c0-2.3 2-5.4 4.9-8L229.8 276.6 175.5 231c-35.7-30.2-71.2-60.6-107.4-90-11.5-9.3-23-18.8-34.7-27.8-.4-.3-.6-.6-1-.8l.8 131.4zM582.6 110.4c-1.8 1.6-3.9 3.3-6.1 4.9-9 6.6-17.8 13.5-26.7 20.2-14.3 10.7-28.4 21.6-42.5 32.4-21.2 16.5-42.2 33.3-62.8 50.3-21.4 17.9-42.7 35.9-63.4 54.5l0 0-.2 .2c68.4 55.9 137.6 110.4 203.5 170.2-.1-153.7-.2-259.7-.3-318l0-16.2c-.5 .5-.9 .9-1.4 1.3zM288.7 91.6c-74.1 .7-148.4 1.5-221.9 6.4-8.4 .6-16.9 1.3-27.2 2.1 1.4 .7 2.8 1.4 4.3 2.5 1.8 1.3 3.4 2.8 5.2 4.1 3 1.8 6.3 3.8 9.6 6.3 44 32.9 87.1 66.7 130.5 100.3l65.1 50.2 32.8 24.6 16.5 12.1c2.3 1.3 3 1.8 4.6 1.5 1.5 0 4.2-1.3 6.7-2.6 21.4-13.6 42.6-32.8 63.9-49.5l64.3-51.4c19.4-15.2 39.2-29.8 58.8-44.7 19.4-15.1 39-29.9 58.7-44.6 4.6-3.4 8.9-6.9 13.5-10.3-2.7-.4-5.5-.7-7.9-.9-18.2-1.7-36.7-2.6-55.1-3.4l0 0c-73.9-2.8-148.1-3.1-222.2-2.8z"/></svg>