<svg xmlns="http://www.w3.org/2000/svg" viewBox="0 0 616 560"><!--! Font Awesome Pro 7.2.0 by @fontawesome - https://fontawesome.com License - https://fontawesome.com/license (Commercial License) Copyright 2026 Fonticons, Inc. --><path fill="currentColor" d="M575.6 348.4c1.7 .3 9.3-1 13.8 2.1 4.3 3.1 5.6 11.6 6 13.7 .6 3.4 1 6.6 1.3 9.8 1.1 12.8 1.2 25.3 .7 37.9-.2 4.6-.8 9.1-1.6 13.3-.3 3.5-.8 7.1-2.1 12.1-1.3 5.2-4.7 10-10.1 10l-10.8 0c-5.7 0-62.5 0-170.4 0l-272.5-.1c-6 0-11.7-.2-17.4-.4l-44.4 .3c-3.6 0-7.1-.6-9.8-1.7L57 445c-1.8-.7-2.5-2-1.6-3.1l5.5-6.6c1.4-1.7 4.8-2.8 8.6-2.8l261.9-1.7c1.8 0 3.5 .3 4.7 1 .4 .2 .3 .6 .6 .8 30.1 0 111 0 242.4 0 .2 0 .4 0 .5-.1 .3-.7 0 .5 .7-2.8 .9-5 1.3-10.5 1.6-16 .6-10.9 .5-22.1-.1-33-.3-5.4-.8-11-1.8-15.8-.3-1.2-.1-.9-.5-1.2l-4.6 0-454.2 .4-76.2 .2c-.8 0-1.5-.1-2.3-.1l-6 0 0-.5c-.1 1.2-.8 12.9-.8 21.1l.2 31.9c.1 7.8-.1 15.2-.6 20.5s-1.3 8-2.1 7.3l-8.2-5.8c-2-1.4-4-16.4-4.1-34.6l.1-26 .5-13.2c.1-1.5 .5-6.9 1.6-9.9 .5-1.8 1.6-3 3.2-3.7 .8-1.5 3-1.2 4.4-2 45.1 0 150.2-.2 315.1-.5 110.5-.2 184.2-.4 221-.5l9.2 0zm0-240.2c1.7 .3 9.3-1 13.8 2.1 4.3 3.1 5.6 11.6 6 13.7 .6 3.4 1 6.6 1.3 9.8 1.1 12.8 1.2 25.3 .7 37.9-.2 5-.9 9.8-1.9 14.4-.2 1.7-.2 3.4-.5 5.2-.4 2.1-1.4 8.9-4.8 12.8-1.6 2.3-4.3 2.6-6.8 3.1-60.6 0-294.7-.1-340.3-.1-257.6 5.1-167.7 3.3-206.4 4.1l-8.9 .2c-2.5-.6-7.9 1.9-6.6-2.6l0 0-.4-15.6-.5-40.5 .3-20.4c.1-3.7 .2-6.1 .7-11.2 .2-6.4 3.1-11.7 8.9-12.1 300.9-.2 360.8-.6 462.5-.7l73.7-.2 9.2 0zM248.4 123.8l-204.1 .4c-2.3 0-4.4-.1-6.4-.3l-1.9 0c-.2-.1-.2 .3-.2 .3l-.5 9.2-.3 20.4 .6 41.1c.1 2.8 0 1 .1 1.7l3.1-.1c13.7-.3 27.6-.5 41.6-.8 2.3-1.9 20.7-3.4 43-3.4l126.2 .1 16.5-.3c16.4-.3 32.2-.2 45.7 .4 48.6 0 122.9 .1 222.9 .1l44.7 0c.1 0 0 0 .3-.2-.1 .7 .3-1.1 .7-3.6l1-8c.9-10.9 1.1-22.2 .7-33.3-.2-5.6-.6-11.1-1.2-16.5-.2-2.2-.9-6.1-1.1-6.6-.1-.3-.2-.7-.6-.6l-330.7 .2z"/></svg>