<svg xmlns="http://www.w3.org/2000/svg" viewBox="0 0 560 560"><!--! Font Awesome Pro 7.2.0 by @fontawesome - https://fontawesome.com License - https://fontawesome.com/license (Commercial License) Copyright 2026 Fonticons, Inc. --><path fill="currentColor" d="M375.1 318.2c4.2-3.7 10.2-4.4 15.3-1.5 4.6 2.4 6.3 4.1 9.1 6.2 4.8 4.1 9.2 8.2 13.5 12.3l25.3 25.1 50.1 50.3c1.6 1.6 2.8 3.3 3.4 4.8 .2 .6-.1 .7-.1 1.2 .7 .5 1.1 .7 1 .4 .4 .1 .9-.1 1.2-.4l4.3-4.4 9.4-10c6.6-6.9 11.7-13.4 20.5-20.8 5.2-4.7 15-8.2 19.8-1.4 2.4 2.4 3.5 7.5 4 10.3 .7 3.8 .7 5.1 1.1 7.8l0 0c1.1 9.4 1.8 18.7 2.3 28.1 1 18.7 .9 37.3 .3 55.9l-1.4 27.9-2.4 29.8c-.6 4.1-3.9 7.2-8.1 8.4-4.8 1.7-6.1 1.5-8.9 2.1-4.8 .8-9.5 1.3-14.2 1.8-9.4 .9-18.7 1.5-28 1.9-18.6 .9-37.2 1.2-55.8 1.1l-28-.6-14.2-.8c-6.6-.2-17.6-2.9-17.6-11.9-.3-8.3 5.8-15.8 8.1-18.9 3.2-3.9 6.5-7.4 9.8-10.8 6.7-6.8 13.5-13.1 20.2-19.4 2.1-2 4.5-3.7 6.3-4.6 1.8-.9 3.2-1 3.6-.2l4 7.3c1 1.8-2.2 7-7.3 11.8-6.7 6.3-13.3 12.5-19.4 19-3.1 3.2-5.8 6.5-8.2 9.7-1.3 2.1-1.4 2.2-.9 2.9-1 .3 12.5 1 20.5 1.3l27.3 .5c18.2 0 36.5-.4 54.7-1.3 9.1-.5 18.2-1.1 27.1-2 4.4-.5 8.9-1.1 12.9-1.9 2.5-1 1.2 .8 1.8-2.3 3.2-36.3 4.7-72.8 2.8-109-.5-9-1.2-18.1-2.4-26.9-.7-5.1-.5-3.6-.7-3.9-.6 .4 1-.9-2.2 1.8-6.1 5.7-12.3 12.7-18.5 19.4l-9.6 10.1-2.5 2.5c-1.5 1.6-3.3 3.1-5.3 4-4.1 1.9-8.9 1.8-12.9-.2-6.1-3.9-6.5-6-8.6-8.1-1.5-1.8-2.8-3.7-3.9-5.4l-47.4-47.6-24.5-24.2c-4.1-4-8.2-7.8-12.4-11.2-1.8-1.5-4.7-3.6-5.2-3.7-.3-.2-.6-.2-.8 .1-9.7 9.3-21.9 21.4-31.8 32.5-5 5.7-10.1 11.6-14.1 17.6-1.8 2.4-4 7.1-3.6 6.5 0 .2-.5-.4 3.4 3.3 23 21.6 45.7 43.6 67.3 67 3 3.4 5.6 7 7 10.4l.7 1.6c1 2.3 .5 3.6-1 3.5l-9.6-1c-2.4-.2-6-2.6-9.2-6-21-22.6-43.3-44.2-66-65.4-1.2-1.3-2.9-2.3-5.5-5.5-.3-1.7-1.3-3.1-2-4.7-.1-1.7 .1-3.5 .1-5.2 1.8-7.2 4.1-9.4 6.5-13.4 4.7-7 9.9-12.9 15.2-18.9 10.9-12.2 20.9-22.2 33.9-34.6zm-194-1.9c3.1 1.4 6.3 4.5 7.2 5.5l8.9 8.6c5.8 5.8 11.6 11.6 17.2 17.6s11.1 12.2 16.3 18.9c2.6 3.4 5.1 6.8 7.4 10.9l0 .1 1.7 3.3c.7 1.5 1.3 3.5 1.6 5.3 .7 3.7-.7 7.2-3.1 9.9-19 18.4-34.9 34.4-52.1 52.1-8.4 8.7-16.7 17.4-24.7 26.4-4 4.5-7.9 9-11.5 13.5-1.6 1.9-4 5.3-4.4 5.9-.2 .3-.4 .7 0 .9l18.9 17.7c3.4 3.4 6.8 6.8 10.1 10.7 1.6 1.8 3.4 4.2 5.1 6.9 2.1 3.8 3.8 7.8 3.4 11.6-.3 8.8-11 11.1-17.5 11.3l-14.3 .8-28.3 .7c-18.9 .2-37.7-.1-56.6-.9-9.5-.4-18.9-1-28.4-1.9-4.8-.5-9.6-1-14.6-1.9-1.8-.3-6.6-1.1-10.4-3.4-3.6-2.4-4.9-6.6-4.9-11.2-3.6-37.6-5.4-75.4-3.5-113.4 .5-9.5 1.3-19 2.5-28.6 .5-5.1 2.6-17.4 11.2-18.5 3.9-.6 8 .4 11.8 3.1 3.7 2.1 5.8 4.3 7.6 6 7.3 6.9 13.4 13.9 19.8 20.6l9.6 10c1.1 1.1 .3 .3 .6 .5 3.4-3.4 7.5-7.1 10.5-9.1 3-2.1 4.9-2.8 5.2-1.9l.2 .6c2.5-4.5 8.1-11.4 15.1-18.5l34.1-34.8 17.4-17.3c6.4-5.8 10.9-11.2 20.7-16.9 3.3-1.5 7-2.3 10.4-1.1zm-5.4 15.2c-11.4 8.3-23.5 21.5-34.9 32.8l-34.9 35.5c-7.6 7.7-15.4 14.7-22 19.8l-3.1 2.4c-1 1.2-1.9 2.4-3.2 3.9-3 3.8-8.7 6.1-14 4.4-4-.9-7.3-5.1-8.4-6.1l-4.9-5-9.5-10.1-9.4-9.8c-2.9-3-7-6.7-7.8-7.2-1.8-.9-1.6-1.1-2.9 10.6-.9 8.9-1.5 18-1.9 27-.7 18.1-.6 36.3 .2 54.5l1.6 27.3 2 23.5c.2 .3 .4 .3 .9 .4 1.9 .4 4 .8 6.2 1.1 4.3 .6 8.8 1.1 13.2 1.5 9 .8 18.1 1.3 27.2 1.6 18.2 .7 36.5 .9 54.7 .7l27.3-.8 12.7-.8c2.3-.2 1.6-.2 1.8-.7-.2-.4 .2 .1-.7-1-.7-1.1-2-2.6-3.4-4.3-2.8-3.2-5.9-6.4-9.1-9.5l-21.8-20.3c-3.7-3.9-3.3-10 .1-14.7 2.9-4.6 4.1-6 6.3-8.8 4-4.9 8-9.6 12.1-14.2 8.2-9.1 16.6-18 25.1-26.8 16.6-17.1 35.1-35.6 50.7-50.8l0 0 .1-.2-1.2-2.4c-1.7-3-4-6.2-6.4-9.3-4.9-6.2-10.3-12.3-15.9-18.2-5.6-6-11.3-11.8-17.2-17.5l-8.9-8.5c-.7-.2 .4-.6-1.1 .3zM106 5.2c15.7-.1 31.3 0 47.1 .6l11.9 .7c2.3 .3 5.4 .3 8.4 1.2l4.9 1.7c1.2 1.1 2.6 2 3.6 3.3 4.1 5.5 .9 13.6-2.4 18.6-3 4.4-5.6 7-8.4 10.2-5.6 5.9-11.4 11.3-17.1 16.6l-7.8 7.2c-.2 .2-.2 .2 .1 .6 7.9 11.4 19.2 22.9 29.8 33.9 21.6 22.1 44.1 43.5 66.7 64.7 2.9 2.7 5.5 5.5 7 7.8 1.5 2.3 1.9 3.8 1.1 4.2l-7.8 3.8c-1.9 .9-8.6-3.2-15.3-9.5-22.3-21-44.4-42.2-65.8-64.3-5.3-5.5-10.6-11.2-15.8-17l-7.6-9.1c-2.3-3.4-5-5.5-7.9-13-1.2-3.1-.5-6.7 2.1-9l3.2-3.9 2.2-2 8.4-7.8c5.5-5.2 11-10.3 15.8-15.7 2.2-2.3 5-6 5.1-6.3 .2-.3 .3-1-.2-1.1 .5-.1-10.5-.8-17.2-1-15.1-.6-30.3-.7-45.5-.5S74.1 20.6 59 21.5c-7.5 .4-15.1 1-22.4 1.8-3.7 .4-7.3 .9-10.7 1.6l-2.4 .5c-.1 0-.2 .1-.2 .3l-2 24.8-1.4 26.8c-.6 17.9-.6 35.8 .1 53.6 .4 8.9 1 17.8 1.9 26.6l1.2 9.4 .2 .1c.3-.2 4.2-3.6 6.8-6.4l9.1-9.7 9.3-10 4.8-5 2.4-2.5c1.2-1.3 3.1-3.1 5-4 5.8-3 13.1-1.5 17.1 3 3.4 3.8 5.3 6.3 7.2 9l47.4 47.4 25.4 25c4.2 4.1 8.6 8 12.8 11.6 1.9 1.6 4.8 3.6 5.5 4 .1 .1 .3 0 .4-.1 10.9-10.5 24.4-24 35.1-36.7 1.7-2 3.8-3.5 5.9-4.4l1-.4c1.4-.6 2.7-.2 3.1 1l2.5 7.4c.6 1.9-.2 4.6-2.1 6.8-11.8 13.6-23 25-37 38.4-4.2 3.8-10.2 4.2-15.2 1.3-4.3-2.3-6.3-4.1-9-6.2-4.9-4.1-9.4-8.3-13.8-12.5l-26-25.6-51.4-51.2c-1-1-1.6-2.1-1.8-3.2-.1-.4 .2-.6 .3-1-.8 0-1.7 0-2.1 .7L48 163 38.6 172.8c-3.1 2.8-7 7.6-14.8 10.4-7.4 2.8-14-3.9-14.9-11.5-1.2-7.1-1.3-9.8-1.9-14.9-.9-9-1.5-18-1.9-27-.7-18-.6-36 0-53.9L6.5 49 8.8 20.3c.7-3.2 2.7-6.2 5.9-7.6 1.7-.6 3.4-1.3 5.1-1.7l3.3-.7c4.2-.8 8.1-1.3 12.1-1.8 7.9-.9 15.8-1.4 23.6-1.9 15.7-.9 31.4-1.4 47-1.5zm306.1 .4c42.1-1.1 82.9-1.6 125.9 4.2 1.8 .4 9 1.6 11.7 5 1.3 2 2.7 3.7 2.9 6.3l.5 5.6 1.4 15.6c.9 10.4 1.5 20.9 1.9 31.3l-.1-.1c.9 20.9 1.1 41.9 .1 62.9-.4 8.7-1.7 17-3.4 23.8l-.2 2.3-.5 6.7c0 1.8-1.7 6.7-3.1 9.7l-4.2 4.5-5.8 2c-4.2-.2-8.3-.5-10.5-1.8-19.2-9.4-30.4-22.9-43.3-36.1-1-1.1-1.5-2.6-1.4-4.2l.1-.8c.1-1.1 .8-2.1 1.9-2.5l6.5-2.6c1.7-.7 3.4-.4 4.4 .7 11.6 12.2 25.2 26.3 38 31.9 2.6 1 1.7 .4 2.2 0 .3 .3 .6-6.3 .9-10.2l1.9-26.5c.1-.7 .5-1.3 1.1-1.8 .2-.1 .4-.1 .7-.1 .8-20.1 .5-40.3-.4-60.5l-2-30.6-1.3-14.5c-.3-1.2 .5-.7-5.6-1.9-39.5-4.8-81.3-4.6-121.8-3.3l-14.9 .9c-1.6 .1-2.4 .3-2.5 .3-.3 .1-.5 .5-.4 .7-.5-.5 2 3.1 5.5 6.9 3.2 3.6 6.9 7.1 10.5 10.5l11.3 10.4c2.1 2.1 3.3 2.8 6.2 6.1 3 2.9 5.8 7.1 4.2 11.9-.3 2.4-1.8 4.3-2.7 6.4l-2.5 3.7c-1.7 2.3-3.4 4.4-5.2 6.5-3.5 4.1-7.1 8-10.7 11.7-14.5 15-29.7 28.9-44.2 43.3-7.3 7.2-14.5 14.3-21.2 21.7-6.4 6.3-14.3 18.5-11.8 15.8 23.2 23.3 40.5 40.5 51.7 51.8l.2 .1 .8-.5c1.2-.9 2.6-1.8 4-3 22.1-19.7 43.6-43.2 65.4-65 3.2-3.3 6.6-6.2 9.2-8s4.4-2.3 4.7-1.4l3.2 8.2c.8 2-4.3 9.4-11.8 17-21.4 21.1-40.4 42.9-64.6 63.2-2.3 2-10.9 7.2-16.6 3.7-6.6-4.5-7.2-6.7-10.4-9.3-7.7-7.7-23.8-23.8-48.3-48.3-2.9-3.7-3.9-8.5-2-13.1 2-4.8 3.3-6.2 5.1-8.8 3.3-4.6 6.9-8.7 10.4-12.6 7.1-7.9 14.6-15.2 22-22.5 14.9-14.6 30.1-28.7 44.3-43.3 3.5-3.6 6.9-7.4 10.1-11.1 3-3.4 6.6-8.8 5.9-8 .2-.2-.4-.5-.8-1-2.7-2.6-8.4-7.8-17.1-15.9-3.8-3.6-7.6-7.4-11.3-11.6-1.8-2-3.7-4.3-5.6-7.2-1-1.7-2.1-4.2-3.2-6.3-.2-2.2-1.3-4.5-.7-6.6 .7-9.9 14.2-11.1 19.4-11.4l15.8-.9z"/></svg>