<svg xmlns="http://www.w3.org/2000/svg" viewBox="0 0 616 560"><!--! Font Awesome Pro 7.2.0 by @fontawesome - https://fontawesome.com License - https://fontawesome.com/license (Commercial License) Copyright 2026 Fonticons, Inc. --><path fill="currentColor" d="M515.3 30.2l4.1 7.6c1 1.9-3 9.2-9.2 16.8-32.7 40.1-67.6 79.5-104.9 115.3-5.5 5.6-10.8 11.4-16.2 17l-38.8 47c-.6 .8-1.7 1.1-3.1 1l-.7-.1c-.5-.1-1-.7-1.5-1.1-15.1 16.5-30.1 33.2-44.9 50-34.2 38.8-68.4 77.9-104.5 115.3L87 510.2c-6 6.1-12.2 11.6-17.6 15.5l-2.6 1.9c-3.6 2.6-5.5 2.8-4.8 .5l4.6-14.1c1.2-3.6 6-10.1 12.3-16.5l57-58.4-1.3 .7c-1.8 .8-4.3 .4-6.4-1.1-7.5-5.3-14.5-11.2-21.2-17.4-.2-.2-.4-.4-.7-.5-1.1-1-2.1-2.1-3.1-3.1-3.5-3.3-7-6.6-10.2-10.2-15.4-16.3-28.7-34.7-39.6-54.2-7-12.5-13.1-25.5-18.3-38.8-2.5-6.7-5.1-13.3-7.2-20.1l-2.1-6.4c-.6-3.1 1.4-6.5 1.4-7.6L30 270.1c6-20.5 13.6-41.1 24.1-60.1 5.1-9.8 10.6-19.4 16.9-28.6 .4-.6 1.1-1 1.9-1 .2 0 .4 .2 .6 .2 14-19.5 30.3-37.3 48.7-52.7 21.6-18.9 46.3-34.2 72.6-45.7 26.2-11.9 54.3-19.6 82.9-22.5 28.6-3.4 57.8-2.3 85.9 4 28.3 5.6 55.6 16 80.5 30.5 3.1 1.8 5.9 3.7 8.2 5.4 17.4-19.5 34.2-39.5 50.9-59.9 2.7-3.3 5.5-6.2 7.8-8 2.3-1.8 3.9-2.4 4.3-1.6zM486 136.4c4.4 .9 9 1.8 13.5 3 3.5 .8 9.7 5.1 15.6 11 34.3 34.6 58.6 77.6 77.6 121.4l1.8 4.1-.1 0c1 2.1 1.3 5.4 1.2 7.7-.5 4.4-1.5 7.1-2.6 10.3-2.1 6.1-4.7 11.7-7.3 17.2-5.4 11-11.6 21.5-18.2 31.6-13.2 20.3-28.5 39.2-45.3 56.6-33.8 34.6-74.6 63.1-120.5 79.9-8.3 3.1-16.9 5.3-25.5 7.5-.8 1.2-2 2.3-4 2.9-35.3 9.1-71.5 9.6-106.9 4.4-2.6-.3-5.2-.3-7.7-.7-2.9-.4-5.5-1.1-7.8-1.8-24.3-4.8-48-12.2-70.7-21.5-2.5-1-4.7-2.8-6.1-4.6l-.7-.9c-.9-1.3-.8-2.6 .3-3.3l6.6-4.2c1.7-1.1 4.3-1.1 6.8-.1 27 11 55.6 18.9 84.7 22.8 44.3 4.6 89.6-.4 131.1-16.6 43-16.7 81.5-44.1 113.2-77.7 15.9-16.8 30.3-35.1 42.7-54.6 6.1-9.7 11.9-19.8 16.7-30.1 2.4-5.1 4.5-10.4 5.9-15.3 .8-2.9 .9-4 .8-3.7l-3.4-7.8c-18.9-42.6-42.4-83.3-75.2-115.5-5.4-5.3-10.4-10.7-14.1-15.3l-1.8-2.3c-2.5-3.1-2.7-4.9-.5-4.5zm-55.6-32.9c-47.8-25.7-103.7-36-157.4-28.4-53.8 7.2-104.9 31.5-145.4 67.5l0 0c-29.2 26.1-53.3 57.8-69.5 93.3-6.6 15.4-11.9 31.4-16.1 47.8-.1 .3-.4 .4-.5 .7l-.6 2 .3 1c.9 .7 1.7 1.7 2.1 3 8.1 25.1 19.3 49.3 33.3 71.4 3 4.5 5.9 9 9.2 13.4 2.6 3.6 5.3 7.2 8 10.6 7.6 9.2 15.8 18 24.7 26 .4 .4 .8 .8 1.3 1.2 .7 .6 1.4 1.3 2.1 1.9 5.1 4.3 10.3 8.5 15.8 12.4 1.9 1.3 3.3 3.1 4.2 5.1l.2 .4 44-45c-2.2-1.3-4.8-3.3-7.4-5.9-27.5-27.4-40-67.1-38.7-105.2 1-38.4 18-75.9 44.7-103.2 13.2-13.8 28.8-25.2 45.6-34.3 8.5-4.3 17.2-8.2 26.3-11.3 4.8-1.2 8.3-3.3 14.9-3.8 4.7-.5 9.5-.8 14.2-1 37.8-1.2 75.7 6.1 110.4 21.4 3.2 1.4 6.1 3.1 8.8 4.9 13.2-13 26-26.4 38.5-40-3.5-1.2-8-3.2-12.7-6zm6.7 77.2c1.7-.9 6.6 2 10.6 7.1 20.9 27.1 30.5 62.8 26.1 96.9-4.2 34.2-20.8 65.6-43.7 90.6-46.8 50-122.5 69-187.7 48-5.4-1.7-10.3-4.3-13.8-7l-1.7-1.3c-2.3-1.9-2.6-3.4-.9-3.8 3.5-.8 6.9-1.8 10.3-2.8 2.6-.8 7.5-.1 12.7 1.5 60.2 18.6 130.7-.4 172.5-47 20.7-23.4 35.1-52.9 38-83.6 3.1-30.7-6.4-62.1-26.1-85.7-1.6-1.9-2.9-4-3.6-5.7-.6-1.7-.6-2.9 .2-3.4l7.2-3.9zM283 138.1c-4.1 .1-9.6 .8-12.6 1-3.5 1.1-8.3 2.3-12.3 3.9-8.3 2.9-16.3 6.7-24 10.9-15.5 8.5-29.5 19.5-41.4 32.4-24.1 25.7-38.2 59.9-38.1 94.9-.1 34.7 12.4 70.2 38 93.5 1.1 1 1.6 2.1 2.5 3.1 15.6-16.4 31-33.1 46.1-50-1.7 .4-3.9-.5-5.3-2.7-8.5-13.6-13.1-28.4-14.2-45 0-15.6 3.2-31.4 10.3-45.7 7.3-14.1 18.7-26.7 33.1-34.3 14.4-7.6 31-10.8 46.8-9.2 2.6 .3 5 1.3 6.8 2.6l.8 .7c1.2 .9 1.4 2.2 .6 3.2l-4.8 6c-1.2 1.6-3.4 2.4-5.7 2.1-13.6-.9-27.1 1.8-38.6 8.2-11.3 6.6-20.7 16.7-26.4 28.8-5.7 11.8-8.5 26.3-8 38.7 1.3 13.5 5.5 26.5 12.8 37.3 14.4-16.2 28.7-32.4 43.1-48.7l0 0c27.6-31.3 55.9-62.1 84.9-92.3l9.5-11.6c.3-.4 .9-.5 1.6-.4 .1 0 .1 .1 .2 .1 2-2 3.9-4.1 5.9-6.2-2.2-.6-4.6-1.4-7.1-2.5-32.8-14-69-20.8-104.6-19zm96.3 107.4c1.6-1.4 5.2 .1 6.9 3.1 4.3 7.7 6.3 14.8 7.8 22.8 .4 1.6 .6 5.3 .3 6.8l-.5 5.7c-.2 3.8-.8 7.6-1.6 11.4-2.9 15.1-9.5 30-19.9 42-20.7 24.6-55.9 33.8-86.5 26.1-2.5-.8-4.8-2.1-6.3-3.8l-.7-.8c-1-1.1-1-2.4 0-3.2l5.7-5.1c1.4-1.3 3.6-1.7 5.9-1.1 25.9 6.2 55.1-2.3 71.6-22.8 8.4-10 13.7-22.5 15.9-35.7l0 0c.8-3.2 .9-6.6 1.2-10 .7-1.7-1.1-3.5 1.8-5-2.8-.4-1-2.3-1.9-3.7-1.3-6.1-3.6-13.2-6.3-17-.4-.6-.5-1.2-.2-1.7 .3-.6 .7-1.4 1.2-2.1 1.7-2.1 3.6-4 5.6-5.8z"/></svg>