<svg xmlns="http://www.w3.org/2000/svg" viewBox="0 0 616 560"><!--! Font Awesome Pro 7.2.0 by @fontawesome - https://fontawesome.com License - https://fontawesome.com/license (Commercial License) Copyright 2026 Fonticons, Inc. --><path fill="currentColor" d="M310.7 58.3c18.7 1.3 37.6 1.6 55.7 6.9 9 2.5 18.6 3.2 27.2 7.1l26.1 10.4c69.7 29.7 121.7 89.3 156.9 153.9 5.5 10.9 10.2 21.9 13.3 30.7l1.5 4.3 0-.1c2.1 5.9 1.9 8.2-.5 5.9l-14.4-14.1c-3.6-3.6-9.6-13-15.2-24.2-34.6-62.9-86.5-118.4-153.3-145.3l-24.9-9.8-26.1-5.9-13.1-3c-6.7-.4-20.1-1.3-40.1-2.6L277.4 75c-4.4 .5-8.9 .6-13.3 1.3l-13 3.1c-8.6 2.2-17.4 3.9-25.9 6.5l-24.9 10c-66.2 27.7-117.3 84.6-146.5 149.4-3.1 5.8-5.6 12.1-8.1 18.4-2.8 6.9-5.5 13.9-8.3 21-.1 .2-.4 .3-.5 .5-1.2 2.8-.8-.7 .5 5.3 5.7 16.9 12.9 33.3 21.6 48.8 17.5 31.1 41.2 58.5 69.2 80.5 .3 .2 .5 .4 .8 .6 39.1 30.4 85.9 50.9 134.5 58.7 1.2 0 2.2-.1 3.4 .1 15 2.7 30.3 1.7 45.4 2.4 13.2-1.3 26.5-1.8 39.4-4.4l16.6-3.7c25.7-6.2 50.6-15.9 73.4-29.5 52.1-30.7 95.6-76.3 125.2-129 1.2-2.1 2.6-4 3.9-5.2s2.5-1.5 3.2-1l6.2 5.4c1.5 1.3 .5 6.4-2.4 11.7-31.7 54.3-76.7 101-131.6 132.4-24.5 14.2-51.4 24.4-79.2 30.5-2.4 1.6-5.8 3.2-10.1 4.2-138.4 26.1-288.5-59.7-333.4-194.5-1-2.7-1.6-5.3-1.6-7.4 0-.2 .1-.2 .1-.4-1-2.3-2.3-5.6-.2-7.9 5.4-12.6 9.7-23.9 14.7-35.1 2.5-6.3 5.1-12.6 8-19 7.6-16.5 16.7-32.4 27.1-47.4 .4-.6 1.1-1 1.9-1 .3 0 .6 .2 .8 .3 32-44.5 75.6-81 127.2-101 34.3-15.4 72.2-20.8 109.5-21.3zm-146.1 158c32.9-67.9 112-106.8 185.7-95.2 36.7 5.3 72.7 24.2 95 55.2 23 31 28.2 70.3 26.3 106.9-1.8 18.5-6 37-13.8 54.2-7.9 17.1-19 32.7-32.5 45.7-27 26.4-62.9 42-99.5 47.3-36.6 5.4-75.3 1.3-109.2-15.3-34-16-61.9-47.9-69.7-85.7-2.9-12.2-3-24.6-1.5-33.9l.7-4.6c1-6.3 2.3-8.2 3.2-5.1 2.1 6.4 3.7 12.6 6.2 18.4 1.9 4.5 3.8 15 6.6 26.3l0 0c8.5 33.1 34.1 59.8 65.6 73.3 31.5 13.8 67.6 17 101.6 10.9 34-6.2 66.5-22 90.2-46.9 23.3-25 36.6-58.6 37.6-93.1 .7-34.3-6.7-69.5-28.7-95.5-21.4-26.2-54.4-41.4-88.3-44.6-34-3.4-69.2 4.3-98.8 21.3-29.8 16.9-53.4 43.7-66.7 75.2-2 5.2-4.3 10-6.3 13.4s-3.5 4.9-4.2 4.2l-6.1-6.5c-1.5-1.6 1.3-13 6.5-26.2zm130-26.6c5.1-.4 10.7 0 13.4 4.5l.1-.1c2.9 4 2.8 10.1 2.6 14.2-.5 6.2-1.1 11.5-1 16.8-.2 10.5 2.9 19.3 9.6 25.5 7 6.3 16.6 10 26.7 10.6 10.7 1 21-1.2 35.2-.1 3.5 .1 10.9 3.1 12.5 9 0 .3 0 .3 0 .6 .6 1.8 1 3.9 1.2 5.8-.7 17.9-4.4 33.7-13.2 48.8-8.6 14.8-22.1 26.8-37.9 33.7-1 .5-2.1 .5-3 .2-.5-.2-.7-.7-1-1-4.7 1.9-9.3 3.9-14.2 5.1-15.1 2.5-30.6 1.7-45.3-2.9-14.3-5.4-27.7-13.7-37.6-25.7-9.5-12-16.5-26.3-18.8-41.2L222 282.2c0-4.7 0-7.8 .3-11.7 .6-7.5 2.1-15 4.4-22.4 4.7-14.6 13.6-28.1 25.5-38.1 6-4.9 12.5-9.1 19.3-12.4 3.5-1.5 6.9-3.2 10.5-4.3l5.4-1.8 7.2-1.9zm.3 15.2l-3.2 .9-4.7 1.6c-3.2 1-6.1 2.4-9.1 3.7-5.9 2.8-11.4 6.4-16.3 10.5-9.8 8.3-17 19.4-20.9 31.7-2 6.2-3 12.6-3.6 19.2-.1 3-.4 7.2-.1 9.3l1.8 9.7c2.2 13 8.1 24.8 16.3 34.5 16.6 19.6 44.6 27.9 69.6 22.3 12.6-2.6 23.8-9.4 33.1-17.8 8.6-9.2 15.4-20.4 18.4-33 1.7-4 2.3-8.2 3.3-11.9 .3-2.7 .6-5.4 .6-8.1 0-.2-.1-.3-.2-.4-.3-.1 .4 0-1.9-.2-3.7-.2-8.2 0-12.9 .3-9.3 .5-19.3 1.1-29.8-1-1.9-.3-3.4-1.5-4.6-2.7l.1-.1c-8.7-2.7-16.9-7.4-23.6-14.1-9.6-9.6-12.6-23.8-12.2-35.6 .1-5.9 .7-11.8 1.1-17 .2-1.9-.3-2-1.1-1.8z"/></svg>