<svg xmlns="http://www.w3.org/2000/svg" viewBox="0 0 560 560"><!--! Font Awesome Pro 7.2.0 by @fontawesome - https://fontawesome.com License - https://fontawesome.com/license (Commercial License) Copyright 2026 Fonticons, Inc. --><path fill="currentColor" d="M272.6 9.1c1.1 .1 1.7 .2 2.6 .3 9.8 0 19.5 .5 29.3 1.3 .5 0 1-.1 1.5-.1 .9 .1 1.8 .3 2.7 .4 2.6 .3 5.3 .3 7.9 .6 .2 0 .3 .5 .5 .6 73 9.4 141.1 50.5 184 110.4 22.7 31.4 38.7 67.7 45.9 105.8l.1 0c3.4 19.3 5.7 37.9 4.6 58.5-1.9 18.9-3.8 37.6-7.1 56.8-.6 3.1-1.6 6.1-2.8 8.2-.8 1.3-1.4 2-2 2.3-12.3 44.3-36.4 85-68.5 117.7-35.1 34.4-79.2 60-127.3 71.2-47.8 12.3-98.8 9.4-145.9-4.7-46.9-15.2-89.8-42.8-122.1-80.2-65.7-73.9-86-185.3-48.5-277.4 35.4-92.7 125-161.6 224-171.5 8-.6 15.7-.5 21.2-.2zM256.7 23.4c-4.8 .7-10.1 1.5-16 2.7-46.1 6.6-89.6 27.4-125.4 56.8-35.4 30.1-63 69.5-77.8 113.6-15.5 43.8-17.4 92-8.2 137.3 10.1 45.3 32 87.9 64.1 121.5 63.1 68.3 165.2 97.6 254.6 71.4l0 .1c89.7-24 163-100.4 181.9-191.5 1.1-5.5 2.1-10.9 3.1-16.2 1.6-12.7 3-25.5 4.2-38.3-.1-7.9-.9-17.9-1.3-26.7l-4.3-27c-7.7-35.7-23.1-69.6-44.8-98.8-42.7-58.1-110.8-97.2-182.7-102.8-15.4-1.3-30.9-1.9-46.3-1.1-.4 0-.8-.3-1-1l0-.1zm31 315.8c14.5 0 29.1 .3 43.7 1.2 7.3 .5 14.7 1.1 22.2 2.2 4.3 .8 6.3 .7 13 3.1l0 0c6.5 1.8 11 7.7 9.1 13.6l-6.4 16.1c-2.3 4.3-5 8.5-7.5 12.7-5.6 8-12 15.8-19.9 21.8-15.3 12.6-34.4 20.3-54.1 22.2-39.2 4.5-81.3-16.8-98.5-53.4-3-5.1-3.8-10.9-4.4-15.3l-.2-2.2c-.3-3 .6-4.2 2.1-3.1 1.3 .9 2.6 1.6 4 2.5-.4-1.3-1.1-2.5-1.4-3.9-.1-.4 .5-.7 .7-1-.9-.8-1.5-1.8-1.9-3.1-.2-3 5.8-6.8 12.1-7.8 29.7-4.8 58.4-5.2 87.5-5.6zm-102.9-152c16.2-.2 29.2 11.7 35.3 23.8 6.2 12.4 9.2 25.5 10.4 38.4 .1 1-.1 2.1-.7 2.8-.5 .8-1.3 1.1-2.2 1.1l-8.1-.3c-2 0-3.8-1.8-4-3.9-.9-11.6-4.2-22.7-9.2-32.1-5.1-9.5-13.7-15.5-22.7-15-9.1 .1-17.9 6.8-23.4 15.6-5.8 8.8-8.5 19.9-9.2 30.9-.1 1.8-.8 3.6-2 5l-.6 .7c-.8 1-2.1 1.3-3.1 .8l-6.4-3.3c-1.6-.9-2.6-3-2.5-5.3 1-13 4.3-26.4 12-38 7.4-11.4 20.4-21.4 36.3-21.3zm196 0c16.2-.2 29.2 11.7 35.3 23.8 6.2 12.4 9.2 25.5 10.4 38.4 .1 1-.1 2.1-.7 2.8-.5 .8-1.4 1.1-2.2 1.1l-8.1-.3c-2-.1-3.8-1.8-4-3.9-.9-11.6-4.1-22.7-9.1-32.1-5.1-9.5-13.7-15.5-22.7-15-9.1 .1-17.9 6.8-23.3 15.6-5.8 8.8-8.4 19.9-9.1 30.9-.1 1.8-.8 3.6-2 5l-.6 .7c-.8 1-2.1 1.3-3.1 .8l-6.4-3.3c-1.6-.9-2.6-3-2.5-5.3 1-13 4.3-26.4 12-38 7.4-11.4 20.4-21.4 36.3-21.3z"/></svg>