<svg xmlns="http://www.w3.org/2000/svg" viewBox="0 0 560 560"><!--! Font Awesome Pro 7.2.0 by @fontawesome - https://fontawesome.com License - https://fontawesome.com/license (Commercial License) Copyright 2026 Fonticons, Inc. --><path fill="currentColor" d="M272.6 9.1c1.1 .1 1.7 .2 2.6 .3 9.8 0 19.5 .5 29.3 1.3 .5 0 1-.1 1.5-.1 .9 .1 1.8 .3 2.7 .4 2.6 .3 5.3 .3 7.9 .6 .2 0 .3 .5 .5 .6 73 9.4 141.1 50.5 184 110.4 22.7 31.4 38.7 67.7 45.9 105.8l.1 0c3.4 19.3 5.6 37.9 4.6 58.5-1.9 18.9-3.7 37.6-7.1 56.8-.6 3.1-1.6 6.1-2.8 8.2-.8 1.3-1.4 2-2 2.3-12.3 44.3-36.4 85-68.5 117.7-35.1 34.4-79.2 60-127.3 71.2-47.8 12.3-98.8 9.4-145.9-4.7-46.9-15.2-89.8-42.8-122.1-80.2-65.7-73.9-86-185.3-48.5-277.4 35.4-92.7 125-161.6 224-171.5 8-.6 15.7-.5 21.2-.2zM256.7 23.4c-4.8 .7-10.1 1.5-16 2.7-46.1 6.6-89.6 27.4-125.4 56.8-35.4 30.1-63 69.5-77.8 113.6-15.5 43.8-17.4 92-8.2 137.3 10.1 45.3 32 87.9 64.1 121.5 63.1 68.3 165.2 97.6 254.6 71.4l0 .1c89.7-24 163-100.4 181.9-191.5 1.1-5.5 2.1-10.9 3.1-16.2 1.6-12.7 3-25.5 4.2-38.3-.1-7.9-.9-17.9-1.3-26.7l-4.3-27c-7.7-35.7-23.2-69.6-44.8-98.8-42.7-58.1-110.8-97.2-182.7-102.8-15.4-1.3-30.9-1.9-46.3-1.1-.4 0-.8-.3-1-1l0-.1zM368.8 390.9c1.1 0 2.1 .3 2.9 .9s1.2 1.5 1.1 2.3l-.6 8.1c-.2 2-2.2 3.6-4.8 3.7l-160.5 6.1c-2.2 .1-4.3-.5-6.1-1.5l-.8-.5c-1.2-.7-1.6-1.9-1-3l3.2-6.7c.8-1.7 2.9-2.9 5.2-3l161.4-6.3 0 0zM168.5 183.5c3.2-5.4 12.7-10.6 20.1-7.1 7.5 2.3 11.1 8.2 14.1 13 5.2 10.2 6.9 20.4 7.8 30.6l0 0c1.4 20.3-.1 40.6-8.3 60.4-2.2 4.9-4.9 9.9-9.3 14.3l-3.4 3.2c-1.7 1.1-3.7 2.1-5.6 2.9-5.2 1.6-11.9-1-14.1-4.2-5.2-6.1-6.4-11.6-7.6-16.7-1.2-5.3-1.8-10.3-2.3-15.4-1.6-20.2-.1-40 3-59.6 .5-3.2 1.8-6.2 3.3-8.4l.8-1.1c1-1.5 2.3-1.8 3.3-.8l2.4 2.7c.1-.8 .3-1.6 .5-2.4L171 195c0-.3 .2-.6 .2-.9-1.1-.3-2.1-.6-3.2-1-1.9-.6-2.6-5.3 .4-9.7zm208.9-8.8c5.2-1.7 11.9 .8 14.2 4 4 4.5 5.6 8.7 6.8 12.7l1.1 3.9c1.3 5.2 2 10.3 2.5 15.4 1.9 20.2 .6 40-2.2 59.6-.5 3.2-1.7 6.3-3.2 8.5l-.7 1.1c-1 1.5-2.4 1.8-3.3 .8l-2.4-2.6c-.1 .8-.3 1.6-.4 2.4l2.2-.2c0 .3-.2 .6-.2 .9 1.1 .3 2.1 .5 3.2 .9 1.9 .6 2.7 5.3-.3 9.7-3.1 5.5-12.5 10.7-20 7.4-7.6-2.2-11.2-8-14.3-12.8-5.3-10.1-7.2-20.3-8.2-30.5-1.7-20.3-.5-40.6 7.4-60.5 2.2-4.9 4.7-10 9.1-14.4l3.4-3.3c1.7-1.1 3.7-2.1 5.5-3z"/></svg>