<svg xmlns="http://www.w3.org/2000/svg" viewBox="0 0 560 560"><!--! Font Awesome Pro 7.2.0 by @fontawesome - https://fontawesome.com License - https://fontawesome.com/license (Commercial License) Copyright 2026 Fonticons, Inc. --><path fill="currentColor" d="M272.6 9.1c1.1 .1 1.7 .2 2.6 .3 9.8 0 19.5 .5 29.3 1.3 .5 0 1-.1 1.5-.1 .9 .1 1.8 .3 2.7 .4 2.6 .3 5.3 .3 7.9 .6 .2 0 .3 .5 .5 .6 73 9.4 141.1 50.5 184 110.4 22.7 31.4 38.7 67.7 45.9 105.8l.1 0c3.4 19.3 5.6 37.9 4.6 58.5-1.9 18.9-3.7 37.6-7.1 56.8-.6 3.1-1.6 6.1-2.8 8.2-.8 1.3-1.4 2-2 2.3-12.3 44.3-36.4 85-68.5 117.7-35.1 34.4-79.2 60-127.3 71.2-47.8 12.3-98.8 9.4-145.9-4.7-46.9-15.2-89.8-42.8-122.1-80.2-65.7-73.9-86-185.3-48.5-277.4 35.4-92.7 125-161.6 224-171.5 8-.6 15.7-.5 21.2-.2zM256.7 23.4c-4.8 .7-10.1 1.5-16 2.7-46.1 6.6-89.6 27.4-125.4 56.8-35.4 30.1-63 69.5-77.8 113.6-15.5 43.8-17.4 92-8.2 137.3 10.1 45.3 32 87.9 64.1 121.5 63.1 68.3 165.2 97.6 254.6 71.4l0 .1c89.7-24 163-100.4 181.9-191.5 1.1-5.5 2.1-10.9 3.1-16.2 1.6-12.7 3-25.5 4.2-38.3-.1-7.9-.9-17.9-1.3-26.7l-4.3-27c-7.7-35.7-23.2-69.6-44.8-98.8-42.7-58.1-110.8-97.2-182.7-102.8-15.4-1.3-30.9-1.9-46.3-1.1-.4 0-.8-.3-1-1l0-.1zM278 371.6c28.2-1.1 56.6 7.6 79.5 24.2 1.9 1.3 3.3 3.3 4 5.2l.3 1c.5 1.3-.1 2.5-1.2 3l-6.8 3c-1.7 .8-3.9 .5-5.7-.8-20.5-14.6-46-22.1-70.9-20.8-24.9 1.2-49.3 11.3-67.9 27.6-.7 .7-1.7 1-2.7 1-1 0-1.8-.4-2.3-1.1l-4.8-6.5c-1.2-1.6-.5-4.2 1.5-6 21.4-18 48.8-28.9 77.1-29.9zM175.7 189.6c3-5.2 12.1-10.1 19.3-6.8 7.2 2.2 10.6 7.8 13.5 12.3 4.9 9.6 6.5 19.2 7.3 28.7 1.3 19-.1 38-7.7 56.6l0 0c-2.1 4.6-4.6 9.3-8.8 13.5L196 297c-1.6 1.1-3.5 2-5.3 2.8-5 1.6-11.6-1-13.7-4-5-5.9-6-11-7.2-15.8-1.2-4.9-1.7-9.7-2.1-14.4-1.5-18.9-.1-37.4 2.8-55.7 .5-3 1.7-5.8 3.2-7.9l.7-1c1-1.4 2.4-1.6 3.3-.7l2.4 2.5c.1-.8 .3-1.5 .4-2.3l-2 .2c0-.3 .2-.5 .2-.8-1.1-.3-2.1-.5-3.2-.9-1.9-.6-2.7-5.1 .2-9.2zm195-8.5c5-1.7 11.6 .8 13.7 3.9 5.1 5.8 6.2 10.9 7.5 15.8l0 0c1.2 4.9 1.9 9.7 2.3 14.4 1.8 18.9 .5 37.3-2 55.7-.4 3-1.6 5.8-3.1 7.9l-.7 1c-1 1.4-2.3 1.7-3.2 .7l-2.5-2.5c-.1 .8-.3 1.5-.4 2.3l2-.2c0 .3-.2 .6-.2 .8 1.1 .3 2.1 .5 3.2 .9 1.9 .5 2.8 5.1-.1 9.2-2.9 5.2-12 10.2-19.1 7-7.2-2.1-10.7-7.7-13.6-12.1-5-9.5-6.8-19.1-7.7-28.5-1.6-19-.5-37.9 7-56.7 2-4.6 4.4-9.3 8.6-13.6l3.2-3.1c1.6-1.1 3.5-2.1 5.3-2.9z"/></svg>