<svg xmlns="http://www.w3.org/2000/svg" viewBox="0 0 448 560"><!--! Font Awesome Pro 7.2.0 by @fontawesome - https://fontawesome.com License - https://fontawesome.com/license (Commercial License) Copyright 2026 Fonticons, Inc. --><path fill="currentColor" d="M197.8 8c19.4 0 38.2 .6 53 1.8l7.2 .6c9.9 .8 13.4 2 8.4 3.1L236.2 20c-7.8 1.7-26.1 2.7-46.5 2.7L51.5 22.7c-.6-.2-.9 .5-1 .8-.7 1.8-1.5 4.4-2.2 6.8-1.3 5-2.3 10.3-3.3 15.6-1.9 10.7-3.4 21.5-4.7 32.4-3.9 32.6-10.2 98.4-13.8 197.5-1.5 44-2.2 88-1.4 132 .4 22 1.2 43.9 3 65.7 .9 10.8 2.1 21.7 3.9 32.2 1 5.2 2.1 10.4 3.6 15 .7 2.3 1.6 4.6 2.6 6 1.2 1.7 .5 .8 1.1 1.1l187.4 6.6c31.3 .8 62.6 1.6 93.9 1.8 30.8-.2 63.4 .8 91.8-4.6 3.4-.6 6.5-2 7.8-3 1.5-1 1.2-.7 1.5-4.7l.3-23.2 .3-47-.2-94c-.5-58.8-1.6-117.6-4.1-176.3-9.1 2.3-15.5 2.4-23.2 3-15.2 .7-30.2 .7-45.1 .5l-91.4-1.4c-2.7-.6-5.3-2-7.4-3.9-1.8-2.3-2.7-5.3-3.4-8-1-4.3-1.3-7.3-1.7-10.8-.7-6.7-1-13.4-1.2-20-.3-13.1-.2-26.2 .5-39.3 .6-13.1 1.7-26.2 3.6-39.3 1-6.6 2.1-13.2 4-20 1-3.5 2-6.8 4.2-10.8 1.2-1.9 2.2-4.2 5.8-6.6 1.6-1.2 4.1-2.1 7.1-1.9 .4 0 .6 .2 1 .2l.1 0c.3 0 .4 .1 .7 .2 .7 .2 1.5 .3 2.1 .6 .3 .1 .6 .3 .8 .4 .6 .3 1.1 .6 1.7 .9l7.1 3.7c2.2 .7 5 2.1 7.8 4l.2 .1c.1 .1 .3 .2 .3 .2l64.8 45.9c21.4 15.9 43 30.5 62.7 50.9 2.4 2.8 4.8 5.8 7 10.5 0 .1 0 .3 .1 .4l1.7 1.4c2.1 1.8 4.7 20.2 5.6 42.7 2.5 61.5 3.4 122.9 3.8 184.4l0 92.2-.3 46.1-.1 11.5c-.4 3.6 .7 8.8-3.4 15-8.9 10.5-17.7 9.2-25.5 11.4-31.7 4.1-62.3 3.4-93.1 3.4-30.8-.2-61.5-1-92.3-1.9L37.6 542.6c-5 0-10.3-4.9-11.9-8-2-3.3-3-6.2-4.1-9.2-1.9-5.8-3.1-11.5-4.2-17.1-2-11.3-3.2-22.4-4.1-33.5-1.8-22.3-2.7-44.5-3.1-66.6-.8-44.3 0-88.6 1.5-132.8 1.6-44.2 4-88.4 7.4-132.5 1.8-22.1 3.8-44.1 6.5-66.2 1.3-11 2.8-22.1 4.8-33.2 1-5.6 2.1-11.1 3.6-16.8 .8-2.9 1.5-5.6 3-9.1 1.9-5.5 6.3-8.8 11.4-9.5L197.8 8zm26.1 390.7c.8 0 1.6 .4 2.2 1 .6 .6 .9 1.5 .8 2.4l-.5 8c-.1 2-1.7 3.5-3.6 3.5l-121.5 0c-1.7 0-3.3-.6-4.5-1.8l-.6-.5c-.8-.8-1.1-2-.6-3.1l2.9-6.5c.7-1.7 2.3-2.8 4.1-2.8l0-.1 121.4-.1zM108.3 319.6c35.4 3.6 71.7 2.5 108 2L325 320.2c1.5 0 2.9 .3 3.9 .9s1.5 1.5 1.4 2.3l-1 8.1 0 0c-.3 2-3.1 3.6-6.5 3.6l-108.3 1.4c-36 .4-72.3 1.4-109.1-2.4-3-.3-5.9-1.3-8-2.7l-1-.7c-1.4-1-1.8-2.3-.9-3.2l5.5-5.9c1.4-1.5 4.3-2.3 7.3-1.9zm231.4-68.4c1.5 0 3 .3 4 1s1.5 1.5 1.3 2.3l-1.5 8c-.4 2-3.3 3.6-6.9 3.6l-223.1 1.8c-3.1 0-6.1-.6-8.4-1.7l-1.2-.5c-1.6-.7-2.2-2-1.4-3.1l4.5-6.6c1.2-1.7 4-2.8 7.2-2.8l225.4-1.9zM274.4 41.5c-2.4 .9-.8 .3-1.3 .5l-1.2 3.3-.2 .7c-.1 1.4-.1 2.6-.2 4.2-1.6 17.6-.7 36.2 .9 54.3 .8 9.1 1.9 18.2 3.4 27 .5 3.1 1.3 7 2.1 10.4l3.6 7.7 34 .7 69.4 .9c4.8-.1 9.6-.2 14.2-.5 5.9-.3 13.6-2.4 12.7-2.6 0-.6 .6 .3-.6-1.6-.8-1.4-2.9-4.2-5-6.2-17.7-17.8-40.3-33.4-61.7-49.2l-65.6-46.4-.1 .1c-1.6-1.1-2.7-2.3-3.9-3.5l-.7 .3z"/></svg>