<svg xmlns="http://www.w3.org/2000/svg" viewBox="0 0 504 560"><!--! Font Awesome Pro 7.2.0 by @fontawesome - https://fontawesome.com License - https://fontawesome.com/license (Commercial License) Copyright 2026 Fonticons, Inc. --><path fill="currentColor" d="M70.6 73.4c3.2 0 6.4 .7 8.8 1.9l1.2 .6c1.6 .8 2.1 2 1.3 3.1l-5.2 6.5c-1.3 1.7-4.4 2.7-7.7 2.7l-24.5-.3c-.4-.1-.7 .2-.8 .6L42.7 92c-.9 4-1.6 8.2-2.2 12.4-1.3 8.4-2.3 16.9-3.3 25.5-1.8 17.2-3.2 34.4-4.3 51.6-2.3 34.5-3.6 69.1-3.5 103.6 0 1.6-.4 3.1-1 4.2 0 .1-.1 0-.2 .1-1.8 39.7-2.9 79.4-2.8 119.1 .1 25.7 .6 51.4 2.3 76.9 .9 12.7 2 25.5 3.8 37.9 1 6.1 2 12.4 3.7 18 .8 2.8 1.8 5.5 2.9 7.6 1.4 2.2 .9 1.6 1.5 1.8 334.6 1.8 302.6 1.6 343.3 1.9l20.2 .1c0-.2 0 .4 0-.4l.2-12.3c.1-4.8 .6-9.3 1.3-12.6s1.6-4.9 2.4-4.5l.1 .1 8 3.7c2 .9 3.3 10.1 3.1 21.1l-.4 18c.7 2.6-1.9 1.8-3.6 1.9l-5.5-.1-8.6-.1c-84.2-.5-241.1-1.4-362.1-2-6.2-.3-11.6-6.3-13.1-9.8-1.9-3.7-3-7.2-4-10.6-2-6.9-3-13.5-4.1-20.2-1.9-13.3-3.1-26.4-3.9-39.6-1.7-26.3-2.2-52.6-2.3-78.8-.1-51.4 1.6-102.6 4.5-153.9 .6-24.5 1.5-49.1 3.1-73.6 1.2-17.2 2.6-34.4 4.4-51.6 .9-8.6 2-17.2 3.3-25.9 .7-4.3 1.4-8.7 2.4-13.2l.9-3.4c.4-1.8 1.4-3.9 2.1-5.7 1.7-3.7 5.3-5.7 9-6.3l30.3 .4zM321.9-8.6c3.6 0 7.1 .6 9.8 1.7l1.3 .5c1.8 .7 2.4 2 1.5 3.1l-5.6 6.6c-1.4 1.7-4.8 2.8-8.6 2.8L189.2 6.8c-24.6 .1-40.9 .2-49.1 .2l-7.3 0s-.2 .1-.2 .2c-7.1 16-9.8 39.6-11.4 60.2-.1 1.7-.6 3.4-1.3 4.5-.1 .2-.3 .1-.4 .3-7.1 67.4-10.5 135.4-12.3 203.2-.8 35.9-1.1 71.8 0 107.5 .6 17.9 1.4 35.7 3.2 53.3 .9 8.8 2 17.6 3.7 26 .9 4.1 1.9 8.3 3.3 11.9 .6 1.7 1.5 3.4 2.1 4.3 .2 .2 .4 .4 .7 .4l176.7 6.2c29.5 .8 59.1 1.5 88.6 1.6 29-.3 60 .8 86.2-4.8 2.8-.9 5.1-2.1 5.7-2.7 .2 .1 .6-2.2 .6-5.9l.2-22.1 .2-44.4-.2-88.7c-.5-59.1-1.6-118.2-4.4-177.2-.1-1.5-.1-2.8-.1-4.2-.5 .2-1 .4-1.5 .7-2.1 .8-3.7 1-5.5 1.4-3.4 .6-6.8 1-10 1.2-13 1-25.4 .6-37.8 .4l-76-1.5c-8.9-.4-12-12.6-12.7-15.5-1.2-4.7-2.1-9.3-2.9-13.8-1.5-9.1-2.5-18.1-3.4-27.1-1.4-18.1-2.5-36-.4-55 .7-3.8 1.3-7.6 3.3-11.4 .8-2.4 1.9-4.6 3.3-6.3 4.7-5.7 12.3-4.4 18.3 .8 5.5 3.9 15.8 11.2 30.8 21.8 .4 .3 .5 1 .8 1.4l37.2 26.3c20 14.9 40.3 28.6 58.8 47.7 2.2 2.4 4.3 5.4 6.5 9.9l1.6 1c2 1.3 4.6 16.2 5.3 34.2 2.5 58.2 3.5 116.4 3.9 174.6l.1 87.3-.1 .1-.3 43.6c-.3 7.9 .5 13.1-.9 23.4-1.1 5.9-7 11.1-11 12.3-4.4 2.1-8.2 2.7-12.1 3.6-19.9 3-39.2 3.6-58.4 3.7l-3.2 7.4c-.9 2-9.7 3.3-20.5 3.1l-281.6-5.7-5.5-1.9c-1.7-.8-2.9-2.6-4.3-3.8-2.4-2.6-3.1-4.8-4.2-7.2-1.8-4.5-2.9-8.8-3.9-13.1-1.8-8.5-3-16.9-3.9-25.3-1.9-16.7-2.8-33.4-3.5-50-1.3-33.3-1.3-66.4-.8-99.6 1.2-66.3 4.3-132.5 10.1-198.7 .8-9.3 2.4-18.3 4.3-25.3l.9-3.4c1.3-4.7 2.7-6.2 3.5-3.7L103 89.2c1.2-12.1 2.3-24.3 3.7-36.4 1.5-11.5 3.6-22.2 6.2-32 .5-2.3 .9-4.6 1.6-6.8 .8-2.8 1.7-5.5 2.8-8.3 .6-1.4 1-2.8 1.8-4.2 .7-1.6 2.2-4.3 3.5-6.2 .7-.9 1.1-2.6 2.2-2.8l3.7-.1 6.3-.1 8.1 0c8.1 0 24.4-.1 48.8-.2l130.2-.5zm-211.4 500l0 .1 1.6 0c-.5-.3-.9-.9-1.4-1.3l-.2 1.2zm-9.2-18.9l0 0 .3 0c-.3-1-.6-2-.8-3 .2 1 .2 2 .4 3zM292.9 357.7c.8 0 1.5 .4 2.1 1 .5 .6 .8 1.5 .8 2.3l-.5 8c-.1 2-1.6 3.5-3.4 3.5L178 372.7c-1.6 0-3.1-.6-4.2-1.8l-.5-.6c-.8-.7-1-2-.5-3.1l2.7-6.6c.7-1.7 2.2-2.8 3.8-2.8l0 0 113.7-.2zM184.6 283.5c33.2 3.3 67.2 2.3 101.2 1.9L387.7 284c1.4 0 2.7 .3 3.7 1s1.4 1.5 1.3 2.3l-1 8.1c-.2 2-2.9 3.6-6.1 3.6l-101.6 1.3c-33.8 .4-67.8 1.4-102.3-2.2-2.8-.3-5.5-1.3-7.5-2.7l-1-.7c-1.3-1-1.6-2.3-.8-3.2l5.2-5.9c1.3-1.5 4-2.3 6.9-2zm217-64.2c1.4 0 2.8 .3 3.7 1s1.4 1.5 1.3 2.3l-1.4 8 0 0c-.3 2-3.1 3.5-6.5 3.6L189.6 236c-2.9 0-5.7-.5-7.9-1.7l-1.1-.6c-1.5-.7-2.1-2-1.4-3.1l4.2-6.6c1.1-1.7 3.8-2.8 6.8-2.8l211.3-1.9zM339.9 23.5l-1 6.3c-.5 3.8-.7 7.7-.8 11.7-.2 8-.1 16.1 .3 24.1 0 .4-.3 .7-.5 1 .3 5.2 .5 10.5 .9 15.6 .8 8.5 1.8 17 3.2 25.4 1.2 7.8 4.1 18.9 4.6 16.5l73.8 1.4c12.5 .2 25.1 .4 36.9-.5 5.8-.4 12.3-2.1 11.2-2.2l0-.1c0-.5 .3 0-.4-1.3-.6-.9-2.7-3.8-4.6-5.6-16.6-16.6-37.8-31.2-57.8-45.9L344.3 26.6c-1.5-1-2.4-2.1-3.5-3.2-.4-.2-.8-.4-.9 .2z"/></svg>