<svg xmlns="http://www.w3.org/2000/svg" viewBox="0 0 616 560"><!--! Font Awesome Pro 7.2.0 by @fontawesome - https://fontawesome.com License - https://fontawesome.com/license (Commercial License) Copyright 2026 Fonticons, Inc. --><path fill="currentColor" d="M382.3 31.2c38.9 .6 77.8 1.7 116.8 4.5 19.5 1.5 39 3.3 58.6 6.9 9.9 2.2 19.5 3.4 30.3 10.1 2.5 1.8 6.8 6 6.7 10.4 .2 2.2 .2 3.6 .2 4.7l0 18.1 .1 0 1 233c.2 38.9 .5 77.7-.1 116.7-.6 19.6-.5 38.9-3.6 59.1-.9 5.1-1.9 10.3-4.2 15.9-1.1 2.7-3.3 5.9-5.7 8.4-3.2 2.7-6.7 4.4-10.4 4.8-11.3 1.1-19.9 1-30 1.5-77.7 2.7-155.4 4.4-233.2 4.7-77.8-.2-155.5 .1-233.8-8.8-9.8-1.3-19.6-2.8-29.6-5.4-5-1.3-10-2.7-15.4-5.6-2.4-1.4-6-3.2-8.7-7.8-1.4-1.9-1.3-4.5-1.9-6.7l0-4.1c0-29.1-.1-87.4-.1-174.8 .6-77.8-.8-155.1 4-233.6 1.3-12.9 2.7-25.2 7.2-34.8 0-.1 .1-.1 .1-.2 .1-.2 .1-.5 .2-.7 .9-2.4 1.9-4.8 3.6-7.4 2.1-3 5.6-6 9.6-6.6 5.8-.5 9-.3 13.6-.5l103.4-2c1.4 0 2.8 .3 3.7 .9 .3 .2 .2 .5 .4 .7 72.3-1.7 144.6-2.6 216.9-1.6zM370.3 45.8c-77.1-.9-154.3 .2-231.4 2.3-25.4 .7-50.1 .9-69.6 .6l-9.5-.1c-4.9 0-8.1-.2-10.4-.5-1.5 0-2.8 0-2.4 .1 .3-.7-1.6 2.2-2.6 5.7-2.1 7.1-3.3 15.4-4.2 23.6-1.7 16.6-2.4 33.5-2.9 50.5 0 1.7-.7 3.2-1.2 4.7-2 67.7-1.7 135.7-1.9 203.7l0 39.8c1.3-.3 2.5-.7 4.1-.8l32.3-1 16.2-.5c6-.2 9.7-.2 10.7-1.8 4-3.9 5.7-16.1 6.6-25.8 1-10.3 1.1-21 1.1-31.7 0-42.1-2.5-86.9-4.9-127.3-.5-.2 1 .1-1.4-.4-2.9-.5-6.4-.8-10-.9-7.2-.2-14.7-.1-22.3-.1-4.2 0-8.3-.6-11.5-1.7l-1.6-.5c-2.1-.8-2.8-2-1.8-3.1l6.6-6.6c1.7-1.7 5.6-2.8 9.9-2.8 7.2 0 14.5-.2 22.1 .1 3.8 .1 7.6 .3 11.9 1.2 4.9 .6 12.8 4.8 12.7 11.6 2.6 45.8 5.1 87.8 5.1 132.3 0 11-.3 22.1-1.4 33.4-.6 5.7-1.3 11.4-2.8 17.3-1.8 5.7-3.5 13.2-11.8 18.4-4.1 2.5-8.2 2.8-11.6 3-6.8 .2-38.1 1.2-57.2 1.9-.4 0-.7-.2-1.1-.2 0 46.9 0 77.2 0 91l0 13.8c.1 .5 0 .4 .7 1 1.2 .8 2.9 1.8 4.8 2.5 16.3 6 36.1 8 54.8 10.1 76.3 6.8 153.8 6.7 230.8 6.6 77.1-.5 154.4-2.2 231.4-5.2 4.3-.3 10.8-.2 13.1-.8 2.2-.2 3-1.4 4.6-5.1 2.9-7 3.6-17 4.6-26.1 1.3-18.9 1.6-38.1 1.9-57.3 0-76.1-.2-155.5-.7-238-1.9 1.3-4.8 2.3-8.4 2.4l-33.5 .3c-5.5 .1-11 .1-16.1 .6-2.2 .2-5.5 .7-6.1 1-.3 .1-.8 .5-.7 .9-1.7 36-3.6 75.8-3.7 113.4 0 18.9 .1 38.2 2.9 56 .7 4.4 1.8 8.5 3.1 11.8 1.8 3.2 2.3 3.8 4.6 4.2l27.6 .7c2 0 4 .4 5.3 1.1s2 1.5 1.8 2.4l-1.8 8c-.4 2-4.3 3.4-9 3.3l-14.1-.3c-4.7-.4-8.9 .6-16.3-1.6-7.5-2.8-11-9.8-12.6-14.6-1.9-5.3-2.9-10.3-3.6-15.2-2.7-19.6-2.7-38.6-2.7-57.6 .2-38.6 1.9-74.5 3.9-114.8 .7-5.5 4.5-9.8 10-11.6 4.8-1.5 7.2-1.5 10.6-2 6.2-.5 11.9-.5 17.7-.6l34-.4c2.5-.1 4.7 .4 7 .8l-.4-98 0-7.2c0-.8-.1-.5-.1-.5-1.5-1.4-6-3.3-10.1-4.5-8.4-2.6-17.8-4.2-27.2-5.6-18.7-2.7-37.9-4.2-57-5.5-38.3-2.4-76.9-3.3-115.4-3.8zM77.4 445.7c.1-8.4 36.6-8.2 36.7-.2 .1 8.7 .3 18.5 .4 27.3 0 7.2-25.3 7.3-32.6 7.2-7.5-.1-4.9-10.5-4.5-34.3zm212.6 0c.1-8.4 36.6-8.2 36.7-.2 .1 8.7 .3 18.5 .4 27.3 0 7.2-25.3 7.3-32.6 7.2-7.5-.1-4.9-10.5-4.5-34.3l0 0zm212.6 0c.1-8.4 36.6-8.2 36.7-.2 .1 8.7 .3 18.5 .4 27.3 0 7.2-25.3 7.3-32.6 7.2-7.5-.1-4.9-10.5-4.5-34.3l0 0zM394.2 446c.1-7.5 10.5-4.9 34.3-4.5l0 0c8.4 .1 8.2 36.7 .2 36.7-8.7 .1-18.5 .3-27.2 .4-7.2 0-7.3-25.3-7.2-32.6zm-179.3-5.3c7.2 0 7.3 25.3 7.2 32.6-.1 7.5-10.6 4.9-34.3 4.5-8.4-.2-8.2-36.6-.2-36.7 8.7-.1 18.5-.3 27.2-.4zM289.2 166c37.4-.4 74.6 0 112.2 2.9 7.1 .6 13.9 1.7 20.3 3.1 2.8 .4 5.5 .7 8.4 1.3 3.2 .9 4.6 .5 9.7 3 4.3 1.6 7.9 5.7 8.1 10.4l0 0-1.4 44.1-.3 42.1c-.1 28.2 1.5 55.9 .6 85.1-.3 4.6-1.3 9-2.8 13.1-.5 2.5-1.2 5.2-2.6 8-.8 2-2.4 4.1-4.8 6-2.2 1.8-3.9 2.2-6 3.3-7.3 2.5-13.9 3.2-20.5 3.8-13.1 1.1-25.8 1.1-38.5 1.1l-75.8-1.7-75.6-2.1-18.9-.5c-2.9-.2-6.4 .2-11.3-1.2-4.7-1.2-9.3-5.1-11.3-8.8-7.9-14.9-7.1-27.4-8.5-40.4-1.3-25.7-.6-51 .1-76.3l3.4-77.6c.4-4.4 4.3-7.3 7.8-9.5 5-1.9 6-1.9 9-2.6 4.9-1.1 9.7-1.7 14.4-2.3 9.5-1.1 18.8-1.8 28.2-2.4 18.7-1.1 37.4-1.7 56.1-2zm28 15.6c-41.8 .4-85.5 .2-124.9 7.1-1.6 .3-3 .5-4 .6L185 264c-.7 25.5-1.3 51.1 0 76.1 .8 11.8 2.3 26.5 7 32.2 .9 1.2 1.7 1.3 3.9 1.7 1.8 .2 6 .2 8.9 .3l19.3 .5 76.8 2.1c25.6 .7 51.2 1.5 76.6 1.5 12.6 0 25.5-.2 37.4-1.6 5.5-.5 12.2-2.9 12.8-3.3 1.2-1.7 2.7-8.3 2.9-14.1l0-.1c1-49.7-1.8-102.2 .7-153.3 .2-5.7 .8-11.1 1.6-14.9 0 0 0-.1 0-.1l0-1.3c3.2-.4-12.2-3.4-21.2-4.2-10.3-1.1-20.8-1.8-31.3-2.4-21-1.1-42.1-1.5-63.2-1.5zM290 86.3c.1-8.4 36.7-8.2 36.7-.2 .1 8.7 .3 18.5 .4 27.2 0 7.2-25.3 7.3-32.6 7.2l0 0c-7.5-.1-4.9-10.5-4.5-34.3zm212.7 0c.1-8.4 36.6-8.2 36.7-.2 .1 8.7 .3 18.5 .4 27.2 0 7.2-25.3 7.3-32.6 7.2l0 0c-7.5-.1-4.9-10.5-4.5-34.3zm-425.3 0c.1-8.4 36.7-8.2 36.7-.1 .1 8.7 .3 18.5 .4 27.2 0 7.2-25.3 7.3-32.6 7.2-7.5-.1-4.9-10.5-4.5-34.3zm316.9 .4c.1-7.5 10.5-4.9 34.3-4.5 8.4 .1 8.2 36.7 .2 36.7-8.7 .1-18.5 .3-27.2 .4l0 0c-7.2 0-7.3-25.3-7.2-32.6zM214.9 81.4c7.2 0 7.3 25.3 7.2 32.6-.1 7.5-10.6 4.9-34.3 4.5l0 0c-8.4-.2-8.2-36.6-.2-36.7 8.7-.1 18.5-.3 27.2-.4z"/></svg>