<svg xmlns="http://www.w3.org/2000/svg" viewBox="0 0 560 560"><!--! Font Awesome Pro 7.2.0 by @fontawesome - https://fontawesome.com License - https://fontawesome.com/license (Commercial License) Copyright 2026 Fonticons, Inc. --><path fill="currentColor" d="M564.8 33.7c-.6-3.4-1.9-7-4.6-10.7-1.2-1.6-3.3-4-6.5-5.6-2.8-1.7-7.4-1.4-8.3-1.4-790.2 1-310.3-.5-498.9 .2l-28.2 .1-3.5 0c-1.1 0-4.3 .1-6.2 .9-4.6 1.9-7.2 5.1-8.9 7.6-1.8 2.7-3.2 5.5-4.1 8.9-.9 3.2-1.1 9 1.5 12.6 62.8 94.6 124 188.3 189.3 280.7 4.2 6.6 8.3 13.2 12.3 19.8 1.4 3.3 1.3 1.1 1.8 3.9 1.1 29.1 2.8 72.7 3.7 97-.5 2.2-1.1 4.4-1 7l2.2 61.4c.4 4.5-.6 11.4 4.1 19 5.4 8.3 16 8.8 21.5 7.5 12.3-2.5 21.5-8 30.7-13.5 18-11.3 34.2-24.5 49.8-38.4 7.7-7 15.3-14.2 22.5-21.8 3.6-3.8 7.2-7.8 10.6-12 3.1-4.8 7.4-7.1 9-17.4l0-1.8c.1-.2 .2-.4 .3-.7 .6-1.9 .9-4.5 .8-7.2-2.2-86.9-1.9-75.5-1.9-78.1l0-1.6 0-.8 0-.4 0-.1c-7.2-.3-1.7-.1-3.1-.2l3.2 0 0-.1 .1-.1s0-.2 0-.4l1.1-2.3c1.5-3.1 3.7-6.7 5.8-10.1 26.9-41.5 88-122.4 173.2-247.1 3.3-4.8 5.3-9.7 5.2-12.4l-.6-10.8c-.1-1.8-1.7-1.7-3.9 .2l-1.6 1.4c-3.3 2.8-6.8 6.9-10 11.4-37.7 55-76.1 109.5-114.9 163.8-19.3 27.2-39.1 54-57.8 82.2-2.3 3.5-4.6 7.2-6.8 11.1-1.1 1.8-2.1 4.2-3.2 6.3-1.1 2.1-2.1 7.3-1.7 8.5 .4 15.2 .9 35.1 1.5 59.7-.4 1.2-.8 2.4-.8 3.9l.1 25.3c.6-.8-2.8 5.1-5.6 8.2-3 3.7-6.3 7.4-9.7 11-6.8 7.2-14 14.2-21.5 20.9-14.9 13.4-30.6 26.1-47.3 36.6-8.3 5.2-17.1 9.9-25.3 11.8-4.1 .8-7 .3-7.3-.7-1.1-1.3-1.7-4.7-1.7-10.3l-.6-15.3c.4-9.6 .5-20.5 .1-32.1-7.9-208.8-3.1-82.9-4.5-120.1l-.9-3.5c-1.8-5.6-2.9-5.9-4.3-8.9l-3.8-6.5c-1.7-3-3.6-6.3-6-9.5l-2.5-3.9-16.8-25.7-34.2-50.7c-1.9-2.8-3.9-5.7-5.8-8.5l37.7-1.2c.7 0 1.3-1.6 1.4-3.6l.2-8c0-.9-.1-1.7-.3-2.3s-.5-1-.8-1l-45.8 1.6c-.5 0-.8 .7-1.2 1.6-14.8-21.7-29.5-43.4-44.3-65.2l67.9-.7c1.2 0 2.2-1.5 2.4-3.5l.5-8c0-.9-.1-1.7-.5-2.3s-.8-1-1.4-1l-77.3 1c-.4 0-.8 .3-1.2 .6-23-33.9-45.8-67.8-68-101.5-.6 1 .6-4.2 3-6.4 1.3-.8-.7-.5 2.3-.6l8.5 0c28.3-.1 158.6-.2 237.9-.4l271.8-.4c3.6-.1 7.2-.2 11.6-.3 3.6-.1 1.9-.7 4.2 .8 3 2.7 4.5 5.5 5.5 5.8 2.7 .9 6.2 2.6 6.5 7.4-.2 2.1 5.1-4 3.3-10.9l-.1 0z"/></svg>