<svg xmlns="http://www.w3.org/2000/svg" viewBox="0 0 448 560"><!--! Font Awesome Pro 7.2.0 by @fontawesome - https://fontawesome.com License - https://fontawesome.com/license (Commercial License) Copyright 2026 Fonticons, Inc. --><path fill="currentColor" d="M242.6-6.5c8.6-2.8 19.1-5.7 30 .8 11.7 7 10 23.8 8.6 29.1-2.1 15.3-2.7 30.2 .8 44.2 3.4 13.9 10.6 27.5 20.2 38.5 19.6 22 47.2 39.9 70.1 62.5 23.4 22.3 43.9 48.9 56.7 79.2 12.9 30.3 18.6 63.2 18.5 95.7l0 0c-.2 6.8-.7 13.5-1.2 20l-1.2 18.9-3.5 21.4c-.8 4.7-2.1 9.2-3.8 12.5l-.8 1.6c-.8 1.5-1.6 1.9-2.3 1.8-.1 0-.2 .1-.3-.1-.2-.1-.5 0-.7-.3l-5.3-8.5c-1.3-2.2-1.7-6.6-.9-11.4 5.5-27.5 5.6-55.6 3.9-83.2-3.5-27.4-11-54.2-24.1-78.3-13-24.2-31.4-45.1-52.1-63.8-20.5-19.2-44.2-34.4-64.7-57.1-1.6-1.9-2.9-4-3.4-5.7-.2-.5 .2-.6 .1-1-.9-1.1-1.9-2-2.7-3.1-9.5-13.7-16.4-30-18.5-46.9-1.2-8.4-1.1-17-.5-25.2 .3-4.1 .8-8.2 1.3-12.2 .6-4.1 1.1-8.2 .9-10.4 .7-9.8-16.1-8.9-27.6-.6-11.9 7.8-21.5 20-28.3 33.3-14.3 26.7-19.5 58-20 88.9-.3 29.8 6.3 65.4-9.8 96.9-7.3 15.4-19.7 29.6-36.7 36.5-8.3 3.7-18 4.5-27.3 3.2-9.3-2.1-18.6-6.8-24.4-14.8-3.3-3.6-4.7-8.3-6.9-12.5-1-4.5-2.1-9-2.7-13.5l.2-13.3c.1-.6-.4-1.2-.9-1.3-.2 0-.1-.1-.3 0l-4.2 2.6c-3 2-6 4.2-8.7 6.6-5.6 4.8-10.6 10.3-15.1 16.3-18.2 24.1-27.8 54.3-33.3 84.7-5.4 30.4-6.3 62.1-1.4 92.3 4.5 30.4 20.7 56.9 42.4 77.8 21.9 21.1 50 35.6 79.4 44.7 29.3 9.4 60.4 14.4 91.3 13.2 61.2-.6 124.8-24 161.2-73.1 6.4-7.4 10-16.4 14.2-21.7 3.8-5.6 6.3-8.2 6.7-7.2l3.4 10.3c.4 2.3-6.2 22.6-23.7 40.9-22.5 23.9-50.9 42.2-81.9 52.3-31 9.8-63.5 14.6-95.9 13.5-32.3-1.7-64.5-7.4-94.9-19-30.1-12.2-58.6-29.5-80.9-54.1-22.9-24.1-35.4-57.5-38-89.8-3.1-32.4-.9-65 6.2-96.6 7.1-31.4 19.2-63.2 42.4-88 5.8-6.1 12.4-11.7 19.6-16.3 2.2-1.2 2.7-2.1 6.9-3.7 3.7-1.2 7.8-.8 11.2 .8 3.4 1.6 6 4.3 7.7 7.6 1.7 2.9 1.6 8.2 1.5 9.7-1.9 14.2 3 28 13.7 34 10.5 6.7 25.7 3.2 36.6-4.5 11.3-7.9 19.1-20.7 23.7-34.4 4.8-13.8 5.4-29.1 5-44.1-.1-15.6-1.8-32.1-.2-48.2 2-32.2 8.8-65.3 27-93.9 9.2-14.1 21.5-26.9 38.3-34.3zM240.8 248c3.4-3.2 8.4-4.9 13-3.7 9.3 2.8 12.1 8.2 15.9 12.7 6.3 9.5 10.1 19.3 13.7 29 6.9 19.6 11.9 39.4 16.2 59.4 3.9 19.5 9.5 40.9 5.2 62.9-3.6 21.7-16.1 42.4-34.4 55.1-36.8 25.3-87.6 23.5-123.3-2.5-3.6-2.7-6.6-5.7-8.4-8.3-1.7-2.6-2.1-4.3-1.2-4.6 2.8-1 5.4-2.1 8-3.3 1.9-.8 8.1 3.1 15.6 7.7 31.2 19.8 75.7 19.2 104.3-3.9 14.2-11.4 23.3-28.2 25.4-46.5 2.5-18.1-2.3-37.1-6.4-56.7-4.3-19.2-9.2-38.4-15.9-56.5-5.5-17.1-20.3-40.2-19.9-24.9-5.1 18.4-9.1 38.7-16.4 58-3.9 9.7-7.8 19.5-15.4 28.5-3.9 4.5-8.9 8.5-15.3 11.1-3.3 .8-6.8 1.3-10.2 1.6-3-.5-5.9-1.1-8.9-1.7-7.1-1-9-5.7-10.6-7.6-1.7-2.8-2.9-5.3-4-7.7-1.8-4.3-4.5-10.8-5-11.3l-.2-.1-.1 .1-1.8 1.4c-2.7 2.2-5.4 5.9-7.8 9.6-9.4 15.6-15.8 34.5-17.4 52.8-.8 7.6-.8 14.7-1 20.4l.2 2.7c.2 3.8-.6 5.6-2.1 4-3.2-3.2-6.5-6.9-9-11.2-2.3-3.2-3.5-11.7-2.4-20.8 2.7-20.4 9.2-39.7 20.3-57.4 3.1-4.4 6.1-8.7 11.2-12.6 1.9-1.8 6.9-3.8 11-3.9 4.6-.1 7.9 3 11 6.1 3.9 6.3 4.7 10.1 6.8 14.5 .9 2 1.9 4 2.8 5.5 .4 .6 .9 1.2 1 1.3-.8 .9-1.9 3.5-1.6 3.1l2.4-3.2 .3 .1c14.4 6.2 25.9-13.9 32.1-31.4 7-18.4 10.3-37.5 16.4-58.1 .6-1.5 .7-2.5 1.7-4.4 1.1-2 2.4-4.2 3.9-5.3zM86.9 33.9c3.2-2.7 8-3.7 12-2.4 3.9 .9 7 4.6 9.9 9.1l5.1 7.2c5.9 9.5 11.2 19.5 14.7 30.4 3.5 10.9 5.5 22.4 4.9 34.2-.8 11.7-3.3 24.2-13.1 34.6-1.8 1.9-4.2 3.2-6.7 4.2-.9 .5-1.6 1-2.5 1.4-11 3.3-16.3 0-23-1.1-6.4-1.7-12.7-3.8-19-7-2.1-1-4-2.9-4.9-5l0-.1c-1.2-.9-2.4-1.5-3.5-2.5l0 0c-4.2-4.1-8.4-9-10.7-16-2.5-7.3 .1-15.7 3.5-20.8 6.8-10.4 14.7-17 18.7-25.1 1.9-3.5 3.3-8.6 5-13.7 1.6-5.2 3-9.4 4.2-15.3 .7-5.4 2-9.5 5.4-12zm8.9 16.2L95.3 52c-3.4 11.3-4.9 20.2-11.2 32.2-6.2 10.4-15.2 18.1-18.8 25.2l-.1 .1c-1.7 3.5-1.6 5.5-.3 8.6 1.1 3 4.8 6.8 7.7 9.5 5.9 4.3 16.9 7.9 26.1 9.7 1.5 .3 2.9 .8 3.8 1.6 .1 0 0 .1 .1 .2 1.8 .1 3.3 0 4-.6 2.8-1.5 5.2-4.7 7.1-8.5 .4-.8 .9-1.5 1.2-2.4 1.9-4.7 3.1-10.1 3.2-15.3 1.1-22.1-8.6-44.2-22.3-62.7l-.1 .4z"/></svg>