<svg xmlns="http://www.w3.org/2000/svg" viewBox="0 0 616 560"><!--! Font Awesome Pro 7.2.0 by @fontawesome - https://fontawesome.com License - https://fontawesome.com/license (Commercial License) Copyright 2026 Fonticons, Inc. --><path fill="currentColor" d="M432.5 18.6c42.4-8.4 86.2-16.1 130.9-11.8 7.3 .7 14.4 2.4 19.7 4.6l2.6 1.1c3.5 1.5 4.5 2.9 2.5 3.6-4.2 1.5-8.2 2.7-12.1 4.4-3 1.2-9.6 1.3-16.8 .7-42.2-3.5-85 4.2-127.2 12.7-24.8 4.9-49.1 11.7-71.1 22.4 1.2 1.8 1.9 4.6 1.7 7.8-1.8 43.7 12.1 87.7 38.1 122.7 25.8 35.2 63.8 61.1 105.8 72.2 1.3 .4 2.2 1 3.1 1.7 26.1-25.7 46.1-57.2 57.3-91.9 12.6-38.1 15.5-79 12.7-119.3-.6-6.6-.5-13.1 .2-18.4l.3-2.5c.5-3.5 1.6-4.8 2.8-3.3l7.5 9.9c1.9 2.5 3.6 9 4.2 16.2l-.1-.1c2.6 42-.8 85.1-14.7 125.6-13.4 40.6-39.1 76.8-71 105-53.9 47.4-120.7 73.5-188.5 91.2-.1 0-.2 .1-.3 .1l-.2 0c-13.3 3.5-26.7 6.8-40 9.7-3.3 .7-6.6 1.1-9 1-2.4-.1-3.7-.7-3.6-1.6l1-8.4c.3-2.1 6.2-5 13.8-6.7 11.4-2.3 22.6-5 33.8-7.9 .2-.1 .4-.3 .7-.4 31.6-10.5 62.5-23.6 91.9-39.1 27.3-14.6 53.6-31.5 75.4-52.4-38.5-14.3-72.9-40-96.9-73.6-27.1-37.4-41.3-84.1-39.3-130.5-10.5 6.2-20.4 13.4-29.4 22.2-30.4 29.3-59.3 62.6-80.4 98.9-20.9 36.7-32.8 78.2-41.2 120.3-.7 3.4-1.7 6.7-2.7 8.9-.9 1.9-1.8 2.8-2.6 2.7l-.4 1.6c-.5 2-2.7 3.2-5.1 2.9-25.3-2.8-51-4.4-75.3-.3-20.6 3.5-40.9 8.9-60.7 15.6 19.8 9.5 39.2 19.8 58.2 30.9 20.3 12.2 40.5 24.4 58.7 41.4 9.6 8.7 16 20.8 20.5 31.5l13.9 32.4 22.1 52.6c14-44.8 23.4-91.5 20.8-137.6-.2-2.1 .3-4.1 1.3-5.8l.5-.8c.7-1.1 1.9-1.6 3-1.2l6.8 2.8c1.7 .7 3 2.8 3.1 5.1 2.8 54.4-9.1 107.6-26.3 158.2-.4 1-1 1.9-1.9 2.4-.8 .5-1.8 .5-2.5 .2l-5.1-2.5-3 .7c-2 .4-4.8-2.4-6.5-6.5l-27-64.4-13.7-31.9c-4.5-10.7-9.9-18.9-18-26.2-33.7-28.9-76-50.9-116.9-70.8-3.4-1.6-6.5-3.7-8.6-5.8l-1.1-1c-1.5-1.5-1.6-2.9-.3-3.5l.9-.4 .5-5.4c.2-1.9 1.7-3.6 3.9-4.4 24.8-9.2 50.5-15.9 76.6-20.3 24.5-3.8 48.7-2.6 72.5-.1 0-2.7 .3-6 1.1-9.5 8.8-42.5 21.6-85.3 44.4-123.5 11.3-19 24.6-36.6 38.7-53.3 14.2-16.5 28.6-32.9 45.3-47.7 16.5-14.9 36.2-27.2 57-35.2 20.8-8.3 42.3-13.3 63.6-17.7zM298 228.1l6.6 1c1.7 .2 2.8 .6 2.8 1 .5 9.1 5.4 18 12.4 23 .1 .1 .1 .5-.2 1.1s-.8 1.3-1.3 1.9l-5.1 6.2c-1.2 1.5-2.6 2.4-3.1 2-10.4-8.1-16.9-20.8-17.4-34.5 0-.6 .6-1.1 1.7-1.5l.5-.2c.8-.2 2-.2 3.1-.1zm37.9-35l6.6 1.1c1.7 .2 2.8 .8 2.8 1.4 1.3 15.2 11 29.6 24 36.2 .3 .1 .3 .6 .2 1.3s-.4 1.5-.8 2.2l-4 6.9c-1 1.7-2.4 2.7-3.2 2.3-17.5-9.6-29.4-28.1-30.9-48.5 0-.8 .6-1.7 1.7-2.3l.5-.3c.7-.4 2-.5 3.1-.3zM457.3 73.5c6.9 .7 13.2 2.9 18.6 5.9 .5 .2 .7 .8 .7 1.5s-.3 1.5-.8 2.2l-4.4 6.8c-1.1 1.7-2.5 2.6-3.3 2.2-8.6-4.7-18.2-5.6-22.7-.9-4.9 4.7-6.5 14.6-5.3 24.1 .1 .8-.4 1.6-1.5 2.4l-.5 .4c-.7 .5-1.9 .8-3 .8l-6.7-.6c-1.7-.2-2.9-1-3-2-1.1-11.5-.7-25.9 10.8-36.7 5.9-5.1 14.1-6.8 21-6.1z"/></svg>