<svg xmlns="http://www.w3.org/2000/svg" viewBox="0 0 560 560"><!--! Font Awesome Pro 7.2.0 by @fontawesome - https://fontawesome.com License - https://fontawesome.com/license (Commercial License) Copyright 2026 Fonticons, Inc. --><path fill="currentColor" d="M54.2-7.2c6.5-.8 13-.3 19.6 2.5 3.3 1.3 6.7 3.7 9.3 7.1 2.6 3.3 3.7 9.1 3.6 11.7l.3 20.2 .5-1.1c.7-1.7 2-2.3 3.1-1.5l6.6 4.9c1.7 1.3 2.8 4.3 2.9 7.8l4.1 238.3c2.2-.4 4.4-.8 6.8-1.2 49.3-7 98.8-13.8 149.1-15.1 12.6-.2 25.3-.1 38.2 1.4 6.5 .9 13 1.8 19.7 4.2 1.4 .6 3 1.2 4.7 2l.1-243.4-.1-2.7c-.2-.2 .5-.9-.7-1.9-2.1-2-6.2-4.1-10.4-5.5-17.7-5.5-38.4-6-58.3-5.9-40.3 .7-80.9 5.9-121.1 12.1-6.2 1-12.4 1.4-17.3 1l-2.4-.2c-3.3-.2-4.6-1.3-3.2-2.6l8.8-8.1c2.2-2 8-4.2 14.6-5.1 40.2-6.1 80.7-11.2 121.9-11.9 20.6 0 41.4 .2 62.6 6.9 5.3 2 10.8 4.1 16 9.3 2.9 2.5 5.4 8.7 4.4 11.8l-.1 14.2-.2 57.4 .1 33.7 4.6 3.6c1.7 1.3 2.8 4.6 2.9 8.2l2 127.5c.1 10.2 1 22-1.9 33.5-2.6 11.4-7.7 22.2-15 31.5-3.5 4.6-7.9 9-12.1 12.6-3.9 3.4-7.8 6.9-11.5 10.4-6.7 6.4-13.7 14-16.9 20.4 1.4 .3 2.8 .6 4.3 .8 5.5 .9 11.5 1 17.5 1.1 24.1-.2 48.7-3.2 73.1-6.6 48.3-6.9 99-16.7 145-26 .1-.1 .2 0 .2-.4 .5-1.2 1-3.5 1.5-5.6 .9-4.3 1.5-8.9 2-13.5 1-9.3 1.6-18.7 2.1-28.1 .9-18.9 1.2-38 1.2-57-.2-38-1.2-76.2-4.8-113.8-.5-5.2-1.1-11.1-1.9-19.9-.5-2.8-.9-5.7-1.5-8.3l-.8-2.9c-.1-.3-.1-.3-.2-.5-.1-.2-.4-.4-.6-.2L369.6 127c-3.7 .6-7.5 .7-10.5 0l-1.5-.3c-2-.4-2.8-1.6-2-2.8l5.1-7.5c1.3-1.9 4.7-3.6 8.6-4.3L527.7 84.6c4.3-.3 8.6 1.9 10.7 5.8 1.1 1.9 2.4 4.1 2.7 6.1 .4 1.3 .9 2.8 1.1 4.1 1.2 5.3 2 10.4 2.7 15.4 1.4 10.1 2.3 20.1 3.1 30.1 1.5 20 2.4 39.9 3 59.9 .1 1.9-.2 3.7-.8 5l0-.2-.1 0c.3 12.3 .6 24.6 .7 37 0 18.8-.4 37.7-1.3 56.5-.5 9.5-1.1 18.9-2.2 28.5-.6 4.8-1.2 9.6-2.2 14.5-.5 2.5-1 4.8-2.2 8-.5 1.9-2.3 3.5-3.3 5.2-1.7 1.1-3.1 2.8-5.1 3.4-52 10.5-99.9 19.8-150.7 27-25.2 3.4-50.4 6.6-76.6 6.4-6.5 0-13.3-.6-20.2-1.9-3.5-.8-7.1-1.7-11-3.8-3.7-1.7-8.4-6.1-9.6-11.9l0-2.8-8.2-80.5c-.1-.5 .2-1.1 .8-1.5 .6-.4 1.4-.6 2.3-.6l8.1 .1c2 .1 3.6 1 3.7 2.3l5.4 54.1c2.7-3.3 5.3-6.7 8.1-9.7 8.6-9.5 17.6-18.3 25.1-27.7 7.7-8.9 13.6-20.7 9.1-23.3-5.3-5.2-19-7.5-30.5-8.4-12.1-.9-24.5-1-36.9-.5-49.8 2-99.8 8.9-149.5 16.2-4.8 .7-9.3 1.1-13 1.2l.9 60.5c.3 .9 .7 1.7 .7 2.8l.9 105.8 .4 24c0 3.5-.1 6.8-.1 10.2l.4 48.7c0 .1-.1 .3-.1 .3l21.4-.5c.6 0 1.3 .3 1.7 1s.7 1.5 .7 2.3l-.1 8c0 2-1.2 3.5-2.7 3.6l-94.6 2.3c-1.3 0-2.6-.6-3.5-1.7l-.5-.5c-.6-.7-.8-2-.5-3.1l2.2-6.6c.6-1.7 1.8-2.8 3.1-2.8l58.5-1.5c-.1-.6-.4-1.2-.4-1.9l-.9-92.6C68.8-180.3 73.3 111 71.9 22.1l-.1-8c-.1-2.3-.2-2.1-.9-3.1-2.6-3.8-14.6-5.2-20.8-1.8-3.3 2.1-4.1 2.4-3.9 5.7l.5 16 2.6 96 3.1 128c1.7 85.4 3.8 170.6 2.8 256.3 0 6.9-.7 13.7-1.6 18.5-.8 4.8-1.8 7.1-2.6 6.5l-7.8-5.8c-1.9-1.4-2.9-14.7-2.7-30.7 .6-84.6-1.4-169.5-3.2-254.3L34.3 118C33 70.3 32.2 38.5 31.7 22.6l-.2-8c-.1-3.8 1.1-8.9 3.9-12.1 5.5-6.7 12.5-8.8 18.8-9.8z"/></svg>