<svg xmlns="http://www.w3.org/2000/svg" viewBox="0 0 616 560"><!--! Font Awesome Pro 7.2.0 by @fontawesome - https://fontawesome.com License - https://fontawesome.com/license (Commercial License) Copyright 2026 Fonticons, Inc. --><path fill="currentColor" d="M495.5 121.4c21.5 .4 44.1 4.9 61.8 18.9 17.4 13.8 29.1 33.3 35.4 53.9l.2-.1c11.3 41 3 90.3-31.4 119.8-8 8-18.3 12.3-28.2 17.2-10.6 2.6-21.3 6.3-32.1 6.7-21.7 1.4-42.9-2.6-63-8.6-3.3-1-6.3-2.3-8.3-3.6-2-1.3-2.8-2.5-2.2-3.2l5-6.8c1.2-1.7 7.6-1.1 14.8 .9 18.9 5.2 38.5 8.1 57.5 6.1 18.4-3.4 37.1-8.8 50.1-22.8 13.1-13.2 21.9-30.5 25.9-49.1 3.2-18.7 2-38.2-3.5-56.2-5.8-18.1-17.2-33.8-32-44.5-14.7-11.5-34.1-14.1-52.6-13.6-38.4 1.4-73 23.9-100.5 51.5-4.6 4.6-9.4 8.8-13.5 11.8l-2 1.4c-1.2 .8-2 1.2-2.8 1.3 7.7 6.2 14.8 13.2 20.6 21.2 9.2 12.7 15.8 27.4 18.8 42.9 .6 3.6 1.1 7 1.5 10.4 1.1 2.1 2.1 4.8 2.7 8.1 4.6 27.3-1.2 57.2-18.4 79.8 15.1 3.6 29.5 10.3 41.8 20.1 .3 .2 .3 .7 .1 1.4s-.7 1.4-1.3 2l-5.5 5.9c-1.4 1.5-2.8 2.2-3.4 1.8-12.2-9.6-26.8-15.9-41.9-18.3-.4 0-.5-.7-.8-1.1-.8 .8-1.8 1.3-2.6 2 .4 .2 .6 .5 .6 .7-.5 5 1.7 13.9 2.7 21.4l3.6 23.2c0 .3-.3 .7-.8 1s-1.4 .5-2.3 .6l-8 .7c-2 .2-3.6-.2-3.7-1l-3.6-23.1c-.4-4.5-1.4-8.5-2-13.1-15.8 9.9-33.8 15.7-52.2 17.8l1.4 3.4c1.2 2.8 1 8.6-.1 14.8-1.7 18.2-2.7 36.8 2.4 54.1 4.8 17.2 14.2 32.8 27.9 43.8 27.5 22.3 68 25.4 101.6 13.1 17-6.1 32.8-15.2 44.5-28.4 11.5-13.1 18.8-29.7 19.9-47.2 2.8-35.7-15.9-69.5-37-100.2-1.7-2.5-3.1-5.2-3.7-7.3-.6-2.1-.6-3.5 .3-3.7l8-2.5c2-.6 6.6 3.5 10.6 9.5 20.9 31.1 41.3 68.7 36.2 110.2-2.6 20.2-11.9 39.9-26.3 54.3-14.1 15-32.6 24.2-51.4 30.5-37.4 12.3-83 8.9-114.7-19-14.6-12.7-24.4-30.2-29.5-48.5-14.7 27.3-38.1 52.1-69.2 62.8-31.8 11.9-68.2 4.9-95.8-13.1-27.7-17.8-49.1-46.7-54.6-80.3-1.9-8.2-.5-16.9-.8-25.3 1.2-8.4 3.8-16.5 5.7-24.7l11.6-22.4c4.5-7 9.8-13.4 15.4-19.4 3.7-4 8-7.1 11.8-9l1.8-.9c2.6-1.2 4.1-.8 3.7 .9-.7 3.4-1.2 6.9-1.6 10.3-.3 2.6-3 6.6-6.4 10.4-10.6 10.9-17.3 24.3-23 37.6-4.2 13.9-6.1 28.6-3.1 42.9 5.3 28.6 24.7 54.1 49.8 69.3 24.9 15.8 56.9 19.4 83.6 8.4 26.6-11 48.6-33.5 61.4-60.8 1.2-2.1 2.7-4 4.1-5.1 .5-.4 .9-.5 1.3-.7-1.7-14.7-.4-29.5 1.2-44 1-4.7 2.3-9.1 3.7-13-3.2 .1-6.3 .7-9.5 .6-16.1-.5-32.1-3.4-47.3-10.3-5.9-2.7-11.3-6.1-16.5-10-15.1 5.4-28.7 14.7-38.7 26.8-.2 .3-.7 .2-1.3 0-.6-.3-1.3-.7-2-1.3l-5.9-5.5c-1.5-1.4-2.1-2.9-1.6-3.6 10-11.6 22.7-20.8 36.9-27.1-3.2-3.3-6.2-6.7-9-10.4-9.9-13.1-16.5-28.4-19.6-44.5-2.1 1.8-6.5 3.6-11.9 4.8-38.6 8.6-83.5 10-120-12.8-17.9-10.9-33.1-28-40-48.5-7-20.4-6.8-42-3-62.3 3.5-19.9 12.5-42.2 31.1-55.1 18-12.8 38.3-18.1 58.7-21.4 20.4-3 42.9-1.5 62.4 8 19.5 9.1 35 23.5 48.8 38.1 4.6 4.9 8.3 10.1 10.8 14.6l1.2 2.2c1.6 3 1.4 4.7-.5 4.2L222.5 191c-3-.8-7.8-4.6-12.4-9.5-13.4-14.1-28-26.8-45-34.1-16.8-7.5-36-8.2-54.6-5.1-18.6 3.4-37.6 9.1-51.5 20.3-13.9 10.9-20.5 29-23.4 47.6-3 18.6-2.3 37.9 4.5 54.6 6.6 16.7 20 30.3 36.1 39.2 32.7 18.5 73 16.4 110.4 7.5 3-.7 6-1.1 8.3-1-.6-8.2-.3-16.4 .2-24.2 0-13.2 2.3-26.5 7.3-38.9 14.3-37.7 50.7-65.8 91-69.9 1.4-.1 2.7-.1 3.9-.1-.6-.3-1-.6-1-1-.8-15.6-8.1-30.6-15.8-45.8-.2-.3 0-.8 .5-1.3s1.2-1 1.9-1.3l7.4-3.2c1.8-.8 3.5-.8 3.9-.1 7.7 15.3 16 32.1 16.8 51.7 0 .7-.6 1.4-1.5 1.9l8.3 0c7.6-11.5 16.3-22.4 25.9-32.4 .2-.2 .6-.1 1.2 .2s1.2 .9 1.8 1.5l5.4 6c1.3 1.5 2 2.9 1.6 3.4-7.5 7.8-14.2 16.2-20.4 25 14.2 3.7 27.6 10.4 39.2 19.3 0 0-.1-.1-.1-.1l2.1-12.1c.6-3.1 4.2-8.5 9.3-13.6 29.1-28.9 67.8-53.3 111.6-54.3zM290.3 193.1c-34.4 5-64.8 30.6-75.5 63.6-2.3 6.7-3.7 13.6-4.4 20.6 0 .8 0 1.6 0 2.4-.2 2.5-.3 4.8-.5 7.2 0 24.2 8.8 48.4 25.8 65.8 23.5 25.3 61.3 36 94.4 26.3 33.1-9 60.2-37.3 67.1-70.9 .7-3.6 1.5-7 2.4-10.1 .4-3.5 .8-6.9 1.1-10.3-.1-5.6-.8-13.2-2.2-19.6-2.9-13.2-8.7-25.8-16.8-36.6-16.1-21.7-41.7-36.1-68.5-37.8-.5 0-.9-.4-1.3-.5l-15.4 .2c-.1 0-.3-.4-.4-1 0-.2-.1-.4-.1-.6-1.7 .4-3.6 .9-5.7 1.3zm80.2 107.5c2.2-.2 5.2 1.1 6.5 2.9 1.2 1.6 1.7 3 1.9 4.1 .4 2.3 .3 4-.7 6.4-.4 2.2-5.1 6.2-9.3 5.3-3.5-.7-4.8-2-6-3-.5-.4-1.3-1.3-2-2.4-.6-1.1-1-1.8-1.2-3.7-.2-2 .3-4.1 1.6-5.9 4.7-4.6 5.6-3.2 6.9-3.9l2.2-.4c.1 0 .1 .5 .1 .6zm-50.1-12.7l0 0c2.2-.2 5.2 1.1 6.5 2.9 1.2 1.6 1.6 3 1.9 4.1 .4 2.3 .3 4-.7 6.4-.4 2.2-5.1 6.2-9.3 5.3-3.6-.7-4.8-2-6-3-.5-.4-1.3-1.3-2-2.4-.6-1.1-1-1.8-1.2-3.7-.2-2 .3-4.1 1.6-5.8 4.7-4.6 5.6-3.2 6.9-3.9l2.2-.5c.1 0 .1 .5 .1 .7zm19.1-59.2c4.8-2.2 10.2 .2 11.5 2.6 1.7 2.1 3.3 5.5 2.4 10.9-.5 2.6-1.8 5.8-4.7 7.9-2.7 2.1-6.7 2.5-9.7 1.5-5.8-2.2-9.1-6.7-10.1-9.5-.9-3.4-1.3-4.4 1.3-8.6 5-4.9 7.1-3.9 9.2-4.7l.1 0zM307.9 3.7c32.2 1 65.5 16.5 84.2 44.3 18.7 26.9 25.6 62.6 14.5 94.6-.9 2.6-2.3 4.8-3.6 6.3-1.3 1.4-2.4 1.9-3.1 1.3l-6.5-5.2c-1.7-1.3-1-5.8 .3-11 8-26.9 1.4-57.8-15.8-80.2-16.8-22.7-45.1-35.3-73.6-35.4-28.4-.4-57.2 10.6-76.3 31.1-19.4 20.2-22.6 50.5-19.1 79.3 .6 4.8 .6 9.6 .1 13.5l-.2 1.9c-.3 2.6-1.4 3.7-2.7 2.7l-7.8-6.7 .1 0c-2-1.8-3.8-6.4-4.3-11.8-1.6-15.6-1.7-31.8 1.8-47.8 3.4-15.9 11.5-31.5 23.2-43.1 23.2-23.3 56.3-35.2 88.7-33.7z"/></svg>