<svg xmlns="http://www.w3.org/2000/svg" viewBox="0 0 616 560"><!--! Font Awesome Pro 7.2.0 by @fontawesome - https://fontawesome.com License - https://fontawesome.com/license (Commercial License) Copyright 2026 Fonticons, Inc. --><path fill="currentColor" d="M220.4 44.4c16.8 .3 33.7 1.1 50.4 2.4 8.4 .7 16.8 1.5 25.3 2.6l12.7 2c2.2 .5 4.3 .8 6.7 1.4 1.7 .1 6.5 2.2 8.9 4.8 8.6 13.4 11.2 23.4 16.1 34.9 4.4 10.6 8.7 22.8 14.8 29 1.6 1.5 1.7 1.4 4.1 2 2.2 .4 5 .6 7.8 .8l17.6 .4 35.8 0 143.3 .9c3.3 0 6.5 .4 8.7 1.1 2.2 .7 3.3 1.5 3.1 2.4l-2.7 8c-.6 2-7 3.4-14.7 3.3l-140.5-.9-35.2 0c-5.9-.1-11.8-.1-18-.5l-.1 0c-3.1-.2-6.2-.4-10.1-1.4-3.8-.5-9-4.6-10.6-6.7-9.7-11.6-12.6-22.6-17.4-33.6-4.1-10.3-8.9-23.2-13-29.6 1.2 .2-3.7-1.1-7.5-1.8L293.9 64c-8.2-1.1-16.5-1.9-24.9-2.5-16.7-1.3-33.4-2.1-50.1-2.4-32.9 .1-68.3-.1-97.1 10.3-5.3 2.2-9.3 4.5-11.2 6.2-.3 .3-.8 .6-1 .9-.7 1.4-2.1 2.3-2.9 1.5 .4 .8 .7 1.5 1 2.3 1.3 2.8 1.7 8.8 1.1 15.6-5.5 79.1-6.2 159.1-5.2 238.6 .4 19.9 .9 39.8 2.1 59.5 .6 9.8 1.3 19.7 2.5 29.3 .5 4.2 1.7 10.7 2.2 12.3 0 .1 .1 .3 .2 .3l3.1-.5c22.5-1 41.1 0 61.9 0 20.5 .1 40.5 .4 59.6 1.4 3.2 .1 6.1 .6 8.3 1.4 .4 .1 .6 .3 1 .5l21.5 .8c36.3 1 72.6 1.7 108.9 2 36.3 .3 72.6 .2 108.8-.7 18.1-.5 36.2-1.2 54.1-2.6 9-.7 17.9-1.5 26.6-2.8 8.1-.9 19.6-4.5 16.7-4.2l-.6-266c0-4.7 .3-9.3 1-12.6s1.5-4.9 2.3-4.5l8 3.7c2 .9 3.6 10.1 3.6 21.2l.1 .1 .5 261c-.3 4.2-2.6 8-6.6 9.9-4.3 2.4-6 2.6-8.7 3.4-4.9 1.3-9.6 2.1-14.3 2.8-9.4 1.4-18.6 2.2-27.9 3-3.9 .3-7.7 .3-11.6 .5 .1 .3 .3 .5 .4 .9 .3 1.2 .8 2.7 .5 4.9-.1 1.3-.9 2.8-2 4.2 .3 1.9 .6 3.9 .7 6.2l1.5 31.4c-.3 4.1-2.6 7.9-6.6 9.7-4.3 2.3-6 2.4-8.8 3.3-5 1.3-9.8 2.2-14.6 2.9-9.5 1.4-19 2.4-28.5 3.2-18.9 1.6-37.8 2.5-56.6 3.2-37.7 1.4-75.3 2-113 2.3l-112.9-.3-57.5-.8-55.4 .5c-.5 0-.9-.1-1.4-.1-10.8 .6-21.6 .5-32.4-.8-.1 0-.2-.3-.3-.4-2.4-.1-5.2-.8-7.5-2.7-5.2-5.7-6.1-10.2-7.3-14.7-.8-4.3-1.8-8.7-2.1-12.8-1.1-8.4-1.4-16.6-2-24.9-.7-16.4-1.1-32.8-1.2-49.2-.2-32.7 0-65.4 .4-98l1.6-97.9 1-48.9 .2-12.3c.4-4.2-.5-7.4 1.3-14.5 2.1-7.4 10.1-11.7 14.8-12.6 5.1-1.2 9.6-1.4 13.9-1.5 5.7-.1 11 .6 15.1 1.9l2 .6c2.7 .8 3.6 2.1 2.2 3.1l-8.6 6.4c-2.2 1.6-7.2 2.6-12.5 2.8-3.8 .2-7.6 .6-10.2 1.5-2.6 1.2-2.6 1.3-3.2 3.6l-.5 23.7-1 49.2-1.5 98.3c-.4 32.8-.6 65.5-.2 98.2 .2 16.3 .5 32.7 1.4 48.8 .4 8.1 1.1 16 2.1 23.8 1 7.3 4 15.7 3.7 13.6 0 0 .4 .1 1.7 .1 .6 0 1.4 .2 2.1 .3 11.6 1.1 23.3 1.1 34.8-.1 .1 0 .3 .4 .4 .6l53.1-.3 55.1 .7 112 .2c37.3-.3 74.6-.9 111.8-2.3 18.6-.7 37.2-1.7 55.6-3.2 9.2-.8 18.4-1.7 27.3-3.1 8.2-.8 20.3-4.7 16.9-3.9l-1.6-31.6c-151.9-.5-255-.9-309.3-1.1-17.5-.3-34.7-1.5-52-2.2l-25.9-1.2-13-.6c-2.2-.2-4.3 0-6.5 .1l-8.3 .2c-6.4 .4-10.6-6.3-11.9-11.5-1.2-3.8-1.9-7.3-2.5-10.7-1.2-6.9-2.1-13.7-2.8-20.5-1.4-13.6-2.3-27-3.1-40.5-1.5-26.9-2.2-53.8-2.5-80.7-.3-26.9-.3-53.8 .2-80.8 .3-13.5 .7-26.9 1.4-40.5 .4-6.8 .8-13.5 1.5-20.5 .4-3.5 .7-6.9 1.5-10.7 .8-2.3-.1-3 3.3-8.3 0-.2 1.9-2.3 4.9-3 1.2-.2 1.8-.3 2-.2l3.5 0c.7-14.1 1.4-28.1 2.4-42.2 .6-6.6 1.9-13 4.1-18.3l1.2-2.6c.4-.9 1.1-2 1.6-2.6 .9-1.2 1.8-2 2.2-1.9 1 0 1.2 .4 .7 1.7-.1 .9 .3 1.5 .4 2.2 0-1.4 0-2.8 .4-4.3 .9-3.5 6.8-9.1 14-11.5 34.1-10.8 67.9-10.2 101.6-10.3zm57.7 51.1c.7 0 1.4 .4 1.9 1 .5 .6 .7 1.5 .6 2.3l-1 8c-.2 2-1.7 3.6-3.4 3.6l-107.6 1.1c-1.5 0-2.9-.6-4.1-1.7l-.6-.6c-.8-.7-1.1-2-.7-3.1l2.2-6.6c.6-1.7 1.9-2.8 3.5-2.8l0 0 109.2-1.2z"/></svg>