<svg xmlns="http://www.w3.org/2000/svg" viewBox="0 0 560 560"><!--! Font Awesome Pro 7.2.0 by @fontawesome - https://fontawesome.com License - https://fontawesome.com/license (Commercial License) Copyright 2026 Fonticons, Inc. --><path fill="currentColor" d="M128.7 57.5c21.7-.6 43.4 0 65 1.3 10.8 .7 21.6 1.6 32.5 2.8 5.4 .6 10.8 1.3 16.3 2.2l8.3 1.6c1.6 .4 2.8 .6 4.6 1.3 2.5 .6 4.3 2.5 6.3 4 9.3 12.4 16.1 22.8 24.7 33l6.8 7.6c1.2 1.3 1.1 1.3 1.3 1.3 .4 .1 1.2 .3 2.8 .5 5.9 .6 12.9 .6 19.6 .6l81.8 .1 81.8 .8c7.2 .2 12.9-.1 21.2 .5 9.1 .4 18.8 7.5 22.2 15.5 7.2 15.7 6.1 30 6.8 43.7 0 2.7-.1 5.1-.4 7.3 5 .7 10.3 5.3 11.4 8.5 2.1 3.5 2.9 6.6 4 9.8 3.2 12.4 4.1 24.2 4.8 36l-.1 0c2 47.1-1.6 93.6-6.8 139.9-2.7 23.2-6.2 46.2-10.7 69.3-2.4 11.5-5 23-8.5 34.5-1.8 5.7-3.8 11.5-6.6 17.3-1.3 2.9-3 5.9-5.3 8.9-.8 1.5-3 3.2-5 4.8-2.2 1.4-5.2 1.7-7.8 2.6l-312.2-1c-19.5-.1-38.6-.8-53.4-1.9l-7.3-.6c-10-.8-13.4-2.1-8.4-3.1l30.5-6.5c7.8-1.6 26.2-2.7 46.8-2.6l303.3 .9c.1 .7 3.7-3.1 5.7-8.2 2.3-4.8 4.1-10.2 5.8-15.5 3.3-10.9 5.9-22.2 8.2-33.5 4.5-22.8 7.9-45.9 10.6-69 5.1-46.3 8.6-93.3 6.2-139.3-.8-11.3-2-23.2-5.2-32.5-.7-1.9-2.1-4.3-2.2-4.2 0-.1-.4-.2-.4-.2l-3.6 0-17.6 .1c-11.7 0-129.2 .4-352.2 1-120.3 .3-108.6 .3-123.3 .4l-1.9 0-.1 .1c0 .2-1.3 2.6-1.7 4.8-4.7 20.5-3.9 44.9-3.3 67.7 .8 23.2 2.8 46.5 5.3 69.6 5.5 46 12 93.2 27.2 135.8 3.2 8.6 7 16.5 9.8 20 2.6 3.1 2.7 3 2.8 4.2-.5 1.1-1.5 2.3-3.2 3.3-1.5 .6-3.3 1-5.4 1.1-1.6 .2-6.6-3.7-11.1-10.7-4.5-7-8.6-16.9-12-28-13.2-45.4-19.5-91.6-24.3-137.9-2.2-23.2-3.9-46.4-4.3-69.9-.2-11.7-.1-23.4 .7-35.3 .4-6 1-11.9 2.1-18 .4-3 1.4-6.3 2.4-9.5 .8-1.8 1.4-3.3 2.5-5.5 2-1.6 3.3-4.4 5.8-5.1 2.3-.9 5.2-2.1 7.3-1.6l4.8 0c-.2-.2-.3-.3-.5-.4l-.3-.4-1.1-1.8 2.6-6.9c1.5-3.9 7.8-4 10.7-3.8l7.4 0c12.4-.1 69.1-.3 103.7-.5 59.2-.3 177.8-.9 355.5-1.7 1.2 0 2.2 .1 3.4 .2-.4-12.4-1.4-26-7.1-33.1-3-3.4-6.4-4.3-13-4.3l-20-.3-80.1-.8-80.1-.1c-6.8-.1-13.2 .1-21.1-.8-2.1-.4-4.7-.8-7.6-2.5-2.8-1.8-4.4-4.2-5.1-4.9l-6.8-7.7c-8.7-10.4-16.9-22.6-23.8-31.7-.1-.1-.1-.1-.3-.2-.7-.3-2.1-.6-3.1-.9l-7.6-1.4c-5.2-.8-10.5-1.5-15.8-2.1-10.6-1.2-21.4-2-32.1-2.7-21.5-1.3-43-1.8-64.5-1.2-21.3 .8-43.1 2.1-62.5 7.6-9.6 2.4-18.7 8.4-17.3 11.4 .8 11 1 22.2 1 33.1 0 8-.5 15.5-1.3 21.5l-.4 2.9c-.5 4-1.6 5.6-2.8 3.6-2.6-3.9-5-8-7.3-12.1-1.8-3.2-3-10.9-3-19.2l-.3-15.9-.4-7.9c-.1-2.7-.6-4.7 0-9.6 1.7-8.8 8.3-13.4 13.5-16.4 5.5-3.1 11-4.8 16.5-6.4 22-5.6 43.8-6.8 65.5-7.5zm86.4 46.8c.7 0 1.4 .4 1.9 1s.7 1.5 .6 2.3l-1 8c-.2 2-1.7 3.6-3.4 3.6l-108.2 1.1c-1.5 0-3-.6-4.1-1.8l-.6-.5c-.8-.7-1.1-2-.7-3.1l2.2-6.6c.6-1.7 1.9-2.8 3.5-2.8l109.8-1.3z"/></svg>