<svg xmlns="http://www.w3.org/2000/svg" viewBox="0 0 560 560"><!--! Font Awesome Pro 7.2.0 by @fontawesome - https://fontawesome.com License - https://fontawesome.com/license (Commercial License) Copyright 2026 Fonticons, Inc. --><path fill="currentColor" d="M319.4 355.4c8.3 0 16.3 .6 22.6 1.6 1 .2 2.1 .3 3.1 .5 4.2 .7 5.6 1.9 3.6 2.9-4.3 2.1-8.6 4.2-12.9 6.3-3.3 1.6-11.1 2.7-19.7 2.7-41 .1-82.2 .2-123.1 .6-11.1 .2-24.9 .2-33.3 1-15.1 29.5-31.5 75.2-36.5 104.3 .5 .3 1.1 .7 1.7 .8 1.8 .6 4 1.1 6.3 1.6 4.5 .9 9.3 1.5 14.1 1.9 9.8 1 19 1.1 30.2 2.3 1.6 .3 4 .3 6.8 .5 1.4 .1 3 .2 5 .8 1.8 .5 6 2 7.6 7 .9 3.4 .7 5.2 .8 6.8 .6 7 1 15.2 .4 22.9 0 .4-.3 4.1-2.5 6.2-1.9 1.9-3.3 2.3-4.3 2.7-2.1 .7-3.5 .9-4.9 1.2-2.8 .4-5.3 .7-7.8 .8-5 .4-9.9 .5-14.8 .7-35.8 1-71.4 1.4-107.2 1-12.4-.3-21.2 .2-37.3-1.3l-4-1.2-1.1-4.5c-2.2-12.1-3.6-22.4-4.2-34.8-.1-5.1 3.6-8.5 5.4-9.7 2.1-1.4 3.7-2 5.3-2.6 3.1-1.1 5.8-1.8 8.5-2.4 4.1-1 7.8-1.5 10.6-1.6 2.7-.1 4.2 .3 4.2 1.1-.2 2.7-.5 5.5-.9 8.2-.1 2.1-8.3 5.3-16.4 7.6-1 .1-1.8 .6-2.3 1 .5 8.1 1.5 17.2 2.9 25.4 8.1 .1 20 .5 29.6 .5 35.4 .3 71.1 0 106.5-1 4.8-.2 9.6-.3 14.2-.7 2.3-.2 4.6-.4 6.6-.7 .2-5.9 0-11.7-.5-18.2 0-.4-.1-.9-.1-1.3-.1 0-.3-.1-.5-.1-2.1-.2-4.7-.2-7.9-.7-8.5-.9-19.4-1.2-29.4-2.3-5.1-.5-10.2-1.1-15.4-2.1-2.6-.5-5.3-1.1-8.2-2.1-2.8-1.4-6.2-.9-10.3-8.1 4.8-50.2 18.9-79.8 40.5-121.7L153 358c16.9-2.8 26.6-1.6 39.8-2.1 42.2-.4 84.4-.5 126.6-.6zM304.7 11.5c5.6 .1 9.9-.1 16.9 .5l3.7 .6 1.4 3.6c58.8 151.5 117.7 303 176.5 454.5 12 3 27.3 1.8 42.7 11 5.7 5 4.6 7.6 5.3 10.2 .3 2.5 .2 4.8 0 7-.5 5.9-1.1 13.2-2.3 19.6 .2 .8-2 5.7-4 6.8-1.9 1.4-3.3 1.8-4.5 2.2-2.4 .8-4.3 1.1-6.2 1.4-3.7 .6-7.3 .9-10.8 1.1-7 .5-13.8 .8-20.8 1-49.6 1.3-99 1.2-148.5 .8-6.3-.1-12.6-.2-18.9-.3-3.1-.1-6.3-.1-9.5-.3-1.6-.1-3.2-.2-4.9-.3-.9-.1-1.8-.1-2.8-.3-.5-.1-1.1-.2-2.1-.4-.5-.2-1.1-.3-2.4-1-1.3-.1-4.4-5.6-3.9-6.2-.2-2-1.6-6-2.6-10.3-.7-4-2.6-11.1 3.4-17.8 9.9-7.5 15.6-7.2 22.8-9.6 6.9-1.8 13.8-3.4 20.5-5s13.5-3.1 20-4.9c3.2-.9 6.4-1.9 9.2-3 .6-.2 1.2-.6 1.7-.8-.1-.2-.1-.4-.2-.5-4.9-18.3-8.9-36.5-14.5-53.8-2.9-9-5.9-17.6-8.1-23.5-2.2-6-3.2-9.1-2.1-8.9 3.4 .8 6.9 1.9 10.3 3.1 2.7 .8 12.3 18.2 18.2 40.6 3.6 13 6.6 26.1 10 38.8 .3 1.1 .7 1.7 1.6 4.8 .4 8.9-4.6 9.3-6 10.8-2.1 1.2-3.8 1.9-5.7 2.7-3.6 1.4-7.1 2.4-10.6 3.3-6.9 1.9-13.8 3.5-20.6 5.1-6.8 1.6-13.6 3.1-20.1 4.8-6.1 1.6-14.6 4.3-16.3 5.9 0-.4-.6 1.6 .3 4.9 .4 2.2 1.2 4.4 1.9 7.2 1.2 .1 2.5 .2 3.7 .2 4.6 .2 13.9 .4 28 .6 49.3 .4 98.8 .5 147.9-.8 6.8-.2 13.5-.5 20.2-1 3.3-.3 6.6-.6 9.7-1 1.1 0 2.3-.4 3.1-.8 .9-5.4 1.4-10.6 1.9-16.6 .1-1.4 .2-2.9 0-4 0-.2-.1-.4-.2-.6-10.1-5.8-25.5-4.8-41.3-9.6l-3.1-1.1-1.1-3c-58.7-151.2-117.4-302.4-176.1-453.6-3.3-.1-7.3-.2-10.8-.2-19.7-.1-39.6 0-59.4 0L96.3 407.7c-7.2 18.5-14.7 36.1-21.2 49.8-1.1 2.2-2.1 4.4-3.2 6.7-4.4 9.2-6.7 12-5.9 6.9 1.8-10.3 3.6-20.7 5.4-31 1.4-7.9 7.2-25.7 14.7-45.1 49.3-126.4 98.5-252.9 147.8-379.3l1.6-4.2 4.6-.1c21.5 0 43-.1 64.5 .1zM251.8 77.7c2.6 .9 5.2 2.1 7.9 2.3 .2 0 .4 .1 .6 .2 1.8 .5 5.8 7.2 8.8 15.2l0 .1c2.8 8.2 5.5 16.2 8.2 24.2 1.8 5.1 3.7 10.1 5.6 15.3 3.3 9 7 17.7 10.2 27.7 3.4 11.8 7 23.6 10.6 35.4 3.6 12 6.9 23.5 11 34.9 1.6 4.6 3.3 9.7 4.9 13.6 1.9 4.4 3.7 8.8 5.5 13.2 3.9 10.1 8.4 19.9 12.4 30.5 3 8 6.2 15.6 9.3 24 .1 .8 2 3.7-.4 8.3-2.7 3.9-5 4-6.4 4.5-7 1.4-11.1 .9-15.9 1.3-11.6 .7-23.5 1-35.2 1.3-31.7 .6-63.4 1.1-95.2 1.1-4 0-8 0-12-.1-2-.1-4.1-.1-6.3-.3-1.2-.1-2.2-.2-3.9-.5-1-.3-1.7 0-4.5-2.2-1.5-1-3.2-4.9-2.8-6.8 .2-1.8 .5-2.3 .6-2.6 2-5.8 4.1-12.5 6.5-18.7 4-10.7 8-21 11.4-31.6 3.7-11.5 7-23.2 10.3-35.1 1.7-6.1 3.4-11.9 5-17.9 3.1-11.5 6.1-23 9.3-34.6 1.1-3.9 2.2-8 3.5-11.8 4.4-11.9 8.9-21.7 13.7-32.3 .8-1.9 1.7-3.7 2.6-5.6 1-2.1 2.2-4.4 3.1-6 2.5-5 5.1-9.8 7.6-13.6 .6-.9 1.1-1.8 1.7-2.6 2.3-3.6 3.8-4.4 4-2.2 .4 4.7 .6 9.5 .8 14.3 .1 2.1-.6 5.6-2 9.8-1.2 3.3-2.5 6.1-4 9.4-.4 .8-.7 1.5-1 2.3-4.6 10.2-9.5 21.1-13.1 30.8-1.3 3.8-2.3 7.4-3.3 11.3-3.1 11.4-6.1 23-9.2 34.6-1.6 6-3.4 12.1-5.1 18-3.3 11.8-6.6 23.8-10.4 35.7-3.5 10.9-7.6 21.7-11.6 32.2-1.5 4-2.8 7.9-4.1 12 .6 0 1.3 .1 1.9 .1 3.8 .1 7.7 .1 11.7 .2 31.5 0 63.3-.5 94.9-1.1 11.7-.3 23.1-.5 34.8-1.3 2.6-.1 5.6-.2 8-.4-2.4-6.1-4.9-12.5-7.2-18.8-3.8-9.8-8.3-20-12.4-30.2-1.7-4.3-3.5-8.6-5.3-12.8-2.2-5.4-3.6-9.8-5.3-14.5-4.2-11.7-7.6-23.9-11.1-35.4-3.7-11.8-7.2-23.7-10.7-35.6-2.6-8.3-6.4-17.5-9.8-26.7-1.9-5.1-3.9-10.3-5.7-15.6-2.8-8-5.5-16-8.2-24.1l.1 .3c-.8-2.1-1.6-4.2-2.4-6.3-1.5-3.9-2.5-7.2-3.1-10.9 0-.1 0-.3-.1-.4l-.1-.3c-.2-4.4 .9-5 1.6-4.9z"/></svg>