<svg xmlns="http://www.w3.org/2000/svg" viewBox="0 0 560 560"><!--! Font Awesome Pro 7.2.0 by @fontawesome - https://fontawesome.com License - https://fontawesome.com/license (Commercial License) Copyright 2026 Fonticons, Inc. --><path fill="currentColor" d="M64.3-3.7c4.8 0 9.7 .6 14.4 1.8 3.9 1 7.3 3 9.5 5.3 .4 .4 .7 .7 1 1.1 1.4 1.6 1.3 2.9 0 3.3-2.7 .9-5.2 2-7.5 3.3-1.8 1-4.8 .9-7.8 .2-3.1-.7-6.4-1.1-9.6-1-22.2-.4-41.9 19.7-41.2 41.7-.4 22 19.5 41.5 41.2 40.8 21.7 .4 41-19.3 40.3-40.8 0-4.1-.7-8.1-1.9-11.9-.4-1.3-.6-2.7-.4-3.9s.7-2 1.4-2.2c2.5-.7 5-1.3 7.5-1.9 1.9-.4 4.7 2.4 5.8 6.8 1.1 4.3 1.6 8.7 1.7 13.1 .5 16.6-7.9 32.4-20.6 42.7 1 2.4 1.7 6.3 1.7 10.8 .4 119.6 .8 239.1 1.2 358.6 .1 24.1 0 48.2 0 72.3 0 6-.6 11.6-1.7 16.2-.2 .7-.3 1.5-.5 2.2-.7 3-1.9 4-2.9 2.6-2.1-3.1-4.2-6.1-6.3-9.2-1.6-2.4-2.7-8-2.7-14.2 0-23.3 0-46.6-.1-69.8-.5-116.1-.9-232.3-1.3-348.5l-.5 .2c-2.3 .9-4.7 2.3-9.1 3.6-3.1 1-8.5 1.7-11.6 1.6-2.2 .1-4.5 .1-6.9 .1-1.2 0-2.4 0-3.7 0-.7 0-1.4-.1-2.2-.1-1.2-.2-1 .4-5.3-1.4-.5-.2-1-.5-1.6-.8 .1 17.5 .1 35 .2 52.6 .3 101.8 .7 203.9 1 305.8 .1 24.6 .1 49.1 .2 73.6 3.4 .6 9.3 1.2 13.6 1.3 3 .1 5.9 .5 7.9 1.1s3.1 1.4 2.9 2.2c-.8 2.6-1.5 5.1-2.3 7.7-.6 1.9-6.7 3.4-14.3 3-5.5-.6-9.6 0-17.5-3.5-3.6-2-4.5-6.1-4.5-8.2-.1-13.3-.4-140.9-1.2-382.9-.1-19.4-.1-38.8-.2-58.2 0-6.1 .5-12.1 1.5-16.8-13.9-10.2-23.4-26.7-23.1-44.4-.8-29.4 25.6-56.3 55.3-55.7zM512.6 104.1c6.2 .8 13.1 1.3 20.5 4.5 3.6 1.6 7.8 4.4 10.3 9.1 2.5 4.7 2.3 9.9 1.5 13.9-13 61-55.8 108-66 164.1-1.4 8-1.2 14.6 1.7 21.6 19.2 46.7 57.9 85.8 70.3 141.7 1.4 7.1-2.6 15.7-7.8 19.6-5.1 4.2-10.4 6.3-15.6 8-10.4 3.1-20.6 4.2-30.7 4.8-105.8 2.7-210.8 1.9-316.1 2.9-15.4 .1-30.4-.3-42.1-1.2-1.7-.1-4-.3-5.8-.4-8-.6-10.2-1.6-6.7-2.8 7.9-2.3 16.1-4.5 23.9-6.7 6.2-1.7 20.8-2.9 37-3 102.9-.9 206.8-.2 309-2.9 9.4-.6 18.9-1.6 27.4-4.2 8.6-2.5 14.8-7.2 13.6-12.1-10.3-48.1-48.4-88.6-69.5-138.5-3.8-9-4.3-20.3-2.5-29.2 11.8-61.8 54.7-108.4 66.1-164.6 .6-4.6 .3-5-3.8-7.2-4.1-1.8-9.8-2.6-16-3.3-21.5-.1-44.2 0-66.4 0-98 .1-196.1 .2-294.2 .3-7.6 0-15-.3-20.1-.9s-7.8-1.4-7.2-2.2c2-2.6 3.9-5.1 5.9-7.7 1.5-1.9 16.1-3.3 34-3.4 93.9-.1 187.9-.1 281.7-.2 22.4 0 44.4-.1 67.2 0l.6 .1zM42.8 102.7c0 0 .1-.1 .1-.1-.1 0-.1 0-.2-.1 0 .1 0 .1 .1 .2z"/></svg>