<svg xmlns="http://www.w3.org/2000/svg" viewBox="0 0 560 560"><!--! Font Awesome Pro 7.2.0 by @fontawesome - https://fontawesome.com License - https://fontawesome.com/license (Commercial License) Copyright 2026 Fonticons, Inc. --><path fill="currentColor" d="M153.1 16.7l6.6 10.4c1.7 2.7 2.8 9 2.8 16l.2 102 237.9-.4-.1-104.4c0-6.7 .6-13.1 1.8-18.2l.5-2.5c.8-3.4 2-4.6 3.1-2.9l6.6 10.4c1.7 2.7 2.8 9 2.8 16l.2 101.5 117.2-.2c3.3 0 6.5 .4 8.8 1s3.4 1.5 3.1 2.4l-2.4 8 0 0c-.6 2-6.9 3.5-14.6 3.5l-112 .1 .4 237.8 116.7-.2c3.3 0 6.5 .4 8.8 1 2.2 .6 3.4 1.5 3.1 2.3l-2.4 8 0 0c-.6 2-6.9 3.5-14.6 3.5l-111.5 .1 .2 118.7c0 3.3-.4 6.5-1 8.8-.6 2.2-1.5 3.4-2.3 3.1l-8-2.4c-2-.6-3.5-6.9-3.5-14.6l-.2-113.5-237.8 .4 .2 118.3c0 3.3-.4 6.5-1 8.8-.6 2.2-1.5 3.4-2.3 3.1l-8-2.4 0 0c-2-.6-3.5-6.9-3.5-14.6l-.2-113.1-106.3 .2c-6.7 0-13.1-.6-18.2-1.7l-2.5-.5c-3.4-.8-4.6-2-2.8-3.1l10.4-6.6c2.7-1.7 8.9-2.8 15.9-2.8l103.5-.2-.4-237.9-106 .2c-6.7 0-13.1-.6-18.2-1.7l-2.5-.5c-3.4-.7-4.6-2-2.8-3.1l10.4-6.6c2.7-1.7 8.9-2.8 15.9-2.8l103.1-.2-.1-104.8c0-6.7 .6-13.1 1.7-18.2l.5-2.5c.8-3.4 2-4.6 3.1-2.9zm9.6 143.1l.4 237.9 237.8-.4-.4-237.8-237.9 .4z"/></svg>