<svg xmlns="http://www.w3.org/2000/svg" viewBox="0 0 616 560"><!--! Font Awesome Pro 7.2.0 by @fontawesome - https://fontawesome.com License - https://fontawesome.com/license (Commercial License) Copyright 2026 Fonticons, Inc. --><path fill="currentColor" d="M485.1 77.2c2 .4 3.3 3.6 3.1 7.5-.7 10-2.3 20.3-6.8 30.3-4.2 9.9-12.2 19.4-22.7 24.1-21.3 9.2-42.2 4.6-61.1 2.6-19-2.4-38.3-5.7-54.2-1.2-16.1 3.9-24 19.7-26.7 37.4-.2 2-1.1 3.7-1.8 5.4 15.6 2.4 30 11.8 38.3 24.6 .4 .5 .3 1.1 .2 1.7l68.8-.1c9.4 0 18.4 .3 24.8 1 2.8 .3 4.8 .6 6.3 1 .6-.1 1-.3 1.6-.3 40.7-.6 81.7 17.7 108.2 49.1l.1 .1c27.1 31 38.9 74.6 31.9 115.1-.2 1.7-.8 3.2-1.6 4.2-.3 .4-.7 .2-1 .4-.8 4.4-1.5 8.9-2.7 13.2-7.9 28.7-23.5 56.6-48.4 75.2-24.9 18.7-56.8 25-86.7 22.5-30.3-2.6-59.6-15.8-81.8-36.5-11.2-10.3-20.6-22.4-28-35.7-1.7-3.2-4.2-7.7-4.1-6.9-1.3-1-4.1-2.3-7.1-2.9-6.1-1.5-12.9-2.1-19.7-2.2-13-.1-29.1 1.7-37.3 6.9-.5 .3-.6 .5-.7 .6-.1 0 .1 .2-.4 0 .4 .1-.3 .8-.4 1.1l-2.7 5c-1.7 3.4-3.9 6.5-5.9 9.8-4.2 6.3-8.9 12.4-14.2 17.9-20.8 22.5-49.5 37.1-79.6 41.5-29.9 4.6-61.9-.5-88.5-16.2-26.5-15.9-46-41.8-56-70.4-9.4-28.8-11.6-60.2-3-89.9 8.2-29.6 27.5-55.3 51.8-73.6 24.5-18 54.5-28.7 85-29.5l86.8-.4 11.8 0c.1-.1 0-.3 .1-.4 8.9-14.5 25.2-25.8 43.5-26.7l-.2-.2c-1.5-1.5-2.4-4.8-1.8-8.3 1.8-10.1 4.9-20.5 11.3-29.7 6.3-9.3 16.7-16 27.4-18.6 21.5-5.1 41.5-.7 60.5 1.5 18.7 2.4 38.6 5 52.4-2.5 13.8-7.1 18.5-25.8 19.4-43.8 .1-1.5 .5-2.9 1.2-3.9s1.6-1.5 2.4-1.3l8 1.4zM442.4 222.4c-7.4 1.1-20.5 1.8-35.6 1.9-136.4 .2-208.1 .3-215.3 .3-14.4 .1-28.9-.4-42.1 1.3-27.1 3.2-52.9 15.5-73.3 33.5-20 18.4-34.9 42.8-39.3 69.6-4.8 26.6-.9 55.2 9.9 80 11.3 24.6 30.7 45.5 55.2 56.8 24.5 11.1 53 13.2 79.4 6.9 26.4-6.1 50.4-21.5 67.1-42.7 4.1-5.4 7.9-11 11.1-17l2.4-4.5c.6-1.2 3.7-5.9 5.5-6.6 4.4-3.4 8.2-4.5 12.2-5.8 15.5-4.3 30.3-5 45.7-3.6 7.8 1.1 15.3 1.5 24.4 7.5 1.9 .9 5.3 6.1 5.5 6.7l2.4 4.5c1.5 3 3.4 5.8 5.3 8.7 7.5 11.3 16.7 21.4 27.3 29.9 21.1 16.9 47.8 26.6 74.8 26.9 27.1 .5 54.4-7.5 74.1-25.5 20-17.8 32.5-43.3 38.4-70l0 0c6-26.4 4.2-54.7-6.8-79.4-10.5-24.8-29.5-46-52.9-59.2-6.9-3.9-14-7-20.9-9.7-13.9-4.8-28.6-7.3-43.4-6.9-3.2 0-6.3-.6-8.8-1.8l-1.2-.5c-.6-.3-.9-.7-1.2-1.1zm43 127.4c15.7-3.5 34.7 1.8 42.5 19.4 .9 2 .9 4.1 .6 5.9 .2 1.3 .5 2.5 .6 3.8l0 0c-.1 4.1-.2 7.8-1.2 11.8-.1 .3-.3 .6-.4 1 .4 .5 .8 1.1 .7 1.8 .5 17.4-15.9 35.5-35.1 34.9-9.3 .2-19.2-4.1-25.3-11.9-6.3-7.8-7.8-17.7-7.2-26.2 0-.2 .2-.3 .3-.5-.3-1.8-.5-3.6-.6-5.3 .1-1 .6-1.8 .9-2.7 .1-5.5 1-11 3.9-16.7 4.1-8 12.2-13.4 20.3-15.3zM157.2 294.7c5.1 .1 10.1 .7 12.2 4.5 2 2.8 .6 10.7 .8 12.9l-.1 16.1 .1 3.8c.1 .4 .5 .5 .8 .4l12.1-.7c2.9 0 3.6-.2 8.4 .1l0-.1c4.4 .1 8.1 1.3 10.6 4 1.8 3 2 8 2 11.7l-.1 7.1-.3 7.4c0 1.6-.3 3.2-.5 4.7 0 .2 .1 .4 .1 .7l.1 5.1c-.1 2.9 .3 6.3-.2 8.8 .7 6.6-6 6.2-11.8 6.2l-11.5-.5-7.7-.1 .1 1.7c.1 4.9 .4 8.5-.1 14.9 0 .8-.3 1.4-.4 2.2l.1 3.1c0 2.2 .1 4.5-.5 9.1-.6 3.9-2.4 7.6-6.1 8.8-2.9 1.5-9.2 1.1-10.6 1.2l-13.6-.4c-3.9-.1-8.5-.4-12-1.1-2.4 .4-2.3-1.8-2.5-3.7-.3-1.8-.6-3.7-.5-5.9l-.1-6.4-.3-1.9-.1-17.3 0-1.4c-.1 0-.2-.1-.2-.1l-.3 .1-3.1 .4-6.1 .5c-4.1 .2-8.2 .3-12.5-.1-6.5-.1-15.5-3-15.3-10.4l-.3-16.2c0-.5 .3-.9 .3-1.4l-.4-2.9c-.4-3.7-.2-7.3 .2-10.7-.1-2-.2-4 0-6.1 .1-2.1 .5-4.3 1.6-5.6 .3-1 1.9-.5 1.6-2.3l2.5-1c2.3-1.7 10.2-.6 11.3-1l7.1-.2 14.2-.4c.2 0 .4 .4 .5 .4 0-.2 0-.8 0-2.6 .1-5.4 0-10.7-.2-15.9 .3-1.3-1.4-8.7 .2-12.1 1.9-4.1 6.8-5.6 11.6-6.2 7.7-.9 11-.9 18.9-.8zm343.3 70.5c-10.2-2.7-20.7 1.6-22.6 10-.1 .5-.6 .7-.9 1.1-.9 3.6-1.2 7.5-.6 11.7 1.2 10.3 9.9 16.6 19.7 15 9.5-1.4 17-9.4 17.3-20 0-.5 .4-.9 .7-1.4 .1-8.4-4.7-13.9-13.5-16.4zm-359.2-55c-.5-4.4 .7 11.7 .2 23.8l.1 .1c.4 5.7-2.4 10.6-7.1 13-2.2 1.2-5 1.4-7.8 1.3l-4.8 0-16.9 .1c-.9 0-1.5-.3-2.4-.4 0 0 0 .2 0 .2 0 .1 .1 .1 .1 .7l.3 3.4c.4 3.8 1 7.8 1.6 11.4l3.3 .4c2.8 .2 5.7 .2 8.6 .1l4.3-.3c1.3-.1 2.5-.2 5.9-.8 7.9-1.7 14.7 5.3 13.5 13.6l0 7.3c.1 .6 .3 1 .3 1.6l.1 15.8c0 0 0 .2 .1 .1l2.5 .1 13 .4c.5 0 .4-.4 .6-.5l-.7-12.7c-.3-2.9-.1-5.8 .7-8.4l-.4-6.3c-.6-5.6 3.1-10.7 8.2-12.2l8-.5 4.7 0 9.4 .2c2.7 0 1.3 .1 2.1-.1-.1 5.5 .6-19.8 .3-14.8-.1-.2-.4-.1-.5-.1l-5.1 .1-15 .9c-5.2 .5-10-2.6-12-7.2-1.1-2.2-1.1-4.9-1.1-7.7l-.1-4.7 .2-17.3c0-1.4 .3-.8-.8-.9l-8 .2-5.3 .4zm273.5-30.9c15.7-3.5 34.7 1.8 42.5 19.5 .9 2 .9 4 .6 5.9 .2 1.3 .5 2.5 .6 3.8l0 0c-.1 4.1-.2 7.8-1.2 11.8-.1 .3-.3 .6-.4 1 .4 .5 .8 1.1 .7 1.8 .5 17.4-15.9 35.5-35.1 34.8-9.3 .2-19.2-4.1-25.3-11.9-6.3-7.8-7.8-17.7-7.2-26.2 0-.2 .3-.3 .3-.5-.3-1.8-.5-3.6-.6-5.3 .1-1 .6-1.8 .9-2.7 .1-5.5 1-11 3.9-16.7 4.1-8 12.2-13.4 20.3-15.3zM430 294.7c-10.1-2.7-20.7 1.6-22.6 10-.1 .5-.5 .8-.9 1.1-.9 3.6-1.2 7.5-.7 11.7 1.2 10.3 9.9 16.6 19.7 15 9.5-1.4 17-9.4 17.3-20 0-.5 .5-.9 .7-1.4 .1-8.4-4.7-14-13.6-16.4zM284 308c8.5 .3 17.6 1.1 25.7 1.8 7.7 .4 16.4-.2 24.9-.5l0 0c.4 0 .7 .3 .9 1s.4 1.5 .4 2.3l-.1 8c0 2-.7 3.5-1.5 3.6-8.6 .3-17 .9-26.3 .3-8.9-.8-16.8-1.4-25.3-1.8-.7 0-1.3-.7-1.8-1.9l-.2-.6c-.3-.8-.3-2-.1-3.1l1.6-6.5c.4-1.7 1.1-2.7 1.9-2.7zm21.5-111c-10.1 .3-19.5 5.2-26.5 12.7l56.1-.1c-8-8.2-18.6-13.2-29.6-12.6z"/></svg>