<svg xmlns="http://www.w3.org/2000/svg" viewBox="0 0 560 560"><!--! Font Awesome Pro 7.2.0 by @fontawesome - https://fontawesome.com License - https://fontawesome.com/license (Commercial License) Copyright 2026 Fonticons, Inc. --><path fill="currentColor" d="M259 56.6c46.1-5.7 93.6 3.3 135.3 23.5 41.7 20.3 77.6 51.6 104.5 89.2 26.8 37.6 44.4 82.4 47.1 129l-.1 .1c3.5 46.4-6.9 92.9-26.3 134.9-3.6 7.9-7.8 15.2-12.1 22.1-.2 .4-.5 .9-.7 1.3-4 6.8-8.2 13.4-12.8 19.9l-3.5 4.8c-1.4 2.4-4.5 5.7-8.3 6.2-5.3 1.4-8.3 1.8-12.5 2.5-2.5 .4-5.1 .2-7.2-.7l-1-.4c-1.4-.6-2-1.8-1.5-2.9l3-7.1c.7-1.8 2.9-3.2 5.4-3.7 3.1-.5 8.7-1.7 9.5-1.9-.2 .7 2.6-3.5 4.8-6.4 4.2-6.2 8.3-12.5 12.1-19 7.5-13 13.8-26.6 19-40.7 10.4-28.1 16-58 16.8-87.9 .1-1 .5-1.9 1-2.7 0-8.1 .1-16.2-.8-24.1-3.9-43.1-21.4-84.5-47.4-119.2-51.3-69.4-139.7-114.9-226.3-101.6-85.5 12.6-161.6 74.2-199.1 152.2-18.9 39.2-28.9 82.7-28.6 126.1 .3 21.7 2.7 43.4 8.3 64.3 5.2 20.3 14.9 42 25.4 57.2l.2 .1 4.4 .5c3.1 .4 6.6 .6 9.8 .8l20.2 1.1 40.6 1.5 81.5 1.8c54.3 .7 108.7 1 162.9 .2 9.5-.1 18.5 0 24.9 .5 6.4 .5 9.7 1.2 9 2.1l-7.1 8.2c-1.8 2.1-20 4.1-42.1 4.3-51.9 .5-103.8 .3-155.6-.5l-77.8-1.8-38.9-1.5-19.6-1.1c-3.3-.3-6.5-.4-10-.9-1.9-.3-3-.2-5.5-.8L56 484c-.7-.2-1.1-.9-2.1-.7L52.2 482c-28-41.1-37.1-86.8-37.8-133.1-.1-46.1 10.7-92.1 31-133.5 10.1-20.7 22.8-40.2 37.6-57.9 7.2-9 15.7-16.8 24.1-24.6 8.6-7.6 16.3-16.3 25.6-23.1 36.3-28.5 80.2-47.7 126.3-53.3zM165.7 269.8c4.1-2.1 6.8-2.6 10.4-.3 21.2 15.8 64.1 47.7 128.6 95.6 7.1 5.8 14.3 13.8 16.5 24.7 2.2 10.9-1.6 22.1-8.6 29.9-6.9 7.8-16.7 12.6-27.2 13.4-10.7 .8-21.3-3.8-28.6-10.1-4.3-3.6-7.1-7.9-8.9-11.8-3.2-4.3-6.1-8.6-8.5-12.4-11.3-17.2-33.8-51.7-67.6-103.3-.6-.9-.7-2.1-1-3.1l0 0-8.3-12.7c-.6-3-1-5.9 3.3-9.8zm319.1 92.3c.4 0 .9 .5 1.4 1.6l.2 .5c.3 .7 .6 2 .6 3l.2 6.6c0 1.7-.2 2.8-.7 2.9l-32 4.3c-.2 0-.4-.3-.6-.9-.2-.6-.3-1.4-.3-2.3l-.1-8.1c0-2 .3-3.5 .8-3.6l30.4-4zM87.7 364.7c.2 0 .4 .4 .5 1 .1 .6 .2 1.5 .2 2.3l-.4 8c-.1 2-.6 3.5-1.1 3.5l-32.1-1.2c-.5 0-.8-.7-1-1.8l-.1-.5c-.1-.8 0-2 .2-3.1l1.6-6.5c.4-1.6 .9-2.7 1.4-2.7l30.8 .9zM465.5 248.4c.3-.2 .9 .2 1.6 1l.4 .4c.5 .6 1.1 1.7 1.5 2.7l2.4 6.2c.6 1.6 .8 2.7 .5 2.9l-21.5 14.1c-.1 .1-.5-.1-.9-.6-.4-.5-1-1.1-1.4-1.9l-4.3-6.8c-1.1-1.7-1.6-3.1-1.3-3.4l23.1-14.8zM100.4 262.1c.2 .1 .2 .5-.1 1.1s-.7 1.4-1.1 2l-4.5 6.6c-1.1 1.7-2.3 2.7-2.7 2.6L69 263.1c-.3-.2-.3-.9-.1-2l.1-.5c.2-.8 .7-1.9 1.2-2.8l3.4-5.7c.9-1.4 1.6-2.2 2-2.1l24.7 12.2zM392.6 152.3l.5 .3c.7 .4 1.6 1.2 2.3 2l4.3 5.1c1.1 1.3 1.6 2.3 1.4 2.6l-18.5 21.1c-.1 .1-.5 0-1-.3s-1.2-.9-1.8-1.5l-5.6-5.8c-1.4-1.4-2.2-2.8-1.9-3.1l18.5-20.9c.2-.3 .9-.1 1.9 .4zm-242.5 .8l20.8 18.8c.1 .1 0 .5-.3 1s-.9 1.1-1.5 1.8l-5.8 5.6c-1.4 1.4-2.8 2.2-3.1 1.9l-20.6-18.8c-.3-.3-.1-1 .5-1.9l.3-.5c.4-.7 1.2-1.6 2.1-2.3l5.1-4.2c1.3-1.1 2.3-1.6 2.6-1.3zM283.7 91.2l6.4 1.6c1.6 .4 2.7 1 2.7 1.4-.8 10.8-.6 21.6 .8 32.2 0 .2-.3 .4-.9 .7s-1.4 .4-2.3 .4l-8 .5c-2 .1-3.5-.2-3.6-.8-1.4-11.6-1.6-23.3-.5-35.1 0-.5 .7-.9 1.9-1.1l.6-.1c.8-.1 2-.1 3.1 .2z"/></svg>