<svg xmlns="http://www.w3.org/2000/svg" viewBox="0 0 616 560"><!--! Font Awesome Pro 7.2.0 by @fontawesome - https://fontawesome.com License - https://fontawesome.com/license (Commercial License) Copyright 2026 Fonticons, Inc. --><path fill="currentColor" d="M92.5 227c2.7 0 5.3 .6 7.3 1.7l1 .5c1.4 .7 1.8 2 1.1 3.1L97.8 239c-1.1 1.7-3.6 2.8-6.4 2.8l-49.1 .4c-.2-.6-2.9 3-4.4 8.4-1.4 5.2-2.3 10.9-2.7 16.7-.9 11.5-.5 23.4 1.4 34.6 1.1 5.2 2.6 11.3 4.8 14.2 1.2 1 .3 .9 1.3 .9l9.2-.1 36.7-.3c.1 0 .2 .1 .4 .1l1 0 2.2-.1c.3 0 .7 .3 .9 1 0 .1 0 .2 0 .2l5.6 4c1.8 1.3 3.3 4.6 3.8 8.3 2.3 18 5.9 35.8 12.2 52.4 1.6 4.1 3.3 8.2 5.3 12l1.5 2.9 3.1 5.4c.5 1.8 3.5 3.9 1.9 5.4l-4.5 4.6-20.9 21.1-4.9 4.9-2.5 2.5c-.3 .2-.2 .3-.2 .4 0 .3 .3 4 2.4 7.2 3.6 7.1 9.4 14 15.3 20.4 6 6.4 12.7 12.4 19.7 17.3 3.5 2.5 7.1 4.6 10.5 6.1 1.5 .5 3.4 1.1 4.1 1.1 .6 0 .5 .1 .6 0l32.1-32.8c1.3-1.3 2.7-2.3 4-2.7s2.4-.3 2.9 .4l3.2 4.6c2.2 .3 4.6 .8 7.2 2 12.6 5.4 25.6 10 38.8 13.7 6.6 1.8 13.2 3.5 19.9 4.8l15.9 2.7 .1 16.3 .2 42.1c.1 1.8-.2 .7 1.9 2.3 1.8 1.2 4.9 2.2 7.7 3 6 1.6 12.7 2.3 19.3 2.7 13.1 .6 27.2-.1 38.8-3.7 2.8-.9 5.5-2.2 6.4-3.1 .8-.8 .3 1 .5-4-.2-32.3-.2-51.8-.2-58.6 5.2-2.5 14.3-3.6 15.9-4.4 13.2-3.4 25.9-7.9 38.1-13.7 2-1 4-1.5 5.6-1.7l.1 0c1.6-.1 2.7 .3 2.9 1.1l2.1 8c.5 2-2.8 5.4-7.8 7.7-13.1 6-26.8 10.5-40.7 13.9-.9 .3-1.3 .1-1.2 .9l.1 8.1c0 13.9 .1 27.9 .2 41.8-.2 2.6-1.3 6.2-2.6 8.9-2.1 2.4-4.2 4.6-6.1 5.5-4.1 2.5-7.8 3.6-11.6 4.7-14.9 3.7-29.4 4.3-44.1 3.2-7.3-.5-14.7-1.6-22.3-3.9-3.8-1.2-7.8-2.7-12-6.2-5.3-3.2-5.7-13.4-5.6-15.1l-.2-41.8c0-2.6 .1-1.1-.1-1.6l-6.2-1.1c-7.1-1.4-14.1-3.2-20.9-5.2-13.7-4-27.2-8.8-40.3-14.6-1.3-.6-2.4-1.3-3.6-1.9l-28.2 28.7c-3.6 2.3-7.6 4.4-11.6 3.8-3.6-.3-6.3-1.3-8.9-2.3-5-2.2-9.4-4.9-13.5-7.7-8.1-5.8-15.3-12.3-22-19.5-6.6-7.2-12.9-14.7-17.7-24.3-1.9-4.4-5.8-10.9-1.8-19.7 2.3-4.8 4.2-5.7 5.6-7.4l4.9-5 17.6-17.8c2 3.4-5.7-10.3-8.3-18.5-6.7-18-10.2-36.6-12.6-55.1L44 332.8c-.5 0-1-.6-1.4-1.3-.8 0-1.3 0-2.2-.1-5.5-.6-10.5-5.1-11.9-8.4-4.1-6.9-5.2-13.3-6.5-19.7-2.1-12.7-2.4-25.3-1.4-38 .5-6.3 1.5-12.7 3.4-19.3 1-3.3 2.2-6.7 4.5-10.3 .7-1.7 3.1-3.7 5.1-5.5 2.3-1.5 5.4-1.8 8.1-2.8l50.9-.4zM492 162.2c1.9-.8 5.2 1.4 7.6 5.3 11.1 17.9 19.8 37.5 25.2 58 1.1 4.2 .1 2.3 2.1 2.7l15.4-.1 31.3-.2c2.7 1.1 5.9 1.3 8.2 3.3 2.4 2.2 3.9 4.1 4.7 5.8 2.2 3.6 3.2 7 4.5 10.4 1.9 6.7 3.4 13.3 4.1 20l.1 0c1.6 13.3 2.2 26.6-.5 40.5-1.5 6.7-2.8 14.7-11.5 21.7-1.8 1.9-5.4 2.3-8.2 3-2.7 .4-3.5 .2-5.4 .3l-9.5 .2-38.1 .7c-.1 .8 .1 1.5-.2 2.4-5.4 20.5-13.6 40.3-24.3 58.7-.4 .8-.6 .8-.5 1.1l2.2 2.2c5.4 5.3 16.6 16.4 33.4 33.1 1.2 2.7 3.2 5.1 3.5 8 .1 2.4 0 4.4-.3 5.9l-1.2 4.3c-.9 2.7-2.1 5-3.2 7.5-3.3 6-6.9 11.6-11 16.8-8.1 10.4-16.9 20-28.2 28.1-5.8 3.7-11.9 8.1-22 8.3-2.7-.2-5.2-.4-7.9-2.2-1.3-.7-2.6-1.6-3.7-2.5l-1.7-1.7-6.6-6.7-26.4-26.7c-2.6-2.7-4.8-5.7-6-8.5l-.6-1.4c-.8-1.9-.4-3.3 1-3.3l8.8-.5c2.3-.1 5.5 1.6 8.3 4.4l26.2 26.4 6.6 6.6c2 1.7 1.4 1 3.2 1.4 3.4-.2 8.5-3.1 13-6.2 9.1-6.7 17.4-15.5 24.5-24.8 3.6-4.6 6.7-9.6 9.4-14.5 2.7-5.1 3.6-10.2 2.9-9.2l-22.1-21.8-11.3-11.1c-1.8-2-7.5-6.7-9.5-10.1l7-11.6c10.2-17.7 17.7-36.8 22.7-56.6 .1-.2 .2-.4 .3-.6l0-.2 .1-.1c.5-1.3 1-2.7 1.7-3.5 .8-.9 1.6-1.2 2.3-1l1.8-2.1c1.5-1.7 5.1-2.9 9.1-2.9l37.8-.8c5.9-.1 14.5 0 13.9-1.2 2-1.7 4.3-7.3 5.1-12.8 2-11.2 1.6-23.6 .1-35.4-.7-6-2-11.7-3.6-17.2-1.7-5.5-4.8-10-4.5-8.8-51.9 .3-49.7 .3-58.7 .3l-.8-3.7-2.8-11.6c-5.3-19.4-13.8-38-24.7-55-1-1.5-1.7-3.1-1.8-4.5-.2-1.4 .2-2.4 1-2.7l7.5-3.3zM314.2 180.5c23.7 2.5 46.1 12.4 64.3 27.6 18.3 15.5 30.2 38.7 32.2 62.7 2.5 24.1-4.9 48.2-17.9 68.1-12.6 20.2-34.2 35.3-57.5 41.1-23.1 5.8-48.3 4.4-70.4-5.4-3.6-1.5-6.8-3.7-8.8-5.6-2-1.9-2.6-3.3-1.9-3.9l6.6-5.4c1.6-1.3 7.9 .7 15.2 3.3 19.3 7.1 41 7.2 60.7 1.2 19.7-5.6 35.7-20.2 46.3-37.6 21.9-34.9 16.7-85.5-17.5-109.8-32-26.4-80.9-29.4-115-7.5-16.5 11.7-29.4 28.9-32.8 48.5-3.9 19.6 .6 40.7 10.1 58.8 3.1 6 6.3 11.7 8.6 16.6l1.2 2.4c1.7 3.2 1.5 5-.4 4.3-4-1.4-8.2-3-12.2-5-3.2-1.4-8.1-6.9-11.7-14.2-10.5-20.9-14.8-45.6-9.4-69.2 5.4-23.9 21.5-43.6 41.6-56.7 20.9-12 44.9-16.8 68.5-14.4zM291.9-6.9c12.2-1.8 24.3-2.3 36.9-1 6.2 .6 12.7 2 19.4 4.9 3.5 1.8 7.1 4 10 8.6 1.4 2 1.9 5.1 2.4 7.8 .3 2.3 .1 3.2 .1 4.8l.2 34.9c0 1.2-.1 2.4-.2 3.7l.1 9.3c20.4 5.3 40.5 12.3 59.3 22.6l3.5 2c.3 .2 .5-.3 .7-.5l11.3-11.5 23.2-23.4 6.3-3.3c2.3-.5 4.9-.3 6.8-.2 3.2 .8 6.5 1.7 8.9 2.9 5.4 2.3 9.9 5.2 14.4 8.2 8.9 6.1 16.9 12.9 24.3 20.7 7.1 8.1 14.7 15.7 18 29.5 .5 3.4 .9 8.4-1.9 12.4-3 5.1-4.3 5.3-6.2 7.5L519 143.9c-2.4 2.4-5.2 4.4-7.8 5.4l-1.3 .5c-1.8 .7-3.1 .3-3.2-1.1l-.9-8.5c-.2-2.2 1.3-5.3 3.8-7.8l10.5-10.6 2.7-2.7c.2-.6 .1-.7 .5-.9 0-.8 .5-1.6-.2-3.4-1.7-6.8-8.1-14.9-14.5-21.5-6.6-6.8-14-13-21.7-18.3-3.8-2.6-7.9-5.1-11.8-6.7-2-1.1-3.7-1.3-5.3-1.8-1 0-.7-.1-1.1 .2-16.9 17.1-28.6 28.9-35 35.5-3.8 3.1-7.2 10.3-12 4.6l-6.3-3.9-3.4-1.9c-18.5-10-39-16.9-59.8-21.9-1.3-.3-2.5-.9-3.4-1.6-1.3-.3-2.3-.7-2.3-1.2l-.7-39.3c0-.1 .4-.3 .6-.4L346 16.8c1.9-6-9.3-8.9-19.8-10.1-10.6-1-21.8-.5-32.6 1.1-5.4 .8-10.7 2-15.5 3.7-2.4 .8-4.6 1.8-6.3 2.8-1.6 1.2-1.1 .7-1.3 1.3l.3 46.2 0 8c-.3 3.5 1.5 8.6-3.6 8.5-8.8 2.5-10.6 3.2-14.4 4.5-7.1 2.5-14 5.5-20.7 8.8-6.7 3.4-13.3 7.1-19.6 11.1l-4.7 3.1-7.4 5.2-4.7 3.3c-1.6 .9-2.8-2.1-4.2-2.9l-7.2-7.1-33.3-32.9c-1.6-1.6-2.8-3.3-3.4-4.8-.1-.3 .1-.4 .1-.7l-.7-.7c.4-1.4-9.7 1.8-15.7 6.8-6.8 4.8-13.1 10.6-18.9 16.8-5.8 6.1-11.3 12.8-15.2 19.7-1.9 3.3-3.4 7.1-3.4 9-.1 .7-.1 .7 .1 .9l4.5 4.4 39.8 39.4 4.7 4.6c1.3 .7 .2 1.7-.3 2.6l-1.8 2.7-5.5 8.6-6.4 11.2c-4.1 7.6-7.7 15.4-10.9 23.4-.6 1.5-1.5 2.7-2.5 3.5s-2 1-2.7 .5l-7.1-4c-1.8-1-2-4.6-.5-8.2 3.5-8.3 7.4-16.5 11.7-24.4 2.2-4 4.5-7.9 6.8-11.7 1.1-1.6 .9-1.5 .2-2.1l-37.1-36.7-2.4-2.3-1.2-1.1c-.8-.6-1.1-1.8-1.7-2.6-2.6-3.4-3.2-7.7-2.7-11.3 1.2-6 3.5-10.7 6-14.8 5-8.4 10.9-15.5 17.3-22.1 6.4-6.6 13.2-12.9 21-18.4 4-2.7 8.2-5.2 13-7.4 3-.8 5-2 9.1-2.1 4.1-.6 7.9 1.9 11.7 4L177 74.1c1.8 1.8 3 4 4.1 6L196 94.9c.4 .6 .8 .6 1.3 .1l9.2-6.1c6.7-4.1 13.6-8 20.7-11.4s14.4-6.5 22-9.1l6.8-2.2c.2-.1 .1-.4 .1-.6l0-4.6-.2-46.6c.9-2.6 1.5-5.3 2.8-7.7 1.9-2 3.9-4.2 5.5-4.8 3.3-2.1 6.5-3.3 9.6-4.4 6.2-2.1 12.3-3.4 18.3-4.3z"/></svg>