<svg xmlns="http://www.w3.org/2000/svg" viewBox="0 0 504 560"><!--! Font Awesome Pro 7.2.0 by @fontawesome - https://fontawesome.com License - https://fontawesome.com/license (Commercial License) Copyright 2026 Fonticons, Inc. --><path fill="currentColor" d="M120.3 14.5c15.2-8.4 34-7.3 48.8-1.4 30.1 12.2 51.6 35.7 68.7 60.5 3 4.1 4.8 8.7 5.9 12.4l.5 1.8c.7 2.5 0 3.9-1.6 3.4l-9.6-3c-2.4-.7-5.6-4-8.5-8-16.2-23.3-37.2-45-62.7-54.2-12.6-4.6-26-3.6-36.9 2.8-11.1 6.2-19 18.1-25.7 30.1-6.3 12-8.6 25.3-4.6 36.9 3.9 11.7 13.9 21.3 25.5 28.3 22.5 13.4 49.8 19.7 76.7 21.4l38.8 .1-.9-2.3c-.9-2.6-.8-8.3 1.6-13.9 12-32.9 30.6-63.3 55.9-88.2 12.8-12.1 27.7-23 45.5-28.8 17.5-6.2 39.8-3.9 54.8 8.6 14.8 12.5 24.5 27.5 31.2 45.1 6.9 17.6 3.2 40.9-10.4 55.2-10.8 11.7-24.2 19-37.9 24.5 29.7 .1 57.4 .1 83.1 .2l17.3 0c.1 0 .3 .1 .3 .1l.2 0c.1 0 .1 .1 .2 .1 1.2 0 2.6 .2 3.8 .5 1.1 .2 2.1 .8 3.1 1.4 .2 .1 .4 0 .6 .2 .1 .1 .1 .1 .2 .2 1.5 1 2.9 2.2 4 3.4 .3 .4 .5 .7 .8 1.1 .8 1 1.4 2 2 3 .3 .5 .7 1 1 1.4 0 .1 .1 .2 .1 .3 0 .1 .1 .1 .1 .2 1.6 3.2 2.9 6.4 3.9 9.5 .1 .1 .1 .3 .2 .4 .1 .3 .1 .6 .2 .8 .7 2.2 1.3 4.4 1.9 6.6 .9 3.7 1.5 7.4 2.2 11.1 .2 1 .4 2 .6 3 .9 5.3 1.6 10.7 2.1 16.1 .1 1.2 .3 2.5 .4 3.7l-.1-.1c.8 11.5 .6 23.2-.8 35.1-.3 2-.7 4-1.2 6l0 .2c-.1 .6-.5 1.3-.7 1.9-.4 1.3-.8 2.6-1.3 3.9-.6 1.8-.9 3.6-1.9 5.5-1.7 3.5-6 9.4-12.9 10.3-4 .8-4.4 .2-6.4 .4l-1.1 0-1.9 6.9c-.6 2-6 3.6-12.6 3.6l-153.5 .8 2.1 247.5c0 1.6-.5 2.8-.8 4.3 16.2-.4 32.5-.5 48.8-1.1l54-2.2 27-1.3c8.2-.6 21.6-.8 18.2-1.3 4.8-13.4 5.4-33.2 6.3-50.4 .7-17.8 .9-35.8 .7-53.8-.3-35.9-1.5-72-3.1-107.9-.3-5.9-.2-11.5 .2-15.5 .4-4 1.2-6 2.1-5.6l8.3 4.1c2 1 4.2 12.3 4.8 25.9 1.6 35.9 2.7 71.9 2.7 108 0 18-.2 36.1-1.2 54.2-.5 9.1-1.2 18.2-2.4 27.4-.7 4.7-1.4 9.3-2.8 14.2-.8 2.7-1.2 4.4-3.5 8.5-2.4 3.4-6 5.4-10.1 6-73.2 4.1-144.1 6.6-216.3 7.1-36 .2-72-.1-107.9-.9l-54-1.6-26.9-1.1-6.8-.3c-.6-.1-3.7 0-5.5-.6-1.6-1.5-4.1-1.3-5.3-3.3-6.5-7.3-5.8-11.6-7.4-16.4-6.7-37.2-6.5-72.8-7.4-109-.4-27.6 0-55.3 .2-82.9 0 0-.1-.2-.1-.2l.1-63.1c-4.4-.4-8.5-2.7-10.7-5.3-2.7-3-3.9-5.8-5.3-8.7-2.3-5.7-3.4-11.1-4.3-16.5-1.7-10.8-2.1-21.4-2-32 .2-10.6 .9-21.1 2.5-31.7 .9-5.3 1.9-10.6 3.6-16.1 .9-2.8 1.9-5.5 3.6-8.6 2.3-4.4 6.5-7.5 11.3-7.8l107 .2c-6.8-3-13.5-6.5-20-10.6-12.9-8.5-25.3-21-29.7-37.8-4.5-16.8 .7-33.8 7.9-47.6 7.8-13.2 17.4-27 32.8-34.8zM47.2 284.9c-3.1 0-6.1-.2-8.9-.5l0 51.9c0 0-.1 0-.1 .1-.3 29-.6 58.1-.1 87 .3 18 .8 35.9 1.8 53.8 1.2 17.6 2.2 36.3 6.5 51.8 1.8 4.5 .8 3.1 2.5 3.6l13.5 .6 27 1.1 54 1.6c17.7 .4 35.5 .2 53.2 .3-.6-1.4-1.1-3.1-1.1-5l-2.4-232.3c0-1.6 .3-3.1 1-4.2s1.5-1.6 2.3-1.4l8 1.3c2 .3 3.6 3.4 3.6 7l2.2 230.8c0 1.4-.5 2.6-.8 3.9 14 0 28 .4 42 .3 15.5-.1 31.1-.7 46.6-1-.7-1.6-1.3-3.6-1.3-5.9l.1 0-2.2-246.1-247.4 1.3zM24.3 160l0 0c-9.7 15.4-12.4 84.8 .5 97.5 49.2-.3 98.5-.6 147.8-1l-.4-95.8-137 0c-3.1 0-6-.3-8.3-.8l-2.5 0zm307.7 .8l.6 95.2c40.3-.1 80.7-.3 121-.2 8 0 15.6 .4 21.1 1 1.5 .2 2.2 .4 3.3 .6l1.7 0 0 0 2.4 0 .5-.1c.3-.1 .4-.2 1-.8 2.3-2.6 4-9.1 4.8-14.9 1.3-11.7 1.4-24.1 .3-36.3-.2-1.8-.5-3.6-.7-5.4-.5-4.1-1.1-8.1-1.9-12.1-.3-1.7-.7-3.3-1.1-4.9-1.2-5.1-2.4-10.1-4.1-14.8-.8-2.1-1.8-3.9-2.8-5.5-.2-.3-.4-.6-.5-.8-.2-.3-.5-.6-.6-.7-.1-.1-.3-.3-.4-.3-.1 0-.2 0-.4-.1l-144.2 0zm-145.1 0l.6 95.6c43.4-.3 86.8-.3 130.3-.4l-.4-95.2-130.4 0zM381.1 31.1c-12-8.4-27.4-9.1-41.7-3.7-14.4 5.3-27.4 15.2-39 26.4-22.9 23-40.1 52-51.1 82.7l0 0c-1.2 3.2-2.4 6.2-3.7 9.1l67.6 .1c1.4-.3 2.9-.6 4.6-.8 16.4-2 32.6-5.5 47.9-11 15.1-5.6 29.7-13.6 38.7-25.3 20.1-22.9-1.2-60.6-23.3-77.5z"/></svg>