<svg xmlns="http://www.w3.org/2000/svg" viewBox="0 0 560 560"><!--! Font Awesome Pro 7.2.0 by @fontawesome - https://fontawesome.com License - https://fontawesome.com/license (Commercial License) Copyright 2026 Fonticons, Inc. --><path fill="currentColor" d="M272.9 21.1c1 .1 1.5 .2 2.3 .3 9.5 0 19.1 .4 28.6 1.3 .3 0 .6 0 .9 0 .5 0 1.1 .2 1.6 .2 2.9 .3 5.7 .3 8.6 .7 .2 0 .4 .5 .6 .7 69.8 9 134.8 48.2 175.8 105.4 21.7 30 37 64.7 43.9 101.2l0-.1c3.2 18.5 5.4 36.2 4.4 55.9-1.8 18-3.6 35.9-6.8 54.3-.5 3-1.5 5.9-2.7 7.8-.7 1.2-1.4 1.8-2 2.2-11.8 42.3-34.7 81.2-65.5 112.5-33.6 32.9-75.7 57.3-121.7 68.1-45.7 11.8-94.4 9-139.4-4.5-37.3-12.1-71.6-32.8-100-59.9-.3-.1-.7 0-1-.2-16.9-12.7-29.4-28.9-40.3-45.9-10.7-17.2-20-35-25.1-55.9-.1-.3 .2-.5 .1-.8-19.8-57.6-20-122.1 3.1-179 33.8-88.6 119.4-154.5 214.1-163.9 7.7-.6 15.1-.5 20.3-.2zM242.5 37.9c-88.1 12.7-166 77.9-193.7 162.5-2.7 7.6-4.5 15.5-6.3 23.4 1.8-.4 3.8 .4 5.7 2.2 5.6 5.6 13.8 10.4 21.7 15.9 7.3 5.4 17.9 11.9 20.9 24.7 2.7 11.2 .9 21.7-.7 31-1.6 9.2-3.3 18.4-.4 22.7 4.7 8.4 8.9 16.2 14.4 21.6 3.2 4.3 16.1 6.5 23.6 16.5 8.6 9.4 8.9 24.4 4.9 34.2-3.6 10.5-9.5 18.9-15.7 26.7-2.1 2.6-4.6 4.5-7.1 5.6l-1.2 .5c-1.7 .7-2.9 .2-3.2-1.1l-1.6-8c-.4-2 .5-4.9 2.5-7.3 11.1-13.5 19.8-32.1 9.3-42.1-2.7-2.4-5.7-4.9-9.6-6.5l-2.9-1.4c-1.5-.7-2.9-1.4-4.2-2.3-2.5-1.7-4.8-3.6-6.6-5.7-7.5-8.3-11.7-16.6-16.6-25.6-5.1-13.5-.9-23.2 .1-32.3 1.5-9 2.4-17.6 .1-24.4-1.4-5.2-9-10.8-16.5-15.8-6.4-4.4-13.3-8.5-20-14.7-5.2 30.8-4.6 62.7 1.5 93.2 9.6 43.2 30.5 83.8 61.1 115.9 18.9 20.4 41.7 36.7 66.4 49.3 .8-1.5 2-2.9 3.8-3.9 8-4.4 16-7.3 22.8-11.1 7.1-3.6 11-8.2 16.3-15.2 10.1-12.7 16.2-26.7 14-41.7-1.7-15.2-9.6-28.7-17.7-44.8-5.3-9.8-3.1-22.3-.4-30.2 2.7-8.5 5.6-16.3 8.4-24.3 .5-1.3 1.2-2.4 2.2-3.1s1.9-.8 2.6-.4l7.2 3.7c1.8 .9 2.3 3.9 1.3 7-4.9 16.1-14.3 31.9-7 42.9 7.3 14.3 16.7 30.6 18.3 49.5 2.2 19.3-7.1 38.4-18.2 51.6-4.5 6.6-13.1 15-21.2 18.6-6.4 3.4-12.5 6-18 8.8 50.7 21.9 108.6 26.9 161.9 11.4l0 .1c85.5-22.9 155.4-95.7 173.4-182.5 1.1-5.6 2.1-10.9 3.1-16.2 1.5-11.9 2.8-23.8 3.9-35.7l-1.2-25.5-4.1-25.8c-7.3-34-22.1-66.3-42.7-94.1-9.1-12.3-19.5-23.6-30.8-34-2.5 1.3-7 2.4-12.1 3.7-16.1 3.9-29.1 16.1-32.4 32.6-2.2 8.4-3.2 17.9-6.7 27.7-3.2 10-11.1 19.4-19.8 24.7-17.6 10.7-34.1 15.6-42.7 30.2-9.2 13.7-11.5 31.4-5.5 46.7 2.9 7.6 7.6 14.6 13.5 20.1 5.6 5.6 13.8 8.5 22.7 15.9 8.9 7.6 13 19.3 14.1 29.5 1.1 10.2 .5 19.8 .5 28.8-.6 18.3 3.6 33.3 18 41.5 13.9 8.7 32.7 12.2 50.7 20.7 2.9 1.5 5.6 3.2 7.2 5 1.6 1.7 2.1 3 1.4 3.6l-6.4 5.5c-1.6 1.4-6.8-.1-12.9-2.7-16-7.2-35.1-10.2-52.2-22.6-8.5-6.1-15.2-15.8-17.9-26.1-2.9-10.3-2.6-20.2-2.6-29.5 .6-18.6 .6-36.4-12.3-44.7-6.3-4.4-16.4-9.3-23.4-17.2-7.1-7.6-12.5-16.7-15.5-26.7-6.5-20-1.9-42.8 10.7-59.3 12.6-17.9 34.5-23.5 46.9-32.7 13.4-8.5 13.8-25.5 18.9-45.3 5.2-20.8 24.1-37 44.8-40.8-37.5-30.1-83.4-49.4-131.4-52.9-14.3-1.2-28.7-1.6-43.1-.9-.4 0-.7-.3-1-1l0-.2c-4.6 .7-9.7 1.4-15.3 2.5zM218.7 48.1c2-.6 5.7 3 9.3 7.6 8.3 10.8 19 19.8 31 26.2 6 3.2 12.4 5.7 18.9 7.5 2.6 1.1 8.1 1 13.4 6.4 2.3 2.5 3.4 5.9 3.5 9.2 .1 2.9-.3 4.7-.6 6.7-4.5 32.1-28.2 59-58 70-14.6 6.4-33.6 4.4-42.7 6-9.6 4-14.2 16.6-15.3 30.5-2.6 17.9-11 29.4-17.1 43l-9.9 19.5-4.6 9.6-2 4.5c-.1 .3-.1 .2-.1 .2 .5 .5 2.5 2.5 4.8 3.7 3 1.7 6.4 3.3 10 4.7 7.2 2.8 15 5 22.8 7.1 5.2 1.4 10.2 3.2 14.1 5.3l1.9 1c2.6 1.5 3.2 2.9 1.6 3.6l-10 4.2c-2.5 1.1-7.9 .9-13.5-.6-7.7-2.1-15.6-4.4-23.3-7.5-3.9-1.6-7.8-3.3-11.6-5.7-3.6-2.4-8.2-4.8-11.5-12.1-.5-3.1 .2-6.6 1.1-9.5l2.4-5.5 5-10.2 10.1-19.8c6.1-13 14.6-26.5 15.4-38.7 1.4-14.4 6.7-35 26.4-42 8.9-1.8 17.7-1 23.7-1.5 6.6-.7 13.1-2.3 19.4-4.6 24.9-9.8 44.6-34.2 46.8-60.3 .1-2.4-.1-.9-.2-1.4-1.1-.5-6-1.6-9.6-2.8-7.6-2.4-15-5.7-21.9-9.7-13.8-8-25.9-19-35-32.1-1.7-2.4-2.9-5-3.3-7.1-.5-2-.2-3.3 .7-3.5l8.1-2.1z"/></svg>