<svg xmlns="http://www.w3.org/2000/svg" viewBox="0 0 504 560"><!--! Font Awesome Pro 7.2.0 by @fontawesome - https://fontawesome.com License - https://fontawesome.com/license (Commercial License) Copyright 2026 Fonticons, Inc. --><path fill="currentColor" d="M468.3 302.8c2.4 .1 4.9 .2 7.5 .4 1.3 .1 2.6 .2 4 .4 .8 .1 1.5 .2 2.7 .5 .6 .2 1.3 .3 2.8 1.3 1.7 .4 3.8 5.9 3.4 6.1 .6 12.8 2.9 26.2 3.2 40.3 .8 43.1 .8 86.1 .8 129.1 0 5.7 0 11.3-.1 17 0 6.4-.1 10.7-.3 13.2-.1 .8-.1 1.6-.3 2.8-.1 .6-.2 1.3-.8 2.7 .2 1.3-5.4 5.4-6.5 4.8-13.2 1-24.4 1-36.5 1.6-49.2 2-98.5 2.3-147.7 .5-2.6-.1-5.7 .1-9.7-.5-4-.5-9.2-2.8-12.2-6.5-2.8-3.7-2.1-4.7-2.4-5.6-.1-.8-.2-1.6-.2-2.2-.1-1.4-.2-2.6-.2-3.9-.1-2.5-.2-4.9-.2-7.4-.1-4.8-.2-9.6-.2-14.5-.4-37.7-.4-75.4-.4-113 0-7.4 0-14.8-.1-22.3 0-9.8 .5-19.3 1.6-26.9 .2-1.2 .3-2.4 .5-3.7 .7-5 1.9-6.8 3-4.3 2.1 5.1 4.2 10.2 6.3 15.3 1.6 3.9 2.7 13.2 2.8 23.5 0 6.1 0 12.2 .1 18.2 .1 37.6 .1 75.3 .4 112.9 .1 4.8 .1 9.6 .2 14.3 .1 2.4 .1 4.7 .2 7.1 .1 1.2 .1 2.3 .2 3.3 0 .1 0 .3 0 .4 1.8 1.2 5.2 1.2 10.9 1.3 48.8 1.7 97.8 1.5 146.6-.6 10.1-.5 20.9-.8 30.5-1.3 0-.4 0-.9 .1-1.3 .1-2.8 .1-5.6 .1-8.4 0-5.6 0-11.3 0-17 0-42.9-.1-86-.9-128.8-.2-11.1-2-22.5-2.8-34.6-2.3-.1-4.7-.2-7-.3-4.8-.2-9.5-.2-14.4-.3-41.1 .7-83.5 2.1-125.3 3.3-4.9 .1-9.6-.1-12.9-.6-3.3-.5-5.1-1.3-4.6-2.1 1.1-2.6 2.4-5.2 3.5-7.8 1-1.9 10.2-3.7 21.6-4 39.2-1.1 78.2-2.5 117.9-3.1 4.9 .1 9.8 .2 14.7 .3zm-275.7 .8c5.6 .1 11.1 .1 16.7 .2 2.8 .1 5.6 .1 8.5 .3 1.4 .1 2.9 .1 4.4 .3 .8 .1 1.6 .2 2.6 .3 .5 .1 1.1 .2 2.1 .5 .5 .2 1.2 .4 2.5 1.3 1.5 .7 3.2 4.9 3 5.3 .5 4.2 .4 8.1 .4 11.7-1.1 59.1 3.5 119.1-3.8 179.3-.2 1.4-.3 2.8-.5 4.3-.1 .7-.2 1.5-.4 2.5-.1 .5-.2 1-.5 2-.2 .5-.4 1.1-1.2 2.4-.5 1.2-3.9 3.7-6.4 3.5-8.6 .1-16.1-.3-24.1-.6-46.6-2.2-93.5 .2-140.8 1.3-2.1 0-4.3 .1-6.4 .1-7.5-.1-14.7-.4-20.5-1.1-1.2-.1-2.4-.3-3.6-.4-2.4-.3-4.2-.6-4.5-1.1-.6 .3 2.9-2.4 1-1.3-1.9 .7-1.2-.1-.8-.3 4.8-2.4 9.9-4.6 15-6.9 2.5-1.1 7.2-2 13.1-2.6 3.2-.3 6.7-.5 10.4-.6 45.6-1.1 91.6-3.4 137.7-1.2 5.9 .3 12.2 .5 18 .5 .1-.7 .2-1.4 .3-2.1 7.1-58.4 2.6-117.9 3.6-177.9 0-1.7 0-3.3 0-4.9-.5 0-1-.1-1.4-.1-4-.2-12.2-.4-24.6-.5-43-.3-86.4-.2-129.4 .5-12.8 0-25.8-1-34.8 1.7 0 .7 0 1.5-.1 2.2 0 2.5-.1 5-.1 7.5 0 5.1-.1 10.1-.1 15.3-.1 36.1-.1 72.5 1.2 108.3 .7 5.2 1.4 10.4 2.3 15.4 .8 4.7 1.3 8.7 1.7 12.1 0 .5 .6 2.4-.2 5.1-1.5 2.9-2.6 3.4-3.1 2.9-1.5-1.8-3-3.7-4.7-5.1-.5-.1-1 .1-1.5 .1-1.9 .6-6-9.5-7.5-20.7-.4-2.8-.8-5.5-1.1-8.3l0-.5c-1.3-36.6-1.3-72.9-1.2-109.3 0-5.1 .1-10.2 .1-15.3 0-2.6 0-5.1 .1-7.7 0-1.3 .1-2.6 .1-4 0-.7 .1-1.4 .2-2.3 .1-.5 .1-1 .3-1.8 .3-.6 .3-3.1 3.9-5.2 16.6-7.3 31.2-4.1 44.4-4.5 43.3-.8 86.5-.8 129.8-.5zM184 38.5c11.4-1.1 23.5-4.7 38.6 1.4 5.9 3.2 6.6 9.1 6.7 12.2 .2 9.9 .5 19.4 1 29.1 3 52.5-.3 104.6-.7 156.3 0 2 0 4.1-.2 6.6-.1 1.2-.3 2.5-.8 4.3-.6 1.4-1.1 5.2-6.8 7.1-15.2 1.3-24.6 .4-36.7 .7-45.7 .1-91.6 1.3-137.5 1.6-5.3 0-10.7 .1-16.2 .1-2.7 0-5.5 0-8.6-.3-1.6-.1-3.2-.3-5.4-.9-1.9-.5-6.6-2.4-8.1-7.3-1.4-7.8-.6-9.6-.6-14 .1-3.9 .4-7.8 .7-11.6 3.4-47.1 5.6-94.5 4.5-141.5-.3-9.9-.1-19.5 .5-27.1 .1-1.2 .2-2.5 .3-3.7 .4-5.1 1.4-6.9 2.6-4.5 2.5 5 4.9 10 7.3 15.2 1.8 3.9 3.3 13.4 3.6 24 .9 46.4-1.2 92.7-4.6 138.7-.5 5.9-.7 14.2-.7 18.5 .4 .1 .8 .2 1.2 .2 2.3 .2 4.9 .2 7.5 .2 5.2 0 10.7-.1 16-.1 45.8-.3 91.6-1.5 137.6-1.6 9.8-.1 21.9 0 30.1-.2 .1-1.3 .2-2.8 .2-4.3 .4-52.2 3.6-104 .6-155.3-.6-9.9-.8-19.9-1-29.5 0-.1-.1-.2-.1-.3-6.7-2.4-18.4-1.1-29.4 .5-43.5 4.8-86.1-1.8-127.3 .3-4.8 .2-9.4 .3-12.7 0s-5.1-.9-4.8-1.8c.9-2.7 1.9-5.4 3-8.1 .8-2 10.4-4.4 22.1-4.7 40.3-1 79.8 4.4 118.2 .1zM476.9 38c3-.2 7.5 .9 10.3 4 2.8 3 3.5 6.1 4 8.6 .8 5 .5 9.2 .5 12.7 .4 50.7 .2 101.4 1.3 152 .1 10.5 .7 19.9 .5 31.6 .2 .8-1.4 5.1-3.4 6.1-1.7 1.1-2.6 1.2-3.3 1.4-1.3 .3-2.2 .4-3 .5-1.6 .2-3 .2-4.4 .2-2.8 .1-5.5 .1-8.2 .2-61.3 .5-122.6 .8-184-.9-3.4 .1-8.6-1.9-11.1-4.8-9.9-13-5.6-23.7-5.5-32.5 3.4-40.8 .1-82.5 1.8-124.8 .2-4.9 .8-9.7 1.7-13 .8-3.3 1.8-4.9 2.6-4.5 2.5 1.5 4.9 2.9 7.4 4.4 1.8 1.1 2.6 10.4 2.3 21.6-1.1 38.6 1.6 77.8-1.6 117.5-1 9-1.2 19 1.5 21.4 .6 .5 .1 .3 1.2 .4 61.1 1.7 122.3 1.4 183.5 .9 2.7 0 5.3-.1 7.8-.1 .1 0 .3 0 .4 0 0-7.9-.3-17-.4-25.4-1.1-50.8-.9-101.6-1.3-152.2 0-4.3 .2-7.8-.3-10.3-.1-.4-.2-.7-.3-.9-10.1 .5-21.1 1.1-31.7 1.3-42.2 .6-84.5 .6-126.6 .6-9.8 0-19.3-.6-26.9-1.7-1.2-.2-2.4-.4-3.7-.5-5-.7-6.8-1.9-4.3-3 5.1-2.1 10.3-4.2 15.4-6.3 3.9-1.6 13.2-2.7 23.5-2.7 40.8 0 81.6 0 122.4-.7 10.6-.1 20.8-.7 31.9-1.2z"/></svg>