<svg xmlns="http://www.w3.org/2000/svg" viewBox="0 0 504 560"><!--! Font Awesome Pro 7.2.0 by @fontawesome - https://fontawesome.com License - https://fontawesome.com/license (Commercial License) Copyright 2026 Fonticons, Inc. --><path fill="currentColor" d="M184 38.5c11.2-2.4 22.3 .2 29 3.6 6.7 3.5 9.1 6.7 8 6.8-3.9 .9-7.2 1.7-10.5 3.4-1.8 1-19.3-4.9-35.4 5.7-10.3 6.8-15.2 18.5-14.4 32.2l-.3 43.7-.9 87.2c-.2 29-.2 58.1 .6 87l.9 21.6c.2 3.9 .3 7.8-.1 12-.3 2.2-.5 4.3-1.4 6.9-.8 2.3-2.1 6-6.9 8.4-5 2.1-9.2 .3-11.5-1-2.5-1.4-4.2-2.9-6-4.7l-7.4-8.3-14.4-16.2c-4.8-5.7-9.4-10.7-14.7-14.6-5.2-4.2-10.9-7.6-16.8-9.9-11.9-4.7-24.7-3.4-34.7 4.1-5 3.6-9.4 8.5-13.2 13.9-1.3 2.5-1.1 4.1 4.7 10.9 13.5 17.1 40.5 51.4 81.1 102.8l27 34.2c9 11.7 17.4 22.2 28 31.9 20.5 19.2 44.3 35.5 70.6 44.5 26.1 10.1 54.4 9.5 82.6 6.3 55.7-5.6 110.6-36.4 131.2-88.6 5.3-12.7 8.1-26.3 9.8-40 1-13.6 .8-28.3 .8-42.8-.1-58.1-.1-116.3-.2-174.5l-.1-43.6c-.6-14 1.5-29.9-2.3-39.7-1.2-2.7-2.6-5.3-4.5-7.5-9-10.6-26.4-14.3-40.2-10.6-2.2 .8-4.6 .8-6.6 .7l-1.1-.1c-1.5-.1-2.5-1-2.5-2.2 .2-2.5 .6-5.2 1.2-7.9 .5-2 3.1-4.2 6.5-5 15.3-3.6 32.1-1 45.3 8.2 .4 .3 .8 .4 1.2 .7 2.7 1.7 5.3 4.2 7.6 7 .3 .3 .7 .5 1 .8 .6 .7 1 1.6 1.6 2.3 .2 .3 .4 .7 .7 1 5.1 7.6 7.6 17 7.5 25.6l.2 26.5 .8 105.9-.1 0c0 1.4-.3 2.8-1 3.8-.1 .2-.4 .1-.5 .3 0 9.9 0 19.8 .1 29.8l.1 87.7c.7 28.8-1.6 61.2-16 88.5-13.2 27.9-36.5 50.2-63.1 65-26.9 14.5-56.8 22-86.6 24.6-29.4 3.2-61.6 .1-89.4-12.4-28-12.1-52.6-30.5-73.5-52.1-38.6-45.9-73.1-91.8-109.9-137.7-10.2-12.9-17-21.5-20.4-25.8l-3.7-4.7c-1.6-2.4-2.7-5-3.3-7.9s-.5-6 .4-9c.8-3.2 2.9-5.9 3.8-7.1 2.3-3.3 5-6.4 7.8-9.4 5.8-5.9 13-10.8 21.2-13.6 16.8-6 35.2-.8 48.3 8 6.7 4.2 13 9.6 18.2 15.2l14.7 16.5c4 4.4 9.1 10.5 12.6 14 .2-1 .3-2.1 .3-3.3l-1.4-43.4c-.5-29.4-.4-58.7-.1-87.9l1-87.7 .2-21.9 0-11c.1-4.3 .6-8.5 1.7-12.8 4.1-17.3 19.3-31.3 36.5-34.4zm63-38c11.2-7.6 25-10.3 38-7.7 12.9 2.4 25.5 10.4 32 22.6 6.9 12.3 5.8 26.4 6 36.8l1 204.2c0 3.7-.3 7.3-1 9.8s-1.5 3.8-2.4 3.4l-8-2.9c-2-.7-3.5-7.8-3.6-16.4-.4-101.5-.8-169.2-.9-203.1 .3-12-.4-20.3-5.9-28-5.3-7.2-14.3-11.5-23.7-12.3-9.4-.8-19.1 1.9-25.9 7.8-6.7 6-9.9 14.8-9.9 24.6 .2 33.8 .6 101.5 1.2 202.9 0 7.4-.5 14.7-1.6 20.4l-.5 2.8c-.7 3.8-2 5.2-3.1 3.3L232 257.3c-1.7-2.9-2.8-9.9-2.9-17.7l0 0-.9-136.2c0-22.9-.6-44.9 0-68.7 .6-13 7.5-26.6 18.8-34.1zm92.5 40.9c23-7.1 52.2 3.5 61 28.5 2.2 5.8 2.9 12.4 2.9 18.1 .1 8 .2 24 .4 47.9L405 263.5c0 1.7-.3 3.4-1 4.5s-1.5 1.8-2.3 1.6l-8.1-1.4c-2-.3-3.5-3.7-3.6-7.7l-1-127-.3-31.7-.2-15.8c-.3-4.4-.7-8.8-2.5-12.6-6.1-15.7-27.3-23.4-43.5-17.6-2.6 .9-5.4 1.4-7.8 1.8l-1.2 .1c-1.7 .2-3-.5-2.9-1.8 .1-2.6 .5-5.6 1.2-8.5 .6-2 3.5-5 7.7-6z"/></svg>