<svg xmlns="http://www.w3.org/2000/svg" viewBox="0 0 616 560"><!--! Font Awesome Pro 7.2.0 by @fontawesome - https://fontawesome.com License - https://fontawesome.com/license (Commercial License) Copyright 2026 Fonticons, Inc. --><path fill="currentColor" d="M581.4 307.4c-5.6-8.6-15-17.7-27.2-18.6-6.9-.8-12.7-.7-18.4-.6 1.6-27.2 1.1-55.2-2.1-82.8 .4-6.6 .7-14-.8-21.8-6.9-61.2-41-120.2-93.6-153.7-51.9-34-116.8-45.5-177.2-33.9-60.3 11-117.3 46.8-148.9 100.4-13.6 22.6-22.3 47.7-27.1 73.5 0 .2-.3 .3-.1 .6-.8 4.2-1.7 8.4-2.3 12.7-3.9 30.7-2.5 60.6-3.1 90.2 0 5.1 .3 9.6 .8 13.3-5.6 0-11.3 0-17.7 .6-12.8 .3-22.4 9.7-28.7 18.1-11.6 18.3-14.6 38.5-15.1 58.2 .1 19.7 2.4 39.7 12.5 58.2 4.8 9.2 12.9 17.8 24 22.1 12.6 3 20.5 1.3 30.3 1.7 1.8 0 3.4-.4 4.7-1.1 .1 1.2 .2 2.5 .3 3.7 1.4 11.4 3.7 27.2 18.6 35.2 3.3 1.3 6 2 8.6 2.4 .5 .3 .9 .8 1.3 .9 21.6 3.1 39.9 1.7 59.6 1.5l3.6-.1c1.4-.1 4.4-.4 6.2-1.4 4.5-1.9 6.5-5.1 8.4-7.9 1.8-3.1 2.8-6.1 3.7-9.1 3.6-10 3.4-19.3 4.1-28.2l1.5-34.8c.9-23.3 1.6-46.7 1.2-70.2-.5-23.6-1.3-47-8.3-71.7-1.2-3.4-3.9-7.9-7.9-10.5-3.8-2.6-7.5-3.5-10.7-4.2-6.5-1.4-12.1-1.9-18.3-2.5-12-1-24.1-1.2-36.5 .5-6.2 1-12.6 2.3-19.3 6.1-5.3 3-9.4 8.2-12.1 13.8 .1-25.5-.1-51.2 1.8-75.4 .4-4.5 1.2-8.9 1.9-13.3 2.9 1.4 6 2.8 9.2 4l15.2 5.9 3.8 1.5c2.1 .8 4.6 1.2 7 1.2 4.9-.1 9.5-2.3 12.6-5.3 3.2-2.7 5.4-7.8 6.2-10.1l3.1-7.2 6.2-14.3c4.1-9.6 10.6-17.8 15.8-26.8 6.3-8.2 13.2-15.9 20.3-23.4 30-28.2 70.9-45 112.3-44 41.1 1.5 82.2 18.4 110.6 48.9 13.9 15.3 26.2 32.5 34.3 51.8l6.1 14.4 1.6 3.7c.6 1.8 1.6 3.6 2.8 5.3 2.3 3.3 5.9 6.1 10.3 7.2 2.2 .6 4.5 .7 6.7 .4l4.2-1.2c4-1.2 12-3.5 23.9-7 1.4-.4 2.7-.9 3.9-1.3 5.1 28.3 7 56.8 6.4 85.8-1.8-4.3-4.3-8.3-8-11.5-6.4-5.1-12.5-6.9-18.7-8.7-12.5-3.2-25-3.7-37.3-2.7-6.1 .5-12.2 1.4-18.3 2.8-6 1.6-11.8 2.2-19.2 7.3-7.8 6.6-8.1 14.6-9.5 20-1.1 5.7-2.2 11.9-2.8 17.8-1.4 12-1.9 23.8-2.2 35.6-.4 23.6 .3 47.1 1.2 70.4l1.6 35c.6 10 .6 20.9 3.9 32.1 .2 .7 .4 1.4 .6 2.1 .3 .9 .4 1.7 .8 2.6 .2 .4 .5 .7 .7 1.2 .4 1 .7 1.9 1.2 3 2.3 5 7.9 10.9 15.1 12.2 7 .7 9.4 .3 14.3 .5 2.1 0 4.2 0 6.3 .1 1.7 .1 3.6 .2 5.4 .2 0 .3-.1 .6-.1 .9-.1 15.5-12.3 23.7-29.1 25.6-16.4 2.1-34.2 0-51.6-2.5-17.8-2-36.3-7.3-57.1-.2-10.2 3.8-18.1 11.6-23.6 19.4-5.7 7.8-10 16.1-14.2 24.2-1.6 3.1-1.5 6.4 .2 7.5l6.7 4.6c.7 .5 1.7 .4 2.7-.2s1.9-1.7 2.6-3c7.9-15.6 16.5-32 29.4-38 13.1-5.8 31.8-2.3 49.2 .1 18.1 2.7 36.6 5.1 55.9 3 9.6-1.1 19.8-3.5 28.7-10 9.1-6.5 14.2-17.8 14.8-28 .2-1.3-.1-2.3-.3-3.4 1 0 2.1-.1 3-.1 2.3-.1 4.6-.2 6.9-.2 3.4-.2 6.7-.3 10.3-.6 2.6-.2 5-.1 7.7-.4 .6-.1 1.1-.6 1.6-1 6.7-.2 14.8-6.6 18.3-12.7 4-6.5 5.5-13.2 6.6-19.5 .3-2.5 .4-5 .6-7.5 .5 .1 .8 .3 1.3 .3 10.6-.1 17.7-.1 21.3-.1 2.6-.2 5.9-.8 8.9-1.4 11.8-3 21.2-12 25.9-21.2 10.5-18.6 13.2-38.9 13.2-58.6-.5-19.7-3.6-40-14.9-58.1l.1 0zM90.1 301.5l0 .6 0-.6 0 0zM68 430.8c-2.1-.2-3.4-.6-5.1-.8-6.3-1.6-12.4-6.2-16.3-13.7-8.5-14.2-11.7-32.8-11.8-50.6 0-17.8 3.1-36.4 11.8-50.6 4.4-6.8 10.2-12.5 17.4-12.8 3.2-.5 7.2-.6 11.3-.6-2.5 42.6-2.4 85.5 1.2 128.1 0 .4 .3 .6 .4 1l-1.7 0-7.1 .1zm38.8-151.4c1.8-9 7.8-14 18.2-15.9 10.2-2.1 21.5-2.1 32.5-1.5 5.6 .4 11.1 .9 16.6 1.8 5.4 .7 10.2 2.2 11 3.8 1.6 1.7 2.8 7.8 3.8 13.2 1.1 5.8 2 10.9 2.6 16.6 1.2 11.1 1.8 22.5 2.1 34 .5 22.8-.1 45.9-.9 68.9l-1.3 31.5c-.1 4.2-.4 8.4-.6 12.5 0 .6 0 1.1-.1 1.6-.3 3.3-.7 6.6-1.2 9.8-.6 3.9-1.1 7.8-2.4 11.1-1.2 3-2.4 4.9-3.4 6.4-.3 .1-2.1 .1-3.1 .2-5 .1-10.2 .1-15.3 .2-4.5-.5-9.2-.8-14.3-.9-11.1-.2-23.5-.2-32.6-2-6-1.2-10.3-10.3-11.5-20.8-2.4-22.2-3.7-45.5-4.1-68.2-.4-22.9 .2-45.8 1.5-68.7 .7-11.1 1.5-23.7 2.7-33.5l0 0zm375.6-102c-2.8 .9-3 .1-4.6-2.2-4.1-9.7-8.4-19.8-12.9-30.3l-8.9-14.5c-5.4-10-12.8-18.6-20.4-27.1-29.9-34.4-74.5-54.9-119.9-57.1-45.6-3.4-91.1 15.2-124.5 45.3-8.7 7.2-15.2 16.7-22.9 25-6.1 9.4-12.3 18.9-17.7 28.7L138 174.5c-1.9 2.3-3.1 3.2-6.4 1.9l-15.1-5.9c-6-2.4-11.4-3.5-15-3.4 4.3-20 11.2-39.3 21-57.2 27.4-51.3 79.9-86.2 136.7-98 56.7-12.2 118.7-3.3 168 27.8 45.7 27.8 77 75.4 87.9 127.8-.5 .2-1 .3-1.3 .7l0 .1c-.3 .1-.5 .1-.8 .1l-30.4 9zM511 448.6c-1.2 10.8-4.6 21.2-12.4 23.3-5.7 1.4-13.8 1.7-21.8 1.9-10 .1-20.5-.1-30.5-.2l-12.4-.2c-.5-.1-.9-.3-1.4-.5-1-.9-1.8-1.6-3-3.2-.6-.8-.9-1.9-1.3-2.8-2.3-5.5-3.4-12.8-4-20 0-.1-.1-.2-.2-.4-.1-2.1-.3-4.2-.4-6.3L422 405.1c-1-23.4-1.9-46.7-1.6-69.9 .1-11.6 .5-23.2 1.6-34.5 .6-5.7 1.3-11.2 2.3-16.8 1.1-5.6 2.1-11.9 3.7-14.6 .7-1.9 4.5-3.6 10.2-5 5.3-1.4 10.7-2.4 16.2-3.1 11-1.3 22.2-1.2 32.7 .8 5.2 1 10.4 2.6 14.5 4.9 3.6 2 6 5 7.5 9.2 1.5 3.9 1.5 9.7 2.1 15.6l1.3 17.4c3.1 46.4 3.1 93.3-1.4 139.4l0 0zm28.7-15.4s.1-.1 .1-.1c4.3-43.3 4.2-86.8 .9-130 3.7 0 7.4 0 10.6 .2 6.9-.3 12.3 5.1 17.1 11.1 8.9 13.5 12.5 31.8 13 49.5 .5 31.2-8.4 70.8-41.7 69.4l0 0z"/></svg>