<svg xmlns="http://www.w3.org/2000/svg" viewBox="0 0 616 560"><!--! Font Awesome Pro 7.2.0 by @fontawesome - https://fontawesome.com License - https://fontawesome.com/license (Commercial License) Copyright 2026 Fonticons, Inc. --><path fill="currentColor" d="M379.6 56.8c30.2-13.8 65.3-15.3 97.2-7.2 31.9 8.8 60.8 26.3 83.7 49.9 11.2 12 21.2 25.4 28.2 40.7 7.5 15.5 9.3 33.1 9.2 49.2-.4 65.2-31.6 130.4-83.4 169.6-48 41.1-98.4 79.5-150.9 114.8-9 6.1-18 11.8-26.7 17-8.8 5.8-17.5 11.7-26.4 17.3-3 1.9-6.3 3.2-9.2 3.7l-1.4 .2c-1.4 .2-2.1-.2-2.5-.9 0-.1-.2-.1-.1-.2-.1-.2-.3-.4-.3-.7l1.3-8.6c.3-2.2 2.6-4.9 5.7-6.8 73.1-45.9 142.5-97.6 207.4-154.4 1.3-1.1 2.8-2 4.1-2.3 .1 0 .2 .1 .3 .1 45-39.2 69.6-99.8 67-158.9-.5-30.1-18.8-56.3-40.8-76.9-22.4-20.4-50.3-35.3-79.9-40.7-29.6-5.9-60.6-.3-87.3 13.5-13 6.9-24.3 17-34.3 28.5-5 5.7-9.5 11.7-13.8 18.1l-7 10.2c-3.8 6.1-10 11-16.5 7.8-2.9-1.3-5.6-4.1-7.7-7.1-2.2-2.9-2.6-3.8-3.9-5.7l-6.4-9.7c-4.3-6.2-9.2-11.9-14.4-17.4-10.4-10.9-22.4-20.3-35.6-27.1-26.4-13.3-58.2-16.4-87.3-9.4-29.3 6.7-56.5 22.7-78 43.9-10.8 10.6-20.1 22.7-26.7 35.9-7 13.1-8.9 27.2-9.3 42.5-.2 60.8 26.9 121.8 76 159.4 47.8 40.9 98.1 79.1 150.3 114.2 8.5 5.7 16.5 11.4 22 15.7s8 6.9 6.8 7.2l-11 2.5c-2.7 .6-20.3-8.9-40.1-22.5-52.1-35.9-102.1-74.4-149.7-116.2-48.8-43.8-73.7-110.6-68.1-175.9 3.8-34.5 25.9-62.3 50.3-83.3 25-21 55.5-36 88.3-40.4 32.5-4.4 67.4 1.7 95.3 20.3 13.9 9.1 26 20.5 36.4 33.1 5.3 6.4 9.9 13.4 14.1 19.9 2.9 4.3 2.3 3.4 2.7 3.8 .5 0 .3 .1 1.1-.9 16.6-26.1 39.6-53.6 71.2-65.7z"/></svg>