<svg xmlns="http://www.w3.org/2000/svg" viewBox="0 0 504 560"><!--! Font Awesome Pro 7.2.0 by @fontawesome - https://fontawesome.com License - https://fontawesome.com/license (Commercial License) Copyright 2026 Fonticons, Inc. --><path fill="currentColor" d="M477.2-8.7c3 0 5.8 .3 7.8 1s3 1.5 2.8 2.3l-2.3 8c-.6 2-6.3 3.5-13.2 3.6L66.3 7.8c.6 3.2 1 7.4 1 11.9L67.7 172c-.1 6.2 .8 7.1 5.2 11.9 4 4 8.9 8 13.8 11.9 19.9 15.6 39.9 31.1 60 46.6l15 11.7c5.3 4.3 11.8 10.3 13.6 19.6 1.7 9.4-2.6 17.6-6.7 23.3-4.3 5.9-9.2 10.7-14.2 15.1-10.1 8.7-20.7 16-31.1 23.3-10.5 7.2-20.8 14.3-30.5 21.9-9.4 7.5-19.1 16-22.9 24.9-.9 2.2-1.2 4-1.3 6.2l0 9.5c.1 15.9 .2 88.8 .3 133.2 0 2.8-.2 5.4-.3 8.1l.2 14.2c123.4-4.4 246.8-1.8 370-.4-.5-2.8-.8-6.2-.8-10-.3-43.9 2.4-88.4 1.3-131.3 3.8-45.3-43.9-63.3-77-91.3l-13.2-10.1c-4.1-3.3-9.1-6.4-13.7-12.2-4.5-5.3-7.2-13.9-5.5-21.4 1.5-7.4 5.3-13 9.1-17.8 16-18.4 35-29.7 52.8-42.5 9-6.3 17.8-12.6 25.9-19.3 7.8-6.6 15.8-14.3 18.2-21.5 1-2.4 .7-8.4 1-13.9 .3-11.3 .5-21.7 .7-31.3L436.2 23.3c0-2 .6-3.9 1.7-5.4l.5-.8c.7-1 2-1.3 3.1-.8l6.6 3.1c1.7 .8 2.8 2.7 2.8 4.7l.9 81.2c.4 3 .6 6.5 .5 10.3l-.2 11.8 .4 41.2c0 1-.3 1.9-1 2.6-.1 .1-.3 .1-.5 .2 0 .8 0 1.5-.1 2.5-.2 3.7-1.4 7.3-2.9 10.3-6.2 12-15.4 19.3-24.1 26.6-8.9 7.1-18 13.5-27.1 19.9-17.7 12.7-37.2 24.9-48.9 40.5-5.6 8.2-5.7 14.1 .9 20.4 7.2 6.1 17 13.2 25.4 19.7 17.6 13.3 35.7 25.4 53.3 40.3 8.6 7.7 17.1 17.6 21.3 29.7 3.7 11.9 4.7 23.7 5 34.9 .6 45-1.8 88.6-1.4 132.8 0 1.5-.1 2.9-.2 4.3 8.2 .1 16.5 .2 24.7 .3 3 0 5.8 .4 7.8 1l.1 .1c2 .6 3 1.5 2.8 2.3l-2.4 8c-.6 2-6.3 3.5-13.2 3.4-144.5-1.2-288.8-5.8-432.7 .7-5.9 .3-11.7-.1-16.3-1l-2.2-.4c-3.1-.6-4.2-1.8-2.7-3l9-7c2.3-1.8 7.9-3.1 14.1-3.4 4.2-.2 8.4-.2 12.7-.4l-1.6-90.5c0-.6 .3-1.3 1-1.7 .1-.1 .4-.1 .5-.1l0-10.3c-.1-28.7-.1-47.8-.1-57.4 0-3.1-.2-6.2 .5-10.9 .9-4.1 2.4-7.8 4.3-11.1 7.8-12.8 18.5-20.8 28.8-28.9 10.4-7.9 21.1-15 31.4-22.3 10.4-7.3 20.6-14.6 29.4-22.8 8.6-8 15.8-18.1 11.5-24.3-3.7-6.8-17.2-14.9-26.3-22.8L103 227.5c-10.1-7.8-20.2-15.5-30.3-23.8-5-4.3-10.1-8.2-15.1-14.6-2.6-3.2-4.6-8.7-4.7-12.8-.2-4-.1-6.9-.2-10.2L52.4 13c0-1.7 .1-3.5 .2-5.1L37.8 8c-6 0-11.7-.6-16.3-1.7l-2.2-.5c-3.1-.7-4.1-2-2.6-3.1L26-3.9c2.4-1.7 8-2.8 14.3-2.8L477.2-8.7zM224.3 79.8c53.9 .1 106.9 1.6 161.2 9.2 1 .4 6 .8 7.9 2.6 1 1 2.3 1.8 3 3 2.4 0 1.3 2.6 2.1 3.7 2 7.1 1.3 8.4 1.9 12.2 .7 6.6 1.4 13.3 1.7 20.5 .3 7.1-.2 14.6-1.7 21.8 .6 3.6-6.5 12.1-8.4 12.6l-8.5 6c-22.5 15-45.1 29-67.9 43.1-4.3 2.6-8.5 5-12.6 7.3l-21.8 13.7c-1.9 1.2-4 1.7-6 1.6l-1-.1c-.6 0-.7-.6-1.1-.9l0 .1c-.8 .1-1.1-.2-.9-.8-.1-.2-.5-.2-.5-.4l-.5-7.4c-.1-1.9 1.1-3.9 3-5.1l57.8-36.3 28.6-18.5 14.1-9.4 6.8-4.8 3-2.3c.5-.4 .2-.2 .3-.3 1.5-5.1 2.3-13.6 1.6-20.6 0-1 .2-1.9 .8-2.7l0-.2-1.8-19.5c-.5-4.5 0-3-.7-3.9l-1.2-.3-4.6-.8c-51.5-6.6-104.8-8.3-157.2-8.2-26.2 .4-52.8 1.1-77.7 5.8-6 1.2-12.3 3-16.2 5.4-2.5 1.5-1.4 1.1-1.8 1.7l.3 9.7 .7 19.6c.5 6-.3 14.9 1.6 15.9 5.8 8 17.8 15.6 28.5 22.3 11.1 6.7 22.6 13 34.2 19.3l35 19c5.9 3.3 11.7 6.7 17.5 10.6 2.9 1.9 5.8 4 8.8 6.5 1.5 1.4 2.9 2.6 4.6 4.8 1.8 2.5 2.8 5.6 3.1 8.8l-2.4 86-.3 42.6 .4 21.1 .6 10.3 .2 2.3 .1 .1 7.9 2.5 9.7 3.3 19.2 7c12.7 4.8 25.3 9.8 37.8 15.2 12.5 5.5 24.9 11.1 37.1 17.9 6.3 3.9 11.9 6.2 18.8 13.8 1.1 2.6 3.4 6.1 3.4 8.8l.3 5.1 .6 10.1c.3 5.4 .4 10.4 .2 14.6 0 0 0 .1 .1 .1l-.1 .3c0 .7 0 1.7-.1 2.4-.4 4.5-1.1 6.8-1.9 6.3l-.3-.1c-1.4 1.6-5.4 2.9-10.4 3-45.2 1.2-90.4 2-135.7 2.1-22.7 0-45.3-.1-68-.8-11.4-.3-22.7-.8-34.2-1.7-5.7-.4-11.5-1-17.4-1.8-3-.5-5.8-.9-9.3-1.9-5.7-.9-8.8-5.5-11.1-9.9l-.8-8-.4-6.4c-.1-4.4 0-9 1.3-14.1 1.2-4.9 4.2-11.1 10.3-14.5 4.6-2.4 7.5-3.5 11.4-5.3l43.8-19.7c1.6-.7 3-.8 4.6-1.4l46.9-21.1c1.4-.6 3.1-.7 4.6-.1l.7 .3c1 .4 1.8 1.4 1.8 2.5l.3 7.1c.1 1.8-.8 3.4-2.3 4.1l-103 46.4c-.4 .1-.8-.1-1.2-.1-.1 .1-.4 .2-.6 .3-1.3 .8-2.4 2.7-3.1 5.6-1.3 5.1-.4 15 .1 19.3 0 .5 .4 .6 1 .7 2.1 .6 4.9 1.1 7.5 1.5 5.4 .7 11 1.3 16.6 1.7 11.3 .8 22.6 1.3 34 1.6 22.8 .6 45.7 .8 68.6 .7 44.4-.1 88.8-1 133.2-2.2-1.1-5.3-2.1-12.6-2.6-21.1l-.3-4.6c0-.6-.1-.6-.4-1-1.1-1.2-3.3-3-5.7-4.6-4.8-3.2-10.1-6.2-15.6-9.1-10.9-5.7-22.3-10.7-33.7-15.6-11.5-4.9-23.1-9.5-34.8-13.8l-17.6-6.3-8.8-3-10.6-3.2c-2.7-1.3-4.7-3.7-5.9-6.5-1-3.3-1.2-6.3-1.3-7.8l-.7-11.1-.4-21.6 .3-43 2.3-85.2c1.4 .6-5-5.5-9.9-8.4-5.3-3.5-10.9-6.8-16.7-10.1l-35.1-19c-11.8-6.4-23.6-12.8-35.2-19.9-11.5-7.8-23.3-13.4-33.3-28-1.2-1.9-2.2-5-2.5-7.5-.1-2.6-.2-7.6-.5-15.2l-.7-20.3-.2-5.1c.2-1.7-.7-3 .5-6.6 .3-3.2 2.1-6.1 4.3-8.2 2-1.8 3.9-2.8 5.9-4.1 7.4-3.7 14.3-5 21.2-6.5 27.4-4.8 54.2-5.4 81.1-5.7z"/></svg>