<svg xmlns="http://www.w3.org/2000/svg" viewBox="0 0 560 560"><!--! Font Awesome Pro 7.2.0 by @fontawesome - https://fontawesome.com License - https://fontawesome.com/license (Commercial License) Copyright 2026 Fonticons, Inc. --><path fill="currentColor" d="M73.7 206.9c2 1 3.1 10 3 20.9-1 57.3-.7 114.9-.5 172.3l.4 86.2 .1 43.1c0 7.1-1.9 17 0 23.8l4.1 0 120.3-.3c-.7-2.9-1.2-6.8-1.2-11.2l.3-192.3c.2-5.9 6.7-10.5 10.9-11.6 3.6-1.3 7-2.3 10.4-3 6.7-1.5 13.3-2.4 19.9-3.2 13.2-1.5 26.3-2.3 39.5-2.6 13.2-.2 26.3 0 39.6 1.1 6.7 .6 13.4 1.5 20.3 3.1 3.5 .8 7 1.8 10.8 3.7 3.9 1.4 10.2 7.3 9.7 13.5l.9 165.1c0 7-.6 13.8-1.7 19.1l-.5 2.6c-.7 3.5-2 4.6-3.1 2.7l-6.6-11.6c-1.7-3-2.8-9.7-2.9-17l-.9-159.7c-.3-.7 .5-.3-1.6-1.4-2.1-1-4.8-1.9-7.7-2.5-5.7-1.3-12-2.1-18.2-2.7-12.5-1.1-25.3-1.3-38-1.1-12.7 .3-25.5 1.1-38.1 2.5-6.3 .7-12.5 1.7-18.4 3-3 .6-5.8 1.4-8.3 2.3-2 .9-1 .4-1.4 .9l-.3 196.4c0 1.4-.1 2.7-.2 3.9l211.3-.5c9.5 0 18.7 .6 25.9 1.7l3.5 .5 .1 .1c4.9 .7 6.5 2 4.1 3.1l-14.8 6.6c-3.8 1.7-12.7 2.8-22.7 2.8l-349 .8c-2.5 0-9.4 1.4-11.5-.1l.1-3.9 .1-5.1 .2-14 0-21.6c-.1-21.7-.2-65-.5-130.1-.1-57.8-.4-115.6 .7-173.6 .1-4.7 .6-9.3 1.4-12.5 .7-3.2 1.7-4.8 2.5-4.3l7.9 4zM292.9 3.2c84.4 73.5 171.7 143.6 260.1 212.4 3.6 2.8 6.8 5.7 8.9 8.1l.1 0c2.1 2.4 2.7 4 1.9 4.5l-7.7 4.2c-1.9 1-9.8-3.2-18.2-9.7-14-10.9-27.7-22.1-41.6-33.1 .4 2 .6 4.4 .6 6.9-1.5 118.3 .7 236.8 .7 355.5 0 2.3-.4 4.9-1.1 6.6-.7 1.7-1.6 2.5-2.4 2.2l-8-2.4c-2-.6-3.4-4.9-3.4-10.6 0-117.7-2-235.6-.5-353.7 0-4.9 .9-9.7 2.1-13.3l.2-.6c-25.9-20.5-52-40.9-77.7-61.8l-64.5-53.4-62.3-53.4c-.2-.3-.5-.3-.7 .1l-7.3 5.7-16.3 13-32.4 26.3-64.2 53.5c-42.7 35.8-85.1 72-128.5 107.2-7.2 5.8-14.5 10.9-20.8 14.4L7 233.6c-4.2 2.3-6.2 2.4-5 .1l7.2-14c1.8-3.6 7.8-9.9 15.3-15.9 43.3-35.3 86-71.7 129-107.7l64.7-53.8 32.7-26.6 16.5-13.1 13-10.3 12.5 10.9zm43.2 210.8c-2.6 17.3-25.2 37-42.7 41.2l0 0c-20 5.2-42.7-1.7-56.3-17.6-13.9-15.5-18.4-38.9-10.5-58.5 24.6-65.3 127.9-33.4 109.5 34.9zm-96.3-27.8c-5 14.6-1.3 31.8 9.5 42.7 10.5 11.2 27.2 15.9 41.9 11.5 14.6-4 26.5-16.6 29.5-31.4 .3-1.7 1.1-3.1 1.8-4.5 6.3-51-67.9-64.3-82.6-18.3z"/></svg>