<svg xmlns="http://www.w3.org/2000/svg" viewBox="0 0 616 560"><!--! Font Awesome Pro 7.2.0 by @fontawesome - https://fontawesome.com License - https://fontawesome.com/license (Commercial License) Copyright 2026 Fonticons, Inc. --><path fill="currentColor" d="M192.6 61.4c71-1.8 142.1-2.2 213.1-1.1 35.5 .7 71.1 1.7 106.6 3.7l26.7 1.9 13.4 1.2 7.2 .7c3.9 1.6 8 3.2 9.6 6.1 7.1 9.8 8.6 18.5 11.3 27.5 2.1 8.9 3.8 17.8 5.2 26.7l-.1 0c10.3 71.2 12 142.4 10 213.8-1.5 35.7-3.4 71.4-11.6 107.2-2.4 9-4.5 18-10.8 27.3-1.3 2.3-4.3 4.7-6.7 6.8-3.7 1.9-8.5 2.9-9.9 2.8l-13.3 1.1-53.2 4c-70.9 4.9-141.9 8.6-213 9.8-35.6 .6-71.2 .5-106.9-1-35.7-1.8-71.4-3.8-107.3-13.5-9.3-2.8-18.3-6.8-25.1-12.4-4.3-3.1-8.6-7.5-10.7-14.1-1.1-5.1-.9-7.1-1.2-10.2l-.6-8.7c-.6-8.7-1.7-26.2-3.4-52.4 0-.9 .2-1.9 .8-2.5 .3-.3 .7-.3 1.1-.5-.6-7.7-1.1-15.9-1.4-24.7-2.2-71-3.8-142.2 4-213.7 2.3-17.8 5-35.7 11.5-53.5 3.8-8.4 7.2-18.8 19.5-24.6 7.5-2.4 10.1-1.4 15.1-2.2L86 66c35.6-2.3 71.1-3.6 106.6-4.5zM429.1 207.2c-6 .9-11.4 6.8-18.4 13.4l-155.5 149.1 46.1 43.5c3.4 3.2 6.3 6.9 8.1 10.1l.9 1.6c1.2 2.2 1 3.7-.6 3.6l-9.9-.3c-2.5-.1-6.5-2.3-10.1-5.7-107.3-101.2-96.9-91.3-109.9-103.6-5.4-5-10.4-10.3-14-11-7.2-2.3-20.2 8.5-30.1 17.3-10.5 9.4-20.7 19.5-31 29.5L43.1 415c-1.5 1.4-2.8 2.4-4.2 3.1l0 1.3 .3 4.6 1.1 17.3 .6 8.7 .2 4.3c.3 1 .1 1.4 .5 2.1 2.1 5.6 13.4 10.9 23.4 13.8 10.5 3.1 21.6 5.2 32.8 6.9 .8 .1 1.4 .7 2.1 1 63.7 9.2 129.6 8.4 194.7 7.5 70.4-1.6 140.8-5.5 211-10.6l52.3-4.2c1.6 .1 7-8.3 9-15.8 2.6-7.8 4.4-16.2 5.9-24.7l.1 0c5.4-32.1 7.4-65.3 8.3-98.3L545.4 298c-.1-.1 0-.2 0-.3-17.9-17.2-35.7-34.4-53.9-51.1-13.4-12.1-27-24.4-41.6-33.3-7.2-4.3-14.9-7.5-20.8-6.2zM392.4 74.9c-70.4-1-140.9-.4-211.3 1.6-35.2 1.1-70.4 2.4-105.3 5-3.9 .4-9.8 .5-12.1 1.2-1.7 0-3.7 2.2-5.8 4.5-4.1 5.5-6.9 13.7-9.2 21.5-4.5 16.2-6.9 33.4-8.7 50.7-6.4 69.5-4.9 140.1-2.4 210.4 .4 9.9 .7 19.6 .9 28.9l58.2-57c10.2-10.1 20.5-20.1 31.5-29.8 5.5-4.9 11.4-9.5 18.1-13.8 6.3-3.9 17.5-8.2 27.2-3.1 9.1 4.8 13 10.4 18.4 15.1 7.8 7.4 23.4 22.1 46.8 44.2l5.6 5.3c.5-.5 .9-1 1.4-1.4L403.1 207.4c5.4-5.5 15.3-15.4 27.9-15.2 12.1 .1 21.5 5.3 29.5 10.4 16.2 10.5 29.6 23 43.1 35.3 26.5 24.4 51.9 49.4 77.7 74.2 .6-65.4-1.6-131.5-12.7-195.2-1.7-8.4-3.6-16.9-6.4-24.4-1.2-3.6-3.2-7.7-4.6-9.2-.7-1.2-.6-.3-.9-.8l-6.4-.6c-17.4-1.7-34.9-2.8-52.4-3.7-35.1-1.8-70.3-2.7-105.5-3.2zM220.2 135.3c11.9 .7 22.5 6.2 30.8 13 .9 .8 1.3 2 1.7 3 1.8 1.4 4.5 4.3 5.5 6.3 13 19.1 9.1 47.5-9.1 62.2l-.1 0c-17.4 15.5-46.3 15.1-63.3-1.1-17.8-15.4-20.9-44.3-6.9-63.4 1.5-2.1 3.4-3.7 5.3-4.9 1.3-1.3 2.4-2.7 3.9-3.8 8.5-7.3 20.2-11.9 32.1-11.1zm4.3 16.7c-7.5-2-15.3-.7-22 3.4-.5 .3-1 .3-1.4 .5-1.4 .9-2.9 1.4-4.1 2.6-12.3 10.4-14.4 30.1-5.1 42.7 .3 .4 .3 1 .2 1.6 1.5 2.1 2.9 4.3 4.9 5.9 12.4 10.7 32.4 10.1 44-1.3 11.9-10.8 13.8-30.7 3.9-43.2-4.4-4.5-13.1-10.7-20.2-12.1z"/></svg>