<svg xmlns="http://www.w3.org/2000/svg" viewBox="0 0 616 560"><!--! Font Awesome Pro 7.2.0 by @fontawesome - https://fontawesome.com License - https://fontawesome.com/license (Commercial License) Copyright 2026 Fonticons, Inc. --><path fill="currentColor" d="M237.6 57.3c62.7-1.6 125.3-2 188-.9 31.4 .6 62.7 1.5 94.1 3.4l23.5 1.6 11.8 1.1c2.1-.6 13.3 2.7 15.4 8 9.1 16.9 10.4 32.1 13.4 48l-.1-.1c8.9 62.9 10.3 125.7 8.6 188.7-1.3 31.5-3 63-10.1 94.7-2 8-4 15.9-9.3 24.3-1 2-3.4 4.3-5.7 6.3-1.9 1.8-8.2 3.5-9.4 3.4l-11.8 .9-14.6 1c0 11.5 .4 23-1.2 35.4-1.2 6.1-1.5 13.7-9.6 20.5-4 3.3-10.4 3.5-12.3 3.5l-8.8 .4-70.2 3.4c-.8 0-1.5-.5-2.2-.6-51.7 2-103.4 3.4-155.1 3.6-34.6 .1-69.2-.3-103.8-1.7-34.7-1.7-69.3-3.3-104.2-10.3-8.8-2.2-17.4-3.9-26.6-9.1-2.2-.9-4.7-3.4-6.9-5.5-2.1-1.7-4.2-8-4.3-9.9l-1.1-13c-1.3-17.3-2.2-34.6-3-51.9-1.5-34.6-2.4-69.2-2.6-103.8-.1-34.6 .3-69.3 2.6-104.1 1.5-17.5 2.5-34.7 7.5-53 .9-2.4 1.4-4.6 2.9-7.3 1-2.3 4.2-6.8 7.9-8.1 1.9-.9 3.9-1.9 5.4-1.6 1.7-.1 5-.2 9.9-.4l26.1-1.1c3.4-.1 6.6-.1 9.6 0 1.8-12.5 4.2-25 8.8-37.6 3.6-7.4 6.4-17.1 18.4-21.8 3.4-1.1 5.5-1.2 7.3-1.3 3-.2 8.9-.7 17.7-1.3 31.4-2 62.7-3.1 94-4zM74 138.4l-25.5 1.1c-2.9 .3-1.3-.4-3.5 3.5-1.2 3.4-2.3 7.2-3.1 11.2-3.2 16.1-4.4 33.3-5.5 50.2-1.9 34-2.2 68.3-2 102.5 .3 34.2 1.2 68.4 2.8 102.6 .8 17.1 1.8 34.2 3.2 51.1l.6 6.3c1 .8-.5 .1 1 1.2 1.2 1.5 5 3.3 8.3 4.7 7.1 2.8 15.4 4.6 23.5 6.1l0-.1c66.5 10.6 135.7 10.1 204 10.4 68.5-.3 137-2.3 205.4-5.7 1.7-.1 3.4-.1 5.1-.1l12-.6 8.8-.4c3.2-.2 2.4-.2 3.3-.8 1.4-1.2 3-6.7 3.5-11.8 .8-7 .9-14.4 .9-22l-39.2 2.5c-2.2 .3-4.5 .5-6.9 .7-56.2 3.7-112.4 6.5-168.7 7.6-56.4 .6-112.8 1.2-169.6-7.3-14.2-2.6-28.5-5.1-42.8-13.2-3.5-2.1-7.3-4.6-10.1-9.1-3.4-3.7-3.9-11.5-3.9-13.8l-1-21.1c-1.2-28.1-2.2-56.3-2.8-84.4-1-56.3-1.5-112.7 4.3-169.5 .1-.7 .3-1.3 .4-1.9-.8 0-1.6 .1-2.4 .2zm371.1 48.9c-4.9 .7-9.6 5.6-15.8 11.6l-136.1 130.6 39.8 37.6c3 2.9 5.5 6.1 7.1 9.1l.8 1.4c1 2 .7 3.4-.8 3.5l-9.2 .3c-2.4 .1-6-1.8-9.1-4.8-94.5-88.9-85.3-80.3-96.8-91.1-4.8-4.5-9.1-9-12-9.5-5.4-2-17 7.3-25.6 15-9.2 8.3-18.2 17.2-27.2 26l-54.2 53.1c-1.2 1.1-2.4 1.9-3.5 2.5 0 3.5 0 6.8-.1 10l2.3 22.4c.8 4.1 10.5 9.5 19.5 11.9 9.3 2.9 19.3 4.7 29.3 6.2 1.2 .2 2.1 1 3.1 1.7 55.7 8.3 113.4 8 170.3 7.7 62.1-1 124.1-4 186.1-8.1 15-1.1 32.2-2 45.2-3.6 1.1 .3 5.8-7.5 7.4-14 2.3-6.8 3.7-14.3 5.1-21.7l-.1 0c4.8-28.8 6.4-58.6 7.2-88.3l-31.3-29.6c-.1-.1 .1-.3 .1-.5-15.7-15.1-31.4-30.2-47.3-44.8-11.8-10.6-23.8-21.5-36.4-29.2-6.3-3.8-12.9-6.4-17.7-5.3zM413.8 71c-62.1-.9-124.3-.4-186.3 1.4-31 .9-62.1 2-92.9 4.3-3.6 .3-8.2 .5-11 1-1.1 0-2.8 1.3-4.5 3.4-3.5 4.5-6.1 11.5-8.1 18.4l0-.1c-3.9 14.1-6.1 29.4-7.7 44.6-5.7 61.1-4.3 123.4-2.1 185.4 .3 8.1 .6 15.9 .7 23.6l49.8-48.7c9-8.9 18.1-17.7 27.8-26.3 4.8-4.3 10-8.4 16.1-12.2 5.6-3.5 15.8-7.5 24.7-2.8 8.3 4.4 11.7 9.3 16.4 13.4l41.3 38.9 4.3 4.1c.2-.2 .3-.4 .5-.7L421.4 186c4.7-4.8 13.7-13.9 25.2-13.6 11 0 19.4 4.8 26.5 9.3 14.4 9.3 26.2 20.3 38.1 31.1 22.8 21 44.6 42.5 66.8 63.7 .4-56.3-1.6-113-10.9-167.9-1.4-7.4-3.1-14.8-5.4-21.6-1.1-3.4-2.5-6.6-3.9-8.6-1.4-1.6 .7-.6-4.8-1.3-15.3-1.5-30.8-2.5-46.2-3.3-30.9-1.6-62-2.4-93-2.8zM232.4 132.2c15.8-13.8 41.9-13.3 57.3 1.7 .8 .7 .9 1.8 1.2 2.9 1.5 1.7 3 3.4 4.2 5.3 11.9 17.1 8.6 42.7-7.7 56l0 0c-15.6 14.1-41.6 13.8-57-.8-16.1-13.8-18.9-39.9-6.4-57.2 1.3-1.9 3-3.3 4.8-4.3 1.2-1.2 2.3-2.5 3.7-3.6zM281.8 149c-7.9-11-24.4-14.3-35.8-7.2-.5 .3-1 .3-1.6 .4-1 .7-2.2 1.1-3.1 1.9-10.6 8.9-12.3 25.8-4.4 36.5 .3 .4 .2 1 .1 1.6 1.3 1.8 2.5 3.6 4.2 5 10.7 9.1 27.8 8.5 37.6-1.3 10.1-9.3 11.5-26.3 3-36.9z"/></svg>