<svg xmlns="http://www.w3.org/2000/svg" viewBox="0 0 504 560"><!--! Font Awesome Pro 7.2.0 by @fontawesome - https://fontawesome.com License - https://fontawesome.com/license (Commercial License) Copyright 2026 Fonticons, Inc. --><path fill="currentColor" d="M198.9-8.4c82.6-.6 165.1-.7 248 4.2 9.1 .6 17.6 1.8 24.8 3.1l5.4 .8c2 .4 4.3 .5 8.5 2.1 4 .8 6.1 4 7.3 7.1 .6 1.6 .5 3.6 .5 5.6l0 3.7 0 12.4c.1 41.3 .5 231.1 .7 346.6l0 .1c0 5.3-.3 10.5-1 14.2-.1 .6-.2 .9-.4 1.4l0 3.6c.6 13.9-12.9 25.9-26 24.8l-29.1-.4c-9.7-.1-19.4-.1-28.9 .3-9 .4-20.1 1.2-24.4 4.2-.9 .7-1 1-1.9 2.9l-2.3 6.5-4.2 13.8c-3 9.8-5.1 17.9-9.7 29.4-2.1 3.2-6.3 6.3-9.3 6.9-2.8 1-5.1 1.3-7.6 1.8-4.8 .9-9.5 1.5-14.2 1.9-9.3 .9-18.5 1.5-27.8 1.9-18.5 .8-36.9 1-55.3 1-41.4-.3-69-2.1-83-3.4-4.7-.5-9.3-1-14.1-1.8-2.4-.4-4.8-.8-7.5-1.6-3.4-.5-7.4-3.5-9.7-6.7-5.1-12.6-7.1-20.8-10.3-31.2-3.4-9.2-5.2-22.3-9.5-21.9-7.1-2.7-18-3.2-27.8-3.5-10.1-.3-20.4-.2-30.6-.1l-15.4 .2-7.9 .1c-3.6 0-7.3-.8-10.6-2.3-.2-.1-.4-.3-.6-.4l1.4 122.5c0 .3-.3 .5-.3 .8 3.5 1.2 12.7 2.9 18.9 3.7 9.6 1.2 19.4 2.1 29.2 2.9 19.6 1.5 39.3 2.4 59.1 3.1 39.5 1.4 79.1 1.8 118.6 1.8 39.6-.1 79.1-.8 118.6-2.3 19.7-.8 39.5-1.8 59-3.4 9.8-.8 19.6-1.7 29.1-3 8.4-.8 22.8-4.6 18.9-3.9l-.2-89.9c0-4.3 .3-8.5 1-11.4 .6-2.9 1.5-4.4 2.3-4.1l8 3.3c2 .8 3.6 9.2 3.6 19.2l.2 86.3c0 4.5-3.5 7.9-7.6 9.6-4.6 2.1-6 2-9 2.9-5.2 1.2-10.2 1.9-15.3 2.7-10 1.3-20 2.3-29.9 3.1-19.9 1.6-39.8 2.6-59.6 3.4-39.7 1.6-79.4 2.2-119.2 2.3-39.7 .1-79.4-.4-119.2-1.8-19.9-.7-39.7-1.6-59.7-3.1-10-.8-19.9-1.7-30-3-5-.7-10.1-1.4-15.3-2.6-3.1-.9-4.3-.7-9.3-3-4.4-1.8-8.1-5.5-8.2-10.3l-.2-75.1c0-4.8 .2-9.5 .5-13.9l-.5-52.5c0-1.3 .6-2.5 1.2-3.6-.8-5.7-.1-9.3-.4-13.8 0-10.3-.1-113.4-.3-309.3l-.1-62.9c-.4-5.1 1.5-9.4 6-11.5 2.2-.8 4.8-1.8 6.8-2.1l4.2-.8c5.4-.9 10.7-1.4 15.9-2 10.4-1 20.8-1.6 31.1-2.2 41.4-2.2 82.7-3 124-3.5zM254.1 7.1c-65.5 .3-131.3 .8-196.3 5.1-8.6 .6-16.7 1-23.8 1.2l-6.5 1.1c-1.8 .4-1.1 .2-1.7 .5-.1 .1-.1 .4-.1 .5l0 9.6c0 10.1 .1 111.3 .3 303.5l.1 60.7 0 7.4c0 1.5 .4 2.9 1 4.3 1.3 2.6 3.8 4.8 6.6 5.5 2 .7 8.1 .1 13 .2l15.2-.2c10.1-.1 20.3-.1 30.7 .2 10.5 .7 20.4 .1 32.9 5.3 3.1 1.4 6.7 4.4 8.7 8.2 1.9 3.8 2.3 5.6 3.3 8.3l4.5 14.7c2.7 9.1 6.2 20.6 8.7 26.9 .3 .2-.3 .1 1 .4 1.7 .5 3.8 .9 5.9 1.2 4.2 .7 8.7 1.2 13.2 1.6 13.4 1.3 40.6 3.1 81.6 3.4 18.2 .1 36.4-.1 54.5-.9 9-.4 18.1-1 27-1.9 4.4-.4 8.8-1 13-1.8 1.9-.4 4.2-.8 5.7-1.3 1.6-.4 .6-.2 1-.4 2.6-6.5 5.9-17.6 8.6-26.6l4.4-14.5 2.7-7.6c1.4-3.6 4.5-7.2 7.7-9.2 13.1-6.7 22.7-5.4 33.1-6.3 10.2-.4 20.2-.3 30.2-.2l29 .3c2.8-.3 5.4-1.8 7.1-4 .8-1.1 1.4-2.4 1.7-3.7 .1-.7 .2-1.4 .2-2l.1 0 0-3.7 0-59.7-.2-238.7c0-16.2 .3-31.9 .8-46l-.1-24.7 0-8.4c-.4-.4 .6-.1-4.5-1-7.7-1.2-15.8-1.9-23.8-2.5-65-4.2-130.8-4.5-196.3-4.6zm-63.8 33c53.8-.9 107.7-.5 161.5 1.8 27 1.4 53.7 2.5 81.2 6.9 4 .9 5.8 .8 12.1 3.3 6.3 1.9 8.3 8.9 7.6 14.2 0 10.1 0 30.2 .1 60.4 .4 285.4 .2 177.9 .3 221.6l-.1 0c-.4 3.5 .9 5.8-1.1 12.7-2.1 5.7-7.1 9.8-12.7 11.1-3.3 .7-5.3 .4-6.6 .5l-5 .1-9.9 .3c-6.6 .2-13.1 .8-19.5 1.5-12.8 1.5-25.3 4.3-35.6 10-10.2 5.9-17.7 15.1-23.1 26.4-2.8 5.5-5.1 11.6-7.2 17.7-.7 3.2-4.6 10.2-10.1 12.3-7 2.7-9.4 1.2-12.9 1.6l-81.2-.3c-14-.2-26.1 .2-41.6-.4-1-.2-1.7-.9-2.6-1.3l-1.2-.1c-5.6 1.4-6.6-3.1-7.7-7.3-.5-.9-1.4-1.6-1.8-2.5l-3.2-9.8c-2.1-5.9-4.7-11.5-7.8-16.6-12.2-20.5-38.6-26.8-64.2-29.3-6-.6-12.3-1.3-21.5-2.3l-7.4-.2-13.3-.2c-2.4-.6-6.9 2.1-5.6-4.6 0-5.8 0-11.6 0-17.4-1.2-6.5 3.1-3.9 5.6-4.4 13.6 .2 15.6 .1 22.6 .4 6 .3 11.9 .5 17.9 1.1 12 .9 24.1 2.7 36.1 6.2 11.9 3.5 24.2 9.3 33.6 18.8 9.6 9.4 15.2 21.5 19.4 32.9 1 2.9 2.1 5.8 2.9 8.7 .2 .5 .1 .4 .3 .5l14.8 .6 8.5 .1 45 .1 24.1 0c9.1-.1 18.3 0 27.4-.3 2.6-.1 5 0 7.1 .2 .2 0 .3-.1 .7-.3 .4-.4 .7-.8 1-1.6l2.2-6.3c3.1-8.4 6.6-16.8 11.8-24.7 9.8-16.5 28.3-27.9 46.2-31.7 17.9-4.3 35.6-5 53-5.4 1.3 0 2.5 0 4.3 0 1.3 0 .9 .2 1.5 .2 .6 0 1.4-.1 2.2-.4 0-30.5-.1-106.9-.2-228.9l-.1-40.1 0-10c0-.7 0-.7-.4-.8-2.8-1-11.2-2.5-17-3.2-26-3.2-52.7-4.5-79.2-5.6-53.2-2-106.5-2.4-159.8-1.2-26.6 .6-53.2 1.6-79.5 3.9-12.5 1.2-27.6 2.8-36.6 5.8-.1 .1-.1-.1-.1 .4l0 10 0 20 .2 160.3c0 9.1-.2 18.1-.5 26.5l.5 32.7c0 1.4-.6 2.8-1.7 3.9l-.6 .5c-.5 .4-1.2 .3-1.8 .4-.2 .1-.4 .3-.5 .1-.3 0-.5 .2-.7 .1l-6.6-2.2c-1.7-.6-2.8-1.9-2.8-3.4L49.2 210.6c0-.7 .3-1.4 1-1.8 .2-.1 .4-.1 .6-.2l-.2-121.5 0-20.1c.1-1.1-.4-4.5 .3-7.4 .5-2.9 2.6-5.2 5.2-6.7 6.2-3.4 8.5-3.2 12.4-4.3 13.9-2.9 27.4-4 40.9-5.1 27-2 54-2.9 80.9-3.4z"/></svg>