<svg xmlns="http://www.w3.org/2000/svg" viewBox="0 0 616 560"><!--! Font Awesome Pro 7.2.0 by @fontawesome - https://fontawesome.com License - https://fontawesome.com/license (Commercial License) Copyright 2026 Fonticons, Inc. --><path fill="currentColor" d="M404.9-7.7c50.5 .6 100.2 20.4 137.3 54.7 19.2 16.8 33 38.9 43 62.2l.1 .2c8.3 24.1 12.4 49.6 10.2 75-4.6 50.4-28.8 98.9-68.3 131.3-39.9 32.3-93.3 44.7-143.4 36.7-8.2-1.4-15.8-3.6-21-5.8-5.2-2.2-7.5-3.9-6.6-4.5l8.3-5.8c2.1-1.5 16.5 1.5 34 3 46.2 3.8 94.9-10.3 128-42.8 33.4-31.9 54.1-77.9 54.5-124.2 2.2-46.5-20.5-91.9-56.2-121-18.3-14.3-39.1-25.5-60.8-33.9-22-7.4-45.3-11.1-68.6-10.1-46.5 1.8-93.1 19-122.9 55.2-15.5 17.2-26.2 37.9-32.1 60-5.8 22.1-5.2 45.6-.3 68.2 2.4 11.7 6.1 22 9.2 35.2 .4 1.6 .6 3.4 .6 6.9 .1 1.6-.9 2.7-1.4 4.1-.6 1.3-.7 2.9-1.9 3.9-3.6 3.8-10.1 10.5-19.5 20.2l-50.8 51.7-101.7 103c-9.5 9.9-18.8 18.9-26.8 26.6l-2.4 2.7-5.2 6.5-2.2 3.1c-.3 .5-.2 .4-.2 .6l.8 31.4c0 .5-.3 .9-1 1.2-.1 .1-.3 0-.5 .1l.2 48.2 0 8c0 2.6 .1 6 .2 5.7 .3 .5 0 .5 1.3 .9 1.2 .4 3.9 .8 6.2 .9 9.9 .6 20.8 .2 31.4 .1l32.1-.6 16.1-.2c2.9 0 3.7-.2 3.8-.4 .3-.2 .3 0 .8-2.2 1.3-8.3 .5-20 .5-30.5l-.1-8.1c-.1-1.1 0-2.9 .4-5.2 .2-2.1 .7-4.2 2.3-6.4 6.4-9.1 15.3-8.4 20.8-8.6 11.7 .1 22.7 2.8 30.8 1.8 4.2-1.3 3.6-.3 4-2.9l.3-15.7c.2-12 .3-20.1 .3-24.1 0-2-.2-7.1 2.4-11.5 2.5-4.7 7.7-7.3 11.1-8 3.6-.9 6.8-1.1 9.7-1.2 5.9-.2 11.3 .2 16.8 .5l16 1 7.3 .4c.2-.1 1.1-.6 2.7-1.8 7.4-5.8 15.1-13.7 22.6-21.1l45.1-45.6c4.9-5 10.2-9.5 14.8-12.5l2.2-1.5c3.1-2 4.9-2 4.3 0l-3.1 12.4c-.8 3.2-4.7 8.7-9.9 13.9l-45.4 45.9c-8.1 7.6-14.5 15.2-25.5 22.5-3.2 2.4-10 2.5-11.5 2.1l-8.1-.4-16.1-1c-10-1.1-23 .2-20.6 2.6l-.5 31.4-.1 8.1c.1 2.1 0 6.2-1.4 10.6-2 4.6-6.3 8.1-10.1 9.2-3.9 1.4-7.1 1.5-10.3 1.7-12 0-22.9-2.7-31.6-1.9-2 .1-3.8 .7-4.1 1.1-.6 .3-.4 .2-.6 1.6-.4 3.3-.1 10.1-.1 15l.1 16.3c-.6 5.9 .9 10.7-3.6 19.8-2.5 4.6-8.3 6.9-12.4 7.2-4.1 .3-5.8 .2-8.8 .2l-16.1 .2-32.3 .6c-11 0-21.2 .9-33.8-1-2.9-.5-8.3-1.8-11.8-6.2-3.4-4.3-3.5-10.4-3.5-12.6l-.1-16.1-.2-64.5c0-3.2 .3-6.3 .9-8.6l-.1-3.9c.1-2.7 1.4-5.6 2.7-7.5l2.9-4 5.8-7.1 11.7-13.4c.6-.7 1.7-.9 3-.7l.6 .1c.2 .1 .3 .3 .5 .4 4.6-6 10.9-13.2 18.2-20.8L171 297 221.9 245.1 234.5 232c.8-1.2 .6 0 .4-2.4-.5-2.4-1.2-5.2-2-8.1-3.3-11.5-6.8-23.6-8.9-36-9.8-49.8 7.4-104.4 43.7-139.7 17-18.4 39.5-32.9 63.2-41 23.6-8.7 48.9-12.8 74-12.5zM275.8 288.5c1.3-.4 2.4-.3 2.9 .4l4.6 6.7c1.2 1.7-.3 5.3-3.3 8.3L88.4 495.9c-2.6 2.6-5.6 4.8-8.4 6l-1.4 .6c-1.9 .8-3.2 .4-3.3-1.1l-.5-8.8c-.1-2.3 1.6-5.5 4.3-8.3L271.7 291.2c1.3-1.3 2.8-2.3 4.1-2.7zm157-193.2c7.8-7.5 18.4-8 26.9-6.5 8.8 1.7 16.7 6.1 23 12.5 6.3 6.4 10.6 15.4 10.6 24.9-.6 8.5-1.5 17.6-7.2 25.4-5.2 7.8-14.4 13.4-23.8 14.4-9.4 .9-18.6-1.5-26.4-6.6-16.7-9.6-21-33.7-13.8-49 1.1-2.6 2.8-4.8 4.7-6.2l.9-.7c1.2-.9 2.5-.7 3.2 .4 .6 1 1.2 1.9 1.8 2.8l0 0c.3-.5 .4-1.1 .8-1.6 .1-.2 .3-.3 .4-.5-.9-.6-1.8-1.2-2.7-1.8-1.5-1-1.6-4.9 1.5-7.6z"/></svg>