<svg xmlns="http://www.w3.org/2000/svg" viewBox="0 0 560 560"><!--! Font Awesome Pro 7.2.0 by @fontawesome - https://fontawesome.com License - https://fontawesome.com/license (Commercial License) Copyright 2026 Fonticons, Inc. --><path fill="currentColor" d="M384.4 19.6l-.4 23c0 1.6-.6 2.8-1 4.3 4.2 .1 8.4 .1 12.7 .2 21.9 .6 43.8 1.3 65.7 2.5 11 .6 21.9 1.3 33 2.2 5.5 .5 11.1 1 16.7 1.9 3.4 .6 4.4 .5 10.1 2.1 5.4 1.1 9.1 5 9.7 9.9l.1 22.9c0 7.5-.6 14.7-1.7 20.5l-.4 2.2 18.4 .2c1.2 .8 3.3 0 3.7 2 1.4 .5 2.4 1.6 3.5 2.5 1.6 2.3 2.9 5.9 3.3 8.4 .8 3.7 1.2 7.1 1.6 10.6 .7 6.9 1.1 13.7 .9 20.8-.1 4.3-.4 8.5-1.3 13.1-.2 1.9-1.9 6.5-3.6 9.2-2.3 2.5-5.4 4.3-8.7 4.7-2.2-.1-4.5-.1-6.9-.2-1.6-.1-3.2-.2-4.9-.3-2.8-.2-5.8-.4-9-.6l-1.4-.1c.3 1.3 .7 2.5 .7 4.1l1.5 284.7c0 3.7-.6 7.3-1.6 10.3 1.9 2.3 3.9 5.2 5.7 8.9l26.9 55.6 5.7 11.9 .1 .1c.2 .5 .5 1.1 .6 1.5l-11.5 0c-12 0-28.3 .1-48.9 .1l-115.3 .4-9.8 .1-6.9 0c-1-.1-2.5 .2-3.2-.2l0-3.4c-.1-27.1-.2-66.6-.2-79.1 .2-4.4-.6-9.9 .5-13.4 9.1 0 18.8 0 29-.1l114.4-.4-1.6-280c0-.4 .2-.7 .2-1L46 179.1c1 1.6 1.8 3.7 1.8 6.6l1.4 284.7c0 3.9-.6 7.7-1.7 10.7l-.5 1.5c-.4 1.2-1 1.7-1.7 1.9-.4 2.7-1.2 5.8-2.6 9.2L22.3 543c-.2 .7-.8 1.6-.6 1.9l3.8 0c4.4 0 49-.2 133.6-.5l13.4-.1 3.5 0c.1 0 .5 .1 .4-.2l-.1-21-.2-44.6-99.8 .4c-2.9 0-5.6-.3-7.6-1s-3-1.5-2.7-2.3l2.2-8c.6-2 6.1-3.6 12.9-3.6 39.8-.1 66.4-.2 79.7-.3l13.3-.1 3.3 0c-.1-41.6-1-82-.2-124.7 3.9-46.3 42.4-86.9 89-92.6 3-.6 6-.2 8.5 .4 40.3-2 81.7 20.8 98.7 58.4 5.1 10.6 8.4 22.2 9.7 34 .9 12.2 .5 22.5 .7 33.7l.4 65.9c0 3.6-.6 7.1-1.7 9.9l-.5 1.4c-.7 1.8-2 2.5-3.1 1.6l-6.6-5.7c-1.7-1.4-2.8-4.9-2.8-8.7l-.4-66.3c.2-22.6 .3-43-10-61.3-9.3-18.1-24.9-33-43.6-41-18.5-8-40.3-9.2-59.4-3.9-1.5 .5-3 .6-4.1 .4-.2 0-.2-.3-.4-.3-32.8 11.2-57.8 42.8-59.7 77.5-.5 41.7 .4 85.5 .5 128.1 0 1.7-.3 3.4-1 4.6 0 .1-.1 .1-.1 .1l.2 51.7c.1 21.7 .1 26 .1 29.2-.1 .9 .3 2.4-.3 2.9l-3.1 0-32.2 .1-106 .4-27.3 .1c-9.7 0-16.8 0-21.4 0-.6 0-1.1 0-1.4-.2l1.3-3c4.1-9.9 13.9-33.5 29.3-70.8 1.6-4 3.6-7.5 5.6-10.7-.7-1.8-1.1-3.9-1.1-6.3L32.8 182.5c0-1.3 .4-2.4 .7-3.5l-14.9-.1c-6.3-.4-11.6-5.7-13.4-9.5-1.9-3.9-3.1-7.7-3.8-11.3-1.4-7.3-1.7-14.5-1.1-21.7 1-7.3 1.4-14.5 7.9-22.9 3.6-4.8 12.9-5.1 14.6-4.9l9.8 .1 4 0c-.2-2-.3-4.2-.3-6.5l-.1-32.8 0-6c0-2.5 1.2-4.2 2.4-6.1 2.3-3.3 9.8-4.4 11.8-4.8 5.8-1 11.3-1.5 16.8-2 22.1-1.9 44-2.7 65.9-3.4 14.4-.4 28.8-.6 43.2-.9 0-.2-.1-.3-.1-.5l.5-25.1 103.2-19.8 104.6 18.9zM508 477.4l-114.8 .4-10 0c-.4-.1-.4 .2-.4 .5l0 3.6c0 19.1 .1 38.3 .2 57.4l0 4.8c0 .1 .1 .2 .2 .1l8.8-.1 115-.4 28.8-.1c4.1 0 4.8 0 4.8 0 .2 0-.1-.2-.1-.3l-24.1-49.9c-2.8-5.7-4.9-11.5-5.9-16.3-.8 .1-1.6 .2-2.4 .2zM19.5 123.3l-.2 .1c-.2 .1-.2-.1-.5 .5-1.8 2.3-3.5 8.7-3.9 14.2-.4 5.8-.2 11.8 .9 17.3 .5 2.8 1.4 5.2 2.3 7.2l-.1 0c1.3 1.8 1 1.5 1.4 1.6l504 2.6c7.7 0 15 .4 20.2 1.1 .6 .1 .8 .2 1.3 .2 .1-1.2 .3-2.4 .4-3.4 .4-4.4 .4-9.8 .2-15.3-.1-6.2-.6-12.5-1.6-18.5l-.7-3.8c-.1-.3-.2-.6-.3-.9-.8-.4 .1-.1-4.3-.2-461.5-2.4-455.1-2.3-507.1-2.6l-9.7-.1-2.3 0zM261.3 60.2c-44.1 0-88.3 .4-132.3 1.8-22 .7-44.1 1.6-65.6 3.7l-7.9 1-4.3 .8 0 7.6-.1 0 .1 33.1 0 .5c359.8 1.9 420.8 2.2 454 2.4l18.3 .2-4.4-7.8c-1.7-3-2.8-10-2.8-17.9l-.1-15.3c.2-.6-.5-.9-1-1l-6.5-1.1c-5.3-.7-10.7-1.3-16.1-1.8-10.9-1-21.8-1.6-32.8-2.2-22-1.1-44-1.9-66.1-2.5-44.1-1.1-88.3-1.6-132.4-1.6zM191.2 32.9l.1 .1-.1 4.4-.1 8.3c24.5-.3 48.9-.5 73.3-.5 35.4 0 70.8 .6 106.3 1.4-.8-1.5-1.5-3.4-1.4-5.7l.1-9.2-89.5-16-88.6 17.2z"/></svg>