<svg xmlns="http://www.w3.org/2000/svg" viewBox="0 0 616 560"><!--! Font Awesome Pro 7.2.0 by @fontawesome - https://fontawesome.com License - https://fontawesome.com/license (Commercial License) Copyright 2026 Fonticons, Inc. --><path fill="currentColor" d="M68.1 34c81.5-5.2 163.6-4 245-.5 3.3 .1 6.5 .6 8.7 1.3 .4 .1 .5 .3 .8 .4 .8 0 1.6 .1 2.3 .1 9.4 1.1 12.8 7.5 15.6 11.5 2.9 4.6 4.6 9.1 6.3 13.6 3.2 9 5.5 18.1 7.3 27.1 3.7 18.1 5.8 36.3 7.3 54.6 1 14.8 1.4 29.6 1.4 44.5 2.3-.5 5.1-.8 8.3-.8l160.5 2.4 27 .5c8.3 .8 12.6 6.3 15.9 10.4 3.1 4.4 5.3 9 7 13.5l-.1 .1c12.5 35.9 13.9 72 14.5 108.1 0 18.1-.8 36.2-3 54.3-2.4 18.1-5 36.2-13.7 54.3-2.3 4.5-5.7 9.1-10.3 11.9-1.6 1.4-3.8 2.5-5.7 3.6-2.5 .7-6.4 1.6-7.8 1.4-7.5 .3-14.9 .2-22 .2-13.8-.1-29.2 1.1-31.3 9.4-1.5 3.7-1 12.4-1.3 19.6-.3 15.8-.6 28.8-.8 39-.2 2-1.2 5.9-2 8.6-2.7 5.7-9.9 7.3-15.8 4.5-3.5-1-5.5-2.3-7.4-3.6-2.2-1.4-3.7-2.7-5.2-3.9-12-9.9-21.6-20.9-31.3-32l-14-17-6.7-8.7c-2.2-2.8-4.8-6.7-5.5-7.1-1.7-1.1-1.8-1.4-5.5-1.4-5.4-.2-16.2-.5-32.4-1-73.8-2.4-66.6-2.2-75.6-2.5l-5.4-.2c-2.7-.3-5.7-.3-8.2-1.3-10.7-4.2-15.3-12.7-18.8-19.8-3.5-7.4-5.5-14.8-7.2-22.3-3.3-14.8-4.9-29.6-5.7-44.4-.3-4.9-.3-9.7-.1-14.2-.2-5.1-.6-10.2-.6-15.3 0-1.6 .6-3.2 1.8-4.5l.5-.6c.3-.4 .9-.1 1.3-.3 .4-.6 .7-.6 1.1-.2 .2 0 .4-.2 .6-.1l6.6 2.6c1.7 .7 2.8 2.2 2.8 3.9 .1 19.3 1.3 38.7 4.5 57.5 1.6 9.4 3.7 18.6 7 26.9 3 8.3 8.6 15.6 12.7 15.7 .3 0 .6 .4 .9 1.1 0 .1 0 .3 .1 .4l86.9 2.8 21.9 .7c4.1 .4 6.2-.3 12.5 .9 5.3 1.1 10.3 5.6 12.4 9 8.5 11.5 17.5 22.8 26.9 33.6 9.2 10.5 19.8 21.8 29.5 28.8 2.8 1.9 1.7 1.1 2.5 1.4 .5-.5 .4 .2 .4-1.9l.8-42.5c.3-6-.9-16.5 6.3-25.1 7.2-8.3 16.9-9.9 24.5-10.9 7.9-.9 15.4-.8 22.7-.8l10.7 0 5.3-.2c1.2-.4 1.3-.1 2.2-.6 3-1.5 6.8-7.2 9.2-13.2 5-12.3 7.6-26.4 9.5-40.4 3.7-28.2 4.2-57.1 2.7-85.7-.8-14.3-2.2-28.5-4.6-42.5-2.4-13.8-5.7-28.1-11.7-38.8-1.8-3-3.3-5-4.2-6.2-.3-.2-.7-.4-1-.6-.3 0-.6 0-.9-.2l-3.3-.1c-23.6-.3-123.7-1.8-179.8-2.6-.2 15.1-1.1 30.2-3.1 45.4-2.5 16.2-4.9 32.6-14.5 48.7-2.9 3.9-6.1 8.1-11.7 10.6-2.6 1.5-5.8 1.9-8.9 2.2l-6.2 .3c-11.9 .5-35.7 1.5-71.5 3.1-1.3 0-2.5-.3-3.4-.9s-1.4-1.4-1.3-2.3l.8-8.1c0-.6 .7-1.1 1.1-1.7l-44.7 1.6c-5 0-4.9 .5-7.1 2.1L195.9 312c-5.5 7.3-11.3 14.4-17.2 21.4-5.9 7-12.1 13.8-18.5 20.5-3.2 3.3-6.7 6.6-10.2 9.8-3.7 2.9-7 6.5-14.1 9.5-7.4 4.4-16.7 1.1-18.3-6.9-.4-1.8-1.2-4.2-1.2-5.4 0-.6-.4-18.6-.9-38.3l-.3-13.9c-.3-4-.6-6.9-2.2-8.8-2.5-3.9-10-6.1-18.4-6.5-8.3-.6-17.4-.2-26.6-.2l-7-.2c-2.2-.2-7.4-.8-9.8-2.7-6.3-3.5-9.3-8.4-12.1-12.8-9.7-18.3-12.2-36.7-14.9-55-2.4-18.3-3.3-36.7-3.4-55 .4-36.7 1.5-73.3 14.4-110.1 3-7.3 7.4-14.6 13.6-18.6 .2-.1 .4-.1 .5-.2 .3-.2 .4-.5 .7-.7 2.4-2.3 9-3.4 10.7-3.3l7.7-.4zM421.6 253.8l6.6 .7c1.7 .2 2.8 .6 2.8 1.1l1.2 23.7c16.9 0 33.8 .3 50.8 1.4 .8 0 1.5 .5 2 1.1s.7 1.5 .5 2.4l-1.3 8c-.3 2-1.9 3.4-3.6 3.3-6.6-.4-13.3-.3-20-.5 0 .1 .1 .3 .1 .4-3.7 18.9-13.5 36.7-27 50.5 11.2 7.9 23.9 13.5 37.8 15.8 .6 .1 1.1 .6 1.4 1.3s.3 1.6 .1 2.4l-2 7.8c-.5 1.9-2.1 3.2-3.7 2.8-15.9-3.2-31.7-9.7-45-19.9-14.8 11.9-31.5 20.6-48.3 27.8-.8 .3-1.7 .3-2.4 0s-1.3-1-1.6-1.9l-2.4-7.7c-.6-1.9 .2-4 2-4.7 15-6.5 29.1-14.6 41.6-24.2-8.6-8.6-16.3-18.1-22.4-28.2-.7-1.2-.8-2.6-.4-4l.2-.7c.3-1 1.3-1.8 2.4-2l6.8-1.5c1.7-.4 3.3 .1 4 1.2 5.7 9.8 12.6 18.7 20.5 26.2 11.7-11.6 19.9-26.1 23.4-42-25.2-.4-50.5-.1-76 .8-1.5 0-3-.5-4.2-1.6l-.6-.5c-.8-.7-1.1-2-.7-3.1l2.3-6.6-.1 0c.6-1.7 2-2.8 3.6-2.9 15.8-.5 31.6-1 47.4-1.2l-1.1-24c0-.4 .6-.9 1.7-1.2l.5-.2c.7-.2 2-.3 3.1-.2zM324 50.1c-70.4-2.9-140.9-5.3-211.1-2.5-8.6 .3-16.9 .4-24.7 .4-7.8 .4-15.6 .6-23.5 1.1-6.7 .4-6 .2-8.8 2.7-2.4 2.3-4.5 6.5-6.2 10.6-3.5 8.5-5.8 18.1-7.6 27.7-3.5 19.4-5.1 39.3-5.7 59.2-.6 19.9 .1 40 1.9 59.7 2.1 19.5 4.9 39.8 12.3 56.5 2.2 4.7 4.3 8.3 6 10.7 .8 .6 1.5 1 2.2 1.5 .5 0 .9 .1 1.3 .3l3.1 .1 13.1 .1c8.9 0 18-.4 28 1.4 4.9 .8 10.4 2.5 15.3 6.2 5 3.7 8.3 9.8 9.5 15.4 1.3 11.1 .7 18 1.1 27.2l.5 26 .1 3.9c0 .2 .2 .5 .4 .6 .3 0 .5-.1 .7-.2l3.1-2.1c12.8-10.1 24.7-23.8 35.8-37.2 5.6-6.7 11-13.7 16.3-20.8l4.1-5.5c2-2.6 4.8-4.8 7.9-6.3 2.9-1.5 7.2-2 9.4-1.9l6.7-.2c35.7-1.3 71.5-2.5 107.3-3.8 5.3 .4 9.2-3.9 13-11.1 3.4-7 5.6-15.3 7.3-23.6 6.4-33.8 6-69.6 3.5-104.5-1.5-17.5-3.6-35-7.1-52-1.7-8.5-3.9-16.9-6.7-24.7-1.4-3.8-3-7.7-4.9-10.6-1.8-3.1-4.3-5-3.7-4.4zM185.5 102.7c3.3-1.3 7.4-1.3 10.1 1.3 3.3 1.4 5.4 6.2 8 9.3l3.7 7.1 6 13.2 11.3 26.1 0 0c7.6 17.3 15.5 34.3 24.3 50.8 .7 1.3 1.1 2.8 1 4s-.6 2.1-1.4 2.4l-7.7 2.7c-1.9 .7-4.6-1.3-6.3-4.5-5.8-11.1-10.8-22.4-16-33.7L168.4 184c-.7 0-1.4-.5-1.9-1.6l-.2-.5c-.1-.2 0-.6 0-.8-4.4 10.6-8.6 21.2-13.6 31.6-1.3 2.9-3.3 5.3-5.4 6.9l-1 .8c-1.4 1.1-2.7 1-3.3-.2l-3.7-7.3c-.9-1.8-.7-5 .7-7.8 8-16.9 15.3-34.3 22.2-51.8l10-26.5 2.4-6.7c1.2-3 2.1-5.8 3.6-8.9 2.2-3.4 4.1-7.1 7.4-8.3zm5 17.9c-.6 .1-.4-.3-1 1.5l-4.2 11.5-10.1 26.6c-1.2 3-2.7 6-3.9 9.1l0 0 40.3-2.3c-.5-1.1-1.1-2.2-1.6-3.4l-11.2-25.9c-3.3-7.9-9.3-19.6-8.3-17.1z"/></svg>