<svg xmlns="http://www.w3.org/2000/svg" viewBox="0 0 616 560"><!--! Font Awesome Pro 7.2.0 by @fontawesome - https://fontawesome.com License - https://fontawesome.com/license (Commercial License) Copyright 2026 Fonticons, Inc. --><path fill="currentColor" d="M320.3 80.1c38.7-.5 77.4-.7 116.2-.2 19.4 .3 38.8 .7 58.2 1.6 9.7 .5 19.5 1 29.3 1.9 4.9 .4 9.8 1 14.9 1.7 5.1 1.4 9.4 0 18.5 6.1 1.2 1 2 2.3 2.4 3.7 1.4 .9 .9 2.7 1.4 3.9-.1 3-.3 4.8-.6 5.5-.6 2.2-1.4 3.2-2.3 3l-8.1-2.3c-.9 0-1.8-2.5-2.5-2.7-.6-.8-1.4-.5-2.7-.8-35.5-6.3-75.4-5.8-113.3-6.8-38.4-.5-76.7-.3-115.1 .2l-209.9 4c-.2 .1-.3 .4-.4 .4l-30.3 1-3.8 .1c-.5 0-.7 .1-.7 .1-.2 0-.1 .4-.1 .4 .1-.8-.2 2.9-.1 4.8l.3 7.1c0 .1-.3 .3-.3 .4-.1 47.3 .9 95.4-.6 141.9-.2 45.4 1.7 90.9 1.3 136.9 2.7-.8 6-1.4 9.9-1.4L497.1 392c.4 0 .7 .2 1.1 .2-.2-2.6-.3-5.4-.3-8.4l-.8-241.1c-.3-.8 .5-.4-2.3-.7l-12.4-.7-25.1-.8-50.4-1-100.8-.8-100.8 .4-50.3 1-25 1-12.3 .9-1.8 .2-.1 .2c-.7 63.5-1.5 140.4-2.3 230.6 0 1.8-.6 3.4-1.8 4.5l-.5 .6c-.7 .8-2 .8-3 .1l-6.4-4c-1.6-1-2.7-2.9-2.7-4.7l.4-73.1c0-2.1-.1-4.2-.1-6.5l.2-22.5 .1-24.7c0-.1 .1-.3 .1-.3L101.3 137c-.1-4 2.2-6 5.3-7.7 2.9-1.2 8.5-1.6 9.8-1.8l12.9-1 25.4-1.1 50.6-1 101-.5 101 .8 50.5 1 25.3 .8 12.8 .7c1.4 .1 7.5 .4 10.5 1.5 1.7 .8 1.2 3.2 3.9 3l1.7 4.7 .8 256.3c0 5.1-.3 9.8-.8 13.5 11.3 0 22.9 .1 34.7 .1 0-.2-.1-.4-.1-.6l-1.6-265.3c0-3.6 .6-7.2 1.7-10l.5-1.4c.7-1.9 2-2.5 3.1-1.6l6.6 5.7c1.7 1.5 2.8 4.9 2.8 8.7l1.8 264.4 5.1 0 9.7 0c5.4 .1 11.6 3.2 14.5 8.9 3.6 8 4.3 14.1 5.3 21l.1-.1c.5 4.3 .4 8.5-.2 11.6-.3 1.4-.7 2.4-1.1 3.1-.2 2.8-.1 5.5-.7 8.3-.6 3.1-1.4 6.2-3 9.6-1.9 4.9-6.5 7.4-11.3 8.3L69.6 478.7c-3.7 0-7.2-.4-9.7-1s-3.8-1.5-3.4-2.3l2.8-8c.7-2 7.8-3.5 16.3-3.6l502.3-1.6c.2-.2-.2 .3 .2-.4 .7-1.9 1.4-4.3 1.8-6.9 .9-5.2 1.1-10.8 .9-16.3-.1-2.5-.3-4.9-.4-7.2-.5-2.7-1.2-5.3-2-7.6-1.2-3.1-.6-1.7-1.8-2.5-.1-.3-4.2-.1-7.1-.2l-9.3 0c-731.9-1.3-403.2-.7-521-1-.5 0-.2 0-.2 0-.7 1.3-1.5 4-2 6.6-1 5.3-1.3 11.1-1.2 16.8 .1 7.4 .5 15 1.3 19.3l.3 1.7c.2 .7-.7 .6-.9 1.3-.1 .7 .1 1.2-.3 1.6-2.7 1.8-7.8-3.3-10.6-6.8-2.6-3-4.9-11.2-4.7-20.4 .1-6.7 .7-13.2 2.4-20.2 .4-1.7 1.1-3.6 1.8-5.4 .8-1.7 2.5-5 4.7-6.3 .9-1.1 2.1-1.7 3.5-1.9 1.3-.4 2.6-1.2 4-1l5.4 0 15.1 0c-.2-1.2-.4-2.3-.4-3.6 .8-49.4-1.8-99.2-1.5-149.3 1.6-50.5 .2-99.5 .5-149.3 0-.3 .1-.5 .1-.8 0-1.9 .1-4 .8-7.6 .9-4.4 3.8-8.6 8.3-8.9 1.9-.3 4.9-.2 6.2-.3l3.8-.1 6.5-.2c2-.4 3.8-.8 6.1-.9l232.1-4.4zM499.8 406.2l.7 0c0 0-.1-.1-.1-.1-.2 0-.4 .1-.6 .1zm-427.9-.7l7.5 0c-2.6 0-5.1-.2-7.5-.4 0 .1-.1 .3-.1 .4zm337-153.1c.7 .2 1.5 .6 2 1.3l5 6.3c1.2 1.6 1.3 3.5 .2 4.6L346 330.6c-1 .9-2.3 1.3-3.8 1.2l-.7-.1 0 0c-1-.1-2-.9-2.5-1.9l-2.9-6.3c-.7-1.6-.6-3.3 .4-4.2l70.5-66.4c.5-.5 1.2-.6 1.9-.5zm-82.5-74.8c1 0 1.8 .3 2.3 1l4.8 6.5c1.2 1.6 .7 4.1-1.1 5.8L216.9 298.1c-1.6 1.5-3.6 2.4-5.5 2.7l0 0-1 .1c-1.3 .2-2.4-.5-2.8-1.6l-1.9-7.1c-.5-1.8 .3-4 1.9-5.6l116-107.8c.8-.7 1.8-1.2 2.7-1.2z"/></svg>