<svg xmlns="http://www.w3.org/2000/svg" viewBox="0 0 504 560"><!--! Font Awesome Pro 7.2.0 by @fontawesome - https://fontawesome.com License - https://fontawesome.com/license (Commercial License) Copyright 2026 Fonticons, Inc. --><path fill="currentColor" d="M254.8-7.1c1.9-1 11.1 2.9 22.3 8.8 58.4 30.6 118.9 59.9 172.4 101 6.7 5.2 13.3 10.4 19.5 16.2 3.1 2.8 6.5 5.5 9.4 8.6l12.8 12.9 2.1 2.1c.6 .7 1.9 1.4 .5 2-2.3 1.9-6.6 5.5-12.9 10.7l-9.7 7.9-19.7 15.4c-12.3 9.5-24.7 18.7-37.2 27.8 1-.1 2.1-.3 2.3 .3l3.1 7.7c.8 1.9-2.5 6.2-7.5 9.8-52.6 38.5-106.6 74.7-157 115.3l-2.4 1.9c-1.1 .9-2.7 2-4.3 2.7-3.2 1.4-6.9 1.9-10.4 1.2-1.8-.3-3.4-1-4.9-1.8l-2.8-1.6-26.5-15c-14.2-8.1-28.3-16.3-42.2-24.9-27.9-17.1-55.3-35.3-81.2-55.6-4.1-3.1-7.5-6.7-9.9-10-15.6 13.4-31 27-45 41 .8 .7 2 1.7 3.7 3.3l16.4 13.7c22.2 17.9 45.3 35 68.6 51.7 23.3 16.7 46.9 33.1 70.7 49.2l35.7 24 17.9 11.9 3.7 2.5c.2 .1 .3 .3 .5 .2l5.6-3.8c47.4-31.9 92.3-67.7 137.7-103 22.7-17.7 45.5-35.4 68.6-52.6l16.6-12.2 .1-.1-2-1.7c-10.3-8.5-22.9-16-34.7-25.2-3.8-3-7.2-6.3-9.3-9-2-2.7-2.7-4.5-1.8-4.8l8.1-3.4c2-.8 9.4 3.8 18 10l17.5 12.3 8.9 6.6 4.4 3.6c1.8 1.5 4.6 4.2 6.7 6.3l6.8 6.9c-2 2-4.9 3.9-7.3 5.8l-11.7 8.5-17.2 12.7-28 21.5c2.4 1.9 5 4.1 7.7 6.7 25.7 24.6 43.2 41.4 52.5 50.3l0 .1c4.1 4.7 14.7 10.1 4.2 14.5l-12.6 10.2c-24.7 20-50.1 39.2-75.9 57.8l-77.4 55.2-38.1 28-18.7 14.4-22.6 18.1-37.1-22.9-32.2-20.8c-21.3-14.1-42.3-28.6-63-43.7-46.6-33.8-75.8-59-90.2-71.8l-9-8.2-7.1-6.4c-.4-.5-1.7-1-1.3-1.6l1.7-1.7 3.3-3.4 16.4-17.1c6.6-6.9 13.4-13.1 19.2-17.5l2.8-2.2c3.9-3 5.9-3.3 5-.8l-5.5 15.3c-1.4 3.9-6.7 11-13.5 18.1l-8.4 8.8 8.8 8c9.4 8.2 18.9 16.3 28.6 24.2 19.4 15.7 39.3 30.9 59.6 45.6s40.9 28.9 61.7 42.7l31.5 20.4 27.6 17.1 15-12 19.3-14.9 39.2-28.8 78.8-56.3c26.1-18.9 51.6-38.4 76.6-58.7 1.6-1.3 .7-.5 .9-.8l-3.9-3.7c-9.6-9.2-25.2-24.1-46.6-44.6-1.3 1.5-2.9 3.1-5 4.7-53.4 41.3-105.9 84.3-162.2 122.7l-5.3 3.6c-1.3 .8-4.2 3.2-8 4-7 2.4-15.5-2.9-17.5-4.8l-20.9-14.5-125.3-87c-4.6-3.2-8.7-6.8-11.5-10.1l-1.4-1.6c-1.9-2.3-2-3.8-.1-3.8l11.1-.3c1.2 0 2.9 .5 4.7 1.2-17.9-13.1-35.7-26.5-53-40.7-6-4.9-10.2-8.5-17.5-15-11.7-10.9-10.6-9.8-12-11.1-.2-.6 1-1.3 1.4-1.9l7.2-7.4 5.6-5.5c10.7-10 21.6-19.3 32.6-28.6 3.3-2.8 6.7-5.5 10-7.9 2.7-2.3 5.3-4.6 8-6.9-10.7-8.8-21.3-17.7-31.5-27.3-7.9-7.8-20.2-11.8-24.9-18.9L9.4 169c-3.1-4.4-3.4-6.4-1.2-5.5-.7-1.7 5.1-8.6 7.6-11.2 29.2-29.2 62.2-52.6 95-76 33-23.2 66.7-45.3 100.3-67.3 2.8-1.8 5.8-3.1 8.5-3.5l1.3-.2c1.8-.3 3 .4 2.9 1.8l-.7 8.3c-.2 2.1-2.2 4.8-5.1 6.7-33.8 22.2-67.5 44.4-100.4 67.5-32.6 23.3-65.7 47-93 75-.1 .1-.4 .2-.4 .2l5.5 2.7c4.2 1.9 12.1 8.4 20.4 16.2 48.2 45.1 104.4 80.9 162 113.8l21.7 12.4 7.8 4.5c.3 .3 .4-.2 .7-.3l4.3-3.4c13.1-10.5 26.4-20.7 39.8-30.7 53.7-39.9 109.3-76.8 161.6-117.5l19.4-15.5 4.9-4.1c0-.5 .4 .3-1.1-1.3-11.3-11.6-24.1-21.8-37.1-31.7-53-39.2-112.8-67.8-172.2-99.2-4.9-2.8-9.3-5.6-12.3-8.4-3-2.7-4.1-4.5-3.2-4.9 2.8-1.3 5.5-2.7 8.1-4.2z"/></svg>