<svg xmlns="http://www.w3.org/2000/svg" viewBox="0 0 560 560"><!--! Font Awesome Pro 7.2.0 by @fontawesome - https://fontawesome.com License - https://fontawesome.com/license (Commercial License) Copyright 2026 Fonticons, Inc. --><path fill="currentColor" d="M320.8 10.1c31.1-2.2 61.9 2 92.8 4 30.9 2.4 60.6 7.5 89.4 2.4 4.2-.7 8.2-1.5 12-2.2 1.8-.5 3.6-1 5.5-1.5l10.7-2.4c.6-.2 1.2-.1 1.8-.2 2.8-.7 4.6-.8 4.7 0 3.7 .8 6.9 3 8.4 6.7L546 17c1.2 2.7 1.3 5.9 .8 9.1l-.7 6-2.7 21.4-6.2 42.8c-4.8 28.5-10.4 56.9-18.2 84.9-15.5 55.8-39.6 110.6-78.1 155.3-38.1 45-90.6 76.7-146.5 93.6-55.9 17.1-114.8 23.1-172.6 20.6-9.7-.2-19.1-1.1-26.4-2.5l-3.6-.6c-4.9-.9-6.5-2.2-4-3.2l15.3-6.2c3.9-1.6 12.9-2.5 22.9-2.2 28.3 1.9 56.4-1.4 84.5-3.2 14-1.4 27.7-4.8 41.5-7.1 14-1.8 27.3-6.3 40.6-10.7 53.3-16.6 102.4-47 138.1-89.7 36.2-42.5 59.2-94.9 74.1-149 7.4-27.2 13-54.9 17.6-82.9l6-42.1 2.7-21.2 .5-4.5 0-.1-.1 0-15.2 3.5c-3.3 .7-6.3 1.2-9.1 1.6-2.1 .5-4.1 .9-6.3 1.2-31.9 4.8-63.5-1.6-93.7-3.3l-45.7-3.6c-15.2-1.8-30.5 .2-45.7 .1-30.6-.7-60.4 5.3-90.3 10L182.4 48.2c-13.9 5.6-27 13-40.5 19.4-52.7 29.4-87.7 83.1-100.7 141.2-4.1 14.4-4.4 29.6-6.4 44.4 .3 15-1.2 30.1 1 45 1.8 28.7 8.9 56.9 18.7 83.7 2.2-5.1 4.2-10.2 6.6-15.2 21.1-43.4 50.2-82.8 84.8-116.5-.3-.6-.6-1.2-.6-1.9-.2-38.1-.6-76.4-1.7-114.4 0-.8 .3-1.6 1-2.1s1.5-.8 2.3-.8l8.1 .4c2 .1 3.6 1.6 3.6 3.4 .9 34.2 1.2 68.2 1.3 102.3 73.9-65.6 167.8-105.8 264.6-122 4.1-.6 8.1-.9 11-.6 1.4 .1 2.6 .4 3.1 .7 0 0 .4 0-.1 .2-.9 .1-2.3 .9-1.4 3 0-.1-.1-.4 .4-.3 2.2-.8 1.5 .1 1.5 .4l-.4 1.9c-.6-.5-1.1-1-1.4-1.5 .3 .7 .9 1.1 1.4 1.5l-.1 .2-.1 .4c-.1 0-.1 .1-.2 .1 .1 0 .2-.1 .2-.1l-.9 3.7c0 .1-.2 .2-.3 .3 .6 .5 1.3 .7 1.6 .9 1 .3 1 .3 .9 .4-.1-.2-1 .8-2.7-1 .1-.1 .1-.2 .2-.2-.4-.3-.5-.9-.6-1.4 0 .4-.3 .8-.1 1.2 .2 .2 .3 .3 .5 .5-1.6 1.9-8.3 4.1-16.7 5.6-43.8 7.8-86.9 21-127.7 39.1l82.5 20.1c.6 .2 1.2 .7 1.4 1.4 .3 .7 .3 1.6 0 2.4l-2.6 7.6c-.6 1.9-2.3 3.1-3.8 2.7l-96.1-23.6c-.7-.2-1-.8-1.6-1.3-41.7 20.7-80.6 46.8-114.3 78.9-71.7 67.7-114.3 162-126.6 259.5-1.2 8-2.6 15.8-4.3 21.9l-.9 3c-1.2 4.1-2.6 5.4-3.4 3.2l-5.3-13.4c-1.4-3.5-1.4-11.4-.3-20.1 5.4-38.6 15.1-76.8 29.5-113.3-2.4-3.5-5.4-9-8.2-15.9-19.8-59.2-26-123.8-10.2-185 6.5-31 22-59.2 39.7-85.3 10.6-11.6 20.8-24.1 32.8-34.2l19.1-14.1c6.3-4.8 12.6-9.6 19.9-12.6 55.3-30.8 119-41.7 180.7-41.9zM439.4 121c.2 .2 .3 .3-.2 0 .1 0 .1 0 .2 0zm-.4 0c-.1 0-.3 .1-.4 .1l0-.1 .1-.1c.2 0 .2 0 .4 .1zm.2 0c-.1 0-.1 0-.2 0 .1 0 .2 0 .2 0l.1 0zm-.2-.4c-.1-.1-.2-.2-.3-.2l0-.1c.1 .1 .2 .2 .3 .3z"/></svg>