<svg xmlns="http://www.w3.org/2000/svg" viewBox="0 0 560 560"><!--! Font Awesome Pro 7.2.0 by @fontawesome - https://fontawesome.com License - https://fontawesome.com/license (Commercial License) Copyright 2026 Fonticons, Inc. --><path fill="currentColor" d="M532.8 372l6.9 5.4-.1 0c1.8 1.4 3.1 4.8 3.3 8.7l3.8 67.5c1.4 22.8-2.4 49.2-20.2 68.3-18.5 18.4-43.8 23.6-66.7 25.3-23.3 1.7-46.1-.1-68.7-2-1.8-.2-3.5-.7-4.7-1.5-1.2-.8-1.7-1.6-1.5-2.5l2.2-7.9c.6-1.9 4.2-3.1 8.4-2.8 22.1 1.9 44.3 3.4 65.8 1.5 21.3-1.7 42.8-7.5 55.8-22.2 13.1-14.8 16-36.3 14.7-57.8l-3.8-66.9c-.2-3.7 .2-7.3 1.2-10.1l.5-1.4c.7-1.9 1.9-2.6 3-1.8zM23 357l6.3 6.7c1.6 1.7 2.5 5.6 2.3 9.9l-3.4 74.8c-1.3 24.3 1.6 48.9 17.9 64.3 16.2 15.1 41.1 19 65 19.4 24.2 .6 49-2.3 73.7-4.9l0 0c2-.2 4-.1 5.4 .4s2.2 1.2 2.1 2.1l-.7 8.1c-.2 2-3.9 4-8.6 4.5-24.7 2.7-49.8 5.3-75.4 4.5-24.9-1-53.6-4.9-73.8-25.6-20.7-20.8-21.4-51.2-20.3-75.4l3.4-74.5c.2-4.1 1-8 2.3-11.1l.6-1.5c.9-2.1 2.1-2.7 3.2-1.6zM269.9 19.3c31.7-1.4 63.8 2.8 94 12.8 27.6 9 53.5 23.2 76.4 40.9 5.8 4.4 11.4 9 16.6 14 2.9 2.7 4.9 4.4 8.4 7.9l6.8 8.2c6.7 8.2 13.3 16.7 19.8 25.2 .1 .2 .3 .4 .4 .5 2 2.7 4.2 5.2 6.2 7.9 2.6 3.6 4.6 7.5 5.7 11.1 32.6 55.4 44.5 123.1 30.4 186.3-.3 1.6-1 3.1-1.9 4.1-.8 1-1.8 1.3-2.6 1l-7.5-3.1c-1.9-.8-2.7-4.1-2-7.7 11.4-53.8 2.9-110.8-21.7-159.6L384.6 229.8c14.6 30.9 14.2 68.3-1.1 99 .3 .1 .7 0 1 .2l114.6 57.6c2.4-4.4 4.7-8.6 6.6-11.5 2.2-3.4 3.8-5 4.4-4.2l5.4 7.5c1.3 1.9-2.2 13.6-9.5 26.3l0-.1c-37.3 67.3-106.7 116.7-183.2 128.5-11.9 1.9-24 2.7-36 3.1-.3 .2-.6 .5-1 .6-20.9 3-41.3 .4-61-3.9-19.7-4.6-38.9-10.7-57.3-21.8-.3-.2-.3-.6-.5-.8-21.4-10.5-41.6-23.7-59.4-39.6-28.8-25.7-51.9-57.9-66.9-93.6-14.9-35.7-21.2-74.9-19.3-113.5 3.1-77.6 44.5-152.2 107.9-197 10.3-7.4 21.2-13.3 30.2-17l4.4-1.8c6.1-2.4 8.6-2.2 6.3 .2-2.3 2.4-4.4 4.9-6.6 7.3l.1-.1c1.8-.8 4 .1 5.1 2 20.9 40.1 36.5 81.6 52.3 123.2 23.2-14.4 51.5-20.7 78.6-16.3 14.3 2.2 28 7.6 40.4 15 14.4-40.8 28.7-81.4 48.2-121-10.4-5-21-9.4-32-12.9-14.1-4.5-28.6-7.6-43.3-9.5-.1 0-.2 .1-.2 .1-14.5-1.6-29.1-2.1-43.7-1.8-25.4 1.3-50.6 6.3-74.4 15.5-2.1 .8-4.2 1.2-5.9 1.1s-2.7-.6-2.8-1.4l-1.4-8.1c-.3-2 3.3-5 8.5-7 21.1-7.8 43.2-12.6 65.6-14.5 .2-.2 .3-.5 .5-.5 3.5-.2 6.9 0 10.4-.1zm-50 356.3c-14.4 40.8-28.7 81.3-48 120.9l0 0c48.2 23.7 104.3 31.2 157 20.6 20.9-4.2 40.9-11.6 59.8-21.1-19.9-38.8-35.1-78.8-50.3-119-18.1 10.6-39 16.4-60.2 15.8-7.8 .5-15.2-.1-22.4-1.6-8.9-2-17.3-4.4-26.1-9.6-.2-.1-.1-.5-.2-.6-3.3-1.6-6.4-3.5-9.5-5.5zM182.6 339c-.5 .7-1 1.3-1.8 1.7L69.2 400.2c14.2 24.3 32.3 46.3 53.9 64.4 11.1 9.5 23.2 17.6 35.8 24.8 18.6-38.4 33.3-79.7 47.7-120.5 .2-.7 .9-1.1 1.4-1.8-9.9-8-18.7-17.4-25.5-28.2zm193.9 2c-6.9 10.8-15.8 20.1-25.9 27.9 .3 .4 .8 .7 1 1.3 15.3 40.3 31 81.3 50.4 119 37-21.4 68.2-52.4 89.7-89.7L377.2 341.8c-.3-.2-.5-.6-.8-.8zM60.6 170.5c-14.9 31.2-23.4 65.5-24.5 100l0 0C34.4 311 44.2 351.1 62.3 387l112.5-59.9c.4-.2 .9 0 1.3-.2-.5-1-1.1-1.9-1.5-2.9-13.6-30.2-12.6-65.9 1.3-95.9-.4-.1-.8 0-1.1-.2L60.6 170.5zm235.4 8c-28.2-4.1-58.1 4.2-79.5 23-.4 .3-.8 .3-1.2 .6l-11.5 11.6c-.1 .1-.5-.1-1-.4-.1-.1-.3-.3-.5-.4-1 1.6-2.1 3.3-3.3 5.2-21.9 29.4-25.5 71.2-8.9 103.9 15.8 32.6 50.2 55.2 86.4 56.1 1.7-.1 3.6 0 5.3-.3 0 0 .1 .2 .2 .2 34.9-.4 69-20 85.7-50.7 18.1-31.4 17.1-72.9-2.8-103.1-2.1-3.1-4-6.2-5.7-9.1-2.3-2.9-4.5-5.9-6.9-8.8-4.3-4.2-10.5-9.3-16.3-13-12.1-7.7-25.8-12.7-39.9-14.8zM401.6 65.1c-19.1 39-34 80.9-48.6 122.4 4 3.1 7.9 6.5 11.9 10.9 4.8 5.7 9.4 11.4 14 17.8L492 155.8c-3.9-6.6-7.8-13.1-12.3-19.3-.5-.6-1-1.2-1.5-1.9-5.3-7.2-11-14.2-17.1-20.8-1.1-1.2-1.6-2.5-2.4-3.8-7.9-9.9-18.9-18.8-29.3-26.9l0 0c-8.8-6.7-18.2-12.7-27.8-18.1zm-246-1c-3.9 4.1-12.2 10.4-21.6 17.4-27.5 19.9-49.7 46.4-66.5 75.9l114.7 57.8c.2 .1 .3 .4 .5 .6 2.4-3.7 4.8-7.4 7.7-10.9 2.2-2.6 4.7-4.8 6.7-6.1 .6-.4 1-.5 1.4-.7l10.2-10.1c-.3-.4-.7-.7-.9-1.2-15.8-41.6-31.9-83.9-52.2-122.6zm265-48.8c21.4-.7 42.9-4.2 66 .1 11.4 1.9 22.7 6.8 32.3 14.1 9.6 7.6 16.4 17.9 21.1 28.6 8.8 21.8 9.7 44.6 9.6 66.5-.3 22-2.5 43.6-4.6 65-.2 1.7-.7 3.4-1.5 4.5s-1.6 1.6-2.5 1.4l-7.8-2.2c-1.9-.6-3.1-4.1-2.7-8.1 2.1-21.2 4.1-42.4 4.3-63.4 0-20.7-1.1-42.1-9.4-59.8-3.6-9.1-10.1-16.1-17.1-22.1-7.9-4.9-16.5-9.1-26.4-10.3-19.1-3.3-40.9-.3-62.2 .5-3.5 .2-6.9-.2-9.7-1.2l-.1 0-1.3-.5c-1.8-.7-2.5-1.9-1.7-3l5.1-6.9c1.3-1.8 4.6-3 8.3-3.3zM84.9 12.9c22.7-1.7 42.5 .9 63.7 1.4 3.5 .2 6.8 .9 9.4 2.2l1.3 .6c1.7 .8 2.2 2.1 1.3 3.1l-5.7 6.3c-1.5 1.6-4.8 2.6-8.4 2.4-20.7-.5-42.5-3-61.8-1-19.3 2.3-37.6 10.9-46.3 27.8-9.4 16.4-11.6 37-11.8 57.3-.2 20.4 1.8 41.1 4 61.9 .2 1.7 0 3.4-.5 4.6s-1.3 1.9-2.2 1.8l-8.1-.5c-2-.1-3.8-3.2-4.3-7.2-2.2-20.9-4.1-41.9-3.7-63.4 .4-21.3 3.1-43.9 15-64 12-20.6 36.3-31.5 58.2-33.3z"/></svg>