<svg xmlns="http://www.w3.org/2000/svg" viewBox="0 0 448 560"><!--! Font Awesome Pro 7.2.0 by @fontawesome - https://fontawesome.com License - https://fontawesome.com/license (Commercial License) Copyright 2026 Fonticons, Inc. --><path fill="currentColor" d="M225.6-8.3c14.9 1 29.2 3.5 41.5 6.9 22.3 5 44 12.6 64.6 22.9 37.1 19 69.3 49.4 87.6 87.5l0 0c37.4 76.1 21.5 172.5-34.6 234.9-4.7 5-9.5 9.9-14.1 14.3-2.9 2.5-5.9 4.6-8.8 6.6l-12.7 10.4c-6 4.6-9.5 8.2-12.4 14.5-5.4 12.1-6.8 27.4-7.8 42.3-.6 11.7-.7 23.6-.8 35.4 4.3-.4 8.7-.7 13-1.2 1.6-.2 3.1 0 4.2 .5 1.1 .5 1.7 1.3 1.8 2.2l-.2 8.1c0 2-2.9 3.9-6.6 4.3-4.1 .5-8.2 .5-12.3 .8l0 19.3c5.1-1.3 10.4-2.4 15.3-4.1 1.3-.6 2.7-.7 3.9-.5s2 .7 2.3 1.6l2.5 7.7c.6 1.9-1.9 4.6-5.7 6.2-6.1 1.9-12.2 3.1-18.3 4.5 0 2.2 0 4.4 0 6.6l0 11.5c0 7.5-5.1 12.6-8.9 15.2-8 5.4-15.9 7.6-23.7 9.7-15.6 3.9-31.2 5.4-46.8 6.5-31.1 1.6-62.2 1-93.5-5.2-7.8-1.8-15.7-3.7-23.6-7.7-3.9-1.9-8.2-4.5-11.8-9.7-1.9-2.3-2.8-6.8-2.8-9.4l.1-5.8c0-1.5 .1-2.9 .1-4.4-2.7-.2-5.4-.3-8.1-.6-3.3-.4-6.3-1.3-8.7-2.8L99 520c-1.6-1-2-2.3-1-3.2l5.9-5.9c1.5-1.5 4.6-2.3 7.9-1.9 1.8 .2 3.7 .2 5.5 .4 .2-9 .4-18.1 .7-27 .1-3.7 .2-7.4 .3-11.2-3.8-.9-7.6-1.5-11.3-2.5-3.2-.9-6.1-2.4-8.1-4.2l-1-.9c-1.4-1.2-1.5-2.5-.4-3.3l6.7-4.9c1.7-1.3 4.8-1.5 8-.6 2.1 .6 4.3 .9 6.5 1.4 0-6.4 .1-12.8-.2-19.1-.9-14.6-2.8-29.5-10-40.1-3.6-5.8-7.8-8.6-14.6-13-6.6-4.5-13.5-8.6-19.4-14-12.7-9.8-23-22.2-32.6-35-18.1-26.4-29.2-57.3-33.1-88.7-7.5-63 10.4-128.3 49.5-178.4 19.8-24.7 44.7-46.1 74.1-59 29.1-13.2 61.5-18.8 93.2-17.1zM313 520.1c-28.5 5.1-57 6.3-85.5 7.6-31.9 .8-63.9-.2-95.8-2.7l-.1 4 0 5.7c.2 .2 .1 .5 .6 1.1 2.2 3 9.5 6.3 16.1 8.2 6.9 2 14.2 3.5 21.5 4.6 29.6 4.2 60.4 4.5 90.3 1.8 14.9-1.5 30.1-3.7 43-8.7 3.2-1.2 6-2.8 8-4.3 .8-.8 1.5-1.5 1.6-1.9 .1-.6 .2 .4 .2-2.4l-.1-.1 0-13zM132.4 494.6l-.4 15.6c32.3 2.5 64.8 3.5 97.1 2.5 27.9-1.2 56.8-2.7 83.9-7.8l0-21.9c-29.9 2.1-59.8 2.8-89.7 1.4-30.2-1.5-60.5-4.4-90.4-10.2-.2 6.7-.2 13.6-.5 20.3zM203.9 7.2c-39 2.1-77.2 16.5-106.6 42.3-29.9 25.2-51.3 59.8-63.4 97.1-12.2 37.3-14.6 77.9-6.6 116 8.6 37.9 28.7 73.5 59.4 97.1 4.6 4.2 9.9 7.3 13 10.4 .1 .1 .1 .2 .2 .2 3.5 2.3 7.1 4.8 11.6 8 6.9 6 11.8 13.7 15 21.7 5.9 16.2 6.6 32.4 6.8 48 0 3.8-.2 7.4-.3 11.2 30.4 6 61.6 9.1 92.7 10.6 29 1.2 58.1 1 87-1 .1-11.9 .4-23.9 1.1-36-53.4 5.2-107 4.3-160.2 .9-2.2-.1-4.4-.9-6-2.2l-.8-.6c-1.1-.8-1.4-2.1-.7-3.1l4-6.3c1-1.6 3.2-2.6 5.5-2.4 23.4 1.4 46.9 2.3 70.3 2.5-1-3-1.5-7.6-1.2-13 2.3-37.8 3-75.7 2.8-113.7l-.6-37.4c-1 0-2 0-3 0-9.8-.3-20.5-1.6-30.3-6.3-9.9-4.4-18.9-13-22.9-23.8-3.8-10.8-3.3-22.6 .7-32.9 4-10 12.3-20.6 24.9-23.3 11.9-2.6 24.4 1.1 33 10.1 9 10.4 9 21.4 10.5 30.9 1 9.8 1.3 19.5 1.5 29l0 1.2c22.6-2.2 43.9-11.6 51.4-31 .9-2.3 1.9-4.6 2.7-6.2 .9-1.6 1.9-2.4 2.7-2.1 2.5 1 5.1 2.1 7.6 3.4 1.9 .9 2.3 8.1-1.5 15.5-10.1 19.9-31.2 30-50.6 33.6-4 .8-8 1.2-12 1.5l.6 41c.1 38-.7 76-3.1 114.1-.2 3.3-.6 6.5-1.2 9.6 25.7-.1 51.4-1.3 76.8-3.9 0-.3 0-.6 .1-.8 2-15.4 3.9-33.2 17.4-47.3l18.3-15.1c6-4.4 11.2-9.6 16.1-15.2 41.4-42.6 62-104.4 55.4-163.1-3.2-29.3-13-58.1-30.4-81.9-17.1-23.9-39.9-43.5-66-57.7-7.7-3.9-15.1-7.2-20.7-10.2-32.2-13.4-67.4-20.1-101.5-19.2zm13 182.4c-5.3-4.3-13.6-5.6-19.6-3.1-5.9 2.4-10.7 9.1-12.7 16.6-4.6 15.5 3.3 31.4 19.1 36.2 7.1 1.9 15.2 3 23.3 3.4l-.1-4.8c-.2-9.4-.6-18.7-1.8-27.7-.6-4.4-1.4-8.8-2.7-12.6-1.2-3.5-2.8-5.9-5.6-8.1z"/></svg>