<svg xmlns="http://www.w3.org/2000/svg" viewBox="0 0 560 560"><!--! Font Awesome Pro 7.2.0 by @fontawesome - https://fontawesome.com License - https://fontawesome.com/license (Commercial License) Copyright 2026 Fonticons, Inc. --><path fill="currentColor" d="M226.1 208c17.5-3.3 35.6-2.1 52.9 2.6 .2 0 .3 .1 .5 .2 9.7 2.7 19.1 6.5 27.8 11.6 1.2 .7 2.5 1.2 3.6 1.9 .8 .5 1.7 .8 2.5 1.3 2.4 1.7 4.6 3.5 6.5 5.3 1.6 1.3 3.4 2.3 4.9 3.7 .7 .6 1.2 1.5 1.2 2.4s-.3 1.7-1 2.3l-6.1 5.4c-1.5 1.3-3.7 1.4-5.2 .2-6.7-5.8-14.4-10.3-22.5-13.9-1.5-.7-3-1.4-4.5-2-27.4-10.7-59.7-9.5-85 4.5-.9 .6-2.1 .5-3.2 .5-3.9 2.3-7.6 4.7-11.1 7.8-10.8 8.7-21.3 17.9-31.6 27.3-40.7 37.8-80.2 79.2-109 125.5-13.4 22.9-18.4 50.3-11.6 75.5 7.4 24.7 26 46.2 50 55.5 24.1 9.1 51.9 5.9 74.7-7.1 9.2-5.1 17.6-11.9 25.9-19.3 0 0 .1-.2 .1-.2l28.4-26.7c2.6-2.5 5.2-5.1 7.9-7.5 .5-.5 1-.9 1.5-1.3l72.5-68.1c1.5-1.4 3.4-2.3 5.4-2.6l.9-.1c1.3-.2 2.5 .5 2.8 1.6l2.1 7c.5 1.8-.1 3.9-1.8 5.4l-89.3 84c-6.6 6.5-13.4 13-20.4 19.2l-1.8 1.6c-.1 .1-.3 .1-.4 .2-9.3 8.1-19.2 15.8-30.9 21.7-26.3 13.6-59.9 17.1-87.8 3.9-27.6-12.9-49.4-38.6-55.3-68.7-6.7-29.9 .9-61.7 17.1-86.5 31.8-48.5 71.6-89.9 113.8-128.5 10.7-9.6 21.4-18.9 33.1-27.8 13-9.3 27.2-14.8 42.2-17.6zM420.5 17.1c28.3-5.3 58.9 2.8 80.9 21.6l4 3.6c19.8 18.7 30.1 46.3 29.6 73.1 0 29.1-14.2 56.1-30.3 77.7-32.1 44-69.9 83.1-110.5 119-10.6 8.9-19.7 17.7-32.7 25.9-12.6 7.3-26.5 11.9-40.8 13.9-28.5 3.6-58.3-2.6-82.4-19.1-3.9-2.7-7.2-5.7-9.2-8.4-2-2.6-2.6-4.3-1.7-4.6l8-3.7c2-.9 8.7 3.3 16.9 8 21.5 12.8 48 16.7 72.5 12 12.2-2.3 24.2-7.3 33.9-14 10.2-7.8 20.4-16.5 30.2-25.3 39.4-35.3 76.1-73.9 106.7-116.8 14.9-21 25.2-44.6 24.3-69.5-.2-24.6-12.2-48.6-31.8-63.2-19.1-15.1-45.1-21-68.9-14.8-19.9 4.8-37.3 15.6-53.3 29.9l-.1 .1-1.3 1.2c-3 2.7-6 5.4-8.9 8.3-3.4 3.2-6.8 6.1-10.2 8.7L242.6 172.5c-1.7 1.5-3.8 2.5-5.8 2.8l-1 .1c-1.4 .2-2.5-.5-2.8-1.7l-1.7-7.3c-.4-1.8 .5-4.1 2.2-5.7L357.9 50c.2-.1 .4-.1 .5-.2 17.2-15.2 38.2-28.4 62-32.6z"/></svg>