<svg xmlns="http://www.w3.org/2000/svg" viewBox="0 0 560 560"><!--! Font Awesome Pro 7.2.0 by @fontawesome - https://fontawesome.com License - https://fontawesome.com/license (Commercial License) Copyright 2026 Fonticons, Inc. --><path fill="currentColor" d="M43.6 474.8c12.4 .1 24.3 8 27.7 21 2.7 13.3-4.7 26.2-17.3 31-13.8 4.9-28-4.1-32.2-16.6-2.4-6.4-1.3-14.6 2.1-20 3.2-5.7 7.7-9.5 11.8-12.6 1.4-1.1 3-1.4 4.7-1.2l.1 0c.7-.9 1.7-1.6 3.1-1.7zM523.1 487c2.6 0 5 .3 6.8 .9l0 .1c1.7 .6 2.6 1.4 2.4 2.3l-1.9 8.1c-.5 2-5.4 3.6-11.3 3.7-124.9 1.8-250 8.1-375.6 4.6-5.2-.2-10.2-1-14.1-2.3l-1.9-.6c-2.6-.9-3.5-2.1-2.1-3.2l8.3-6.3c2.1-1.6 7-2.5 12.4-2.4 125.4 3.3 251-3 377-4.9zM43.6 252.3c12.4 .1 24.3 8 27.7 21.1 2.7 13.3-4.7 26.2-17.3 31-13.8 4.9-28-4.2-32.2-16.6-2.4-6.4-1.3-14.6 2.1-20 3.2-5.7 7.7-9.4 11.8-12.6 1.4-1.1 3-1.5 4.7-1.2l.1 0c.7-.9 1.7-1.7 3.1-1.7zm94.6 20.3c124.9-1.8 250-8.1 375.6-4.6 5.2 .2 10.2 1 14.1 2.3l0-.1 1.9 .6c2.6 .9 3.5 2.1 2.1 3.2l-8.3 6.3c-2.1 1.6-7 2.5-12.4 2.4-125.4-3.3-251 3-377 4.9-2.6 0-5-.3-6.8-.9s-2.6-1.4-2.4-2.3l1.9-8.1c.5-2 5.4-3.6 11.3-3.7zM43.6 33c12.4 .1 24.3 8 27.7 21.1 2.7 13.3-4.7 26.2-17.3 31-13.8 4.9-28-4.2-32.2-16.6-2.4-6.4-1.3-14.6 2.1-20 3.2-5.7 7.7-9.5 11.8-12.6 1.4-1.1 3-1.4 4.7-1.2l.1 0c.7-.9 1.7-1.6 3.1-1.7zM523.1 46.4c2.6 0 5 .3 6.8 .9s2.6 1.5 2.4 2.3l-1.9 8c-.5 2-5.4 3.6-11.3 3.7-124.9 1.8-250 8.1-375.6 4.6-5.2-.2-10.2-1-14.1-2.2l0 0-1.9-.6c-2.6-.9-3.5-2.1-2.1-3.2l8.3-6.3c2.1-1.6 7-2.5 12.4-2.4 125.4 3.3 251-3 377-4.9z"/></svg>