<svg xmlns="http://www.w3.org/2000/svg" viewBox="0 0 504 560"><!--! Font Awesome Pro 7.2.0 by @fontawesome - https://fontawesome.com License - https://fontawesome.com/license (Commercial License) Copyright 2026 Fonticons, Inc. --><path fill="currentColor" d="M465.1 43.5c4.5-.8 9.3-.2 13.5 1.8 2.6 1.3 5.1 3 6.8 5.1 .7 2.7 2.1 5 1.8 7.9l-.1-.1 .1 4-.5 2.5c-.4 1.6-.6 3.4-1.1 4.8-1.6 6.2-3.4 12.1-5.3 17.9-3.7 11.7-7.8 23.2-11.9 34.6l-25.7 68.2c-35.3 90.5-72.2 180.1-109.5 269.7-3.4 8.2-7 15.9-10 21.2-2.9 5.3-4.9 7.8-5.4 6.8l-4.7-9.4c-1.2-2.3 4-18.6 12-37.7 36.7-88.4 73.2-176.9 107.7-266.1 8.6-22.3 17-44.7 25-67.1 4-11.2 7.9-22.5 11.2-33.7 1.5-4.9 3.4-12.8 3.6-14.6 .1-.5-.3-.7-.6-.9-1.4-.6-2.9-.8-4.5-.6L336.1 111.8 70.4 220.9c-10.8 4.5-22.7 9.1-32.6 13.6-5.8 3.2-5 2.9-4.9 3.2-.8-.3 4.9 3.5 9.8 5.3 21 8.1 44.8 12.6 68 17.1 23.4 4.4 46.9 8.1 70.6 11.8l35.5 5.5 18 3c9 1.8 16.5 9.2 18.2 18.5l-7.9 1.4c1.4 0 10.6-.8 8-.4l.1 .5 .2 1.1 .3 2.3 .6 4.7 1.3 9.4 2.7 18.7 6 37.4c4.3 24.9 8.9 49.7 14.8 74 .1 .6 .3 1.1 .4 1.7 1.7 6.5 3.3 13 5.2 19.3 3.7 11.5 8.5 25.7 14 31.8 .4 .3 .1 1-.5 1.9l-.2 .5c-.2 .5-.4 1.3-.7 2.1 0 .1 0 .1-.1 .2-.1 .3-.1 .5-.2 .7-1 1.9-2.5 3.6-4.5 5-1.6 1.1-3.3 .9-4.6-.2-10.6-13.1-13.2-25.6-17.7-38.4-3.9-12.8-7.3-25.6-10.4-38.4-.1-.5 .1-1.1 .7-1.6 0 0 .1 0 .2-.1-9.4-43.6-16.5-87.5-22.3-131.3-.5-3.1-3.4-6.1-6.7-6.6l-17.7-2.9-35.9-5.6c-24-3.7-48-7.5-71.9-12-24-4.8-47.8-9-71.8-18.8-3-1.4-5.9-2.7-9.3-5.2-3.4-2.2-7.9-7.3-7.8-12.6-.3-5.5 4.4-10.1 8-12.9 3.1-2.1 6.2-3.7 9.3-4.9L68.2 205.9 438.2 54 455 47c2.9-1 5.1-2.5 10.1-3.6z"/></svg>