<svg xmlns="http://www.w3.org/2000/svg" viewBox="0 0 448 560"><!--! Font Awesome Pro 7.2.0 by @fontawesome - https://fontawesome.com License - https://fontawesome.com/license (Commercial License) Copyright 2026 Fonticons, Inc. --><path fill="currentColor" d="M221.4-8.3c44.5-1.7 88.9 12.1 125.9 36.5 37 24.4 66.9 59.6 84.2 100.6l0 0c16.1 37.6 19.2 80.6 11 120.3l.8-.1-2.9 10.9c-28.5 105.9-94.2 196.9-168.8 273.9-8 8.3-16.4 15.9-23.4 21.3l-3.4 2.6c-4.7 3.6-7 4.2-5.7 1.3l8.1-17.3c2-4.5 8.9-12.8 17.1-21.6 71.3-74.2 132.8-160.6 160.5-259.7l1.1-4.3c10.7-41.4 8.1-85.1-8.8-123.8-16.6-38.8-46-71.9-81.8-94.2-35.7-22.5-78.2-34.4-120-31.3-42 2.7-81.9 21-114.2 48.1-4 3.3-7.9 6.2-11.2 8.1-12.4 11.1-23.5 23.7-33 37.2l-.1 0C17.4 158.6 4.2 235.6 27.4 302l.8 2.4c19.5 47.8 50.5 92.2 83.2 133.5 16.9 21 34.7 41.3 53.4 60.6 18.7 18.9 38.4 38.5 59.6 52.2 2.7 1.6 5.4 3.3 6.2 3.9 .8 .4 .1 .7 .3 2.6 .3 1.3 .7 1.8 .5 1.5-.4-.9-.2-.6-.1 .3 0 .7 0 1.3-.2 2-.4 1.4-1.1 2.7-1.9 3.9-1.6 2.2-10.7 .3-17.9-5-44.1-33-79.4-73.5-113.4-115.1-33.2-42.4-64.2-86.4-84.8-138l-3.5-8.8 1.4-.2c-21.4-71.6-5.7-151.2 37.3-211.4 3.6-4.8 7.4-8.9 11.2-12.3 11.5-13.6 24.1-26.3 38.9-36.9 .2-.2 .6 0 .8 0 34.8-26.7 77.7-44.2 122.2-45.5zM162.1 118.9c25.9-14.8 57-17.1 85.1-9.4 28.3 7.9 52.7 26.9 68.5 51.8 15.6 25.5 16.9 58.9 5.1 85.9-7.7 18.8-21.1 35.2-37.8 47.1-.1 .5-.2 1-.6 1.2-.9 .6-1.9 .9-2.8 1.5-1.8 1.2-3.8 2-5.7 3-3.8 2-7.5 4.2-11.6 5.7-1.2 .5-2.3 1.3-3.5 1.7-2.9 1.4-6 1.6-9 1.7-15.7 3.6-32.2 3.9-47.5 0-.2 0-.3-.4-.5-.5-28.9-6.4-55.6-24.6-68.9-51.9-18.2-35.3-19.2-80.2 3.2-115 1.7-2.9 4.5-5 6.9-6.3l1.2-.6c1.6-.8 2.9-.4 3.2 .9 .6 2.8 1.3 5.4 2.1 8l0-.1c.6 1.9-.2 4.7-1.7 7.2-18.6 29.4-17.7 70-.9 100.5 16.1 31.2 52.6 47.8 87.2 44.5 1-.1 1.9 .2 2.7 .4 7.5-.8 14.9-2.3 22-5.1 1.9-.7 3.6-1.8 5.4-2.7 3.3-1.6 6.5-3.2 9.6-5.2 4.9-3.4 9.5-7.3 13.6-11.6 9.1-9.1 16.2-20.2 20.7-32.2 4.8-11.9 6.9-24.9 5.6-37.4-.8-12.6-5.1-24.9-12.1-35.4-14-21.1-36.3-37.8-61.2-43.6-24.7-6.1-52.6-2.9-73.5 10.5-1.7 1.1-3.4 1.9-4.8 2.3-1.4 .3-2.5 .1-3-.6l-3.7-7.3c-.9-1.8 1.9-6 6.8-8.9z"/></svg>