<svg xmlns="http://www.w3.org/2000/svg" viewBox="0 0 448 560"><!--! Font Awesome Pro 7.2.0 by @fontawesome - https://fontawesome.com License - https://fontawesome.com/license (Commercial License) Copyright 2026 Fonticons, Inc. --><path fill="currentColor" d="M420.2 313.8c.6-4.2 1.8-5.7 2.9-3.6l7.1 12.5c1.8 3.2 3.2 10.9 3.5 19.4l1.5 53.8c.4 18 .6 35.9 .7 53.9 0 18-.2 36-1 54.1-.4 9-1 18.1-2 27.3-.5 4.6-1.2 9.2-2.3 14.1-.7 2.6-.8 4.4-3 8.5-1.4 4.2-5.4 6-9.2 7.1-130.2 8.3-256.2 10.2-384.5 4.1-4.1-.2-7.9-.8-10.7-1.5s-4.1-1.7-3.7-2.5l3.6-7.9c.9-1.9 8.7-3.1 18.1-2.6 124.3 5.7 251.6 3.6 373.5-4.2-.3 3 3-9.2 3.5-17.1 1-8.8 1.5-17.7 1.9-26.7 .8-18 .9-36.1 .9-54.3-.1-36.3-1-72.7-2.3-109-.3-8.2 0-16.1 .9-22.3l.4-3.1zM177-1.6c43.9-11.7 92.1-6.6 132.5 14.7 40.7 20.8 71.3 61.3 79.9 106.3 2.1 11.2 3.7 22.5 3.9 33.8 .4 5.7 .3 11.2 .3 16.6 .1 2.3-.1 6.1-1 10.2-1.3 3.7-3.2 7.5-5.9 10-10.9 10.5-24 12-36.1 12-12-.8-25.6-2.8-35.3-15.8-2-3.6-3.4-7.4-3.5-11.5-.2-4.5-.7-12.4-1.3-23.7-2.7-9.7-4.7-19.6-10.2-28.1-9.8-17.3-26.3-30.5-45.2-37.3-18.9-6.8-40.3-8-59.5-1.8-19.2 5.9-35.6 19-45.4 36.3-5.8 8.2-7.7 18.4-10.9 27.9-.8 10.4-2.9 19.9-2.5 31.2l-.6 65.4c0 7-.5 13.6-1.1 18.5 91.8-.8 183.4 2.4 275 6 4.1 .2 8.1 .7 10.9 1.5s4.1 1.7 3.8 2.5l-3.6 7.9c-.9 1.9-8.9 3.1-18.5 2.7-101.1-3.9-202.4-7.6-303.2-5.4-12.6 .4-25.2 .9-37.6 1.8-6.2 .5-12.4 1-18.4 1.8-3 .4-6 .9-8.8 1.5-2.4 .4-6.6 1.8-6 1.6l-1.2 68.3c-.4 50.5-1 101.2 2.5 151.1 .6 8.2 .8 16.1 .6 22.3l-.1 3c-.1 4.2-1.1 5.9-2.5 4l.1 0c-2.8-3.8-5.9-7.8-8.4-11.9-2.1-3.1-4-11-4.6-19.9-3.3-51.3-2.7-102.2-2.3-153.2 .4-28.7 .7-47.7 .8-57.3 .2-3.4-.4-5.3 .6-12.1 1.1-5.5 9.4-8.5 12.1-9.2 9.6-2.2 19-3.4 28.2-4.3l.5-43.1c0-.1 .2-.2 .3-.2 0-3.1-.1-6.3 0-9.7 .5-22 .1-43.5 1.3-66 1.3-22.5 6.5-45.1 16.5-65.7 19.7-41.7 59.8-71.7 103.7-82.9zm35.3 366c4.9-1.5 9.7-1.2 14.3-.2 .4 .1 .9 .1 1.3 .2 .6 .1 .9 .5 1.5 .6 1.4 .5 3 .6 4.3 1.2 .3 .1 .3 .6 .5 .8 4.9 2.3 9.3 5.1 13 9.1 5.1 5.5 8.9 13.4 8.9 21.4l0-.1c.3 7.3-1 15.2-5.7 22.2-2.5 4-6 6.9-10 8.9l.3 15.7c0 2.3 .2 4.3-.1 8.2-.6 4.5-3 8.6-6.6 11.1-7.3 5.4-18.9 1.9-23.2-4.8-1.2-1.7-1.5-3.7-1.4-5.5-.4-1.2-.9-2.4-1.1-3.7l-.1-3.9-.3-19.6c-.5-.4-1.1-.4-1.6-.8-6.1-5.2-10.7-10.7-13.3-19-2.5-8-1.3-16.7 1.4-23.5 .4-1.1 1.3-1.6 2-2.4 .1-.3 .2-.6 .3-.8 1.5-4.7 7.9-13.5 15.5-15.1zM295.8 22.5c-37.7-17.4-82.1-20-121.7-7.9-39.9 11.7-74.2 40.6-90.1 78.8l-3 7.1c-13.8 36.1-9.2 77.5-10.8 118.3 0 1.6-.1 3-.2 4.5 0 0 .1 .1 .1 .1l-.4 27.8 52.4-1.4c-.3-4.9-.5-10.5-.5-16.8l.8-65.5c1.2-22.7 7.3-45.9 21.2-65 29.1-38.7 85.2-46.9 126.6-26.8 20.8 9.9 39.4 27.1 48 49.2 3.8 10.9 7.8 22.3 7.6 33.9l.9 15.8c.4 2.9 2 5.5 5.7 7.7 7.1 4.1 17.5 5.7 26.8 4.3 9.3-1 18.4-5.7 19.2-11.4 1.1-18.8-.2-41.6-5.6-61.1-10.2-40.3-39.3-74.5-77.1-91.8z"/></svg>