<svg xmlns="http://www.w3.org/2000/svg" viewBox="0 0 448 560"><!--! Font Awesome Pro 7.2.0 by @fontawesome - https://fontawesome.com License - https://fontawesome.com/license (Commercial License) Copyright 2026 Fonticons, Inc. --><path fill="currentColor" d="M420.3 313.8c.6-4.2 1.8-5.7 2.9-3.7l7.1 12.5c1.8 3.2 3.2 10.9 3.5 19.4l0-.1c1.2 35.9 2.1 71.8 2.2 107.8 0 18-.2 36-1 54.1-.4 9-1 18.1-2 27.3-.5 4.6-1.2 9.2-2.3 14.1-.7 2.6-.8 4.4-3 8.5-1.4 4.2-5.4 5.9-9.2 7-130.2 8.3-256.2 10.2-384.5 4.1-4.1-.2-7.9-.7-10.7-1.5s-4.1-1.7-3.7-2.5l3.6-7.9c.9-1.9 8.7-3.1 18.1-2.6 124.3 5.7 251.6 3.6 373.5-4.2-.3 3 3-9.2 3.5-17.1 1-8.8 1.5-17.7 1.9-26.7 .8-18 .9-36.1 .9-54.3-.1-36.3-1-72.7-2.3-109-.3-8.2 0-16.1 .9-22.3l.4-3zM221.9-8.2c29.3-.9 59 6.7 85 20.6 25.6 14.5 48 35.3 63 60.8 15.6 25.2 23.4 54.8 24.1 84.3l-.4 84.7c0 5-.3 9.9-.6 14.4l.2 11.9c5.6 .2 11.3 .4 16.9 .6 4.1 .2 8.1 .7 10.9 1.5s4.2 1.7 3.8 2.5l-3.6 7.9c-.9 1.9-8.9 3.1-18.5 2.7-64.2-2.7-128.6-4.8-192.8-5.7-32.1-.5-64.3-.7-96.3-.1-16 .3-32 .8-47.9 1.9-7.9 .6-15.8 1.2-23.5 2.3-3.8 .5-7.6 1.2-10.9 2.1-1.6 .4-2.5 .8-2.7 .8-.1 .1-.2 .2-.2 .3-.8 70.7-3.2 146.9 1.5 219.1 .6 8.2 .8 16.1 .6 22.3l0 3c-.1 4.2-1.1 5.9-2.5 4-2.8-3.8-5.9-7.7-8.4-11.8-2.1-3.1-4-11-4.6-19.9-4.4-73.8-2.2-144.4-1.3-219.9-.6-7.9 10.9-11.8 13.9-12.3 4.5-1.2 8.7-1.9 12.9-2.5 5.4-.8 10.8-1.1 16.1-1.6-1.3-3.2-2.2-10.3-2.1-18.7l1.1-84.7c-.5-28.9 7-58.7 21-84.4 28.4-51.7 85.7-86.3 145-86.2zm-6.2 372.3c4.2-.7 8.4-.4 12.1 .4 7.5 1.8 14.2 5.8 19.4 11.5 5.2 5.6 8.6 13.5 8.9 21.2 0 7.2-.2 15.1-5.1 22.3l0-.1c-2.5 3.9-6.2 7-10.4 9.2l.3 15.6c0 2.3 .2 4.3-.1 8.2-.6 4.5-3 8.6-6.6 11.1-7.3 5.4-18.9 2-23.2-4.8-1.2-1.7-1.5-3.7-1.4-5.5-.4-1.2-.9-2.4-1.1-3.7l-.1-4-.3-19.8c-.3-.2-.7-.3-1-.5-13.8-8.3-18.5-28.8-12.4-42.3 .5-1.1 1.4-1.7 2.1-2.7 .4-.9 .7-1.9 1.2-2.8 1.5-4.6 6.1-8.9 11.5-11.5 .1-.1 .2-.1 .4-.2 1.9-.9 3.8-1.5 5.8-1.8zm5.3-283.6c-36.6 .6-71 27.1-80.6 62.3-5.4 16.9-3 36.9-3.8 56.7l-.4 59.1c0 1.7-.4 3-.5 4.5l0 0c26-.2 52-.3 78 .1 33.6 .5 67.1 1.4 100.7 2.4-1.3-3-2.2-8-2.2-13.8l.2-59.1c-.1-20.1 1.6-39.1-5.7-56-12.6-34.7-48.9-58.4-85.8-56.2zM68.7 264.9l.5 0c-.1-.2-.3-.1-.5-.4l0-.1c0 .1-.1 .3-.1 .4zM216.6 6.9C162.2 8.4 110.8 42.3 87 90.9l0 .1c-12.7 24.3-16.8 50.8-16.5 78.9l-1 82.4c.3-.4 .6-.7 1-.7l50.8-1.5c.3-41.3 .5-69.7 .6-85 .3-10.6 2.2-21 5.6-31 13.5-40.3 54.5-69.5 97.2-68.4 42.7-1 83.7 28.6 97 69.3 3.3 10.1 5.3 20.7 5.4 31.3 0 15.3-.1 43.9-.3 85.6l51.3 2-.7-36.4c0-.7 .6-1.4 1.6-2 .2-20.7 .4-41.5 0-61.8-.9-27.1-9.5-53.8-24.2-76.6-29.3-45.9-83.7-74.1-138.3-70.1z"/></svg>