<svg xmlns="http://www.w3.org/2000/svg" viewBox="0 0 616 560"><!--! Font Awesome Pro 7.2.0 by @fontawesome - https://fontawesome.com License - https://fontawesome.com/license (Commercial License) Copyright 2026 Fonticons, Inc. --><path fill="currentColor" d="M219.7-4.2c34.5-6.7 69.2-3.6 101.7 6.5 .6 .2 1.1 .3 1.7 .5 80.1 25.8 146.5 96.2 160.9 180.8 1.2 6 1.3 11.8 1.1 17.4 .6 7.4 1 14.9 .8 22.5-1.7 55.7-22 111.1-58.6 153.6-.4 .5-.9 .9-1.4 1.5L457 409.2c7.8-5 17.2-9.6 29.2-7.8 3.9 1.1 7.5 2.9 9 5.3 1.7 2.2 2 3.6 1.1 3.9-2.6 1.2-5.1 2.8-7.2 4.5-1.8 1.2-4.6 .3-8.8 .6-11.9 .8-26 12.3-31.2 24.1-2.4 6.2-2.5 11.3 1.5 15.3l17 17.5 67.9 70.1c2.7 2.6 6 6.5 8.1 8.1 1.8 1.6 3.9 2.2 6.5 2.2 5.3 .1 11.9-3.3 17.2-7.7 10.9-8.4 18.2-24.9 11.3-30.7l-68.4-70.3c-3.8-3.9-7-8-9-11.8l-1-1.8c-1.4-2.5-1.1-4 .6-3.7l10.7 1.5c2.7 .4 7 3.3 11 7.3 23 23.9 45.1 45.7 69 71.4l.1 0c7.4 9.9 4.7 22.4 .4 30.4-4.3 8.5-10.6 15.5-18 21.1-7.4 5.3-16.7 10.1-28.2 8.8-5.5-.7-11.5-4.6-14.5-7.8l-8.6-8.9-68.7-70.8-8.6-8.9c-3-3.5-5.4-4.7-9-10.4-7-10.6-3.6-23.4 1.1-31.3 2.3-4 5-7.6 8.1-10.8l-30-29.5c-35.9 35.7-85.1 56.6-134.4 63.2-55.2 7.3-112.9-1.8-162.1-29.2-24.6-13.7-46.4-32.2-63.7-54.9-16.9-23.3-26.5-50.7-31.3-78.2-9.3-55.3 .4-113.2 26.1-162.9 6.8-13.2 15-25.2 23.1-34.7 .1-.2 .2-.3 .3-.5 14.5-18 31-34.8 49.3-49.4 .7-.6 1.2-1.1 1.9-1.7 3.8-3.1 7.9-5.9 11.9-8.7 .6-.4 1.2-.9 1.9-1.3 4-2.7 8.1-5.2 12.3-7.7 2.9-1.8 5.7-3.5 8.7-5.1 .2-.1 .4-.2 .6-.3 18.5-10.1 38.4-17.9 59.5-22.3zM266.7 8c-52.7-3.7-104.1 19.3-143.4 54.1-4.4 4.1-8.5 7.7-12.4 10.9-10.6 10.4-20.5 21.6-29.3 33.4-32.4 46-48.4 103.5-44.1 159.6 .2 4.6 .6 8.9 .2 12.1 0 .6-.1 .9-.2 1.3 .7 5.4 1.5 10.9 2.7 16.2 5.4 25.8 15.7 50.7 32.2 70.7 16.7 20.3 38.1 36.5 61.7 48.4 47.3 23.8 102.7 30.8 154.9 21.7 52.2-9 101.7-35.1 133.7-77.3 32.3-41.5 49.9-94.9 48-147.6L469.4 192c-.8-6.5-2.8-12.8-4.1-19.2-2-13-8.3-24.8-12.8-37.2-12-23.3-26.3-45.9-45.7-63.9-36.9-37.7-87.8-61.5-140.1-63.8zm28.6 265.4c.7 .4 1.3 1.1 1.5 1.9l2 7.8c.5 1.9-.5 3.9-2.2 4.5-37.1 13.4-73.4 29-108.5 46.7-1.4 .7-3.1 .9-4.7 .4l-.8-.2c-1.1-.3-1.9-1.3-2-2.5l-.6-7c-.2-1.8 .7-3.5 2.3-4.3 35.9-18.1 72.9-34 110.7-47.7 .8-.3 1.6-.2 2.4 .2zm64-161.1l0 0c1.1 .3 1.8 .9 2 1.8l1.8 7.9c.5 1.9-1.4 4.3-4.2 5.4-59.4 22.8-117.9 48-175.1 75.6-2.3 1.1-4.9 1.7-7.2 1.6l-1.1-.1c-1.5-.1-2.5-1-2.4-2.3l.9-7.7c.2-2 2-4 4.5-5.3 58-27.9 117.1-53.5 177.2-76.5 1.2-.5 2.5-.6 3.6-.3z"/></svg>