<svg xmlns="http://www.w3.org/2000/svg" viewBox="0 0 616 560"><!--! Font Awesome Pro 7.2.0 by @fontawesome - https://fontawesome.com License - https://fontawesome.com/license (Commercial License) Copyright 2026 Fonticons, Inc. --><path fill="currentColor" d="M593.1 37.9c3.6-3 1.8 2.7 2.3 4.7l0 8.3c0 15.9 .2 132 .6 348.5 0 6.3-.3 12.3-1 16.5-.6 4.3-1.5 6.4-2.3 5.9l-8-4.9c-2-1.2-3.6-13.2-3.6-27.8l-.4-269.5-.1-58.9c0-.7-.6 .1-1.7 .4L563.5 68.3 533 82.4c-40.8 19-81.1 37.4-120.5 59.8-1.3 .5-2.4 .7-3.5 1 1.1 1.7 1.9 4.6 1.9 7.9l1 205.5c13.6-5.4 23.7-15 33.4-27.3 .2-.3 .7-.3 1.3 0 .6 .2 1.4 .7 2 1.3l5.9 5.4c1.5 1.3 2.2 2.9 1.6 3.5-10.4 13.6-25.9 27.6-44 33 0 0-.2-.1-.2-.1l.4 91.2c0 4.3-.6 8.4-1.7 11.7L410 477c-.7 2.2-2 3-3.1 1.9l-6.6-6.7c-1.7-1.7-2.8-5.8-2.8-10.3l-1.6-314.2c0-2 .4-3.8 .9-5.2-.5-.1-1-.3-1.4-.4-4.3-1.2-8.1-2.7-12-4.2-7.6-3-14.9-6.4-22.2-9.9-14.5-6.9-28.6-14.2-42.7-21.5-28.2-14.6-56.1-29.9-84.4-43.1-7-3.1-14.4-6.4-20.8-8.1-4.6-.7-1.4-1.2-6.8 .7l-11 4.2c-14.6 5.7-29.1 11.9-43.4 18.3-28.7 13-56.8 27.3-84.6 42.4-2.7 1.5-5.4 2.8-8 4.2-9.1 5.1-18.3 10.1-27.4 15.3-.6 .3-1.2 .3-1.8 .5 1.5 3.5 2.7 13.3 2.7 25.1 .5 327.8 .5 293.7 .5 328.3 0 .5 0 .9 .5 .5l3.5-2 21-11.6c28.1-15.3 56.6-30 85.9-43.2 14.6-6.6 29.4-12.9 44.4-18.8l11.2-4.3c2.4-.8 2.6-1.3 6.8-2.2-.8-1.9-1.3-4.3-1.3-7.1l-1-196.3c-5.7 .4-11.4 1.3-17.1 2.9-.8 .2-1.8-.2-2.7-1.1l-.4-.4c-.6-.6-1.1-1.8-1.1-2.9l-.2-6.8c0-1.7 .5-3 1.5-3.3 6.3-1.6 13-2.8 19.9-3.3l-.5-95.2c0-2.1 .3-4.1 1-5.5s1.5-2.1 2.3-1.9l8 1.6c2 .4 3.6 4.4 3.6 9.2l.4 92.1 0 0c12.2 1.7 24.5 7.8 32.6 18.2 .3 .4 .4 1 .1 1.7s-.9 1.3-1.6 1.8l-6.8 4.3c-1.7 1.1-3.3 1.4-3.9 .8-5.3-6.4-12.5-9.7-20.4-11.3l1 197.1c0 2.6-.6 4.8-1 7.1 7.4 2.4 13.8 5.3 20.4 8.2 29.2 13.8 57.2 29 85.5 43.5 14.1 7.3 28.3 14.5 42.5 21.2 7.1 3.3 14.3 6.5 21.4 9.4 3.6 1.4 7.1 2.7 10.5 3.7 3.5 1.1 6.8 1.2 6 1.1 34.5-19.7 71.6-37 107.8-53.9 11-5.1 22-9.5 30.9-12.4l4.3-1.4c6-1.9 8.4-1.7 6.1 .6l-14.5 13.9c-3.7 3.6-13.6 9.4-25.2 14.7-34.9 16.3-69.2 32.4-102.9 51.7-7.7 3.2-12.7 .5-16.7-.2-4.3-1.2-8.2-2.7-12.1-4.2-7.7-3.1-15.2-6.5-22.6-9.9-14.7-7-29.2-14.3-43.6-21.7-28.7-14.7-57.2-30.2-86.1-43.6-7-3.1-15-6.7-20.7-7.8-1.5 0 .5-.4-2.3 .5l-5.6 2.2-11.2 4.3c-14.9 5.9-29.6 12.2-44.2 18.9-29.2 13.3-57.7 28.1-85.9 43.5L38.4 509.3c-6.5 3.4-14 8.5-19.8 10.6l0-23.3c-.1-43-.4-227-.6-340.4 0-6 .3-11.8 1-15.9 .6-4.1 1.5-6.2 2.3-5.7l.2 .1 .1-2.2c.1-2 1.7-4.2 4.1-5.6 56.3-32.1 113.9-62.5 174.9-86 1.2-.5 2.6-.6 3.6-.4 .2 0 .2 .3 .4 .4 2.3-.9 6.7-1.3 8.8-.8 2.5 .5 4.7 1 6.7 1.7 8.1 2.6 15.3 5.9 22.6 9.2 28.7 13.5 56.1 28.5 83.9 42.9 13.8 7.2 27.8 14.3 41.7 21 7 3.3 14 6.5 21 9.3 3.5 1.4 7 2.7 10.4 3.6 3.5 1.1 6.7 1.3 6.3 1.1 39.5-22.5 81.9-41.8 123.2-61l31.1-14.4 18-8.5 14.9-7.1zM115.4 319.3l-.1 0 6.3 2.4c1.6 .6 2.6 1.5 2.6 2.2l-4.6 49.2c-.1 .3-.4 .6-1.1 .8s-1.5 .2-2.4 .1l-8-1.1c-2-.3-3.4-1.1-3.3-1.9l4.9-50.3c.1-.7 .8-1.2 1.9-1.5l.6-.2c.8-.2 2 0 3.1 .4zm209.5 2.6c1.5-.9 2.9-1.1 3.5-.4 14.6 15.1 30.1 30.2 48.1 35.1 .4 .1 .6 .5 .7 1.2 .1 .7 0 1.5-.3 2.4l-2.4 7.7c-.6 1.9-1.9 3.1-3 2.8-23.1-7.1-39.3-24.2-54.1-39.3-.6-.6-.7-1.7-.4-2.9l.2-.6c.3-.8 1.1-1.8 2-2.4l5.8-3.5zm160.1-76l0 0 7.8 2c1.9 .5 3.2 1.6 3.1 2.6-4.3 20.6-10.7 40.1-18.2 59.6-.3 .8-1.2 1.3-2.5 1.5l-.6 .1c-.9 .1-2-.3-3-.9l-5.5-3.8c-1.4-1-2.1-2.1-1.8-2.9 7.1-18.7 13.4-38.2 17.2-57.4 .1-.4 .5-.7 1.2-.8 .7-.1 1.5-.1 2.4 .1zm-216.7 .2c1.6-.6 2.9-.5 3.3 .1 9.9 15.5 21.3 30 34 43 .3 .3 .2 .7-.1 1.4s-.8 1.3-1.4 1.8l-6.1 5.3c-1.5 1.3-3.2 1.8-3.8 1.1-13.4-13.8-25.2-29-35.5-45.3-.4-.7-.3-1.7 .4-2.7l.3-.5c.4-.7 1.4-1.5 2.5-1.8l.1 0 6.3-2.3zM153.3 218c.7 .1 1.5 .4 2.2 1l6.3 5c1.6 1.2 2.3 2.9 1.6 3.8-13.3 19.9-23.6 41.8-30.7 64.6-.3 .9-1.2 1.6-2.5 2l-.6 .2c-.9 .2-2.1 .1-3.1-.5l-5.8-3.5c-1.5-.9-2.2-2.2-1.9-3.3 7.5-24.2 18.4-47.5 32.8-68.8 .3-.4 .9-.6 1.6-.5zm373.2-56.6c.7 .2 1.4 .7 2 1.3l5.1 6.3c1.2 1.6 1.4 3.5 .4 4.6l-28 28.2 28.3 18.3c.5 .3 .8 .9 .8 1.7s-.3 1.6-.7 2.3l-4.5 6.6 0 .1c-1.1 1.6-2.9 2.3-4 1.6l-30.5-19.7-25.8 26c-.9 .9-2.2 1.3-3.7 1.2l-.7-.1c-1-.1-2.1-.8-2.6-1.8L459 232c-.8-1.5-.8-3.1 .1-4.1l23.4-23.6-29.7-19.3c-1-.6-1.6-1.8-1.7-3.2l-.1-.7c-.1-.9 .5-2.1 1.4-2.8l5.5-4.2c1.4-1.1 3-1.4 4-.7l31.1 20.1 31.4-31.7c.5-.4 1.1-.6 1.9-.4z"/></svg>