<svg xmlns="http://www.w3.org/2000/svg" viewBox="0 0 448 560"><!--! Font Awesome Pro 7.2.0 by @fontawesome - https://fontawesome.com License - https://fontawesome.com/license (Commercial License) Copyright 2026 Fonticons, Inc. --><path fill="currentColor" d="M367.7-2.5l7.2 3.7c1.8 .9 2.4 3.6 1.3 6.2-6.9 15.1-14.3 29.9-21.7 44.6l82.7 .3c3.1 1.3 6.9 1.2 9.1 3.8l0 .1c2.8 2.3 3.2 5.8 4 9.1 .5 6.6-.9 10-2.1 14.2-2.6 7.9-5.9 14.9-9.5 21.8-7.2 13.7-15.1 26.8-23.5 39.5-16.7 25.5-34.5 50-52.9 74-18.4 24-37.5 47.6-57.4 70.5-20.3 22.7-39.5 45.7-65.1 65.2-1.7 1.2-3.3 2.4-5.6 3.5-1.1 .6-2.5 1.3-4.1 1.8 .4 .9 .7 1.9 .7 3l-1.6 164.6c0 1.1-.4 2.2-1 2.9s-1.5 1.1-2.3 1l-8-1c-2-.2-3.5-2.4-3.4-5l.1-7.1-68.5 10c-.1 0-.3-.2-.5-.2-8.4 1.5-16.8 3.1-24.8 5.2-1.9 .4-4.5 1.3-5.5 1.7-.4 .1-.7 .2-1 .4-.8 .3-.6 1.3 .1 1.5l.9 .4c1.4 .5 3.7 1.1 5.6 1.5 3.9 .9 8.4 1.4 12.7 2 8.7 1.2 17.6 2 26.5 2.5 17.8 1.1 35.7 1.6 53.6 1.5 35.6-.5 72.1-1.6 106-8.6l5.9-1.6c2-.6 .9-.3 1.3-.4 .2-.1 .2-.3 0-.4l-.2-.1c-1.4-.7-3.6-1.5-5.5-2.3-3.9-1.5-8-2.7-12.2-3.9-16.8-4.5-34.3-7.4-51.6-8.3-2.8-.2-5.5-.5-7.4-1.2-1.9-.7-2.9-1.6-2.6-2.4l2.3-8c.6-2 6.4-3.5 13.5-3 18.4 1.5 36.5 4.6 54.3 9.9 4.5 1.3 8.9 2.9 13.4 4.8 4.7 1.9 14.6 7.4 15 13.4 .3 1.4 .1 3.5-.3 4.8l-2.8 4.1-9.3 6.1c-6.4 2-9.9 3-14.8 3.9-36.5 6.6-72.5 7.7-108.7 8-18.1 0-36.2-.4-54.3-1.8-9.1-.7-18.1-1.4-27.3-2.8-4.5-.6-9.3-1.3-14.1-2.6l-3.6-1.1c-2.2-.6-4.1-1.5-6-2.4-3.8-1.9-6.9-4.3-8.5-7.2-3.8-6.2-.2-13.9 6.8-17.3 8.6-4.8 12.2-4.6 16.9-6.2 9.1-2.3 18-3.9 27-5.4 17.9-3 35.8-5.3 53.6-7.7 1.6-.2 3.1-.2 4.6-.4l9.6-1.4 1.5-141.7c0-1 .5-1.7 .8-2.6-2.5-1.2-4.3-2.7-5.9-3.7-6.9-4.8-12.4-10.1-18.2-15.3-11.2-10.6-21.6-21.7-31.9-32.9-20.5-22.4-40-45.6-59-69.2-18.9-23.6-37.4-47.7-54.9-72.5-17.3-25.1-34.7-49.7-46.9-79.7-1.3-4.5-2.9-9.5-2.6-14.8-.1-.9 .1-1.9 .2-3 0-.2 .1-.4 .1-.6 .1-1.3 .1-2.5 .7-4.1 1.6-5.5 8.6-9.3 12.6-9.2 .3 0 .7 .3 1 .9 .2 .6 .4 1.4 .4 2.3l0 8.1c0 1.8-.1 3.2-.2 3.4l.1 .1c0 .4 0 2.1 .4 4 .9 3.8 2.8 8.2 4.8 12.5 .1 .3-.3 .8-.9 1.4 .7 1.4 1.2 2.8 1.9 4.2 5.4 10.4 11.5 20.6 17.7 30.7 1.7-1.1 4-1.9 6.9-1.9l254.2-1.1c1.7 0 3.4 .4 4.5 1 .8 .5 1 1.1 1.2 1.7 9.1-16.8 18.3-33.6 27.2-50.4L133.6 66c-.2 .1-.4 .4-.7 .4l-95.2-.6c-1.3 0-2.6-.6-3.6-1.8l-.5-.5c-.7-.8-.9-2-.6-3.1l2-6.5c.5-1.7 1.7-2.8 3.1-2.8l62.2 .3c2.8-.1 5.5-.1 8.4-.1l229.1 .7c9-17.3 17.6-34.6 25.4-52 .4-1 1.1-1.8 1.9-2.3s1.8-.5 2.6-.1zM346.8 66.8c-15.6 29.8-31.9 58.9-47.8 88.5 5.6 3.3 10.7 7.8 14.1 13.7 5.3 9 7 20 4.9 30.1-2 10.1-8.1 19.5-16.4 25.7-6.1 4.7-13.2 7-20.3 8.3 1.6 11.5-2.1 25.1-11.6 33.3-9.8 8.8-22.8 12.4-35.4 11.4-1.1-.1-2.1-.5-3.2-.6l0 .1-15.2 35.6c-.2 .5-1 .7-2.2 .7l-.6 0c-.8 0-2-.3-3-.8l-5.8-3.1c-1.5-.8-2.3-1.6-2.1-2.2L217 272.2c-6.3-3.6-11.7-9-14.5-16.2-5.1-13-2.7-26.7 2-37.2 .7-1.8 2-3.4 3.6-4.3l.8-.4c1.1-.6 2.3-.3 3.1 .6l4.9 5.4c1.3 1.3 1.8 3.2 1.1 4.8-3.9 9.1-4.9 19-1.5 26.2 3.1 7.2 11.2 11.6 20.1 12 8.8 .5 18.2-2.6 23.9-8.5 2.6-2.6 4.3-5.7 5.4-9.1-9.3-1.5-20.1-5.6-26.4-15.4-6.6-10.5-6.1-22.2-4.7-31.9 .1-.5 .7-.8 1.2-1.1-.3-7.7 .4-15.4 2.9-22.8 3.2-9 8.5-18.9 19.4-24.2 2.5-1.2 5.1-1.5 7.5-1.3 3.3-.6 6.5-.8 9.1-.5 3.5 .2 7.1 .7 10.6 1.5 .1-.2 .1-.4 .2-.6 3.6-6.8 7.4-13.6 11-20.4-.8 .1-1.3 .4-2.2 .4l-250.2 1c22.7 34.9 48.9 68.3 74.9 101 18.6 22.9 37.8 45.5 57.8 67.1 10 10.7 20.2 21.4 30.9 31.1 5.2 4.7 11.1 9.8 15.9 12.3 0 1.8 6.7-2.4 12-6.6 21.8-18.2 41.7-40.7 61-62.8 19.3-22.3 37.8-45.4 55.8-68.8 17.9-23.5 35.2-47.4 51.3-72 .4-.6 .7-1.2 1.1-1.8l-61.8 .7c-1 0-1.9-.6-2.6-1.7l-.4-.5c-.5-.7-.6-2-.4-3.1l1.6-6.6c.4-1.7 1.3-2.8 2.3-2.8l69.6-.9c.3 0 .5 .3 .7 .5 4.2-7 8.4-14.1 12.1-21.3 3.3-6.4 6.3-12.9 8.3-19.1l0 0c1.1-2.8 1.6-7 1.6-7.2s-.2-.4-.4-.4l-88.6-.3zm-74.6 96.2c-3.3-.1-5.8 .5-8.2 1.9-4.8 3-8.7 9.3-10.8 16.2-4.4 13.4-1.4 32.3 7.8 35.5 .7 .1 1.3 .7 1.7 1.4 2.1 .4 4.6 .6 7.4 .6 3.9 .5 7.3-.8 11-1 13.8-3.3 24-15.8 22.3-29.5l-.1 0c-1.3-13.4-12.8-23.6-27.5-24-.9-.1-1.6-.5-2.3-.9-.4 0-.9 0-1.3-.1zm-98.4 34.9c.8-.1 1.5 .6 1.8 1.8l.1 .6c.1 .8-.1 2-.4 3.1-.3 .9-.5 1.9-.6 2.8l.7-3.1c.5-1.9 1.2-3.3 1.7-3.2 1.1 .1 2.2 1.1 3.1 2.3 .1 0 .4-.1 .5 .1-.1 0-.2 .1-.3 .2 1.3 1.8 2.2 4.3 1.5 6.1-.2 3.1-4.4 6.9-8.9 6-2.1-.4-3.1-1.2-3.9-1.8-.2-.1-.4-.6-.6-.8-.2 .1-.3 .2-.8 0 0 0 .4-.3 .5-.5-1.1-1.3-2.1-3.3-2-4.9 0-4.2 2.6-7.9 7.6-8.7zm-42.8-47c3.4-5.1 12.8-4.5 15.4-1.7 .2 .1 0 .6 .1 .8 .3 .2 .6 .4 .8 .6 1.9 1.2 4.1 5.3 3.9 8.1 0 5.7-3.8 10.9-10.4 11.8-.6 .1-1.1-.6-1.5-1.1-.6 0-1.3 .1-1.9 0-1.9-.5-4.2-1.2-6.3-3.4-4.3-4.6-3.6-11.2-.2-15.1zm219.5 1c.8-.1 1.5 .6 1.8 1.8l.1 .6c.1 .8-.1 2-.4 3-.3 .9-.5 1.9-.6 2.8l.8-3.1c.5-1.9 1.2-3.3 1.7-3.2 1.1 .1 2.2 1.1 3.1 2.3 .1 0 .4-.1 .5 .1-.1 0-.2 .1-.2 .2 1.3 1.8 2.2 4.3 1.5 6.1-.2 3.1-4.4 6.9-8.9 6-2.1-.4-3.1-1.2-3.9-1.8-.2-.1-.4-.6-.6-.8-.2 .1-.3 .2-.8 0 0 0 .4-.3 .5-.4-1.1-1.3-2.1-3.3-2-4.9 0-4.2 2.6-7.9 7.6-8.7z"/></svg>