<svg xmlns="http://www.w3.org/2000/svg" viewBox="0 0 392 560"><!--! Font Awesome Pro 7.2.0 by @fontawesome - https://fontawesome.com License - https://fontawesome.com/license (Commercial License) Copyright 2026 Fonticons, Inc. --><path fill="currentColor" d="M390.4 265.8l0 .1c1.9 .8 3.2 8.5 2.8 17.9-2 24.6-6.9 49.2-16.2 72.4-9.4 23.1-23.4 44.5-41 62.3-34.5 35.2-83 55-131.9 56.8l-.5 76 79.9-.7c2.4 0 4.8 .6 6.7 1.7l.9 .5c1.2 .7 1.7 2 1.1 3.1l-3.6 6.6c-.9 1.7-3.2 2.8-5.7 2.8L104.3 567c-1.2 0-2.3-.3-3.1-1s-1.1-1.5-1-2.3l1.4-8c.3-2 2.7-3.6 5.5-3.6l81.5-.7 .6-76.2c-46.1-1.4-92-18.6-126.4-50.1-37.6-34-58.7-83.3-63.8-132.6-.6-3.8-.6-7.6-.5-11.2-.3-4-1-8.1-1.1-12.1 0-1.8 .5-3.6 1.6-4.9l.5-.7c.3-.4 .9-.2 1.3-.4 .2-.2 .4-.1 .5-.1 .4-.1 .8-.5 1.2-.3l6.6 2.7c1.7 .7 2.8 2.3 2.9 4 1.3 41.5 12.9 82.9 36.9 116 .4 .6 .6 1.5 .4 2.3 7.6 10.6 16.3 20.4 26.2 29 35.1 30.8 82.8 46 129.4 43.7 46.6-2.1 92.4-22.1 123.8-56.4 31.7-34.1 48.1-80.8 49.5-127.7 .2-3.8 .7-7.5 1.4-10.1 .7-2.6 1.7-3.9 2.5-3.6l7.9 3.1zM121.3 21.3c32.8-27.1 79.4-32.4 118.8-18.5 39.5 14.8 69.2 52.3 75.5 93.5 .9 10.2 2.1 20.7 2.6 30.7 0 14.7 .1 44.1 .2 88.3 0 10.1-.5 19.6-1.1 28.2l0 16.1c-.3 10-1.6 20.4-2.4 30.5-2 10.1-5.1 20-8.3 29.9-9.1 18.5-20.5 37.1-38.3 48.8-7.8 7.2-18.1 10.4-27.2 15.5-10.1 2.5-19.9 6.9-30.4 7.1-20.8 3.3-41.9-1-61.5-8.1-19.3-8.2-36.6-21.3-49.2-38.3-6.3-8.3-10.8-18.1-15.3-27.4-2.5-10-6.9-19.9-7.8-30.2-.5-4.9-.5-9.5-.2-13.7-.7-8.2-1.3-16.3-1-24L75.3 132c-.4-9.6 1.4-20.3 2-30.4 .4-10.3 5-20.1 7.4-30.1 4-9.5 8.9-19 14.7-27.6 6.9-7.9 12.9-16.8 21.8-22.6zM228.9 15c-17.6-6.4-36.8-5.6-54.9-2.7-18.2 3.9-35 12.6-48.8 24.7-12.9 12.9-23.8 28.5-28.5 46.6l-3.9 13.4 .1 .1c-.7 4.6-.9 9.4-1.4 14l-.3 3.2 41.1 .5c.3 0 .6 .4 .8 1 .2 .6 .2 1.5 .1 2.3l-.8 8c-.2 2-.9 3.5-1.6 3.5l-40.5-.6 0 10.9 .1 46.4 42 .5c.3 0 .6 .4 .8 1s.2 1.5 .1 2.3l-.8 8c-.2 2-.9 3.5-1.6 3.5l-40.4-.6 .1 57.2 0 .1 41.9 .5c.3 0 .6 .4 .7 1 .2 .6 .2 1.5 .1 2.4l-.8 8c-.2 2-.9 3.5-1.6 3.5l-39.4-.6c.4 4.5 .9 8.9 1.2 13.4 1.3 9.2 4.9 17.9 7.2 26.9 8.3 16.2 17.9 32.6 33.5 42.7 6.7 6.4 15.8 9.2 23.7 13.6 8.9 2.1 17.5 6.2 26.8 6.2 18.3 3.1 36.9-1.1 54-7.2 33.9-14.3 58.4-46.9 62.3-84.3 .3-3.9 .8-7.5 1.4-10.8l-39.2-.6c-.6 0-1.2-.6-1.6-1.8l-.2-.6c-.3-.8-.4-2-.2-3.1l1.1-6.5c.3-1.6 .9-2.8 1.6-2.8l39.4 .5c0-1.3 .1-2.5 .1-3.8l-.2-53.4-40-.6c-.6 0-1.2-.6-1.6-1.8l-.2-.6c-.3-.8-.4-2-.2-3.1l1.1-6.5c.3-1.7 .9-2.7 1.6-2.7l39.3 .5-.2-50.1c0-2.7 .4-5 .8-7.1l-40.6-.6c-.6 0-1.2-.6-1.6-1.8l-.2-.5c-.3-.8-.4-2-.2-3.1l1.1-6.5c.3-1.7 .9-2.8 1.6-2.8l39.4 .5c-.6-7.2-1.2-14.3-2.5-21.2-8.1-36.2-34.3-68.9-70.8-78.4z"/></svg>