<svg xmlns="http://www.w3.org/2000/svg" viewBox="0 0 504 560"><!--! Font Awesome Pro 7.2.0 by @fontawesome - https://fontawesome.com License - https://fontawesome.com/license (Commercial License) Copyright 2026 Fonticons, Inc. --><path fill="currentColor" d="M65.2 264.2c1.7 .7 2.9 2.3 2.9 4.1 .2 6.7 1.1 13.4 1.9 20.1 .5 4.7 1 9.3 1.8 14 5.2 29.5 15.9 57.9 33.3 81.8 .4 .5 .4 1.2 .4 1.9 13.6 18.6 30.7 34.6 50.5 46.4 51.4 31.3 118.5 34.6 172.9 9.6 2.2-1 4.5-1.6 6.3-1.7 1.8-.1 3 .3 3.2 1.2l1.8 8c.4 2-3.6 5.4-9.2 7.8-22.5 9.7-46.7 15-71.2 15.9l-.5 76.6 79.9-.7c2.4 0 4.8 .6 6.7 1.7l.9 .5c1.2 .7 1.7 2 1.1 3.1l-3.6 6.6c-.9 1.7-3.2 2.8-5.8 2.8l-178.4 1.6c-1.2 0-2.3-.3-3.1-1s-1.1-1.5-1-2.4l1.4-8c.3-2 2.8-3.5 5.6-3.5l81.5-.7 .6-76.9c-35-1.1-69.8-10.8-99.7-29.7-55.8-34.2-88.5-99-91.1-162.8 0-.6 0-1.2 0-1.8-.2-3.6-.9-7.3-1-10.9 0-1.8 .5-3.6 1.6-4.9l.5-.7c.3-.4 .8-.1 1.2-.3 .3-.4 .6-.3 1-.3 .3 0 .5-.3 .8-.2l6.6 2.7zM231.2-4c22.4-3.6 45.3-1 66.6 6.6 21.1 8.6 39.3 23.3 52.9 41.6 11.7 19.2 20.6 40.9 21.6 63.2l1.5 16.7c.1 13.3 .2 74.4 .3 111.6 0 4.6-.3 8.9-.8 13l0 2.7c.6 19-.7 40-7.3 59.1-5.9 18.7-17.4 36.5-31.4 49.8l46.1 51.2c0-1.5 .5-3 1.7-4.1 36.6-37.2 52.8-90.4 52.6-142.2 0-1.1 .4-2.1 1-2.8s1.5-1.1 2.3-1l8 .9c2 .2 3.5 2.4 3.5 5-.1 54.3-17.7 111.3-57.6 151.3-1 1-2.3 1.4-3.5 1.9l95.8 106.3c3 3.3 5.6 6.7 7.1 9.4s2 4.4 1.1 4.7l-8.3 2.8c-2 .7-8.9-4.7-15.8-12.3l-330.3-366.7-2.8-.9c-1-.3-1.9-2.2-2.5-4.9L31.4 45.9c-1.7-1.9-3.3-3.8-4.8-5.8L13.4 25.8c-1.1-1.2-1.7-2.7-1.7-4.4l0-.8c0-.5 .6-.7 .8-1.1 0-.2 .2-.1 .2-.2 .3-.4 .4-1 .8-1.2l6.6-2.6c1.7-.7 3.5-.3 4.6 1l79.5 86.2c.5 .6 .8 1.4 .7 2.2 0 .1-.2 .2-.2 .4l27.2 30.2c0-17.2 .6-35.1 5.6-52.4 1.6-5.4 3-10.8 4.8-16.1l7.9-15c2.3-5.2 5.7-9.7 9.5-13.9 3.8-4.2 7-9 11.3-12.7 16.8-15.4 38.1-24.9 60.2-29.5zM135.9 213.6l6.6 1c1.7 .2 2.8 .8 2.8 1.4l1.5 41.1 41.4 .5c.3 0 .6 .4 .7 1 .2 .6 .2 1.5 .1 2.3l-.8 8c-.2 2-.9 3.5-1.6 3.5l-40.4-.6c.9 12.2 2.8 24.1 7 35.4 5.9 16 15.2 30.5 27.7 41.8 24.8 22.8 61.3 31.6 94.1 24.1 2.7-.7 5.4-.7 7.8-.2l1.2 .2c1.6 .4 2.5 1.5 2.1 2.7l-2.7 7.5c-.7 1.9-3.4 3.7-6.6 4.6-37.5 8-79-2.5-107.3-29.3-29-26.6-40.2-67.8-38.9-104.7l0-.1c0-1.5 .3-2.9 1-3.9 .1-.1 .2-.1 .2-.1l-1.1-34.1c0-.6 .6-1.2 1.7-1.6l.5-.2c.7-.3 2-.4 3.1-.3zM288.7 15.1c-18.9-6.9-39.6-7.1-59.1-3.5-19.8 3.8-37.3 14.6-51.6 28.1-6.4 7.6-13.2 14.9-17.1 24.2-5.5 8.4-7.4 18.5-10.3 28-1.9 6.8-2.3 13.9-2.8 21.1l40.5 .5c.3 0 .6 .4 .7 1s.2 1.5 .1 2.4l-.8 8c-.2 2-.9 3.5-1.6 3.5l-39.7-.6c-.1 8 0 16.2 0 24.3L324.8 349.3c.1-.1 .1-.1 .1-.2 21.4-20 31.3-47.6 33.4-76.8l-40.2-.6c-.6 0-1.2-.6-1.6-1.8l-.2-.5c-.3-.8-.4-2-.2-3.1l1.1-6.6c.3-1.7 .9-2.8 1.6-2.8l40 .5c0-2.7 0-5.3-.1-8l-.3-49.2-40.2-.6c-.6 0-1.2-.6-1.6-1.8l-.2-.5c-.3-.8-.4-2-.2-3.1l1.1-6.6c.3-1.6 .9-2.7 1.6-2.7l39.4 .5-.3-50.2c0-2.2 .6-4 1.2-5.9 0-.4 0-.8 0-1.1l-40.9-.6c-.6 0-1.2-.6-1.6-1.8l-.2-.6c-.3-.8-.4-2-.2-3.1l1.1-6.5c.3-1.7 .9-2.8 1.6-2.8l39.4 .5c-.2-2.6-.4-5.3-.7-7.8-3.2-40.9-30.7-77.3-68.8-90.4z"/></svg>