<svg xmlns="http://www.w3.org/2000/svg" viewBox="0 0 616 560"><!--! Font Awesome Pro 7.2.0 by @fontawesome - https://fontawesome.com License - https://fontawesome.com/license (Commercial License) Copyright 2026 Fonticons, Inc. --><path fill="currentColor" d="M575.3 230.8c1.7 .3 9.3-1 13.8 2.1 4.3 3.1 5.6 11.6 6 13.7 .6 3.4 1 6.6 1.3 9.8l0 0c1.1 12.8 1.2 25.3 .7 37.9-.2 4.6-.7 9.1-1.6 13.3-.3 3.5-.9 7.1-2.1 12.1-1.3 5.2-4.7 10-10.1 10l-10.8 0c-5.7 0-62.5 0-170.3 0l-272.5-.1c-6 0-11.7-.2-17.4-.4l-44.4 .3c-3.6 0-7.1-.6-9.8-1.7l-1.3-.5c-1.8-.7-2.5-2-1.6-3.1l5.6-6.6c1.4-1.7 4.8-2.8 8.5-2.8l261.9-1.7c1.8 0 3.5 .3 4.7 1 .4 .2 .3 .6 .6 .8 30.1 0 111 0 242.4 0 .2 0 .4 0 .5-.1 .3-.7 0 .5 .7-2.8 .9-5 1.3-10.5 1.6-16 .6-10.9 .5-22.1-.1-33-.3-5.4-.8-10.9-1.8-15.7-.3-1.2-.2-.9-.5-1.2l-4.6 0-454.2 .4-76.2 .2c-.8 0-1.5-.1-2.3-.1l-6 0 0-.5c-.1 1.2-.8 12.9-.8 21.1l.2 31.9c.1 7.8-.1 15.2-.6 20.5s-1.3 8-2.1 7.3l-8.2-5.8c-2-1.4-4-16.4-4.1-34.6l.1-25.9 .5-13.2c.1-1.5 .5-6.9 1.6-9.9 .5-1.8 1.6-3 3.2-3.7 .8-1.5 3-1.3 4.4-2 45.1 0 150.2-.2 315.1-.5 110.5-.2 184.2-.4 221-.5l9.2 0z"/></svg>