<svg xmlns="http://www.w3.org/2000/svg" viewBox="0 0 336 560"><!--! Font Awesome Pro 7.2.0 by @fontawesome - https://fontawesome.com License - https://fontawesome.com/license (Commercial License) Copyright 2026 Fonticons, Inc. --><path fill="currentColor" d="M105.9-7.8c26.9-1.4 53.7-1.1 80.4 .3s53.5 3.8 80.1 7.9c13.4 2.3 26.5 4.4 40.3 9.5 3.4 1.3 7 2.6 11.8 7.7 .7 1.3 1 2.9 2.1 4.1 .5 1.3 .5 3.4 .5 4.3l.3 5 1 19.9c.4 6.8 .6 13.7 1 20.6 4.2 84.4 7.4 168.9 6.8 253.6l-.5 36.3c1.5 50.9-2.8 100.9-1.5 150.3 .1 2.1-.4 4.1-1.4 5.8l-.5 .8c-.7 1.2-1.9 1.6-3 1.2l-6.8-3c-1.7-.8-3-2.9-3.1-5.3-.3-9.9-.1-19.8 0-29.6-1.4 1.2-3.7 2.2-6.9 2.2l-273 1.5c-2.6 0-4.9-.6-7.2-1.2L26.2 537c.3 .5-.4 .4 1.5 1.1 1.8 1 4.8 1.7 7.3 2.4 5.5 1.3 11.2 2.3 17.1 3.1 11.7 1.6 23.6 2.6 35.6 3.3 23.9 1.4 48 2 72.1 1.9 47.8-.6 97-1.2 142.9-9.5 5-1 9.4-1.9 12.2-2l.9 .1c-.2 1.4 1.9 2.3 2.5 1.9 2.3 1.3-.7 6-2.4 8.8-1.6 2.4-6.6 5-12.3 6.2-48.6 8.3-96.6 8.9-144.9 9.5-24.1 0-48.3-.5-72.5-2-12.1-.7-24.2-1.8-36.4-3.4-6.1-.8-12.2-1.9-18.5-3.4-3.3-1-6.3-1.5-9.9-3.4-4.3-1.3-8.7-6.8-9.9-12l.1-59.6c-.7-2.8-1.3-6.1-1.4-9.8-3.6-77.9-4.6-155.8-5.1-233.7l.1-116.8 .6-58.4 .7-29.8c-1-4.7 4.1-9.1 4.9-10.7 .5-.5 1-1 1.4-1.5 2.1-4.2 6.2-9.3 12.4-11.8 1.5-.7 3-1 4.5-1.6 .5-.3 .9-.7 1.4-1 2.4-1.2 4.9-1.8 7.2-2.1 22.5-7.3 45.1-8.9 67.6-10.5zm201.9 86l-287.4 1.2-.5 44.8-.1 116c.4 63.6 1.5 127.2 3.7 190.7 1.7 1.4 2.9 5.8 2.9 11.3l-.1 30.9c1.6-1.6 4.9-2.7 8.7-2.7l274.6-1.6c1.4 0 2.7 .4 3.8 .7 .8-40.3 3.2-80.3 1.1-119.2-.1-.8 .2-1.5 .6-2.1 1.3-90-1.8-180.2-6.3-270.3-.4 0-.7 .2-1 .2zM235.3 257.9c.9-.1 1.8 .2 2.4 .8l5.6 5.8c1.4 1.4 1.4 3.8-.1 5.5L152.6 376.6c-1.2 1.5-2.9 2.5-4.7 2.8l-.9 .2c-1.2 .2-2.4-.3-2.9-1.4l-3-6.6c-.8-1.7-.4-3.8 .9-5.3l90.9-107.2c.6-.7 1.5-1.2 2.4-1.3zm-75.8-90.8c.7 .2 1.4 .7 2 1.3l5.3 6.1 0 .1c1.3 1.5 1.6 3.4 .6 4.3l-60.2 60.6c-.8 .8-2.1 1.2-3.5 1l-.7-.1c-.9-.1-2-.9-2.5-1.9l-3.3-6c-.8-1.5-.8-3.1 .1-4l60.5-61.1c.4-.4 1.1-.5 1.8-.4zM179.3 7.1c-26.5-1.1-53-1.2-79.3 .4-13.1 .9-26.2 2.2-38.9 4.5-8.8 1.6-17.7 3.8-25.3 7-.7 .5-1.4 .9-2.2 1.4-3.5 2.2-6.7 5.1-9.5 8.2-3.8 4.7-2.7 2.1-3 8.7l0 .1-.5 27.6c.7-.1 1.3-.4 2.1-.4l285.6-1.1c-.3-5.7-.5-11.4-.8-17.1l-1.1-20c-.5-.6 .9 0-1.7-1.3-2-1.2-5.2-2.2-8.1-3.1-12-3.6-25.1-5.9-38.1-7.8-26.1-3.8-52.6-6-79.1-7.2zM167.2 26.5c1-.1 4.1 2.2 5 2.7 4.6 1.8 6.7 7.8 6.2 11.2-.3 2.1-1.3 5-4.1 7.1-2.7 1.9-5.7 2.1-8.1 1.7-4.7-.7-9.1-5.4-9.1-10.9 0-2.6 .7-4.5 1.5-6.2 1.9-3.7 6.1-5.4 8.7-5.5z"/></svg>