<svg xmlns="http://www.w3.org/2000/svg" viewBox="0 0 616 560"><!--! Font Awesome Pro 7.2.0 by @fontawesome - https://fontawesome.com License - https://fontawesome.com/license (Commercial License) Copyright 2026 Fonticons, Inc. --><path fill="currentColor" d="M574.3 134.7c3.1 0 6.2 .4 8.3 1s3.2 1.5 3 2.4l-2.5 8c-.6 2-6.7 3.5-14.1 3.4l-41-.3c1.6 14.4 5.9 28 14.9 37.8 8.5 9.4 20.7 14.8 33.8 17.4l-.2-30.2c0-1.4 .3-2.8 1-3.7 .6-1 1.5-1.5 2.3-1.3l8 1.1c2 .3 3.6 3 3.6 6.3l0 .1 1.4 208.7c0 2.9-.6 5.7-1.7 7.8l-.5 1.1c-.7 1.4-1.9 1.9-3 1.2l-1 1.9c-1 2-10 3.2-20.9 2.9-8.1-.2-16.2-.1-24.3-.2l1.4 40c0 .6-.6 1.2-1.7 1.6l-.6 .2c-.7 .3-1.9 .4-2.9 .2l-.8 1.9c-.9 2-9.7 3.6-20.4 3.8-112.9 1.8-225.9 4.5-339 4.2-28.3 0-56.6-.4-84.9-1L50 449.8c-3.6-.2-6.8-.1-11.6-.8-4.7 0-12.4-5.7-13.6-10.6-3.6-9.4-3.2-16.2-3.8-23.7-1.1-57.3 .3-113.2-.2-169.8 0-7.4 .5-14.3 1.2-20.5l-.1-4.5c0-3.8-.2-6.2-.1-11.2 .5-5.3 3-10.4 7.1-13.9 3.8-3.6 9.7-5.5 14.5-5.4l10.4-.2 16.9-.3 0-3.7c0-5.1 .2-10 .5-14.7L70.7 153c0-.7 .6-1.3 1.7-1.8l.5-.2c.5-.2 1.2-.2 1.9-.2 .1 0 .3-.1 .4-.1 .3 0 .5-.1 .8-.1l6.6 1c1.7 .3 2.8 .9 2.8 1.6L87 202.8c0 .3-.3 .6-1 .9-.2 .1-.4 0-.6 .1l0 3.3c12.2-3.4 23.3-8.9 30.8-17.9 8.4-9.7 13-22.9 15.9-36.4 .1-.5 .6-1 1.3-1.2s1.6-.2 2.4 0l7.8 2.2c1.9 .6 3.1 2.1 2.8 3.5-3.3 14.7-8.7 30-19.7 42.5-10.9 12.5-26.6 19.2-41.3 22.8l.2 99.8c31.7 5.3 60 30.8 62.9 65.2 0 1-.6 1.8-1.1 2.6 26.3 .7 52.8 .5 79.3 .1 93.5-1.8 187.3-5.3 281.2-5 2.8-11.6 6.5-23.2 13-34 7.1-12 17.9-22.4 30.5-28.8 1.1-.5 2.3-.5 3.6 .2l.6 .3c.8 .4 1.5 1.5 1.7 2.6l1.3 6.7c.4 1.7 0 3.1-.9 3.6-18.8 9.6-29 28.7-34.3 49.6 16.7 .1 33.5 .1 50.3 .5 1.6 0 3.1 .2 4.6 .3-.1-.6-.4-1.2-.4-1.9L576.7 219c-.5 .3-1.1 .6-1.7 .5-15.9-2.9-32.3-10.1-43.9-23.4-11.7-13.2-16.4-30.7-18-46.5 0-.2 .2-.3 .2-.5L105 146.2c-6.4 0-12.6-.7-17.4-1.9l-2.4-.6c-3.3-.8-4.4-2.1-2.8-3.1l10-6.5c2.5-1.7 8.6-2.7 15.3-2.7zM53.1 203.9l-10.5 .2c-1.7 .1-3.3 .8-4.4 2s-1.8 2.7-1.8 4.3l.2 10.2 .4 21c0 .6-.3 1.1-1 1.5-.2 .1-.6 .1-.8 .2 .1 1.7 .2 3.5 .2 5.3 .7 56.6-1.1 114.2 .5 169.9 .2 6.3 1.8 14.7 3.2 15.2 .1 1.1 10 1.2 16.5 1.5l42.5 1.3 85.1 .9c113.5 .1 227-2.6 340.6-4.4 1.4 0 2.7 0 4 .1l-.8-20.2c-3.5 .9-8.5 1.5-14.4 1.6-103.1 1-206.2 2.9-309.6 2.1-25.8-.3-51.7-.6-77.6-1.8-13-.6-26-1.3-39.2-2.9-3.3-.4-6.7-.9-10-1.5-4-1-5.6-.7-12.3-3.6-5-3-7.7-9.5-7-14.4l0-9.7-.4-154.7c0-8.5 .6-16.7 1.7-23.2l.2-1zM85.8 362.3l.1 19.8c-1.6 .2 6.3 3.5 12.7 4.3 11.8 2.1 24.5 2.8 37.1 3.4-.9-.5-1.7-1.2-1.7-2-1.9-24.6-24.4-45.7-48.2-50.4zM301.3 175.6c20.4-9.4 44.9-5.1 62.1 7.2 5.2 3.6 9.2 8.1 11.9 12.3 1.8 1.9 3.8 3.6 5.4 5.6 13.3 16.6 22.2 37.1 24.3 58.5 2.3 21.3-1.3 43.1-10.1 62.7-9.4 18.9-23.8 38.1-47 44.9-2.6 1.1-5.3 .9-7.8 .5-.4 0-.7 .1-1.1 .2-22.3 2.2-43-9.8-56-25.8-13.5-16.3-19.5-36.6-22.3-56.3-2.4-19.9-1.3-40.2 4.1-59.7 2.8-9.7 6.8-19.3 12.5-28.1 5.5-8.7 13.8-17.4 24.1-21.8zM317.5 186c-4.3 .7-8.4 2.1-12.3 4.1-12.4 6.6-20.4 21.1-25.2 36l-1.9 6.4c-4.5 17.5-5.1 36.2-2.4 54.1 2.7 17.9 9.1 35.3 20.8 48 11.3 12.7 28.8 20.4 44.4 17.5 15.5-3.5 28.9-16.7 37.1-32.2 17.3-31.1 16.1-71.6-3.4-101.2-.8-1.1-1.1-2.2-1.7-3.3-12.5-17.9-30.6-30.6-51.4-28.7-1.4 0-2.7 0-3.8-.5-.2-.1-.2-.3-.3-.4z"/></svg>