<svg xmlns="http://www.w3.org/2000/svg" viewBox="0 0 616 560"><!--! Font Awesome Pro 7.2.0 by @fontawesome - https://fontawesome.com License - https://fontawesome.com/license (Commercial License) Copyright 2026 Fonticons, Inc. --><path fill="currentColor" d="M240.7-6.2c1.5 0 2.2 .3 1.8 .8 1.8 .8 3.1 2.1 3.1 4.4 .5 2.2 .4 5.3-1.9 9.5-2.1 3.7-5.5 9.9-6.3 11.7-3.3 6.8-9.9 20.3-19.7 40.7-.3 .6-.9 1-1.6 1.3-17.2 40.9-25.8 85.5-22.1 129.6 4.1 54.6 28 107.7 68.2 144.4 39.9 37.3 94.8 55.9 149.4 56.1 54.9 .7 109.3-15 159.4-38.4 4.1-1.9 8.1-3.4 11.2-4.1s4.8-.6 4.9 .3l.4 8.7c.1 2.1-7.3 7.3-17.1 11.8-51.5 23.2-108.1 38.2-165.6 36.5-57.2-1.7-115.2-23-156.8-63.9-42.1-40.3-65.3-97.7-68.8-155.1-3.6-57.6 11.5-115.7 39.8-165.4 1.2-2.4 2.7-4.4 4.1-6.6l1.7-3.5c.5-1.2 .5-1.1 .7-1.6 5.8-2.3-20.2 6.2-35.5 14.2-77.3 38-135.4 113.4-150.4 198.4-15.3 82.4 7.8 171.5 63.6 234.3l11 12c57.9 60.8 144.7 91.3 227.9 82.8 43-3.9 84.6-19 121.1-41.9 36.1-23.5 67.4-54.7 89.3-91.9 3.9-5.8 6.9-11.8 9.8-15.7 2.8-3.9 4.7-5.7 5.2-4.8l4.6 8.5c1.1 2.1-3.9 15.5-13.3 29.9-49.3 75.7-135.3 126.6-225.8 131.6-45.1 2.4-90.8-4.7-132.6-22.1-41.7-17.7-79-45.1-108.7-79.2-59.8-68.1-84.4-165.2-64.9-253.8 17.7-85.6 76.6-161 154.8-200.1 .2-.1 .3-.3 .5-.5 .7-.4 1.6-.6 2.3-1 2.1-1 4.1-2.3 6.2-3.3 5.6-2.5 11.1-4.6 16.6-6.6 1.1-.4 2.2-1 3.4-1.4 3.1-1 21.5-8.4 30.5-6.6zM499.6 187.3l6.6 1.4c1.7 .4 2.9 1.2 2.9 2l1.5 22.1 21.7-.8c.4 0 .8 .3 1.1 1s.4 1.5 .4 2.3l-.2 8c-.1 2-.8 3.6-1.7 3.6l-20.2 .7 1.5 21.4c0 .4-.3 .8-.9 1.2-.6 .4-1.5 .6-2.3 .7l-8 .6c-2 .1-3.5-.5-3.6-1.4l-1.4-21.9-22.9 .8c-.8 0-1.6-.6-2.2-1.7l.1 0-.3-.5c-.4-.7-.6-2-.4-3.1l1.2-6.6c.3-1.7 1-2.8 1.9-2.8l21.8-.8-1.5-23.4c0-.8 .5-1.6 1.6-2.2l.5-.3c.7-.4 2-.5 3-.2zM369.4 21.9l6.6 2.4c1.7 .6 2.8 1.9 2.8 3.4l.3 41.5c14.3-.5 28.6-1 43-1 .7 0 1.3 .4 1.8 1s.7 1.5 .6 2.3l-.6 8c-.1 2-1.5 3.5-3 3.5-13.8 0-27.7 .5-41.6 1l.4 44.8c0 .7-.4 1.3-1 1.8-.6 .5-1.5 .7-2.3 .7l-8-.4c-2-.1-3.5-1.4-3.5-3l-.3-43.6c-14.5 .4-29.1 .8-43.7 .4-1.4 0-2.7-.7-3.7-1.8l-.5-.5c-.7-.8-.8-2.1-.5-3.1l2.4-6.5c.6-1.7 1.9-2.7 3.4-2.7 14.2 .3 28.4-.1 42.6-.5L364 26.6c0-1.4 .6-2.7 1.7-3.7l.5-.5c.7-.7 2-.9 3.1-.5z"/></svg>