<svg xmlns="http://www.w3.org/2000/svg" viewBox="0 0 616 560"><!--! Font Awesome Pro 7.2.0 by @fontawesome - https://fontawesome.com License - https://fontawesome.com/license (Commercial License) Copyright 2026 Fonticons, Inc. --><path fill="currentColor" d="M407.1 164.8c3.4-.6 9.1-.9 15.5-.1 25.7 3.1 51.2 7.4 76.2 16.5 6.2 2.3 12.5 5.1 18.6 9.2 3.1 2.3 6.2 4.2 9 9.7 2.6 5.2 1.3 11.6-2.5 16.2-6.9 6.6-13.4 8.4-19.8 10.7-6.5 2.2-12.9 3.6-19.3 4.8-51.4 9.2-102.6 9.9-153.8 10.7-51.1 .1-102.3 0-153.8-7-12.9-2-25.7-4.1-39.1-9.6-.1 0-.2-.1-.3-.1 .2 2 .3 4.1 .4 6.3 2.5 54.5 2.4 112.2 32.4 157 13.3 23.2 34.8 40.3 57.4 53.7 23.2 13.3 49.7 19.5 76.2 23.2 53.2 4.1 109.6-8 151.3-41.2 20-16.7 37.3-37.9 43.9-63.2 7.5-25.1 8.5-53.1 9.8-80.4 .1-2.7 .3-5.3 .5-7.9 .1-6.7 .2-13.5 .4-20.2 0-1.4 .7-2.8 1.8-3.9l.5-.5c.3-.3 .9-.1 1.4-.2 .4-.5 .7-.5 1.1-.2 .2 0 .4-.2 .6-.1l6.5 2.4c1.7 .6 2.7 2 2.7 3.5-.6 34.8-.4 69.9-7.8 105.5-.2 .7-.7 1.3-1.4 1.7-.4 .2-.8 0-1.3 0-.8 2.9-1.3 5.8-2.3 8.6-.8 2.7-2.1 5.1-3.1 7.7 .4 3.1-.2 7.3-1.9 12.3-4.1 10.5-9.7 20-16.2 28.8l.1 0c31.2 5.3 62.6 10.7 91.8 28.2 3.5 2.5 7.2 5.1 10.3 9.2l.1 .1c3.1 3.6 6 10.2 4.3 16.6-4 12.7-13.5 15.8-20.7 19.8-15.4 6.9-31 10.2-46.6 13.3-62.4 10.9-125.1 12.6-187.7 13.6-62.5 .6-125.2-.2-187.9-6.8-15.7-1.9-31.3-4-47-7.4-15.6-3.9-31.3-6.6-46.9-18.6-3.7-2.8-8-9-7.8-16.2 .3-7.6 4.5-12 7.8-15.5 7.1-6.6 14.6-10.4 22.1-13.8 15.1-6.8 30.5-11 46-14.7 10.2-2.4 20.3-3.7 28.3-3.9l3.9-.1c5.4-.1 7.3 .8 4.9 2.3L151.2 434c-3.7 2.4-12.9 5.3-23.2 7.8-14.9 3.7-29.7 8.2-43.1 14.6-6.5 3.2-13 7.3-16.2 11.6-1.2 2.2-1.5 3.2-1 4.5 1 1.5 2.8 3.7 5.7 5.4 11.4 7.2 27.2 10.7 41.9 13.8 15 3 30.5 5 45.9 6.7 61.9 6.2 124.6 6.8 187.1 6.1 62.4-1.2 125.4-3 185.9-14.7 14.8-3.1 30.1-7 41.8-13.9 2.7-1.7 5.2-3.7 6-5.3 1.1-1.7 1-1.9 .2-3.6-1.5-3.6-7.8-8.3-14.1-11.4-26.3-13-57.3-19.4-87.8-23.3-.4 0-.8-.1-1.2-.2-14.1 14.7-31.1 26.5-48.8 35.5-32.9 16.4-69.4 24.6-106 25.1-36.6 .5-73.9-7.8-106.1-26.6-32.4-18.5-57.7-49.2-70.3-84.2-.5-1.3-.5-2.4-.8-3.6-.9-2.1-1.7-4.3-2.7-6.4-.2-.5-.4-1.1-.7-1.6-.2 .2-.3 .3-.5 .5-20.2 14.6-50.3 22.5-75.3 10.1-24.6-12-39.8-35.9-46.7-60.6-3.3-12.5-4.7-25.8-2.5-39.2 2-13.2 8.8-27.3 21.3-35.4 12.4-8.3 27.3-9.4 40.2-7.8 13.3 1.5 25.3 6 37 10.9 2.4 1.2 4.6 2.6 6.6 4.1-.4-9.3-.9-18.7-1.1-28-.1-4.4 .2-8.6 .8-11.6-1.3-3.5-1.6-7.4 .1-10.9 6.2-10.9 12.8-12.2 18.9-15.8 25.1-11 50.5-15.5 76-19.9 8.4-1.4 16.6-1.6 23.2-1.1l3.2 .2c4.4 .3 6.1 1.4 4.1 2.7l-12.2 7.8c-3.2 1.9-10.8 4-19.4 5.4-24.7 4.2-50.4 9.2-71.8 19.7-2.5 1.4-4.8 2.9-6.7 4.4-1.5 1.5-1.7 1.7-1.6 2.3-1 .1 4.1 3.8 9.7 5.6 11.1 3.9 23.7 6 36.1 7.7 50.1 6.2 101.5 6.5 152.5 6.1 50.9-1 102.6-1.7 151.5-11.5 5.9-1.4 11.9-3 17.1-5.1 4.4-1.5 7.8-4.2 8.4-4.9l0 0c.1-.1 .2-.1 0 0-.5-.7-4.4-4.3-8.7-6.2-5.1-2.6-10.7-4.9-16.5-6.7-23.4-7.6-48.6-11.7-73.6-14.3-3-.3-5.9-.8-8.2-1.3l1 0c-.9-.2-2-.5-3.2-.7-3.5-1-5-2.1-4.4-2.8 1.7-2.5 3.2-5 4.3-7.6 .3-.6 1.3-1.2 2.8-1.4l.6 0zm-297 96.7c-21-8.9-46.5-14.9-63-2.8-16.1 12.4-17.1 38.8-10.7 59.8 6.4 21.5 20.7 41.6 40.5 49.8 19.7 8.4 42.7 1.8 60.9-11.8 .2-.1 .4-.2 .6-.3-.6-1.6-1.3-3.1-1.9-4.7-4.1-14.2-6.3-28.3-8.1-42.4-1.9-16-3.1-32-3.9-48l-4.8 1.8c-2.2 .8-5.9 .3-9.6-1.5zM86.5 283.8c3.2 .3 6.2 .2 9.3 1.4l0 .1c12.9 4 20.1 16.3 21.6 28 .6 6-.2 12.7-3.8 18.8-3.5 6.2-10.9 10.6-17.6 11.2-2.2 .3-4.2-.5-5.7-1.6l-.7-.6c-1-.8-1.1-2-.5-3.1 .5-1 .8-2 1.3-3-.4 0-.7 .1-1.1 .1-.2 0-.3-.2-.5-.2-.2 1-.4 2.1-.7 3.1-.3 1.8-3.8 3-6.2 1.2-6.5-4.5-8.7-10.2-10.5-15.5-1.7-5.4-2.4-10.8-2.3-16.4 .3-5.6 .6-11.5 5.6-18 2.3-3.4 7.5-5.6 11.8-5.6zm426.5-77.7c.2-.1 .2-.1 0 .1l0-.1zM323.1 47.7c1-1 2.2-1.1 3.2-.3 1.9 1.6 3.9 3 5.9 4.4 1.6 1 2.4 2.9 2.2 4.9-.8 11.4 1.7 23.1 7 33.1 5.2 10 14.3 18.6 22.2 29.8 8.3 11.3 12.4 26.3 12.2 40 .1 13.8-2.6 26.9-5.4 39.4-.2 1-.8 1.9-1.6 2.5s-1.7 .7-2.5 .4l-7.7-2.7c-1.9-.7-2.9-2.9-2.4-5.2 5.6-23.9 8.5-48.9-5.7-67l0 0c-6.7-9.5-16.4-18.6-22.9-31.4-6.4-12.6-9.1-26.8-7.9-40.9 .2-2.3 1.1-4.5 2.5-6l.7-.8zM268.2 96.5c.9-.4 2.1-.1 3 .6l5.5 4.3c1.4 1 2.2 2.4 1.8 3.5-4.8 13.6 .7 23.6 11.1 36 4.8 6.2 10.2 15.2 10.1 25.4-.1 10-4 18.6-8.3 25.7-.3 .6-1 1-1.7 1s-1.6-.2-2.3-.7l-6.5-4.8c-1.6-1.2-2.4-3-1.8-4.1 3.8-6 5.7-12.3 5.6-17.9-.1-5.5-3.1-10.7-7.7-16.6l0 0c-4.3-5.8-10.2-12.5-13.2-21.7-3.2-9.2-2.1-19.2 .6-27.4 .4-1.4 1.5-2.5 2.8-3.1l.7-.3z"/></svg>