<svg xmlns="http://www.w3.org/2000/svg" viewBox="0 0 560 560"><!--! Font Awesome Pro 7.2.0 by @fontawesome - https://fontawesome.com License - https://fontawesome.com/license (Commercial License) Copyright 2026 Fonticons, Inc. --><path fill="currentColor" d="M545.1 333.4c-.8-455.1-.4-243.4-.6-317.5-.3-4 .6-5.5-.6-13.5-1-6.5-10.8-9.6-14.3-9.9-31.3-2.8-58.3 3-86.8 7.2-28 4.8-55.8 10.5-83.5 16.8-27.6 6.4-55.1 13.4-82.4 21.4-13.6 4-27.2 8.3-40.7 13.3-6.7 2.5-13.5 5.2-20.2 8.4-3.4 1.6-6.7 3.3-10.2 5.6-1.8 1.2-3.3 2.2-5.5 4.4-2.4 2.4-3.7 5.5-4 8.8l-4.8 369.8c-.4 .5-.8 1.2-1.2 2.2-.6 1.9-1 4.7-1 7.6l.1 26.4c.1 7.7-1.5 15.3-4.7 22.2-7 14.2-18.2 27-31.9 35.3-27.2 17.5-65 14.5-89.7-6.6-21.3-17.3-33-45-32.9-72.6 0 0 0 0 .1 0 .7-.9 1.1-2.1 1.1-3.4 .8-31.9 19.3-63.5 48.1-77.4 28.3-14.3 66-9.2 88 14.3 1.9 1.9 4.4 3.1 6.3 2.9l8-.6c1.3 0 2-1.2 1.7-2.9l-.3-1.2c-.6-2.5-1.9-5.3-4.2-7.5-19.9-21.8-50.6-30.9-79.1-26.7-3.2 .1-6.6 .5-10 1.4-37.7 9.6-65.7 43.2-72.5 80.1-7.3 36.8 4.6 77.5 33.2 102.7 28 26 72.8 31.6 106 12.5 16.6-9.2 30.1-23.2 39.1-39.6 3.8-6.6 5.9-14 7.1-21.5 .6-.7 1.2-2.5 1.8-6.1 .7-4.9 1.2-11.8 1.2-19L210 178.3c1.1 0 2.1 .1 3.2-.2l308.1-76.2c3.9-1 7-2.7 8.6-4.5 .1 26.6 .2 97.9 .4 213.8-.2 .5-.4 .9-.6 1.6-.6 2.5-1 6.1-1 9.8-.4 22.6 1.1 46.7-.8 67.8-2.3 21.6-10.1 42.2-23.7 58.8-25.7 34.4-81.2 35.2-111.4 5.4-31.7-28.7-37.9-80.9-15.5-117.4 10.9-18.3 28.6-32.6 48.9-38.1 20.2-5.6 43.2-3 60.9 8.3 6.1 3.8 11.7 7.4 14.9 8.3 4.2 1.1 8.4 2.6 12.6 4.4 2.1 .9 2.3-.9 .3-4.6l-1.5-2.7c-3.3-5.3-8.7-11.5-15.6-16.1-21-14.4-47.5-18.4-71.9-12.9-24.5 5.5-45.8 21.6-59.1 42.2-27.5 41.3-22.6 100.4 12.3 135.9 33.4 36.9 99 40 132.7 1.1 16.5-18.1 26.6-41.3 30-64.9 1.4-10.3 1.8-20.3 1.8-30.2 .8-10.2 1.4-22.1 1.3-34.6l0 0zM519.6 87.2L213.1 162.7c-1.1 .3-2 .6-3 1l1.1-83.8c-1.9 .9 5.6-4.7 11.1-6.9 6-2.8 12.3-5.4 18.7-7.8 12.9-4.8 26.1-9 39.4-12.9 26.6-7.9 53.7-14.8 80.8-21.1 27.1-6.3 54.5-11.9 81.9-16.6 27.1-4.3 55.6-9.4 81.5-7.9 1.5 .2 3 .4 4.1 .7 .5 .1 .5 .1 .8 .3 .2 .2 .2 .4 .2 .6l0 4.3c0 10.5 .1 31.5 .1 63l0 10.6c-3.1-.1-6.6 .1-10.3 1l0 0z"/></svg>