<svg xmlns="http://www.w3.org/2000/svg" viewBox="0 0 560 560"><!--! Font Awesome Pro 7.2.0 by @fontawesome - https://fontawesome.com License - https://fontawesome.com/license (Commercial License) Copyright 2026 Fonticons, Inc. --><path fill="currentColor" d="M341 38.1l125.3 2.3 62.6 1.6 13.7 .4c3.5-1 2.7 2.5 2.9 4.9l.3 7.5c.3 8.8 .8 24.9 1.6 48.2 1.2 41.8 3.5 83.6 3.7 125.3 1.8 336.4 1 179.9 1.3 234.7l-.1-.1c0 4.9 .4 10.7-.8 17.1-2.3 12.2-9.4 23.4-19.3 30.7-9.5 7.5-23.6 10.7-34 10-15.1 0-110.1-.2-284.9-.5-.3 .1-.5 .3-.8 .3l-127-1c-.8 0-1.5-.6-2.2-.9-6.9 .1-13.7-.9-20.1-3.2-22.3-7.8-40-25.7-48.5-47.2-4.3-10.8-6.1-22.4-5.9-33.9l.1-31.6c.2-41.9 .4-83.7 .6-125.5 .1-23.8 .2-39 .2-45.6 .4-1-.8-3.4 .8-3.1l3.9-.2 7.8-.3 17.4-.5c13.9-.2 26.9 .4 36.1 .9 9.3 .6 13.9 1.3 12.8 2.2L78 238.9c-1.3 1-8.6 2-19.4 2.6-12 .6-22.8 1-34.2 1.5-.5 88.8-.8 149.4-1 181.9-.1 5.4 0 10.4 .3 15-.1 4.8 .5 9.5 1.9 14.1 .7 4.7 2.5 9.1 4.7 13.4 1.6 4.5 4.6 8.2 7.3 12.1 6.5 9 15.8 15.8 25.9 20 2-.9 4.6-1.4 7.6-1.5 21.8 .5 43.2-18.2 48.2-38.1 3.8-23.3 4.1-48.8 4.7-73.5 .9-49.8 .2-99.8-1-149.7 0-2 .3-4 .9-5.4 .6-1.4 1.4-2.1 2.3-2l8.1 1.4c1 .2 1.8 1.2 2.5 2.7-1-43.6-1.9-87.3-1.6-131.1l.5-31.4c.4-13 .6-21.1 .7-24.4l.1-3.7c.8-.4 2.4-.2 3.5-.4l12.8-.7c20.9-1.3 41.8-2 62.8-2.6 41.8-1.1 83.6-1.2 125.4-.8zM324.1 52.8c-41.9-.3-83.8 0-125.6 1.4l-31.3 1.3-15.6 .9c-.8 .2-.8-.4-.8 1.3-.7 20.9-.9 41.8-.9 62.7 0 83.7 3.9 167.5 4.2 251.7-.1 21.1 .5 41.7-1.8 63.8-2.9 21.4-7.9 44.2-23.7 62.2-2.1 2.5-4.5 4.8-7.1 6.9l66 .4c2.9 0 5.7 0 8.7 0l251.5 .5 31.4 .1c9.9-.3 22.2 .8 30.2-.8l0 0c17.7-3.7 30.2-20.6 28.1-40-.4-83.9-.9-167.8-1.3-251.8L532 88 530.9 57.6c-.4-.9 .9-.8-2.5-.8l-15.7-.4-62.9-1.6c-41.9-1-83.8-1.8-125.7-2zM485 417.8c3.6 0 7 .7 9.7 1.8l1.3 .5c1.8 .8 2.5 2 1.6 3.1l-5.6 6.5c-1.4 1.7-4.8 2.7-8.6 2.7l-262.1-1.8c-1.8 0-3.5-.4-4.6-1s-1.8-1.5-1.6-2.4l1.6-8c.4-2 3.9-3.5 8-3.4L485 417.8zm-.2-62.6c3.6 0 7 .7 9.8 1.8l1.3 .5c1.8 .8 2.5 2 1.6 3.1l-5.6 6.5c-1.4 1.7-4.8 2.7-8.6 2.7l-262.2-1.8 0 0c-1.8 0-3.5-.4-4.6-1s-1.8-1.5-1.6-2.4l1.6-8c.4-2 3.9-3.5 8-3.4l260.3 1.9zm-.2-62.6c3.6 0 7 .7 9.8 1.8l1.3 .5c1.8 .8 2.5 2 1.6 3.1l-5.6 6.5c-1.4 1.7-4.8 2.7-8.6 2.7l-262.2-1.8 0 0c-1.8 0-3.5-.4-4.6-1s-1.8-1.5-1.6-2.4l1.6-8c.4-2 3.9-3.5 8-3.4l260.3 1.9zM459.2 121.3c4.7 0 9.2 .3 12.4 .9s4.8 1.5 4.4 2.3l-3.6 8.1c-.9 2-9.9 3.6-20.8 3.7l-171.9 2.2c-14.4 0-28.8-.2-43.2-.6l-10.8-.4c-3.1-.1-1.7-.1-2.5 0l-.4 15-1.7 42.8c-.2 7-.2 14.1 .1 21l.3 6.2c0 .5 .2 .2 1.2 .2 128.8 .7 214.6 1.2 257.5 1.4l9.5 .1c.1 0 .2-.1 .2-.1l.7-17.7c.3-14.1 0-28.3-.5-42.5-.3-9.4-.2-18.5 .6-25.7l.4-3.5c.5-4.9 1.6-6.6 2.8-4.3l7.3 14.4 0 .1c1.9 3.7 3.4 12.6 3.7 22.5 .5 14.5 .7 29 .2 43.6-.2 7.6-.4 12.5-1.5 28.1l-27.8-.1c-42.4-.2-130.5-.7-264.1-1.5l-2.5 0c-1 .1-1.7 0-1.5-1.1l-.4-5.1-.7-9.3-.4-11.1c-.1-7.4 0-14.7 .2-22l1.7-43.1 .2-13.6c.1-3.3-.3-7.3 .3-10.1l10.4 .4 24.2 .7c14.3 .3 28.6 .4 42.9 .3l172.8-2.2z"/></svg>