<svg xmlns="http://www.w3.org/2000/svg" viewBox="0 0 448 560"><!--! Font Awesome Pro 7.2.0 by @fontawesome - https://fontawesome.com License - https://fontawesome.com/license (Commercial License) Copyright 2026 Fonticons, Inc. --><path fill="currentColor" d="M30.8 1.6c98.6-5.2 196.5-4.3 294.8-3 23.5 .4 46.2 1.6 64.4 3.7 2.8 .3 6 .7 8.8 1.1 12.1 1.6 16 3.7 10.1 3.9-12.8 .7-24.7 2.4-37 4-9.5 1.2-31.5 1.6-56.2 1.3-89.4-1-179.7-1.7-268.5 2.4 3.4 1.5 9 5.9 14.3 11.5 66.7 71.7 121.1 152.1 173 234 56.1-77.2 111.6-154.7 161.3-235.8 2.1-3.5 4.5-6.7 6.4-8.8 1.9-2.1 3.4-2.9 3.9-2.2 .1 .2 .3 .4 .4 .5 .3-2.2 .7-3.1 1.2-2.6 2.7 2.9 5.3 5.8 8 8.7 2 2.2 4.4 24.5 5.1 51.7 3.8 150.4-1.6 300.6 5.1 450.2 .4 5.1 1.8 12.2 1.9 19.1 0 3.6-.1 7.4-1.5 11.8-1 4.3-6.8 10.3-12.5 10.4-111.3 10.9-222.8 2.8-333.3 1-7.5 .1-17.3 2.3-27.4 2.4-5.1-.1-10.8-.2-17-3.6-6.5-3.3-9.9-11.7-9.9-17.5-1.9-173-6.8-345.9-7-519 .1-3.1-.1-6.5 .3-10.5 .2-2 .5-4.2 1.8-7 1-2.7 4.4-6.5 8.5-7.4l1.2-.2zM404.3 37.8c-50.2 81.2-105.8 158.6-161.8 235.5 47.9 76.1 94.1 153.2 146.4 225.6 2.3 3.1 4.2 6.4 5.2 8.8 1.1 2.5 1.2 4 .4 4.3-2.6 .7-5.3 1.4-8 2.1-2 .5-7.6-4.7-12.9-12.1-50-70-94.5-143.7-140.1-216.3-60.3 82.8-120.6 165.3-174.8 251.8-3.4 5.4-7 10.5-10.3 14.8 1.4 .2 2.9 .3 4.4 .3 8.4 0 16.8-2.2 27.7-2.4 111.1 1.8 221.9 9.9 331.7-.9 .6-.3-.2 .7 .6-.9 .5-1.5 .8-4.2 .7-6.9-.1-5.7-1.2-11.1-1.9-18.8-7.1-156.8-.9-313.4-5.7-469.5-.2-6.2-.3-12.3-.3-17.8-.4 .8-.8 1.6-1.3 2.4zM33.7 15.5c-.2 .4-.4 1.1-.4 2.1-.3 2.5-.1 5.6-.2 9.2 .2 172.6 5.1 345.5 7 518.5 0 .5 .1 1 .2 1.4 0-.4 .1-.8 .1-1.1 .4-3.7 3.6-11 8.3-18.4 55.1-87.6 116.1-171 176.8-254.4-53.2-84.3-108.5-166.6-176.5-239.2-5.3-5.7-10.1-11.5-13.6-16.5-.4-.5-.8-1.1-1.1-1.6-.2 0-.3 0-.5 0z"/></svg>