<svg xmlns="http://www.w3.org/2000/svg" viewBox="0 0 560 560"><!--! Font Awesome Pro 7.2.0 by @fontawesome - https://fontawesome.com License - https://fontawesome.com/license (Commercial License) Copyright 2026 Fonticons, Inc. --><path fill="currentColor" d="M234.8 20.5c4 .1 7.6 1.7 9.6 4.6 1.4 2.8 1.5 8 1.5 11L247 62.6c0 .4-.3 .7-1 1-.1 .1-.3 0-.4 .1 0 .8 .1 1.6 .1 2.4l.3 84.2c.4 0 1.1-.1 1.4 0 1.8 .3 2.8 .7 4.3 1.3l3.6 1.6 .1 4.1c.8 51-3.7 100-.5 149.9 1.3 44.4 2.5 89 .7 133.8 329.7-326.9 210.7-208.9 249.3-247.1 1.8-1.8 5.3-5.2 4.5-4.5 0 0 .1-.5-.8-3-3.5-8.8-11-18.6-18.2-27.5-30.4-35.3-66-68.4-103.8-95.1-1.1-.7-2.4-1.6-3.9-2.6-.4 .3-.8 .5-.9 .4-9-6.2-13.7-5-20.5 .8-.2 .1-.7-.2-1.2-.4L274.1 151c-1.3 1.3-3 2.2-4.7 2.4l-.8 .1c-1.2 .1-2.3-.5-2.7-1.6l-2.7-6.7c-.7-1.7-.2-3.7 1.1-5.1l92.6-96.1c.6-.6 1.5-1 2.4-1s1.7 .4 2.3 1l.9 1c2.6-1 5.3-2 8.4-2.1 8-.2 14.3 3.7 18.9 6.5 2.5 1.2 5 2.4 7.6 4.2 39.8 28.8 75.2 61.6 106.9 99.2 7.4 10.2 15.7 18.5 19.6 34.4 .5 2.2-.1 5.5-.9 7.9-1.1 2.4-3.1 5.3-4 5.7l-6.4 6.4-12.8 12.7c-35.9 35.6-66.6 66.1-92.3 91.6l111.8 1c8.1 .5 11.4 11.9 12 15 1.1 4.6 2 9.1 2.6 13.5 1.4 8.9 2.3 17.7 3.2 26.5 1.6 17.6 2.6 35.3 3.2 52.9 .6 17.6 .7 35.3 .1 53.1-.5 8.3-.8 16.4-1.5 24.7l0 .1c0 .1 .1 .3 .2 .4l-.3 1.4c-.9 9.1-2.5 18.4-5.9 28.4-.7 1.4-1.6 2.8-2.5 3.9-1.3 1.4-2.9 2.7-4.2 3.3-3.5 1.2-5.1 .6-5.4 0-5.2 2.2-10.3 2.3-14.5 2.5l-16.1-.1c-.5 0-1-.6-1.5-1.1l-334.3 1.2c-.7 0-1.2-.2-1.9-.3-29 4-59.6-1.8-84.2-18.5-25.6-16.8-42-46-45.3-75.9-.5-4.9-.6-9.6-.2-12.9s1.1-4.9 2-4.5l8.4 3.5c2.1 .9 4.4 9.1 5.3 19.1 4.9 25.9 20.6 49.3 43.6 62.1 22.8 12.9 50.8 16.5 76.4 10.7 25.7-5.6 48.9-21.4 61.4-44.2 13.1-22.9 13.2-49.7 12.7-78.2l-.1-43.8-188.2 7.2c-2.4 .1-4.7-.5-6.6-1.4l.2 46.5c0 5-.6 9.9-1.7 13.8l-.5 1.9c-.7 2.6-2 3.5-3.1 2.2l-6.6-7.9c-1.7-2-2.8-6.8-2.8-12l-2-367.4c0-2.5 .3-4.9 1-6.6 .6-1.7 1.5-2.6 2.3-2.5l8 1.5c2 .4 3.5 5.1 3.6 10.9l.5 90.3c1.2-1.3 3.3-2.2 5.7-2.2l189.5 2-.2-68.6c0-5.3 .2-10.5 .6-15.3l-.5-11.9c0-.2 0-.2-.1-.2L60.4 37c-2.4 0-4.7-.6-6.5-1.7l-.9-.6c-1.2-.7-1.6-2-1-3.1l3.7-6.6c.9-1.7 3.2-2.8 5.7-2.8l158.3-1.5 0 0 6.4-.1c2.1 0 3.9-.3 8.7-.1zM408.2 327c-36 32.5-72.1 63.8-107.8 97.8-18 16.4-34.9 32.8-49.8 51.8-13.1 15.7-26.2 32-41.8 46.6l293.2-.9c2.9 0 5.7 .3 8.3 .7 2.8-.4 5.3-1 6.6-2.3 2.7-1.9 4.1-9.9 5.6-18 3.7-26.7 3-55.8 2.5-83.5-.6-17.1-1.6-34.2-3.1-51.1-.8-8.5-1.7-16.9-3-25.2-.6-4.1-1.4-8.2-2.3-12-1.5-5-.8-3.1-1.3-3.6L409 326.2c-.3 .2-.6 .5-.8 .8zM129.6 420.7c3 0 6 0 9.3 .7 3.2 1 7.1 .9 11.8 7l0 0c1.7 2.7 1.6 6 1 8.6 .1 .2 .5 .3 .5 .5-.2 3.6 2.3 9.3-1.9 17.4-6 7.9-12.4 9-19.5 9.6-3.4 .2-8.8-1-12.1-4-3.4-2.9-5.4-6.7-6.4-10.3-.6-2.6-.8-5.2-.7-7.8-.4-1.8-.8-3.8-1-7.6-.4-5.6 2.6-11.2 8-12.6 5.3-1.1 8.2-1.5 11-1.5zM36.4 243.1l.5-.9c1-1.7 3.3-2.8 5.9-2.9l180.4-3.4c1.2 0 2.4 .3 3.2 .9s1.3 1.5 1.2 2.4l-.9 8.1c-.2 2-2.6 3.5-5.4 3.6L41.9 254.1c-2 0-3.8-.6-5.4-1.3l.5 100.2 1.2-2.1c1-1.7 3.4-2.9 6.1-3l187.5-7.3-.6-194.1-190.7-2.1c-1.7 0-3.1-.7-4.6-1.1l.5 99.9z"/></svg>