<svg xmlns="http://www.w3.org/2000/svg" viewBox="0 0 560 560"><!--! Font Awesome Pro 7.2.0 by @fontawesome - https://fontawesome.com License - https://fontawesome.com/license (Commercial License) Copyright 2026 Fonticons, Inc. --><path fill="currentColor" d="M329.2 28.7c19.5-12.6 43.5-19.2 67.1-16.6 23.5 2.4 45.9 13.3 62.4 30.1 16.6 16.7 27.5 39.5 28.7 63.4 1 23.9-6.3 47.6-21.2 66.1-56.4 68.5-117.6 130.6-178.3 194.1l-46 46.9-23.5 23.2c-9 7.7-18.6 15.5-31 18.8-11.9 3.6-25.5 3.5-37.4-1.4-11.9-4.9-21.7-14.3-27.5-25.6-5.9-11.3-7.7-24.6-5.4-37 2.3-12.6 9.2-23.3 16.8-32.6 58.7-65.2 118.9-129 181.3-190.7 8-7.9 15.6-14.9 22.3-20.8l12.2-12.4c.6-.7 1.5-1.1 2.4-1.1 .9 0 1.7 .4 2.2 1.1l5 6.3c1.2 1.6 1 4-.5 5.5l-96.5 98.1c-.8 .8-1.9 1-2.8 1.4-13.7 14.2-27.6 28.1-41.1 42.4l-44.4 47.8-21.9 24.1c-7.5 8.3-14 15.4-17.7 24.4-7.6 17.4-2.7 39.4 12.9 50.3 15 11.6 36.7 9.4 52.4-2.6 30.9-27.5 61.4-60.7 91.5-91.3 30.2-31.3 60.1-62.9 89.7-94.7l43.8-48.2 21.1-24.6c6.8-8.5 13.8-16.3 17.6-25.2 9-18.2 11.6-39.2 6.2-58.5-5.2-19.2-17.9-36.3-34.5-47.7-16.5-11.4-37-17-56.9-15.2-19.8 1.7-39.6 11.1-53.8 24.2L137.9 233.7c-15.3 15.3-31.7 30.2-46.1 45.9-6.9 8-14.1 15.7-20.8 23.8L54.4 330c-19.8 36.9-21.3 81.8-3.7 119 16.7 37.8 52.3 65.8 91.6 77.6 39.5 13.2 83.9 3.7 116.7-20.2 33.2-26.6 64.4-57.4 95.4-87.6 21.5-21.2 42.5-42.9 63.7-64.4 .1-.2 .2-.5 .3-.7L529.7 232.8c1.5-1.7 3.5-2.9 5.5-3.4l1-.3c1.4-.4 2.6 .1 3 1.2l2.7 6.8 .1 .1c.7 1.7 .1 4-1.5 5.8l-47.7 51.9c-7.2 10-24.1 29.3-44.2 50-30.5 31.5-61.3 62.7-92.7 93.3-32 30.3-62 61.5-99.2 88.1-39.3 24.6-90 26.6-132.3 10.1-42.6-16.5-77.3-52-93.2-95.1-15.5-43.9-5.7-93.5 18.5-131.4 24.3-38.9 59-67 89.4-98l140.8-137.8 23.4-23 11.8-11.5c2.2-1.9 3.2-3.7 6.8-6.2l7.4-4.7z"/></svg>