<svg xmlns="http://www.w3.org/2000/svg" viewBox="0 0 616 560"><!--! Font Awesome Pro 7.2.0 by @fontawesome - https://fontawesome.com License - https://fontawesome.com/license (Commercial License) Copyright 2026 Fonticons, Inc. --><path fill="currentColor" d="M577.4-7.7c1.8-.2 4.5 .2 6.8 .5 3.1 .7 6 2.1 8.2 4.2l0 0c4.6 4.4 4 12.5 2.8 16.2-1.1 4-2.4 7.2-3.6 10.4L534.3 176.3c-38.6 101.7-77.1 203.3-119.8 303.7l-16.7 37.4-8.9 18.6-4.8 9.2-2.5 4.6c-.9 1.5-1.5 2.8-3.7 6-3.4 5.7-7.7 10.6-11.6 12.1-3.7 1.8-9.2 .4-10.9-3-2.9-2.5-3.6-11.2-5.1-17.2l-2-10-8.2-39.9-32.8-159.7c-1.8-8.6-3.1-17-3.7-23-.6-6-.4-9.1 .6-8.6l9.2 5.1c2.3 1.3 7.2 17.6 11.3 37.8 25.9 126.2 39.3 191.5 40.2 195.9 0 1 .6 2.5 1.4 1 .5-.7 .2-.2 1.2-2l4.8-8.6c12.2-23.6 22.9-48.4 33.5-73.2 41.9-99.4 80.2-200.5 118.5-301.6l51.6-138c-1.4 1.6-2.5 3.2-4.1 4.8-6.9 7.1-14 14-20.9 21-.6 .6-.9 1.3-1.5 1.9-43.7 45.3-85.9 92.1-127.9 139.1-21 23.5-41.9 47.2-63.6 70.4-11 11.5-21.7 23.1-35 33.7-3.6 2.6-6.5 5.3-13.3 7.4-3.7 1-8.5-.2-9.6-.7l-5.7-1.5-22.9-6.1c-2.5-.7-4.8-1.7-6.3-2.7-.1-.1-.1-.1-.2-.2-17.9-3.7-35.4-7.9-53-12L61.7 241.7c-4.1-1-7.9-2.3-10.5-3.5-.5-.2-.6-.4-1-.6-11.9-2.8-18-4.2-18.4-4.3-1.5-.6-3.8-1.3-5.4-2.2-3.3-1.8-5.4-4.2-6-7.9-.4-3.5 1.1-6.5 3.5-9.4 2.9-3 6.2-5.4 8.9-7.1 9.1-5.7 17.1-9.5 25.8-13.8 17-8.2 34.2-15.7 51.4-23.2L316.9 81.7c2.8-1.2 5.6-2 7.8-2.2 2-.2 3.2 .2 3.4 .9 40.1-16.5 80.2-33 120.6-48.7 25.5-9.7 51-19.3 77.1-27.7 13.1-4.1 26.2-8.1 40.4-10.7 3.6-.6 7.2-1.1 11.3-1.1zM172.6 478.4c1 0 2 .7 2.6 1.6l.1 0 3.5 6c.9 1.5 .9 3.2 0 4.2L116.9 562c-.4 .5-1.1 .7-1.9 .6s-1.5-.5-2.2-1.1l-5.8-5.6c-1.4-1.4-1.8-3.3-.8-4.5l62-71.6c.9-1 2.1-1.5 3.6-1.5l.7 0zm25.8-148.9c1.3-.4 2.5 .2 2.9 1.4l.1 0 2.5 7.1c.6 1.8 0 4.2-1.6 6L91.9 470c-.7 .9-1.8 1.4-2.7 1.6s-1.9-.1-2.5-.7L81.2 465c-1.4-1.5-1.1-4.1 .7-6.1L192.1 333.3c1.5-1.7 3.4-3 5.4-3.5l1-.3zM571 7.7c-3.8 .5-7.7 1.2-11.5 2.1-12.7 3-25.5 7.1-38.2 11.2-25.4 8.5-50.6 18-75.8 27.7-100.5 39.2-200 81.5-299.4 123.9-16.4 7-32.5 13.3-45.4 17.6l-3.2 1.1C85.6 196.7 73.6 202 62 207.6l-12.2 6.2c-3.6 1.9-8.8 5-9.7 5.7-.1 .1-.5 .4-.2 .5l.4 .1 6.5 1.6 106.5 25.2c5.7 1.3 11.1 3.2 15.2 5.3l52.7 12.7 37.3 8.8c12.1 2.6 25.4 6 36 6.1 2.8 .1 3.6-.5 4.9-1.3 1.3-.9 3.9-3.8 6.1-5.9L319.1 259 346.3 232c72.6-72.2 145.8-144.1 217.3-217.1 2.5-2.5 5-4.9 7.4-7.1z"/></svg>