<svg xmlns="http://www.w3.org/2000/svg" viewBox="0 0 448 560"><!--! Font Awesome Pro 7.2.0 by @fontawesome - https://fontawesome.com License - https://fontawesome.com/license (Commercial License) Copyright 2026 Fonticons, Inc. --><path fill="currentColor" d="M95.9-8.2c10.5 .3 21 .9 31.7 2.4 1.6 .3 3.1 1.1 4.1 2.5l.5 .7c.4 .5 .1 1.2 .1 1.8 .2 .2 .3 .4 0 .6-.1 .2 .1 .5 0 .7l-3.6 6c-.9 1.6-2.5 2.4-4 2.2-18.1-2.4-36.9-2.7-55.5-1.9-9.3 .5-18.5 1.3-27.6 2.6-4.5 .7-8.9 1.5-13 2.6-1.9 .6-4 1.2-5.6 1.9L20.7 15c-.2 .1-.2 .2-.2 .3 0 .1-.2 0-1.1-.6l0 .1 .1 17.4c0 61.4 .1 342.6 .2 513.1 .4 .6-.7 0 2 1.3 2.4 1 5.4 1.8 8.4 2.5 6.1 1.4 12.6 2.2 19.1 2.9 13.1 1.2 26.4 1.6 39.6 1.3 13.2-.3 26.6-1.2 39.1-3.6 3.1-.6 6.2-1.3 8.9-2.2 2.7-.8 5.4-2.3 4.8-2.1 0-.1 .1-.5 .1-.1l0-15.1c0-81.2-.1-243.6-.2-487.2 0-8.4 .4-16.4 1-22.1s1.5-8.6 2.3-7.9l8 6.5c2 1.6 3.5 17.7 3.5 37.2 .1 238.2 .1 396.9 .1 476.3l0 9.9c.2 1-.1 5.4-.8 8-1.1 2.8-3.4 5.2-5.9 6.9-8.4 4.8-14.8 5.5-21.8 7-13.7 2.3-27.2 3-40.7 3.3-13.5 .2-27-.2-40.5-1.5-6.8-.7-13.6-1.6-20.5-3.2-3.5-.8-7.1-1.8-10.8-3.3-3.5-1.2-10.8-6.2-10.7-12.5-.1-508.3-.1-460.8-.1-530.9 .2-.9-.7-4.4 1.1-7.1 .6-3.1 2.7-5.2 5-7.2 8.5-5.9 14.3-5.9 21-7.7 12.9-2.3 25.6-3.2 38.3-3.6 8.9-.2 17.7 0 25.8 .6zm290.8 .3c.6 0 1.2 .1 1.8 .1 1.2 .1 2.5 .2 3.8 .3 6.3 .4 12.6 .4 18.9 1.1 4.8 .7 9.5 1.7 13.9 3.2 2.8 .7 5.6 1.4 8.6 2.7 2.6 1 8.8 3.9 10.8 9.1l.1 .1c.7 2.3 1.3 6.1 1 7.4l0 13c-.1 69.4-.4 208.1-.7 416.2 0 7.6-.2 15-.5 22.1l.3 43.1c0 3.5-.6 6.8-1.7 9.5l-.5 1.3c-.7 1.8-2 2.4-3.1 1.5l-6.6-5.3c-1.7-1.4-2.8-4.6-2.8-8.2l-1.7-252.9c0-1.7 .3-3.3 1-4.5 .3-.6 .8-.6 1.2-.8 .1-50.6 .2-126 .4-226.3l0-8.6c0-2-.1-1.2-.4-1.8-1.9-1.3-8.3-3.2-13.2-4.1-10.7-2-21.9-2.9-33.2-3.3-10.5-.3-21.3-.3-31.9 .2-1.9 .1-3.8 .2-5.6 .4-9.9 .6-19.8 1.8-29.1 3.8-5.2 1.1-10.4 3.6-9.2 3.5l0 14.6 .1 34.5c.1 335.5 .1 367.7 .3 468.1 0 1.4-.1 2.8-.2 4.2l0 9.2 .1 .1c.8 .4 2.9 1.3 4.8 1.9 3.9 1.2 8.4 2.1 13 2.8 9.1 1.4 18.5 2.1 27.9 2.5 18.8 .7 38 .2 56.2-2.4 7.7-1.2 15.2-2.6 18.8-3.9 2.5-.7 .9-.9 3.9 .7 .1 .2 .6 .2 .4 .2 1.3-.6 3.2 4.1 2 7.5-.6 3.7-17.2 10.7-36.7 11.8-17.4 1.5-34.7 1.6-52.1 .6-8.7-.5-17.4-1.3-26.2-2.8-4.4-.8-8.9-1.8-13.5-3.3-2.5-1-4.3-1.5-7.7-3.8-3.4-2.1-5.1-5.8-5.8-9.5 0-98.5-.1-210.1-.3-334.9l-.2-156.4-.1-39.1 0-2.7c-.2-1.6 .3-3.1 .7-4.6 .4-3.2 3-5.5 5.4-7.5 5-3.4 8-3.9 11.7-5.2 7-2 13.7-3 20.5-3.8 5.8-.6 11.6-.6 17.3-.9 2.4-.1 4.8-.3 7.2-.4 10.3-.4 20.7-.4 31 .1z"/></svg>