<svg xmlns="http://www.w3.org/2000/svg" viewBox="0 0 616 560"><!--! Font Awesome Pro 7.2.0 by @fontawesome - https://fontawesome.com License - https://fontawesome.com/license (Commercial License) Copyright 2026 Fonticons, Inc. --><path fill="currentColor" d="M319.3 220.4c12.6 .7 25.4 4.2 36.5 10.9 5.6 3.3 10.6 7.5 15.1 12.2 4 4.6 8 8.9 11.7 13.6 15.1 18.4 27.9 38.8 38.9 59.6 11.1 20.7 21.1 41.3 36.3 57.2l-.1 0c15 16.1 35.5 28.1 52.5 46.3 18 17.9 25.8 45.9 22.3 70.5-2.8 24.6-16.7 50.8-42 61.4-11.9 5.4-26.5 6-37.6 5.3-11.7-.3-23.5-.9-35.2-1.7-23.5-1.5-46.8-4.1-69.9-6.3-23.2-2.3-45.4-3-68.1 .1-22.8 2.7-45.9 7.1-69.9 8.6-7.8 .5-15.4 .1-20.8-.7-5.4-1-8-2-7.2-2.8l6.5-7.6c1.6-1.8 15.6-2.8 32.8-4.7 22.7-2.3 45.5-6.7 69.1-8.8 23.9-2.4 47.6 0 70.7 2.2 23.1 2.3 46 4.6 69 5.8 11.4 .6 23.2 1.2 34.2 1.1 10.5 .1 20.7-2.9 29-8.6 16.9-11.4 25.3-33.6 25.4-54.7 .6-21.8-9-41.1-25.8-55.8-16.1-15-36.8-27.7-52.3-47.1-15.5-19.1-25.1-40.9-36.3-60.7-11-20-23.6-38.8-38.6-55.9-13.1-17.8-33.5-25.7-54.8-24.6-21.1 .9-41.5 11.2-56.5 26.5-14.6 15.1-26.9 36.4-40.7 54.7-13.7 18.9-28.1 37.6-44.6 54.7-16.3 17-33.4 32.4-46.2 50.4-12.2 17.8-21.9 39.1-21.6 59.6-.4 20.7 13.1 38.6 31.5 48.8 12.2 6.8 25.6 10.9 36.2 13.1l5.3 1c7.2 .6 9.9 1.8 6.3 3-7.5 2.6-15.8 3.8-24.3 4.3-6.4 .2-21.8-2.5-36.3-12.2-10.3-6.9-20.1-15.9-25.9-27.6-5.9-11.5-8.3-24.7-7.4-37.4 2.7-25.3 13.9-47.8 28.7-67 14.9-19.1 32.7-34.6 48.2-51.4 15.5-16.8 29.4-35.3 42.8-54.2l20.1-28.6c6.6-9.5 14.6-19.7 24.1-27.6 18.6-16.4 43.7-26.3 69.2-24.9zm196.4-34.6c17.7-8 39.5-10 58.2-.7 9.3 4.5 17.7 13 21.4 23.1l0 .1c3.9 9.9 4.5 19.9 4.3 29.4-.5 19.2-5.7 37.7-13.2 54.8-7.5 17-17.8 33.6-32.7 46.4-14.9 12.8-34.7 20.8-55.3 19.3-2.6-.2-4.9-.9-6.9-1.7-2.1-.4-4.3-.9-7.3-2.2-4.1-1.9-8-4.7-11.1-8-6.4-6.6-9.9-14.4-12.7-21.6-.2-.6-.1-1.3 .4-1.9 .1-.2 .4-.2 .6-.4-4.7-14.3-5.5-29.8-3.7-43.8 1.9-18.5 6.8-37.1 16.2-53.8 9.3-16.7 23.9-31 41.8-39zM54.8 181.2c19.7-.8 35.8 6 51.4 14.3 15.4 8.7 28.8 21 38.5 36 18.5 30 26.2 68.7 5.8 103.7l0 .1c-30.9 26.5-75.8 20.7-102.2-4.8-27.2-24.9-36.4-64.2-30.8-98.7 .8-5.8 2.6-11.2 4.8-15.1l1.1-1.9c1.5-2.6 3-3.2 3.6-1.6 1.3 3.4 2.7 6.7 4.2 9.9 1.2 2.5 1.2 7.5 .5 12.9-4.5 31.4 4.8 65 28.5 85.3 11.6 10.1 26.1 16.2 41.3 16.3 7.5 .2 15.1-1 22-3.5 3.5-1.2 6.8-2.9 9.9-4.8 1.5-1 3.1-2 4.5-3.1 2.1-1.9 .4 .2 1.9-2.4 14.3-26.8 7.7-62.2-9.8-87.3-8.9-12.6-21.1-22.9-34.9-30.1-13.4-6.7-30.4-12.5-42.5-10-1.9 .4-3.6 .8-5 .9-1.4 .1-2.4-.2-2.8-1-1.1-2.5-2.1-5.1-2.7-7.8-.8-1.9 4.7-6.9 12.5-7.4zm509.7 15.8c-14.1-5.8-31.2-3.7-45.4 3.5-14.5 7.2-26.1 19.4-33.7 34-7.7 14.6-11.8 31.3-13.3 48.1-1.7 17 .6 33 8.4 46.9 1.9 3.3 3.7 5.7 5.6 8.1 3.8 3.1 8.1 5 13.5 4.8 12.6 .9 25.6-3.3 36.4-10.5 .7-.4 1.6-.3 2.5-.2 3.1-2.1 6-4.4 8.7-7 12-11.3 20.7-26.2 27.3-42 6.5-15.7 10.6-32.5 10.4-49.1 .3-16.9-5.7-31.1-20.4-36.5zM201.6 7c11.7-.6 24.3 1 35.5 7.1 21.5 13.4 33.1 34.5 40.9 55.7 7.5 21.5 10.6 44.6 7.9 67.5-2.4 22.9-12.7 45.8-29.8 62.1-1.7 1.5-3.3 2.8-5 4.2-.4 .8-1.5 1.8-3.3 2.8-.1 .1-.2 .2-.3 .2-3.1 1.7-6.2 3.2-8.9 4.3l-2.7 1c-3.6 1.4-5.3 1-4.2-.9-9.6 1.6-19.6 2.3-29.8 .2-6.1-1.1-11.7-3.8-16.8-6.6-5.5-2.4-10.1-6-14.7-9.6l0 0c-18.2-14.8-30.4-35.1-37.6-56.5-7.1-21.5-9.8-44.8-5.5-67.6 4-22.3 17.1-46.4 40.3-55.9 11.4-5.1 22.3-7.3 34.2-8.1zM421.2 2.8c11.3-1.7 23.6 1.2 33.7 7 10.4 5.9 17.5 15.2 23.4 24.6 10.8 19.4 14.7 41 15.3 62.1 .3 21.2-2.7 42.7-11.8 62.8-9.3 19.9-25 37.1-45.7 46.5-6.8 3-14.1 4.4-19.9 4-.9 0-1.9-.2-2.8-.2-3.8-.4-5-1.6-3.3-2.8 3.5-2.4 6.6-5.1 9.3-7.9 2.1-2.3 7.2-4.7 12.9-7.6 16.6-8.3 29.9-23.5 37.2-40.8 7.2-17.7 9.9-37.5 9.1-56.9-.9-19.3-5-39.1-15.2-54.6-4.6-8.2-11.7-13.9-19.1-18-7.7-3.7-16.6-4.5-25.5-3-17.8 3.3-35.6 13.2-47.4 27.4-12.1 14.2-19 32.6-21.2 51.6-2.1 19 0 38.8 6.3 56.8 5.8 17.3 17.9 36 32.3 37.5 2.2 .2 4.4 .4 6.2 .5 1.7 .2 2.9 .8 3 1.6 .2 2.7 .2 5.5 0 8.3 .2 2.1-7.8 6-17.3 3-12.2-3.8-20.1-13-26.4-21.9l-.1 0c-6.2-9.1-10.4-19.1-13.5-29.3-6.2-20.4-7.8-42.1-4.6-63.2 3.3-21 11.8-42.1 27.2-58.1 15.2-16 35.1-26.6 57.7-29.3zM227 25.6c-16.7-7.2-40.3-3.8-56.8 4.5-16.7 9.4-26.5 28.1-29.3 48-2.7 20.1 .5 41.2 7.7 60.3 14 38.2 49.3 71.6 90.7 56.2 .7-.2 1.3-.2 2.1-.3 1.8-2.3 4-4.7 6.6-7.1 28.7-29.5 29.6-77.5 15.1-115.6-7.6-18.8-19.3-38-36-45.9z"/></svg>