<svg xmlns="http://www.w3.org/2000/svg" viewBox="0 0 504 560"><!--! Font Awesome Pro 7.2.0 by @fontawesome - https://fontawesome.com License - https://fontawesome.com/license (Commercial License) Copyright 2026 Fonticons, Inc. --><path fill="currentColor" d="M391.8-7.5c29.6-2.7 56.2 11.3 76.2 30.3 9.5 10.1 18.7 21.2 23 35.1l.1 .1c4.3 13.4 6.2 29.3 .2 43-1.9 7.2-6.9 12.9-10.3 19.1l-11.8 15.6-23.4 31.5-46.6 63.2c-62.6 84.1-123.4 169.3-192.6 249.3-.4 .4-.8 .8-1.2 1.2l.2 1.5c.3 2-3 5.1-7.7 7-30.2 13.2-59.3 29.7-89.3 44.9-15 7.6-30.3 14.9-46.1 21.3-7.9 3.1-15.9 6.1-24.1 8.8L32.1 566c-2.5 .8-7.3 2.4-10.6 1.5-7.4-1.4-12.5-9.2-10.6-16.9 9.9-43.5 14-83.4 23.2-125.9 1-4.4 2.6-8.6 4.5-11.7l.9-1.5c1.3-2.1 2.7-2.5 3.5-1.2l4.7 8.4c1.2 2.1 1.3 6.4 .3 11-4.1 19.2-7.4 39.4-10.7 59.4 17.8 8.3 37.1 27.3 38.4 44.3 9.2-4.2 18.4-8.7 27.6-13.3 26.1-13.2 52-27.3 79.1-39.8-17.7-7.2-33.9-17.5-48.8-28.6-.4-.3-.5-.8-.4-1.5-24.9-18.1-46.9-39.7-70.7-56.5-.8-.6-1.4-1.4-1.5-2.4-.2-.9 0-1.8 .6-2.5l5.3-6c1.3-1.5 3.8-1.5 5.8-.1 18.2 13.3 35 28.3 52 42.2-.8-1.9 .5-5.6 3.5-9.5 68.6-87.8 136.8-176.3 211-260 1.2-1.3 2.4-2.5 3.7-3.7-12.3-9.2-24.2-18.9-35.1-30.3-1.2-1.3-1.9-2.9-2-4.6l0-.8c0-1.1 .7-2.2 1.8-2.6l6.7-2.5c1.7-.7 3.6-.3 4.8 1 27.4 28.4 62.5 48.6 96.2 71.3l20.2-27.3c-.4-.1-.8 0-1.1-.2-41.9-20.7-70.8-57.6-109.2-76.6-.8-.4-1.3-1.3-1.9-2.1l-8.2 10.4-73.1 90c-49.2 59.6-96.9 120.2-144.8 180.7-3.9 5-8.3 9.4-12.2 12.5l-1.9 1.5c-2.6 2.1-4.3 2.2-4.2 .3l1-11.8c.2-3 3.1-8.4 7.3-13.6 48.2-61.1 96.4-122.2 145.8-182.1L306.3 74.4 342 29.3c5.6-7.3 10.9-17.3 20.5-24.2 4.8-3.6 10.2-6.2 15.7-8 .1-.1 .2-.1 .3-.2 3.5-2.1 8.3-3.1 13.3-4.3zM353.5 159.4c-.8 2.2-2.2 4.7-4.3 7.1-74.1 83.8-142.3 172.6-211.4 260.9-1.4 1.8-3 3.2-4.4 4.1 18.6 14.5 37.7 27 59.7 33.6 1.6 .5 2.9 1.5 4 2.8 .9-1.1 1.8-2.3 2.9-3.4 67.3-78.8 128.1-163.7 190.2-247.2l0 0 16.4-22.2c-17.4-11.8-35.5-23.2-53.1-35.6zM400.9 7c-2.3 .9-6.2 1.5-10.6 2.2-8.3 1.3-16.3 4.8-22.1 10.5-6.1 5.5-10.2 14-16.8 21.7L331.8 66.2c.4 .1 .8 .1 1.1 .2 41.8 21.5 70.7 58.2 109.8 76.7 .6 .3 .8 .9 1.1 1.4L460 123c7.9-10.9 16-19.9 18.3-30.8l0 0c3-10.6 2.3-22.4-2.7-33-4.3-10.7-11.8-20.5-20.8-28.4-14.8-13.6-34.9-23.6-53.9-23.8z"/></svg>