<svg xmlns="http://www.w3.org/2000/svg" viewBox="0 0 616 560"><!--! Font Awesome Pro 7.2.0 by @fontawesome - https://fontawesome.com License - https://fontawesome.com/license (Commercial License) Copyright 2026 Fonticons, Inc. --><path fill="currentColor" d="M534.7-5.7c4.7-3.9 12.4-4.6 16.2-3 4.3 1.3 7.6 3.1 10.7 5.1 6.2 3.9 11.6 8.5 16.6 13.4 4.9 5 9.5 10.4 13.5 16.5 1.9 3.2 3.8 6.5 5.1 10.7 1.6 3.8 1 11.6-2.9 16.3L134.2 515.2c-3.3 3.3-6.5 6.4-9.8 9.6l-5 5-32.5 32.8-4.6 4.7c-1.2 1.5-3.2 1.8-4.8 2.6-1.6 1.2-3.5 .8-5.4 .9-8.5-.8-10.8-3.6-14.9-5.9-7.2-4.8-13.1-10.3-18.8-16.2-5.9-6.2-10.4-12.9-13.7-19.9-.7-1.1-1.4-2.2-2-3.5-2.1-3.3-5-12.8 .4-18.4L534.7-5.7zM553.9 9c-5.1-3.3-10.2-4.4-9.3-3.6L34.8 516.2s.1 .3 .4 1.2c1.1 2.3 2.6 4.8 4.3 7.3 3.6 5 7.9 9.9 12.4 14.5 6.6 6.7 13.7 12.6 18.2 15.5l2 1.2c.2 0 .4 0 .6-.1l0-.1 6.9-6.9 32.7-32.9 457.7-460.9c3.4-3.5 6.9-6.5 9.8-8.5l3-3c.8 .8-.2-4.3-3.6-9.3-3.1-4.8-7.1-9.5-11.4-13.9-4.4-4.2-9.1-8.2-13.9-11.3zM504.2 407.4c11.5 .2 25.2 2.7 35.6 11.9 1.6 1.4 2.6 3.3 2.8 5.3l-.1 0c8.5 9.8 12.9 21.9 14.1 34.2 1.5 14.4-2.3 30.1-11.3 42.1-8.9 12.1-22.7 20.4-37.2 23-14.6 2.9-29.5 .4-42.7-4.5-13.2-4.2-27.9-15.7-31.8-31.3-8.3-28.5 3.6-63.1 32.7-76.2 3-1.3 6-1.9 8.9-2.1 4.1-1 8.2-1.6 11.8-1.9 5.5-.4 11.3-.7 17.1-.5zm-17.3 15.3c-5.1 .4-9.3 1.2-13.6 3-17.1 7.4-27.4 27.4-26 46.3 0 .8-.3 1.5-.9 2.1 0 .1-.1 0-.2 .1 .3 3.9 1 7.7 2.2 11.3 3.4 10.5 12.7 16.8 24.4 20.6 11.4 4 23.7 5.4 34.8 2.6l0 0c22.9-4.9 38.1-28.3 33.9-51.4-1.5-11.2-7.2-22.6-15.3-28.2-8.3-5.8-20.8-6.4-33.3-5.8-2 .1-4.1-.1-5.5-.7l0 0-.5 0zM123.2 35.6c13.2-.3 29.2 .5 41.8 10.9 12 10.5 17.5 24.9 18.9 39.5 1.5 14.4-2.3 30.1-11.3 42.1-8.9 12.1-22.7 20.4-37.2 23-14.6 2.9-29.5 .4-42.7-4.5-13.2-4.2-27.9-15.7-31.8-31.3-8.3-28.5 3.6-63.1 32.7-76.3 4.7-2 9.8-2.7 13.7-2.1l1.9 .3c2.6 .5 3.4 1.7 2.3 2.9-2.2 2.5-4.2 4.8-5.7 7.5-1.2 2-4.2 3.9-7.7 5.6-20.8 10-30.1 38-22.5 59.6 3.4 10.5 12.7 16.8 24.4 20.6 11.4 4 23.7 5.4 34.8 2.6 22.9-4.9 38.1-28.3 33.9-51.4-1.5-11.2-7.2-22.6-15.4-28.2-8.3-5.8-20.7-6.4-33.3-5.8-2 .1-4.1-.1-5.5-.7-1.5-.6-2.2-1.4-2.1-2.2l1.1-8.1c.3-2 4.4-3.8 9.6-4z"/></svg>