<svg xmlns="http://www.w3.org/2000/svg" viewBox="0 0 616 560"><!--! Font Awesome Pro 7.2.0 by @fontawesome - https://fontawesome.com License - https://fontawesome.com/license (Commercial License) Copyright 2026 Fonticons, Inc. --><path fill="currentColor" d="M131.5 284.6c2.4-.1 4.7 .1 6.3 .7 .5 .2 .8 .4 1.1 .6 8.6-.1 17.3 .4 25.8 2.1l0 0c28.5 5.8 54.5 22.6 71.8 46 17.4 23.3 26 53.2 23.3 82.2-2.5 29.1-16.1 57-37.4 76.9-21.2 20.1-50 32.2-79.2 32.7-29.2 .9-58.7-9.3-81.1-28.3-22.6-18.7-37.7-46.1-41.7-75.2-.9-4.7-.6-9.3-.1-12.6 .1-.5 .2-.8 .3-1.2-.1-2.9-.6-5.8-.4-8.7 1-29.1 13.1-57.9 33.7-78.8 20.3-21.1 48.5-34.4 77.8-36.4zm352.6 .8c43.8 2.5 85.1 31 102.3 71.6l-.1 0c18 40.2 11.7 90-16.3 124.3-2.3 2.7-4.9 5-7 6.4-2.1 1.3-3.5 1.6-3.9 .8l-4-7.6c-1.2-2 2.3-7.1 6.3-13.2 23-30.9 26.8-74.7 9.4-108.9-16.7-34.5-53.3-58.4-91.7-58.9-38.2-1.4-76.3 19.8-94.6 53.3-19 33-18 76.4 3 108.2 2.6 3.7 4.8 7.4 6.8 10.9 13.2 15.7 30 27.5 49.7 33.4 27.3 8.6 57.9 5 82.5-8.9 2-1.2 4.2-1.9 6.4-1.9l1.1 0c1.5 0 2.5 .8 2.6 2l.2 7.6c0 1.9-1.6 4.2-4 5.7-28.5 15.8-63.5 19.4-94.7 9.2-31.4-9.1-57.7-34.6-72.1-62.3-.6-1.1-.9-2.3-.8-3.4 .1-.6 .5-.9 .9-1.3-15.1-34.8-12.7-77 7.6-109.5 22.3-37.6 66.5-61 110.4-57.5zM157.5 301.8c-25-4.3-51.4 1-72.8 14.5-21.5 13.4-37.7 34.8-44.9 59-1.3 4.7-2.5 9.2-3.6 13.5-.7 4.7-1.4 9.5-1.4 14.3-.4 25.4 8.6 50.8 25.1 70.1 16.3 19.4 40 32.3 65 35.7 2.8 .5 5.2 1.2 7.6 1.9 5.4 .4 10.8 .5 16.2 0 25.4-2.1 49.8-13.8 67.4-32.2l0 0c17.8-18.3 28.3-43.3 29.1-68.7 1.1-25.4-7.2-51.1-23.5-70.7-16-19.7-39.4-33.2-64.3-37.3zm326.8 20.4c2.1-1.3 7.1-2.1 12.4-.7 30.8 7.1 56.4 32.5 63.6 63.4 7.9 30.6-2.7 65.3-27 86-23.7 21.2-59.5 27.9-89.2 15.9-29.9-11.3-52.3-40.1-55.6-72.2-.2-2.6 .1-5.1 .6-6.9 .5-1.8 1.3-2.6 2.2-2.4l8.1 1.8c2.2 .4 3.4 4.6 4.4 9.5 3.9 26.2 23.4 49.3 48.5 57.5l.1 0c24.9 8.6 54.3 2.4 73.1-16 19.2-17.9 27.3-46.7 19.9-71.8-6.8-25.1-28.4-45.7-53.9-50.9-4.2-.8-8.2-2-11.5-3.2l-1.6-.6c-2.2-.9-3.1-2.2-1.9-3.2 2.4-2.1 5-4.1 7.8-6.2zm-369.5 .6c37.6-12.6 82 5.3 101 40.1 9.7 17.1 13.2 37.5 10.1 57-3.2 19.5-13.3 37.6-28 50.8-14.8 13.1-34 21-53.8 22-19.7 .9-39.8-5-55.8-16.8-32.9-23-45.5-69.9-28.5-106.5 1.1-3 3.2-5.5 4.7-7.1 1.6-1.6 2.8-2.1 3.4-1.4l5.8 6.2c1.4 1.5 .1 6.7-2.1 12.5-12.1 31 .4 69 28.5 86.5 27.3 18.6 67.1 14.6 90.2-8.8 24.1-22.6 28.8-61.9 11.1-89.5-16.7-28.1-53.8-41.5-84.4-30.2-5.1 1.6-9.9 3.5-14.1 4.5l-2 .6c-2.8 .8-4.3 .4-3.7-1.3 1.2-3.5 2.8-7 4.7-10.4 1.4-2.7 6.4-6.2 12.9-8.3l0 0zM295.3 102.4c2 .1 3.8 .9 5.1 2.3l.7 .6c.6 .6 .7 1.5 .6 2.3 0 0 0 .1-.1 .1-.1 .2-.1 .5-.2 .7-1.4 2-2.5 4.1-3.7 6.2-.9 1.6-2.5 2.5-4.2 2.4-4.9-.3-9.9 0-14.1 1.1-2.1 .6-4 1.3-5.4 2.2l-6.4 4.5c-8.5 6.2-16.7 12.9-24.6 20-15.8 14.2-30.7 29.7-46.1 45-.6 .6-1.5 1-2.4 .9-.1 0-.2-.2-.4-.2-2.9 3-5.8 6.1-8.2 9.1-5 7.3-7.8 15.4-6.7 23.5 2.3 16.7 17.4 31.3 31.6 44.2 14.9 12.9 31.1 24.6 47.1 37l12 9.4c3.6 2.6 9.4 7.6 11.9 13.6 5 12.3 3.4 22.8 3.5 32.9-.9 20.2-1.6 40-1.2 60l.2 7.5c0 2.6 .2 5.4 .2 5.6 0 .4 .9 1.3 5.8 1.5 8.7 .1 19-1.6 28.9-2.7l11.6-1.5c.7 .2 .9-.8 .5-1.2 .9 .7-4.3-4-7.8-6.6-2-1.6-4-3.1-6.2-5.1-.8-.7-2.6-2.3-3.9-4.4-1.1-2-2.1-4.2-2.2-6.5l2.6-60.2c.2-9.3 1-20.6-1.5-25.9-.9-2.4-4.4-5.5-8-9.1l-10.6-10.1c-14.3-13.4-29.3-25.8-44.5-38.8-7.4-7-15.8-12.6-21.6-24.8-6.5-14.2 4.9-29.1 12.8-34 16.7-12.6 33.6-23.2 54.6-29.7 5.3-1.4 11.1-2.7 18.2-1.4 3.3 .3 7.9 3.1 10.3 5.2l5.6 4.7 22.3 18.8c7.3 6.1 15.1 13.3 22.2 16.9 7.2 3.7 16.4 5.2 25.8 6.2 19.1 1.7 38.5 1.5 58.7 1.3l1.4 .1c4.6 .2 7.6-1 8.7-3.9 1.5-3.5 1.4-9-.7-12.7-2-3.5-5-5.4-10.2-5.7l-19.8 .1c-13.8 0-27.8-.6-41.9-2.9-6.9-1.5-17.4-3.7-22.7-10.7-4.9-5.5-8.7-11-13-16.5-4.7-6.1-9-12.3-11.7-16.8-2.7-4.5-3.6-7.1-2.5-7.1l10.2 .1c2.5 0 12.5 10.5 23.1 24.3 4.1 5.1 6.9 9.5 11.5 10.1 4.3 1.4 10.4 2.6 16.5 3.2 12 1.3 24.3 1.6 36.8 1.5 6.2 .2 12.1-.9 20.5 .8 8 1.8 15.7 8.6 18.1 16.4 2.6 7.7 2.7 16-1.5 24-4.7 8.7-15.1 11.8-22.9 10.7l-.1 0c-19.4 .1-39.6 .4-59.8-1.4-10.1-1.1-20.9-2.5-31.2-7.8-10.3-5.5-17-12.2-24.9-18.6l-23-19.4-5.8-4.8c-1.6-.9-1.4-1.1-3.1-1.4-2.7-.6-7.1-.1-11.3 1.2-17.1 5.1-34.4 15.7-49.2 27-7.9 5.7-10.5 11.6-8.4 16.7 2.5 6.1 10.6 13 17.6 19.2 14.8 12.6 30.4 25.5 44.9 39.2l10.9 10.4c3.3 3.5 7.8 6.6 11.1 13.4 5 13.3 2.6 22.6 2.8 32.8l-2.5 58.3c.4 .6-.8-.6 1.2 1.3l5.5 4.5-.1 0c3.9 3.6 8.2 5.1 14.1 14.4 2.3 4 2.3 8.2 .8 12.1-1.5 4.4-6.2 5-10.2 6.2-1.9 .5-4.3 1.4-6 1.5l-3.7 .4-7.5 .9c-10.2 1.1-19.9 3.1-31.9 2.7-3-.2-6.5-.6-10.7-2.7-4.4-2.3-7.3-7.3-7.8-11.5-.7-7.1-.4-10.8-.6-16.4-.3-20.5 .6-41.3 1.4-61.4 .3-9.8 .4-20.2-3-25.5-.9-1.4-2-2.7-3.4-3.9l-5.8-4.6-11.9-9.3c-16.1-12.4-32.7-24.3-48.3-38.4-7.9-6.9-15.2-14.8-22-23.5-6.3-9.1-11.8-20.2-11.9-32.9-.3-12.8 6.1-24.3 13.4-32.6 7.6-9.1 14.6-14.7 22-22.3 14.6-14.3 29.4-28.7 45.7-41.8 4.1-3.3 8.4-6 12.6-8.9 .6-.5 1.2-1 1.8-1.5 2.4-1.7 4.2-3 7.2-4.9 3.3-1.9 6.6-3.1 9.8-3.8 6.4-1.5 12.4-1.5 18.4-1.2zm62.2-68.3c22.4-1.2 43.9 16.6 46.7 39.1 .3 1.8 0 3.6-.6 4.8 0 1.2 .2 2.5 .2 3.7-.1 22.3-19.3 42.4-41.9 43.8-.9 .1-1.8-.2-2.4-.8-.1-.1-.1-.3-.1-.4-3.3 .1-6.6-.1-9.9-.8-21.7-4-38.1-25.8-35.8-48 1.4-22.2 21.3-41.3 43.8-41.5zm-1.4 15c-14.9 1-27.7 14.5-27.8 29.3-.9 14.9 10.9 28.9 25.3 30.9 14.5 2.7 29.6-7.1 33.4-21.1 .2-.6 .6-1.2 .8-1.8 .4-2 1.2-4 1.1-6 .4-14.9-11.7-28.5-26.1-30-.5-.1-.9-.6-1.3-.8-1.8-.2-3.6-.7-5.5-.5z"/></svg>