<svg xmlns="http://www.w3.org/2000/svg" viewBox="0 0 560 560"><!--! Font Awesome Pro 7.2.0 by @fontawesome - https://fontawesome.com License - https://fontawesome.com/license (Commercial License) Copyright 2026 Fonticons, Inc. --><path fill="currentColor" d="M130.8 6c.2 0 .3 .1 .4 .1 .4 0 .9 0 1.3 0 8.9-.6 18.8 7.4 22.3 12.4 38.7 41.8 66.9 93.1 81.6 148.3 .6 2.3 .8 4.5 .5 6.2-.1 .4-.2 .7-.3 1 .8 2.4 1.6 5.2-1 6.9-2.8 3.8-3.3 4.7-4.9 6.7-11.1 14.3-24.3 26.2-37.3 37.7-6.4 5.7-13.2 11.4-18.5 17.1-3.1 3.8-3.2 3.1-2.5 4.9 .9 2.8 3 6.5 5.2 9.8 19.1 27.2 44 51.9 68 76.4l36.9 36.2c6 5.6 12.9 12.8 18.3 16.9 5 3.8 10.4 3.8 17.1 .2 13.1-7.2 24.3-21 36.4-33.4 11.4-12.7 28.2-26.5 48.9-26.7 10.2-.9 21.4 5.1 27.8 9.2 11.2 6.4 33.8 19.3 67.6 38.7 15 9.1 29.9 16.6 44.8 29l.1-.1c3.5 2.9 8.4 9.4 8.1 16.2 0 5.9-1.1 9.5-1.8 14.2-1.4 8.8-2.8 17.7-5.9 26.3-4.5 17.5-13.6 33.8-24.8 48.3-11.5 14.5-27.1 25.4-43.7 33-68.9 28.9-146.2 5.3-203.8-31.7-60.2-35.7-114.6-81.1-160.5-134.1-23-26.6-43.8-54.4-61.4-85.5-16.7-31.4-28.3-64.9-35.6-99.5-3.5-17.4-5.9-35.1-5.7-53.2-.2-18.2 4.9-37.1 12.6-53.3 15.9-32.2 41.1-62.3 77.6-74.4 11.6-4.2 23.9-4.3 32.1-3.4zM129 20.9c-6.2-.3-12.5 .3-18.6 1.8-12.3 2.8-23.8 8.8-34.1 16.6-20.5 15.8-36.3 38.5-45.2 62.9-1.1 3-2.5 5.6-3.8 8.1-7.9 29.7-2.2 62.8 5.3 93.7 8.5 32.6 21 64.6 38.5 93 18.4 28.4 39.2 55.6 62 80.8 45.9 50.2 99.8 93.2 159.1 126.4 14.8 8.2 30.1 16.1 45.4 22.1 15.5 5.6 31.9 9.5 48.4 11.6 32.7 3.8 67.5 .9 95.1-16 28.1-16.1 45.6-46.3 52.3-78.4l0 0c1.2-7.8 3.4-17.2 3.7-23.6 .9-2.7-6.1-8.3-12.9-12.8-13.9-9.2-28.9-17.7-43.8-26.3l-44.8-25.6c-7.1-4-15.7-9.2-21.6-12.1-5.9-2.4-13.1-2.3-20.1-.1-14.2 3.9-24.8 16.5-36.8 29.1-5.9 6.3-12 12.7-19.1 18.7-7.1 5.7-15.2 12.1-27.1 13.4-12.7 1.6-23-8.9-27.9-13.8l-18.7-17.9-36.8-36.4c-12.1-12.3-24.1-24.8-35.7-37.8-11.4-13.4-23.1-25.5-32.1-43.4-1.1-2.1-2.2-5.6-2.1-10.1 .4-4.1 3.2-8.5 4.6-9.9 3.3-4 6.6-7.1 9.9-10.1l19.3-17.2c6.3-5.7 12.4-11.5 18-17.5 2.9-3 5.6-6.1 8.1-9.3 1.2-1.6 2.6-3.2 3.7-4.8 1.2-1.7 .4-.5 .6-.9l-2.6-10c-1.2-4-2.3-8.1-3.7-12-2.6-8-5.4-15.9-8.6-23.7-6.4-15.5-13.8-30.6-22.4-45.1-6.7-11.3-13.8-21.9-20.6-31.6-6.9-9-14-17.9-21.7-26.1-4.4-4.6-6.4-5.8-13.1-5.6z"/></svg>