<svg xmlns="http://www.w3.org/2000/svg" viewBox="0 0 560 560"><!--! Font Awesome Pro 7.2.0 by @fontawesome - https://fontawesome.com License - https://fontawesome.com/license (Commercial License) Copyright 2026 Fonticons, Inc. --><path fill="currentColor" d="M133.1 .9c5.3-.2 8.3 .7 15.3 1.4 2.3-.3 3.6 1.6 5 3.1l2.8 3 4.6 4.8c8.6 9.4 16.5 19.4 24.1 29.6 1.8 2.5 3.6 4.9 5.4 7.4 1.1 1.6 2.4 3.1 3.4 4.7 5.3 7.9 10.3 16.2 15 24.5 2.1 3.6 3.9 7.4 5.8 11.1 3.7 7.1 7.1 14.4 10.3 21.8 2 4.7 4.1 9.3 6 14.1 3 8 5.9 16.2 8.3 24.4 .3 1 .5 2.1 .8 3.1 .8 2.7 1.9 5.2 2.7 8 .2 .9 .1 1.6 .2 2.5l2.2 9.2-6 8.4c-5.6 7.3-11.7 14-18 20.3-12.5 12.6-26.7 23.8-38.2 35.1-1.3 1.3-2.6 3-3.2 3.7 .7 2.1 2.6 5.8 4.9 9.1 4.4 6.7 9.8 13.5 15.2 20 10.9 13.1 22.7 25.8 34.6 38.3 1.4 1.5 2.7 3 4 4.4L442 108.1c5.8-5.8 11.9-11 17.1-14.7l2.5-1.8c3.5-2.4 5.4-2.6 4.7-.4L462 105.1c-1.1 3.5-5.8 9.8-11.9 15.9L26 547.3c-2.9 2.9-5.9 5.4-8.3 6.9-2.4 1.5-4 1.9-4.4 1.1l-3.4-7.9c-.9-2 3.6-8.6 10.3-15.3l128.3-129c-29.9-30.1-57.3-62.7-81-98.2-.5-.7-.7-1.6-.5-2.5 .1-.5 .6-.8 .9-1.1-3.3-5.3-7.1-10.2-10.2-15.6-16.8-31.3-28.7-64.9-36.1-99.5-3.6-17.3-6-35.1-5.9-53.2-.3-18.2 4.7-36.9 12.3-53.2 15.7-32.2 41-62.3 77.2-74.4 3.1-1.1 6.5-1.7 9.8-2.4 .4-.1 .7-.2 1.1-.3l.1 0c3.1-.6 6.2-.9 9.4-1.1l7.5-.5zM378 333.1c11.4-8.1 25.6-13.2 40.8-10.5 4.4 .8 9.5 3.1 12.8 5.1l10.1 5.8 20.2 11.5c26.9 15.7 54 29.8 80.7 47.9 3.3 2.4 6.7 5.1 10 8.7l.1-.1c3.6 3.5 6 11.4 5.1 15.9-1 8.4-2.6 16-3.9 24-1.5 7.9-4.5 15.5-6.6 23.3-3.1 7.5-6.4 15-10.4 22.2-16.4 28.7-45.5 49.9-77.4 57.3-31.7 8.1-64.8 6.2-95.9-1.2-31.7-6.9-59.9-23.1-86.9-38.5-27.1-16-52.9-34.1-77.3-53.8-4-3.2-7.5-6.7-9.7-9.4-2.3-2.7-3-4.5-2.2-4.8l8.2-3.6c2.1-.9 10.3 4.3 19.5 11.3 23.9 18.9 49.3 36.1 75.7 51.4 26.6 15.2 53.6 28.9 83 34.7 29.3 5.8 60 6.6 88-2.1 27.9-8.4 52.1-27.6 64.8-53.8 6.5-13 11.3-27.1 13.6-41.7l1.9-11c.8-3.7 1-7.5 .5-8.2-.5-2.5-7.6-8-13.4-11.8-25.3-16.2-52.8-31.1-79.4-46.5L430 343.7c-7.4-4.3-11.7-7.1-17.9-7.2-12.5-.6-25 6.1-34.9 16.4-10.7 10.3-20.4 22.5-33.1 33.2-5.1 4.1-11.1 8.1-18.3 10.7-.1 .1-.3 .1-.4 .2-1.7 .6-3.1 1.6-5 2-10.5 2.8-22.4-4-27.7-9.8-2.1-2-4-4.1-6-6.1l-16.2-15.1c-1.3-1.2-2.2-2.9-2.4-4.7l-.1-.9c-.1-.5 .5-.8 .7-1.2 0-.2 .2-.2 .2-.3 .3-.4 .2-1 .7-1.3l6.6-2.7c1.7-.7 3.7-.3 5.1 1l24.2 22.5c3.3 2.7 6.6 4 10.1 3.9 3.6-.3 7.7-2.3 11.8-4.8 16.6-11.6 28.7-30.4 47.4-45.9 .8-.6 1.8-.9 2.7-.8 .3 0 .4 .3 .6 .4zM135.2 15.9c-6.2-.3-12.5 .3-18.6 1.8-12.3 2.8-23.9 8.8-34.1 16.6-20.5 15.8-36.3 38.5-45.2 62.9-.6 1.6-1.3 2.8-2 4.3-8.6 27.4-4.3 57.9 1.9 87.2l-.1 .1c7.6 32.9 19.4 65.2 35.8 94.4 17.2 28.8 38.1 56.4 60.5 81.9 3.5 4 7 8 10.2 11.8 5 5.3 10 10.6 15.1 15.8l69.8-70.1c-3.4-2.7-7.3-6.4-11.3-10.7-11.9-12.7-23.6-25.5-34.6-39.3-5.4-7.1-10.9-13.8-15.3-22.8-1-2.3-2.4-4.7-2.4-9.3 .1-3.6 2.6-8.3 4.1-9.7 3.3-4 6.6-7 9.8-10 13.1-11.8 26.1-22.7 37.5-34.9 2.9-3 5.6-6.2 8.2-9.4 1.3-1.6 2.6-3.2 3.7-4.9 1-1.6 .8-.8 .8-1.4l-2.8-10.5-1.6-5.3c-2-6.4-4.2-12.7-6.6-19.1-2.5-6.7-5.1-13.4-8-20-3.4-7.6-6.9-15-10.9-22.3-1.8-3.3-3.5-6.6-5.4-9.8-5.7-9.8-11.8-19.4-18.4-28.5-1.2-1.7-2.6-3.4-3.9-5.1-6.9-9.1-14.1-18-21.9-26.4-.7-.7-1.3-1.5-2-2.2-2.8-2.9-4.8-4.4-8-4.8l-.4-.1c-1.2-.1-2.5-.2-4-.1z"/></svg>