<svg xmlns="http://www.w3.org/2000/svg" viewBox="0 0 560 560"><!--! Font Awesome Pro 7.2.0 by @fontawesome - https://fontawesome.com License - https://fontawesome.com/license (Commercial License) Copyright 2026 Fonticons, Inc. --><path fill="currentColor" d="M521.7-4.4c5.5 0 11 .1 16.8 1.3 5.4 .9 12.5 3.1 17.7 9.2l-.1 0c8.6 12.8 7.2 23.6 7.5 34.6-.3 10.9-2.1 21.4-4.5 31.8-4.9 20.7-13 40.9-25.9 58.6-6.4 9.2-14.8 16.4-22 23.2-11.2 10.5-33.7 31.4-67.4 62.9l-9.5 8.8c.5 1.1 .6 2.2 0 3.4-9.5 22-27.3 40.6-44.5 54.7l-51.3 45.7c-.6 .5-1.3 .5-2 .8 .8 1.3 1.7 2.3 2.5 3.8 20.3 37.9 38.8 76.5 58.1 114.5l14.7 28.4 7.5 14 3.8 6.8c.9 1.4 1.8 2.2 2.5 2.7 8.4 3.2 30.8-22.8 33.4-33l-25-208.4c-.4-3.1-.4-6.2 0-8.4s1.1-3.4 2-3.3l8.3 1.3c2 .4 4.3 6.2 5.1 13.5L474 467c-1.1 10.6-4.9 13.5-7.9 19-3.2 4.9-6.9 9.3-10.9 13.6-3.9 4.3-8.5 8.2-14 11.6-5.1 3.1-13.6 7-22.6 2.3-4.3-2.3-6.5-5.7-8.6-8.8l-3.9-7.2-7.7-14.4-14.9-28.9c-19.6-38.6-38.2-77.6-58.5-115.4-1.4-2.5-2.6-5.1-3.7-7.5l-57.1 53.2c-7.5 7-14.9 13.3-21.8 18.8l-5.8 5.4c-1.7 1.5-2.5 2.9-3 4.7-.4 1.2 0 4.2 .1 7.6l.8 9.5c2.4 25.6 6.7 50.5 10.6 77-.1 8.9-3.4 11.5-5.4 15.7-2.3 3.8-4.8 7.3-7.5 10.6-5.3 6.7-11 13-17.6 18.8-3.4 2.9-6.9 5.6-11.1 8-4.2 2.3-9.5 4.9-17.6 3.2-1.8-.8-3.5-1.7-5.1-2.8l-3.4-4.5c-2.2-3-2-4-3.1-6.2l-4.8-11.2-38.2-89.7c-.8-1.8-.9-3.4-1.4-5.2l-26 25.6c-1.4 1.4-3.2 2.3-5 2.5l-.9 .1c-1.2 .1-2.3-.5-2.7-1.7l-2.4-6.9c-.6-1.8 0-3.8 1.4-5.3L123 430.5c-2.1 .6-5.4 .4-8.7-1-48.3-20-80.6-33.4-96.7-40.1l-8-3.3c-1.8-.6-7.1-3.1-10.2-7.6-5-11.2 .6-18.6 3.6-23.8 7.3-11 16.3-19 25.9-26.7 5-3.7 9.7-7.3 16.4-10.3 1.6-.9 4.1-1.4 7.1-1.5 3.4-.2 3.6 .3 5.4 .4l8.7 1.2c23 3.3 45.8 7.1 68.4 8.4 1.8 .1 3.6 .5 4.8 1.2s1.8 1.6 1.6 2.4l-1.8 8c-.5 2-4.3 3.3-8.7 3-23.5-1.6-46.5-5.5-69.2-8.7l-8.5-1.2c-1.2-.1-.4-.1-1.2 .1-.8 .4-1.7 .6-2.8 1.3-4.3 2.3-8.9 5.5-13.1 8.9-8.5 6.8-16.6 14.9-21.8 23.2-1.1 2-2 4-2.3 5.4-.4 1.1 .2 .8 .2 1.2-.5-.1 3.1 1.4 5.6 2.4 1.3 .6 14.6 6.1 39.9 16.5l63.8 26.5c3.5 1.4 6.7 3.4 8.9 5.6l.5 .5 64.6-63.9c.7-.7 1.6-1.1 2.5-1.1 .9 0 1.7 .4 2.3 1l5.1 6.2c1.3 1.6 1 3.9-.6 5.5l-66.6 65.7 .2 .1c2.3 1.1 5.1 4.8 7.1 9.5L183.3 534c2.9 6.3 7.3 18 7.4 15.9 1.6 .4 9.7-3.8 14.7-8.7 5.5-4.9 10.7-10.7 15.4-16.7 2.3-3 4.5-6.1 6.4-9.2 1.8-2.7 3.7-7.1 3.2-6.5-3.7-25.4-8.4-52.2-10.7-79l-.8-10.1c-.3-2.6-.6-8.9 1.6-13.3 1.7-4.6 6.2-8.8 8.2-10.4l7.3-6.8 29.3-27c1.7-1.6 3.6-2.8 5.2-3.5 132.9-124 204-190.4 213.6-199.3 14.6-14.6 31.8-26.9 41.5-43.1 10.5-16.3 17.3-35.4 21-54.7 1.9-9.7 2.9-19.6 2.5-29-.2-4.7-.9-9.3-2.1-13.2-1.4-4.2-2.3-4.9-5.8-6.5-15.6-5.2-37.5-1.6-56 3.1-19 5.3-37.4 13.5-52.2 25.6-27.9 27.7-56.3 59.4-84.4 88.8L251.6 233.5c.3 .7 0 1.2-1 1.4l-.4 .1-70.8 75.4c-4.6 4.9-9.2 9.3-12.8 12.2-3.6 2.9-5.8 4-6 3l-2.4-9.2c-.6-2.3 7.1-12.7 17.8-24.1l53.6-57c-2.3-.6-4.6-1.3-7.1-2.4-37.8-16.6-75-34.2-111.8-53-18.6-9.6-36.2-18.6-55.1-29.6-6.5-3-10.9-14-8.3-20.9 1.8-7 5.4-11.7 9-16.3 7.5-8.7 15.9-15.6 26.2-21 2.7-1.3 5.5-2.6 9.5-3.3 6.4-.4 6.9 .6 10 .9L117 92.4 147.3 97c20.3 2.9 40.6 5.3 61 7.6l122.6 12.7c3 .3 5.7 1 7.9 1.7l5.4-5.7 42.1-44.8c14.6-14.5 26.4-30.6 44.7-44.1 18-12.2 38.1-20.1 58.8-24.9 10.4-2.3 21-3.8 31.9-4zM95.1 103.7c-.7-.8-5.5 1.2-9.2 3.5-7.7 4.8-15.4 11.2-20.4 18.2-2.5 3.4-4.4 7.4-4.1 9.4 .1 1.8 .6 2.2 5.1 4.9 17.8 9.8 35.8 19.3 53.9 28.6 35.4 18 71.3 35 107.7 51-.4-1.7 0-3.5 1.4-4.6 29.1-25.5 53.8-56.1 81.8-84.5L201.8 118.8c-20.4-2.3-40.7-4.8-61.1-7.7l-30.5-4.7-15.2-2.6zM466.9 37.9c24.8 3.1 47.2 20.3 55.9 44.5 .2 .5 0 1.1-.5 1.6s-1.2 .9-2.1 1.1l-7.8 2c-1.9 .5-3.7 .2-4-.6-6.8-18.4-25.1-32.1-43.9-34.1-.8-.1-1.4-.8-2-2l-.2-.6c-.4-.8-.4-2-.1-3.1l2-6.4c.6-1.6 1.6-2.6 2.7-2.5z"/></svg>