<svg xmlns="http://www.w3.org/2000/svg" viewBox="0 0 448 560"><!--! Font Awesome Pro 7.2.0 by @fontawesome - https://fontawesome.com License - https://fontawesome.com/license (Commercial License) Copyright 2026 Fonticons, Inc. --><path fill="currentColor" d="M53.2-2.2c4.8-4.6 12.5-3.5 16.8-2.6 8.3 1.2 20.6 5.3 32.4 12 11.8 6.6 23.3 13.6 34.8 20.6 5.2 3.1 10.7 6 15.9 9.2 29 18.1 57.2 37.4 85 57.3 1.8 1.3 3 3 4.1 4.7 15.2 11.2 30.3 22.6 45.4 34 29.5 22.7 58.6 46.1 86.8 70.6 14.1 12.3 28 24.8 41.3 38.1 6.7 6.7 13.2 13.5 19.4 21 3.1 3.8 6.1 7.6 8.8 12.3l0-.1c2.3 3 7.3 14.9 0 20.8-59.6 51.1-117.4 98.5-178 145.7-30.2 23.4-60.7 46.4-92.1 68.3-15.7 10.9-31.6 21.6-48.1 31.6-16.7 9.8-33 19.9-53.5 25.7-5.4 .9-11.1 2.9-19.6-1-4.2-2-6.8-6.7-7.7-10.6-.8-4.3-.6-5.7-.8-8.3l-1.7-28.6-2.5-57.2c-1.3-38.2-1.8-76.4-1.9-114.5 0-67.2 1.8-134.4 4.2-201.4l0-.4c.3-9 .5-18 .9-27 .2-5.5 .5-10.9 .8-16.2l1.9-47.5c0-1.2 .7-2.4 1.9-3.3l.6-.4c.5-.4 1.3-.3 2-.3 .1-.1 .3-.2 .4 0 .3 0 .5-.2 .7-.1l6.5 2.3c1.7 .6 2.7 1.8 2.6 3.1L57 147c0 .1-.2 .2-.2 .3-2.5 68.5-4.3 136.9-4.1 205.4 .1 37.7 .7 75.4 2.1 113.1l2.5 56.5 1.8 28.2c.7 4-.2 2.4 2.1 3.3 2.6 .4 6.9-.5 10.9-1.7 33.3-12.2 64.9-34.9 95.6-55.8 30.8-21.6 60.9-44.3 90.6-67.4 59.1-46 118.7-95 174.2-142.6 1.9 2.3-3.6-8.3-9.5-14.7-5.8-7.1-12.4-13.9-19.1-20.5-13.5-13.3-27.7-26-42.1-38.5-28.9-24.9-58.8-48.8-89.3-72.1-30.4-23.2-61.4-45.8-92.9-67.5-14.8-10-29.8-20-44.9-29.5-11.5-6.9-23-13.7-34.8-19.8-7.4-3.8-15-7.5-22.5-10.4-3.7-1.4-7.5-2.7-10.9-3.4-.6-.1-1.5-.3-1.9-.3l0 0s-.4-.2-1-.1-1.5 .2-2.3 .2c-2.7-.2-5.4-.7-8-1.5-1.8-.2-4.2-6 0-10.1z"/></svg>