<svg xmlns="http://www.w3.org/2000/svg" viewBox="0 0 616 560"><!--! Font Awesome Pro 7.2.0 by @fontawesome - https://fontawesome.com License - https://fontawesome.com/license (Commercial License) Copyright 2026 Fonticons, Inc. --><path fill="currentColor" d="M38.5 106.8c2.4 0 3.5 .5 5.2 .8 1.7 .4 3 .9 4.5 1.4 4.4 1.2 9.3 3 14.4 5.7 2.2 1.2 4.3 2.6 6.5 3.9 8.3 4.4 16.2 9 24.1 13.8 17.5 10.8 34.4 22.2 51.1 34.1 1.1 .8 1.6 2 2.1 3.2 9.3 6.9 18.6 13.8 27.8 20.8 17.7 13.7 35.2 27.7 52.2 42.5 8.5 7.4 16.9 14.9 24.9 23.1 4 4 8 8.3 11.8 12.9 2.1 3 3.3 3.8 6 9.3 1.2 2.4 .8 4.8 1 7.2-1.2 2.1-1.4 4.6-3 6.5l-28.8 24.5-27.7 22.9c-18.5 15.2-37.3 30.1-56.3 44.8-19 14.6-38.3 29-58.3 42.6-10.1 6.7-20.3 13.3-31.2 19.2-5.5 3-11.1 5.7-17.7 7.9-1.8 .5-3.3 1.1-5.4 1.4-2.7 .3-6.1 .9-8.4-.5-2.7-.5-5-2-6.8-4.2-.9-2.5-2.5-4.8-2.9-7.6-5.9-88.5-4.3-173.2-1-259.6 .2-4.6 .5-9 .9-13.4l.7-24.7c0-.7 .7-1.4 1.8-2l.5-.3c.5-.2 1.3-.1 2-.1 .1 0 .3-.1 .4 0 .3 0 .5-.1 .7-.1l6.5 1.4c1.7 .4 2.7 1.1 2.7 1.9l-1.4 54.6c0 .3-.4 .5-.8 .7-2.9 79.6-3.7 160.7 1.4 238.2 0 .4 .3 .8 .7 .9 .4 0 .1 0 .5-.1 .9-.1 2.3-.6 3.4-.9 4.8-1.6 10-4 15.1-6.8 10.1-5.5 20.1-11.9 29.9-18.5 19.6-13.3 38.7-27.5 57.5-42.1 18.8-14.5 37.5-29.4 55.9-44.5l27.6-22.8 25.8-21.9c.2-.1 .1-.4 .1-.4 .3 .2-2.3-3.3-3.5-4.9-3.4-4.1-7.1-8.1-11.2-12.1-8-7.9-16.4-15.5-25.1-23-17.3-14.9-35.2-29.2-53.4-43.2-34.2-25.5-69.4-51.7-106.2-71.3-3.4-1.7-6.7-3.3-10-4.6-2.1-.7-4.3-1.5-5.9-1.8-1.1-.5-1.1 .2-1.3-.5-.5-1.8-.5-2.5-.5-3l-6.9-.6c-1-.1-1.9-.6-2.5-1.3-.6-1.2 0-5.3 2.1-7 3.6-2.9 6.5-2.6 8.3-2.6zm330.8-2.5c5.3-.1 10.6 .1 15.4 .5 6.4 .1 12.9 .5 19.6 1.3 1 .2 1.9 .9 2.4 2.2l.2 .6c.2 .5 0 1.1-.1 1.8 .1 .2 .1 .5-.1 .6 0 .2 0 .4-.1 .7l-2.7 6.2c-.6 1.6-1.6 2.5-2.5 2.4-10.6-1.3-21.7-1.3-32.6-.8-5.4 .3-10.9 .9-16.1 1.7-2.6 .4-5.1 1-7.4 1.6-1 .3-2.2 .7-2.8 1l-.7 .4 .4 311.9c6 5.3 61.9 5.1 67-.1l-.4-297.8c0-5 .4-9.8 1-13.2s1.5-5.1 2.3-4.7l8 3.9-.1 0c2 1 3.5 10.6 3.5 22.2l.3 292.2-.4 2.5-.1 .6c-1-.2-.4 .3-.7 .4l-.5 1.1c-.4 1.7-1.6 2.8-2.9 3.9-2.1 2.7-6.3 3.3-8 4.1-4.1 1.1-8.2 1.8-12.1 2.3-7.8 .9-15.5 1.3-23.2 1.3-7.7 0-15.4-.3-23.2-1.2-3.9-.5-8-1.1-12.1-2.1-1.7-.8-5.5-1.2-7.9-3.8-1.2-1.1-2.8-2-3.3-3.7-.5-.7-.3-1.7-1.4-2.1l-.6-2.4-.3-319.5c.5-2.9 1.8-5.8 3.9-7.8 2.1-1.8 5.4-3.7 7.7-4.3 3.9-1.3 7.2-1.8 10.7-2.4 6.8-1 13.4-1.5 20-1.7zm168.3 .3c12-.5 23.7-.4 36 1.2 2.9 .3 5.8 1.1 8.5 2.1 1.5 .3 2.9 .7 5.1 1.6 3.1 1.1 5.8 3.5 7.4 6.2l.1 .1c2.7 2.2 2 6.7 2.1 9l0 5.4 0 10.8c0 10.8 0 32.4-.1 64.9l-.2 172.9c0 4.1-.2 8.1-.4 11.9l.3 27c0 2.1-.6 4.1-1.7 5.7l-.6 .8c-.7 1.1-2 1.5-3.1 1l-6.6-3.1c-1.7-.8-2.8-2.7-2.8-4.9L580 265.8c0-1 .3-2 1-2.7 .2-.3 .6-.2 .9-.4 .1-35.8 0-82.3-.1-139.5-.3-.2-.2-.2-.9-.4-1.1-.5-2.8-.8-4.3-1.1-3.1-.6-6.4-1.1-9.8-1.4-6.7-.7-13.7-.8-20.6-.8-6.9 0-13.8 .5-20.5 1.3-3.3 .4-6.5 1-9.4 1.8-2.4 .8-1.5 .5-1.8 1l.3 225.3 .3 81.2c0 .4-.2 .7-.2 1.2l0 4.7s0 .1 .2 .1c1.6 .7 4.6 1.2 7 1.6 5.3 .8 10.8 1.3 16.5 1.5 11.2 .5 22.7 .2 33.4-1.4 2.1-.3 4.9-.7 10.3-1.6-.6-.9 3 2.7 2.9 2.8 .4 .2 .6 .2 .8 .2-.1 0-.3 0-.4 0 .6 .2 1.2 .6 1.6 1.2 .7 1.3 .9 2.7 1 4.3-.2 3.3-10.6 8-22.4 8.8-10.7 .9-21.3 1-32 .4-5.4-.3-10.7-.9-16.3-1.9-3-.6-5.1-1-9.3-2.5-2.2-.8-3.6-2.7-5.4-4-.8-2-2.5-3.7-2.8-5.9l-.1-92.6-.7-226.7c1.6-4.9 4.5-9.8 10.1-11.5 4.1-1.6 6.8-1.9 10-2.6 6.2-1 12.2-1.6 18.2-1.9z"/></svg>