<svg xmlns="http://www.w3.org/2000/svg" viewBox="0 0 616 560"><!--! Font Awesome Pro 7.2.0 by @fontawesome - https://fontawesome.com License - https://fontawesome.com/license (Commercial License) Copyright 2026 Fonticons, Inc. --><path fill="currentColor" d="M338.7-8.9c3.5 .2 4.6-.1 11.4 .8 5.8 .4 9.3 4.2 10.2 9 1.2 296 .7 182.6 .9 226.8l.1 .1c2.6 .2 5.5 .4 9 .4 27 .4 54.7-.1 82.1-.2 24-.2 47.3 .1 67.6 .7l38.4 0 37.7-.3c.7 4.2 .7 9.7 1.1 13.8l.4 8.3 .8 15.7 0-.1 1 31.5 0 16-.2 4.1c-.1 1.3-.3 4.5-.7 6.6-.5 4.8-4.2 7.3-8.2 8.1l-60.5 1-57.9 .4-57.9-.4-29-.6-14.4-.2-6.8 .1-2.8 .1-.6 .1c-.4 .1-.5 .5-.5 .8l0 6.4c-.1 12-.2 67.2-.3 100.8-.3 98.4-.3 88.8-.3 100.8l0 7.4c.3 4.7-.3 9.1-4.2 11.4-2.8 1.6-7.1 2.9-9 3.4-2.1 .4-4.2 .8-6.2 1.1-4.1 .6-8 .9-12 1.2-7.9 .5-15.8 .7-23.6 .7-7.9-.1-15.7-.4-23.7-1.1-4-.3-8-.9-12.3-1.7-4.2-.6-14.6-3.9-13.8-11.3l.4-219.5-3.1-.2-6.8-.2-14.1-.2-28.3-.1c-37.9 .1-75.7 .2-113.6 .2l-50.1 0c-4.7 .4-9-.5-11.3-4.3-1.7-2.7-3.3-7.6-3.5-9.2-.4-2.1-.8-4.3-1-6.3-.6-4.1-.9-8-1.2-12-.6-7.9-.7-15.8-.6-23.7s.4-15.7 1.1-23.7c.4-4 .9-8 1.7-12.3 .6-4.1 4-14.9 11.5-14.1 104.8 .3 174.2 .6 208.2 .7l11.3 0c.1-.6 0 .8 .1-1.5l.2-7.9 0-34.4-.5-138.2-.4-34.5-.2-15.1 0-2.1 2.1-.1 4.2-.3 8.1-.5 17.9-.9 34.8-1.3 17.6-.1zM321.3 5.9L286.9 7.1 270.3 8c-1.8 .5-1.5-1-1.4 3.2l.4 34.6 .5 138.3 0 34.7-.3 9.3c-.3 3.3-.7 10.3-3.6 13.2-1.6 1.9-3.5 2.2-5.5 2.4-1.1 0-2.9-.4-3.8-.4l-2.2 0-8.7-.1c-35.1-.2-103.9-.5-206.6-1.1-.2 0-.5 0-.5 .3-.1 .4 0-.3-.5 2-.6 3.3-1.1 7-1.4 10.7-.7 7.4-1 14.9-1 22.5 0 7.5 .1 15.1 .6 22.6 .3 3.7 .6 7.4 1.1 11 .2 1.8 .6 3.4 .9 5.1 .5 2.2 .2 1 .4 1.6 0 .2 .1 .2 .3 .2 72.3 0 137.3-.2 163.3-.2l28.5 .1 14.4 .2 7.4 .3c3.6 .6 6.3 0 10.6 1.7 4.3 .6 7 4.4 7.3 7.8-.3 5.2-.2 6.3-.2 8.9L270 351c-.1 24.2-.6 132.9-.9 197.8 0 .1 0 .3 .2 .4l1.8 .4c3.3 .6 6.9 1.1 10.6 1.4 7.4 .7 14.9 1 22.4 1 7.5 0 15.1-.1 22.6-.6 3.7-.2 7.4-.6 11-1.1 1.8-.2 3.5-.5 5.1-.8 1.7-.3 1-.2 1.4-.3 .4-81.2 .6-136.9 .6-167.1l.2-43.6c.1-2.8-.2-4 .2-8.1 0-4.6 2.7-8.5 6.7-10.4l6.5-1.6 4.5-.3 7.7-.1 14.6 .2 28.9 .5 57.7 .4 57.7-.4 54.6-.9c.1 4.4 .7-13.1 .3-23l-1.3-34.2-.8-16.7c0-.8 0-.3-.1-.5l-1.8 0-34.5 .2-137.9 .1c-15.2 0-29.8-.3-40.2-1-1.6-.1-2.9-.2-4.3-.3-1.4-.1-2.6 0-4-.1-4.5-.6-11.9-1.9-12.9-7.5-.6-6.5-.2-7.9-.4-11.8 0-9.9-.1-29.8-.2-59.7L345.4 6.9c3.4-1.4-14.1-1.1-24.1-1zM584.1 317.8l-.1 0 0-.1 .1 .1z"/></svg>