<svg xmlns="http://www.w3.org/2000/svg" viewBox="0 0 616 560"><!--! Font Awesome Pro 7.2.0 by @fontawesome - https://fontawesome.com License - https://fontawesome.com/license (Commercial License) Copyright 2026 Fonticons, Inc. --><path fill="currentColor" d="M25.9 184.3l6.6 5.5c1.7 1.4 2.8 4.6 2.8 8.1l.7 241.9 70.8-1.4-.2-70.5c0-5.4 .4-10.4 .9-15.1L76.3 353c-3.1 0-6-.3-8.1-1s-3.1-1.5-2.9-2.3l2.4-8c.6-2 6.5-3.6 13.6-3.6l447.9-1.4c6.1 0 12.1 .6 16.8 1.7l2.3 .5c3.1 .7 4.2 2 2.7 3.1l-9.6 6.6c-2.5 1.7-8.3 2.8-14.7 2.8l-20.4 .1c.5 .5 .9 .9 .7 1.4l-1.9 8c-.5 2-5.3 3.6-11 3.6L129 365.9c-2.8 0-5.4-.2-8-.5 .1 1.8 .2 3.6 .2 5.5 .3 111.2 .4 169.8 .4 175.6l0 2.1c0 .2 0 .4 .2 .5 .5 .2-.1 0 3.4 .6 5.4 .8 11.2 1.3 16.9 1.7 23 1.5 46.4 2 69.7 2.3 93.4 1.1 186.9-.3 280.3-2 .4 0 .7 0 1 0L492 390.3c0-.1 .1-.1 .1-.1L492 386c0-.7 .4-1.5 1-2s1.5-.8 2.3-.7l8.1 .4c2 .1 3.5 1.5 3.5 3.2l.6 53 83.6-1.6 0 .1c.6 0 1.1 .3 1.5 1s.6 1.5 .5 2.3l-.5 8c-.1 2-1.2 3.6-2.6 3.6l-82.5 1.4 .4 40.4c0 .3-.3 .6-.4 .9l.4 58.5c0 2.2-.6 4.4-1.7 6.1l-.6 .8c-.6 .9-1.6 1.2-2.5 1l-.1 .4c-.7 2-8 3.7-16.8 3.8-93 1.6-186.1 3-279.3 1.7-23.3-.4-46.6-.9-70.2-2.7-6.4-.6-10.8-.7-19.2-2.6-5.4-1-10.5-4.2-10.6-9.7l-.1-11.4c-.1-20.1-.1-49.7-.2-88.8l-78.8 1.4c-1.1 0-2.3-.6-3.1-1.7l-.4-.5c-.4-.5-.4-1.4-.4-2.2-1.7-.8-3-3.3-3-6.8l-.5-247.2c0-3.4 .6-6.7 1.8-9.2l.5-1.2c.7-1.7 2-2.3 3.1-1.4zM410.4 478.2c1.3 0 2.7 .4 3.6 1s1.4 1.5 1.4 2.3l-.7 8c-.2 2-2.7 3.5-5.9 3.6l-199.4 1.7c-2.7 0-5.4-.6-7.4-1.7l-1-.5c-1.4-.7-1.8-2-1.1-3.1l4.5-6.6c1.2-1.7 3.8-2.8 6.6-2.8l199.5-1.8zm-4.6-64.3c2.8 0 5.4 .6 7.4 1.7l1 .5 0 0c1.4 .7 1.8 2 1.1 3.1l-4.5 6.6c-1.2 1.7-3.8 2.8-6.6 2.8l-199.5 1.8c-1.3 0-2.7-.4-3.6-1-1-.6-1.4-1.5-1.4-2.3l.7-8c.2-2 2.7-3.5 5.9-3.6l199.5-1.7zM307.9-6.7c32.8-.1 65.6 .3 98.5 1.5 16.4 .6 32.9 1.4 49.4 2.8 8.3 .7 16.5 1.5 24.9 2.7 4.2 .6 8.4 1.3 12.9 2.4l3.4 1c1.7 .4 3.7 1.4 5.3 2.3 3.5 1.8 5.8 5.2 6.1 9l.2 54.9c0 6.8-.5 13.3-1.3 18.9l.3 49.5c0 1.3-.6 2.5-1.8 3.5l-.5 .5c-.7 .6-2 .9-3.1 .5l-6.6-2.1c-1.7-.6-2.8-1.8-2.8-3.1l-.7-94.9c0-.6 .4-1.3 1-1.7 .2-.1 .4-.1 .6-.2l-.1-22c.1-.4-.2-.7-.5-.8l-.7-.2-2.5-.7c-3.6-.9-7.5-1.5-11.4-2.1-7.9-1.1-15.9-1.9-24-2.5-16.2-1.3-32.4-2.1-48.7-2.7-32.6-1.2-65.3-1.5-97.9-1.4-32.7 .1-65.3 .8-97.9 2.2-16.3 .7-32.5 1.6-48.7 3.1-8 .7-16.1 1.6-23.9 2.7-3.9 .6-7.7 1.3-11.2 2.2l-2.5 .7-.2 .1-.1 .3-.5 149.5c2.3-1.3 6.1-2.3 10.7-2.3l363.5-1.6c2.5 0 4.8 .3 6.5 1s2.5 1.5 2.4 2.3l-1.9 8c-.1 .4-.5 .8-.8 1.1 8.5 .1 16.9 .1 25.4 .3 10.8 .5 21.5 .9 32.5 2.2 5.5 .6 11.1 1.5 16.9 3.1 3.2 1.4 6 1.7 9.6 4.6 3.4 1.8 6.7 7.7 6.7 12.1l.4 64.3 .4 127.5c0 .5-.1 1.1-.1 1.6l-.1 0 .1 27.5c0 .5-.4 .9-1 1.2s-1.5 .5-2.3 .5l-8-.1c-2 0-3.5-.9-3.5-2 0-22-.1-75.7-.4-161.2-.1-23.8-.1-39.7-.2-47.6 0-4.7 0-12.7-.4-11.5-.4-.7-4.7-3-9.5-3.7-6.9-1.7-22.4-3.2-46-3.9-72.1-1.4-144.6 0-217.1 1.1-1.3 .7-3.1 1.2-5.2 1.2L58.3 195.8c-3.4 0-6.6-.6-9.2-1.7l-1.2-.5c-1.7-.7-2.3-2-1.4-3.1l5.2-6.6c1.3-1.7 4.5-2.8 8-2.8l49.9-.3c-.9-3.3-1.5-8.3-1.5-14.1l.5-150.8c-1.2-7.8 11.2-11.5 13.9-12 4.4-1.1 8.6-1.8 12.8-2.5 8.3-1.2 16.6-2.1 24.8-2.8 16.5-1.4 32.9-2.4 49.3-3.1 32.9-1.4 65.7-2 98.5-2.2zM118.6 352.8c.2 .3 .3 .8 .5 1.2l.1-.1c.6-.5 1.8-.8 2.7-1.2l-3.3 0zM78.7 232.3c15.3-10.1 27.1 8.4 19.9 19.3-4.8 7.3-14.4 6.8-19.1 3.2-5.8-3.2-7.9-12.5-5.5-17.6 .3-.8 1.3-1.4 2.5-1.4l.6 0c.8 0 2 .5 2.8 1.2 .8 .6 1.6 1.1 2.4 1.6 0-.1 .1-.2 .1-.3 0 0 .1-.1 .1-.1-1-.5-2-1.1-2.8-1.6-1.7-1-2.5-3-1.1-4.3zm385.2 0c15.3-10.1 27 8.4 19.9 19.3-4.8 7.3-14.4 6.8-19.1 3.2-5.8-3.2-7.9-12.5-5.5-17.6 .3-.8 1.2-1.4 2.5-1.4l.6 0c.8 0 2 .5 2.8 1.2 .8 .6 1.6 1.1 2.4 1.6 0-.1 .1-.2 .1-.3 0 0 .1-.1 .1-.1-1-.6-2-1.1-2.8-1.6-1.7-1-2.5-3-1.1-4.3zm48 0c15.3-10.1 27 8.4 19.9 19.3-4.8 7.3-14.4 6.8-19.1 3.2-5.8-3.2-7.9-12.5-5.5-17.6 .3-.8 1.2-1.4 2.5-1.4l.6 0c.8 0 2 .5 2.8 1.2 .8 .6 1.6 1.1 2.4 1.6 0-.1 .1-.2 .1-.3 0 0 .1-.1 .1-.1-1-.6-2-1.1-2.8-1.6-1.7-1-2.5-3-1.2-4.3zM122.5 180.7l1.5 0c-.5-.1-.9-.2-1.4-.3 0 .1-.1 .3-.1 .3z"/></svg>