<svg xmlns="http://www.w3.org/2000/svg" viewBox="0 0 336 560"><!--! Font Awesome Pro 7.2.0 by @fontawesome - https://fontawesome.com License - https://fontawesome.com/license (Commercial License) Copyright 2026 Fonticons, Inc. --><path fill="currentColor" d="M146.7 476.4c8.9 .1 19.9 2 28.3 9.5 1.2 1.1 1.7 2.6 1.8 4.1 6.9 7.9 10.4 17.4 11.4 27.2 1.2 11.3-1.8 23.7-8.9 33.2-7 9.6-17.9 16.1-29.4 18.2-11.5 2.3-23.1 .4-33.4-3.5-10.2-3.2-22.2-12.5-25.3-25-6.5-22.5 2.7-49.8 25.9-60.3 2.4-1 4.8-1.4 7.1-1.5 3.3-.8 6.6-1.3 9.3-1.5 4.2-.3 8.6-.6 13.2-.4zm-13.1 15.2c-3.8 .3-6.7 .9-9.8 2.2-12.2 5.3-19.6 19.8-18.5 33.5 0 .5-.3 1-.8 1.4 .2 2.9 .4 5.8 1.3 8.4 2.4 7.4 8.8 11.8 17.6 14.7 8.5 2.9 17.4 3.9 25.5 1.9l0 0c16.5-3.7 27.4-20.3 24.4-37.1-1.1-8.1-5.3-16.4-10.9-20.1-5.7-4-14.7-4.5-24.1-4-1.5 .1-3-.2-4.2-.7 0 0 0-.1 0-.1l-.4 0zM167.1-10.1c1.8 0 3.4 .4 4.6 1 .4 .2 .3 .6 .5 .8 13.4 .5 26.9 2.3 40 6.2 57.9 17.1 108.4 63.9 122 124.5l0-.1c14.5 60.4-13.1 125.7-61.5 162.2-12 9.3-25 17.4-38.8 23.6-13.7 6.2-27.4 11.1-39.2 17.8-25.2 12-26.6 42-23.7 70.4l1.8 22.9c-.8 3.2-1.5 6.8-4.1 9.2-2.1 2.5-4 3.3-6 4.8-3.9 2.3-7.8 3.8-11.6 5.1-15.4 4.4-30.8 6.3-47.4 2.5-4.2-1.2-8.5-2.9-12.6-6-1.8-2-4.2-3.4-5.3-6.2-1.5-2.7-2.4-5.2-2.6-6.8l-4.9-22.5-1.3-23.1c.9-7.7 1.3-15.5 2.8-23 6.4-30.5 23.6-57.4 44.5-79 20.9-21.9 46.1-38.8 71.2-53.9 23.9-11.1 33-41.6 29.5-67.3-3.2-26.7-21.8-49.8-47.4-57.3-25.2-8.1-55-2.7-74.9 14.2-9.6 8-18 21.6-31.3 31.3-6.6 4.8-15.1 9.3-24.8 9.3-4.7 .1-9.5-.8-14.3-3-4.4-2.2-7.8-4.9-10.9-7.8-7.8-7.5-12.8-15.7-16-21.8-.7-1.4-1.2-2.7-1.7-3.8-.1-.1-.2-.2-.2-.4-2.5-3.6-6.6-11.9-4.7-19.1 2.1-8.2 5.7-10.9 8.1-15.9 11.5-17.8 26.2-33.4 42.7-46.6 33-26.2 74.8-42.5 117.8-42.3zm32.8 20.3c-54-13.2-113.1 6.8-153.3 44.8-5.5 5.2-10.5 10.5-15.2 15.9-4.7 5.6-9.3 11.3-13.2 17.4-6.5 10.8-7.2 9.4-1.4 19.3 4.9 8.1 10.7 16.1 17.2 21.6 1.8 1.5 3 3 4.1 4.4 1.1 .5 2.2 1.2 3.3 1.4 10.8 2.8 22-5.3 31.3-15.4 9-9.8 19.2-23.3 33.5-30.5 27.4-15.4 62.1-16.5 90.2-1.7 28.8 14.5 45.2 47.4 44 78.5-.2 15.7-4.7 31.4-13.2 44.9-4.2 6.4-9.6 13.3-17.2 17.6l-18.6 11.4c-24.3 15.1-47 32.6-65.4 53.8-18 21.3-30.9 46.9-33.5 74.2-1.2 6.8-.9 13.6-.3 20.5 0 6.9 1.3 13.7 3.1 20.4l2.2 10.1c.7 2.6 1.3 3.1 3.3 4.7 3.9 2.6 10.5 3.9 17 4.2 12.8 .4 27.9-2.1 37.7-7.8 2.8-1.9 2.1-1.7 2.3-2.1l-.9-10.6-1.7-21.9c-.4-15.1-.3-30.9 6.8-46.3 7-15.9 22.4-25.6 35.7-31.6 13.7-6.5 27.3-11.2 39.5-17.7 12.3-6.5 23.8-14.5 34.3-23.7l0 0c42.1-36.2 62.2-96.8 46.2-149.7-16.5-52.6-63.6-94.5-117.7-106.4z"/></svg>