<svg xmlns="http://www.w3.org/2000/svg" viewBox="0 0 616 560"><!--! Font Awesome Pro 7.2.0 by @fontawesome - https://fontawesome.com License - https://fontawesome.com/license (Commercial License) Copyright 2026 Fonticons, Inc. --><path fill="currentColor" d="M383.8 553.3l-.1 .3 0 3c0 1.7-.3 3.4-1 4.5s-1.5 1.7-2.3 1.6l-1.4-.3c-.2 .1-.4 .3-.7 .3l-133.5-2.5c-.7 0-1.3-.4-1.8-1-.1 0-.1-.2-.1-.2l-7.7 .1c-.4-5.1 .2-13.1 .1-16.9 .1-6.5 .6-32.8 1.5-78.7l.2-11.6c.8-5.6-2.4-15.6 6.6-12.2l14.5 .7 9.7 .2 19.5 .1c26.1 0 52.3-.6 78.4-1.6 .8 0 1.4 .3 2.2 .3l-.1-12.1c-.6-20.2-3.1-41-14.7-55.2-11.4-14.2-31-20.9-50.8-25.5-3.3-.8-6.4-2-8.7-3.6l-1.1-.8c-1.6-1.1-1.9-2.4-.8-3.3l6.6-5.3c1.7-1.3 5.2-1.9 8.9-.9 20.6 4.9 43.8 12.3 58.7 31.8 14.4 19.7 16 43.5 16.7 64.8l.8 123.3c.1 .2 .1 .4 .1 .6zM519.8 332.7c20.1 4.9 42.5 11.8 57.7 30.2 14.9 18.7 17.1 42 18 62.8l.1 0 1.1 124.2c0 1.7-.4 3.3-1 4.4s-1.5 1.7-2.3 1.5l-8-1.5c-.7-.1-1.2-1-1.7-1.7l-2.7 2.5c-1.8 1.7-5.9 2.8-10.5 2.9L447.7 559.3 450 443c-1.8-6.2 5.1-2.9 8.6-3.4l10.1 .6 12.7 .4 25.5 0c17-.2 34.1-.7 51.1-1.4 2.2-.1 4.3 .2 5.7 .7 1.5 .6 2.3 1.4 2.1 2.3l-1.3 8.1c-.3 2-4.5 3.7-9.5 3.9-16.9 .6-33.8 1.1-50.7 1.3l-25.5-.1-12.8-.4c-1.2 .1-1.5-.4-1.4 .4l-1.7 89 109.5-1.1c3.4 0 6.5 .4 9.4 1.1l-1-120.3c-.7-19.7-4-39.7-15.6-53.1-11.5-13.5-30.8-19.8-50-24.3-3.2-.8-6.2-2-8.5-3.6l-1.1-.8c-1.5-1.1-1.9-2.4-.8-3.3l6.5-5.4c1.7-1.3 5.1-1.9 8.6-.9zM368.2 453.3c-1.5 .5-3.3 .9-5.3 1-26.2 .9-52.3 1.4-78.5 1.4l-19.7-.2-12.7-.4c-.4 19.4-.9 42.9-1.4 70.3l-.4 18.6c.1 .1-.1 .4 .2 .3l.1 0 3.8-.1 0 0 114 3.9c.2 0 .4 .1 .5 .1l-.6-94.9zM166.1 117c1.8 6.2-5.1 2.9-8.6 3.4l-10.1-.6-12.7-.4-25.5 0c-17 .2-34.1 .7-51.1 1.4-2.2 .1-4.2-.2-5.7-.8-1.5-.6-2.3-1.4-2.2-2.2l1.4-8.1c.3-2 4.5-3.7 9.5-3.9 16.9-.6 33.8-1.1 50.7-1.2l25.5 .1 12.8 .4c1.2-.1 1.5 .4 1.4-.4l1.7-89-109.5 1c-2.2 0-4.4-.1-6.5-.4l-2.7 .1 .8 118.4c.7 19.9 3.7 40.2 15.3 53.8 11.5 13.7 30.9 20.2 50.2 24.7 3.2 .7 6.3 1.9 8.5 3.6l1.1 .8c1.5 1.1 1.9 2.4 .8 3.3l-6.6 5.4c-1.7 1.3-5.1 1.8-8.7 .9-20.3-4.9-43-12-58.1-30.8-14.8-19-16.7-42.5-17.6-63.5L19.7 7.8c0-1.7 .3-3.3 1-4.5 .6-1.1 1.5-1.7 2.3-1.5l.8 .2 .1-.1 32.5-1.1c.2 0 .4 .4 .6 1l0 .1 111.5-1.1-2.3 116.2zM243.8-1.2c2 .4 3.6 3.7 3.6 7.7l.6 100.2c1.5-.5 3.3-.9 5.3-.9 26.2-.9 52.3-1.4 78.5-1.4l19.7 .2 12.7 .4c.4-19.4 .9-42.9 1.4-70.3l.4-18.6c-.1-.1 .1-.4-.2-.3l-.2 0-3.7 .1-78.6 .8c-4.3 0-8.5-.5-11.8-1.6l-1.6-.5c-2.2-.7-2.9-2-1.8-3.1l6.8-6.6c1.7-1.7 5.8-2.8 10.3-2.9l78.5-.8 17.1-.1c.4 5.1-.1 13.1-.1 16.9-2 103.1-1.4 74.1-1.8 90.3-.8 5.6 2.4 15.6-6.6 12.2l-14.5-.7-9.7-.2-19.6-.2c-26.1 0-52.3 .6-78.4 1.6-.8 0-1.5-.3-2.2-.3l.1 12.1c.6 20.2 3.1 41 14.7 55.2 11.4 14.2 31 20.9 50.7 25.5 3.3 .8 6.4 2 8.7 3.6l1.1 .8c1.6 1.1 1.9 2.4 .8 3.3l-6.6 5.3c-1.7 1.3-5.2 1.8-8.9 .9l.1 0c-20.6-4.9-43.8-12.3-58.7-31.8-14.4-19.7-16-43.5-16.7-64.8L232.5 3.3c0-1.7 .3-3.4 1-4.5s1.5-1.7 2.3-1.6l8 1.5z"/></svg>