<svg xmlns="http://www.w3.org/2000/svg" viewBox="0 0 616 560"><!--! Font Awesome Pro 7.2.0 by @fontawesome - https://fontawesome.com License - https://fontawesome.com/license (Commercial License) Copyright 2026 Fonticons, Inc. --><path fill="currentColor" d="M210.6 74.1c3.4 .2 6.6 .7 8.9 1.5 2.2 .7 3.3 1.6 2.9 2.5l-3.3 7.9 0-.1c-.8 2-6.8 3-13.9 2.9-37.7 .3-75.1 14.6-105.1 37.4-30.1 22.7-53.1 55.7-58.5 92.7-5.3 38.2-7.8 77.5-7.2 116.3 .6 38.9 3.8 78.1 6.1 117.4 .3 4.1 .2 8-.1 11.7l.5 5.7 .1 0c69.8-1.3 140.1-6.7 210.8-3.4 2.9 .1 5.7 .9 7.8 2.1l1.1 .6c1.4 .8 1.9 2.1 1.1 3.1l-4.8 6.3c-1.2 1.6-4 2.6-7 2.5-70.1-3.1-140.2 2.4-211.1 3.7-1.4 0-2.8-.3-3.8-.9-.1 0-.1-.1-.2-.2l-4.7-.5c-1.7-.2-2.9-.7-2.9-1.2l-3.6-39.3c0-.3 .3-.6 .9-.8 .2-.1 .3-.1 .5-.1-2.2-36.4-5.1-72.8-5.4-109.6-.3-40.1 1.9-79.5 8.1-119.6 7.7-41.3 33.9-77.1 67.2-101 33.4-23.9 74-38.3 115.8-37.4zm325.6 0c3.1 .2 6.1 .7 8.2 1.4 2.1 .7 3.1 1.6 2.7 2.5l-2.9 7.2c1.7 1.6 3.1 8.2 3.2 15.9 .2 28 .4 46.7 .5 56l0 4.6 0 1.9c-.1-.2 .2 .6 1 2.3 2.5 5.2 .4 10.1-1.6 13.7-12.4 2.1-15.8 3-21.2 4.3-5.2 1.4-10.4 2.9-15.3 4.8-10 3.7-19.3 8.8-27.3 15.2-7.9 6.3-15.1 14.8-18.9 23.1-1.5 3.6-1.9 8.6-2.1 14.1l-.2 8.1-.1 .9 31.9-1.6 41.1-1.3c13.7-.3 27.5-.4 41.2-.3l16.7 .3c.8 .1 1.8-.1 2.4 .1 0 10.3 0 22.6 .1 36.9l.4 163.9c0 3.7-.2 7.3-.4 10.7l.2 9.3 .1 9.1c-.4 1.1 1 4-1 3.5l-4.5 0-12.1 0c-1 .3-2.2 .5-3.4 .4-70.1-3.1-140.2 2.4-211.1 3.7-1.4 0-2.8-.3-3.8-.9s-1.5-1.5-1.4-2.3l1-8.1c.3-2 3-3.6 6.3-3.6 66.5-1.2 133.4-6.1 200.7-3.8 .2-.1 .5-.2 .7-.2 5.4 0 15 0 13.5-.2 .6 .1 0-.8 .1-1.1l-.2-8.2-.8-37.1c0-.5 .3-1 1-1.4 .1 0 .1-.1 .2-.1l-.3-135.3-.1-20c-.1-.3 .3-1.2-.3-1l-5.2 0c-13.4-.1-26.9 0-40.4 .3l-40.4 1.3-49.8 2.7c1-5.4 2.6-11.6 2.8-16.8l.3-8.7c.2-5.8 .4-12.2 3.1-19.2 5.7-12.3 13.8-21.1 23.4-29 9.5-7.6 20.3-13.4 31.4-17.6 5.6-2.1 11.2-3.8 16.9-5.3l11.1-2.5c0 0 0-.2 0-.3-.6-5.7-.2-7.4-.4-11.2-.1-10.1-.3-30.2-.5-60.5 0-2.2 .1-4.4 .4-6.3-.6 0-1.2 0-1.8 0-69.5 .9-140.7 46.8-161 113.9-4.8 16.2-6.2 34.6-8 52.7-1.7 18-2.9 36.1-3 54.1-.1 35.9 4.1 72.3 6.2 108.9 .4 6 .1 11.9-.8 16.6l-.4 2.3c-.6 3.1-1.8 4.3-2.9 2.8l-7.1-9.1c-1.8-2.3-3.2-7.9-3.7-14.2-2.1-36.5-6.5-73.2-6-110.6 .2-18.6 1.5-37.2 3.3-55.6 2-18.1 3-37.1 9.4-55.8 12-37 38.5-67.8 70.5-88.5 31.8-21.1 70-33.1 108.7-32zM220 119.7c2 .6 3.5 7 3.4 14.5l-.2 20.8c0 2.9-.2 8.1 .1 9.2 3.4 5.9 1.6 11.3-.9 15.4-12.3 2.1-15.7 2.9-21.2 4.3-5.2 1.4-10.4 2.9-15.3 4.8-10 3.7-19.3 8.8-27.3 15.3-7.9 6.3-15.1 14.8-18.9 23.1-1.5 3.6-1.9 8.7-2.1 14.1l-.2 8.1-.1 .9 28.7-1.5 37.9-1.3 38-.5 24.3 .3c1.5 .1 3.1 0 4.5 .2l0 24 .4 151c0 6.6-.6 12.9-1.7 18l-.6 2.4c-.7 3.4-2 4.5-3.1 2.9l-6.6-10.3c-1.7-2.6-2.8-8.8-2.8-15.7l-.4-149.6 0-7.5c0-.4 .1-.9-.5-.7l-14.7-.1-37.2 .5-37.3 1.3-46.6 2.6c1-5.4 2.6-11.6 2.8-16.9l.3-8.7c.2-5.8 .4-12.2 3.1-19.2 5.7-12.3 13.8-21.2 23.4-29 9.5-7.6 20.3-13.4 31.4-17.6 5.6-2.1 11.2-3.8 16.9-5.3l11-2.5 0-.2c0 .1-.1 .2-.3-2.4l.1-12.2 .2-23.5c0-3.3 .4-6.4 1.1-8.6s1.5-3.3 2.4-3l8 2.6z"/></svg>