<svg xmlns="http://www.w3.org/2000/svg" viewBox="0 0 392 560"><!--! Font Awesome Pro 7.2.0 by @fontawesome - https://fontawesome.com License - https://fontawesome.com/license (Commercial License) Copyright 2026 Fonticons, Inc. --><path fill="currentColor" d="M370-54.9c6.2 .5 12.8-2.2 22.3 5.3 3.9 5 2.4 6.6 2.9 8.1 .1 1.5 .1 2.9 .2 4.2 4.2 182.4 1.2 365 .7 547.2-.4 30.6 .7 58.6-1.6 91.9 .3 .6-2.9 6.5-5.6 7-2.3 1-3.6 1.1-4.9 1.3-2.5 .3-4.6 .4-6.7 .4-123.5 1.2-246.2 2.6-370.8 .3l-5.3-.6-1.1-5.1c-.8-15.8-.6-25.8-1.1-38.8-5.3-171.8-2.8-343.5-2.2-515.2 .1-25.5 .8-50.2 1.9-69.6 .2-3.2 .4-6.2 .5-9.5 .7-13.2 1.9-17.4 2.9-11 2.1 13.2 4.2 26.6 6.2 39.7 1.6 10.2 2.5 34.2 2.4 61-.6 168.1-2.9 336.4 2.3 504.1 .4 10 .6 21.9 .7 31.1 119.8 2 242.6 .7 363.2-.5 1.3 0 2.7-.2 3.9-.3 1.3-26.2 1-57.6 1.2-86.3 .5-182.2 3.4-364.9-.7-546.7 0-1.1-.1-2.2-.1-3.2-2.2-.4-6.9-.9-10.8-.7-5.9 .1-12.1 .4-18.3 .4-86.4 .5-172.9 .9-259.3 1-12.6 0-24.7-.3-33.3-.9-8.5-.6-12.9-1.4-12-2.2 3.2-2.6 6.5-5.1 9.8-7.7 2.4-1.9 26.7-3.4 56.1-3.4 79.5-.2 159.1-.5 238.6-1 6 0 11.9-.3 18.1-.4z"/></svg>