<svg xmlns="http://www.w3.org/2000/svg" viewBox="0 0 672 560"><!--! Font Awesome Pro 7.2.0 by @fontawesome - https://fontawesome.com License - https://fontawesome.com/license (Commercial License) Copyright 2026 Fonticons, Inc. --><path fill="currentColor" d="M646.8 82.5c2.7 .1 5.5 .3 8.5 .9 1.6 .3 3.1 .7 5.1 1.5 1.7 .8 5.4 2.4 6.6 7.5 .8 22.2-.4 39.3-.6 59-1.9 93.6-.6 187.5-4.2 281.5-.2 6-.4 11.9-.8 18-.2 3.1-.4 6.1-.8 9.4-.2 1.7-.5 3.4-1.1 5.5-.6 1.8-1.9 6.3-7.4 8.1-11.4 2.6-20.6 2.8-30.7 3.3-196 6.3-392.2 8.6-588.4 .9-4.3-.3-8.4-.1-14.2-1.5-2.7-.7-7.2-2.6-9.6-6.6-2.3-3.8-2.5-7-2.8-9.7-5.8-90-2.6-179.9-2.1-269.4 .1-12.9 .2-25.7 .5-37.5 .2-11.2 .6-21.6 1-30.8 .2-3.1 .3-6.2 .4-9.3 .3-6.4 .8-10.8 1.2-12.5 .1-.4 .2-.8 .4-.5 .1 .1 .1 .2 .3 .7-.1 .2 .3 .6 .8 1 0 .1 .1 .3 .1 .4 2.3 12.9 4.4 26 6.6 38.9 .5 3 .9 7 1.3 12 .9 12.1 1.5 29.4 1.3 48-.6 86.3-3.4 172.4 2.2 258.1 .1 1.6 .5 2.9 .6 3 0 0 .1 .2 1.4 .6 2.7 .7 7.1 .8 11.2 1 195.4 7.6 391.7 5.3 587.3-1 8.5-.3 17.9-1 25.3-2.4 .3-.7 .6-1.5 .5-2.2 .3-2.6 .5-5.5 .7-8.4 .3-5.8 .6-11.8 .8-17.7 3.6-93.5 2.2-187.3 4.1-281.2 .3-17.9 1-38.1 .9-53.8-.1 0-.3 0-.4 0-1.9-.4-4.3-.6-6.6-.7-4.8-.2-9.8-.2-14.8-.1-10.1 .2-20.4 .5-30.7 .4-164.8-.1-330 4.6-495.2 4.3-12.5 0-24.4-.5-32.8-1.1-8.5-.7-12.7-1.6-11.7-2.4 3.2-2.5 6.4-5 9.6-7.5 2.5-1.9 26.3-3 55.1-3.1 158.2-.1 316.6-4.4 475-4.3 10 0 20.2-.3 30.5-.5 5.1-.1 10.3-.1 15.7 .2zM9 101.9c1.5 1.6 3.4 1.2 2.5 1.3-.6 .2-1.7-.5-2.4-1.2l0-.1zm-.7-1.6c.2-.6 .5 .4 .7 1.6 0 0-.1 0-.1-.1-.7-.9-.6-1.4-.6-1.5z"/></svg>