<svg xmlns="http://www.w3.org/2000/svg" viewBox="0 0 560 560"><!--! Font Awesome Pro 7.2.0 by @fontawesome - https://fontawesome.com License - https://fontawesome.com/license (Commercial License) Copyright 2026 Fonticons, Inc. --><path fill="currentColor" d="M542.8 82.5c2.7 .1 5.5 .4 8.5 .9 1.5 .3 3.1 .6 5.1 1.5 1.7 .8 5.4 2.4 6.6 7.5 .8 22.2-.4 39.3-.6 59-1.9 93.6-.5 187.5-4.1 281.5-.2 6-.4 11.9-.8 18-.2 3.1-.4 6.1-.8 9.4-.2 1.7-.5 3.4-1.1 5.5-.6 1.8-1.9 6.3-7.4 8.1-11.4 2.6-20.5 2.8-30.7 3.3-163.9 6-328.3 8.3-492.4 .9-4.3-.3-8.4-.1-14.2-1.5-2.7-.7-7.2-2.6-9.6-6.6-2.3-3.8-2.5-7-2.8-9.6-6-93-2.4-185.8-2.1-278.2 0-9.8 .1-19.5 .3-28.7 .2-12 .6-23.3 1.1-33.1 .2-2.8 .3-5.6 .5-8.4 .3-5.8 .7-9.7 1.2-11.3 .1-.4 .2-.7 .4-.4 .1 .1 .1 .2 .4 .8 0 .2 .4 .6 .9 1l0 .1c2.3 11.6 4.4 23.5 6.6 35.2 .7 3.6 1.2 9.2 1.7 16.1 .7 10.4 1.1 23.8 1 38.1-.5 89.6-3.6 179 2.2 267.9 .1 1.6 .5 2.9 .6 3 0 0 .3 .2 1.4 .5 2.7 .7 7.1 .9 11.2 1.1 163.6 7.4 327.5 5 491.3-1 8.5-.3 17.9-1 25.2-2.4 .3-.7 .6-1.5 .5-2.3 .3-2.6 .5-5.5 .7-8.4 .3-5.8 .6-11.8 .8-17.7 3.6-93.5 2.2-187.3 4.1-281.2 .3-17.9 1-38.1 .9-53.8-.1 0-.3 0-.4 0-1.9-.4-4.3-.6-6.6-.7-4.8-.2-9.8-.2-14.8-.1-10.1 .2-20.4 .5-30.7 .5-134.3-.4-268.8 4.8-403.5 4.3-11.2 0-22-.5-29.6-1.2-7.6-.7-11.5-1.6-10.6-2.4 2.9-2.5 5.8-5 8.8-7.5 2.2-1.9 23.7-3.1 49.8-3.1 128.3 0 256.6-4.7 385.2-4.3 10 0 20.2-.3 30.5-.4 5.1-.1 10.3-.1 15.7 .1zM1 102c1.6 1.6 3.2 1.1 2.4 1.3-.4 .2-1.6-.5-2.4-1.1l0-.1zm-.8-1.6c.1-.8 .5 .4 .8 1.6L1 102c-.7-.9-.7-1.4-.7-1.6z"/></svg>