<svg xmlns="http://www.w3.org/2000/svg" viewBox="0 0 392 560"><!--! Font Awesome Pro 7.2.0 by @fontawesome - https://fontawesome.com License - https://fontawesome.com/license (Commercial License) Copyright 2026 Fonticons, Inc. --><path fill="currentColor" d="M370-8.5c6.2 .5 12.8-2.2 22.3 5.3 3.9 5.1 2.4 6.6 2.9 8.1 .1 1.5 .1 2.9 .2 4.2 4.1 150.5 1.1 300.9 .7 451.2-.4 30.6 .7 58.6-1.6 91.9 .3 .6-2.9 6.5-5.6 7-2.3 1-3.6 1.1-4.9 1.3-2.5 .3-4.6 .4-6.7 .4-123.5 1.2-246.2 2.6-370.8 .4l-5.4-.6-1.1-5.1c-.8-15.8-.6-25.8-1.1-38.8-5-142.8-2.9-285.5-2.2-428 .1-23.1 .8-45.4 1.9-63 .2-2.9 .4-5.7 .5-8.6 .7-11.8 1.9-15.9 2.9-10 2.1 12 4.2 24 6.2 36 1.6 9.2 2.5 31 2.4 55.2-.8 139.4-2.6 278.8 2.3 418 .4 10 .6 21.9 .7 31.1 119.8 1.9 242.6 .7 363.2-.5 1.3 0 2.7-.2 3.9-.3 1.3-26.2 .9-57.5 1.2-86.3 .4-150.4 3.4-300.7-.7-450.8 0-1.1-.1-2.2-.1-3.2-2.2-.4-6.9-.9-10.8-.7-5.9 .1-12.1 .4-18.3 .4-87.9 .6-175.8 .9-263.7 1-11.4 0-22.3-.3-30.1-.9-7.7-.6-11.7-1.4-10.8-2.2 2.9-2.5 5.9-5.1 8.8-7.7 2.2-1.9 24.1-3.4 50.8-3.4 81.6-.2 163.3-.5 244.9-1 6 0 11.9-.3 18.1-.4z"/></svg>