<svg xmlns="http://www.w3.org/2000/svg" viewBox="0 0 448 560"><!--! Font Awesome Pro 7.2.0 by @fontawesome - https://fontawesome.com License - https://fontawesome.com/license (Commercial License) Copyright 2026 Fonticons, Inc. --><path fill="currentColor" d="M106 49.6l8.1 7.1c2.1 1.8 4.1 6.4 5.2 11.7 13.3 61.8 29.7 124.2 44.5 186.3l11.3 46.6c3.5 15.9 7.7 29.4 17.8 39.4 20.4 20.6 53.9 26.7 81.8 47.2 2.3 1.6 4.1 3.8 5.2 5.5 1.1 1.7 1.2 2.9 .4 3.4l-7 4.6c-1.8 1.2-6.1-.8-10.8-3.9l-.1 0c-13.6-9.7-30.3-15.8-46.6-23.8-1 1.3-2.2 2.5-3.1 3.9-2.2 2.9-8.3 7.1-14.8 11.7-9.5 6.4-17.2 15.5-15.4 23.6 1.7 7.1 11.9 20.4 16.2 32.2 10.3 25.1 5.3 55.7-10.7 77.1-15.7 21.8-39.3 36.7-65.2 42.8-25.6 6.2-55.2 1.9-76.6-15.2l-8-6.3c-2.3-2.4-4.2-5.2-6.4-7.8-4-5.4-8.8-10.4-11.1-16.6-2.8-6-5.8-11.9-8.3-18.1-2.1-6.6-3.5-13.2-4.1-19.8-2.7-26.2 2.5-54.2 18.9-76.2 15.9-22.7 43.1-34.4 68.6-38.3 1.6-.4 3.3-.6 4.9-.7l9.7-.7 2.4-.2 .7-1.5 4-8.5 15.8-34.1c1.7-3.7 3.7-7.1 5.4-9.4s3.1-3.1 3.7-2.5l5.9 6.3c1.5 1.6-.4 9.2-4.4 17.7l-15.5 33.4-5.6 12c-2 1.4-5.4 .8-8.2 1.2l-5 .4c-6 .2-11.8 .9-17.5 2.3-11.7 1.8-22.3 6.5-32.3 12-9.5 6.2-17.7 14.2-24 23.7-11.9 19.3-15.9 43.7-12.3 66.4 1.3 11.3 7.5 21.3 12.1 32 3.2 4.7 7 9 10.3 13.5 3.3 4.7 8.6 7.2 12.7 11 37.7 26 95.2 7.5 119.5-30.3 12.7-18.9 14.4-43 5.6-63.7l-8.4-14.9c-2.6-4.6-8.3-12.9-7.8-21.5-.1-8.8 4.1-16.7 9-22 4.9-5.5 10.3-9.8 15.9-13.4 4.5-2.9 9.1-5 13.4-6.6-9.4-5.3-18.4-11.7-26.4-20.4-12.4-13.5-16.1-31.7-19.6-46.6l-11.3-46.4c-14.7-62.1-30.8-123-44.2-186.2-1.1-5.2-1.5-10.4-1.1-14.6l.2-2c.2-2.8 1.3-3.8 2.6-2.7zM358.5 370.5c20 3.4 40.3 12 55.2 27.3 15.3 15 23 35.9 25.7 56.3l0 0c2 20.2 .2 42.6-10.5 60.7-7.9 19.1-23.9 35.4-43.1 44.5-19.3 9.9-41.8 9.9-61.9 5.3-20.4-4.4-39.4-14.8-54.3-29.7-14.7-14.5-26.9-34.2-27.4-56.4-.7-21.4 6.3-43.7 20-59.4 2-2.7 4.3-5.1 6.1-6.5s3.2-1.7 3.6-1l4.5 7.3c1.1 1.8-1.1 7.5-5.2 13-23.8 29.1-16.4 72.2 11.9 95.3 26.6 24.2 68.2 33.5 99.8 17.3 4-1.7 7.1-5.1 10.8-7.5l5.3-3.9 4.1-5.3 8.3-10.4 5.7-12.3c8.5-15.8 9.6-34.7 7.2-52.5-2.4-17.8-10.2-34.7-23-46.5-12.6-12.1-29.8-19-47.8-21.7-5.8-1.5-11.8-1.7-16.4-3.4l-2.2-.7c-3.1-1-4.3-2.3-2.6-3.3l10.3-5.9c2.7-1.5 9.1-2.3 16.1-.8zm-13.1 46.1c13.5-.6 26.5 6.2 34.9 16 17.7 19.7 17.5 50.5 3.9 71.4-6 11.4-18.5 20.1-31.6 22.3-13.3 2.3-26.6-1.3-37.5-7.8-10.9-6.6-19.9-16.8-24.6-29.3-4.7-12.4-3.7-27.4 2.7-39.1 1.1-2 2.5-3.7 3.9-5.1 6.2-9.4 15.9-16.9 24-21.4 .2-.1 .5 .1 .7 .1 7.1-4 15-6.9 23.6-7.1zM111 410.9c13.8-.6 27.3 6.4 35.9 16.5 18.2 20.2 18 51.9 4 73.3-6.2 11.7-18.9 20.7-32.5 22.9-13.7 2.3-27.3-1.3-38.6-8-11.2-6.8-20.5-17.3-25.3-30.1-4.8-12.8-3.8-28.2 2.8-40.1 1.1-2 2.5-3.8 4-5.3 6.3-9.6 16.3-17.4 24.7-22 .2-.1 .5 0 .7 0 7.3-4.1 15.4-7.1 24.3-7.2zm256.7 29.8c-13.3-14.2-35-11-49.2 3.7-1.2 1.1-2.6 2-3.8 2.3-.1 0-.1 0-.2 0-10.2 10.6-14.4 24.9-8.9 37.5 .2 .3 0 .8-.5 1.3 0 0-.1 .1-.1 .1 3.7 8.7 10.7 16.4 19.3 21.2 8.5 5.1 18.8 6.8 27.6 4.7 8.9-2.1 16.1-8.4 21-16.8 9.9-17.6 8.5-40.3-5-53.9l0 0zM108.9 426c-9.3 .8-18.3 6.1-25.8 13.2-1.2 1.2-2.6 2-4 2.4-.1 0-.1 0-.2 0-10.5 11-15 25.8-9.3 38.9 .1 .4 0 .8-.5 1.3 0 0-.1 .1-.1 .1 3.8 9 11.1 17 20 22 8.8 5.3 19.5 7 28.6 4.9 9.3-2.2 16.7-8.7 21.8-17.4 10.2-18.2 8.8-41.7-5.2-55.9-6.7-7-16.1-10.3-25.3-9.4zM141.5-7.1c4.5-1.7 8.6 .9 11 5.4L199.6 89.9 222.9 136.2 292.6 0c1-1.9 2.5-3.5 4.3-4.4l.8-.5c1.2-.6 2.4-.3 3.1 .7L305 2c1.1 1.6 1.1 3.9 .1 6L238.5 138.5c1 .5 1.8 1.2 2.2 2.2 12.8 33.6 31.9 65.6 47.5 99.9l23.4-100.7c4.6-20.7 10.1-41.6 13.9-62.1l5.2-27-18-22.8c-1.1-1.4-1.8-2.9-2-4.2-.2-1.3 .1-2.3 .8-2.7l7.2-3.9c1.8-1 5 .7 7.5 3.9L336 33.5c3.6 4.5 6.3 8 8.2 10.5l2.3 2.9c-.1 1.1-.4 2.5-.6 3.5l-6.4 32.8c-4.2 21.1-9.4 41.4-14.1 62.2L296.7 269.1c-.7 3-2 5.8-3.5 8 13.4 27.3 26.8 54.7 39.8 82.4 1.2 2.8 2.1 5.6 2.4 7.7 .3 2.2-.1 3.4-1 3.5l-8.4 1c-2.1 .2-5.6-4.2-8.5-10.4-28.1-59.4-57.7-118.4-87-177.4l-44.4-88.3-43.5-84.9-.1 0-2 2.1-13 14.1c-4.1 4.4-8.5 8.3-12.4 10.8l-1.9 1.2-.2 0c-2.6 1.7-4.3 1.6-4-.2l1.5-11.3c.4-2.9 3.4-7.8 7.6-12.4L130.5 1.6c2.2-2.2 7-7.7 11-8.7zm82 266.6c6.4-.2 14.2 1.9 19.4 7.2 5.2 5.1 8 12 8.2 19.2 .2 7.4-3.4 14.8-8.6 19.5-5.2 4.8-12.1 7.7-19.4 7.7-7.5 0-14.4-3.2-19.5-8-5.1-4.8-8.7-11.4-9.5-18.7-1.7-7.6 3.9-17.6 9.3-20.8 1.4-1.1 3-1.4 4.6-1.4 4.9-3.4 10.4-4.6 15.7-4.8z"/></svg>