<svg xmlns="http://www.w3.org/2000/svg" viewBox="0 0 616 560"><!--! Font Awesome Pro 7.2.0 by @fontawesome - https://fontawesome.com License - https://fontawesome.com/license (Commercial License) Copyright 2026 Fonticons, Inc. --><path fill="currentColor" d="M498.2-9.5c22.7-.9 46.6 6.3 64.1 22.2 17.5 15.7 27.7 37.6 32.4 59.2 .5 2.4 .3 4.5 .2 6.8l1.4 7-.4 9.2c-3.2 46.4-44.6 86.5-91.5 87.1-23 1-46.4-6.6-64.3-21.3-8.7-7.1-16-15.7-21.7-25.3-.4 .2-.6 .5-1 .7-70.1 34.7-138.7 73.2-209.1 109-1.4 .7-2.9 .8-4.4 1.2 2.5 6.4 4.6 13 6.1 19.6 .5 2.4 .2 4.5 .1 6.8l1.4 7-.4 9.1c-.8 11.2-3.8 22.1-8.6 32.1 1.9-.2 4.1 0 6.4 1.2L418.3 424.4c12.2-20.4 31.5-36.5 54.7-43.1 5.1-1.5 10.1-2 14.8-2.1 3.4-.5 6.8-1.1 10.3-1.1 22.7-.9 46.6 6.3 64.1 22.2 17.5 15.7 27.7 37.5 32.4 59.2l0 .1c.5 2.4 .3 4.6 .2 6.8l1.4 7-.4 9.1c-3.2 46.4-44.6 86.5-91.5 87.1-23 1-46.4-6.6-64.3-21.3-18-14.6-30.4-35.8-34.1-58.7-3.4-17.6-1-35.6 5.8-51.9-.2-.1-.4-.1-.6-.2L200.5 334.2c-1.7-.8-2.8-2.1-4.2-3.2-16.6 26-45.4 44.4-76.8 44.8-23 1-46.4-6.6-64.3-21.3-17.9-14.6-30.3-35.8-34.1-58.7-9-46.2 22-95.4 67.2-108.2 5.2-1.5 10.1-2 14.8-2.1 3.4-.5 6.8-1.1 10.3-1.1 22.7-.9 46.6 6.3 64 22.2 8.9 8 15.9 17.6 21.3 27.9 1-1.2 2.4-2.4 4.2-3.3 69.8-35.5 138.2-74 209-109.1-2.7-6.5-4.9-13.2-6-20.2-9-46.2 21.9-95.4 67.2-108.2 5.1-1.5 10.1-2 14.8-2.1 3.4-.5 6.8-1.1 10.3-1.1zm-1.6 402.6c-39.7 1.2-74.2 36-75.8 75.1-.1 1.6-.5 3-1.2 4.1-.1 .1-.2 0-.2 .1-.1 6 .2 12 1.6 17.9 7.6 39.2 47.1 68.6 86.7 64.1 39.6-2.7 73.5-38.3 73.6-78-1.6-17.8-8.5-39.5-20.2-54.3-11.6-15.5-29.5-25.4-48.9-27.8-2.1-.3-3.8-.7-5.6-1.1-3.3-.2-6.6-.5-9.9-.2zM111.8 199.2c-39.7 1.2-74.3 36-75.8 75.1 0 1.6-.5 3-1.2 4.1-.1 .1-.1 .1-.2 .2-.1 6 .2 12 1.6 17.9 7.6 39.2 47.1 68.6 86.7 64.1l0 0c39.6-2.7 73.5-38.3 73.6-78-1.6-17.8-8.5-39.5-20.2-54.3-11.6-15.6-29.5-25.4-48.9-27.8-2.1-.3-3.8-.7-5.6-1.1-3.3-.2-6.6-.5-9.9-.2zM496.6 5.4c-39.7 1.2-74.2 36-75.8 75.1 0 1.6-.5 3-1.2 4.1-.1 .1-.2 .1-.2 .1-.1 6 .2 12 1.6 17.9 7.6 39.2 47.1 68.6 86.7 64.1l0 0c39.6-2.7 73.5-38.3 73.6-78-1.6-17.8-8.5-39.5-20.2-54.4-11.6-15.5-29.5-25.4-48.9-27.8-2.1-.3-3.8-.7-5.6-1.1-3.3-.2-6.6-.5-9.9-.2z"/></svg>