<svg xmlns="http://www.w3.org/2000/svg" viewBox="0 0 616 560"><!--! Font Awesome Pro 7.2.0 by @fontawesome - https://fontawesome.com License - https://fontawesome.com/license (Commercial License) Copyright 2026 Fonticons, Inc. --><path fill="currentColor" d="M154 143.7c7.2 .1 14 .6 18.9 1.3 4.9 .7 7.3 1.6 6.7 2.4l-5.7 8c-1.4 2-15.2 3.3-31.8 3.1L82.7 158c-9.8 .1-19.7 .2-29.2 .9-9.3 .4-20.2 2.9-18.4 5.6-.1 78.6-.1 157.6 0 237l0 104 .1 6.5c.1 1.2 0 .7 .4 1.1 4.5 2.1 16.1 3.7 25.2 4 9.6 .8 19.5 .9 29.3 1.2l59.3 .3 118.8-1.3 237.2-4.3c-1 2.5 3.6-6.2 4.4-13.4 1.4-7.6 2.2-15.6 2.7-23.6 1-16.1 1.1-32.4 .8-48.8-.2-14.3-.2-28.3 .5-39.3l.3-5.4c.4-7.4 1.6-10.1 2.8-6.4l7.5 22.2c1.9 5.7 3.5 19.3 3.6 34.6 .1 15.6 0 31.3-1.1 47.1-.6 7.9-1.4 15.8-3 23.9-.8 4-1.9 8.2-3.7 12.5-1.3 3.6-6.2 11.2-13.6 11.3l-241.2 4.4-120.5 1.4c-20.1 0-40.2 0-60.4-.5-10.1-.3-20.2-.7-30.5-1.5-5.3-.6-10.3-.9-15.9-2.2-4.4-.9-14.2-3.1-17.4-13-.8-4.4-.5-7.1-.6-9.4 0-66.5 0-155.5-.1-233.2l0-105.3c0-2.2-.2-5.9 1.2-10.1 1.6-4.5 5.8-8.4 9-9.7 12.9-5.2 22.4-4.3 32.9-5.2 10.2-.4 20.3-.4 30.4-.4l60.3 .6zM438.5 27.1c4.6-.8 9.4 2.1 12.8 4.5l6.9 5.1c17.8 13.8 34.8 28.2 51.7 42.9 16.8 14.8 33.2 29.9 49 46 7.9 8.1 15.6 16.3 22.8 25.3 3.6 4.6 7 9.3 10.1 14.6 1.5 2.8 2.9 5.7 3.9 9.4 .1 .4 0 .8 0 1.1l-.1 0c1.8 3.5 3.4 9.3 1.1 17.2-.9 2.6-1.9 5-4.5 7.8-34.6 33.9-69.1 67.3-104.8 100-9 8.1-18 16.2-27.4 24-4.9 3.3-8.9 8.8-19.2 12.4-5.1 1.2-10.2-1.7-12.5-6.3-2.5-5.1-2.9-10.4-3.1-13.1-.4-7-.3-13.6-.1-20.2-.1-8.3 .1-16.3 .4-24.2 0-3.2 .1-6.6-.2-9.6-.2-2.7-.8-5.2-1.4-6.9-.2-.7-.4-.6-.7-.7-44.9-2.4-93.1 1.5-135.4 18.8-21.2 8.5-41.1 20.2-58.5 34.9-8.5 7.6-16.6 15.5-23.8 24.3-3.6 4.4-7.2 8.8-10.3 13.6l-4.8 7.1-6.8 11.6c-2.8 5.1-5.9 6.5-8.7 7.1-3.8 .7-7.7-1-10.1-3.8-4-4.1-6-13.3-6.2-19.4-.1-3.5 .5-6.5 1.1-9.4-.2-7.4 .1-9.3 .4-13.2l1.2-10.2c1-6.7 2.3-13.4 3.9-20 3.2-13.1 7.6-25.9 12.8-38.4 10.6-24.8 25.2-48 43.4-68.1 36.3-40.6 87.6-66 140.4-75.1 3.5-.6 6.7-.8 10.1-1.3 2.4-.4 4.7-.5 7.1-.8 2.6-.3 5.2-.7 7.7-.9 11.4-1.2 22.8-2 34-2 .1-.2 0 .2 .3-.5 .7-1.8 1.3-4.4 1.6-7.2 .7-5.6 .9-11.7 1-17.8 .3-12.4-.3-24.8 1-38.3 .4-3.5 .9-6.8 2.4-10.4 1.4-3.1 3.9-8.6 10.6-9.8 .3-.1 .5-.3 .7-.4zm3.3 16.6c-1 4.3-1.4 10.1-1.6 15.7l-.6 35.1c-.5 8.4-1.3 16.6-5.1 23.6-.4 .7-1.1 1.3-1.6 2-.5 .8-1.2 1.6-1.9 2.3-.2 .2-.3 .3-.4 .5l-.1-.1c-2.2 2.1-5.1 3.6-8.3 3.6-64.1 .2-127.4 17.9-173.9 60.3-23.1 20.8-41.4 46.7-54 75.1-6.3 14.2-11.3 29-14.7 44.1-2.3 10.3-4 22.1-4 32.2L177 336c.8-1.3 0-.3 2.6-4 7.4-11.2 15.6-21.8 25-31.3 18.4-19.5 41-34.8 65.1-46.1 48.9-22.7 102.2-28.2 155.8-25.2 5.8 .3 10.4 5 12.2 10 1.5 4 2 7.4 2.3 10.7 .7 6.6 .6 12.8 .4 19 0 1.8-.1 3.5-.2 5.3 0 2.4 .2 4.9 .2 7.3-.1 5.8-.4 11.6-.5 17.3 0 1.8-.1 3.8 0 5.5 .2 2.7 .5 4 .5 4.1 .1 .2 .3 .4 .6 .3 .1-.1 5.2-3.8 9.6-7.4 9.1-7.5 18-15.5 26.9-23.5 35.2-32 70.4-66.1 103.8-98.8 .1-.3 .1 .3-.1-.9-.6-1.8-1.5-3.9-2.8-6.1-2.5-4.4-6-8.9-9.4-13.2-7.1-8.7-15-17.1-23.1-25.3-16.2-16.4-33.4-32-50.8-47.2-17.1-14.8-36.2-30.9-52.8-43.1-.5-.1-.1-.4-.4 .4z"/></svg>