<svg xmlns="http://www.w3.org/2000/svg" viewBox="0 0 504 560"><!--! Font Awesome Pro 7.2.0 by @fontawesome - https://fontawesome.com License - https://fontawesome.com/license (Commercial License) Copyright 2026 Fonticons, Inc. --><path fill="currentColor" d="M248.4-7c1.7-.8 3.5-2.2 5.2-.7 1.7 1.1 3.4 1.2 5.1 3 3.4 4 6.8 8 10.2 12l10.8 11.5c7.4 7.4 15 14.6 23.1 21.3 16.1 13.3 33.7 24.7 52.4 33.7 37.7 17.9 79.6 25.7 121.7 27.6 6.8 .4 13.4 .7 18.1 1.4 4.7 .7 7.1 1.6 6.5 2.5l-5.4 7.9c-1.3 1.9-15 3.5-31.5 2.3-43.1-3.1-86.9-12.4-125.8-33.3-19.4-10.3-37.4-23.1-53.7-37.7-8.1-7.3-15.9-15-23.2-23-1.4-1.5-2.8-3.1-4.2-4.6 .6 3 .9 6.6 .9 10.6L260 535.4c0 1-.1 2.1-.1 3.1 .3 0 .6-.1 .9-.2 1.6-.7 3.4-1.4 5.3-2l27.8-8.8 19.4-9.4c2-1.2 4.1-2.1 6.1-3.3 .5-.3 1-.3 1.5-.4 8.6-3.7 16.4-9 24.1-14.3 7.7-5.8 16.6-10.1 23.5-17 30.4-24.2 53.8-56 72.8-89.7 37.1-68.4 54.3-147.4 52.4-225.5 0-6.5 .6-12.9 1.7-17.9l.6-2.5c.7-3.4 2-4.5 3.1-2.8l6.6 10.2c1.7 2.6 2.8 8.8 2.8 15.6l0 .1c.3 18.4-.5 36.9-2.2 55.3 1.3 5.2 1.1 16.2-.4 28.5-5.2 36.7-14.1 72.9-27.1 107.7-13.4 34.7-31.5 67.6-54.2 97.3-22.8 29.9-52.1 53.9-83.6 74.1l-25.2 12.5c-8.3 4.3-16.8 8.4-25.8 10.8l-26.7 8.6-6.7 2.2c-3.1 .3-8 .5-10.1-.2-6.8-1.9-20.3-5.7-40.6-11.4-9-2.7-17.2-7.4-25.9-11.1-17.7-6.7-32.9-18-48.6-28.3-29.4-23.2-56.2-50.6-75-83.1-39-64.2-57.7-138.3-62-212.4-.4-6-.2-11.9 .4-16.1 .1-1.1 .4-1.6 .5-2.5-.7-16.9-.6-33.6-1.1-50.1 .1-10.9-.7-21.3 1.6-33.9 .6-3 2.1-7.2 5.5-10.7 3.7-3.7 8.5-4.6 11.7-4.9l16.4-.8c42.1-2.4 84.2-10.4 121.6-29.1 18.7-9.2 36.1-21 52-34.5 8-6.8 15.5-14 22.8-21.6 3.5-3.9 7.2-7.6 10.6-11.6l7-8.3c1.7-2.4 3.4-3.2 5.1-4zm-4.3 25.3c-25.8 29-58.5 55.9-95.4 72.1-40.2 18.1-84.2 25.5-127.4 27-5.9 .1-10.2 .7-10 1.2-.8 .7-2.1 5.8-2.2 10.6l0 0c-.6 9.9-.3 20.8-.2 31.4 .4 21.7-.3 42.6 2.3 63.3 4.6 41.8 13.9 83.2 29.1 122.4 29.4 78.5 87.9 146.2 165.5 177.8 11.1 4.8 22.1 8.2 31.3 12l8.7 2.4c-.5-2.5-.8-5.5-.8-8.8l-.1-36.2c-3.3 0-9.1-1.3-15.6-3.7-64.1-22.8-117.2-73.1-147-133.8-15.5-30.1-25.9-62.7-32-95.8-3.1-16.6-5.1-33.4-6.2-50.3 0-8.5-.8-16.9-.2-25.5 .2-4.3 .2-8.5 .9-13 .5-4.3 .8-8.5 3.7-15.5 5.9-6.1 11.8-7.3 15.7-7.9 4.4-.9 8.4-1.3 12.5-1.8l23.8-2.8c15.6-2 31-5 45.9-9.4 29.9-8.5 57.5-23.7 79.4-45.3 5.9-5 10.8-10.7 15.7-14.5l2.3-1.9c0 0 0-.1 .1-.1l-.1-48c0-2.1 .2-4.1 .3-6.1zM140.8 504.6c-.1-.1-.2-.2-.2-.2-.2-.2-.5-.3-.7-.5 .3 .2 .6 .5 .9 .7zm-22.9-18.7c5.4 5 11.1 9.7 16.9 14.2-5.9-4.5-11.4-9.3-16.9-14.2zM244.1 89.2c-1.9 3.7-5.5 8.3-10.3 12.6-23.6 22.7-53.5 38.1-84.7 46.9-15.6 4.4-31.5 7.4-47.4 9.4l-23.6 2.7c-3.9 .5-7.7 .9-11.2 1.6-3.8 .7-6.2 1.7-5.9 1.8-.2 1-1.2 5.1-1.5 9.1-.7 3.8-.6 8-.8 12-.5 8.1 .2 16.4 .3 24.6 1.2 16.4 3.1 32.9 6.3 49.1 6.3 32.4 16.3 64.2 31.8 93.2 15.4 28.9 34.9 55.7 59.4 77.4 6 5.5 12.9 9.9 19.3 15l9.8 7.3 10.7 5.9 21.5 11.7 23 8.6c1.5 .6 2.9 1.2 4.2 1.8l-.9-390.8zm59.3 24.6c3 .2 8.7 2.6 14.7 5.9 19.6 11.4 41.1 19.3 63.4 23.4 11.1 2.1 22.4 3.5 33.9 4.2l17.6 1.1c3.1 .3 6.1 .5 9.5 1.2 3 .1 8.6 2.6 12 6.7 2.8 6.2 3 9.8 3.5 13.6 .7 4 .7 7.6 1 11.4 .6 7.6 .3 15 .3 22.4-.6 14.8-1.9 29.6-4.1 44.2-4.5 29.3-11.8 58.2-23.2 85.7-22.1 55-60.5 104.9-112.2 135.8-2.9 1.8-5.8 3.3-8.1 4s-3.7 .5-3.8-.4l-1.8-8.4c-.4-2.1 4.1-6.7 10.4-10.8 47.5-29.4 82.3-76.5 102.7-128.4 10.6-25.9 17.6-53.3 21.6-81.1l.1 .1c2.1-13.9 3.3-27.9 3.8-41.8-.1-5.2 .1-10.5 0-15.6l-.6-10.3c-.1-1.7-.3-3.4-.6-4.9-.3-3.3-1.3-6.9-1.3-7 1.5 .2-5.2-1.4-10.7-1.6L413.6 162c-12.1-.8-24.3-2.2-36.4-4.7-24.2-4.6-47.7-13.7-69-26.3-6.1-3.3-11.2-7.9-14.8-11.8l-1.8-1.9c-2.4-2.6-2.7-4.3-.6-4.2l12.4 .6z"/></svg>