<svg xmlns="http://www.w3.org/2000/svg" viewBox="0 0 560 560"><!--! Font Awesome Pro 7.2.0 by @fontawesome - https://fontawesome.com License - https://fontawesome.com/license (Commercial License) Copyright 2026 Fonticons, Inc. --><path fill="currentColor" d="M400 483.5c44.2-4.9 83.3 15.5 117.8 35.5 2.9 1.6 5.4 3.5 7.1 5.2s2.2 2.9 1.5 3.5l-6.4 5.6c-1.6 1.4-7.8-.4-14.2-4.1-16.9-10-34.5-18.7-52.7-24.7-18-7-37.2-8.6-55.1-5.4-18.1 3.4-34.5 13.8-52.6 23.1-18.1 9.6-39.2 15.9-60.4 16-42.6-.3-80.5-21.3-116.5-31.9-18.3-5.2-37.2-6.4-55.5-2.7-18.3 3.7-35.8 11.7-52.1 21.9-5.5 3.1-10.8 6.4-15.4 8.3l-2.3 .9c-3.1 1.3-4.8 1-4.1-.8l4.6-11.3c1.2-3 5.8-7.5 11.9-11.1 17.6-10.6 36.9-19.3 57.8-23 20.9-3.7 42.6-1.5 62.5 4.4 19.9 5.9 38.3 14.7 56.6 20.5 18.4 6.5 37.5 9.9 56.3 9.8 18.9-.1 36.5-7 53.8-16.2 17.1-9.1 35.7-20.6 57.7-23.6zM283.7 20.7c17.4 .2 33.7-.5 52.8 3.8 1.3 .5 2.6 .7 4.4 1.6l4.8 3.7c2.7 3.3 3.5 7.7 3.9 9.7 .8 4.9 1 9.2 1.3 13.5l1.3 25.4c0 .2-.2 .4-.2 .6 6.2 .5 12.5 .8 18.8 1.7 5.1 .6 10.3 1.5 15.5 2.8 2.8 .8 5.3 1.3 8.4 2.8 3.1 .9 7.6 5.1 9.4 9.2 11.8 44.4 22.8 85.7 37.1 127.6 2.4 7.1 4.2 14.1 5.1 19.8l.4 2.8c.6 3.9-.2 5.5-1.8 4.1L434.7 241c-2.6-2.3-6-8.6-8.5-16.2-13.8-40.9-25.3-83.8-36-124.1-.5-.5 .3-.3-1.6-1-1.5-.8-3.8-1.3-5.9-1.9-4.4-1-9.1-1.9-13.9-2.5-9.6-1.3-19.4-2-29.2-2.6-19.7-1.1-39.5-1.3-59.2-1.1-19.8 .2-39.6 .9-59.3 2.2-9.8 .7-19.6 1.6-29.3 2.8-4.8 .6-9.6 1.4-14.1 2.4-2.2 .5-4.6 1-6.2 1.7-1.6 .6-.7 .3-1.1 .6L119.3 260.9c1.8-1.7 4.5-3.3 8-4.5 61-19.6 101.6-32.7 122-39.2 7.1-2.1 12.8-4.6 21-6.3 7.9-1.5 16.1-1.4 24 .1 28.8 8.3 54.8 17 82.3 25.5 27 7.5 55.6 19.3 79.2 36.6 1.9 1.4 3.6 3.1 4.5 4.5 .4 .7 .1 .9 .2 1.5l6 2 41.2 13.9 10.3 3.5c3.7 1.4 8.8 3.7 12.4 8.7 4.1 5.1 3.9 11.5 3.4 16.2-.8 4.6-2.2 8.6-3.8 12.3-13.6 27.9-30.7 50.4-46 75.1-1.4 2.2-2.9 4.2-4.3 6.1 .2 1-1.7 2.5-2 3.7-1.2 1.9-2.5 3.7-3.7 5.4 1.7 .9 3.6 1.7 5.1 2.7 19.2 11.2 36.8 22.4 56.4 30 3.2 1.2 6.1 2.7 8 4.1l0 0c2 1.4 2.8 2.7 2.2 3.4l-5.2 6.6c-1.3 1.6-8.4 .8-16.2-2.6-20.4-8.6-39.2-20.9-57.3-31.1-18.1-10.4-37.6-13.7-57.8-9.6-40.7 6.8-77.2 34.5-123.8 38.5-47.7 2.9-86.5-24.4-126.3-33.1-40.1-10.7-80.7 6.2-116.6 28-6 3.6-12.2 6.6-17.3 8.5l-2.5 .9c-3.5 1.3-5.2 .9-4.3-1l5.9-11.5c1.5-2.9 6.7-7.4 13.2-11.2 14.8-8.7 30.3-16.7 46.8-22.6 0 0 0-.1 0-.1 1.7-3 3.6-6 5.5-8.9 1.5-2.3 6-4.9 11.6-6.3 16.1-4 33.3-5.2 49.8-2.4 16.6 2.5 32.1 7.9 47.1 13.6 25.2 9.6 50.1 20.1 75.3 21.2l1-204.9c0-.1 .1-.1 .1-.2-6.6 1.1-13.5 3.1-21 5.4l-41 12.7-82 27c-27.1 8.9-55.9 17.4-82.5 24.5-1.4 0-3 3.6-2.4 10.1 .5 6 2.2 12.7 4.3 19.2 4.2 13.1 9.9 26.1 16 38.8 4.1 8.4 7.7 16.8 10.1 23.6l1.2 3.3c1.6 4.6 1.3 6.7-.8 5.1l-12.7-10c-3.2-2.6-8.4-10.1-12.7-19.3-6.2-13.3-12.1-26.8-16.4-41.2-2-7.3-3.8-14.8-3.8-23.3 .2-4.3 .7-9.3 4.1-14.1 3-5.2 10.7-7 13-7.7 17.7-4.6 35.2-9.8 52.6-15.2-.2-3.1 .6-8.4 2.5-14.3L156.9 95.2c1.8-3.8 6.1-7.6 9.5-8.3 3-1.1 5.5-1.7 8.1-2.3 5.2-1.2 10.3-1.9 15.3-2.6 7.9-1 15.8-1.7 23.7-2.3l-1.1-.7c-1.7-1.2-2.7-3.9-2.6-6.8 .4-8.6 .9-17.1 2.1-25.9 .3-2.2 .6-4.4 1.1-6.7 .2-1.1 .5-2.3 .9-3.6 .3-1.7 1.5-3.5 2.3-5.1 .9-1.8 2.4-2.9 4.2-3.6 1.5-1 3.6-1.7 4.9-1.9 2.5-.7 4.7-1 6.9-1.3 17.5-2.4 34.4-3 51.6-3.3zm5.6 218.7l-.8 202.8c29.3-3.3 56.7-18.6 86.8-29.4 15.3-5.4 31.5-10 48.9-10.4 8.6-.2 17.5 .9 25.8 3.1 4.6 1.3 7.3 2.1 13 4.2l4.8 1.9c1.2-3.7 3.9-9.4 7.9-15.5l23.4-36.2c7.5-12 15.6-24.4 19.3-36.1 1.2-6.3 1.3-8-3.2-10.3-5.1-2.3-13.1-4.6-19.5-6.9l-40.8-13.8-162.7-54.6c-1.1-.3-2.1-.2-3.1-.4 .1 .5 .2 1 .2 1.6zm46.1 44.3c.8-.6 2-.6 3.1 .1l.5 .4c.2 .1 .2 .5 .4 .7 .2-.4 .4-.9 .8-1l0 0c6.8-1.5 13.3 1.5 16 8.6 2.1 7.5-1.8 14-8 16.8-7.3 3-15.1-1.4-17.7-7.1-3.6-6.4-.2-15.3 4.7-18.4zm-126.6 0c.8-.6 2-.6 3.1 .1l.5 .3c.2 .1 .2 .5 .4 .7 .2-.4 .4-.9 .8-1 6.8-1.5 13.3 1.5 16.1 8.6 2.1 7.5-1.8 14-8 16.8l0 0c-7.3 3-15.1-1.3-17.7-7.1-3.6-6.4-.2-15.3 4.7-18.4zm37.5-164.1c.4 0 .7 .3 1 1s.4 1.5 .3 2.3l-.2 8c-.1 2-.7 3.6-1.6 3.6L193 135.9c-.7 0-1.4-.6-2-1.7l-.3-.6c-.4-.7-.5-2-.3-3.1l1.2-6.6c.3-1.7 1-2.8 1.8-2.8l53-1.6zm122.3 0c.4 0 .7 .3 1 1s.3 1.5 .3 2.3l-.2 8c0 2-.7 3.6-1.6 3.6l-52.9 1.4c-.7 0-1.4-.6-2-1.7l-.2-.6c-.4-.7-.5-2-.3-3.1l1.2-6.6c.3-1.7 1-2.8 1.8-2.8l0 0 53-1.6zM282.2 35.6c-16.5 .3-33.5 1-49.1 3.3-1.8 .2-4.1 .8-4.7 .9-.2 0-.2 .2-.2 .2-.3 .5-1.4 6.2-1.7 9.6-.9 6.9-1.2 14.2-1.6 21.4 .6-.5 1.3-.8 2.1-.8l109.8-2.5-.8-15.8c-.3-4-.6-8.3-1.3-11.3-.5-1.5 .2-.8-3.9-2.1-14.9-2.9-32.2-2.8-48.6-2.8z"/></svg>