<svg xmlns="http://www.w3.org/2000/svg" viewBox="0 0 560 560"><!--! Font Awesome Pro 7.2.0 by @fontawesome - https://fontawesome.com License - https://fontawesome.com/license (Commercial License) Copyright 2026 Fonticons, Inc. --><path fill="currentColor" d="M401.6 34c1.9-1.4 13.5 1.9 26.9 7.6l105.3 44.7 13.2 5.6c2.6 1.3 3.4 1 7.6 3.6 3.8 2.5 5.5 6.1 6.8 9.1l-.1-.1c3.6 12.1 1.7 21.9 .3 31.9-3.4 19.6-9.7 38.1-17.3 56.1-8 17.8-16.5 35.5-31.1 50.8-3.7 3.7-8 7.5-14.2 9.8-3 1.2-6.8 1.8-10.6 1.2-1.9-.2-3.6-1-5.4-1.7l-3.4-1.6c-8.3-4.1-16.7-8-25.2-10.7-4.2-1.4-8.5-2.5-12.4-2.9-4-.4-6.9 .4-6.5 .7-.4-.1-.1 .8-.3 2.2l.4 7 .8 14.3c1.7 28.5 5 85.6 10.1 171.2l3.4 57.1 .8 14.3 .4 7.1c0 1.5 .3 1.7 .1 4.2-.6 2.2-.2 4.7-1.6 6.7-4.8 7.8-10.7 9.8-15.5 11.9-5.1 2-10 3.3-14.8 4.5-39 7.9-77.2 8.1-115.7 8.3-25-.1-50-1.3-75-2.8-2.3-.1-4.5-.4-6.8-.5-11.1-.8-22.1-1.4-33.2-2.4-4.5-.5-8.7-1.1-13-1.8-6.3-.7-12.6-1.3-18.9-2.2-3.9-.6-7.6-1.8-10.4-3.5l-1.4-.8c-1.2-.7-1.6-1.5-1.5-2.2 0-.2 0-.3 .2-.5 .1-.2 0-.4 .2-.6l7.1-5.4c1.8-1.4 5.6-1.9 9.5-1.3 46.4 6.3 93.8 8.4 140.8 8.7 23.5 0 47.1-.5 70.4-2.3 11.7-.9 23.3-2.2 34.5-4.1 10.7-1.8 23.7-5.1 28.6-9.5 .6-.3 .2-.3 .5-.3 .2 0 .1-.1 .7 .1 0 0-.1 0 0 .1 .1 0 .2 0 .3 0 0-.2 0-.6-.1-2.6l-1.7-28.7-13.6-229.6c-.2-5-.7-9-.7-15 0-3.2 .9-8.2 4.2-11.5 3.1-3.6 7.6-4.8 10.9-5.4 13-.9 22.1 3.2 31.6 6.5 4.7 1.8 9.2 3.9 13.6 6 4.4 2.1 9.7 5 10.3 4.6 3.9 .5 11.6-5.9 16.7-12.7 10.9-14.1 19.2-31.2 26.1-48.5 6.7-17.3 12.3-35.5 14.2-53.3 1.3-8.3-.8-18.9-2.5-17.9-4.4-1.9-48.5-20.6-132.3-56.2-5.7-2.4-11.1-5.1-14.8-7.4-3.7-2.2-5.3-3.9-4.5-4.4l7.6-5.5zM349.8 13.2c4.9-.3 11.9 1.4 16.5 5.1 4.2 3 7.1 7.5 8.8 12.5l.1 0c1.2 .6 1.5 2.5 1.3 4.8 .7 5.2-.7 11.3-2.2 14.1-11.5 34.1-43.3 61.6-79.7 65.8-24.1 4.1-49.1-2-69.6-15.2-.7-.5-1.4-1-2.2-1.5-4-2.7-7.7-5.7-11.2-8.9-.1-.1-.2-.1-.2-.2 0 0-.1-.1-.1-.1-4.5-4.2-8.8-8.7-12.5-13.7-2.4-3.6-4.5-7.4-6.4-11.1-5.1-9.6-8.9-19.9-11.1-30.3-.2-1.1 .1-1.9 0-3L13.5 106.9c-.1-.7-1.5 2.6-1.6 7.1-.2 4.3 .2 9.1 .8 13.8 1.3 9.6 3.7 19.2 6.4 28.8 5.6 19.1 12.9 37.9 22.1 55.1 4.5 8.2 10.5 17.4 15.9 20.7-.2 .7 6 .4 10.5-.1 4.7-.5 9.5-1.2 14.3-2.3 9.6-1.9 19-5 29.8-7.3 5.4-.7 11.1-3.2 20.8 1.4 2.2 1.1 3.5 3.4 5 5.3 .6 2.2 2.1 5 2 6.6 .3 4 .1 6.6-.1 9L125.8 489.4c-.4 7.3-1.2 14.3-2.1 19.2-.9 4.9-1.9 7.3-2.7 6.7l-7.7-6.1c-1.9-1.6-2.6-15.6-1.7-32.6l13.2-237.8c-.3-3.2 .4-2-2.2-2.6-3.3-.1-8.2 1-12.8 2.1-9.4 2.3-19.2 5.2-29.4 7.1-5.1 .9-10.3 1.6-15.6 2-3.1 0-4.3 .5-9 0-4.7-.8-7.5-3-10-4.9-9.1-8.2-13.9-17.2-19-26.3-9.6-18.3-16.7-37.3-22.4-56.8-2.8-9.8-5.1-19.8-6.5-30.2-.6-5.2-1.2-10.5-.8-16.3 .2-2.9 .6-5.9 1.7-9.3 1-3.3 4.1-7.7 8.3-9.9L185.3 13.4c76.6-.1 127.3-.2 152.1-.2l12.5 0zm-5.2 163.4c.8 0 1.5 .3 2 1 .1 .1 .1 .2 .1 .2 7.5-.4 15-.9 22.8-.9l9.1 .2 5.9 .3c1.9 .2 4.7-.5 3.9 2.3l0 43.8c0 .7-.4 1.3-1 1.7s-1.5 .6-2.4 .6l-8-.7c-2-.2-3.5-1.5-3.5-3.1l.1-25.1 0-4.8s-.1-.3-.1-.5l-4.9 .1c-15.1 0-30.8 1.7-47.1 1.4 .4 13.7 .7 24.8 1 33.3l.1 3 .1 .2 .2 .1 2.7 2.1 22.6 17.3c1.2 1 2.1 2.4 2.3 4l.1 .8c.2 1.1-.4 2.2-1.4 2.8l-6 3.7c-1.5 .9-3.4 .9-4.7-.1L315.7 243c-.8-1.1-6.2-3.6-7.9-7.2l-.3-10-.8-29-.2-9.8-.1-6.8c.2-1-.5-2.7 .3-3.1l3.4 0 34.6-.4zM335 28c-26 0-72.7 .1-140.1 .2 .7 1.1 1.4 2.3 1.8 3.7 5.7 17.8 16.3 33.8 31.3 44.4 14.9 10.7 33.4 16.1 51.9 15.8 35.8 0 70-23.1 81.5-56.7-.9-2.6-2.7-4.8-5.2-6.2-3.2-2.3-13.2-.9-21.1-1.3z"/></svg>