<svg xmlns="http://www.w3.org/2000/svg" viewBox="0 0 616 560"><!--! Font Awesome Pro 7.2.0 by @fontawesome - https://fontawesome.com License - https://fontawesome.com/license (Commercial License) Copyright 2026 Fonticons, Inc. --><path fill="currentColor" d="M485.6 36.9c9 0 17.8 .3 24 1s9.3 1.5 8.6 2.3l-6.8 8c-1.7 2-19.1 3.6-40.2 3.6l-50.3 .1 28.9 145.7c.2 1-.2 1.8-.3 2.8 2 1.5 3.7 3.6 4.8 6.3 1.1 3 2.1 5.3 2.5 5.9 .6 1.1 1.1 2.3 1.8 3.3 1.2 2.1 2.7 4.2 4.3 6.1 3.1 3.8 6.8 7.3 11 10.1 8.4 5.6 18.5 9.2 29 11 21.2 3.8 43.7 1.4 58.2-12.5 14.8-13.4 19.2-36 13-55.6-7.2-20.7-16.1-43-24-64.3-3.5-9.2-6.7-18.3-9.5-26.9L528.1 52.4c-.5-1.2-.3-2.6 .4-3.9l.3-.7c.3-.5 1-.7 1.7-1 .1-.1 .2-.3 .4-.2 .3-.1 .4-.4 .7-.4l6.9-.5c1.8-.1 3.2 .6 3.7 1.9l34.7 87.6c.2 .6 .1 1.3-.3 1.9-.1 .2-.3 .2-.5 .4 4.8 12.5 9.6 25.1 13.7 39.1 5.5 23.7-1.6 51.6-21.7 67.5-3.2 2.6-6.6 4.7-10.1 6.6 .3 1.3 .6 2.6 .6 4.1l0 258.4 24.5-.1c3.6 0 7 .4 9.5 1l0 0c2.5 .6 3.7 1.5 3.4 2.3l-2.8 8c-.7 2-7.7 3.6-16 3.6L46.6 529.5c-7.3 0-14.4-.6-19.9-1.7l-2.7-.5c-3.7-.7-5-2-3.2-3.1l11.4-6.6c2.9-1.7 9.8-2.8 17.4-2.8l86-.2-2.5-3.8c-1.7-2.5-2.7-8.5-2.7-15 .5-90.3 .8-137.8 .8-142.6 .3-4.9-.9-8.5 2-17.3 3.7-6.4 9-9.9 13.9-12.4 19.9-8.7 39.7-9.7 59.5-9.3 9.9 .3 19.8 1.4 29.8 3.8 9.6 2.9 20.9 4.6 29.1 17.8 3.1 9 1.7 12.5 2 17.4 0 2.4-.4 76.3-.9 157.4 0 1.4-.3 2.4-.4 3.6l277.7-.8c0-.4-.2-.7-.2-1.2l.2-255.7c-15 4.2-31.1 3.6-45.5 .8-11.7-2.2-23.4-6.5-33.6-13.6-5.1-3.5-9.8-7.9-13.7-12.8-2-2.5-3.7-5.1-5.3-7.8-1.2-1.9-3-5.7-3.2-6.3-.1-1.5-2-1-2.1 .1-2.9 5.7-7.7 12.3-12.3 17.9-9.8 11.3-23.4 20.2-38.7 23.1-15.2 3.1-31.1 .5-44.7-6-6.8-3.4-13.2-7.6-18.7-12.9-2.7-2.7-5.5-5.3-7.7-8.5-1.1-1.6-2.4-3-3.4-4.6l-1.9-3.4c-.5-.9-1.3-1.3-2.2 1-3.7 6.6-9.3 12.2-15.3 16.6-12.2 8.9-26.9 13-41.2 14-14.4 .9-28.9-1.3-42.4-6.8-6.7-2.8-13.2-6.5-19-11.5-2.7-2.8-5.8-5.1-7.9-8.6l-3.4-4.9c-.9-1.9-1.7-4.1-1.6-3.8-.1-.4-.4-.8-.9-.6-.2 .1-.3 .3-.4 .4l-1.9 2.8c-4.2 7.1-10.2 13.1-16.2 19.1-12.8 11-29.6 18.4-46.9 18.6-9.9 .3-19.5-1.8-28.5-5.3 0 .2 .1 .4 .1 .7l1.6 250c0 1.7-.3 3.3-1 4.5s-1.5 1.7-2.3 1.6l-8-1.3c-2-.3-3.6-3.6-3.6-7.5l-1.4-249c0-2.2 .6-4 1.1-6-16.3-10.6-28.9-27-33.2-46.4-4.6-16.8 0-35.2 5.1-49.7 9.5-27.5 20.9-60.5 34.2-98.9l2.5-7.3c1.4-3.4 1.6-8.4 6.4-6.9l26.8 0 372-.5zM202.5 328.8c-17.7-.2-37.5 1.8-51 9.3-1.5 1-3.2 1.9-3.6 2.9-1.2 .9-1.3 1.8-1.3 2.4-.7 2.4-.2 8.8-.4 13l-.2 28.5-.7 113.9c0 5.7-.6 11.2-1.6 15.7l109.1-.4c-.6-2.5-.9-5.7-.9-9.2l.7-113.4 .2-28.4c-.3-8.7 1.2-21.7-1.8-22.6-4-4.3-13.2-7.3-21.5-9.1-8.7-1.6-17.8-2.7-26.9-2.7zM315 284.3c39.9-9.3 78.4-7.8 117.4-5.8 19.5 1.6 38.8 3.4 58.6 9.2 4.9 1.5 9.9 3.3 15.4 7.2 2.7 1.6 5.9 6.5 6.3 10.7 .5 4.1 .2 5.3 .3 8.1l.2 28.8 0-.1 .3 57.7c-.3 4.5 1 10.1-2 17.6-3.4 7.7-11.1 10.9-16.5 12.3-11.1 2.4-20.9 2.3-30.7 2.3-35.4-.5-70.1-1.5-104.9-1.3-.1 0-.2 .1-.3 .1-2-.1-4-.1-6-.1-1.4 0-2.8 0-4.2 0-.6 0-1.2-.1-1.8-.1-9.9 .1-20 .2-31.8-3.3-4.1-1.5-9-4.6-11.6-9.5-2.8-4.6-3-10.1-3-13.5l-.2-20.8-.5-83.2c0-2.3 .6-4.5 1.7-6.3l.6-.8c.1-.1 .3-.2 .4-.3 1.6-3.2 6.8-7.7 12.4-8.9zm54.7 8c-18.6 .9-38.9 2.1-54.4 7.7-.3 .1-.5 .2-.8 .4 0 .3 .2 .5 .2 .7l.8 104.9c.6 5.5 1.1 6.4 6.3 8.2 10.6 2.7 25.4 1.8 39.2 2.2 35.6-.1 71.5 1 106.6 1.3 9.2-.1 19.4-.2 26.2-2.7 3.4-1.5 4.2-2.1 4.8-5 .3-2.9 .3-8.3 .2-13.1-.3-43.6-.5-72.7-.5-87.2 0-3.5 0-2-.2-2.6-.1-.1-1.6-1.3-3.2-2.1-3.3-1.7-7.6-3.2-12-4.3-17.7-4.5-37-6.5-55.9-7.7-19.1-1.2-38.2-1.4-57.2-.7zm99.8 40.4c.6 .4 1.2 1 1.6 1.8l0 0 3.7 7.1c.9 1.8 .8 3.6-.2 4.2-21.4 13.4-43.5 27-62.5 42.2-.7 .6-1.8 .8-3.1 .4l-.7-.2c-.9-.3-1.8-1.1-2.4-2.1l-3-6.1c-.7-1.6-.6-3.1 .2-3.9 20.8-16.6 42.6-30 64.6-43.8 .5-.3 1.1-.2 1.7 .2zm-249.7 38c.3 0 .5 .3 .7 1s.2 1.5 .2 2.3l-.6 8c-.1 2-.7 3.5-1.4 3.6L179.1 388c-.6 0-1.1-.6-1.6-1.7l-.2-.5c-.3-.7-.6-2-.5-3.1l.3-6.6c.1-1.7 .5-2.8 1.1-2.8l41.6-2.5 0 0zm162.8-38.2c.5 .4 1 1.1 1.4 1.9l0 0 3.7 7.2c.9 1.8 1.1 3.4 .5 3.9l-37.6 25.3c-.5 .4-1.4 .1-2.4-.5l-.5-.3c-.7-.5-1.5-1.4-2-2.4l-2.9-6c-.7-1.5-.8-2.8-.3-3.1l38.8-26.3c.3-.2 .7 0 1.2 .4zM321.3 52l0 .1 .9 155c0 .8-.5 1.5-.7 2.3 .9 1 2.1 1.6 2.8 3l3.2 5.7c.8 1.3 1.8 2.4 2.7 3.6 1.7 2.5 3.9 4.6 6.1 6.8 4.4 4.2 9.6 7.7 15 10.4 11 5.3 23.6 7.2 35.3 4.8 11.8-2.2 22.4-9.1 30.5-18.4 4-5.1 7.5-9.4 10.9-16.1l0 0c2-4.2 4.6-6.9 7.6-8.7-.1-.4-.4-.7-.5-1L405.7 51.9 321.3 52zm-215 .2l-11.4 0c-1.8 0-1.3 0-1.6 .6L86 73.6 56.2 159.8c-4.4 13.6-6.1 27.2-2.3 40.4 6.8 26.4 34.3 45.8 61.2 44 13.4-.7 26.2-6.6 36.5-15.6 4.9-4.8 9.8-9.8 13.4-16l4.8-7c1.7-2.1 3.6-3.2 5.7-4.1l30.3-149.4-99.6 .1zM221 52L189.8 204.8c1.1 1.3 2 2.9 2.6 4.9l2.2 5.5 2.4 3.3c1.2 2.4 3.7 4.1 5.6 6.1 4.3 3.7 9.5 6.7 15 9 11.2 4.5 23.7 6.4 35.8 5.7 12.1-.7 24.1-4.3 33.4-11.1 4.6-3.4 8.7-7.5 11.4-12.4 .8-1.1 2.9-5.5 4.7-7.3l0 0c1.2-1.3 2.9-1.7 4.5-2.4L306.4 51.9 221 52z"/></svg>