<svg xmlns="http://www.w3.org/2000/svg" viewBox="0 0 616 560"><!--! Font Awesome Pro 7.2.0 by @fontawesome - https://fontawesome.com License - https://fontawesome.com/license (Commercial License) Copyright 2026 Fonticons, Inc. --><path fill="currentColor" d="M269.1 187.6c31.9 .5 62.8 .9 94.7 .3 7.8-.8 14.5 7.5 15.3 12.4 1.6 5.1 1.9 9.5 2.1 13.8l.4 24.1-.1 0 .7 47.9 .5 95.8-.5 48-.7 24.1-.6 12.1-.5 6.2c-.2 2.3-.2 3.3-1 8-.8 8.6-7.6 11.5-16.1 10.5l-11.9 .1c-11.9 .1-35.8 .4-71.6 .8-7.5 .1-14.6-.3-21.1-.8l-6.6 .1c-1.4-.1-8.3 .7-11.5-1.8-3.8-2.3-6.1-6.6-6-11.2L233.6 229c0-3.6 .4-7.1 1-10.3l0-10.9c.1-2.2 0-4.5 1.1-7.8 .6-3.3 3.1-6.7 6.2-8.6 6.3-3.4 10.7-3.2 15-3.7 4.3-.3 8.3-.3 12.3-.2zM515.7 64.3c21.2 .3 40.6 .3 63.2-.1 8.9-.4 13.9 10.6 14.4 14.4 1.3 5 2 9.6 2.5 14.2 .9 9.1 1.1 18 1.3 26.8l.1 52.4 .9 104.8 0 0 0 104.8-.8 52.5-1 26.4-.9 13.5c0 1.5-.8 6.9-2 10.6-.5 2.1-3.6 1.2-3.4 4.4l-5.2 1.8-29.2-.2c-7.4-.1-14.5-.4-21.2-.8l-43.9 .4c-1.3 0-2.5-.6-3.4-1.8l-.5-.5c-.6-.7-.8-2-.5-3.1l2-6.6c.5-1.7 1.7-2.8 3.1-2.8l89.2-1 .2-1.9 .9-12.7 .9-26 .7-52.3 0-104.6-.9-104.7-.1-52.4c-.1-8.6-.4-17.2-1.2-25.5-.5-8.1-3.5-17.6-3.7-15.2-19.5 .4-42.2 .4-63.1 .1l-31.8-.4c-5.1 0-10.5 .1-14.5 .8-4.3 1.5-2.3-.8-3.3 3.7 1 63.4 3.3 190.8 6.9 382.2 .1 6.4-.1 12.6-.7 17-.6 4.4-1.4 6.6-2.2 6.1l-8.1-4.7c-2-1.2-3.7-13.5-4-28.5l-4.6-250.1c-.5-42.2-2.1-82.2-1.7-126.2 .8-3.7 2.7-9.1 7.4-11.4 4.1-2.3 7.5-2.6 10.4-3.1 5.8-.5 11.2-.6 16.5-.6l31.4 .4zM64.1 306.5l45.6 .5c.8 0 1.6 .1 2.4 .1l18.2-.1c1.5 0 3 .6 4.1 1.7l.5 .5c.3 .3 .2 .9 .3 1.3 .2 .1 0 .3 .1 .5 0 .4 .4 .8 .3 1.3l-2.3 6.6c-.6 1.7-2 2.8-3.6 2.8l-55.3 .3c-9.1 0-18.4-.1-27.1 .3-4.3 .1-8.7 .7-11 1.6-1.4 .4-.6 .6-.9 .5 0 .4-.4 1.5-.4 3.4 0 .6-.4 1.2-1 1.6-.1 .1-.2 .1-.3 .1 0 .4-.1 .7-.1 1.2l-.1 90.5c.1 15-.2 30.3 1 44.5 .2 3.4 .9 7 1.6 8.7l3 0 22.7 .1 88 .2c.3 .1 .3-.2 .3-.4 .4-2.2 .7-6 .9-9 .5-6.5 .7-13.2 .8-19.9l.1-40.3c0-27-1.7-53.7-.5-81.4 .1-3.6 .5-7.1 1.2-9.5s1.6-3.6 2.4-3.3l8 3.1 .1 0c2 .8 3.4 7.6 3.2 15.7-1 25.6 .8 52.1 .7 78.1l-.2 39.3c-.2 6.6-.4 13.2-.9 19.9-.3 3.6-.4 6.1-1.3 11-.7 6.1-4.2 11.5-10.2 11.5l-93.5-.2-22.8-.1c-1.4-.1-4.9 .4-8.9-1.7-4-2.1-6.1-5.9-7-8.4-1.9-5.3-2-9.1-2.5-13.2-1.1-15.9-.8-31-.9-46.3l.2-91.5c.1-3.7 .2-11 6.5-16.2 6-4.4 10.9-4.5 15-5 8.4-.8 16-.6 23.7-.6zM267 202.4c-3.9 0-7.8 0-11.4 .4-3.6 .3-6.4 1.2-5.8 1.2l.1 0c-.1-.5-.5 2.9-.4 6.8l0 12.1c0 8.1 .2 88.9 .5 242.3 0 3.2-.2 6.2-.4 8.9l0 1.4c0 .2 0 .4 .2 .4 .4 0-.7 0 3 0 12.9-.2 72.4-1 108.6-1.5 1.5 0 2.7 .3 4 .5 0-.4 .1-.7 .2-1.6 2.5-30.5 2.2-62.4 2.5-93.8l-.5-94.5c-.5-35.5-.8-59.1-1-70.7-.1-3.6-.6-7.2-1.4-9.7-1.1-2.8-.8-1.6-1.4-2-31.9 .7-64.9 .1-96.7-.3z"/></svg>