<svg xmlns="http://www.w3.org/2000/svg" viewBox="0 0 560 560"><!--! Font Awesome Pro 7.2.0 by @fontawesome - https://fontawesome.com License - https://fontawesome.com/license (Commercial License) Copyright 2026 Fonticons, Inc. --><path fill="currentColor" d="M200.7 104.4c35.3-14.4 74.5-19.8 112.2-13.6 76 10.9 143 67.7 165.9 141.3 5.3 18.3 9.6 37.2 9.7 56.4 .7 18.9 .1 37 .2 55.6l-.4 110.7c0 4.4-.3 8.3-.7 11.9l15.5 .1 8.4 .2c3.8 0 7.5 0 11.2 0 2.1 .1 4.3 .4 6.5 .7l.4 0c3.4 .4 5.6 0 11.5 2.4 5.7 .9 8.9 6.2 8.3 11.3-.7 4.1-.4 6.6-.2 9.5l.9 17.3c.5 11.6 1 23.1 .8 35-.1 3.9-.6 7.6-1.7 10.8l0 .1c-.3 .9-1 2-1.7 3.1-.2 .4-.4 .7-.6 1.1-.2 .2-.2 .4-.4 .7-.1 .1-.1 .1-.2 .2-1.3 2.2-3.2 3.8-6.1 3.7l-16.5 0c-.9 0-1.6 .1-2.5 .1l-415.2 .9-69.2 .2-8.6 0c-5.5 .6-11.3-.8-13.6-6-1.2-2.2-2.2-5.8-2.5-7.4l-.9-4.8c-.5-3.1-.8-6.1-1-9.1-1-12-1-23.8-.5-35.7 .3-4.7 1-9.2 1.9-13.5 .3-2.7 .7-5.3 1.5-8.7 1.1-5.9 5-10.9 10.7-11.2l250.1-.5c59.3 0 118.4-.5 177.8-.4l16.5-.1 6.6 0c-1-4.8-1.7-12.7-1.6-22l.4-109.8c-.2-18.2 .7-37-.7-54.4-1.6-17.6-5-35.1-11.4-51.5-24.1-66.6-87.6-117.2-158.2-124.5-70.4-8.8-143.6 24.8-182.6 84-19.3 29.4-31 63.9-32 99.1-.9 36-.6 73.2-.9 109.7 0 4-.2 7.8-.4 11.7l.1 25.8c0 1.8-.6 3.6-1.7 5l-.6 .7c-.3 .4-.9 .2-1.4 .3-.4 .6-.7 .6-1.1 .2-.2 0-.4 .2-.6 .1l-6.6-3c-1.7-.8-2.8-2.5-2.8-4.5L72.4 299c0-.9 .4-1.8 1-2.4 .2-.2 .6-.2 .9-.4 .1-5 .1-10 .2-15 2.2-38 15.9-75.3 38.1-106.2 22-31.2 53.1-55.6 88.1-70.7zM440.5 481.5l-114.5 .6-274.5 1c-5 0-9.7-.3-14.2-.8l-9.1 0c-.4-.1-.5 .3-.6 .6-.5 1.9-1 5.2-1.3 8-.6 5.9-1 12-1.1 18-.2 12.1 0 24.7 1.8 36 .7 3.7 .6 3 .8 3.3 .4 .1-.5 0 3.8 0 9.4 0 28.1 0 56.2 0 80.2-.1 219.8-.2 418.7-.4l20.7 0 0 0 7.2 0 0-.1 .2-6.7c.1-12.8 .1-25.2 .4-35.9 0-.8 0-1.5-.1-2.3l-.9-17c.2-3.2 .4-2.2-.1-2.9-.7-.2 .1-.2-3.4-.5-13.4-1.1-27.7-1.2-42.1-1.2l-48.2 .1zM275.7 152.9c1.4-.1 2.8 .2 3.7 .8s1.5 1.4 1.3 2.3l-1 8.1c-.2 2-2.7 3.7-5.6 3.9-30.8 1.7-60.8 14.9-82.5 36.8-21.8 21.7-35.2 51.3-37.1 81.8-.1 2.5-.8 4.9-2.1 6.9l-.6 .9-.1 0c-.8 1.3-2.1 1.8-3.1 1.1l-6.4-4.3c-1.6-1.1-2.6-3.8-2.5-6.8 2.4-34.2 17.8-67.4 42.7-91.4 24.6-24.2 58.5-38.9 93.2-40.1zM511.6 90.6c.6 .3 1.3 .8 1.9 1.4l5.4 5.9c1.4 1.5 1.9 3.1 1.3 3.8l-40.8 42.5c-.6 .6-1.5 .7-2.8 .4l-.6-.2c-.8-.2-1.8-1.1-2.4-2l-.1 0-3.7-5.6c-.9-1.4-1.2-2.7-.6-3.4l40.9-42.9c.3-.3 .8-.3 1.5 0zM52.9 92.2l42.8 40.4c.6 .6 .7 1.5 .4 2.8l-.2 .6c-.2 .8-1 1.8-1.9 2.4l-5.6 3.8c-1.4 1-2.7 1.2-3.4 .7l0 0-43.2-40.6c-.3-.3-.3-.8-.1-1.4s.7-1.3 1.4-1.9l5.9-5.5c1.5-1.4 3.1-1.9 3.8-1.3zM287.1-4.4c2 .1 3.6 .9 3.6 1.8l1.2 58.9c0 .8-.6 1.6-1.7 2.2l-.5 .3c-.7 .4-2 .5-3.1 .3l-6.6-1.3c-1.7-.3-2.8-1.1-2.8-1.9L275.7-3.4c0-.4 .4-.8 1-1s1.5-.4 2.3-.4l8 .3z"/></svg>