<svg xmlns="http://www.w3.org/2000/svg" viewBox="0 0 560 560"><!--! Font Awesome Pro 7.2.0 by @fontawesome - https://fontawesome.com License - https://fontawesome.com/license (Commercial License) Copyright 2026 Fonticons, Inc. --><path fill="currentColor" d="M483 320.8c7.4 .5 14.7 .5 22.7 4.7 8.6 3.9 13 15.6 12.1 23.2-.3 7.7-2.5 14.8-2.9 19.7 .2 2.4-.6 .6 1.5 3.2 1.8 1.7 4.2 3.5 6.8 5.3l8.4 5.9 0 .1c2.4 1.5 9.3 7.9 7.7 13.8-1.8 8.8-2.8 14.5-7.8 21.9-4.3 7.1-14.2 12.1-22.5 11.2-8.3-.4-15-3.3-21.1-6.3-3.1-1.5-6-3.2-8.8-4.8l-3.9-2.2c-.2-.1-.4-.2-.5-.1-32.6 7.7-67.6 18.6-101.6 29.2 12.5 5.2 24.9 10.7 37.2 16.1l20.3 9 10.1 4.3c3.5 1.4 3 1.3 3.7 1.4l.2-.5 .1-.3c.5-.6 1-1.3 1.5-1.9 2.1-2.4 4.4-4.3 6.9-5.9 4.9-3.3 10.5-5.4 16.4-6.3 11.8-2 24.2 2.5 32.7 10.2 4.3 4 8.9 10.3 8.7 18-.2 7.6-4 13.2-7.4 17.5-3.6 4.3-7.7 7.9-11.2 11-.4 .6-.9 .1 .4 1.9 3.2 4.8 6.4 10.3 6.5 17.4 .5 6.8-2.4 14.1-7 18.6-9.1 9.5-21.3 12.1-32.8 11.4-11.6-1-23.1-6.9-30.3-16.2-3.8-4.5-6.2-9.4-8.3-14.5-1-2.6-1.9-5.2-2.5-7.9l-.8-3.6-57.1-23c-20.1-8.9-41.7-14.3-62.4-21.6-5.6-1.8-10.8-4.2-14.9-6.6l-38.4 12.3-57.9 17.9c-18.6 5.9-37.1 13.9-55.3 22.1L117.8 533c.8-1.8-3.2 5-5.9 9.2-6.7 8.7-14.5 17.5-26.1 22.3-11.5 5-26.1 3.3-36.4-4.1-5.2-3.7-9.7-8.4-12.3-14.9-1.5-3-2.1-6.9-2.1-10.8 .3-2.1 .6-4.2 1.2-6.2l1.6-2.9c.1-.2 .5-.9 .8-1.3l-1-.7c-1.9-1.3-3.9-2.8-5.9-4.7-7.8-8.6-11.2-16.5-11.8-28.2 0-5.6 2.3-12.4 7.1-16.8 4.7-4.4 10.2-6.1 15.2-7.1 10-1.4 18.6-.6 27.8 1.4 8.5 1.9 17.1 6.5 21.3 12.9 4.2 6.4 3.2 10.7 2.4 9.9-3.3-1.9-6.7-2.7-9.8-2.5-1.7-.2-11.5-7-28.8-7.5-6.3-.4-13.1 .2-16.7 2.7-3.7 2-4.4 6.2-3.2 11.8 1.6 5.6 4.2 11.1 8.5 14.2 1.6 1.2 1.4 1.2 4.9 3.3 2.8 1.7 5.8 3.5 7.2 5.5 1.6 1.6 2.3 5 1.6 6.6-1.7 2.1-3 4.2-5.4 6.4-2.4 2-1.1 1.2-1.6 1.7l-.5 .5c0 .5-.1 1.1-.2 1.6 .2 1.2 .1 2.7 1 4.3 1.2 3.2 4 6.3 7.2 8.5 6.5 4.5 14.8 5.6 22.3 2.4 7.6-3.1 14-9.9 19.6-17.1l3.7-6c.8-.8 3.3-7.3 7.9-8l13.8-6.5c18.5-8.3 37.2-16.4 57-22.8l57.8-17.9 115.3-37c39-12.1 76-24.2 117.8-34.1 3 0 5.8 .6 8.6 1.9l4.5 2.5c2.8 1.6 5.4 3.1 8.1 4.4 5.2 2.6 10.6 4.6 15.1 4.8 4.5 .1 7.2-1.3 9.8-5 2.6-3 4.2-10.3 4.9-13.8 0-.1-.1-.3-.1-.4l-1.6-1.4-7.8-5.4c-2.8-2-5.8-4-8.8-6.9-2.8-1.8-7-10.2-5.9-14.6 2.5-15.7 5.4-26.1-1.6-29-3.6-2.1-10-2.7-15.5-2.9-5.4 0-10.9 1.3-15.2 3.7-4.7 2.8-6.7 5.1-7.5 9.9-.4 2.3-.4 4.8 0 7.2 .1 1 .4 2.1 1.8 5.5l5.8 9.4-27.5 10.6-19.6 7.2-39.2 13.8-78.6 26.5-157.3 52.1c-14.8 5-29.3 9.3-40.9 12.1L99.2 495c-7.8 1.9-10.8 1.7-7.4-.7l20.8-14.2c5.3-3.6 18.9-9.4 34.5-14.7l154.3-51.1 76.9-26 38.3-13.4 19-7 9.4-3.6c1.5-.6 1.5-.5 1.8-.7 .1 .3 .2 .3 .1-.1 0 0-.1 .1-.1 .1-.6-1.5-2.6-10.7-1-17 .9-8.3 7.9-16.9 14.8-20.2 7.1-4 14.8-5.6 22.4-5.7zM367.5 459.6c-13.3 4.8-26.4 10.9-41 15.2 13.6 4.3 27.2 8.7 40.3 14.5l64.1 25.9 .9 6.8 .8 3.7c.5 2.1 1.2 4.1 1.9 6.1 1.6 3.9 3.6 7.8 6.2 10.8 4.8 6.1 12.1 9.8 19.9 10.6 7.7 .5 16.3-1.9 20.7-6.8 4.6-4.6 3.8-10.6-.7-17.2-1.8-2.3-5.3-7.2-5-11.2 .4-4.2 3.1-7.6 6.8-10.6 3.8-3.2 7-6.1 9.6-9.2 5.3-7 5.4-10.1 .2-15.1-5.9-5.1-13.2-7.8-20.6-6.5-3.7 .6-7.3 2-10.4 4-1.5 1-2.9 2.2-4 3.4-.3 .3-.5 .6-.7 .9-.8 .8-1.2 2-1.7 3.4l-2.6 7.5-18.1-7.1-10.9-4.7-21.5-9.5c-11.4-5-22.8-9.9-34.2-14.7zM94.3 330.4c7.5-1.3 14.1 1.2 19.1 4.2 5.4 3.3 8.8 6.1 13.3 11.5 4.1 5.9 5.3 12.3 5.3 18.3 0 3-.3 6.1-1.1 9.1l-.2 .7 65.5 22.6c4.7 1.6 9.1 3.8 12.3 6.1l1.6 1.1c2.2 1.6 2.6 3 1.1 3.6l-9.4 3.7c-2.4 1-7.2 .4-12.2-1.3l-79.8-27.7c2.4-4 6.1-9.2 6.9-12.6 .5-1.8 .7-3.7 .7-5.5 0-3.7-.9-7.4-2.6-9.6-4.4-5.4-13.2-11-17.7-9.7-4.4 .3-8.6 8.3-10.1 16.7-.9 4.2-1.4 8.8-1.6 13.3l-.1 3.4c-.1 2.1-.1 4.7-.7 6.6-1 4.4-5.3 6.4-9.5 7.6-6.3 1.6-9.5 2.4-13.8 4-3.8 1.5-7.1 3.6-8.4 5.4-2.2 .9 1.1 13.8 4.4 18.8 3.5 5.7 8.6 6.5 16.8 3.9 3.8-1.2 7.8-3.2 11.8-5.4l6.2-3.6c1.2-.7 1.9-1.1 3.8-2.1 2.1-1.3 4.6-1 6.8-1.6 22.3 3 38.4 10.9 56.2 15.7 2.3 .6 4.4 1.6 5.8 2.6 1.4 1 2 2 1.6 2.8l-3.7 7.4c-.9 1.8-6.1 2.1-11.8 .4-16.7-5.1-33.9-12.1-48.2-13.9 .9-.8-5.7 3.2-9.5 5.3-4.4 2.4-9.1 4.9-14.4 6.5-5.2 1.7-11.3 3-17.9 1.4-6.6-1.3-12.8-6.1-15.7-11.3l-.1 0c-3.5-5.2-5.2-10.6-6.2-15.8-1.2-3.9-2.9-13.3 2.1-19.7 9.2-11.2 21.5-12.5 29.2-14.8 .2-.1 .5-.1 .5-.4l.2-4.2c.3-5.1 .8-10.3 1.9-15.5 1-5.2 2.7-10.6 5.7-15.9 2.8-5.2 8.5-11 16.2-12.3zM281.3-7.9c37.2 1.3 74.5 9.6 107.7 27.6 28.3 14.8 53.6 38.3 68 67.8 2 .1 4.4 2.9 5.3 7 1.1 4.5 1.9 9 2.6 13.5 1.3 4.3 2.4 8.7 2.8 13 .8 5.3 1.2 10.3 .9 14.8l.9 8.6c.7 6.5-.3 11.6-.3 17.5-1.4 22.7-7.7 45.7-19.6 65.7-11.6 20.2-28.5 36.4-45.4 50.6-8.3 7.2-17 14-23.5 21.4-3.2 3.7-5.6 7.4-6.8 11-.7 2.7-.8 8.5-1.2 14.7-.4 3.9-1.2 6.6-2.5 9.3l-.6 1.3c-.8 1.8-2.1 2.4-3.1 1.5l-6.3-5.9c-1.6-1.5-2.3-5.5-2.1-8.9l.3-7.9c.5-3.3 .9-7.1 2.1-10.3 2.6-6.4 6.4-11.5 10.5-15.9 8.1-8.8 16.9-15.5 25.2-22.7 16.7-14 31.7-29.3 41.9-47.5 10.4-18.1 15.6-38.8 16.6-59.8l.4-7.9c.3-2.3-.2-4.5-.4-7.5l-1.8-16.2c-.7-6-1.6-12-2.7-17.9-.6-1.8-1.3-3.6-2-5.5-12.6-32.2-39.4-57.6-70.7-73.2-31.5-15.6-67-23.3-102.3-23.3-35.3-.1-70.9 7.4-101.5 24.3-30.2 16.9-54.8 44.4-63.3 78-4.3 16.6-6.4 34.1-4.6 51.5 1.1 17.3 4.9 34.5 12.6 49.8 7.4 15.5 18.1 29.2 30.7 41.3 12.6 12.4 27.2 22.2 41.3 35.7 6.6 6.5 14.9 15.4 15.3 28.6l-.2 27.4c0 4.4 0 10.5 .1 8.8-1.2-.6 4.1 2.2 7.5 2.9 7.8 2.2 16.7 3.3 25.5 4.2 2.3 .2 4.7 .2 7.1 .4l-1.8-.3c-1.7-.3-2.8-1-2.8-1.7l-.3-51.9c0-.4 .4-.7 1-.8s1.5-.3 2.3-.2l8 .8c2 .2 3.5 1 3.5 1.8l.2 50.8c0 .7-.7 1.4-1.8 1.9l-.4 .2c18.6 1 37.4 1 55.9-.5-.9-.4-1.6-1-1.6-1.6l-1.4-58.7c0-.4 .4-.8 1-1.1s1.5-.5 2.3-.5l8-.1c2 0 3.6 .7 3.6 1.6l1.2 59c7.3-.9 14.6-1.9 21.6-3.4 5.2-1.2 10-2.9 11.8-3.5 .6-.2 .7-.2 .8 0 0 0 1.2 .7 1.5 .8l.2 .2c.2 .1 .5 .1 .6 .1 1.5-.3 4.4 3 4.3 6.3 .4 3.6-11.6 10.7-25.6 12.7-36.9 5.6-73.3 5.7-110.2 1.5-9.4-1.5-18.3-2.4-28.6-7.5-2.4-1-7-4.7-7.7-8.4-.6-1.8-1-4.3-.8-5.7l0-3.4 0-13.6c-.1-8.9 1-19.3-1.3-24.1-2.4-6.2-8.8-12.3-15.4-17.9-27-21.8-58.9-46.8-72.5-83.3-13.6-35.6-15-75-3.2-111.4 12-36.5 40.5-66.5 74.3-82.8 33.7-17.2 71.6-23.5 108.8-22.9zm-3 238.3l.7 .1c.4 0 .7 .6 1.1 .8 2.9-1 5.8-1.2 8.7-.3 .6 0 1.2 0 1.6 .4 .4 .3 .6 .6 1 1 2.2 1.2 4 2.9 5.3 5.1l0 0c2 2.3 3.9 4.9 5.5 7.7 .8 1.4 1.5 2.9 2.1 4.6 .7 1.9 1.2 4.7 1.2 6.9 0 4.8-2.7 9.2-7 11.3-5 2.3-8.1 2.4-10.9 2.8-3 .3-5.9 .3-8.8 .3-3.4-.2-4.5-.1-10.5-1.3-5.1-.9-8.9-3.2-11.2-6.6-1.3-3.8-1.5-7.3 .5-11.4 2.2-4 5.3-8 6.5-9.3 3.4-4 6.9-7.5 10.5-11 1-.9 2.3-1.3 3.8-1.1zm-85.6-70.8c10.4-1.2 20.2 3.1 27.2 8.3 3.8 2.9 6.6 5.2 10.1 9.2 3.4 4.1 5.5 8.8 6.8 13.3 2.5 9 2.5 17.4 2.8 25.2 0 1.2-.4 2.1-.6 3.2 0 .7 0 1.5 .1 2.3 .9 6.1-1.6 12.6-8 14.8-6.5 2.7-9.3 2.2-13.6 2.5-7.8-.1-14.8-1.1-22.7-4-1.3-.6-2.3-1.7-2.8-3.3-5.7-1.6-11.2-3.7-16-7.5-7.4-5.3-13.3-12.9-16.3-22.3-1.4-4.7-1.8-10.2-.2-15.8 .7-2.7 2.6-5.6 4.1-7.6 1.4-1.6 2.8-3.3 4.3-4.9 6.1-6.1 14.2-12.2 24.6-13.4zM361 158.1c9.4-.6 18.4 1.8 26.4 6.7 8.4 4.6 14.4 16 14.2 25.3 .2 9.6-3.1 18.9-8.9 26.4l.1 0c-5.9 7.4-14.1 12.5-22.5 15.3-8.8 2.9-16.4 3.1-24.3 4.3-1.3 .2-2.6 0-3.5-.5-.1-.1-.2-.2-.2-.2l-.8 .1c-7.4 2-12.5-6.4-13.8-12.3-1.2-4.6-1.8-8.9-2.1-13.2-.5-8.7-.6-16.9 2.3-26.6 .2-.5 .7-.9 1.4-1 .1 0 .3 .1 .4 .1 1.6-4.2 3.8-8.1 6.6-11.5 5.9-7.3 15.5-12.3 24.9-12.8z"/></svg>