<svg xmlns="http://www.w3.org/2000/svg" viewBox="0 0 560 560"><!--! Font Awesome Pro 7.2.0 by @fontawesome - https://fontawesome.com License - https://fontawesome.com/license (Commercial License) Copyright 2026 Fonticons, Inc. --><path fill="currentColor" d="M280.4 20.8c121.2-4.7 267.7 80.1 259.6 217.2 .2 81.9-55.7 150-117.5 194.9-6.9 5-12.6 11.7-16.1 19.3-2.9 6.2-4.3 12.6-4.7 17.9-.1 1.5-.2 3-.3 4.3-.6 6.7-1.4 10.2-2.2 9.4-2.6-2.6-5.2-5.1-7.7-7.7-.6-.6-1.1-2.7-1.6-6-1.4-8.3 1.2-25.5 13.5-39 3.2-3.6 6.8-6.9 10.8-9.8 59.8-43.4 112.1-108.4 111.6-183.3 7.5-128-127.8-206.7-245.3-203-117.6-3.5-252.3 75.5-244.6 203-.3 74.6 51.9 139.2 111.6 182.4 15.6 11.1 26.7 29.7 26.7 49.7 0 13.6 0 27.2 .1 40.8 0 1.9 1.2 3.3 2.7 3.6 18.3 3.8 37 6.3 55.8 7.8-.4-22.5-.9-45-1.3-67.5 0-1 .5-2 1.6-2.7 .2-.1 .4-.3 .5-.4 .7-.5 1.9-.7 3-.4 2.1 .5 4.2 1 6.3 1.6 1.6 .4 2.7 1.4 2.7 2.4 .5 22.7 .9 45.4 1.4 68 21.1 1.1 46 1.4 74.4-.5 .2 0 .4-.1 .7-.1-.5-27-1-54-1.5-81 0-.6 .3-1.1 .9-1.5s1.4-.6 2.2-.5c2.6 .1 5.2 .3 7.7 .5 1.9 .1 3.4 1.2 3.4 2.6 .4 26.3 .9 52.6 1.3 79 14.4-1.2 27.8-2.4 39.1-3.7 2.4-.3 4.9-.6 7.3-.9 10-1.4 13.4-1.3 9 1-9.5 4.5-19.5 8.5-29.6 12.1-7.7 2.8-26.7 6.3-48 7.4-11.2 .6-22.3 .9-33.5 .9-35.7 0-71.3-2.5-106.6-9.9-8.1-1.6-14-9.6-13.9-17.5 0-13.6 0-27.2 0-40.8 .1-14.9-8.4-29.4-20.8-38.2-61.7-44.7-117.6-112.4-117.5-193.9-8.4-136.6 137.5-221.6 258.8-217.2zm-1.6 322.9l1 .1c.6 .1 .9 .8 1.5 1.2 4-1.4 8.1-1.7 11.9-.4 .8 .1 1.6 0 2.2 .5 .5 .4 .9 .9 1.3 1.3 3 1.7 5.5 4 7.2 7l0 0c2.8 3.2 5.4 6.7 7.6 10.6 1.1 1.9 2 4 2.9 6.3 .9 2.6 1.7 6.5 1.6 9.5 .1 6.6-3.7 12.6-9.6 15.6-6.8 3.2-11.1 3.3-15 3.9-4.2 .4-8.1 .5-12.1 .4-4.7-.3-6.3-.1-14.4-1.7-7.1-1.2-12.2-4.4-15.4-9.1-1.8-5.2-2.1-10.1 .7-15.7 3-5.5 7.3-11.1 9-12.9 4.7-5.5 9.5-10.3 14.4-15.1 1.3-1.3 3.2-1.8 5.2-1.6zM161 246.3c14.3-1.7 27.8 4.2 37.5 11.5 5.2 3.9 9.1 7.1 13.9 12.6 4.7 5.6 7.6 12.1 9.4 18.3 3.4 12.4 3.4 24 3.9 34.6 .1 1.6-.6 2.9-.9 4.3 .1 1 .1 2.1 .2 3.1 1.2 8.3-2.3 17.3-11 20.4-9 3.8-12.7 3.1-18.6 3.5-10.7-.2-20.4-1.5-31.2-5.5-1.8-.8-3.2-2.3-3.9-4.5-7.8-2.2-15.3-5.2-22-10.4-10.2-7.3-18.4-17.8-22.5-30.7-1.9-6.5-2.5-14.1-.2-21.7 1-3.7 3.6-7.7 5.6-10.4 2-2.2 3.8-4.6 5.9-6.7 8.3-8.4 19.5-16.9 33.9-18.5zm231.4-1.9c13-.9 25.4 2.4 36.3 9.2 11.6 6.4 19.8 22 19.5 34.8 .3 13.3-4.3 26.1-12.3 36.3l.1 0c-8 10.2-19.4 17.2-31 21-12.1 4-22.6 4.3-33.5 5.9-1.8 .2-3.5 0-4.8-.7-.2-.1-.2-.4-.2-.4l-1.2 .2c-10.2 2.7-17.2-8.8-18.9-16.8-1.6-6.3-2.4-12.2-2.9-18.1-.6-11.9-.8-23.2 3.1-36.6 .2-.7 .9-1.3 1.9-1.4 .2 0 .4 .1 .6 .1 2.2-5.7 5.2-11.2 9-15.8 8.1-10.1 21.3-16.9 34.2-17.6z"/></svg>