<svg xmlns="http://www.w3.org/2000/svg" viewBox="0 0 560 560"><!--! Font Awesome Pro 7.2.0 by @fontawesome - https://fontawesome.com License - https://fontawesome.com/license (Commercial License) Copyright 2026 Fonticons, Inc. --><path fill="currentColor" d="M202.9 408.9c21.4-10.1 48-1.5 62 16 .9 1 1.1 2.4 1.2 3.7 6.1 8.4 10 18.5 10.3 29.2 1.7-1 3.8-1.7 6.4-1.8l252.1-6.8c1.7 0 3.4 .3 4.5 .9l0-.1c1.2 .6 1.8 1.4 1.6 2.3l-1.2 8.1c-.3 2-3.5 3.6-7.5 3.7l-250.7 6.6c-2.2 .1-4.1-.6-6.1-1-1.8 9.8-6.1 19.2-12.7 26.9-18.5 20.9-49.7 24-73.1 11.4-11.9-6-21.8-19.2-23.4-32.7-2.3-13.2 0-26.9 6-38.7 1.4-2.7 3.3-4.9 5.3-6.7l0-.1c6.5-8.6 14.8-16.3 25.3-20.9zM249.8 432c-14.1-14.6-37.4-15.8-51.9-1.6-.6 .6-1.3 .8-2 1.2-2.5 2.4-5 5-7 7.9-5 7-7.2 14.5-7.6 23.5 0 .6-.4 1.3-1 1.7-.1 13.3 5.4 25.9 18.1 31.2 17.8 9 43 5.1 54.5-10.5 6-7.7 9.3-17.9 8.8-27.8-.3-9.4-4.8-18.8-12-25.6zM148.6 454.6l0 0c.8 0 1.6 .4 2.2 1s.8 1.5 .8 2.4l-.6 8c-.1 2-1.7 3.5-3.6 3.5l-120.4-.7c-1.6 0-3.2-.6-4.4-1.8l-.6-.5c-.8-.8-1-2-.6-3.1l2.8-6.5c.7-1.7 2.3-2.7 4.1-2.7l120.4 .5zM392 220.7c.7-.1 1.6 .4 2.3 1.3 3.6-.4 7.2-.5 10.8-.1 13.4 1.2 25.4 8.4 34.2 17.8 7.3 8 12.2 18.5 13.6 29.6l82.4 .5c1.2 0 2.3 .7 3.1 1.8l.4 .5c.6 .8 .7 2 .4 3.1l-2.1 6.5c-.6 1.7-1.7 2.8-2.9 2.8l-81.6-.4c-1.7 10.1-5.9 19.9-12.8 27.9-18.4 20.7-49.3 23.8-72.6 11.3-11.8-5.9-21.7-19.1-23.3-32.5-.6-3.5-.8-7.1-.8-10.7-1.9 1.4-5.2 2.4-9 2.5L26.8 289.3c-2.1 0-4.1-.3-5.5-.9s-2.2-1.4-2-2.3l1.5-8.1c.4-2 4.4-3.6 9.2-3.7l305.6-6.4c3.2 0 5.9 .5 8.6 1.2 1.1-5.8 2.9-11.4 5.6-16.7 1.5-3 3.7-5.5 5.9-7.3 8.3-12 20.8-21.3 36.2-24.4zM426.6 248c-13.9-14.5-37-15.6-51.4-1.5-.8 .8-1.7 1.1-2.5 1.5-4.7 4.9-8.5 10.7-10.5 16.8-.1 .3-.5 .4-1.2 .4-.1 0-.3-.1-.5-.1-6.2 17.7-2.2 38.8 15.3 46.1 17.6 8.9 42.6 5 54-10.4 5.9-7.7 9.2-17.8 8.8-27.5-.3-9.3-4.8-18.6-11.9-25.4l0 0zM155.6 45c13.2-2.3 26.7 0 38.5 6 3 1.5 5.3 3.6 7.2 5.9 10.8 7.3 19.3 18 23.4 31.3 .2 .7-.2 1.6-1.2 2.4 1.2 5.2 1.7 10.4 1.1 15.7-1.3 13.4-8.4 25.3-17.8 34.2-9.6 8.7-22.6 14.4-36.3 14.1-13-.4-26-5-36.1-13.7-10.5-9.3-16.4-21.8-18.2-34.8l-92.7-.4c-1.3 0-2.6-.6-3.5-1.8l-.5-.5c-.6-.8-.8-2-.4-3.1l2.3-6.6c.6-1.7 1.9-2.8 3.3-2.8l91.5 .2c.9-8 3-15.8 6.8-22.9 5.9-11.8 19.1-21.7 32.5-23.3zm28.1 17.6c-18.1-7.4-40.8-3.9-48.4 14.4-8.9 17.6-5.1 42.6 10.4 53.9 7.7 5.9 17.8 9.2 27.5 8.8 9.3-.3 18.6-4.8 25.4-11.8 14.5-13.9 15.6-37 1.5-51.4-.8-.8-1.3-1.8-1.7-2.8-4.3-4-9.3-7.4-14.6-9.4-.3-.1-.3-.6-.2-1.2 0-.1 .1-.3 .1-.4zM532.1 86.1c1.9 0 3.8 .3 5.2 .9s2 1.5 1.9 2.3l-1.4 8.1c-.3 2-4.1 3.6-8.6 3.7l-286.6 6.3c-3.9 .1-7.8-.5-10.8-1.5l0 0-1.5-.5c-2-.7-2.7-1.9-1.7-3l6.1-6.7c1.5-1.7 5.3-2.9 9.4-3l288.1-6.5z"/></svg>