<svg xmlns="http://www.w3.org/2000/svg" viewBox="0 0 560 560"><!--! Font Awesome Pro 7.2.0 by @fontawesome - https://fontawesome.com License - https://fontawesome.com/license (Commercial License) Copyright 2026 Fonticons, Inc. --><path fill="currentColor" d="M274.3-4c.7-3.7 2-5 3.1-3.1L284 4.2c1.7 2.9 2.8 9.8 2.8 17.4l.2 40.1 2.1-1.9 14.1-13.5c9.5-9.1 19-18.4 29.5-27.2 .9-.7 1.9-1.1 2.9-1.1s1.8 .4 2.3 1.1l4.3 6.8c1.1 1.7 .4 4.2-1.4 5.7-9.6 8.1-18.7 17-28 25.9l-14.1 13.4-7.6 6.6c-1.3 1-2.3 1.8-4 3l.3 66.8 113.9-87-13 147.8 56.7-34.5c-1.3-4.4 .2-10.1 .4-11.7l1.9-9 3.6-17.6 6.8-35.4c.4-2.2 1.4-4.1 2.8-5.6l.7-.7c.9-1 2.2-1.1 3.2-.4l5.8 4.6c1.5 1.2 2.2 3.5 1.8 5.7l-11.8 60.7 45.9-27.9c6.3-3.8 12.7-7 18.1-8.9l2.6-1c3.6-1.3 5.4-.9 4.3 1l-6.4 11.6c-1.7 3-7 7.5-13.6 11.5l-37 22.5 1.2 .4 21.5 6c14.5 3.9 29.1 7.7 43.8 12.7 1.1 .4 2 1.1 2.5 1.9s.6 1.8 .2 2.5l-3.6 7.3c-.9 1.8-3.4 2.6-5.7 1.8-13.7-4.5-27.9-8.2-42.1-12.1l-21.4-6-10.9-3.4c-.7-.3-1.5-.6-2.2-.9l-59.1 35.9 133.4 55.6-123.2 57.4c-3 1.4-6 2.7-8.9 3.9l58.3 31.3c.9-.6 1.4-1.5 2.4-1.9l5.7-2.2 10-3.4 19.7-6.6 39.2-13.6c2.1-.7 4.3-.8 6.2-.3l1 .2 0 .1c1.3 .3 2.1 1.4 1.9 2.6l-1.1 7.4c-.3 1.9-1.9 3.6-4.1 4.4l-38.9 13.6-19.5 6.6-6.1 2.1 39.4 21.1c6.4 3.5 12.3 7.3 16.7 11l2.2 1.8c2.9 2.4 3.4 4.1 1.3 4.2l-13.1 .4c-3.4 .1-9.9-2.2-16.7-5.8l-35.3-18.9 .6 2.6 5.1 18.8c3.5 12.7 7.1 25.4 9.8 38.7 .2 1.1 .1 2.2-.4 3.1s-1.2 1.4-2.1 1.4l-8.1 .5c-2 .1-3.9-1.6-4.4-4-2.6-12.2-6-24.5-9.4-36.9l-5-18.7-2.2-9.8c-.3-1.6-.5-2.8-.7-4.9l-163.8-87.8 .5 97.7 101.2 70.6-8.2-62.1c-.8-6.2-1-12.2-.5-17.1l.2-2.4c.3-3.3 1.5-4.5 2.7-3.1l7.8 8.8c2 2.3 3.8 7.9 4.7 14.4l12.2 92.8-120-83.8 .3 68.7c.1 0 .2 0 .3 .1 2.2 1.7 4.1 3.4 4.8 4.1l6.1 5.7 12.1 11.3 24.5 22.3c1.6 1.4 2.7 3.3 3.1 5.2l.2 1c.3 1.3-.3 2.5-1.4 2.9l-6.9 2.6c-1.8 .7-4 .1-5.7-1.4l-37.1-33.9 .2 57.1c0 3.6-.3 7.1-1 9.5s-1.5 3.7-2.3 3.4l-8-2.8c-2-.7-3.5-7.6-3.6-16l-.2-51.5-5.2 4.6-16.4 15.3c-10.9 10.3-21.8 20.8-33.7 30.8-.9 .7-1.9 1-2.9 1-1 0-1.8-.5-2.2-1.2l-4.4-6.8c-1.1-1.7-.5-4.1 1.3-5.7 11-9.4 21.6-19.5 32.3-29.7l16.3-15.2 8.6-7.5c1.5-1.2 3-2.5 4.9-3.7 .3-.2 .8-.3 1.1-.5l-.3-67.3-115.1 88.3 9.2-106.8c.3-3.1 .9-6 1.7-8 .8-2 1.7-3 2.6-2.7l7.8 3.1c1.9 .8 2.9 6.8 2.3 13.9l-5.8 68.2 97.2-74.6-.4-97.6-157.9 96c0 .5 0 1 0 1.5l-1 6-2.1 10.4-4.2 20.3-7.9 40.7c-.4 2.2-1.4 4.1-2.8 5.5l-.7 .7c-.9 1-2.2 1.1-3.2 .4l-5.8-4.6c-1.5-1.2-2.2-3.4-1.8-5.7l7.8-40.5 4.1-20.2 .9-4.5-48.4 29.4c-3.1 1.9-6.3 3.4-8.8 4.2-2.5 .7-4 .7-4.2-.2l-1.8-8.3c-.4-2.1 4.8-7 12.1-11.4l43.9-26.7-4.3-1.3-18.9-5.1c-12.7-3.3-25.6-6.6-38.4-11-1.1-.4-2-1.1-2.5-1.9s-.6-1.8-.2-2.5l3.6-7.3c.9-1.8 3.3-2.6 5.6-1.8 11.9 3.9 24.2 7.1 36.6 10.4l18.8 5.1 9.6 3c1.8 .6 2.9 1 5.6 2.2 .2 .1 .3 .3 .5 .4l60.8-37-120.4-48.6c-.8-.4-1.5-1-1.8-1.8-.1-.2 .1-.4 0-.6l-14.6-6.1 128.6-59.9-58.9-31.6c-.1 0-.1 .1-.2 .2-2.5 1-5.9 1.6-6.7 1.9l-8.3 2.2-16.6 4.9c-11.1 3.5-22.1 7.2-33.1 11.1-2 .7-4.2 .8-6.2 .3l-.9-.2c-1.3-.3-2.1-1.4-1.9-2.6l1-7.4c.3-1.9 1.9-3.6 4-4.3 11-3.9 22-7.7 33.1-11.2l16.8-5-48.7-26.1c-3.2-1.7-6.1-3.7-7.9-5.4s-2.5-3-1.9-3.7l6.3-5.8c1.6-1.4 8.4 .5 15.8 4.5l45.4 24.4-1.6-6.9-5.6-21.6c-3.8-14.5-7.9-29-11-44.1-.2-1.1-.1-2.2 .4-3.1 .5-.8 1.2-1.4 2.1-1.4l8.1-.5c2-.1 3.9 1.6 4.4 4 3 14 6.8 28.2 10.6 42.4l5.6 21.5 2.5 11.1c.4 2.1 .7 3.4 1 6.4 .1 .4 0 .8 0 1.2l62.2 33.4-19.1-147 121.3 85-.3-69c-.9-.5-1.9-1-2.8-1.8l-4.7-4-7.8-7.1-15.2-14.1-30.6-28c-1.6-1.5-2.8-3.4-3.3-5.3l-.2-1c-.3-1.3 .2-2.5 1.4-2.9l7-2.5c1.8-.6 4.1-.1 5.8 1.5l30.5 27.8 15.1 14 4.8 4.4-.2-44.7c0-7.3 .6-14.3 1.7-19.9l.5-2.7zM68.4 284.1l66.7 27.8c5.3 2.2 10.2 4.4 15.1 6.7L178 329.8c1.7 .7 3.1 1.9 3.9 3.5l.2 .4 85-51.6-90.4-48.5 0 0-108.3 50.5zm228.6-2.8l89.7 48.1c2.9-3.1 13.1-9.2 26.3-15.3l81.9-38.2 0 0-112.2-46.7-85.8 52.1zm-9.5-115.1l.5 103.2 84.5-51.4 11-125.2-96 73.4zM186.4 221.9l86.8 46.6-.5-98.9-102.5-71.8 16.1 124.2z"/></svg>