<svg xmlns="http://www.w3.org/2000/svg" viewBox="0 0 560 560"><!--! Font Awesome Pro 7.2.0 by @fontawesome - https://fontawesome.com License - https://fontawesome.com/license (Commercial License) Copyright 2026 Fonticons, Inc. --><path fill="currentColor" d="M142.5 86.5c7.8 5 8.5 6.6 12.5 9.6l19.6 16.7c25.8 22.6 50.8 46.4 74 72 5.7 6.4 11.4 13 16.9 19.7l0-.1 8.1 10.3c3.3 4.7 7.9 13.8 2.8 20.1-5 5.8-14.5 6.8-17.9 6.9-4.7 .4-9.1 .3-13.5 .3l-25.7-.8-12.6-.3-6.2 0c-.1 0-.3 .1-.3 .1-.1 .1-.1 .2-.1 .4l.1 6.3 0 12.8c.1 25.5 .3 76.7 .7 153.5l-.3 25.8-.6 13.2c-1.1 5.1 .5 8.4-4.7 16.7-1.8 2.3-4.3 3.9-7.2 4.5-2 .4-4.2 .4-4.9 .4l-6.4 0-12.8 0-25.6 .1c-6.8 0-13.3-.4-17.9-1s-6.9-1.5-6.4-2.3l5.3-8c1.3-2 14.4-3.6 30.2-3.6l25.3 0 9.2 0c.1-.1 .1-.3 .2-.7 .4-1.4 .7-3.2 .8-5.2 1.4-15.7 1-33 1.1-49.6l-.5-100.9-.2-50.5c0-4.6-.2-7.5 .1-13.5 .5-8 9.5-14.2 16-13.3l25.5 .5c8.4 .3 16.8 .7 24.9 .6 3.5-.1 8.9-.4 10.2-.8 1-.1 1.2-.5 1-1-.1-.3-.3-.5-1-1.6l-3.7-4.9-7.8-9.6c-5.3-6.3-10.8-12.6-16.4-18.7-22.5-24.6-46.9-47.5-72.1-69.4l-19.2-16.2-4.1-3.4c-.1-.1-.3-.3-.5-.1 .7-.5-4.5 2.7-7.2 4.8-12.9 9.7-25.4 21-37.7 32.2-24.5 22.7-48.4 46.4-70.8 71l-8.3 9.3-4 4.7c-.8 1-.3 .4-.5 .7 .3 .3-.7 .1 1.2 .6 1.9 .6 6.7 1.2 10.3 1.4 7.9 .5 16.2 .3 24.5 0l27-.9c3.8 .2 6.8 2.7 9.3 5.3 2.2 3.3 3.3 7.1 3.7 8.8 1.2 4.5 1.7 8.6 2.2 12.8 .9 8.2 1.3 16.2 1.6 24.2 .6 16 .6 31.8 .5 47.7-.1 31.7-.8 63.3-.2 94.5 .2 6.6 .2 13.1 .3 19.2 .1 1.6 .1 3.3 .3 4.9 .6 6.3 1.7 14.6 3.3 17.6 .6 .9-1.3-.7-1.7 .8l-.2 .5c-.2 .7-.5 1.8-1.2 2.7-1.3 1.6-3.1 3.7-5.3 4.5-1.7 .8-4.4-.8-5-2.3-5.9-17-5-30.2-6.2-45-.6-14.4-.8-28.7-1-43 0-.6 .4-1.1 1-1.5 .2-.1 .4-.1 .6-.1 .1-18.6 .3-37.1 .3-55.6 0-15.3 0-30.5-.6-45.7-.3-7.6-.7-15.1-1.6-22.4-.4-3.6-1-7.3-1.8-10.3-.8-3.3-.6-2.2-1.4-2.7l-24 .9c-8.6 .3-17.3 .5-26.3-.1-4.8-.5-8.5-.4-14.8-2.5-6.4-2-13.3-9-10.2-16.5 4-8.1 6.6-10.2 9.4-13.6l8.6-9.7c23.3-25.4 47.6-49.5 72.9-72.8 12.8-11.6 25.3-23 39.9-33.5 2.1-1.4 3.3-2.4 6.6-4 3.2-2.1 7.4-2.9 10.9-1.7zM421.8 85c6.8 0 13.3 .3 17.9 1 4.6 .6 6.9 1.5 6.4 2.3l-5.3 8c-1.3 2-14.4 3.6-30.2 3.6l-33.6 .1c-.3 0-.5 0-.8 0-.4 1.1-.9 3.5-1.1 5.8-.6 5.1-.8 10.6-.9 16.1-.5 22.1-.2 44.6-.1 67l.4 67.2c.2 57.4 .2 51.8 .2 58.8l-.1 4.7c-.1 2.6-1 5.2-2.4 7.4-2.7 4.4-8.4 7.1-13.1 6.9l-8.5-.1-16.9-.5c-11.1-.3-22.6-1.1-32.6-.2-4.9 .6-3.8 .6-4.1 1.4-.6-.5 3.6 5.1 6.9 9.2 6.9 8.6 14.1 16.9 21.6 25.1 14.9 16.4 30.8 32 47 47.1l24.8 22.3 24.1 20.3c-2.2 2.2 9.7-5.9 15.8-11.2 7.3-5.9 14.4-12.2 21.5-18.5 14.1-12.7 27.9-25.9 41.4-39.3 13.5-13.4 26.8-27.1 39.4-41.2l9.3-10.6c2.2-2.6 1.1-1.3 1.4-1.8l-.1-.3c.9 .2-3.1-1-7.4-1.4-4.4-.4-8.9-.6-13.6-.6-9.3 0-18.8 .4-28.4 .8l-7.3 .3c-1.4-.3-7.1 1.1-10.9-1.5-4-1.6-6.7-6.4-7.7-10.1-.8-2.8-1.4-5.5-1.8-8-3-20.2-2.8-39.3-3.1-58.6-.2-38.5 .9-76.8 .1-114.8 0-1.7 0-3.2-.1-4.9-.7-13-1.6-26.3-4.4-36.5-.2-.5-.2-1 .1-.9 .4-.2-.1 .2 1-.7l.5 .2c.4 .2 .9 .2 1.3 .2-.1-1-.1-1.5 1.2-1.2 .5-.4 .5-.6 .5-.8l0-.2c-.1-.2-.2-.4-.2-.7 .1 0 .1 .1 .2 .2l0-.9c.4-1.7 3.2-2.7 5-2.8 1.9-.2 4.2 1.7 4.6 3.3 5 19.8 4.7 37 5.8 55.3 .7 18 .9 36 1.1 53.9 0 .7-.4 1.4-1 1.9-.2 .2-.5 .1-.8 .2l-.1 53.2c.3 18.6 .3 38 3.4 55.2 1.3 5.2 .9 3.9 2 4.3l13.1-.4c9.5-.4 19-.8 28.8-.7 4.9 .1 9.8 .2 15 1 2.4 .3 5.5 .9 8.8 2.1 3.6 1.6 7.4 4 9.2 7.6l0-.2c3.5 7.4-4.6 17.4-6.6 19.4l-9.5 10.8c-12.8 14.2-26.1 27.8-39.6 41.2-13.5 13.4-27.3 26.5-41.5 39.3-7.1 6.4-14.3 12.7-21.8 18.8-3.7 3-7.6 6-11.7 8.9-2.5 1.6-3.3 2.5-7.8 4.7-3.8 1.9-8.5 2.2-11.9-.3l-27.8-23.4c-8.7-7.6-17.3-15.2-25.7-23.1-16.8-15.7-33.3-31.9-48.8-49.1-7.7-8.6-15.3-17.3-22.5-26.5-2-2.8-3.2-3.5-5.7-8.1-2.8-4-4.1-9.6-2.4-14.2 1.8-4.8 7.4-7.4 11.8-8.5 4.7-1.1 7.3-1.1 10.5-1.3 12.2-.4 23.5 .3 34.9 .7l16.9 .3 3.5 0 .2-.1c.1-.4 .2 .5 .2-1.1l-.6-137.1c0-22.9-.5-45.6 .5-69.1 .1-2.9 .4-5.9 .8-9.2 .6-3.2 .7-6.6 3.8-11.8 2-3.1 6.6-5.2 9.2-5.3 3-.3 3.7-.1 5.3-.2l8.6 0 34.3-.1zm47.4 11.6l-.2 .2-.4 .4-1.6 1.4-.1 0 0 0 0 0 2.2-2 0 0z"/></svg>