<svg xmlns="http://www.w3.org/2000/svg" viewBox="0 0 504 560"><!--! Font Awesome Pro 7.2.0 by @fontawesome - https://fontawesome.com License - https://fontawesome.com/license (Commercial License) Copyright 2026 Fonticons, Inc. --><path fill="currentColor" d="M272.7 32.3c36.8-.1 73.7 .1 110.6 1.3 18.5 .6 37 1.5 55.5 3.1 9.3 .8 18.6 1.8 28 3.4 4.7 .9 9.5 1.8 14.5 3.4 2.8 1 4.4 1.3 8.6 3.8 3.9 2.4 6.1 6.4 6.4 10.9l.1 .1-.8 341.6c-.1 20-.6 39.2-1.5 55.6l-.1 39c-.5 2.5-.7 5-1.5 7.6-1.2 2.7-2.2 5.5-4 7.8-2 2.1-4.2 4.6-6.5 6.1l-7.1 3.6c-9.3 3.3-18.1 4.4-26.8 5.5-17.3 1.5-34.4 2.1-51.4 2.4-34 .6-67.9 .3-101.8 .2l-203.3-.7c-8.9 0-17.3-.5-24.7-1.2l-18.3-.1c-4.9 0-10.4-.5-16.2-2.1-6.1-2.1-11.6-6.9-14.4-12.3-5.6-10.8-5.8-20.5-7-30.4-2.7-38.8-1.3-76.4-1.2-114.5l.9-113.7-.1-113.7-.4-56.9C9.5 71.7 13.3 59 21.3 50.9 28.8 42.6 40 37.6 51.2 37.4l28.2-1.1 27.6-.8 55.2-1.5 110.5-1.6zM162.5 48.7l-55.1 1.5-27.6 .9-28.4 1.1c-15.5 .3-28.5 14.1-26.5 31l.4 58.1 .1 116.2-1 116.2c0 38.5-1.8 77.9 2.1 114.8 1.5 8.6 3.6 17.8 8.2 19.9 4.7 2.8 14.7 2.5 24.4 2.5l58.1 .1c77.5 .3 154.9 .6 232.3 1.1 38.2-.5 78.4 1.2 113.7-5.3 10.5-2.5 14.1-5.6 15.6-11.5 .4-2.4 .7-5.2 .7-8.5l.6-408.9c0-5.5 .4-10.8 1-14.6 .1-.6 .2-.8 .3-1.3l0-1.6c2.5-.5-9.4-4.3-17.3-5.4-8.8-1.5-17.8-2.5-26.8-3.3-18.1-1.6-36.4-2.4-54.7-3.1-36.6-1.2-73.4-1.4-110.1-1.3L162.5 48.7z"/></svg>