<svg xmlns="http://www.w3.org/2000/svg" viewBox="0 0 616 560"><!--! Font Awesome Pro 7.2.0 by @fontawesome - https://fontawesome.com License - https://fontawesome.com/license (Commercial License) Copyright 2026 Fonticons, Inc. --><path fill="currentColor" d="M299.3 14.8c2.5 .4 3 1.2 2.5 1.5-3.6 1.8-4.2 5.1-3.4 7.5 .6-1.8 1.3-2.9 2-2.7l8 2.8c2 .7 3.6 7.8 3.6 16.5l1.1 397.3-127 88.1c-5.8 4-11.7 7.4-16.8 9.7l-9.5 6.5c-2.9 2.3-11.3 5.2-16.3 2.5-5.3-2.8-7.4-10.2-7.5-14.9-.2-8.9 1.2-15.7 2.6-23.1 6-28.7 14.9-55.8 22.9-83.2 4.1-13.7 8.1-27.3 11.5-41 1.7-6.8 3.2-13.6 4.3-20.3 1.3-5.9 .9-15.3 .3-14L59.3 258.8 29.6 236.5c-2.3-1.7-5.3-4.1-8.1-6.7-3.2-4.1-6.8-9.4-5-15.1 1.3-5.2 7.6-9.6 11-10.9 3.6-1.6 6.9-2.3 10.2-3.2 26-4.9 50.8-4.5 75.8-4.6 24.9 .2 49.8 1.1 74.5 2 12.3 .4 24.8 1 36.8 1l4-.1 .1 0c.1-.1-.2 .6 1.1-3.4l5.7-17.7 45.7-141.5c2.1-5.8 3.5-12 8.4-17.5 2.3-2.7 6.8-4.5 9.4-4zm-2.2 18.6c-1 4.8-2.5 10.8-4.6 17.3l-44.9 139c-2.1 6.5-3.5 10.9-4.2 13-.8 1.7-1.3 5.6-3 7.1-2.2 1.1-4.1 2.8-6.6 3.6-1.3 .2-2.8 .3-4.2 .4l-2.5 .1-9.4 0-36.7-1.1c-24.3-.9-48.6-1.7-72.8-1.8-23.9 .2-49-.1-70.7 5.1-6.4 2.1-6.2 2.2-6 2.9-.7-.2 4.6 4.4 9.5 7.9l29.2 22 117.1 88.2c2.2 2.6 4.6 5.4 5 8.7 .6 2.8 .6 4.9 .6 7.2-.1 4.2-.6 8.1-1.2 11.9-1.2 7.6-2.9 14.8-4.7 21.9-3.6 14.3-7.8 28.2-11.9 42.2-8.2 27.8-17.2 55.6-22.7 83.1-1.3 6.2-2.1 15.1-1.8 17.9 0 .4 .1 .3 .2 .4 .1-.1-.1 .1 .3-.2l3.3-2.1-.1 0c17.9-12.4 53.7-37.2 107.4-74.3 8.6-5.9 16.9-11.1 24.5-15.4l11.7-8.1-1.2-395.6c0-.3 .1-.6 .1-1z"/></svg>