<svg xmlns="http://www.w3.org/2000/svg" viewBox="0 0 616 560"><!--! Font Awesome Pro 7.2.0 by @fontawesome - https://fontawesome.com License - https://fontawesome.com/license (Commercial License) Copyright 2026 Fonticons, Inc. --><path fill="currentColor" d="M291.9 16.5c3.4-6 10.9-9.4 16.8-5.5 6.3 4.2 8.7 8.7 10.9 12.2 2.2 3.7 4.1 7.4 5.9 11.2 3.5 7.5 6.5 15 9.4 22.5 5.7 15.1 10.8 30.3 15.8 45.5 10.1 30.2 18.9 61.3 30.6 89.9 1.4 3.3 3.4 7.3 4.6 9.1 .5 .7 .1 .5 5.4 .5 19.9 0 111.6-.1 167.5-.1l11.9 0c4.4 .3 6.8-.8 14.1 .9l0 0c13.3 3.9 17 22.8 6.1 31.3l-40.2 27.4-79.4 53.4-19.5 13.5c-3.1 2.3-6.3 4.6-9.1 6.9-1.4 1.1-2.8 2.5-3.6 3.2-.6 .6-.7 .8-.7 1l12 43.7c8.6 30.7 17.6 61.3 25.8 92.3 3.9 15.6 8 31 10.1 47.8 .5 4.4 .9 8.1 .3 14-.5 6.8-5.1 14.5-12.6 14.2-3.5 .1-7-1.3-10.2-3-2.3-1.3-4.2-2.7-5.8-3.8l-9.7-7c-58-42.3-96.6-70.5-115.9-84.5-6.4-4.6-12.9-9.2-19.3-13.4-2.8-1.8-7.3-4.3-8.1-4.5-.4-.1-.4-.1-.6 0l-4 2.9c-58 42.2-96.7 70.4-116 84.5-6.7 4.8-12.3 9.2-19.9 14.2-3.1 2.6-12.7 6.5-18.6 3.1-6.3-3.6-7.6-12.6-7.6-17.5 .7-18 5.3-33.1 9.4-48.9L161 427.4c4.6-15.3 9.1-30.5 13.1-45.7 2-7.6 3.8-15.2 5.1-22.7 .7-3.7 1.2-7.5 1.3-10.8 .2-1.8-.1-3-.1-4.3-.2-.7 0-.4-.2-.5L31.8 231.5c-1.5-1-3.2-2.4-5-4-.9-.8-1.7-1.5-2.7-2.4l-3-4.3c-1.2-1.3-1.7-3.1-2-4.9-.5-1.8-.9-3.5-.3-5.3 .1-1.9 1-3.4 2.2-4.9 .9-1.6 2.1-3 3.8-3.9 3.3-2.6 5.6-3.6 7.7-4.3 2.3-1 4.3-1.3 6.5-1.9 4.2-1 8.3-1.7 12.3-2.2 16.1-2.2 31.8-2.5 47.5-2.7 31.4-.3 62.5 1 93.6 2.2 11.4 .4 22.3 1.1 30.6 1.7l9.1-.1c.1 0 .4 0 .5-.2l.7-2.2c6.1-19 34.1-106.4 51.1-159.6 .8-2.5 1.9-4.7 3-6.2 .3-.4 .6-.6 .9-.8l.3-1c.9-2.4 1.9-5.1 3.4-7.6zm11.6 9.4l-28.3 86.8c-6 18.6-12.3 36.6-18 52.3l-3.8 11.8-7.6 23.8c-.8 7.7-12.3 8.4-15.8 8.4l-12.2 0c-32-.8-63.6-2.3-95.2-2.6-15.8-.1-31.5-.1-47.1 .7-7.8 .5-15.5 1-23 2.1-3.7 .5-7.4 1.2-10.7 2.1-2.5 .5-5.6 1.8-6.3 2.2 .3 0-.7 0-.4 1.5 2.3 2.3 9.1 7.3 14 11l140.8 106.2 3.4 4.3c.8 1.7 1.2 3.5 1.6 5 .3 2.6 .5 5.3 .3 7.4-.2 4.6-.8 8.8-1.5 12.9-1.5 8.3-3.4 16.2-5.5 24-4.1 15.7-8.8 31.1-13.4 46.5l-13.4 46c-3.9 15-8.4 31.5-8.6 44.9 .2 2.6 .2 2.1 .7 2.6 .2 0 .5 0 .7-.2l3.1-2c16.1-11.7 90.9-66.1 136.3-99.1 1.3-.9 4.4-3.5 8.2-4.2 3.9-.7 7.3 .8 10.1 1.8 4.3 2.1 7.8 4.4 11.3 6.7 6.9 4.6 13.4 9.3 20 14 19.5 14.2 58.5 42.6 116.8 85.2 3.1 2.2 6.8 5 9.5 6.8 2.4 1.6 1.4 .9 2.1 .9 .4 2 .6-7.4-.7-14.8-2.3-15.2-6.3-30.7-10.4-46.2l-26-92.7-6.4-23.2-3.2-11.6c-.4-1.9-1.4-3.6-1.6-8-.2-3.8 2-7.6 4.1-9.9 7.4-7.8 13.6-11.3 20.4-16.3l20-13.7 79.9-53.8 19.9-13.5 0 .1c5.9-4.3 15.9-10 14.5-10.9 .4-1.1-.2-2.8-1.1-3.6-1.3-.9-.6-1-5.9-.9l-24.1 0c-164.9 .1-148.2 .1-166.7 .1-1.9-.1-4-.5-5.4-1.8-3.1-1.7-6.2-5.5-7-7.3-1.3-2.1-2.1-4-3.1-6-1.8-3.9-3.4-7.8-4.8-11.6-11.4-30.7-20.3-61.4-30.5-91.8-5-15.1-10.3-30.2-16.1-44.8-3-7.2-6.1-14.5-9.7-20.9-1.8-3.1-4.1-6.4-4.3-6.5l-.1 0z"/></svg>