<svg xmlns="http://www.w3.org/2000/svg" viewBox="0 0 504 560"><!--! Font Awesome Pro 7.2.0 by @fontawesome - https://fontawesome.com License - https://fontawesome.com/license (Commercial License) Copyright 2026 Fonticons, Inc. --><path fill="currentColor" d="M273.5 38.1l168.8-.4 10.6-.1c3.7-.1 8.6 .3 12.6 1.6 8.4 2.5 15.7 7.8 20.8 14.5 10.9 13.5 10.7 31.6 11 44.6l2.5 84.5 0 0c1.3 56.3 2.1 112.7 1.7 169.1-.3 28.2-.8 56.4-2.3 84.8-.7 14.2-1.7 28.3-3.4 42.6-.8 7.2-1.9 14.3-3.4 21.6-.9 3.7-1.8 7.4-3.3 11.4-1.1 3.5-6.5 12.3-13.5 11.5L158 523.6c-7.1 0-14-.1-20.8-.2l-44.4 .1c-5.1 0-10-.6-13.9-1.7l-1.9-.5c-1.8-.5-2.4-1.3-2.4-2 0-.1-.1-.2 .1-.4 .1-.2-.1-.5 .2-.7l8-6.6c2-1.7 6.8-2.8 12.2-2.8l372.1-1c2.5 0 4.9 .4 6.6 1 .2 .1 .2 .1 .4 .2 .1 0 .3 0 .4-.2 0 0 .3-.5 1-2 1.1-2.7 1.9-5.9 2.6-9.2 1.4-6.6 2.4-13.5 3.2-20.5 1.6-13.9 2.5-28.1 3.3-42.2 1.4-28.3 2-56.8 2.2-85.3 .4-57-.5-114-1.8-171l-2.6-85.5c.1-14.2-2.5-26.1-11.2-34-4.1-3.8-9.4-6.1-14.8-6.5l-20.8 .1-171.4 .4-171.1-1.2c-14.1 .2-28.4 .3-42 1.8-6.8 .6-13.6 1.7-18.7 3.8-6 2-7.2 4.4-8.4 9.9-.8 5.7-.9 12.5-.9 19.7l0 64.3-.8 171.3-.1 85.5c.6 28-.1 57.7 5.4 83.2 0 0 0 .1 0 .1 .6 2.4 1.3 4.4 2 6.2 .1 .3 .3 .6 .4 .9 .3 .8 .7 1.3 1.1 1.9 2 3.1 4.4 4.8 9.2 5.4 1.9 .5 4.9 .7 6.6 1.5 1.3 .5 2 1.2 2.2 1.8l0 .1c.1 .2 .3 .4 .2 .6l-2.4 8c-.6 1.9-6.3 3.6-14.4 1.8-2.7-1.2-5.6-2.2-7.9-4-2.1-2.1-4.6-4.2-6-6.5-2.7-4.8-4.7-9.6-5.6-14.2-2.4-9.3-3.3-18.3-3.9-27.2-1.5-17.8-1.7-35.4-1.9-53L6.8 309.4 7.1 99.3c0-4.4 .4-8.6 1.1-12.4 0-4.3 0-8.6 .2-13.3 0-6.8 1.2-17.4 8.8-24.1 7.4-6.8 15.6-7.9 22.9-9.5 7.4-1.1 14.7-1.9 21.8-2.3 14.3-.8 28.5-.9 42.6-1l169 1.3z"/></svg>