<svg xmlns="http://www.w3.org/2000/svg" viewBox="0 0 504 560"><!--! Font Awesome Pro 7.2.0 by @fontawesome - https://fontawesome.com License - https://fontawesome.com/license (Commercial License) Copyright 2026 Fonticons, Inc. --><path fill="currentColor" d="M224.9-1.1c15.3-.9 30.2 0 45 1.2 7.4 .7 14.8 1.5 22.3 2.6l5.7 1 2.9 .5 4.4 1.5c7.2 .4 8.8 12 9.2 14.2 2.2 15.5 2.6 29.8 2.8 45 38 10.2 73.5 29.5 102.7 56l15.3-17.7-17.1-14.4c-.6-.5-.8-1.5-.5-2.8l.2-.6c.2-.9 .9-1.9 1.7-2.6l5.1-4.2c1.3-1.1 2.6-1.5 3.2-.9L472.3 115c.3 .2 .3 .7 .1 1.4s-.7 1.3-1.3 1.9l-5.8 5.6c-1.4 1.4-3 2-3.7 1.4l-15-12.6-16.3 18.5c8.8 8.9 17.1 18.3 24.4 28.5 20.8 28.7 35.5 62 42.1 97 3.1 17.7 5.2 34.7 4.2 53.6l-.1 0c-1 9.9-2 19.7-3.2 29.5 .3 4.6 0 10.3-1.1 16.6-9.3 59.4-41.3 114.8-87.9 152.9-46.4 38.5-107.6 58.2-167.7 55.4-60.2-2.2-119.5-27.4-162.5-69.9-43.4-42-70.6-100.3-74.8-160.6-.3-4.9-.2-9.6 .3-13 .1-.8 .3-1.1 .4-1.7-2.5-36.1 2.4-72.7 16.2-106.5 28.3-74.2 94.6-131.8 171.4-151.2l-.5-.4c-.9-.6-1.3-1.8-1.1-3l1.4-6.8c.4-1.8 1.6-3.1 3.2-3.3 35.2-4.7 70.8-6.2 106.7-1.6-.4-8.9-1-17.9-2.3-26.1-.6-2.4-.1-1.4-1.4-1.9-2.2-.5-6.4-1.2-9.7-1.7-7-1-14.1-1.9-21.3-2.4-14.2-1.2-28.7-1.9-42.5-1-6.8 .3-13.9 1.5-18.5 3.4-2.8 1.8-1-.6-1.9 2.1-.5 2.9-.7 6.5-.8 9.9-.1 2.3-.8 4.5-2 6.3l-.6 .9c-.8 1.2-2.1 1.6-3.1 1l-6.5-3.9c-1.6-1-2.7-3.4-2.5-6 .2-3.8 .4-7.6 1.3-11.9 .4-6.1 7.8-11.3 11.3-12.2 8.5-3.2 16.1-3.8 23.8-4.3zm-8.6 73.5c-84.2 12.1-158.8 74.5-185.2 155.4-14.1 39.9-15.8 83.9-7.5 125.2 9.2 41.3 29.2 80.2 58.4 110.8 57.6 62.2 150.5 88.9 232.1 65.1 81.7-21.9 148.6-91.6 165.7-174.5 .8-4.3 1.6-8.5 2.5-12.7 1.6-12.3 3.2-24.6 4.3-37l-1.2-24.3-3.9-24.6c-7-32.5-21.1-63.4-40.9-90-39.3-53.4-102.1-89.3-168.4-93.9-.1 0-.3-.1-.4-.1-13.4-1-26.8-1.4-40.1-.7-.3 0-.7-.3-.9-1 0 0 0-.1 0-.2-4.4 .6-9.2 1.4-14.5 2.4zM424.2 266.9c.8 .5 1.4 1.3 1.5 2.1l1.1 8c.3 2-1.3 3.8-3.6 4.2L276 306.4c.3 .1 .7 .1 1 .3 1.7 .8 2.7 3.2 2 5.6l0 0c-6.3 21.2-36.3 25.8-49 8.1-6.3-8.2-7.5-19.9-2.8-29.2 4.4-9.1 14.1-15.4 24.4-15.7 8-.9 14.7 1.9 19.8 6.8 2.8 2.7 4.6 5.7 6.1 8.8l143.8-24.8c1-.2 2 0 2.9 .5zm-172.5 8.7c-.2 0-.4 0-.6 0l1.4-.1c-.3 0-.5 .1-.7 .1zm44.2-70.8c16.1 8.2 30.1 20.6 40.2 35.9 .2 .3 .1 .8-.3 1.3s-1.1 1.1-1.8 1.5l-7 3.9c-1.7 1-3.4 1.3-3.8 .7-8.7-13-20.8-23.6-34.6-30.5-.6-.3-.8-1.1-.7-2.3l.1-.6c.1-.8 .5-2 1.1-2.9l4-5.4c1.1-1.3 2.2-2 2.9-1.6zm-21.7-64.1c24.6 6.6 48.7 17.5 69.1 33.7 20.5 16 37 36.6 50 58.6 .5 .9 .7 1.9 .5 2.8-.2 .9-.7 1.7-1.5 2l-7.4 3.3c-1.8 .8-4.1-.1-5.3-2-12.4-20.7-27.7-39.4-46.5-53.8-18.6-14.6-40.6-24.5-63.7-30.5-1.9-.5-3.6-1.6-4.8-3.1l0 0-.6-.7c-.8-1-.8-2.3-.1-3.2l4.7-5.6c1.2-1.4 3.4-2 5.5-1.4z"/></svg>