<svg xmlns="http://www.w3.org/2000/svg" viewBox="0 0 616 560"><!--! Font Awesome Pro 7.2.0 by @fontawesome - https://fontawesome.com License - https://fontawesome.com/license (Commercial License) Copyright 2026 Fonticons, Inc. --><path fill="currentColor" d="M568.4 158.1c4.2 .2 8.3 .4 12.6 .9 2.4 .4 6.5 .9 9.5 2.3 1.6 .7 2.3 2.2 3.1 3.6l-.1 0c1.8 .6 1.2 2.8 1.9 4.2L594.3 336c.6 55.1-3.1 110.3-2.7 164.7 0 2.5-.3 5-.9 6.7-.6 1.7-1.4 2.6-2.3 2.4l-7.7-1.8c-2.8 .5-6.4 .8-10.3 .7-142.6-3.2-285.3 .2-428.2 .6-.2 0-.3 .3-.4 .3l-1.3-.3c-29.1 .1-58.1 .2-87.2-.1-7.1-.1-14-.8-19.4-2l-2.6-.6c-3.6-.8-4.8-2.1-3-3.1l7.3-4.2-3.6-3.4c-1.7-1.7-2.9-5.7-3-10.2-2.2-104.2-7.3-210.1-2.7-314 0-2.1 .3-4.1 1-5.6s1.5-2.2 2.3-2l8.1 1.6c2 .4 3.6 4.5 3.6 9.5-4.9 104.4 .6 207.6 2.5 311.9 .1 3.2-.5 6.1-1.1 8.9 3.4-.9 8.4-1.4 13.8-1.4 24.6 .2 49.3 0 73.9 0l.3-234.1c0-3.3 .7-6.5 1.8-9l.5-1.2c.8-1.7 2-2.3 3.1-1.5l6.6 5.1c1.7 1.3 2.8 4.4 2.8 7.9l-.2 232.8c143.6-.5 287.4-4 431.4-.6l.1 0c.1-53.8 3.4-106.9 2.8-160.2l1.2-160.1c-.4-.2 1 .1-1.9-.3-3.8-.4-8-.6-12.1-.8-8.3-.3-16.6-.3-24.9-.2-5.1 .1-10-.4-13.9-1.3l-1.9-.4c-2.6-.6-3.6-1.8-2.4-2.9l7.7-7c2-1.8 6.9-3 12.4-3.1 8.2-.1 16.4-.1 24.7 .2zM306.8 43.2c30.9-1 62.2-1.5 93.5 8.6 7.9 2.2 17.6 8.2 22 17.4 4.5 8.9 4.9 18 5 25.9 0 8.4-.7 15.1 .1 22.3 .6 7.4 1.5 15.1 1.7 23.3 .1 2.7-.4 5.4-1.2 7.3-.8 1.9-1.8 2.8-2.6 2.4-2.6-1.1-5.2-2.1-7.8-2.9-1.9-.7-3.1-4.9-3.5-10.4-6.3-28.4 8.8-68.6-21.8-72.2-27.5-7.9-58.1-8-87.8-6.6-14.9 .8-29.9 2.2-44.7 4.3-7.4 1-14.7 2.2-22 3.6-6.9 1.6-15.3 3.1-17.4 5.6-7.1 7.3-10 23.6-11.6 37.5-1.5 14.6-1.8 29.5-1.4 44.4 0 1.6-.1 3.1-.1 4.6l173.8 .4c0-.6-.2-1.2-.2-1.9 1.1-9.9 1.6-19.8 1.6-29.8-.2-9.5 .4-22.3-3.1-22.8-4.3-3.2-16.6-2.5-26.3-2.7-15.2-.2-45.5-.7-90.9-1.3-5.1-.1-9.7 .3-12.6 1.4-2.8 1.1-4.3 2.7-5.6 5.9-2.4 6.5-1.2 16.9-.9 27.1 .1 3.4-.3 6.6-1.3 9.2l-.5 1.3c-.7 1.8-1.9 2.4-3 1.6l-6.8-4.9c-1.8-1.3-3-4.4-3.1-7.9-.1-9.9-2.5-20.8 2.6-33.4 2.5-6.3 9.2-11.8 15.6-13.4 6.4-1.7 11.9-1.7 16.9-1.6 46.4 .6 77.2 1.1 92.7 1.3 5.2 .1 10.1 0 15.6 .4 5.5 .7 12.5 1.3 18.9 7.3 6.6 6.7 6.2 15 6.5 19.6 .2 5.2 .3 10.5 .2 15.8-.1 9.7-.8 19.3-1.9 28.9l99.8 .2c2.8 0 5.4 .4 7.3 1.1s2.8 1.5 2.6 2.4l-2.2 8c0 0-.1 .1-.1 .1 .6 1.6 1 3.4 1 5.5 1.6 169 4.5 236.2 4.6 263.3 .1 27.6-4.3 36.3-7 34.2-8.9-7-10.8-7.5-11.3-15.7-5.8-99.7-4-184.5-2.9-284.1l-322.4-.9c-4.9 2.3-9.6 4.7-13.5 7.8-5.6 4-9.7 9.1-10.9 14.4-1.2 4.9 1 10.2 5.3 15.3 17.2 20.3 52.7 28.1 70.5 59.6 5 1.2 8.8 5.6 8.8 10.9 0 6.4-5.2 11.5-11.5 11.5S202 287.2 202 280.9c0-1.6 .4-3.2 1-4.6-3.2-5.8-7.6-10.8-12.9-15.4 .2 .4 .3 .9 .5 1.3 1.1 2 1.3 5.8 .4 10.1L188.3 288c-.6 4.7-2.3 12.7-1.5 11.6 4.8 8.1 11.5 17.4 17.6 25.9 6.3 8.6 12.8 17.2 19.5 25.4 3.3 4.1 6.8 8.2 10.3 11.9 1.3 1.5 4.5 4.5 4.2 4.2 .2 .2 .6 .4 .8 .1l35.5-24.9c5.6-3.9 12.4-9.9 11.7-11.6 .7-1.5-4.1-8.7-8.6-14.1-9.5-11.5-19.6-23.5-28.8-35.8l-13-17.7c-2.7-3.1-9-5-15.4-5.3-1.8-.1-3.5-.4-4.8-1-1.3-.6-1.8-1.3-1.8-2.2 .1-2.7 .5-5.4 .9-8.1 .3-2 4.8-3.9 10.4-3.2 8.1 .9 18.2 4.2 24 12.8l13.1 17.9c8.9 11.9 18.4 22.9 28.1 34.8 2.4 3.3 4.8 5.9 7.1 10.1 2.3 3.3 4.6 9.4 3.2 16 0 0-.1 .1-.1 .1-.6 18.3-19.9 34.6-56.5 62.8-16.3 12.6-49.8-43.9-69.7-64.9-7.7-8.2-5.4-13.5-3.8-24.7l1.1-7.8c-.1-1.3 0-2.7 .4-3.9l.6-4 1.3-8.2 2.9-16.5c.9-4.4 2.6-8.7 5.1-11.9l.5-.6c-3.4-2.4-6.9-4.9-10.5-7.1-12.9-8.3-27.3-15.6-38.9-29.6-5.6-6.7-10-18.1-6.6-28.5 2.1-7 6.4-12.6 11.2-17l-53.5-.1c-5.6 0-11-.6-15.3-1.8l.1 .1-2.1-.5c-2.9-.8-3.8-2-2.4-3.1l8.7-6.6c2.2-1.7 7.5-2.8 13.3-2.8l75.2 .2c1.2-.5 2.3-1.1 3.6-1.6l22.1-9.7c1.7-.7 3.4-.8 5.1-.9-.1-13.5 .1-27.1 1.8-40.8 .9-7.8 2.3-15.7 4.5-23.6 2.7-7.7 5.5-16.4 14.3-23 9.6-5.7 16.4-5.5 24.4-7.5 7.7-1.5 15.3-2.7 23-3.7 15.3-2 30.7-3.5 46.2-4.2z"/></svg>