<svg xmlns="http://www.w3.org/2000/svg" viewBox="0 0 616 560"><!--! Font Awesome Pro 7.2.0 by @fontawesome - https://fontawesome.com License - https://fontawesome.com/license (Commercial License) Copyright 2026 Fonticons, Inc. --><path fill="currentColor" d="M311.3 484.4c2 .1 3.6 1.1 3.6 2.3l1.8 77.3c0 1.1-.6 2.1-1.7 2.9l-.5 .4c-.7 .5-2 .7-3.1 .5l-6.6-1.6c-1.7-.4-2.8-1.4-2.8-2.5l-2-77.8c0-.5 .3-1 1-1.4s1.5-.6 2.3-.5l8 .4zM157.5 419.7c.3 .1 .7 .3 1 .5l1 .8 5.4 5.9c1.3 1.5 1.7 3.3 .9 4.2l-53.4 56c-.7 .8-1.9 1.1-3.3 .8l-.7-.1c-.9-.1-1.9-.9-2.5-1.8l-3.5-5.8c-.9-1.5-1-3-.2-3.8L155.9 420c.4-.4 1-.5 1.7-.3zm301.1 4.2c1.5-.9 3-1 3.7-.3l0-.1 54.7 51.9c.4 .3 .5 .9 .3 1.6s-.7 1.4-1.3 2l-5.9 5.5c-1.5 1.3-3.2 1.7-4.1 .9l-54.3-51.7c-.7-.7-1-1.8-.8-3.2l.1-.7c.2-.9 .9-1.9 1.8-2.5l5.8-3.6zM303.6 105c1.7 .2 3 .5 3.8 .9l17.2 .4c.2 0 .3-.1 .5-.1 .1 0 .3 .1 .4 .1l6.5 .2c.2 0 .4 .6 .5 .8 47 6.1 90.9 32.4 118.6 71 14.7 20.2 25.1 43.7 29.8 68.4 2.2 12.6 3.7 24.3 3 38-1.2 12.1-2.3 24-4.5 36.4-.4 2-1.2 4-2.2 5.3l.1 0c-.5 .7-1 1.2-1.5 1.4-16.2 59.4-66 108.2-126.3 122.1-30.9 7.9-63.8 6.1-94.2-3-30.3-9.8-58-27.6-78.9-51.7-42.5-47.7-55.7-119.7-31.5-179.3 22.8-59.9 80.7-104.6 144.9-111 5.2-.4 10.2-.2 13.8 .2zm-19.9 15.8c-57.9 8.4-109.1 51.3-127.3 106.9-9.7 27.4-10.8 57.6-5.1 86 6.3 28.3 20.1 55 40.2 76.1 39.6 42.7 103.4 61 159.3 44.6 56-15 101.9-62.9 113.6-119.8 .8-4.3 1.7-8.5 2.6-12.6 .9-7.2 1.8-14.4 2.5-21.7l-.9-16.5-2.7-16.9c-4.8-22.3-14.6-43.5-28.2-61.8-27-36.5-69.8-60.9-115.1-64.2l-28.5-.5c-.2 0-.5-.4-.7-1 0-.1 0-.3 0-.4-3 .5-6.2 1.1-9.8 1.8zM100.5 271.5c.5 0 1 .3 1.4 1s.6 1.5 .5 2.3l-.4 8c-.1 2-1.1 3.6-2.3 3.6l-77.3 1.8c-1.1 0-2.1-.5-2.9-1.7l-.4-.6c-.5-.7-.8-2-.5-3.1l1.6-6.6c.4-1.7 1.4-2.8 2.5-2.8l77.8-2zm494-1.7c.5 0 1 .3 1.3 1 .3 .6 .5 1.5 .5 2.3l-.4 8c-.1 2-1 3.5-2.2 3.6l-75 1.8c-1 .1-2.1-.6-2.8-1.7l-.4-.5c-.5-.7-.7-2-.5-3.1l1.6-6.6c.4-1.7 1.4-2.8 2.5-2.8l75.4-2zM106.3 74.1c1.5-.9 3-1 3.8-.2l56.4 53.6c.4 .4 .5 1 .3 1.7s-.7 1.4-1.3 2l-6 5.4c-1.5 1.3-3.3 1.7-4.2 .9l0 0-56-53.4c-.8-.7-1.1-1.9-.9-3.3l.1-.7c.1-.9 .8-1.9 1.8-2.5l5.9-3.5zm399.2-4.8c.7 .2 1.4 .7 2 1.3l5.4 6c1.3 1.5 1.8 3.2 1 4.1l-51.7 54.3c-.7 .7-1.9 1-3.2 .8l-.6-.1c-.9-.2-1.9-.9-2.5-1.8l0 0-3.6-5.8c-.9-1.5-1-3-.3-3.7l51.9-54.7c.4-.4 .9-.5 1.6-.3zM309.6-9.6c2 .1 3.6 1.1 3.6 2.3l1.8 74.9c0 1-.6 2.1-1.7 2.8l-.5 .4c-.7 .5-2 .7-3.1 .4l-6.6-1.6 0 0c-1.7-.4-2.8-1.4-2.8-2.4l-2-75.4c0-.5 .3-1 1-1.3 .6-.3 1.5-.5 2.3-.5l8 .4z"/></svg>