<svg xmlns="http://www.w3.org/2000/svg" viewBox="0 0 560 560"><!--! Font Awesome Pro 7.2.0 by @fontawesome - https://fontawesome.com License - https://fontawesome.com/license (Commercial License) Copyright 2026 Fonticons, Inc. --><path fill="currentColor" d="M291 18.9c1.9-.6 3.1-.4 3.4 .4l2.8 7.9c.7 2-2.4 6-7 9.5-48.2 40-91.3 88-135.6 133.7-44 46.2-88 92.6-133.1 138-3.4 3.5-7.1 6.3-10.6 8.4 .2 .1 .4 .2 .5 .3 2 1.1 4.3 3.9 6.5 7.8 13.6 22.8 32.4 43.9 50.5 64.5 18.5 20.6 37.7 40.6 57.4 60.1 44.3 43.9 76.2 70.6 92.4 83.1 10.6 7.9 22.6 17.1 32.7 20.5 1.1 .8 1.5 .4 1.7 .8l19.6-20.7c.3-.3 .8-.3 1.4 0 .2 .1 .4 .3 .6 .4l140.4-141 72.4-74.2c11.9-12.5 23.8-25 35.2-37.8 5.7-6.4 11.2-12.8 16.4-19.4 4.8-6.4 10.1-13.7 10.6-18.7 .4-1.6 .4-3.6 1-5.8 .5-2 1.3-3 2.1-2.8l8.2 1.6-.1 0c1.8-.1 5 6.3 2.1 14.7-8.4 18.7-20.9 29.9-32.1 43.5l-35.4 37.8-72.3 73.9-145.8 146.3c-3 3-6.1 5.5-9.2 7.6l-6.2 6.5c-3.3 3.3-8.1 4.1-12.8 3.1-3.5-.7-6.1-1.8-8.6-2.9-5-2.2-9.3-4.8-13.6-7.4-.7-.5-1-1.4-.9-2.7l0-.2c-18.8-12.2-34.8-26.6-51.4-40.7-20.9-18.4-41.1-37.6-60.8-57.2-19.7-19.6-38.9-39.8-57.5-60.5-18.3-21.2-37-41.5-51.8-67.3-2.2-4.7-4.2-9.2-3.2-15.5 .2-1 .1-1.6 .7-2.8 1.9-3.6 3.4-4.4 4.1-3.8l.1-.8c.3-2.7 3-7 6.9-10.9 45.1-45.5 89.3-92.1 133.5-138.6 44.9-46.1 87.2-94 138.6-135.5 2.2-1.6 4.6-2.8 6.4-3.4zm24.9 280.2c.9 0 1.7 .4 2.3 1l5.2 6.2c1.3 1.5 1.1 3.9-.4 5.4l-95.3 96.9c-1.3 1.3-3 2.2-4.8 2.4l-.9 .1c-1.2 .1-2.3-.5-2.7-1.6l-2.6-6.7c-.7-1.7-.2-3.8 1.2-5.2l95.7-97.5c.6-.6 1.5-1 2.4-1l0 0zm12.4-116.6c1.2-.3 2.1 0 2.7 .7l4.8 6.5 .1 0c1.2 1.6 .1 4.9-2.6 7.4-27.8 26.3-57.3 49.8-83.4 76.4l-80.3 79.9c-2.2 2.2-4.8 3.9-7.3 4.8l-1.2 .4c-1.7 .6-2.9 .1-3.1-1.2l-1.2-8.1c-.3-2.1 1-4.9 3.3-7.2l80.7-80.4c27-27.4 57.1-51.3 84-77.1 1.1-1 2.3-1.8 3.5-2.1zM497.8-8.9c9.1-.3 18.2-.7 28.1 .6 10 1 21.1 6.5 27.5 15 13.5 18.2 12 38.3 12.6 56.1-.1 18.2-1.1 36-1.7 53.8l-.1 0c-1.4 35.5-1.4 70.9 .5 106.3 .1 2.9-.1 5.6-.6 7.6s-1.3 3.1-2.2 2.9l-8.1-1.8c-2-.4-3.8-6-4.2-12.7-1.9-35.7-1.5-71.5-.1-107 .6-17.8 1.6-35.5 1.6-52.9-.2-16.9-1.1-35.5-11-44.8-9.2-10.6-27.7-8.4-44.9-8-17.4 .9-35.1 2.6-52.7 4.3L336.7 21.5c-5.8 .6-11.5 .6-16.1 0l-2.2-.3c-3.1-.5-4.2-1.6-2.8-2.8l8.4-7.5c2.2-1.9 7.5-3.6 13.6-4.3L444.1-4.6c17.8-1.7 35.6-3.4 53.7-4.3zM411 85.7c3.3-1.1 6.8-1.1 9.5-.2l1.3 .4c1.8 .6 2.3 1.8 1.6 3-1.5 2.3-2.7 4.7-3.7 7.1-.8 1.8-2.7 3.3-5.1 4.2l-.1 0c-6.9 2.5-13.2 7.3-17 13.3-4 5.9-4.3 12.4-2 19.4 4.5 13.6 19.5 24.4 32.9 22.2 6.9-.9 13.8-4.4 18.5-9.6 4.4-4.8 6.9-11.8 6.8-18.8 .1-14.5-10.7-26.5-25.2-26.6-1.2 0-2.3-.4-3.1-1.1-.8-.7-1.3-1.5-1.2-2.4l.9-8c.2-1.9 3.3-3.5 7.2-3.2 10.1 1 20.4 6.2 27.1 14.5 6.8 8.2 9.6 18.9 9.3 29.1-.5 10.2-4.6 20.8-12.5 28.4-7.4 7.1-17.3 11.8-27.9 12.6-22.1 1.3-41-14.2-47.2-34.3-3.4-9.9-1.5-23.2 5.2-31.7 6.1-8.7 15-15 25-18.3z"/></svg>