<svg xmlns="http://www.w3.org/2000/svg" viewBox="0 0 560 560"><!--! Font Awesome Pro 7.2.0 by @fontawesome - https://fontawesome.com License - https://fontawesome.com/license (Commercial License) Copyright 2026 Fonticons, Inc. --><path fill="currentColor" d="M32.6 32.1c2 .4 3.6 4.2 3.7 8.9l1.1 73.4c.2 6 .5 12.1 1.3 17.5 .5 3.4 .7 3.3 .8 3.7 .2 .3 .6 .3 .9 .1 1.4-.7 8.1-5.7 12.1-9.1l14.3-11.7c9.7-7.8 19.6-15.3 30-22.4l3.6-2.5c1.4-.3 2.9-.1 4.5-.2l4.9 0c4.6 0 13.8-.1 27.5-.2l72.2-.5c.1 0 .1-.2 .2-.2 3.5-.1 6.9 .5 10.2 1.6 .6 .2 1.4 .1 1.9 .3l1.5 .5c1.1 .4 1.8 1 2.1 1.5 3.4 1.9 6.5 4.2 9 7.2 6.6 7.4 7.3 18.5 7 25.4 0 0-.2 .1-.2 .1 0 .5 .1 1 .1 1.5l4.5 353.4c.1 4.8-.5 9.6-1.6 13.3l-.5 1.8c-.7 2.5-2 3.3-3 2.1l-1.3-1.5 0 .1c-.5 2-5.3 3.5-11.2 3.5l-23.1-.2-11.4-.1c-3 0-8.5 .2-8.7 .4-.3 .1-.6 .3-.7 .5 0 .1-.1 .7-.2 2.6l-.5 11.2c-.2 3.3-.2 8.6-.1 9.4 0 .3 .1 .5 .3 .7 .4 .2-.3 .1 2.4 .1 60.9 0 121.8-.1 182.6-.2l20.7-.1c.2-.5 0 1 .5-1.9 .3-2.8 .3-6.5 .1-10.2l-.5-10.6s0-.1-.1-.1l-19.7 0c-5 0-9.9-.6-13.8-1.8l-1.9-.5c-2.6-.7-3.5-2-2.2-3.1l7.8-6.6c2-1.7 6.8-2.8 12.2-2.8l27.7 0c1.3 .5 4.5-1 4.3 1l.2 5.2 .4 9.3 0 .1 .5 11.7c0 4.1 .3 8-.9 13.3-.9 6.7-8.3 12.2-14.7 11.6l-23.5 .1c-156.8 .1-147.2 .1-181.3 .1-2.3-.2-3 .5-7.2-.7-7.4-1.6-9-12.3-8.7-16.6 0-4.3 .2-8.2 .3-12.1 .3-4 .1-7 .9-13.5 .6-7.9 10.2-11.4 15.5-11.3 16.7-.7 31.1 .2 46.5 0-.5-1.9-.8-4.1-.8-6.5l-4.7-354.9c0-.1 .1-.2 .1-.3 0-6.5-.7-11-3.9-14.3-3.1-3.6-8.1-5.5-12.3-5.3-.3 0-.6 .1-1 .1l-74 .5c-13.9 .1-23.2 .2-27.8 .2-4.6 .4-.2-.9-4.3 1.5-10 6.9-19.6 14.2-29.1 22L59.9 139.7c-2.4 2-4.9 4-7.7 5.9-1.3 1-3 2-4.7 3.1-2.6 1.3-5.3 2.6-8.1 2.8-5.6 .7-10.8-2.9-12.9-8.2-2.3-5.5-2.6-9.1-3-12.2-.8-6.6-1-12.9-1.2-19.1L21.3 37.9c0-2 .3-3.9 .9-5.3 .6-1.4 1.5-2.1 2.3-1.9l8.1 1.4zM509.9 20.9c2.3 0 4.2 .3 6 .7l1.8 .1c2.9 .3 4-.2 9.2 1.2 10.7 4.6 12.1 15.2 12.6 21.2 .1 1.2 0 2.3 .1 3.5 .1 .9 .4 1.6 .4 2.6l0-.1c-.2 23.1 .3 45.9-.3 69.5-.3 6.1-.3 11.5-2 18.9-.8 3.9-3.8 10-8.5 11.7-4.8 1.8-10.6 .1-14.4-1.9-11.5-6.6-19.8-13.9-29.2-20.8-9.2-6.9-18.4-13.6-27.8-20l-3.6-2.4c-.8-.5-.4-.3-.6-.3l-7.5 .1-17.4 .1-69.4 .4c-2.6 0-4.8-.6-7.1-1.1l-9.7 0c-.7 0-.5 .3-.7 1.6 .2 35.9 2.4 75.4 2.9 113 1.5 76.1 1.6 152.2 1.1 228.2 0 6.3-.7 12.3-1.8 17.1l-.6 2.3c-.8 3.2-2.1 4.3-3.1 2.7l-6.5-9.8c-1.7-2.5-2.8-8.4-2.7-15 .5-76.4 .4-152.7-1.2-229l-1.6-57.2-1-28.7-.4-14.5c-.1-2.4-.1-4.9 .1-7.7l.2-4.2 1.6-6.5c2.3-9.7 16.7-6.8 18.9-7.2l14.3 0c14.3 0 43-.1 86-.1 3.1 0 6.1 .4 8.2 1 .4 .1 .5 .2 .8 .4 .8 .1 1.3 0 2.3 .2l8.6 5.8c9.7 6.6 19.2 13.6 28.5 20.6l13.9 10.4c4.1 3.1 10.1 7.1 12.2 8 .4 .2 .5 .1 .7 0 .1-.1 .2-.1 .7-2.9 .8-4.9 1-10.6 1.2-16.2l.1-54.6c0-.1-.2-.1-.2-.2-.2-6.4 .1-12-.3-17-.3-5.2-2.3-8-3.1-7.9l-4.9-.3-6.9-.2-14.1 .1c-.2 0-.4-.3-.5-.4L94.9 40c-5.6 0-11.1-.5-15.4-1.6l-2.1-.5c-2.9-.7-3.9-2-2.5-3l8.8-6.6c2.2-1.7 7.5-2.8 13.5-2.9l412.8-4.4z"/></svg>