<svg xmlns="http://www.w3.org/2000/svg" viewBox="0 0 560 560"><!--! Font Awesome Pro 7.2.0 by @fontawesome - https://fontawesome.com License - https://fontawesome.com/license (Commercial License) Copyright 2026 Fonticons, Inc. --><path fill="currentColor" d="M91.6 13.3l25.6 .5 13.1 .8c4.6 .6 8.6 .4 15.6 3.7 3.4 1.8 5.9 5.2 6.5 9 .6 4.8 .2 5.2 .2 7.8-.4 28.5-1.9 143.1-3.7 286.5 2.7 .2 6.1 1 9.7 2.3 18.7 7 37.2 15.3 54.3 26.6 17.2 11.4 32.1 27.3 40.9 46.6 16.6 38.8 16.3 79.9 15.2 119.4-.7 11.4-1 16.8 4.4 20.3 1.7 1.4 6.3 2.2 10.6 2.7 4.2 .4 8.5 .3 12.7-.4 8.3-1.5 16.5-5 23.1-10.4 6.8-5.1 11-12.3 15-20.8 15.1-34 16.3-73.8 18.8-112.8 .4-6.5 1.6-12.9 3.3-17.9l.9-2.5c1.3-3.4 2.7-4.3 3.5-2.4l-.1 0c1.6 3.8 3.3 7.4 5.2 10.9 1.4 2.7 2 8.7 1.6 15.5-2.7 39.2-3.5 80.3-21.5 118.7-8.6 20-29.6 34.9-51.7 36.8-5.6 .5-11.2 .3-16.7-.6-4.8-.7-12.6-2.8-17.3-8.1-4.7-5-7.3-11.8-7.1-18.8l.6-14.8c.7-38.5 .4-79.3-15.9-112.5-16.9-33.1-53.8-50.4-89.9-63.4-.1 0-.2-.1-.4-.2-.3 2.5-.8 4.8-1.3 6.9l-.6 2.1c-.8 2.9-2.1 3.8-3.1 2.4l-6.5-8.7c-1.7-2.2-2.6-7.5-2.6-13.3l2.6-204.2c1.1-87.2 1-78.7 1.1-89.3-.5-1.8 1-.5-1.6-1.4-14.1-2.4-32.5-2-49.1-2.3l-51.1-.3c-2.8 0-5.4-.4-7.3-1-1.9-.6-2.8-1.5-2.6-2.4l2.2-8c.6-2 5.9-3.5 12.3-3.4l50.9 .3zM12.9 27.7l8 2.2c2 .5 3.3 4.7 3.1 9.7-2.4 105.4 3.2 211.4 4.6 317.5 0 .5-.1 1-.1 1.6 36.7 2.5 73.7 2.3 109.9-2.4 1.5-.2 3.1 .2 4.4 1.2l0 0 .6 .5c.9 .6 1.3 1.8 1.1 3l-1.6 6.8c-.4 1.7-1.8 3-3.4 3.3-38.9 4.9-78 5.1-116.9 2.2-.8-.1-1.5-.5-2-1.1s-.7-1.5-.5-2.4l.1-.4-3.4-3.5c-1.7-1.7-2.8-5.8-2.9-10.4-1.5-106.5-7.3-212.7-4.6-320.1 .1-2.2 .6-4.3 1.3-5.7s1.6-2.1 2.4-1.9zM516.7 238.4c10.9-.1 22 7.4 27 16.6l0 0c5.3 9.1 7.4 19.1 7.7 28.7 .1 19.1-3.9 38.4-16.9 54.4-6.1 8-18.1 14-28.6 13.5l-26.2 .2-52.6 1.1c-35.1 .8-70.4 1.6-105.8 .5-5.8-.2-11.5-1-15.9-2.4l-2.1-.7c-3-.9-3.9-2.2-2.4-3.2l9.4-6.1c2.4-1.5 7.8-2.5 13.9-2.3 35.1 1 70.3 .2 105.6-.7l53-1.1c8.7-.2 18.1 0 26.2-.4 6-.1 11.8-4.3 16.1-10.5 8.6-12.3 12.6-29.7 11.2-45.3-.8-7.7-2.7-15.6-7-20.6-4.2-5.3-9.6-7.1-17.2-7.3l-106 .4c-2.9 0-5.6-.3-7.6-1s-2.9-1.5-2.7-2.3l2.2-8c.6-2 6.1-3.6 12.7-3.6 35.3 0 69.7-.6 105.9 0zm-36.1-83.4c6.1 0 13.3-.2 20.9 2.4 7.7 2.4 14.5 8.8 17.9 15.5 6.9 13.6 7.3 27.2 7.8 39.9 0 2.1-.6 4.2-1.7 5.7l-.6 .8c-.7 1.1-2 1.4-3.1 .9l-6.6-3.3c-1.7-.8-2.8-2.7-2.9-4.8-.3-11.9-1.4-24.3-6.4-33-4.7-8.8-13.7-9.7-26.7-9.3l-74.8 .2c-1 0-2-.4-2.7-1s-1.1-1.5-1-2.3l.8-8c.2-2 2.2-3.5 4.5-3.5l74.4-.2zm-30-74.2c6-.4 12.5-.2 18.8 1 12.3 2.1 27 9.4 32.2 23.8 4.8 12.4 5.8 24.2 7.1 35.8 .2 1.9-.3 3.8-1.3 5.3l-.5 .7c-.7 1-1.9 1.5-3 1.1l-6.8-2.4c-1.7-.6-3-2.3-3.2-4.2-1.1-11.1-2.6-22.6-6.3-31.6-2.9-7.8-12.3-12.7-22-14.2-5-.8-10-.9-15.6-.5l-17.5 .2-35.1 .2c-1 0-1.8-.4-2.4-1s-.9-1.5-.7-2.3l1.3-8c.3-2 2.2-3.5 4.3-3.5l33.8-.3 17-.2 .1 0zM65.3 86.9c4.7-7.4 15.9-8.3 22.1-3.7 7.4 4 9.4 15.3 6.5 21.2-.4 1-1.4 1.7-2.7 1.9l-.7 .1c-.9 .1-2-.4-2.9-1.1-.8-.6-1.6-1.2-2.4-1.8-.1 .2 0 .3-.1 .4 0 .1-.2 .1-.2 .2 .9 .6 1.9 1 2.8 1.6 1.6 .9 2.4 3.2 .8 4.6-8.7 6.6-16.4 2.9-21.7-1.8-2.6-2.6-4.6-6.6-4.6-10.8 .1-3.3 .5-7.1 3.1-10.7zM327.8 5.6c26-1 52.3-1.5 78.8 .5 13.6 1.4 25.8 2 40.6 6.8 7.4 2.3 15.4 9.2 18.5 16.9 3.3 7.5 4.2 14.6 5 21.4 .5 4.5 .1 8.8-.9 12.2l-.5 1.7c-.7 2.2-1.9 3-3 2l-6.9-6.4c-1.8-1.6-3.1-5.5-3.6-9.7-1.5-12.9-4.6-22.3-15.5-24.9-10.9-3-24.7-4.4-37.1-5.4-25.6-1.8-51.6-1.2-77.7-.1l-78.3 2.8c-25.8 1-52.5 1.4-71.1 14.8-1.5 1.1-3.1 1.9-4.4 2.3l0 0c-1.4 .4-2.5 .2-2.9-.5l-4.2-7c-1-1.8 1.4-6 6.1-9 25.3-15.3 53.7-14.1 79.1-15.4l78.1-2.8z"/></svg>