<svg xmlns="http://www.w3.org/2000/svg" viewBox="0 0 560 560"><!--! Font Awesome Pro 7.2.0 by @fontawesome - https://fontawesome.com License - https://fontawesome.com/license (Commercial License) Copyright 2026 Fonticons, Inc. --><path fill="currentColor" d="M94.1 492.9l6.9 6.4c1.8 1.6 3.1 5.5 3.6 9.7 1.5 12.9 4.6 22.3 15.5 24.9 10.9 3 24.7 4.4 37.1 5.4 25.6 1.8 51.6 1.2 77.7 .1l78.3-2.8c25.8-1 52.5-1.4 71.1-14.8 1.5-1.1 3-1.9 4.4-2.3l0 .1c1.4-.4 2.5-.2 3 .5l4.2 7c1 1.8-1.3 6-6.1 9-25.3 15.3-53.7 14.1-79.1 15.4l-78.1 2.8c-26 1-52.3 1.6-78.8-.4-13.6-1.4-25.8-2-40.6-6.8-7.4-2.3-15.4-9.2-18.5-16.9-3.3-7.6-4.2-14.7-5-21.5-.5-4.5-.1-8.8 .9-12.2l.5-1.7c.7-2.2 1.9-3 3-2zM265.5 5.5c5.6-.5 11.2-.3 16.7 .6 4.8 .7 12.6 2.8 17.3 8.1 4.7 5 7.4 11.8 7.1 18.7L306 47.8c-.7 38.5-.4 79.4 15.9 112.5 16.9 33.1 53.8 50.4 89.9 63.4 .1 0 .2 .1 .4 .2 .3-2.5 .8-4.8 1.3-6.8l.6-2.1c.8-2.9 2.1-3.8 3.1-2.4l6.5 8.7c1.7 2.2 2.7 7.5 2.6 13.3-5.9 461.6-2.7 214.8-3.7 293.5 .5 1.8-1 .5 1.6 1.4 14.1 2.4 32.5 2 49.1 2.3l51.1 .3c2.7 0 5.4 .4 7.3 1l.1 0c1.9 .6 2.8 1.5 2.6 2.4l-2.2 8c-.6 2-5.9 3.5-12.3 3.4l-50.9-.3-25.6-.5-13.1-.8c-4.6-.6-8.5-.4-15.5-3.7-3.5-1.8-5.9-5.2-6.5-9-.6-4.8-.2-5.2-.2-7.8 .1-10.6 .8-59.3 1.2-89l2.6-197.5c-2.7-.2-6.1-1-9.7-2.4-18.7-7-37.2-15.3-54.3-26.6-17.2-11.4-32-27.3-40.9-46.6-16.6-38.8-16.3-79.9-15.2-119.4 .7-11.4 1-16.8-4.4-20.3-1.7-1.4-6.3-2.2-10.6-2.7-4.2-.4-8.5-.3-12.7 .4-8.3 1.5-16.5 5-23.1 10.4-6.8 5.1-11 12.3-15 20.8-15.1 34-16.3 73.8-18.8 112.8-.4 6.5-1.6 12.9-3.3 17.9l-.9 2.5c-1.3 3.4-2.7 4.3-3.5 2.4-1.6-3.8-3.3-7.4-5.2-10.9-1.4-2.7-2-8.7-1.6-15.5 2.7-39.2 3.5-80.3 21.5-118.7 8.6-20 29.6-34.9 51.7-36.8zM421.1 189c38.9-4.9 78-5.1 116.9-2.2 .8 .1 1.5 .5 2 1.1s.7 1.5 .5 2.4l-.1 .4 3.4 3.5c1.7 1.7 2.9 5.8 2.9 10.4l0 0c1.5 106.5 7.2 212.7 4.6 320.1-.1 2.2-.5 4.3-1.2 5.7s-1.6 2.2-2.4 1.9l-7.9-2.2c-2-.5-3.3-4.7-3.1-9.7 2.4-105.4-3.2-211.4-4.6-317.5 0-.5 .1-1 .1-1.6-36.7-2.5-73.7-2.3-109.9 2.4-1.5 .2-3.1-.2-4.4-1.2l-.7-.5c-.9-.6-1.3-1.8-1.1-3l1.6-6.8c.4-1.8 1.8-3 3.5-3.3zm50.8 260.8c8.7-6.6 16.4-2.9 21.6 1.8 2.6 2.6 4.6 6.6 4.7 10.8-.1 3.3-.5 7.1-3.1 10.7-4.6 7.4-15.9 8.3-22.1 3.7-7.4-4-9.3-15.3-6.4-21.1 .4-1 1.4-1.7 2.7-1.9l.7-.1c.9-.1 2 .4 2.8 1.1 .8 .6 1.6 1.1 2.3 1.7 .1-.2 .1-.3 .2-.4 0-.1 .2-.1 .2-.2-.9-.6-1.9-1-2.8-1.6-1.6-1-2.4-3.2-.8-4.6zM56.5 411.4l6.8 2.4c1.7 .6 3 2.3 3.1 4.2 1.1 11.1 2.6 22.6 6.3 31.6 2.9 7.8 12.3 12.8 22 14.2 5 .8 10 .9 15.6 .5l17.5-.2 35.1-.2c1 0 1.9 .4 2.5 1s.9 1.5 .7 2.3l-1.3 8c-.3 2-2.2 3.5-4.3 3.5l-33.8 .3-17 .2 0 0c-6 .4-12.5 .2-18.8-1-12.3-2.1-26.9-9.4-32.2-23.8-4.8-12.4-5.8-24.2-7.1-35.8-.2-1.9 .3-3.8 1.3-5.3l.5-.7c.7-1 1.9-1.4 3-1.1zM38.6 339.9l6.6 3.3c1.7 .8 2.8 2.7 2.8 4.8 .3 11.9 1.5 24.3 6.5 33 4.7 8.8 13.7 9.7 26.7 9.3L156 390c1 0 2 .4 2.7 1s1 1.5 .9 2.3l-.8 8c-.2 2-2.2 3.5-4.5 3.5L79.8 405c-6.1 0-13.2 .2-20.9-2.3-7.7-2.4-14.5-8.8-17.9-15.5-7-13.6-7.3-27.2-7.7-39.9 0-2.1 .6-4.2 1.7-5.7l.5-.8c.7-1.1 2-1.4 3.1-.9zM239.2 206.6c5.8 .2 11.5 1.1 15.9 2.4l2.1 .7c2.9 .9 3.9 2.2 2.4 3.2l-9.4 6.1c-2.4 1.5-7.8 2.5-13.9 2.3-35.1-1-70.3-.2-105.6 .7l-53 1.1c-8.7 .2-18.1 0-26.2 .4-6 0-11.9 4.3-16.1 10.5-8.6 12.3-12.6 29.7-11.2 45.3 .7 7.7 2.7 15.6 7 20.6 4.2 5.3 9.6 7.1 17.2 7.3l106-.4c2.9 0 5.6 .4 7.6 1s2.9 1.5 2.7 2.3l-2.2 8c-.6 2-6.1 3.6-12.7 3.6l-.1 0c-35.4 0-69.8 .6-105.9 0-10.9 .1-22-7.4-27-16.6-5.3-9.1-7.4-19.1-7.7-28.7-.1-19.1 3.9-38.4 16.9-54.4 6.1-8 18.1-14 28.6-13.5l26.3-.2 52.6-1.1c35.1-.8 70.4-1.6 105.8-.5z"/></svg>