<svg xmlns="http://www.w3.org/2000/svg" viewBox="0 0 560 560"><!--! Font Awesome Pro 7.2.0 by @fontawesome - https://fontawesome.com License - https://fontawesome.com/license (Commercial License) Copyright 2026 Fonticons, Inc. --><path fill="currentColor" d="M392.8-2.3c4.9-.6 10.6 .7 13.7 3.2 3.1 2.6 3.8 4.3 2.9 4.7-2.9 1.2-5.3 2.9-7.3 4.8-1.5 1-5.6 1-12.2 3.1-8.8 3.2-17.4 10.1-23.7 18-6.4 7.7-10.6 18.4-7.1 23.1l47.9 46c32.4 32 63.4 65.4 93 100 3.5 3.7 4.7 4.5 8.5 4.5 3.7-.4 8-2.2 12.1-4.8 8.1-5.4 15.3-13.5 20-22.1 2.1-4.3 3.5-8.9 3.4-12.2-.1-1.6-.7-2.5-1.1-3.4l-5.5-6.4-22.3-25.4c-30.1-33.6-61.6-65.9-94.4-96.9-5.4-5.1-10.2-10.4-13.7-15.1l-1.7-2.3c-2.3-3.2-2.4-5-.3-4.5L418 15c3.3 .8 9.3 4.8 15 10.3 33.2 31.4 65.1 64.4 95.6 98.5l22.6 25.9 2.8 3.3c1.1 1.5 2.4 3.7 3.4 5.7l-.1 .1c1.4 4.1 1.8 8.3 1.2 11.8-1.1 7.2-3.8 13.3-7.2 18.6-6.7 10.8-15.5 19.7-27 26.2-5.9 2.9-12.8 5.7-21.2 4.2-1.5-.4-2.9-1-4.3-1.6-.4 1.2-.8 2.4-1.7 3.6l-145.4 192c-2 2.6-4.5 4.8-6.9 6.1l-.6 .3c2 3.2 4 6.3 5.5 9.8 17.9 36.3 13.3 84.1-15.9 114.3-9.1 9-21.1 19-35.5 16.6-2.2-.4-4.2-1.2-6.1-2.2-.3-.2-.4-.3-.7-.5-3.7-1.2-7.3-2.8-10.4-5.2-1.5-1.2-2.6-2.9-2.7-4.8l-.1-.9c-.1-1.2 .6-2.2 1.8-2.6 2.3-.8 4.4-1.8 6.4-2.9 1.6-.8 3.1-.9 4.1-.2 5.8 4.2 13.6 4.9 20 2.1 5.7-2.6 12.6-10.1 17.6-16.5 10.2-13.7 15.6-30.7 15.9-47.8 0-.7 .4-1.4 1-1.8 0 0 .1 0 .2-.1 .2-15.9-3.5-31.9-11.3-45.8-4.3-7.7-9.7-14.8-15.8-21.1-16.3-17-91.9-95.6-137.8-143.3-13.5-13.3-25.5-28.7-39.8-38.2-14.6-9.8-31.9-15.4-49.5-15.9-17.5-.5-35.1 4.1-49.6 13.6-7.3 4.6-14 10.7-19.3 17.2-5.3 6.7-7.5 13.3-4.6 17.8 1.1 2 5.1 6.1 8.1 9.4l9.5 10.4 19.3 20.7 39.2 41c52.6 54.3 106.3 107.6 160.4 160.5 4.4 4.3 8.4 8.7 10.9 12.1s3.4 5.5 2.5 5.7l-9 2.4c-2.2 .6-11.8-6.6-22-16.6-6.1-6-12.2-12.1-18.3-18.1-.7-.6-1.4-.9-2.2-1.6-22.7-21.9-44.9-44.5-67.3-66.7-.3 .4-.4 .8-.7 1.1L31.6 540.3c-.8 .8-1.8 1.3-2.8 1.4-1 .1-1.9-.2-2.4-.9l-5.1-6.3c-1.3-1.6-.8-4.2 1-6L138 410.8c.1-.1 .3-.1 .4-.2-12.7-12.7-25.7-25.1-38.3-38l-56.4-59-27.7-30c-4.2-5.4-9.8-8.4-14.1-18.6-3.6-10 .2-19.9 4.4-26.4 2-3.1 4.4-5.4 6.8-7.3 1.1-1.2 2.1-2.4 3.1-3.5 7.2-7.1 15.3-13.5 24.4-18.1 17.9-9.7 38.9-13.3 58.9-11.1 13.4 1.4 26.4 5.5 38.4 11.7 1.3-.9 2.9-1.7 4.9-2.2 2.7-.5 5-1.9 10.4-1.8 4.5 .1 9.3 2.7 12 5.7l11.9 12.2c19.9 20.4 111.2 113.9 166.8 170.8 .7 .7 .9 1.5 1.5 2.2L479.1 220.4c-1.1-.5-2.1-1.3-3-2.3-42.5-48.8-86.4-96.5-133.8-140-.1 0-.1-.2-.1-.2L197.3 190.6c-2.1 1.6-4.5 2.7-6.7 3l-1.1 .2c-1.6 .2-2.7-.5-2.8-1.8l-.8-7.7c-.2-2 1.1-4.3 3.3-6l152-118.4c1-.8 2.3-1.3 3.3-1.3 .2 0 .2 .2 .4 .2-.6-1.4-1.2-2.8-1.5-4.3-1.4-17.1 7.6-27.8 15.7-37.1 8.8-9 18.9-17.1 33.8-19.6zM338.2 411.4c-.2-.9 0-2 .3-3.2-1.8-.6-3.6-1.7-5.5-3.4 1.8 2.1 3.5 4.4 5.2 6.6z"/></svg>