<svg xmlns="http://www.w3.org/2000/svg" viewBox="0 0 616 560"><!--! Font Awesome Pro 7.2.0 by @fontawesome - https://fontawesome.com License - https://fontawesome.com/license (Commercial License) Copyright 2026 Fonticons, Inc. --><path fill="currentColor" d="M398.9-4.7c3.2-.4 6.4 .4 9.1 2.2L427 16.1c.5 .5 .8 1.3 .7 2.1 0 .1-.2 .2-.2 .4l6.3 6.3c2.1 2.3 4.3 3.6 7.2 7.9 4.9 7.9 3.7 17.9-.8 24.7-4.4 5.9-6.9 9.3-9.5 14.5-9.6 18.8-3.4 43.6 11.1 59.7 14.5 16.5 37 25.7 58.1 20.5 5.3-1.2 10.5-3 15.5-5.3 5.6-2 7.5-5.8 17.7-9.1 4.4-1.1 9.3-.8 13.6 .9 4.5 1.5 8.4 5.6 10 7.2l13 12.8c2.8 2.8 5.1 6 6.5 8.9l.7 1.4c.9 2 .6 3.3-.9 3.4l-9.1 .2c-2.3 .1-5.8-1.8-8.8-4.8l-13-12.9c-3.1-3.4-6.1-3.7-9.7-2.7-.9 .4-1.4 .6-2.6 1.4l-4.2 2.6c-2.8 1.7-5.8 3.2-8.8 4.6-6 2.8-12.4 4.8-19 6-26.9 5.7-55.3-7.2-71.9-27.8-16.9-20.1-24.6-51.7-10.1-76.8 1.6-3 3.5-5.9 5.4-8.6l2.9-3.9c.6-.7 1-1.5 1.4-2.3 1.4-3.3 .9-6.5-1-8.3l-26-25.7c-.9-.9-1.4-1.9-1.9-2.8-.2 .1-.5 .3-1.3 .9-2.7 1.8-5.6 3.9-8.3 6.1-5.6 4.4-11.1 9.1-16.5 13.8-10.9 9.5-21.6 19.4-32.2 29.4-.9 .8-2.1 1.1-3.4 1.2-16.3 15.1-32.6 30.3-48.7 45.6l30 30.1c.2 .2 .2 .7-.1 1.3s-.9 1.3-1.5 1.8l-6 5.3c-1.5 1.3-3 1.9-3.6 1.4l-29.3-29.6c-54 52.1-106.8 105.6-158.5 159.9-18.5 19.6-36.8 39.3-54.5 59.5-8.8 10.1-17.6 20.3-25.3 30.8-1.6 2-4.4 6.5-4.2 6.4-.3 .5-.2 .6 .5 1.3l28.7 28.6c2.7 2.9 6.7 3.3 9.8 1.5 11.9-7.4 26.4-12.8 41.1-13.8 14.4-.9 29.8 1.3 43.2 8.5 13.5 7 24.1 19.3 29.7 33.3 5.7 13.9 7 29.3 4.2 43.9-1.3 7.3-3.9 14.3-7.2 21.1-1.7 3.3-3.8 6.4-5.8 9.6-1.3 1.9-1.9 3.5-2 5.3 0 1.8 .5 3.4 1.4 4.7 .9 1.1 4.4 4.4 6.4 6.5l14.3 14.3c4.5 4.4 11.2 11.4 9.8 9.5-.7 .4 2.4-1.1 5.1-2.8 2.6-1.6 5.3-3.5 8-5.4 42.1-32 81.4-69.7 120.5-106.5 39-37.2 77.3-75.1 115-113.7 3.6-3.7 7.1-7.5 10.7-11.2l-30.8-31c-.5-.5-.4-1.3 .1-2.4l.2-.5c.3-.8 1.2-1.7 2.1-2.3l5.5-3.8c1.4-1 2.6-1.3 3.1-.8l30.1 30.2c30.3-31.5 60.3-63.5 87.4-97.1 3.7-4.8 7.5-9.7 13.3-17.3l1.7-2.4 .5-.6c.1-.1 .1 0 .1 .1 .5 .1 1.2 .2 1.8 .2s.8 0 1.2-.1l.5 .1c.7 .1 1.3 .7 1.8 1.4 1 1.4 1.7 3.1 2.4 4.8 1.3 3-7.3 18.7-20.6 34.4-70.5 82-147.2 157.2-224.9 231.7-19.5 18.5-39.3 36.8-59.4 54.7-20.4 17.8-40 35.7-63.8 51.2-1.6 .9-3.1 1.9-5.1 2.8-3 1.4-6 2.3-9 1.9-2.9-.7-5.6-1.8-7.7-4.4l-3.9-3.9c-10.7-10.7-17.8-17.8-21.4-21.3-2.4-2.7-4.4-3.8-7.8-8.6-6-8.5-3.2-20.9 1.8-26.9 13.7-19.7 14.9-47.9 2.3-68-12.5-20.6-39.3-27.8-63.1-22.8-5.9 1.2-11.7 3.3-17.3 5.9-2.9 1.4-5.1 2.7-8.3 4.6-4.3 2.5-9.6 3.6-14.5 2.8-4.9-.6-9.9-3.3-13.1-6.7l-7.1-7.1 .1 0-14.2-14.2-7.1-7.1c-4.5-3.4-8.4-9.6-4.9-15.5l2.1-4.2 1.5-2.4 3.1-4.4 6.3-8.3c8.5-10.7 17.4-20.9 26.4-31 17.9-20.2 36.3-39.8 54.8-59.3 74.5-77.7 150.3-153.8 230.1-226.4 8.8-7.8 17.5-14.8 26-21.1 3.1-2.7 6.2-5.4 9.5-8 3-2.3 5.9-4.6 9.4-6.8 1.6-.9 5.4-3.4 8.4-3.9zm-3.6 218.9l32.5 32.6c.2 .2 .1 .7-.2 1.3s-.9 1.2-1.5 1.8l-6 5.3c-1.5 1.3-3 1.9-3.6 1.4l-32.3-32.5c-.5-.5-.4-1.3 .1-2.4l.2-.5c.3-.8 1.2-1.7 2-2.3l5.5-3.8 0 0c1.4-1 2.6-1.3 3.1-.8zm-54.4-54.4l32.5 32.6c.2 .2 .1 .7-.2 1.3s-.9 1.2-1.5 1.8l-6 5.3c-1.5 1.3-3 1.9-3.6 1.4l-32.3-32.5c-.5-.5-.4-1.3 .1-2.4l.2-.5c.3-.8 1.2-1.7 2-2.3l5.5-3.8c1.4-1 2.6-1.3 3.1-.8z"/></svg>