<svg xmlns="http://www.w3.org/2000/svg" viewBox="0 0 616 560"><!--! Font Awesome Pro 7.2.0 by @fontawesome - https://fontawesome.com License - https://fontawesome.com/license (Commercial License) Copyright 2026 Fonticons, Inc. --><path fill="currentColor" d="M208.7 54.5c24.2 .2 48.8-1.8 73.8 .5 25 1.9 50.2 9.2 72.2 21.6 22.2 11.9 41.6 28.8 58.8 45.5l53.4 49.9 106.9 100.5c19.7 20.3 21.6 52.7 9.2 76.5-12.2 24.4-37.3 40.4-63 44.5-13 2.5-25.9 2-37.8 2.1l-42.1 0c-.1 .5 0 .9-.2 1.4-4.8 11.7-13.3 22.1-23.7 30.3-5.3 4.1-11.3 7.2-17.7 9.2l173.4-.1c7.1 0 13.8 .4 18.6 1s7.2 1.5 6.6 2.3l-5.5 8c-1.4 2-15 3.5-31.4 3.5l-526.1 .1c-.6 .5 0-1-1.2 2.4-.8 2.8-1.2 6.2-1.2 9.6 0 3.4 .4 6.8 1.1 9.6 .5 1.8 .7 2.2 .7 2.2 .1 .1 .2 .2 .4 .2l462.4-.1c11.3 0 22 .5 31.6 1.2l61.9-1.1c2 0 4 .6 5.5 1.7l0 .1 .7 .6c1 .7 1.4 2 .9 3.1l-3 6.6c-.8 1.7-2.6 2.8-4.8 2.9l-57.9 1.1 .1 28.1c-1 1.3-.2 4-2.6 4.2-1.1 1.4-1.8 2.9-3.8 3.4-3.2 1.4-8.9 1.3-10.3 1.6-4.7 .2-9.3 .3-13.9 .3-4.6-.1-9.2-.2-13.9-.5-1.4-.2-6.9-.2-10.4-1.8-2.2-.5-2.8-2.2-3.9-3.7-2.6-.2-1.7-3-2.8-4.4l-.3-26.1-27.1 .5c-1 0-2-.3-2.6-1-.6-.5-.7-1.3-.8-1.9l-99.7 0 .1 29.3c-1 1.3-.2 4-2.6 4.2-1.1 1.4-1.8 2.9-3.8 3.4-3.2 1.4-8.9 1.3-10.3 1.5-4.7 .2-9.3 .3-13.9 .3-4.6 0-9.2-.2-13.9-.4-1.4-.2-6.9-.2-10.4-1.8-2.2-.5-2.8-2.2-3.9-3.7-2.6-.2-1.7-3-2.8-4.4l-.3-28.4-130.2 0 .1 29.3c-1 1.3-.2 4-2.6 4.2-1.1 1.4-1.8 2.9-3.8 3.4-3.2 1.4-8.9 1.3-10.3 1.5-4.7 .2-9.3 .3-13.9 .3-4.6 0-9.2-.2-13.9-.4-1.4-.2-6.9-.2-10.4-1.8-2.2-.5-2.8-2.2-3.9-3.7-2.6-.2-1.7-3-2.8-4.4l-.3-28.3-55.1 0c-6.9-.5-11.4-9.6-12-13.2-1.3-4.8-1.6-9.2-1.7-13.7 .1-4.5 .5-8.9 1.8-13.7 .7-3.8 5.9-13.8 13.6-13l199.8-.1c-5.5-1.7-10.8-3.9-15.8-6.9-11-6.7-21.4-16.7-24.9-31.6-.1-.9 .4-1.6 .5-2.5l-111.5 0c-7.4 0-14.6-.2-21.5-.4l-32.6 .4c-1.2 0-2.4-.6-3.4-1.7l-.5-.5c-.4-.5-.3-1.2-.3-1.9-.1-.2-.3-.3-.1-.5 0-.3-.2-.5-.1-.7l2-6.6c.5-1.7 1.7-2.8 3-2.8l90.3-1.1c.6 0 1.2 .4 1.6 1 0 .1 0 .2 0 .2l335.6 0c24.4-.8 49.7 2.2 71.1-3.6 21.5-6.1 40.7-21.5 47.5-42.6 7.3-21 1.5-44.2-16.6-58.5l-70.1-65.5c-1.8 .6-4.1 1.1-6.7 1.1-54.5 .6-109 1.6-163.8-.2-13.7-.6-27.4-1.2-41.5-3.2-7-1-14.1-2.2-21.7-5.2-3.7-1.7-8.1-3.8-11.4-8.5-3.6-4.6-4-10.4-4-14.1l.1-81.9c0-4.5 .6-8.9 1.8-12.3l.5-1.7c.7-2.3 2-3.1 3.1-1.9l6.6 7.1c1.7 1.8 2.8 6 2.8 10.7l.1 81.6c-1.3 7.3 14.4 10.2 26.9 11.8 13.1 1.7 26.7 2.3 40.3 2.8 50.6 1.5 101.6 .7 152.5 .1-9.8-9.2-35.2-32.9-76.1-71.2-17.6-17.1-36.5-30.8-57.8-41-42.5-21.4-92-14.7-141.1-15.2L49.3 70.6c-8 .1-15.6-.2-21-.8s-8.1-1.4-7.4-2.3l6.6-8.1c1.7-2 17-3.6 35.5-3.8l145.7-1.1zm-108 447.8l.2 10.5c-6.5 1.4 39.9 1.4 32 .3l-.1-12.1-32 1.3zm192-.1l.1 10.5c-6.5 1.4 39.9 1.4 32 .3l-.1-12.1-32 1.3zm192 .1l.1 10.5c-6.5 1.4 39.9 1.4 32 .3l-.1-12.1-32 1.3zM308.3 404.4c-4.8 8.3-10.8 16.1-18.4 22.5-5.4 4.4-11.7 7.6-18.4 9.7l87.2 0c-6-1.7-11.9-4-17.3-7.2-9.7-5.7-18.7-13.7-24.3-25l-8.8 .1zm-97.5 .6c9 12.7 27.4 20.7 43.5 19.7 10.1-.5 19.8-4.1 27.6-10.4 3.2-2.9 6.1-6.3 8.8-9.8l-80 .5zm123.5-.8c10.1 12.9 29 20.9 45.8 20.4 10.4-.3 20.5-3.6 28.5-10 3.7-3.2 7.2-6.9 10.2-10.9l-84.6 .5zM257.6 298.6c1.7 .2 2.8 .8 2.8 1.4l.3 45c0 .3-.4 .6-1 .7-.6 .1-1.5 .2-2.3 .1l-8-.8c-2-.2-3.5-.9-3.5-1.6l-.2-43.4c0-.6 .6-1.2 1.8-1.7l.5-.2c.7-.3 2-.4 3.1-.3l6.6 .8zm39.8 0c1.7 .2 2.8 .8 2.8 1.4l.4 45c0 .3-.4 .6-1 .7-.6 .1-1.5 .2-2.4 .1l-8-.8c-2-.2-3.5-.9-3.5-1.6l-.2-43.4c0-.6 .6-1.2 1.8-1.7l.6-.2c.7-.3 2-.4 3.1-.3l6.6 .8zm33.2-.8l6.6 .8c1.7 .2 2.8 .8 2.8 1.4l.3 45c0 .3-.4 .6-1 .7-.6 .1-1.5 .2-2.3 .1l-8-.8c-2-.2-3.5-.9-3.5-1.6l-.2-43.4c0-.6 .6-1.2 1.8-1.7l.5-.2c.7-.3 2-.4 3.1-.3zM158.2 174.1c1.2 .1 3.1-.4 4.5 .7 1.5 .7 3.1 1 4.4 2l3.4 3.7c2 2.5 2.3 4.2 3.4 6.3 5.5 15.4 7 30.2 7.6 45.5 0 7.7-.1 15.4-1.8 23.4-.9 4.1-2.2 8.3-4.9 12.8-1.7 2-4 5.1-7.4 6-3.3 1.2-7.2 1.9-8.3 1.6-21.9-.2-65.6-.5-131.1-1-2.4 0-4.6-.4-6.2-1s-2.4-1.5-2.2-2.4l1.9-8c.5-2 5-3.5 10.6-3.4 65.4 .5 108.5 .9 129.5 1l0 0c0 .9 3.7-4.8 4.3-11.3 1-6.4 1.2-13.3 .9-20.2-.6-13.5-2.6-28.6-7.3-39.3-1.4-2.6-.3-1.1-1.5-1.6-5.4 .1-16.2 .2-32.5 .5l-86.6 1.3c-4.8 .1-9.4-.5-13.1-1.6l-1.8-.5c-2.5-.7-3.4-2-2.2-3.1l7.2-6.7c1.9-1.7 6.3-2.9 11.4-2.9l87.7-1.3 21.9-.4 5.5-.1 2.7-.1z"/></svg>