<svg xmlns="http://www.w3.org/2000/svg" viewBox="0 0 448 560"><!--! Font Awesome Pro 7.2.0 by @fontawesome - https://fontawesome.com License - https://fontawesome.com/license (Commercial License) Copyright 2026 Fonticons, Inc. --><path fill="currentColor" d="M223-8.9c20.3 .1 41.1-.1 62.2 9.1 10.5 4.5 20.3 14.9 23.4 26.3 3.5 11.2 3.7 21.8 3.9 32 0 2.5-.7 4.7-1.3 6.8 18.8 .1 37.6 .3 56.8 .9 21.6 1.5 44.5 6.9 62.7 21.5 9 7.2 16.7 16.5 21.1 27.9l0 0c2.4 5.5 3.3 11.9 3.2 18.6-.6 3.6-1 7.1-3.7 11.2-1.2 2-3.7 3.3-5.4 5-2.3 .9-4.8 1.2-7.2 1.8l-20.1-.1-4.2 31.4c-.3 3.6-.6 7.4-1.2 11.4L373.3 511.4c-1.8 14.7-3.1 24.8-3.8 30.5-1.7 6-7.6 10.5-10.8 11.4-14.4 5.8-27.5 7.2-41 9.1-26.8 3.2-53.6 4.4-80.3 4.9-26.8 .5-53.5 0-80.3-1.6-13.4-.8-26.8-2-40.3-4-6.8-1.1-13.5-2.2-20.4-4-3.4-.9-6.9-2-10.7-3.7-3.3-1-9.3-5.7-10.8-12.1L31.7 209.2c-.8-6.5-1.3-12.9-1.2-17.4 .1-4.5 .6-6.9 1.5-6.5l8.6 4c2.1 1 5.3 13.4 7.2 28.6L89.4 538.8c-1.5-.3 5.2 3.4 11 4.6 6 1.6 12.5 2.7 18.9 3.7 13 1.8 26.2 3 39.4 3.8 26.5 1.6 53.2 2 79.8 1.5 26.6-.5 53.2-1.8 79.4-5 12.6-1.8 27-3.8 36.1-8.3 1.6-1.7 .5 1 1.2-2.3l3.8-29.9 38.2-302.9c-.2-.3-.5-.5-.5-.8l5-36.8c-.6 0-1.2 .1-1.8 .1l-352-2.1c-1.7 0-3.4-.2-5-.4l-15.4 .2c-.3 0-.7-.4-.9-1-.2-.6-.3-1.5-.2-2.3l.5-8c.1-1.2 .4-2.1 .7-2.7L10 149.7c-7 .2-13.1-5.7-14.4-11.9-1.4-5.3-1-9.9-.2-14.2 1.7-8.6 5.7-15.9 10.4-22.5 .4-.5 1.2-.6 1.8-1 11.5-14.2 28.1-23.1 44.4-28.4 21-6.8 43.1-8 64.2-8.1l22.6 .2c-.1-.7-.4-1.3-.4-2.1 .4-10 .6-20.3 3-31.1 2.2-10.8 9.5-22.4 19.9-28.2 20.7-10.9 41.7-10.5 61.9-11.3zM293.5 212c2 .4 3.3 3.7 3.1 7.5L283.7 461.7c-.2 3.3-1 6.5-2.2 9l-.6 1.2c-.8 1.7-2.1 2.2-3.1 1.3l-6.3-5.6c-1.6-1.4-2.5-4.6-2.4-8.1L281.9 216c.1-1.7 .5-3.2 1.2-4.3s1.6-1.6 2.4-1.4l8 1.8zm-137.8-1l6.9 4.9c1.7 1.2 3 4.3 3.2 7.8L179 467.1c.1 1.6-.2 3.2-.8 4.4s-1.4 1.8-2.3 1.7l-8.1-.9c-2-.2-3.7-3.3-3.9-7.1l-13-242c-.2-3.3 .3-6.6 1.3-9.2l.5-1.3c.7-1.7 1.9-2.4 3-1.6zm-47-132.5c-20.7 .2-41.3 2.9-59.9 10.1-18.1 7-34.9 20.8-38.5 37.5-.8 4.3-.2 7.7-.2 8.5 .2 .3 .5 .4 .7 .4l43 1c1.9 0 3.7-.1 5.7-.1l378.9 1.5 .1 0c.5 .1 1.1-.3 1.8-4.5 0-3.9-.7-8.3-2.5-12.5-3.3-8.5-9.6-16-17.2-21.8-15.1-12.1-35.8-16.6-55.9-17.7-41.9-1-85.2-.9-127.8-1.4l-128.2-1zM221.2 5.9c-19.2 .6-40.2 1.6-54.1 10.4-13.4 8-13.3 28.3-14.1 47.7l88.7 .7c19.8 .3 39.3 .3 59 .5l-.2-.2c-1.7-1.3-2.7-4.4-2.8-7.8-.2-9.8-.7-19.5-3.6-27.5-2.8-8-8.6-13.4-16.7-16.9-16.5-6.7-36.9-7.1-56.3-6.9z"/></svg>