<svg xmlns="http://www.w3.org/2000/svg" viewBox="0 0 448 560"><!--! Font Awesome Pro 7.2.0 by @fontawesome - https://fontawesome.com License - https://fontawesome.com/license (Commercial License) Copyright 2026 Fonticons, Inc. --><path fill="currentColor" d="M217.7-4.3c4.7-6.2 13.3-6.8 18.2-1.2 2.5 3.1 4.3 6.5 5.7 10l2.6 6.3c6.5 16.1 13.2 32 21.4 47 8.1 15 17.4 29.3 28.6 41.9 5.4 6.4 11.5 12.2 17.8 17.7 3.1 2.8 6.6 5.2 9.8 7.8 4.1 3.1 8 5.2 12.8 9.4 6.6 5 6 14.5-.5 19.2-2.7 3-6.3 3.9-8.9 5.6l-6.5 2.6c-8.4 3.1-17.1 5.6-23.8 8.9l-2.1 1.1-.1 .1 0 .2 3.7 10.7c3.1 7.9 6.4 15.8 10.1 23.4 14.9 30.7 36 57.9 60.6 82L386 306.5c6.3 6.8 13.1 10.8 19 22.9 1.6 3.2 1.7 8.3 .2 12.1-2 4.1-5.2 6.3-8 8.3-5.1 2.7-9.7 4.3-14.2 5.5-9.1 2.4-17.9 3.9-26.7 5.3l-13.2 1.9-6.6 .9-1.9 .4c0 .2-.4-.9 .8 2.8 1.1 2.9 3.3 6.4 5.5 9.7 9.5 13.3 21.7 25.9 34 37.9 12.5 12.1 25 24.1 40.4 39.1 6.4 5.6 12.7 11.2 19.2 16.6 1.7 1.4 2.9 3.3 3.5 5.2l0 0 .2 .9c.4 1.3-.1 2.5-1.2 3l-6.9 2.8c-1.8 .7-4.1 .2-5.9-1.3-20.9-17.5-41.2-35.5-60.8-54.7-9.7-9.6-19.3-19.5-28.1-30.4-4.4-5.5-8.7-11.1-12.4-17.9-1.7-3.6-3.7-6.9-4.1-12.8-1-6.3 2.8-13.4 9.2-15.9 1.8-.6 3.5-.6 4.8-.3 .3 .1 .2 .3 .4 .4 1.1-.2 2.2-.4 3-.5 8.5-1.2 17.1-2.3 25.5-3.8 8.4-1.4 16.8-3.2 24-5.8 3.6-1.4 6.1-3 5.7-3.4 .4-.3-.5-2.4-3.1-5.6-10.3-11.9-24.4-23.5-36.5-36.1-24.8-25-46.2-54.1-61.1-86.4-3.8-8-7.2-16.3-10.1-24.6l-2.3-6.6c-.6-1.8-1.5-3.7-.7-5.6-.1-1.9 0-3.8 1.3-5.4 1.3-3.2 6.1-6.2 7.8-7 2.3-1.3 4.5-2.2 6.6-3.1l24.4-8.9c4.1-1.7 4-1.8 4.4-2.3 .1-.3 0-.7-.2-.8l-2.8-1.9c-5.5-3.6-13.7-9.7-20-15.6-6.8-6-12.9-12.6-18.8-19.4-11.5-13.8-21.1-28.9-29.5-44.6-8.2-15.7-15.1-32-21.5-48.1-2.2-5.6-1.5-3.7-2.1-4.8-.5-.5-1 .3-1.2 .7-.8 1.4-3.3 6.3-5 9.8L215.5 31c-15.1 31.6-34.5 62.1-59.6 87.5-6.1 6.4-12.8 12.4-19.5 18.2l-7.6 6.2c-.5 .3-.2 .9 .3 1.1 1.2 .7 5.7 2.7 9.5 3.9l12.2 4.2c4.2 1.4 8.5 2.9 13 5.1l3.7 2c1.6 1.2 3.2 2.5 4.6 4 2.6 3.2 2.7 7.1 2.5 11-11 34.3-25 63.2-45.5 90.8-10.1 13.5-21.6 26-34.2 37.2-6.3 5.6-12.9 10.8-19.6 15.8l-9.8 7.3c-3.6 2.6-5.7 4.5-5.3 4.2-.1 .4-.4 .3 .8 .9 3 1.4 5 2.5 9.1 4.2 7.2 3.2 14.7 5.7 22.2 7.9 7.7 2.2 14.9 3.5 23.8 5.5 4.8 .8 15.2 4.8 14.5 12.6 .3 1.7-.4 3.6-.8 5.4-.5 1.5-1.1 2.4-1.7 3.7l-3.3 7c-15.6 30.1-37.2 57.1-64.1 78-6.7 5.2-13.8 10-21.1 14.4-3.6 2.1-8 4.4-9.5 5.5-2.1 1.4-.9 .6-1.2 1-1.6-.4 7.2 3.3 14.6 4.8 7.7 1.6 15.5 3 23.5 4 31.9 4.1 64.6 5.4 97.2 6.2 65.1 1.1 130.7-.2 195.2-6.8 10.8-1.1 21-2.2 28.4-2.7 7.3-.6 11.1-.4 10.4 .5l-6.9 9.4c-1.8 2.4-22.7 7.2-48.3 9.3-28.1 2.3-56.3 3.7-84.4 4.6 0 .2 .2 .4 .2 .6l4.7 46c-.4 5.4-3.5 11.2-8.6 13.1-3.9 2-7.4 2.8-10.9 3.4-6.8 1.2-13.4 1.4-19.9 1.3-6.5-.2-13-.8-19.5-1.9-3.3-.6-6.6-1.4-10.1-2.6-5.8-1.4-9.4-6.5-10.8-11.6l2-47.6c-11.8-.1-23.7-.2-35.5-.5-32.1-1.1-64.3-2.6-96.6-7.6-8.1-1.3-16.2-2.9-24.5-5.7-3.4-1.4-10.3-3.4-14.3-9-5.2-5.6-1.7-13.1 3.3-17.9 2.2-1.6 4.4-2.9 6.6-4.5l5.2-3c3.4-1.8 6.6-4 9.9-6 6.5-4.2 12.6-8.9 18.5-13.9 11.7-10.1 22.5-21.3 31.8-33.7 4.8-6.1 9-12.6 13.2-19.2 3.9-6.3 8.3-14.4 10.5-19.1 1.5-2.9 .8-1.8 .5-2.5 .7 .1-3.9-.9-7.7-1.7-7.9-1.6-16.1-3.5-24-6-8.1-2.5-15.4-5.4-23.5-9.1-4.3-2.5-8.8-3-14-8.8-4.5-5.5-1.6-13.2 4.1-17.8 8.2-7 13.6-10.3 20.2-15.5 6.2-4.8 12.3-9.7 18-14.9 11.5-10.5 21.9-22 31.1-34.6 18.3-24.5 32.4-54.9 41.1-82.2 .1-.2 0-.4-.1-.5l-.2-.2-2.1-1.1c-3.3-1.6-7.3-3-11.4-4.4l-12.6-4.3c-4.4-1.8-8.2-2.5-14.5-7.2-6.9-4.3-9.1-13.7-2.8-19.4 4.1-4.5 8.1-6.9 11.6-10.3 6.4-5.6 12.8-11.3 18.6-17.5 23.9-24.5 42.2-53.6 57.1-84.9l5.8-11.8c2.2-4 3.2-7.4 8.8-15zm-19 554.4c0 .5 .3 .6 .9 .8 2.3 .8 5 1.4 7.8 1.9 5.6 1 11.4 1.5 17.2 1.7 5.8 .1 11.6-.1 16.8-1 2.6-.5 5.1-1.2 6.5-1.9 .9-.4 .5-.4 .6-.6l-3.4-33.8-44.9-1.8-1.5 34.8zm84.1-161.2c6 6.5 12.8 12.1 20.2 16.7 .1 .1 .1 .5-.2 1-.3 .6-.7 1.3-1.2 2l-4.8 6.5c-1.2 1.6-2.4 2.6-2.8 2.4-8.3-5.4-16-11.9-22.8-19.4-.3-.3 0-1 .6-1.9l.3-.5c.5-.6 1.4-1.5 2.3-2l5.5-3.7c1.4-.9 2.5-1.4 2.7-1.1zM187.5 264.5l.6 .2c.8 .2 1.9 .8 2.8 1.3l0 0 5.5 3.6c1.4 .9 2.2 1.7 2 2l-12.6 22.7c-.1 .1-.4 .1-1-.2-.6-.3-1.3-.8-2-1.3l-6.3-4.9c-1.5-1.2-2.6-2.4-2.5-2.7l11.5-20.7c.2-.3 .9-.2 2 .1zM233.8 88.1l20 23.7c.1 .2 0 .5-.4 1-.4 .5-1.1 1.1-1.8 1.6l-6.5 4.7c-1.6 1.2-3 1.8-3.4 1.4L221.9 96.9c-.3-.3-.1-1 .6-2l.4-.4c.5-.6 1.4-1.4 2.3-2l5.6-3.5c1.4-.9 2.6-1.3 2.9-.9z"/></svg>