<svg xmlns="http://www.w3.org/2000/svg" viewBox="0 0 560 560"><!--! Font Awesome Pro 7.2.0 by @fontawesome - https://fontawesome.com License - https://fontawesome.com/license (Commercial License) Copyright 2026 Fonticons, Inc. --><path fill="currentColor" d="M279.9 32.3c6.5-4.1 15.4-1.5 19.2 1.4 4.6 2.9 7.4 6.2 10.5 9.4 11.3 13 19.7 26.6 28.3 40.3 65.5 110.3 124.3 223.4 185.9 335.2 6.4 11.8 12.2 23.1 17.5 33.8l17.8 32.7 3.9 7.8c1.2 2.9 2.2 6.3 2.4 10.6 0 4.3-2.1 9.7-5.4 12.3-3.1 2.9-6.3 4.3-9.2 5.5-11.8 4.2-22.4 4.9-33.3 6-21.5 1.7-42.7 2-63.9 2.3l-127-.1-253.7-1c-10.1 0-19.6-.4-28.4-1l-22.8 0c-4.4-.1-8.9-.2-14.2-1.9-5.5-1.1-12-8.5-12-14.7-.5-11.4 3.3-18.8 6.3-26.7 3.2-7.7 7-14.9 10.7-22.1 31.1-56.5 65.7-109.9 99.2-164.3L212.7 135.4 262.9 54c4.8-6.5 6.3-13.9 17-21.7zm8 13.6c-.5-.1-2.2 1.1-3.6 2.4-.1 .1-.2 .2-.4 .3-4.3 5.5-9.4 15.5-14.3 22.7l-50.5 81.9-101.7 163.5c-33.4 54.6-69.1 108.6-98 164.6-6.6 12.7-13.5 32.9-5.8 30.6l.1 0c5.4 1.2 14.4 .5 22.2 .7l24.1 0 96.3 .2 192.5 1.1 96.1 .1c31.7-.6 64.7 0 94.1-5.5 4.4-1 8.8-2.5 10.2-3.7 .8-.6 1.1-1.2 1-2.7-.9-3.9-4.5-11.1-8.2-17.3l-122.1-224-61.7-111.5c-10.5-18.4-21.1-36.8-32.1-54.8-5.6-8.9-11.1-17.9-17.1-26.3-5.8-8.1-12.6-17.3-18.7-21.2-2-1-2-.9-2.3-1zm-6.4 357.9c4.7 1 8.1 3 11.3 6.4 3.5 3.9 5.3 9.5 3.7 14.5-1.7 5.2-5.8 8.7-10 10.7-5 2.1-10.1 1.7-14.5-.4-4.4-2-8.5-6.9-9.2-12.2-.8-5.2 .5-10.1 3.7-14.2 1.1-1.4 2.7-2 4.3-2 .8-.7 1.5-1.4 2.4-1.9 3-1.2 6-1.3 8.3-.9zM285.9 207c2 .2 3.5 2.2 3.6 4.7l1.2 154.4c0 2.1-.6 4.2-1.7 5.8l-.5 .8c-.7 1.1-2 1.5-3.1 .9l-6.6-3.3c-1.7-.8-2.8-2.9-2.8-5.1L274.6 210c0-1.1 .4-2.1 1-2.8s1.5-1.1 2.3-1l8 .8z"/></svg>