<svg xmlns="http://www.w3.org/2000/svg" viewBox="0 0 616 560"><!--! Font Awesome Pro 7.2.0 by @fontawesome - https://fontawesome.com License - https://fontawesome.com/license (Commercial License) Copyright 2026 Fonticons, Inc. --><path fill="currentColor" d="M66.9 41.1c63.5-7.5 126.8-8.4 190.3-7.1 31.8 1.3 63.3 2 95.8 9.2 4.1 1.2 8.2 2.1 12.7 4.6 1.9 .6 5.5 4 7.2 6.6l1.8 5.1 .1 4 .1 23.7 .3 47.4 .4 34.9c.2-.1 .5-.2 .8-.3 .2-.1 .3-.1 .5-.2 2.8-.8 6.3-1.4 10.3-1.4l86.1-.5c4.4 .1 9 3.7 10.7 5.9 2.2 2.4 3.6 4.8 5 7.1 2.8 4.7 4.9 9.3 6.9 14 4.1 9.4 7.4 18.8 10.6 28.2 6.3 18.9 11.9 38.1 16.8 57.2 .6 1.8 1.9 2.8 7 5.8L542.9 293 568 308c4.2 2.5 8.4 5.1 12.8 8.1 2.2 1.5 4.4 3.2 6.8 5.6 2.5 2.2 5 7.1 5.2 10.7l1.3 29.9 2.4 58.7-.1 .1 .3 8c.7 4.8-.8 8.8-4.1 11.6-9.9 4.6-13.9 3.9-19 5-10 1.3-19.7 2.2-29.6 2.9-3 .2-5.9 .1-8-.4-1.4-.3-2.2-.9-2.6-1.4-.1 2.1-.1 4.2-.4 6.3-2.1 17.5-9.6 34.4-21.9 47.6-12.1 13.3-30.2 21.9-48.8 21.8-9-1.3-18.3-1.9-26.3-5.9-8.5-2.8-16.1-7.5-23.5-12.6-14.5-10.9-24.5-28.5-26.2-46.8-3.2-36.4 19.2-73.4 55-84.6 5.9-1.8 11.9-2.3 16.5-1.1l2.2 .4c3.1 .6 4 1.8 2.5 2.9-3 2.4-5.7 4.8-8 7.1-1.9 1.4-6 4.2-10.8 5.2-27.8 10-46.6 42-42.5 71 3.7 29.4 35.9 49.4 64.2 49.4 29.6-.5 50.6-30.8 53.5-59.9 3.2-30-16.4-58.9-47.4-60.5-2.4-.3-4.6-1-6.2-1.9s-2.4-1.9-2.2-2.7l2.4-7.7c.6-1.9 6.2-2.7 12.9-1.8 16.9 3.4 35.1 12 44.5 28.3 8 12.8 11 27.6 10.7 42.2l1.2-5.6c.4-2 6-3.9 12.9-4.5 9.4-.8 18.9-1.6 27.9-3 5.8-1.1 6-.8 6.1-1.6l-.5-11.1-.7-17.4-10.6 .2c-1.2 0-5.3 .3-8.6-.1-3.2-.3-6-2-7.2-4.8-1-2.8-1.6-6.8-1.8-9.5l-.4-5.9c-.2-3.9-.3-7.8-.2-11.8 .1-4 .3-8 1.2-12.4 .2-1.6 1.4-6 3.4-8.7 2-2.8 5.1-4.8 8.6-5.2l13.1-.5-.1-2.4c-.1-2.4-.2-5.2-.4-5.6 .3-.6-3.1-3.6-6.8-6l-11.9-7.4-24.5-14.7-12.3-7.5c-1.4-.7-3.7-2.1-6-3.9-12.8 .1-25.4 1-38.6 1.6-6.8 .1-13.6 .6-21.4-1.2-7.5-1.2-16.9-7.1-20-14.9-7-14.9-6.4-28.4-7.1-41.8-.4-13.4 0-26.6 .4-39.7 0-1.1 .4-2.1 1.1-2.8 .7-.7 1.5-1 2.4-.9l8 1.2c2 .3 3.4 2.4 3.4 4.8-.4 12.9-.7 25.9-.3 38.6 .5 12.3 1 26.2 5.9 34.5 3.4 7.9 15.6 7.7 28.4 7.3 9.6-.5 19.6-1 29.7-1.3l-.8-3.1-1.9-7.1-4-14.1c-2.8-9.4-5.6-18.8-8.7-28-3.1-9.2-6.4-18.4-10.2-27.1-1.9-4.3-3.9-8.6-6.1-12.4-1.1-1.8-2.3-3.7-3.4-4.8-1.4-1.4-.6-.7-1-.9l-84.2 .5c1.2 83.2 2.1 138.8 2.5 166.8l.2 13.9c.6 5.8-1.6 14-6.9 18.8-5.1 5.1-12.4 7.1-18.3 7.1l-14 .2c-.8 0-1.4-.3-2-.5-.4 0-.7 0-1.1 0-4 0-43.5 .1-118.5 .2-5.1 0-10.1-.3-13.6-1-3.5-.6-5.2-1.5-4.8-2.4l4-8c1-2 10.9-3.6 22.8-3.6l94.3-.2 23.1-.1c3.5-.5 3-.3 3.9-1.6 .9-2.2 1.6-5.5 2-9.1 1.6-14.6 1.1-30.6 1.2-46.2l-2.3-188.5-.3-47.1-.2-19.7c.6 .3-2.2-1.4-5.6-2.4-3.2-1.2-6.9-1.9-10.4-2.8-29.8-5.4-61.4-6.7-92.5-7.6-62.3-1.1-125.5-.1-186.8 7.6-7.9 1.2-15.3 2.1-21.5 3.1-2.4 1.1-4.2 2.3-5.1 4.2-2.5 4.1-2.9 11.6-2.3 18.7 0 .1-.4 .3-.4 .3L37 374 118.5 373c0 0 .1 .1 .2 .1 4.5-1.6 9.1-2.9 14.1-3.3 17.8-2.8 37.8 2.3 51.4 14.7 13.7 12.2 22.4 28.5 26.6 45.8 4.3 17.2 3.6 36.2-4.6 53-7.9 16.9-23.8 29.5-41.2 34.9-3.4 .8-6.7 1.1-9.8 1.2-.1 0-.2 .1-.3 .1-8.7 2-17.7 1.9-26.6 1.3-18-1.8-35.7-11.6-46.6-26.5-21.6-29.5-21.5-72.8 3.4-100.9 1.7-1.9 3.7-3.5 5.6-5l-53.6 .8 .1 27c0 4.7-.6 9.3-1.7 12.9l-.5 1.8c-.7 2.4-2 3.2-3.1 2l-6.6-7.4c-1.7-1.9-2.8-6.3-2.8-11.3L20.4 67.9c0-2.4 .3-4.6 1-6.2 .6-1.6 1.5-2.4 2.3-2.2l.2 .1c.7-1.6 1.3-3.2 2.2-4.8 7-10.2 19.1-11.5 25.7-13 .6-.1 1.3 .4 1.9 1.4l.3 .5c3.8-1.1 8.2-2 12.8-2.5zM190.1 417.3c-12.7-27.4-44.4-42-71.8-27.3-1.7 .7-3.2 1-4.7 1.2-7.5 3.6-14.3 8.3-19 14.8-8.8 11.4-13.1 26.4-12.8 41.1 .4 14.7 5.1 29.6 14.7 40.2 9.5 10.8 23.2 16.8 37.8 17.6 1.9 0 3.5 .5 5 .9 12.8-.1 25.6-3.4 36-9.7 25.1-15.7 27.5-52.5 14.8-78.9zm-49.9 6.9c5-.2 11.4 1.5 15.7 5.9 4.2 4.2 6.5 9.7 6.7 15.6l0 0c.2 6-2.8 12.1-7 15.9-8 8.2-23.6 8.2-31.6-.1-4.1-3.8-7-9.1-7.7-15.1-1.5-6.2 3.4-14.9 7.7-17.4 1.3-1.1 2.9-1.4 4.4-1l.2 .1c3.8-2.4 7.7-3.6 11.6-3.8zm322.3 0c5-.2 11.4 1.5 15.7 5.9 4.2 4.2 6.5 9.7 6.7 15.6 .2 6-2.8 12.1-7 15.9-8 8.2-23.6 8.2-31.6-.1-4.1-3.8-7-9.1-7.7-15.1-1.5-6.2 3.4-14.9 7.7-17.4 1.3-1.1 2.9-1.4 4.4-1l0 0 .2 .1c3.8-2.4 7.7-3.6 11.6-3.8zm-99.8 13.2c2 0 3.9 .6 5.4 1.7l0 0 .7 .5c1 .7 1.4 2 .9 3.1l-3 6.6c-.8 1.7-2.6 2.8-4.7 2.8l-143.9 .8c-1 0-1.9-.4-2.6-1s-1-1.5-.9-2.3l.9-8c.2-2 2.1-3.5 4.4-3.5l142.7-.7zm206.2-80.8c-.3 0-.5 .2-.6 .5-.1 .4-.1-.1-.4 1.9-.6 2.9-.8 6.4-.9 9.9-.1 3.5 0 7 .2 10.6l.4 5.3c.1 1 .1 .5 .2 .7l.3 0 .1-.1 2.5-.1 9.7-.3-1-24.8-.2-4.2-10.2 .5zm-88.6-45.1c.2 0 .5 .4 .6 1 .1 .6 .2 1.5 .2 2.3l-.2 8c0 2-.5 3.6-1.1 3.6l-35.3 1.4c-.5 0-.9-.6-1.3-1.6l-.2-.6c-.3-.7-.3-2-.2-3.1l.7-6.6c.2-1.7 .6-2.8 1.1-2.8l35.5-1.6z"/></svg>