<svg xmlns="http://www.w3.org/2000/svg" viewBox="0 0 616 560"><!--! Font Awesome Pro 7.2.0 by @fontawesome - https://fontawesome.com License - https://fontawesome.com/license (Commercial License) Copyright 2026 Fonticons, Inc. --><path fill="currentColor" d="M398.9 22c.7 .1 1.5 .6 2 1.3l5 6.3c1.2 1.6 1.4 3.6 .3 4.7l-58.6 61c17.3 4.9 33.7 12.9 47.8 24.2 1 .8 1.6 1.9 1.9 2.9 .1 .7-.2 1.2-.4 1.7 35.7 1 71.5 2.5 107.3 5.1 8.4 .6 16.2 1.6 22.9 2.7 23.3 2.5 46.3 6.9 69 12.9 .7 .2 1.2 .7 1.5 1.5 .3 .7 .3 1.6 0 2.4l-2.9 7.5 0 .1c-.7 1.9-2.4 3-3.9 2.6-32-8.4-65.3-14.1-98.1-14.3-1.1 0-2.1-.7-3-1.4-1.5-.1-3-.2-4.6-.3-76-4.7-152.5-5.6-228.8-4.8-38.1 .5-76.3 1.6-114.3 3.7-19 1.1-38 2.5-56.8 4.6-9.4 1.1-18.7 2.3-27.8 4-4.5 .9-9 1.9-13.1 3.2-1.9 .6-4.2 1.5-5.1 2-.3 .1-.5 .4-.5 .7-8.2 170.7-2.6 286.7 1.6 343.5l1 11.8c0 .2 .2 .3 .5 .4 1.7 .6 3.9 1.2 6 1.6 8.8 1.9 18.3 3 27.6 4 18.9 1.9 38 3.1 57 4.2 76.4 3.7 153.2 4.2 229.8 3.1 38.3-.7 76.6-1.8 114.7-4.1 19.1-1.2 38.1-2.6 57-4.8 9.4-1.1 18.8-2.4 27.9-4.1 4.5-1 9-1.9 13-3.2 1.8-.6 4.1-1.6 4.8-1.9l.1-.2-.8-231.1c0-4.8 0-9.5 .1-14.1l-.5-64c0-4.1 .5-8.2 1.6-11.3l.5-1.6c.7-2.1 2-2.9 3.1-1.9l6.6 6.3c1.7 1.6 2.8 5.5 2.9 9.8l2.6 303c0 2-.3 4-1 5.4-.1 .2-.3 .1-.4 .4l0 1.4c-.5 4.3-3 8-6.8 10.2-3.3 1.8-5.5 2.6-8.2 3.5-5.1 1.7-9.9 2.7-14.8 3.7-9.7 1.9-19.4 3.2-29 4.3-19.3 2.2-38.5 3.6-57.8 4.8-38.5 2.3-76.9 3.5-115.4 4.1-76.9 1.2-153.8 .7-230.8-3.1-19.2-1-38.5-2.2-57.8-4.2-9.7-1.1-19.3-2.2-29.3-4.3-2.5-.6-5-1.2-7.8-2.2-4.1-1.4-8.4-4-9.5-8.2-1.1-5.1-.8-7.2-1.2-9.5l-.6-7.2c-2.9-38.5-4.4-77-5.2-115.4-1.6-77.4-.1-153 3.6-231.8 .4-4.8 3.6-8.8 7.9-11 3.2-1.7 5.8-2.6 8.4-3.4 5.2-1.6 10.3-2.7 15.4-3.6 10.1-1.8 20.1-3.2 30.1-4.2 20-2.1 39.9-3.5 59.8-4.6 26-1.4 52.1-2.2 78.1-2.8 .5-.9 1.1-1.9 2-2.6 12.1-10.2 26.1-18.1 41-23.5-20.6-20.6-41-40.7-60-64.3-.4-.6-.5-1.3-.2-2s.8-1.4 1.6-1.8l6.9-4.2c1.7-1 3.7-1 4.5 .1 18.7 23.1 41 44.9 62.5 66.5 .3 .3 .2 .9 .4 1.3 9.1-2.1 18.3-3.5 27.6-3.6 7-.1 14 .6 21 1.6l66.1-68.9c.5-.5 1.1-.7 1.9-.5zm-140.1 150c2.6 0 5 .6 7.2 1.2 1.2 0 2.3-.1 3.5-.1 48.2-.1 96.3 .1 144.8 7.5 6.1 1.1 12.2 2.3 18.5 4.3 3.1 .9 6.4 2.2 9.7 4 1.6 .7 3.7 2.8 5.8 4.6l0 0c1 2.5 2.3 5 2.8 7.7l1.7 36.4c.9 24 1.3 48.1 1.4 72.2 .2 48.4-.8 95.5-3 144.9-1.4 7.4-8.1 12.4-11.7 13.4-4.2 1.9-8.1 3.2-12 4.2-7.8 2.2-15.5 3.4-23.2 4.6-15.4 2.3-30.6 3.7-45.9 4.9-30.6 2.2-61.1 3-91.6 3.2-30.5 .1-61.1-.5-91.6-2.4-15.3-1-30.6-2.2-45.9-4.2-7.7-1.1-15.4-2.2-23.2-4-3.9-.8-7.9-2-12.1-3.7-2.2-1.1-4-1.4-6.9-3.8-3.7-1.9-3.9-6-5.9-9.1-6.3-67.8-8.9-132.8-5.8-199.7 .9-15.7 2.7-31 5.2-42.9l.1-.2 1-14.2c1.9-6.5 8.7-11.1 12-11.7 4-1.7 7.7-2.6 11.5-3.6 7.4-1.8 14.8-3.1 22.1-4.2 14.7-2.2 29.3-3.7 43.9-4.9 29.2-2.4 58.5-3.7 87.7-4.3zm1.3 16.1c-48.6 1.1-98 2.7-145.1 11-5.5 1.2-10.5 2.2-14.4 3.3-3.4 1.3-5.8 2.5-4.6 2.1l-4.9 72.4c-.1 1.6-.6 3.2-1.3 4.3-.1 .2-.3 .1-.4 .3-1.7 57.9 1.1 116.9 6.3 173.4-1.7 .2 7.3 4 13.7 5.2 7 1.7 14.4 2.8 21.8 3.8 14.8 1.9 29.9 3.1 44.9 4.1 30.1 1.8 60.4 2.5 90.7 2.4 30.2-.2 60.5-1 90.6-3.2 15-1.1 30-2.6 44.8-4.8 7.3-1.2 14.7-2.4 21.5-4.3 6.5-1.3 14.6-5.7 12.9-5.4 2.1-47.5 3.1-97.4 2.8-146-.1-24.4-.6-48.9-1.6-73.3L437 215c-.4-5.2-.6-15.1-.8-12.7-1.3-1.2-7.8-3.8-13.1-4.9-5.5-1.4-11.5-2.4-17.3-3.3-47.6-6.3-96.9-6.7-145.6-6.2zM505.6 293.3c7.8-1.6 15.5-1.7 23.3-.2 3.9 .9 7.8 1.7 12 4.2 3.8 2.2 8.9 6.5 9.6 13.5 2.7 29.4 2.8 58.9 1.4 88.2l-1.3 21.9-.8 10.9-.2 2.7c-.2 1.5-.7 3.4-1.3 5-1.4 3.1-3.5 5.7-5.7 7.3-9 6.5-17.4 6.9-25.7 7.3-8.4-.4-16.8-.8-25.8-7.2l0-.1c-2.8-2-5.1-5.9-5.3-8.8 0-.3 .1-.4 .1-.7-.3-1-.6-1.9-.8-2.9l-.2-2.8-.8-10.6-1.3-21.3c-1.4-28.4-1.8-57.1 1.2-85.9 .1-1.2 .6-2.2 1.3-3 .1-.1 .1 0 .2-.1 .1-1.4 .9-5.1 2.4-7.1 1.7-2.6 3.6-4.4 5.7-5.8 4-2.5 8.1-4 12-4.8zm20.3 14.2c-5.7-1-12.1-.9-17.6 .3-2.8 .6-5.3 1.6-6.7 2.7-.9 .5-.9 1-1.3 1.2 .1 .1 .1 .1 0 .2-.1 .2-.2 1.5-.3 2.2-.8 6.7-1.3 13.5-1.8 20.3l-.5 10.1c-.9 23.8 0 47.8 1.5 71.9 .1 2.5 .1 4.9-.1 7.2l.6 8.4c.5 2.4 0 1.1 1.7 2.8 7.3 4.6 24.5 4.3 31-.4 .7-.6 1.3-.5 2.1-.5 0-.2 .2-.4 .3-.6l.4-5.3 .8-10.6 1.2-21.2c1.2-28.1 1.1-56.4-1.4-84.2 .7-.1-4.1-3.8-9.8-4.6zM361.5 297c1-.1 1.9 .3 2.4 .9l0 0 5.2 6.2c1.3 1.5 .8 4.2-1.1 6.1-39.9 38.4-82.3 73-120.7 111.1-1.5 1.6-3.4 2.7-5.4 3.1l-1 .2c-1.3 .3-2.5-.3-2.9-1.4l-2.3-7.1c-.6-1.8 .2-4.1 1.9-5.9 39.4-39 82.4-74.1 121.2-111.9 .7-.8 1.7-1.3 2.7-1.3zM230.2 248.1c.7 .2 1.4 .6 2 1.3l5.5 5.9 0 0c1.4 1.5 1.7 3.4 .7 4.3-19.8 19.4-40.6 36.7-59.3 55.6-.7 .8-1.9 1.1-3.3 .9l-.7-.1c-.9-.1-2-.8-2.5-1.8l-3.5-5.8c-.9-1.5-.9-3.1-.1-4 19.5-19.7 40.8-37.4 59.5-56 .4-.4 1-.4 1.6-.2zM517 200.3c7.2-.4 15.1 1.9 21 7.1 5.9 5.2 9.1 12.2 10.6 18.7 .2 .7-.4 1.4-.7 2.1 .3 1.7 .6 3.5 .4 5.8-.9 14.9-14.2 27.8-29.3 28.1-15.1 1.1-29.7-10.6-32-25.8-3-15 7-31.2 21.8-35.4 1.5-.5 2.9 0 4.4 .3 1.3-.2 2.5-.8 3.9-.8zm0 14.8c-7.9 .5-14.4 7.5-14.4 15 0 .3-.4 .5-1 .8l-.1 0c0 1.2-.1 2.4 .1 3.6 1.7 7.9 9.7 13.7 17.6 12.7l0 0c7.8-.6 14.4-7.9 14.3-15.4-.3-2.5-2.1-8.4-4.3-10.8-2.3-2.9-5.4-4.5-9.2-5-.4-.1-.7-.5-1-.8-.7 0-1.3-.2-2-.2zM308.7 104.7c-21.4 .5-42.5 7.3-60.5 18.8 5.7-.1 11.4-.3 17.1-.4 36.5-.3 73.1-.1 109.6 .5-19.8-12.5-43-19.6-66.2-19z"/></svg>