<svg xmlns="http://www.w3.org/2000/svg" viewBox="0 0 616 560"><!--! Font Awesome Pro 7.2.0 by @fontawesome - https://fontawesome.com License - https://fontawesome.com/license (Commercial License) Copyright 2026 Fonticons, Inc. --><path fill="currentColor" d="M441.6-17.4c6.8 1.2 10.5 4.9 13.6 7.1 26.1 20.2 49.8 42.7 72.5 66.1 11.4 11.7 22.5 23.7 33.3 35.8l16.1 18.4 16.7 20-.2-.1c2.7 3.4 2 8 .4 11.9-2 4.1-3 5.2-4.5 7.7-2.9 4.2-5.9 8.1-8.9 12-6.1 7.7-12.4 15-18.8 22.3-12.8 14.5-26 28.5-39.4 42.3-30.2 31.1-51.6 50.6-62.6 60.2l-5.6 4.8c-1.8 1.3-5.7 4.3-9.3 5.3-8.8 3.8-16.3-6.5-17.6-12.4-4.7-21.6-2.1-40.3-1.8-59.6l.3-11.5c0-.4-.3-.5-.7-.7-1.1-.4-3.6-1.1-5.6-1.6-8.7-1.9-18.2-2.9-27.5-3.7-37.8-3.1-76.2-3.6-114.4-3.7-18.8 .4-39.1-.9-56.2 1.9-17.3 3.2-34 10.7-45.6 24-22.9 26.5-27 68.4-9.8 99.3 8.6 15.4 22.4 27.1 38.7 33.5l12.6 3.9 13.3 1.3c8.5 1.3 18.9 .4 28.2 .7l117.8-.1 3.1 1c.3 .5 1.6-.5 1 1.3l1.4 .9c1.8 1.1 2.8 3.4 3.4 5.9 .8 2.8 1 4.6 1.3 5.7l.7 4.1 2.3 16.3c1.3 10.8 2.3 21.7 2.8 32.6 .5 10.9 .7 21.9-.1 33.2-.4 5.6-1.1 11.3-2.7 17.3-1 3-1.8 6.1-4.1 9.5-1.9 3.4-7.3 7.5-12.2 7.6l-105.9 .3c-34.6 .5-72.2 .6-106.8-11.5-34.5-11.6-66.6-32-90-60.3-23.6-28-39.3-62.1-46.3-97.8-14.5-70.9 3.6-149.7 55-202.9 25.2-26.7 58.4-45.4 93.8-54.3 35.5-9.8 72.2-8 106.8-8.2 16.6 0 32.7 .2 47.7 .6l58.7-.6c2 0 3.9 .6 5.4 1.7l.7 .6c1 .7 1.4 2 .9 3.1l-3.1 6.6c-.8 1.7-2.7 2.8-4.8 2.8L240 84.8c-1 0-1.9-.3-2.6-1-.1-.1-.1-.3-.2-.5-24 .6-47.3 2.7-69.9 10-31.9 10.3-61 28.9-83.2 53.9-43.9 50.7-59.5 123.8-44.1 189.2 7 32.9 23 63.6 44.6 88.9 22.4 24.8 51.4 43.3 83.3 53.4 32.3 10.2 65.9 10.3 100.8 9.8l103.5-.3c11.5-16.4 3.6-87.1-1.1-105.8l-112.4 .1c-9.8-.3-18.7 .7-29.2-.7-5.1-.5-10.2-.8-15.3-1.6l-14.9-4.6c-19.4-7.5-36.2-22-46.3-40.2-20.1-36.6-15.7-84.4 11.7-116.4 14-16 34.1-25.2 54.3-28.7 21-3.2 39.2-1.6 58.7-2.1 38.5 .2 76.9 .6 115.7 3.8 9.7 .9 19.4 1.9 29.5 4 2.7 .7 4.9 1.1 8.3 2.5 4.2 1.6 8.3 4.6 9.2 8.9 .6 1.9 .4 5 .4 6.4l-.1 3.7-.2 7.3c-.5 18.8-2.3 39.2 1.2 54.8 .7 2.9 .5 1.3 .8 1.8 .5-.4 .4-.1 2.3-1.8l5.4-4.6c7.1-6.2 14.1-12.6 21-19.1 13.8-13.1 27.4-26.5 40.7-40.2 13.3-13.7 26.3-27.6 39-41.8 6.3-7.1 12.5-14.3 18.3-21.6 2.9-3.7 5.8-7.4 8.2-11 1-1.4 2.6-4.1 2.7-4.3l0-.2-16.2-19.2-17.8-20.3c-24.1-26.8-49.3-52.6-76.2-76.2-6.7-5.9-13.6-11.6-20.6-17.1-3.4-2.6-7.6-5.9-9.1-6.4-1.2-.2 .2-1-1.4 1-1.6 3.3-2.6 7.6-3.4 12 .2 .3 .4 .5 .4 .8-1.5 18.1 .1 37.1 .5 56.3 0 .4-.3 .8-1 1s-1.5 .4-2.3 .4l-8-.3c-2-.1-3.6-.8-3.6-1.7-.3-18.8-2-37.7-.2-57.8 0-.1 .2-.2 .3-.3 .4-5.1 1.2-10.8 4.5-17.5 1.8-4.1 8.2-10.1 15.5-8.7z"/></svg>