<svg xmlns="http://www.w3.org/2000/svg" viewBox="0 0 616 560"><!--! Font Awesome Pro 7.2.0 by @fontawesome - https://fontawesome.com License - https://fontawesome.com/license (Commercial License) Copyright 2026 Fonticons, Inc. --><path fill="currentColor" d="M168.5-16.2c3.3-2.2 9.6-3.6 13.8-1.4 4.5 2 7.2 7.1 8.4 11.8 1.6 6.8 1.4 12.4 1.6 18.2 0 11.4-.6 22.4-.9 33.4 0 9.9-1.3 26.1 .7 23.3L322 69c22.2 .2 44-.4 66.5 .4 22.8 0 45.4 4.8 67.3 11.3 43.4 14.4 82.6 43.7 106.4 83.1l-.1 .1c49 77.9 45.5 184.6-9.3 258.8-27.4 37-68.6 63.6-113.2 73.9-11 3.4-22.5 4.1-33.7 6-11.3 .4-22.9 1.5-33.9 1.2l-66.6-.4c-4.6 0-9-.1-13.3-.2l-61.2 .7c-1 0-1.9-.3-2.5-1s-1-1.5-.9-2.3l.8-8c.2-2 2-3.6 4.2-3.6l140.3-1.5c1.4 0 2.7 .6 3.9 1.3 27.8-.4 55-2.8 80.6-13.1 40.3-13.8 74-43.3 95.7-79.7 42.6-73.3 38.4-173.7-14.6-240.5-25.8-33.8-64.3-56.5-105.6-65.8-20.9-4.8-41.9-6-63.8-5.9L204 84 195.7 84c-1.8 0-7.6 .4-11.8-2.5-4.2-2.6-7.1-7.2-7.7-12.2-.2-4.3 0-6-.1-9.1l1-33.1c.4-10.3 .6-23.1-.9-29.7-.5-.3 .2-1.3-2.2 .3-3 2-8.2 6.1-12.1 9.3-8.4 6.8-16.6 13.9-24.7 21.2-32.2 29.3-61.9 61.4-90.1 94.7L36.6 135.5c-1.4 1.8-.8 .8-.9 1.4l.4 .8 1.9 3.1c5.8 8.5 12.8 16.9 19.9 25.1 14.2 16.4 29.2 32.4 44.4 48.1 34.1 35.1 59.1 57.6 70.5 67 1.9 1.3 1.1 .6 1.6 .3 1-2.9 1.9-8.5 2.2-13.5 .7-10.3 .2-21.3-.2-32.2l-.6-16.5c0-3-.4-4.6 .1-10.8 .6-5.3 6-8.3 10.5-10.1 24-6.6 45.2-6.6 67.6-8.2 44.4-1.8 87.8-2.8 132.7-1.1 23.4 .6 47.5 10.8 63.9 28.6 16.6 17.7 25.2 41.5 25.8 65.1 .7 23.6-6.4 47.8-21.7 66.6-15.1 19-38.6 30.3-62 32.7-12.1 1.6-22.8 1.3-33.6 1.3-16.3 0-49 0-97.9 .1-6.8 0-13.5-.1-20.3-.1-.1 .3 0-.7-.3 .8-.3 2.2-.6 5.8-.8 9-.2 4.6-.3 9.5-.5 14.2l1.1 46.1c0 .9-.6 1.7-1.7 2.4l-.5 .3c-.6 .3-1.4 .3-2.2 .3 0 0-.1 0-.1 0-.3 0-.5 .1-.8 .1l-6.6-1.3c-1.7-.3-2.8-1.2-2.8-2.1l-1.6-63.5c0-.4 .3-.8 1-1.1 .5-.2 1.2-.2 1.9-.2 .1-2.9 .3-6.1 .8-9.7 .9-5.1 5.2-9.5 11-9.5l10.2-.2c7.4-.1 14.7-.1 22.2-.2l66.8-.1c22.2-.3 45.2 1.3 64.7-3.1 20-4.5 37.6-17.4 47.7-35.2 10.3-17.7 13.8-39.3 10.4-59.6-3.3-20.3-13.8-39.5-30-51.6-16.4-12.7-37-15.8-58.6-16.2-44.1-.3-88.2 0-132 2.6-10.9 .7-21.8 1.6-32.4 3.1-5.2 .7-10.6 1.6-15.1 3-2.4 .8-1.5 .5-2.1 1 0 .2 0 .4 0 .6l.1 4 1.1 33.2c0 11.3 .5 22.3-3.2 35.3-.9 2-2.3 4.3-3.4 6.4-2 1.4-3.4 3.8-5.9 4.2-4.6 1.8-10-.4-13.3-2.7-6.7-4.3-9.2-7.5-13.9-11.3-12.5-11.1-37-33.8-71.4-69.9-15.3-16.2-30.3-32.4-44.5-49.9-3.5-4.4-7-8.9-10.3-13.8l-2.4-4c-1-1.6-2.2-4.5-2.7-6.7-.1-2.3-.3-5 1.1-7 1-2.1 3.4-4.4 3.9-5.1l21.5-25.5c29.2-33.5 59.9-65.8 93.8-95L153.6-5.4c5-3.7 7.5-6.5 14.8-10.8z"/></svg>