<svg xmlns="http://www.w3.org/2000/svg" viewBox="0 0 616 560"><!--! Font Awesome Pro 7.2.0 by @fontawesome - https://fontawesome.com License - https://fontawesome.com/license (Commercial License) Copyright 2026 Fonticons, Inc. --><path fill="currentColor" d="M313.8 14.7c54.4-.3 109.5 14.1 155.8 43.8 46.3 29.6 82.3 73.7 104.8 123.2 3.5 8.1 6.6 16.1 8.4 21.8s2.2 8.8 1.1 8.4l-10.2-3.5c-2.5-.8-10.5-15.3-18.2-33.3-24.1-45.7-60.4-84.8-105.2-110.2-32.4-18.6-68.8-29.9-106.1-34 31 28.9 54.4 66.3 65.6 107.4 11.8 41.8 11.6 85.7 5 128l5.2-4.9c4.8-4.9 10.1-9.5 16-13.3 5.5-4.3 11.4-8 17.9-11 12.4-6.9 26.5-10.3 40.6-12.3 14.2-1 28.6 .1 42.2 3.8 6.9 1.8 13.3 4.4 19.3 7.2 11.4 4.9 22.3 11.2 32.3 18.3 2.1 1.5 3.7 3.6 4.5 5.8l.4 1c.4 1.1 .1 1.9-.4 2.5l0 .1c-.1 0-.1 .1-.2 .1-.2 .2-.3 .4-.6 .5-2.5 .7-4.9 1.6-7.2 2.5-1.8 .7-4.2 .2-6.2-1.2-23.3-16.5-51.6-27.4-79.5-25.2-28 1.8-53.4 17.3-73 37.9-.8 .8-1.9 1.3-2.9 1.5-.2 0-.3-.2-.5-.2-1.9 1.9-4.3 4.3-7.5 5.8-2.3 1.2-4.8 1.9-7.4 2.2-.2 0-.3 0-.5 0-1.8 .2-3.6 .4-5.5 .2-4.6-.5-9.1-2.4-12.7-5.4-3.8-3.6-5.2-5.6-7.5-8-16.4-19.1-39.9-31.3-64.6-33.8-1.6-.2-3.3 .1-5 0l1.1 1.6c1.7 2.3 2.7 7.7 2.6 13.8l-1.9 211.7c-.5 16.1 4.3 31.9 14.8 43.3 10.4 11.5 25.7 18.4 41.5 20 15.8 1.6 32.3-1.9 45-10.6 12.9-8.6 21.2-22.6 23.7-38.1 .4-2.5 1.1-4.9 2-6.6 .9-1.7 1.9-2.6 2.7-2.3l7.7 2.7c1.9 .7 2.6 6.7 1.5 13.9-4.3 18.6-16.6 35.8-33.4 45.4-16.7 9.7-36.5 12.8-55.3 9.9-18.7-2.9-37-12.2-49.2-27.6-12.6-15.3-16.4-35.8-15.9-54.2l2-209.7c0-4.8 .6-9.2 1.5-13.2-20 1.1-39.7 8-56.5 19.3-5.3 3.4-10.2 7.4-15 11.6l-6.9 6.5c-3 2-7.2 6.7-12.4 6.6l-.5 0-.3 1.2c-.5 2-1.6 2.9-2.8 2.1l-5.5-3.7c-5.7-1.2-10.2-4-14.3-6.2-6-3.7-11.5-7.6-17-11.2-21.3-14.9-44.6-26.7-69.3-25-12.3 0-24.3 4-35.8 8.9-5.9 2.1-11.1 6-16.7 8.9l-4.2 2.4c-1.8 1.1-4.8 2.7-7.7 2.9-6 .7-12-1.9-15.5-6.7-3.8-4.4-3.6-12.6-1.9-15.9l3.6-9.5c4.9-12.7 9.7-25.3 14.6-38 2.5-6.3 6.5-11.9 9.7-17.9 46.2-92.3 144.1-154 246.4-161.1 .1 0 .3-.1 .4-.1 .1 0 .1 .1 .2 .1 6.2-.4 12.4-.7 18.7-.7zm-12 14.5c-1.8 .1-3.5 .5-5.2 .6-.7 .5-1.1 1.2-1.9 1.6-38.1 23-62.1 64.5-74.3 107.5-12 41.8-14.2 86.3-9.1 129.7 .5-.3 1.1-.3 1.7-.8 9.9-9.8 20.7-18.5 32.8-25.7 24.2-13.8 53.5-20.8 81.6-15.4 14 2.5 27.5 7.8 39.6 15.3l0 0c11.8 7.4 22.7 18.2 30.8 27.8 .4 .5 1.1 .6 1.6 .9l0-.2c7.4-43.5 7.7-88.6-4.5-130.6-11.9-42-36.8-79.7-70.4-107.4-1-.9-1.6-1.9-2.2-2.9-6.8-.2-13.6-.8-20.5-.6zm-34.5 4.1c-39.5 6.9-77.4 21.9-110.6 44.2-42.6 28.8-78.1 68.4-100.8 115-6.4 11.3-9.7 23.9-14.8 35.8l-7 18.1c-1.2 2.9 .4 3 1.6 3.3 .5-.1 .2 0 1.6-.7l13.5-7.7c5.8-3.8 12.7-5.7 19.1-8.5 13.2-4.8 27.6-7.1 41.9-6.2 29.2 1.7 54.3 17.8 75.4 32.8l-.1 0c3 2 5.9 3.9 8.7 5.6-4.5-44.2-2.1-89.4 10.7-132.5 10.9-36.9 30.5-73.3 60.6-99.1z"/></svg>