<svg xmlns="http://www.w3.org/2000/svg" viewBox="0 0 560 560"><!--! Font Awesome Pro 7.2.0 by @fontawesome - https://fontawesome.com License - https://fontawesome.com/license (Commercial License) Copyright 2026 Fonticons, Inc. --><path fill="currentColor" d="M273.1-3.4c68.7-1.9 137.9 22.1 190.5 66.7 53 44.1 88.4 108.5 97.8 176.7 1.9 9.9 1.8 19.4 1.6 26.8l0 0c.4 8.7 .4 17.5 0 26.2-2.5 68.6-31.2 136.1-79.7 185.1-47.9 49.5-114.3 80.4-183 85.2-5.6 .3-11 .2-14.8-.2-1.3-.1-2.1-.4-2.9-.6-20.3 .3-40.6-1.4-60.6-5.4-67.3-13.9-128.6-53.6-169.3-108.8-41-55-61-125.4-54.6-193.8 6.1-68.5 38.2-134.2 88.4-181.1 49.9-47.1 117.6-75.7 186.5-76.6zm22.8 15.2c-12.5-.7-25-.8-37.5 .4-64.6 5.2-126.8 34.9-171.6 81.7-45.3 46.4-72.3 110-74.4 174.8-2.8 64.6 18.2 130.2 59.5 180.2 40.8 50.3 100.2 84.9 164 95.3l0 0c63.8 11.1 131.3-2.3 185.9-36.9 54.9-34.1 96.6-88.7 115-150.6 4-14.3 7.2-28.4 9.5-41.1 1.3-9.9 2.2-19.9 2.2-29.9 1.3-64.8-21.6-129.5-63.6-178.8-41.5-49.7-102-82.7-165.9-91.6-8.3-1.6-16.1-2.5-23.2-3.5zM143.8 163.9l4.1 .8 7.7 1.6c5.1 1.2 10.4 1.9 15.6 2.8 10.4 1.7 20.9 3.2 31.5 4.3 42.2 4.7 84.9 5.9 127.4 4.5 21.3-.7 42.5-2.2 63.5-4.7 10.5-1.3 21-2.9 31.3-4.8 1.8-.3 7.1-1.6 11.8 .2 4.7 1.8 7.7 5.5 9.5 8.8 3.5 7 3.7 14 2 21-1.1 3.5-2.7 7.1-5.8 10.1-2.7 3-8.2 5-10.3 5.4-5.5 1.5-10.9 2.5-16.3 3.5-10.8 1.9-21.5 3.3-32.2 4.7l-32 3.9c-9.7 1.2-25.1 3.1-21.3 3.3l.9 24 .3 26.7c-.1 9 0 17.5-.7 27.3-.6 6 2.2 15 4.5 22.8 11.3 32.3 27.7 63.9 44.4 94.7l6.5 11.4 3.2 5.5c.5 .5-.7-.2 1.9 1.1 3.9 1.9 8.3 3.8 12.9 7.2 6.8 4.3 10.4 14.7 4.5 21.4-5.8 6.8-10.4 7.9-14.4 10.2-4.2 2-8.5 3.9-12.9 5.5s-8.9 3-13.4 4.2c-2.5 .6-7.6 1.8-11.6 2.5-1.1 .2-2.2 .5-3.1 .5l-1.3-3-2.7-6-42.9-98.7c-2.5-5.8-4.6-11.5-5.8-15.8s-1.2-6.6-.2-6.5l9.2 1.1c2.3 .3 8.6 10.9 14.5 24.5 15.5 35.7 25.8 59.5 31 71.3 4.1 9.4 6.3 14.5 6.7 15.4 .1 .4 .3 .6 .7 .4-.4 .1 5-1.2 8.6-2.4 3.9-1.2 7.7-2.7 11.5-4.3 3.6-1.6 7.8-3.5 10.7-5.3 3.2-1.9 2.6-1.8 2.7-2.6-.1-.4-.2-.5-.7-.8-1.2-.9-2.7-1.9-4.5-2.8-3.5-2.6-6.8-1.6-13.3-8.5-5.3-8.5-9-15.4-13.3-23.3-16.4-30.7-32.4-61.3-43.8-95.2-2.5-8.3-5.1-18.3-4.2-28 .4-8.1 .5-16.9 .5-25.4l-.3-25.7-.4-12.8-.8-15.6c-.4-10 15.9-10.7 18.7-11.2l16.3-2.1 32.2-3.9c10.7-1.4 21.3-2.8 31.7-4.6 5.2-.9 10.3-2 15.1-3.3 3-.7 3.8-2.1 4.8-5.8 .8-3.3 .1-7.8-1.3-9.8-.7-1.1-1.1-1.2-1.5-1.2-.2-.2-.4 .1-1.2 0l-4.1 .7c-10.9 2-21.8 3.6-32.6 4.9-21.8 2.5-43.6 4.1-65.5 4.7-43.7 1.2-87.4 0-130.9-5.1-10.9-1.3-21.7-2.7-32.6-4.7-5.4-.9-10.8-1.9-16.2-3.1-2.4-.5-6.1-1.4-7.4-1.5-.6-.3-.6 .1-1.5 .5-4.1 2.8-6.9 15.2-4.3 20.3 .6 1.1 .8 1.5 1.1 1.4 .6 .4 3.4 1 5.5 1.5 33 5.6 67.9 8.1 102.1 11.1 1.5 .1 2.8 .9 3.8 2.1l.5 .6c.2 .2 0 .6 .1 1l.6 .2c1.8 .8 2.8 6.7 2.5 13.8-.9 18.8-1 38-.7 56.9-.4 9.7 1.7 17.9-.1 29.9-1.8 10.4-5.1 19.6-8.5 28.8-14.6 36.7-31.3 69.6-51.9 104.8-1.2 1.9-3.4 3.2-5.1 4.2l-3.4 1.7-5.9 3.1c-4.4 2.8-3.3 2.2-3.4 2.7 0 .1 .2 .3 .9 .8 1.3 .7 2.9 1.9 5 2.8 4.1 2 8.2 3.8 12.4 5.4 4.2 1.6 8.5 2.9 12.9 4 2.6 .8 1.3 .2 1.7 .2l11.3-25.8 46.2-105.5c.8-1.8 1.7-3.5 2.6-5.3 4.6-10.6 6.8-15.8 7.7-17.9 .6-1.8 1.3-3.6 3.5-2.8l14.8 1.2c1.2 .1 2.3 .6 3.1 1.3 .8 .7 1.2 1.6 1.1 2.4l-.9 8c-.2 2-2.5 3.3-5.2 3.1-4.4-.3-5.8-.5-5.8-.2l-2.7 6.3c-7.2 16.7-40.1 93-60.1 139.5-.6 1.5-1.8 2.5-2.8 3.6l-2.1 4.8-1.4 3-.7 1.5-1.6-.3-6.5-1.3c-4.8-1.1-6.8-1.6-9.2-2.3-4.9-1.4-9.7-3-14.4-4.9-4.8-2-9.2-3.9-13.9-6.6-4.1-1.6-14.3-10-10.8-18.7 .9-3.9 5.4-8 7.6-9.5 2.5-1.8 4.8-3 7.1-4.2l6.3-3.1c.2 0 .1 0 1.7-2.7 18.6-32.9 36.5-67.4 49.7-102.5 3-8.7 6-17.8 6.8-25.8l-.7-28.2c-.1-18.6 0-37 1-55.8-27.1-2.4-53.9-4.4-81.3-8.2-1.5-.2-3-.3-4.5-.5-1.7-.2-3.5-.7-5.3-1-3.6-.6-7.2-1-10.9-1.7-.3-.1-.5-.5-.8-.7-2.3-.4-7.9-3-9.8-6.1-2.6-3.5-3.6-7.1-4.2-10.4-1-6.8 0-13 2.2-19.1 2.4-5.7 5.8-13 15.2-15.5 2.3-.7 4.5-.4 6.7-.2zm145.4 171l-.1 0 .1 0 .1 0zM282.8 69.8c20.9-1.1 41.1 15.5 43.7 36.6 .3 1.7 0 3.3-.6 4.5 .1 1.2 .2 2.3 .2 3.5-.1 20.8-18 39.7-39.2 41-.8 0-1.7-.3-2.3-.9-.1-.1 0-.3-.1-.4-3.1 .1-6.2-.1-9.3-.7-20.3-3.7-35.7-24.1-33.5-44.8 1.3-20.7 19.9-38.6 41-38.8zm-1.2 14.9c-13.5 1-25.1 13.1-25.1 26.6-.8 13.4 9.8 26.1 22.9 27.8 13.1 2.4 26.7-6.5 30.1-19 .2-.6 .6-1.2 .9-1.8 .4-1.8 1-3.5 1-5.3 .3-13.4-10.6-25.7-23.5-27-.5-.1-.8-.6-1.3-.8-1.6-.1-3.2-.6-4.9-.4z"/></svg>