<svg xmlns="http://www.w3.org/2000/svg" viewBox="0 0 504 560"><!--! Font Awesome Pro 7.2.0 by @fontawesome - https://fontawesome.com License - https://fontawesome.com/license (Commercial License) Copyright 2026 Fonticons, Inc. --><path fill="currentColor" d="M231.9 314c44.1 0 88.2 2.1 132.4 3 25 .7 46.3 13.9 63.5 28.7 17.4 15 31.7 33 43.7 52.2 11.9 19.3 21.6 40 27.3 62.5 2.7 11.3 4.4 23 3 35.4-1 12-6.6 26-18.6 33.5-12.3 7.4-23.4 7.5-34.5 10-11.1 1.6-22.2 3.1-33.2 4.2-22.1 2.4-44.2 3.8-66.3 5.1-88.4 4.3-176.8 6.1-265.5-3.4-7.2-.8-14.1-2.5-18.9-3.8-4.8-1.4-7.1-2.6-6.3-3.4l6.9-7c1.8-1.8 15.2-.8 31.7 .7 86.5 8.2 174.5 6.4 261.5 1.5 21.8-1.3 43.6-3.1 65.2-5.5 10.7-1.3 21.5-2.6 31.9-4.7 5.4-.8 10-2.3 14.7-3.7 4-1.7 7.6-4 10.2-7.2 10.5-13.8 7.6-37.1 1.6-56.5-6.3-20-15.9-39.3-27.8-56.9-11.8-17.6-26-33.9-42.4-46.7-16.7-13-34.8-21.5-56-20.2-43.7-.7-87.5-3.5-131.2-2.5l-65.6 2.4c-11.1 .4-22 .5-31 2.5-9.4 2.8-18.8 6.6-27.1 12.7-34 23.5-59.4 60.8-74.4 99.7-2.4 6.9-4.5 13.6-6.3 20-3.8 17.7-3.9 37.6 6.9 47.4 2 1.5 3.5 3.5 5.1 5.2l.7 1c1 1.3 1.1 2.7 0 3.4-2.3 1.4-4.8 2.6-7.7 3.7-2 .7-6.2-.4-9.3-3.6-9.3-9.2-12.5-21.9-12.9-33.1-.5-11.4 1.3-22.5 4-33.1 5.5-21.2 14.7-40.9 25.9-59.4 11.2-18.4 24.7-35.5 40.8-50.4 16.2-14.4 35.4-27.6 59.1-31 1.9-.2 3.8 0 5.1 .5 .3 .1 .6 .3 .8 .4 9.4-.8 17.7-.5 26.9-1.1l66.1-2.4zm17-305c.8 .2 1.5 .4 2 .6L269 9.7c.2 0 .4 .3 .5 .9 32.9 4.2 63.7 22.8 83.3 49.9 10.4 14.2 17.7 30.7 21.1 48.1 1.6 9 2.7 16.9 2.2 26.9-.8 8.4-1.6 16.6-3.1 25.3-.2 1.4-.9 2.8-1.8 3.8-.3 .4-.7 .6-1.1 .8-11.3 41.8-46.4 76.2-88.9 86-43.4 11.1-92.5-4-121.8-38.4-29.9-33.6-39.3-84.2-22.3-126.2 16.1-42.2 56.8-73.7 102-78.3 3.6-.3 7.2-.1 9.7 .4zM235.6 24.1c-39.2 5.7-73.9 34.8-86.1 72.5-13 37.3-3.8 81.3 23.8 109.6 26.8 28.8 69.9 41.1 107.7 30 37.8-10.2 68.7-42.5 76.6-80.9 .8-4.2 1.9-8.4 2.8-12.1 .4-3.7 .8-7.5 1.1-11.2-.1-6.5-1-15.1-2.5-22.4-3.3-15.1-9.9-29.4-19.2-41.8-18.4-24.7-47.6-41.2-78.2-43.2-.9 0-1.8-.2-2.6-.4l-16.4 .1c-.2 0-.3-.4-.4-1 0-.2-.1-.4-.1-.6-2 .4-4.2 1-6.5 1.4z"/></svg>