<svg xmlns="http://www.w3.org/2000/svg" viewBox="0 0 616 560"><!--! Font Awesome Pro 7.2.0 by @fontawesome - https://fontawesome.com License - https://fontawesome.com/license (Commercial License) Copyright 2026 Fonticons, Inc. --><path fill="currentColor" d="M292.8 307.5c33.5 0 67 1.5 100.5 2.2 19.7 .5 36.2 10.8 49.3 22.2 13.3 11.6 24.3 25.3 33.6 39.9 9.2 14.7 16.5 30.7 20.8 48 2.2 8.6 3.5 17.8 2.4 27.5 .2 4.7-2.5 9.8-3.9 14.6-3.3 4.2-5.9 9.6-11.1 11.9-9.8 6.6-18.3 6.1-26.8 8.2-8.4 1.2-16.9 2.4-25.3 3.2-16.8 1.8-33.6 2.9-50.4 4-67.2 3.3-134.3 4.7-202-2.5-5.5-.6-10.7-2-14.4-3.1-3.6-1.2-5.4-2.3-4.8-3.1l5.6-7.2c1.4-1.9 11.7-1.5 24.1-.4 65.5 6.2 132.3 4.8 198.3 1.1 37.2-2.3 61.8-5.4 73.5-7.7 4.1-.6 7.5-1.7 10.9-2.7 2.2-1.9 5.6-2.3 6.8-5.2 7.5-9.1 5.8-26.6 1.1-41.1-4.8-15-12.2-29.4-21-42.7-17.6-25.9-42.7-50.8-73.3-50-33.2-.5-66.4-2.6-99.6-1.9l-49.7 1.9c-8.5 .3-16.7 .4-23.1 1.9-6.8 2-13.8 4.9-20 9.4-25.1 17.3-44.2 45.2-55.3 74.1-1.1 3-2.2 6.1-3.1 9.1-.4 1.3-.9 2.7-1.3 3.9-3.5 13.9-3.4 29.5 4 36.6 1.5 .9 2.6 2.1 3.4 3.9l.4 .9c.6 1.2 .5 2.6-.4 3.3-1.8 1.4-3.9 2.7-6.4 3.9-1.7 .7-5.5 .6-7.8-2.1-7.2-7.5-10-17.4-10.2-26.1-.5-8.9 .9-17.5 3-25.6 4.3-16.3 11.1-31.5 19.7-45.6 17.6-27 39.9-55.7 77.1-62.5 1.5-.2 2.9-.1 4 .4 .3 .1 .2 .4 .4 .5 7.2-.6 13.6-.6 20.6-1.1l50.3-1.9zm192.5-52.3c12 .7 21.7-.6 36 2.2 25.4 8.1 41.9 27.5 55.3 47.1 6.3 10.3 11.9 21 15.7 32.7l0 0c3.3 11.7 6.6 24.5 1.7 38.9-.7 3.6-3.8 6.8-6.2 9.9-2.8 2.8-6.7 4.6-10.1 6.4-6.7 2.2-12.3 3-18.3 4-11.7 1.8-23.2 2.9-34.8 3.9-1.9 .2-3.7-.1-5-.6s-2-1.3-1.9-2.2l.9-8.1c.2-2 3.7-3.8 8-4.2 11.3-1 22.5-2.2 33.5-3.9 12-1.8 18.8-4.2 20.8-12.5 3.5-17.9-6.6-40.6-18-58.2-11.9-17.7-28.3-34.7-46.9-39.2-4.1-.8-9.7-1.1-15.6-1.1-8.6-.2-25.7-.6-51.3-1.2-3.8-.1-7.4-.8-10.2-2l-1.4-.6c-1.9-.8-2.6-2.1-1.6-3.1l6-6.4c1.5-1.7 5.1-2.7 9-2.6l34.5 .8zm-318.3-2.5c3.8-.1 7.4 .4 10.3 1.4l1.4 .5c1.9 .7 2.6 1.9 1.7 3l-5.7 6.8c-1.5 1.7-5 2.9-8.9 3.1l-34.4 1.2c-10.9 .7-24.3 .1-32.6 2.1-19 6.1-34.8 23.5-46.4 41.6-5.5 9.4-10.5 19.2-13.7 29.4-3 10-4.6 21.1-1.7 28.6 1.2 3.9 3.9 5.5 7.1 7.2 4.2 1.3 10 2.3 15.4 3.1 11 1.5 22.4 2.5 33.7 3.4l0-.1c1.8 .1 3.6 .6 4.8 1.4 1.2 .7 1.8 1.6 1.6 2.4l-2 7.9c-.5 2-4.2 3.2-8.6 2.9-11.5-.9-22.9-1.9-34.6-3.7-5.9-1.2-11.5-1.2-18.5-5-7.1-3-12.1-10.6-13.7-17.3-3.5-13.9-.2-26.2 3.4-37.8 3.7-11.6 9.5-22.1 15.8-32.3 13.2-19.5 29.7-39.2 56-46.3 7.1-1.4 13-1.6 18.5-1.7 8.6-.3 25.7-.9 51.4-1.8zM305.8 75.8c.5 .1 .7 .3 1 .5l14.5-.1c.2 0 .4 .7 .4 1.5 25.4 3.2 49.2 17.2 64.3 38 8 11 13.8 23.7 16.4 37.2 1.2 7 2.2 12.9 1.6 21.1L401.5 194c-.2 1.1-.6 2-1.4 2.6-.2 .2-.5 0-.8 .1-8.7 32.4-35.7 59.1-68.6 66.7-33.5 8.6-71.5-3.1-94.2-29.6l0 0c-23.2-25.9-30.5-65.2-17.3-97.7 12.4-32.7 44-57.2 79-60.7 2.8-.2 5.6 0 7.5 .5zm-9.8 14.8c-29.2 4.3-55 26-64 54l-.1 0c-9.6 27.7-2.7 60.5 17.8 81.5 19.9 21.4 51.9 30.5 80 22.2 28.1-7.6 51-31.6 56.8-60 .5-2.5 1.2-4.6 1.8-6.9l1.4-10.5c0-4.7-.7-11.2-1.9-16.6-2.5-11.2-7.4-21.8-14.3-31-13.7-18.3-35.4-30.5-58.1-31.9-.5 0-.9-.4-1.4-.5l-12.8 .3c-.1 0-.3-.3-.4-1 0-.2 0-.5 0-.7-1.4 .4-3 .8-4.7 1.1zM440.9 68c.4 0 .7 .3 .9 1 .1 .1 0 .3 .1 .5l10.8-.3c.2 0 .3 .7 .3 1.5 20.6 2.6 40 13.8 52.3 30.7 6.5 8.9 11.2 19.3 13.4 30.2 1 5.8 1.8 10.4 1.4 17.3l-2.2 16.3c-.1 .9-.6 1.6-1.3 2.1-.2 .1-.5 0-.7 0-4.7 17.3-15.3 32.9-30.1 43.3-18.6 13-43.1 17.4-65.2 11.3-.9-.2-1.7-.8-2.1-1.6s-.4-1.7-.1-2.5l3.1-7.4c.8-1.8 2.6-2.8 4.3-2.4 17.9 4.5 37.6 .7 52.3-10.1 14.7-10.7 24.6-27.9 25.7-45.9 0-.9 .7-1.6 1.1-2.4l.4-3.2c-.1-3.5-.6-8.7-1.5-12.9-2-8.7-5.9-17-11.2-24.1-10.7-14.3-27.6-23.7-45.2-24.7-.5 0-.9-.5-1.4-.7l-9.8 .5c0-.1-.1-.4-.2-.9-12.3 1.6-23.9 6.7-33 14.7-.4 .4-1.2 .3-2.3-.3l-.5-.3c-.7-.4-1.6-1.2-2.2-2.2l-3.5-5.6c-.9-1.5-1.1-2.7-.5-3.2 12.8-11.1 29.6-17.9 46.9-18.6zm-260.1 1l0 .8c15.3 .8 30.6 6.2 42.9 15.7 .5 .5 .7 1.3 .4 2.5l-.2 .6c-.2 .8-.9 1.8-1.8 2.5l-5.1 4.4c-1.3 1.1-2.4 1.6-2.9 1.3-11.3-8.4-25.2-12.8-38.9-12.4-.1 0-.3-.3-.4-.5l-8.8 1.5c-.2 0-.5-.6-.8-1.7-17 2.6-32.6 12.3-42.2 26.3-5.1 7.3-8.7 15.8-10.1 24.6-.6 4.1-1.1 9.6-.8 12.6l2 13.5c.1 .7-.1 1.5-.7 2.2-.1 .1-.2 .1-.3 .2 4.2 14.3 13.3 27.1 25.6 35.3 15.3 10.1 35 13 52.4 7.7 .7-.2 1.5 0 2.2 .4s1.2 1.2 1.4 2l1.9 7.8c.4 1.9-.8 3.9-2.8 4.5-21.5 6-45.7 2-64.3-10.9l0-.1c-18.6-12.7-31.5-33.9-33.4-56.7-.1-1.6 .5-3.1 1.3-4.4l-.2-1.5c-.1-6.4 .4-11.2 1.4-16.8 2.2-10.8 6.7-21.1 13.1-30 12.8-17.9 33.6-30.2 55.8-32.1 1.5-.1 2.9 .5 4.2 1.2l8.8-1.4c0 0 .2 .4 .2 1z"/></svg>