<svg xmlns="http://www.w3.org/2000/svg" viewBox="0 0 392 560"><!--! Font Awesome Pro 7.2.0 by @fontawesome - https://fontawesome.com License - https://fontawesome.com/license (Commercial License) Copyright 2026 Fonticons, Inc. --><path fill="currentColor" d="M11.6 3.3l8 6c2 1.5 3.2 16 2.9 33.5l-1.1 62c.1 20.9-2.9 41.1 1 60.3 3.2 19.1 12.1 37.1 27.9 46.6 4.1 3 7.2 2.7 14.5 8.1 5.7 5.1 8.3 12.4 8 19.4l-1.1 30.9-9.2 247.6 0 .4-.1 .3c-1.7 11 1.9 21.1 9.6 27.5 7.6 6.7 19.4 8.4 29.4 6.3 10.1-2.5 17.9-9.8 20.2-19.7 .2-2.7 .8-5 .8-7.9l-.4-9.5-.9-19c-12.3-262.2-10.9-230.6-11.6-246.4 .2-6.3-2-11.8 1.1-22.2 4.2-9.7 11.9-13 16.5-16.4 5.1-3.4 9.4-6.8 13.2-10.9 14.9-16.5 19.3-41.9 20.8-66 1.2-24.5 .3-50.5 .5-75.6 0-7 .1-13.8 .4-20.3l-.4-29.5c0-1.5 .6-3 1.7-4.2l.6-.6c.4-.4 1.1-.3 1.7-.4 .2-.3 .5-.4 .7-.1 .3 0 .4-.3 .7-.2l6.6 2.4c1.7 .6 2.8 2 2.8 3.6l1.6 111.3c0 .7-.3 1.5-1 2-.3 .2-.7 .2-1.1 .3-.1 5.9 0 11.6-.5 17.6-2.3 25.1-7.4 53.3-28.1 73.2-9.7 9.6-24.7 15-23.7 21.4 0 10.3 1 24.5 1.5 36.6 1.8 37.7 5.3 113.1 10.6 226.1l.9 18.8 .4 9.5c-.5 3.6-.7 7.3-1.6 10.9-3.8 14.8-17.2 26.8-31.7 29.5-14.3 2.9-30.1 .3-41.7-9.7-10.5-8.5-15.6-22.5-15.1-35.2l.5-4.6 9.4-253.7 .6-15.9 .3-7.9c.1-2.4 0-3.4-.5-5-.5-1.4-1.3-2.7-2.2-3.6-1.2-1.1-1.1-.9-4.5-2.5-5.4-2.4-10.6-5.5-15.2-9.3-19.1-15.5-26.8-39.5-29-61.3-1.2-11-1.1-22.3-.4-32.9 .5-10.5 .4-21.1 .7-31.7L7.8 30.2c.1-7.5 .6-14.7 1.3-19.8 .7-5.1 1.6-7.6 2.5-7zM340.8-.4c8.1-1.1 15.8-.7 21.2-.1 5.4 .6 8.1 1.4 7.4 2.2l-6.1 8.1c-1.5 2-16.1 3-32.8 6.3-21.9 4.1-43.2 14.4-53.9 33.1-5.6 9.5-8 18.7-8.3 30.6l-2.7 35.4-10.8 141.5c-.2 5.3-1.5 13.2-.7 16.2 .6 3.8 2.4 7.5 6.3 10.7 7.2 6.7 18.2 11.3 28.8 16.4 10.5 5.5 22.5 9.8 31.9 21.5 5 5.6 6.8 14.3 6.1 21.8l-2.2 17.6-17.9 140.6-2.2 17.4 .5 6.8 2 6.8c3.8 8.7 11.8 15.5 21.2 18.5 9.3 3.1 20 2.6 27.7-2.6 7.8-4.9 12.5-14 14-24.2 2.3-44.7-.6-93.6-1.5-140.3-2.7-94.4-6.2-188.9-7.5-283.6-.1-10.1 .2-19.6 .6-28.6l-.8-36.2c0-1.7 .5-3.4 1.6-4.6l.6-.6c.7-.9 2-1.1 3.1-.7l6.6 2.7c1.7 .7 2.8 2.3 2.9 4.1L378.7 161c0 .9-.3 1.7-1 2.2-.1 .1-.2 .1-.3 .1 1.7 76.1 4.1 152.2 6.3 228.3l1.8 71.3-.1-.1 .5 35.7-.1 18c-.6 6.4-.8 13.1-3.3 19.5-3.8 13-14.4 25.2-28.1 29.5-13.6 4.3-28.2 2-40.2-4.7-12-6.6-21.6-19-23.5-33.2-.2-3.7-.8-6.5-.5-11 .6-4.4 1.7-13.3 3.4-26.5l17.9-141.4 1.1-8.5c-.5-1.5 .1-3.9-1-5.5-1-3.6-4.4-7-8.4-10.1-8.4-6.1-19.3-10.7-30.1-15.9-10.5-5.6-23.3-10.9-31.2-25.1-3.9-7.3-2.8-16.5-2.5-21.4l1.4-17.7 10.9-142c1-12.2 1.5-22.7 3-36.4 2.3-13.4 8.4-25.7 17.3-35.6 18-20.3 44.4-28.5 68.8-31zM70.4-.1c2 .2 3.6 1.9 3.6 4.1l1.4 134.8c0 1.8-.6 3.7-1.7 5.1l-.5 .7c-.7 1-2 1.3-3.1 .8l-6.6-2.9 .1-.1c-1.7-.7-2.8-2.5-2.8-4.4L59.1 2.5c0-.9 .3-1.8 1-2.4s1.5-.9 2.3-.9l8 .7zm47.7 0c2 .2 3.6 1.9 3.6 4.1l1.4 134.8c0 1.8-.6 3.7-1.7 5.1l-.5 .7c-.7 1-2 1.3-3.1 .8l-6.6-2.9 0-.1c-1.7-.7-2.8-2.5-2.8-4.4L106.8 2.5c0-.9 .3-1.8 1-2.4s1.5-.9 2.3-.9l8 .7z"/></svg>