<svg xmlns="http://www.w3.org/2000/svg" viewBox="0 0 616 560"><!--! Font Awesome Pro 7.2.0 by @fontawesome - https://fontawesome.com License - https://fontawesome.com/license (Commercial License) Copyright 2026 Fonticons, Inc. --><path fill="currentColor" d="M596.7 185.7c-.2-45.3-.2-69.1-.2-71.5 1-6-4.1-16.1-11.9-18-3.8-1.3-8.1-1.2-11.9 .2-1.9 .7-3.6 1.8-5.1 3.1l-2.6 2.2-.4 .1c-2.2 .4-4.4 1.5-6.3 3.1-43.8 37.4-87.8 75.1-129 116-.3-16.2-.9-32.4-1.8-48.6-.9-15.8-2.1-31.7-4.2-47.5-1.1-7.9-2.3-15.9-4.2-24-1-4.1-2-8.1-3.8-12.3-.9-2.2-1.9-4.2-3.7-6.8-2.2-3-5.4-4.9-9-5.6-59.7-6.9-117.8-11.1-177-11.9-29.5-.3-59.1 .1-88.6 2.1-14.8 1-29.5 2.3-44.2 4.2-16.6 2-27.6 4.1-33.1 5.1l-5.5 1.1-8.8 2.1-.7 1.7 0 0c-3 1.8-5.1 4.8-7 8.4-3.8 7.3-6.2 17.3-8 27.7-9 61.9-9.7 123.4-9.7 185.1 .3 30.8 1.2 61.6 3.3 92.5 1.1 15.4 2.5 30.9 4.7 46.3 1.1 7.8 2.5 15.5 4.5 23.4 1 4 2.1 7.9 4 12.1 1 2.2 1.8 4 4.1 7.1 2.4 2.9 5.8 4.7 9.5 5.1 63.9 5.6 126.4 8.7 189.8 8.4 31.6-.1 63.2-1.1 94.8-3.3 15.8-1.1 31.6-2.4 47.4-4.2l11.9-1.5 6-.8c2-.3 7.2-.8 9.2-3.7 5.4-6.8 5.2-10.2 6.7-14.4 1.1-4.1 1.9-8.1 2.6-12.1 5.9-38.9 8.4-77.6 9.8-116.3L579.3 469.6c2.4 2.1 5.5 2.7 7 1.3l6.1-5.4c.6-.6 .8-1.5 .6-2.6s-1.1-2.2-2.1-3.1L442.7 333.6c.1-.5 .6-.9 .6-1.4l.8-105s-.1-.1-.1-.2c8.2-8 16.4-16.1 24.9-23.9 1.4-.9 2.7-1.6 4.2-2.8l87.1-75.1c8.2-7 13.6-11.7 16.3-14.1 1.5-1.2 1.3-1 2-1.2 1.2-.2 2.6 .8 2.8 1.9 .1-.1 .1 2.7 .1 5.2l0 7.2 .2 57.5 .8 230c0 6.6 1.1 12.5 2.8 15l6.6 9.8c1.1 1.6 2.3 .5 3.1-2.7l.6-2.4c1.1-4.8 1.7-10.9 1.7-17.2l-.7-228.7 0 .1zM403.5 454c-.6 3.8-1.5 7.4-2.4 10.9-.7 3.1-2.7 7.9-2.4 7-.5 .2 .5 0-1.3 .3l-5.7 .8-11.6 1.4c-15.5 1.8-31.1 3.1-46.7 4.2-31.2 2.1-62.5 3.1-93.9 3.2-62.5 .3-125.9-2.8-187.4-8.2-.1 1.7-3.8-5.9-5.3-12.3-1.7-6.7-3-13.7-4.1-20.8-2.1-14.2-3.5-28.7-4.6-43.2-2.1-29-3.1-58.2-3.5-87.3-.4-54.3 .6-109 6-162.8 1.1-5.6 2.3-11.3 3.6-17 1.7-7.3 3.6-14.5 5.8-21.7l3.5-10.6 2.4-6.5 6.4-1.3 10.6-1.9c7.1-1.2 14.3-2.2 21.5-3 14.4-1.8 28.9-3.1 43.4-4.1 29-2 58.2-2.4 87.5-2.1 58.1 .7 117.5 5 174.3 11.6l.2 .1c.3 .5 1.2 2 1.7 3.4 1.2 2.9 2.2 6.5 3.1 10.1 1.7 7.2 2.9 14.8 3.9 22.4 2 15.3 3.2 30.9 4.1 46.4 1.8 31.2 2.3 62.6 2.2 93.9-.7 62.5-1.9 126-11.3 187l0 .1zm25.3-138.4l-.1 9.5s-.2 0-.3 0c.1-3.1 .3-6.3 .3-9.4l0 0z"/></svg>