<svg xmlns="http://www.w3.org/2000/svg" viewBox="0 0 616 560"><!--! Font Awesome Pro 7.2.0 by @fontawesome - https://fontawesome.com License - https://fontawesome.com/license (Commercial License) Copyright 2026 Fonticons, Inc. --><path fill="currentColor" d="M20.1 42.6l13.4 5c3.4 1.3 9.4 6.2 15.1 12.6L77.8 92.7c3-2.3 6-4.6 9.2-6.8 3.3-2.3 11.8-4.9 21.5-6.1 100.8-12.3 200.8-6.8 301.9 4.3 3.6 .7 6.8 2.6 9 5.6 2 2.8 2.8 4.7 3.8 6.9 1.7 4.2 2.8 8.2 3.7 12.2 1.8 7.9 3.1 15.8 4.1 23.6 2 15.6 3.2 31.2 4 46.7 .8 14.5 1.3 29 1.6 43.5 39.3-38.8 81-74.9 122.7-110.5 1.8-1.6 4-2.6 6.1-2.9l.3-.1 2.5-2.2c1.4-1.2 3.1-2.3 5-3 3.7-1.5 8-1.6 11.6-.2 7.6 1.9 12.5 11.7 11.6 17.6l.1 13.7 .2 54.8-.1 0 .8 219.1c0 6-.6 11.9-1.7 16.5l-.5 2.2c-.7 3.1-2 4.1-3.1 2.6l-6.6-9.4c-1.7-2.4-2.8-8.1-2.8-14.4l-.8-220.3-.2-55.1 0-6.9c0-2.3 0-5-.1-4.9-.2-.9-1.4-1.7-2.4-1.6-.6 .2-.4-.1-1.8 1.1l-5.2 4.5-10.4 9-83.5 71.9c-.4 .3-.7 .5-1.1 .8-8.9 8.3-17.9 16.6-26.6 25.1l-.7 100.2c0 .5-.4 .8-.6 1.2L590.8 452.1c1 .9 1.8 2 2 3 .3 1.1 .1 2-.6 2.6l-6 5.4c-1.5 1.3-4.5 .8-6.8-1.2L435.1 338.7c-.3 8.8-.3 17.6-.7 26.4-2 31.1-3.4 61.8-10.1 93.5-1.1 4.5-2.7 8.7-5.3 12.3l28.5 31.7c2.7 3 5 6.1 6.4 8.6s1.7 4.1 .8 4.4l-8.1 3c-2 .8-8.3-4-14.6-11L35.4 67.6c-5.4-6-10.3-12.3-13.6-17.7l-1.6-2.6c-2.2-3.6-2.3-5.5-.1-4.7zM59.7 158.1c1.9 .9 2.8 8.2 2.1 16.8-3.5 50-4.2 100.4-3.1 150.6 .6 25.1 1.7 50.2 3.9 75.1 1.1 12.4 2.4 24.9 4.4 37 1.1 6 2.2 12 3.8 17.6 .8 2.7 1.7 5.4 2.8 7.5 1.4 2.4 .8 1.5 1.3 1.8 81.3 7.1 164.9 9.9 247.1 5.7 7.5-.4 14.9-.2 20.7 .5l.1-.1 2.8 .4c3.9 .5 5.3 1.7 3.5 2.9l-11.4 7.4c-2.9 1.8-10 3.4-18 3.8-82.5 4-164.1 1.3-247.1-5.9-6.1-.3-10.8-6.8-12.2-10-1.8-3.6-2.8-7-3.8-10.3-1.9-6.7-3.1-13.2-4.2-19.7-2.1-13-3.5-26-4.6-38.9-2.1-25.9-3.3-51.8-3.9-77.6-1-51.7-.3-103.4 3.6-155.2 .3-3.8 1-7.4 1.8-9.9 .9-2.5 1.8-3.7 2.7-3.3l7.7 3.7zM407.3 98.6c-98.8-10.8-201.5-16.6-300.6-3.8-8.9 1.3-17.6 2.1-24.6 2.4l-.2 0 327.4 363.1c.4-3.2 1.1-7.3 1.9-12.1l0 0c9.1-58.7 10.2-119.8 10.9-179.9 .1-30.2-.5-60.3-2.2-90.3-.8-15-2-29.9-3.9-44.7-1-7.3-2.1-14.7-3.8-21.6-1.1-6.4-5.4-15.1-5-13z"/></svg>