<svg xmlns="http://www.w3.org/2000/svg" viewBox="0 0 616 560"><!--! Font Awesome Pro 7.2.0 by @fontawesome - https://fontawesome.com License - https://fontawesome.com/license (Commercial License) Copyright 2026 Fonticons, Inc. --><path fill="currentColor" d="M360.1 12.9c-2.5-1.3 22.9 10.6 12.2 5.7 0 .2 .1 2.5 .4 6.7l.7 10.7 2 43 2.5 85.8c.2 13 .3 26 .5 39l-.1 .1c1.4 0 3 .4 4.3 1.4 22.8 18.7 36.4 48.1 36.1 77.8 .2 29.6-14.3 59.9-39.6 76.8-.1 .1-.3 0-.4 .1-.5 49.4-1.6 98.8-3.9 148.2-.4 9.3-1.5 18.2-2.5 24.5-1 6.3-2.1 9.4-2.9 8.6l-3.3-3.4c-.4 0-.8-.1-1.6-.4l-27.4-12.1c-7-3.1-21.8-12.8-37.5-24.8-22.7-17.4-45.2-35.1-67.5-53.1l-33.1-27.4-16.4-14-6.1-5.3-8.4 0-85.7-.5-21.4-.1c-11.6-.2-18.5-9.3-22.2-15.8-7.8-14.2-10.7-28.7-13.3-43.1-4.6-28.9-5.4-58-3.8-87 .9-14.5 2.5-29 5.4-43.5 3.3-14.4 6.1-29.1 17.1-42.9 3-3.3 7.1-6.7 12.7-7.8 3.1-.6 5.5-.7 6.9-.6l5.3-.1c10.7-.1 32.1-.2 64.2-.4l42.7-.3c.3 0 .4 0 .5-.2l3.7-3.2 8.1-7.1 16.4-13.9c43.9-36.9 89.1-72 134.9-106.4l17.3-12.8 2.2-1.6 .5-.4 .3-.2zm-4.3 21.6l-17 12.7c-45.3 34.1-90 69.1-133.1 105.8l-16.1 13.9-4.8 4.2c-.6 1-1.6 1.5-2.5 1.9 .8 1.6 1.1 3.6 .7 5.9-12.7 68.7-11.3 140.3 3.2 208.6 .2 .8 0 1.4-.1 2.1l.7 .5c2 1.7 6 5.2 12 10.4l16.2 13.7 32.8 27c22.1 17.8 44.4 35.2 66.9 52.4 14.9 11.3 29 22.7 39.8 32.1l0 0 5.3 4.6c.5 .5 .9 .8 1.3 1.2-1.2-5.6-1.3-21-.5-39.2 4.6-113.3 4.3-227 2.1-340.4l-2.7-85.1-1.9-34.1-2.4 1.8zm180.7 90.8c2.4 .4 6 3.1 9 6.9 34 44.3 54.7 100.7 50.9 157.7-3.3 56.9-29.6 110.7-67.3 152.1-1.5 1.7-3.2 3.1-4.7 3.9-1.5 .7-2.6 .7-3.1 0l-4.7-6.8c-1.2-1.7 .5-5.9 3.8-9.7 35.2-39.8 59.3-90.3 61.5-143.1 2.8-52.8-16.8-104.9-49.2-146.6-2.7-3.4-4.9-7.1-6.1-10.5l-.6-1.6c-.8-2.3-.3-3.7 1.2-3.5l9.4 1.3zm-68.1 54.7c2-.1 4.6 1.5 6.4 4 21 29.4 33.3 66.1 31.2 103.1-1.8 36.9-17.4 72.3-40.8 100.2-.9 1.1-2.1 2-3.2 2.4-1.1 .4-2.1 .2-2.7-.4l-5.4-6.2c-1.3-1.5-.8-4.6 1.2-7.1 21.2-26.1 35-58.2 36.1-91.4 1.5-33.2-9.9-66-29.3-93-1.6-2.2-2.7-4.7-3.1-7.1l-.2-1.2c-.2-1.6 .5-2.8 1.7-2.9l7.9-.4 0 0zm-345.9-6.2l-42.7 .3-10.7 .1-5.3 .1-2.7 0c-.4 .1-.7 .2-1 .3-2.8 .1-6.8 4.9-9.5 10.4-10.7 23.4-13.2 52.6-14.6 80.1-.9 27.8 .4 56.1 5.8 83 2.8 12.9 6.9 27.3 14 34.8 1.7 1.6 3.2 2.5 4.5 2.5 2.2 .3 6.7 .1 10 .2l21.3 .1-.1 0 79.2 .5c-14.1-69.4-15.2-141.4-2.1-211.4 .1-.4 .4-.7 .5-1.1l-4.1 0-42.6 .3zm256 48.4c.5 39.3 .7 78.6 .4 118 16-14.9 25.2-36.6 24.9-58.6-.1-22.3-9.8-43.8-25.3-59.4z"/></svg>