<svg xmlns="http://www.w3.org/2000/svg" viewBox="0 0 504 560"><!--! Font Awesome Pro 7.2.0 by @fontawesome - https://fontawesome.com License - https://fontawesome.com/license (Commercial License) Copyright 2026 Fonticons, Inc. --><path fill="currentColor" d="M2.2 5.6l14.7 6.5C20.7 13.8 27.4 19.7 34 27l119.8 133.1 56.2-2.2c.1 0 .2 .3 .4 .4l3.7-3.2 15.9-13.7 32.2-26.9c21.6-17.7 43.5-35.1 65.6-52.2l33.3-25.4 16.8-12.6 12.6-9.4 2.2-1.6 .1-.1c-2.4-1.2 21.6 10 11.4 5.3l0 .3 .2 2c1.9 28 2.9 55.9 3.8 83.8 .9 33.1 1.2 66.2 1.7 99.3 1.6-.3 3.6 .1 5.3 1.4 22.8 18.7 36.3 48.1 36 77.8 .2 29.6-14.2 59.9-39.6 76.8-.4 .2-.7 .2-1.1 .4-.2 26.4 0 52.7-.5 79.1 0 1.5-.1 3-.2 4.5l85.9 95.4c3.1 3.5 5.8 7 7.5 9.8l0 0c1.7 2.8 2.1 4.6 1.2 4.8l-8.4 2.7c-2.1 .6-9.2-5-16.5-13.1L20.5 34c-6.3-7-12-14.2-15.9-20.3l-1.9-3C-.1 6.6-.2 4.5 2.2 5.6zM85.7 163.4c3.4-1.8 5.2-2 5.3-1 .3 3.1 1 5.9 1.9 8.6 .6 1.9-2.8 7-6.4 14.8-9.4 20.9-13.2 45.5-15.6 69.4-2.2 24.1-2.4 48.5-.2 72.5 1.2 11.9 3 23.8 6.3 35 2.8 10.7 9.1 22.6 15 23.1l72.8 .5 37 .2 1.2 0c-7.1-33.2-11.1-67.1-11.9-101.1 0-1.5 .6-2.9 1.7-4l.5-.5c.7-.8 2-1 3.1-.7l6.6 2.2c1.7 .6 2.8 1.9 2.8 3.4 1 35 5.3 70 13.1 104 .1 .2-.2 .4-.2 .6 1.8 1.5 2.9 2.7 4.3 3.7l14 12c18.7 15.9 37.8 31.4 57 46.6l58.3 45.1 29.5 22.1 7.7 5.7c.3-3.6 .6-7 1.1-10.3l.3-14.8c0-.5 .7-1 1.8-1.4l.5-.2c.8-.2 2-.3 3.1-.1l6.5 1.1-.1 0c1.7 .3 2.7 .9 2.7 1.4l-.7 39.2c0 .3-.4 .5-1 .6l-.7 0 0 .2c-1.9 .9-18.9 8.7-10.5 4.8l-.1-.1-6.5-4.7-1.1-.8-15-11-29.8-22.3-58.8-45.7c-19.4-15.5-38.7-31.1-57.6-47.3l-14.1-12.2c-2.6-1.7 .8-.7-3.6-1l-9.3-.1c-131.6-.6-82-.4-102.2-.4-2.7 .2-9.1-.7-12.7-3-7.9-4.8-11.4-11.5-14.5-17.7-3-6.3-4.9-12.6-6.5-19-3.1-12.6-4.7-25.3-5.7-38-1.9-25.3-1.4-50.5 1.2-75.7 3.2-25.1 6.4-50.3 20-74.8 2.5-4 5.8-7.5 9-9.4zM390.3 33.6c-19.2 14.2-38.3 28.6-57.1 43.2-21.8 16.9-43.5 34.1-64.8 51.7l-31.7 26.6-15.6 13.5-3.6 3.1-6.4 51.7 184.2 204.4c1.7-109.4 1.2-218.9-2-328.3l-1.6-41.4-1-20.7-.2-3.8zm19.8 187.7c.5 39.9 .6 79.8 .4 119.7 16.6-14.9 26.1-37 25.8-59.4l0 0c-.1-22.8-10.1-44.7-26.3-60.3zm-243.4-47l31.1 34.6 4.4-34.6-6 .1c-5.8 .1-11.3-.2-16.5-.5l-13 .5z"/></svg>