<svg xmlns="http://www.w3.org/2000/svg" viewBox="0 0 616 560"><!--! Font Awesome Pro 7.2.0 by @fontawesome - https://fontawesome.com License - https://fontawesome.com/license (Commercial License) Copyright 2026 Fonticons, Inc. --><path fill="currentColor" d="M432.9 80.6c3.6-1.6 7.3-3.5 11.4-2.4 4.3 .7 7.3 3 9 4 4.2 2.7 7.6 5.6 11 8.6 4.2 3.7 7.9 7.6 11.7 11.4 .2 .2 .4 .4 .7 .6 .3 .3 .6 .6 .9 .9 1.8 1.8 3.8 3.6 5.6 5.5 1.2 1.2 2.2 2.5 3.3 3.8 6.7 6.9 13.5 13.7 19.9 20.8 1.1 1.2 1.7 2.8 1.6 4.5l0 .8c0 1.1-.8 2.2-1.9 2.5l-6.6 2.4c-1.7 .6-3.5 .2-4.7-1-9.3-10.3-18.9-20.4-28.8-29.9-5-4.8-10-9.4-15.2-13.5-2.6-2-5.2-3.9-7.6-5.3-1.7-1-1-.4-1.4-.4l-23.1 22.1-77.1 78.3 49.4 44.8 21.8-22.1c1.8-1.8 3.5-3 5.2-4.3l59.2-60.6c1-1 2.1-1.7 3.3-1.9s2 0 2.6 .7l4.9 6.4c1.2 1.6 .4 4.6-1.8 6.9L344.4 309.2c-1.4 1.4-3 2.2-4.7 3-73.1 74.1-139.5 141.3-199.1 201.7l-46.4 47-3.3 3.3c-1.8 1.7-3.6 3.9-6.4 3.5-2.3 1.3-4.9 .2-7.4 .2-2.6-.6-5-2.5-6.3-3-5.3-3.5-9.8-7.2-14.1-11.1-8.5-7.8-16.3-15.9-23.5-24.9-3.7-4.6-6.6-9.5-8.7-14.7-.9-1.5-1.7-3.1-2.8-5.7-.9-2.2-.5-4.5-.8-6.7 1.2-1.9 1.1-4.3 2.7-6.1L408.2 105.6c.1-.1 .1-.4 .1-.4l3-2.9 21.5-21.8zM36 504.3c0 0-.1 .1 .1 .2 .5 1.5 2.3 4.1 3.6 6.1 3 4.4 6.6 8.8 10.3 13 7.3 8.4 15.5 16.6 23.9 23.4 3.1 2.5 5.8 4.6 7.2 5.9 .1 0 .2 .1 .3 0l5.1-5.2c44.2-44.8 212.1-215.1 294-298l0 0-49.3-45-295.1 299.4zm505.3-320l6.6 1.3c1.7 .3 2.8 1.1 2.8 1.9l.2 18.1 19.4-.5c.8 0 1.5 .6 2.1 1.7l0 0 .3 .5c.4 .7 .5 2 .3 3.1l-1.2 6.6c-.3 1.7-1 2.8-1.8 2.8l-18.9 .6 .2 22.3c0 .4-.4 .7-1 1s-1.5 .3-2.3 .3l-8-.4c-2-.1-3.5-.9-3.5-1.8l-.1-21-21.4 .6c-.4 0-.7-.3-1-1s-.4-1.5-.4-2.3l.3-8c.1-2 .8-3.5 1.6-3.6l20.7-.5-.1-19.1c0-.7 .6-1.5 1.8-2l.6-.2c.7-.4 2-.5 3.1-.3zM544-7.7l6.6 2.1c1.7 .6 2.8 1.8 2.8 3.1l-.1 36.3c12.8-.4 25.6-.9 38.7-.7 1.3 0 2.6 .7 3.5 1.8l.4 .6 0-.1c.6 .8 .8 2 .4 3.1L594 45c-.6 1.7-1.8 2.7-3.1 2.7-12.5-.1-25.1 .4-37.7 .8L553 91c0 .6-.3 1.2-1 1.6-.6 .4-1.5 .6-2.4 .5l-8-.7c-2-.1-3.5-1.4-3.5-2.9l.2-40.7c-13.6 .5-27.2 1-41 .7-.6 0-1.2-.4-1.6-1s-.6-1.5-.5-2.4l.8-8c.2-2 1.5-3.5 2.9-3.4 13.1 .2 26.3-.2 39.5-.7l.2-37.4c0-1.3 .6-2.5 1.8-3.4l.5-.5c.7-.6 2-.8 3.1-.5zm-171.8 24l6.6 1.3c1.7 .3 2.8 1.1 2.8 1.9l.1 18.1 19.4-.5c.8 0 1.5 .6 2.1 1.7l.3 .5c.4 .7 .5 2 .4 3.1l-1.2 6.6c-.3 1.7-1 2.8-1.8 2.8l-19 .5 .2 22.3c0 .4-.4 .7-1 1s-1.5 .4-2.3 .3l-8-.5c-2-.1-3.5-.9-3.5-1.7l-.1-21-21.4 .6 0 0c-.4 0-.7-.4-1-1s-.4-1.5-.4-2.3l.3-8c.1-2 .8-3.6 1.7-3.6l20.7-.5-.1-19.1c0-.7 .6-1.4 1.8-2l.5-.3c.7-.4 2-.5 3.1-.3z"/></svg>