<svg xmlns="http://www.w3.org/2000/svg" viewBox="0 0 504 560"><!--! Font Awesome Pro 7.2.0 by @fontawesome - https://fontawesome.com License - https://fontawesome.com/license (Commercial License) Copyright 2026 Fonticons, Inc. --><path fill="currentColor" d="M116.1 104.1c7.3-.3 14.4-.6 22.2 1.1 3.8 .8 7.9 1.7 12.2 4 4.3 2.2 8.3 6.8 10.1 11.1 3.3 8.7 4 14.5 6.1 21.7 6.8 28.6 9.7 57.2 9.6 86.5 0 1.2-.4 2.3-1.1 3.1s-1.5 1.2-2.4 1l-3.3-.5c-3.3 1.3-9.6 2.2-16.8 3.6-53.1 7.7-100 47.1-116.6 98-17.6 50.5-5.2 110.2 32.2 148.5 36.3 39.1 94.8 55.8 146 40.8 51.3-13.8 93.3-57.6 104-109.8 1-4.8 2.3-11.1 4.8-23.5l.7-3.3c1-4.5 2.3-6.1 3.3-3.8l5.9 14.7c.9 3.8 1.5 13.1-1.3 22.9-13.3 57.3-60.8 105-118.3 118.3-28.5 7.3-58.9 5.6-87-2.8-28-9-53.6-25.5-72.9-47.8-39.3-44.1-51.5-110.6-29.1-165.6 21.1-55.4 74.6-96.7 133.8-102.6 1-.1 2-.1 3-.1-.5-25.4-3.2-51.2-9.3-75.6-1.9-6.6-3.3-14.8-5.3-18.6-1.3-3.3-5.7-4.8-12.2-6-12.8-2.1-27.3 .1-40.7-.2-2.3 .1-4.5-.5-6.3-1.6l-.8-.5c-1.2-.7-1.7-2-1.1-3.1l3.3-6.6c.9-1.7 3.1-2.8 5.6-2.9l21.8-.5zM365 288.3c16.6 2.7 31.6 2.9 49.5 7.8 9.3 2.8 17.7 10.4 21.9 18.6 4.5 8.3 6.5 17.1 7.9 25.5 3.1 32.9 5 65.3 7.5 98l1.8 24.4c1.1 4.4-2.8 1.7 8.7 2.8l6.1 .2c1 .1 1.8 0 4 .3l3.6 .8c4.5 1 9 2.8 13.3 5.3 8.7 4.7 15.6 14.1 17.6 23.9l.6 3.6c.2 1.2 .2 2.5 .3 4.5 0 3.9-.4 7.7-1.2 11.1l-.5 2.7c-.8 .2-1.7 .2-2.6 .4-1.8 .1-3.4 .6-5.4 .5l-9 0c-11.2 0-37.7 .1-79.2 .2l-20.4-72.1-19.4-66.1c-2.1-6.9-3.6-13.8-4.2-19.2l-.3-2.6c-.5-2.4 .5-1.3 .9-2.2l2.1-2.3c-1.9 2.2-.9 1.1-.9 1.4 2.7 1.1 6.5 5.2 9.5 7.8 2.5 2.3 5.6 8.5 7.8 15.9l36.1 124.9c32.8-.1 55.8-.2 69.1-.2l2.4 0c.3 0 .5 0 .4-.3l0-.9c-.1-1.6-.4-3.3-.8-4.8-2.8-12.3-17.4-18.9-32.5-17.8l-18.6-.6c-2.2-2-1.1-7.3-1.8-10.9-.2-2.4-1-13.2-2.4-32.4-2.7-32.6-4.2-66.2-7.9-97.9-3-15.4-9.4-27.3-23.4-29.5-15-2.7-32.3-4.4-48.3-6.7-3.6-.5-6.9-1.3-9.3-2.2s-3.4-1.9-3.1-2.8l3.7-7.6c.9-1.9 8-2.5 16.4-1.4zM177.4 265.4c3.4 .1 6.7 .8 8.9 1.6 2.3 .8 3.3 1.7 2.9 2.5l-3.4 7.8c-.8 2.1-6.7 2.6-13.6 3.1-36.8 .8-72 23.7-87.5 57-16.2 32.9-12.7 74.4 9.6 103.6 21.4 29.6 59.7 45.7 95.7 39.8 36-5.1 68.1-31.4 79.7-65.8 1.8-5.6 4-11 5.7-15.4l.9-2.1c1.3-3 2.7-3.9 3.5-2.2l4.7 11.1c.8 2.9 .7 9.6-2.1 16.2-14.3 39.4-52 68.9-93.8 73.4-41.6 5.4-85.5-14.3-108.8-49.5-24-34.6-26.9-82.7-6.3-119.8 19.7-37.4 61.2-62.1 103.8-61.2zM175.1 367c7.2-.5 14.3 5.2 15.3 12.5 .1 .6-.2 1.2-.8 1.6s-1.5 .6-2.3 .5l-8.1-.1c-2 0-3.5 .1-3.5 .1-.2 .2-.1 0-.1 .1 0 0 .1 0 .4 0l3.6 0c2.2 .2 4.4 .6 6.5 1.4 1.6 .5 2.5 1.8 2.2 2.9-1.8 6.4-8.9 10.7-15.6 9.3-6.7-1.1-12-7.9-11.4-14.9 .4-7 6.6-13.2 13.8-13.4zM240 145.5c2.2-2.1 3.8-2.3 3.9-.4l.7 11.2c.2 2.9-1.8 8.1-5 13.2l-25.9 41.8c-4 6.9-6.8 13.1-6 19.1 .6 6.2 4.3 13.4 8.1 19.9 16.6 26.2 41.9 49.5 65.5 68.7l4.2 4.2c1 .9 2.6 3 3.9 4.4l-.1 3.5 .1 1.4c.1 .9 .1 1.9 .3 2.8 .3 1.9 .7 3.8 1.2 5.6 1.1 3.6 2.6 7.3 4.7 10.3 2 3 4.6 5.3 6.6 6 1.9 .6 2.9 .6 5.1-1.3 4.8-3.8 5.6-10.4 6.7-20.2 .9-4.5 .7-11 7.3-17.3 4.9-3.5 4-2.2 4.1-2.5 .1 0 .2-.1 .2-.2l-11.8-13.5-18.5-20c-12.4-13.5-24.9-26.7-36.6-41.6-1.8-2.4-3.3-5-3.9-7.3-.6-2.2-.5-3.5 .4-3.7 2.8-.6 5.5-1.3 8.2-2.2 1.9-.6 5.9 2.7 10.1 7.8 10.9 13.5 23.2 26.5 35.3 39.6l18.2 19.8 0-.1 9 10.3c3.8 4.9 10.5 12.4 7.5 18.3-1 5.5-15.8 6.5-12.7 6.9-.9 .9-1.8 5.2-2.2 9.4-.5 4.3-1 9.3-2.8 14.5-1.7 5.5-5.3 10.6-10.1 14.2-4.7 4.1-13.8 5.6-19.8 2.5-6.1-2.8-9.8-7.3-12.8-11.7-3-4.5-4.9-9.3-6.4-14.2-.7-2.4-1.2-5-1.6-7.6-.2-1.3-.2-2.6-.4-3.9l-.1-1.9c0-.1 0-.2-.1-.2l-.3-.1c-15.3-10.4-27-21.7-39.2-33.9-11.9-12.2-23.2-25.1-32.5-40.3-4.3-7.8-8.9-15.9-9.7-26.8-.6-11.4 4.9-20.6 9.1-27.8l26.5-42.6c3-4.9 6.6-9.4 9.9-12.6l1.6-1.5zM368.7 354.3l.2-.2c.1-.1 .1-.1 .2-.2l0 0c-.2 .2-.2 .2-.4 .4zM204.3 114.6c17.3-5.1 35.1-6.1 52.9-3.1 8.9 1.7 17.8 4.4 26 9.8l0 0c8.3 5.6 14.3 14.1 18 22.4 13.7 34.2 12.1 68.4 15.6 101.3 .2 2.7-.1 5.4-1 7.5l-.5 1.1c-.6 1.5-1.8 2-3 1.5l-6.9-3.7c-1.8-.9-3.1-3.5-3.4-6.4-3.3-33.3-2.7-68.4-15-96.7-6-13.9-18.9-20.1-34.5-22.6-15.2-2.2-31.7-1-46.1 3.7-1.1 .4-2.3 .5-3.3 .2s-1.8-.9-2-1.8l-2-7.8c-.5-1.9 1.6-4.5 5-5.4zM248.3-33c28.5-1.5 55.9 21.1 59.3 49.8 .4 2.3 .1 4.5-.4 6.1 0 .1-.1 .1-.1 .1 0 1.6 .3 3.1 .2 4.6-.3 28.4-24.7 54-53.4 55.7-1.2 .1-2.3-.2-3.1-.8-.1-.1-.1-.3-.2-.4-4.2 .1-8.5-.1-12.7-1.1-27.7-5.1-48.7-33-45.7-61.3 1.9-28.3 27.3-52.6 55.9-52.8zm-2.1 15c-21 1.4-39.1 20.3-39.2 41.2-1.3 20.9 15.2 40.8 35.7 43.6 20.5 3.9 41.9-10 47.4-29.8 .5-1.9 1.2-3.5 1.9-5.2 .3-2 .6-4 .5-6 .6-20.9-16.2-40.3-36.7-42.5-1.2-.2-2.1-.9-3.1-1.5-2.2-.1-4.3-.2-6.5 .1z"/></svg>