<svg xmlns="http://www.w3.org/2000/svg" viewBox="0 0 616 560"><!--! Font Awesome Pro 7.2.0 by @fontawesome - https://fontawesome.com License - https://fontawesome.com/license (Commercial License) Copyright 2026 Fonticons, Inc. --><path fill="currentColor" d="M301 423.4c21.7 .6 43.3 2.8 64.7 8.1 2.1 .6 3.8 1.4 5.3 2.2l0 0c2 .5 4 .8 8.1 3.1 4.2 2.7 6.3 8.4 6.1 12.8-.3 8.4-3.1 13.3-5.6 18.6-5.3 10.2-11.6 19.2-18.1 28-13.2 17.5-27.2 33.7-42.5 49.5-1.3 1.3-2.8 2.3-4.3 2.8-.6 .3-.8 .3-1 .3-1.7 1.1-3.4 1.9-5.1 2.3-4.1-.9-7.7-3.4-11-7.3l-5.6-6.6-9.9-12.7-19-25.6-28.1-38.6c-.8-1.1-1.5-2-2.4-3.3l-2.8-6.5c-.9-2.2-.2-5 .1-7.4 .8-2.3 2.7-4.2 4-6.4 6-5.7 12.1-7.3 17.7-8.8 5.7-1.6 11.2-2.4 16.7-3.1 11-1.4 21.9-1.5 32.8-1.4zm.6 15.7c-10.3-.1-20.7 0-30.8 1.2-9.6 1-20.9 3.5-25.6 7.1 0 0-.3-.1-.6 0 11.8 17.8 50.1 70.7 63.8 86.3l4.4-4.6 9.2-10c6.1-6.8 12-13.7 17.7-20.8 11.1-14 22.9-29.2 28.7-43.9 1-2.7 1.5-4.2 1.9-5.2 0-.3-.3-.5-.5-.5l-6.9-1.8c-19.7-4.9-40.7-7.2-61.4-7.8zM189.3 252.5c41.3-26.8 91.3-40.3 140.7-36.6 28.4 1.8 56.3 9.5 81.9 21.7 6.6 2.6 12.6 6.4 18.8 9.9 6.2 3.4 12.3 7 17.9 11.4 5.6 4.2 11.8 7.9 17 12.7l0 .1 17.3 15.2c2.4 2.7 2 6.7 2 10.1-.4 4.1-2.1 6.1-2.7 8.1-1.9 4-4.1 7.7-6.2 11.3-4.4 7.2-9.2 14-14.2 20.7-5.1 6.6-10.6 13.1-16.8 19.2-3.1 3-6.6 5.9-10.8 8.6-2.6 1.2-4.2 2.7-8 3.3-3.8 1.3-7.4-.8-11.1-1.8-35.7-23.7-70.5-51.6-110.7-47.3-19.7 1.5-39 9.7-57.3 19.1-18.6 10-33.6 21.3-49.3 38.1-1 1.2-2.6 1.4-3.8 2.1-1.3 .6-2.5 1.7-3.9 1.8-2.9-.5-5.8 .2-8.6-1.8-3.4-1.8-4.4-2.7-5.9-4.1-1.4-1.3-2.9-2.6-3.9-3.9-4.8-5.2-8.3-10.6-11.8-16-6.9-10.9-12.7-22.2-17.8-34-2.1-4.9-3.5-10.1-4-14.3l0-.6c-.3-1.3-.6-2.5-.7-4.3 .2-4.4 3.5-7.6 5.4-10 13-14.5 27.7-27.6 43.9-38.6 .6-.4 1.5-.6 2.3-.3 .3 .1 .4 .4 .7 .5zm137.6-22.1c-53.8-3.4-108.2 14.9-149.6 49.3-5 3.9-9.6 7.8-14 11.4-3.5 3.5-7.2 6.8-10.4 10.4-2.6-1.4 2.4 10 5.9 17.7 3.9 8.2 8.2 16.3 13 23.9 .5 .8 .4 1.8 .5 2.8 .7 1.2 1.3 2.5 2.1 3.7 2.9 4.4 6.1 8.5 9.3 12 4.3 4 3.6 3.1 4.6 2.7 13.5-14.6 32.4-29.5 51.6-39.4 19.5-9.9 40.1-18.8 63-20.7 22.9-2.5 46 4.6 65.3 14.9 19.4 10.2 37.4 23.1 54.3 34.5 11.8-1.1 45.1-47.7 47.3-58.5l-13.9-12.2c-5-4.5-10.9-8.1-16.3-12.1-5.4-4.2-11.2-7.5-17.1-10.8-5.8-3.4-11.6-6.9-17.9-9.4-24.4-11.4-50.8-18.6-77.7-20.2zM235 16.2c52.4-11.6 106.6-10.2 158.9 .3 52.5 10.9 101.4 34.6 145.4 63.6 9.7 6.3 18.4 12.8 26.4 19.1l25 18c4.2 3.3 5.9 8.5 6.3 12 .4 3.6 .2 6.9-.1 9.9-.8 6.1-2.2 11.7-3.9 17.2-.4 1.2-1 2.4-1.4 3.6-.4 1.1-.9 2.3-1.3 3.4-3.1 8.3-6.7 16.3-11 24-.8 1.5-2.3 2.6-3.9 3.1l-.1 0c-3 4.3-6 8.5-9.8 12.4-5.5 4.8-11.3 10-20.4 11.6-9.8 1.6-18.5-5.3-22.5-8.5-20.9-15.5-41.7-31.2-63.4-45.1-42.8-28.6-91.5-47.9-142.8-47.7-50.9-.8-102 12.6-145.1 39.7-21.6 13.4-41.3 29.8-58.6 48.5-4.1 4.9-8.5 9.5-12.4 14.5-4.5 5.3-6.3 9.3-13.9 16.3-8.4 6.4-19.8 4.2-26.3 .3-7.2-3.8-12.1-9-16.9-14.2-9.1-10.8-16.2-22.7-21-36.3-1.7-7.1-4.8-14.1-1-24.6 .6-1.3 1.4-2.7 2.2-3.9l1.7-1.9 9.9-11.1c17.6-19.8 37-38 57.8-54.6 41.4-33.3 90.4-57.9 142.6-69.7zM383.2 29.5c-50.7-9.2-103.5-9.3-153.3 3.3-50.1 12.1-96 37.9-135.8 70.6-19.6 16.8-38.2 34.8-55.2 54.4-5.7 6.3-5.3 5.4-4.9 11.7 .7 5.2 2.8 11 5.4 16.5 5.3 10.8 12.4 21.7 21.2 29.1 4.2 4 9.3 6.3 12.6 6.3 3.5-.4 4.7-1.1 9.6-7.7 8.1-10.7 16.9-21 26.4-30.5 18.9-19.2 40.4-35.8 64-48.9 46.9-26.8 101.8-39 155.6-35.6 54.7 2.2 105.8 26.8 149.1 56.9 11 7.4 21.7 15.2 32.4 22.9l15.9 11.7c4.9 3.7 11.8 8.9 13.6 9.4 5.8 1.6 16.4-7.2 22.9-16.9l.1 0c7-9.8 12.7-21.2 16.4-32.7 .3-1 .5-1.9 .7-2.9 .8-3.2 1.7-6.4 2.1-9.4 .1-.8 .2-1.4 .2-2.1 .3-4-.6-7.5-.7-6.7L537.7 97.4c-.5-.3-.6-.9-.8-1.4-3.7-2.3-7.6-4.7-11.6-7.3-43.7-28.1-91.3-50.1-142.1-59.3z"/></svg>