<svg xmlns="http://www.w3.org/2000/svg" viewBox="0 0 560 560"><!--! Font Awesome Pro 7.2.0 by @fontawesome - https://fontawesome.com License - https://fontawesome.com/license (Commercial License) Copyright 2026 Fonticons, Inc. --><path fill="currentColor" d="M547.8 115.9l.1 .1 5-.2c2-.1 4.4 3.7 5.5 8.7l.1 .1c9.5 52.3-2.9 110.4-41.6 150-19.2 20.2-46.6 30.9-73.1 34.4-14.9 2.1-30.1 1.9-45 0-8.2-.4-16.4-1.4-24.5-3.3-4.9-1.2-9.8-2.6-14.6-4.6l-3.3-1.5c-.3-.1-.5-.1-.7-.1-.2 0-.3 .1-.4 .2l-20 21.1c-.7 .7-1.7 .8-2.7 .8-110.6 112.7-187.8 191.3-231.5 235.9-2.1 1.9-2.6 3.2-6 5.5-3 2.2-6.2 4.3-9.7 4.6-3.6 1-6.8 1.1-9.8 .5-3.2-.1-6.1-.8-8.7-1.8-10.9-3.5-19.9-9.2-28-15.7-16.1-13.1-30.5-28.3-38.5-49.6-2.9-6.9-2.3-16.2 1-22.2l2.2-2.7c3.2-3.5 4.8-3.5 4.5-1.2-.9 4.7-.1 8.4 2 11.5 1.2 2.2 2.8 6.7 5 12.2 6.9 16.2 20.4 31 35.1 42.1 7.4 5.3 15.6 10.5 23.6 12.3 1.9 .4 3.8 .4 5.7 .7 1.6-.3 3.1-.5 4.5-.9 1.6-.9 5.5-4.4 8.9-8.1 41.4-42.2 124.2-126.7 248.4-253.3 2.2-2.3 4.6-4.2 6.6-5.3 1.7-1 2.8-1.1 3.4-.7 1.7-.5 3.5-1 5.3-.9 2.2 .1 4.2 .7 6.1 1.5l.9 .4c1.9 0 4.2 .4 6.5 1.1 9.4 3 19.2 5 29 6.3 2 .1 3.9 .3 5.9 .3 .3 0 .6 .4 .9 .7 12.6 1.1 25.4 .8 37.9-1.1 24.6-3.7 47.8-13.6 64.2-31.8 31.3-33 42.9-81.9 36.7-127l-53.8 38.6c-.9 .6-2 .7-3.3 .2l-.6-.2c-.9-.3-1.7-1.3-2.1-2.3l-2.2-6.5c-.6-1.7-.4-3.1 .5-3.8l60.2-43.3c.4-.8 .7-1.7 1.3-1.8l1.2-.1 .2-.1c.4-.3 1-.3 1.7 0zM86 475.4c2 2 3.6 5.6 3.4 8.6-.1 1.8-.7 2.9-1.2 4.2 .5 .4 .9 .9 .8 1.4-.3 7.4-5.2 23-21.7 21.6-5.4-.7-10.3-5.7-11.8-10.2-1.7-4.5-1.8-9.1-.5-13.7 1.1-3.9 4.2-7.4 7.7-9.8l-.5-2.6c-.3-1.7-.1-2.9 .4-3 5.8-1.4 11-2 17.8 .1 1.7 .6 3.7 1.6 5.6 3.4zM409.5-7.1c18.7 1.6 36.6 4.4 55 12.1 2.3 .9 4.7 2.4 7 3.8 2.5 2.1 5.7 4.4 7.3 8.5 1.9 3.7 1.6 8.2-.4 11.9-.7 .9-1.6 1.9-2.4 2.8-.3 .5-.7 .9-1.1 1.3-.4 .4-.7 .7-1 1-.5 .6-.9 1.2-1.6 1.7l-2 1.6-20.2 15.9c-.1 .1-.3 0-.4 .1l-57.3 44.4 99.1 108.6c1.2 1.3 2.1 2.8 2.4 4.2s.2 2.3-.6 2.8l-6.9 4.4c-1.7 1.1-5.1-.4-8-3.5L370.6 96.1 451.1 34 463.1 24.5c2.2-1.8 1.6-1.7 1.4-2.3-.1-.2-2.9-2.1-6.2-3.6-1-.3-2-.4-3-.8-13.2-5-27.2-8.2-41.2-9.4-.1 0-.2-.1-.3-.1-14.1-1.2-28.3-.3-41.9 2.9-27.5 6.1-52.3 22.3-71.4 43-19 20.8-33.1 46.7-36.9 74.5-3 19.8-.9 40.2 5.5 59.1l2.9 7.3c2 4.8 4 9.7 6.5 14.2 1.1 2 1.8 4.1 1.9 5.8s-.2 2.9-1 3.1l-.9 .3c-.3 3.5-1.3 7-3.5 10-11.4 11.4-20.7 19.7-31.1 29.6 0 0-.1 0-.2 0L42.1 456.3c-1.4 1.4-3.1 2.6-4.5 3.1-1.5 .5-2.6 .4-3.1-.3l-4.6-6.8c-1.1-1.7 .6-5.5 4-8.9l200.4-196.5 0-.1 1-.9 13.9-13.6c1.5-1.4 3-2.8 4.6-3.9l9.9-9.4c1.6-2.5 .5-4.1-2.8-12.5l-2.2-5.7c-1.6-3.9-3.3-7.8-4.6-11.9l-1.1-3c-.1-.4 .2-.7 .2-1.1-5.6-20.2-7.2-41.6-3.6-62.3 5.8-30.5 21.2-58.6 42.4-80.9 21.1-22.4 48.8-39 79.4-45.5 11.9-2.5 23.9-3.1 35.8-2.7 .7-.5 1.5-.8 2.4-.7zm3.9 197.2c.6 .3 1.2 .9 1.8 1.5l5.5 5.8c1.4 1.4 2.1 2.9 1.6 3.4-10 10.6-21.3 19.9-33.7 27.6-.5 .3-1.3 .1-2.3-.7l-.5-.4c-.6-.5-1.3-1.5-1.7-2.5l0 0-2.5-6.2c-.6-1.6-.7-2.8-.2-3.1 11.3-7.3 21.7-15.9 30.8-25.7 .2-.2 .6-.1 1.2 .2zm-18-28.6c.6 .3 1.2 .9 1.8 1.5l5.6 5.8c1.4 1.4 2 2.9 1.6 3.4-10 10.6-21.3 19.9-33.7 27.7-.5 .3-1.3 .1-2.3-.7l-.4-.4c-.6-.5-1.3-1.5-1.8-2.5l0 0-2.5-6.2c-.6-1.6-.8-2.8-.3-3.1 11.3-7.3 21.7-15.9 30.8-25.7 .2-.2 .6-.1 1.2 .2zm-18-24c.6 .3 1.3 .9 1.9 1.5l5.6 5.8c1.4 1.4 2.1 2.9 1.6 3.4-10 10.6-21.3 19.9-33.7 27.6-.5 .3-1.3 .1-2.3-.7l-.5-.4c-.6-.5-1.3-1.5-1.7-2.5l-2.5-6.2c-.6-1.6-.8-2.8-.3-3.1 11.3-7.3 21.7-15.9 30.8-25.7 .2-.2 .6-.1 1.2 .2z"/></svg>