<svg xmlns="http://www.w3.org/2000/svg" viewBox="0 0 560 560"><!--! Font Awesome Pro 7.2.0 by @fontawesome - https://fontawesome.com License - https://fontawesome.com/license (Commercial License) Copyright 2026 Fonticons, Inc. --><path fill="currentColor" d="M486 35.5l28.5 26.3 14 13.7c2.7 2.8 3.8 3.8 7.7 8.5 4.5 4.8 5.4 10.7 1.9 15.1-108.9 109.8-166 167.3-171.3 172.7l.1-.1-8.5 8.5-1 1c3.4 4.7 8.9 10.5 13.9 15.8l68 67.5c3.2 3.2 6.4 6.4 9.6 9.6l64.3 63.4c2.2 2.1 3.8 4.6 4.6 7.1l.4 1.2c.6 1.6 .1 2.9-1.3 3.1l-8 1.3c-2.1 .3-4.9-.9-7.1-3.1l-158-155.7c-1.1-1.1-1.8-2.3-2.1-3.5-.3-1.2 0-2.1 .7-2.7l.3-.2c-.2-.5-.4-.7-.6-1.3-2-4.1 1.9-10.9 3.5-11.6 8.2-8.2 24.5-24.7 49-49.4L523.5 92.9c.6-.3 .2-.9-.2-1.3l-5.5-5.9-13.6-13.3-28.2-26c-15-11.1-4.3-12.2-18.3 .3l-27 27.6-108.6 109.5c-9.2 9.1-18.1 18.2-27.9 27.2-2.5 2.1-5 4.8-9.7 7.3-4.7 3.6-11.9 1.8-14.6-1.8l-13.7-13.8c-27.6-27.7-81.9-82.3-162.8-163.7-.1-.2-.4-.3-.6-.2-.2 .1 0-.1-2 1.2-2.9 2-5.9 4.3-8.8 6.7-5.9 4.9-11.6 10.2-17.1 15.6-5.5 5.5-10.9 11.1-16 16.9-2.5 2.9-5 5.9-7.2 8.8-2.3 2.9-4.6 6.6-4 5.9l86.8 86.9 45.9 45.7 22.9 23.1c7.6 8.2 15 14.7 22.5 25.8 .4 .5 1 1.9 1.4 3.1 .4 1.1 .9 2.2 .8 4.7 0 4.5-3.2 7.5-4 8.4-51.2 50.9-118.6 117.9-176.7 175.8-.1 .1-.1 .3-.1 .3l1.1 1.8c2 2.9 4.3 5.9 6.7 8.8 4.9 5.9 10.2 11.5 15.6 17.1 5.4 5.5 11.1 10.9 16.8 16 2.9 2.5 5.8 5 8.8 7.2 1.5 1.2 2.9 2.1 4.4 3.1 1.4 1 1 .7 1.3 .8 65.5-65.1 110.3-109.6 134.4-133.5 17.5-17.3 29.1-28.9 34.9-34.6l5.8-5.8c1.2-1.1 1.3-1.7 3.6-3.1 2.1-1.6 4.5-2.7 7-3 4.8-.3 11 3.7 12.7 5.1 2.8 2.1 4.6 4 6.8 6l11.8 11.8 22.7 23.5 45.6 46.5 46.3 45.8 44.6 43.1 6.8-6.4 14.3-14.7c10.4-11 20.5-21.6 28-29 7.4-7.3 11.5-10.7 11.3-9.2l-1.9 14.2c-.7 3.5-18.6 26.7-44.4 52.2-2.4 1.8-12.9 14.5-20.3 7.5l-48.8-47.2-46.4-46-45.8-46.6-22.7-23.4-11.3-11.3c-3.8-3.6-8.2-7.2-7.9-6.5l-89.4 88.6c-78.7 78.3-71.1 70.7-80.6 80.2l-5.8 5.7c-2.7 2.9-6.9 7.5-11.7 5.9-3.2-.8-7.1-2.8-8.9-4.1-1.8-1.2-3.6-2.4-5.3-3.7-3.4-2.5-6.5-5.2-9.6-7.9-6.1-5.4-12-10.9-17.7-16.7-5.7-5.8-11.2-11.7-16.4-18-2.6-3.1-5.2-6.4-7.7-10.1-2.3-3.1-8-13.2-1.9-17.9 159.6-158.7 142.7-141.9 162.3-161.4l11.5-11.4 4.7-4.7c-11.1-14.6-28.2-30.3-42.6-45.2-30.6-30.5-61.2-61-91.8-91.5-16.2-16.2-29.6-29.6-40.2-40.1-3.1-2.8-7.4-7.1-5.9-12 .7-3.3 3.1-7.7 4.1-9.1 1.2-1.8 2.5-3.7 3.7-5.3 2.6-3.4 5.2-6.5 7.9-9.6 5.4-6.2 11-12 16.8-17.7 5.8-5.7 11.7-11.2 18-16.5 3.2-2.6 6.4-5.2 10.1-7.7 3-2.1 13.5-8 18.3-1.9 189.3 190.4 165.2 166.1 176.9 177.8 1.4 1.5 .7 .6 1.1 .7 .6-.4 2.9-2.3 5.2-4.4 9.1-8.3 18.2-17.6 27.3-26.6l108.6-109.4 26.9-27.5 6.7-6.9c2.3-2.1 8.2-9.1 12.2-11.7L486 35.5z"/></svg>