<svg xmlns="http://www.w3.org/2000/svg" viewBox="0 0 576 512"><!--! Font Awesome Pro 7.2.0 by @fontawesome - https://fontawesome.com License - https://fontawesome.com/license (Commercial License) Copyright 2026 Fonticons, Inc. --><path fill="currentColor" d="M432.7 305.4l140 96 6.6 4.5-9.1 13.2-6.6-4.5-135.5-92.9-135.5 92.9-4.5 3.1-4.5-3.1-135.5-92.9-135.5 92.9-6.6 4.5-9.1-13.2 6.6-4.5 140-96 4.5-3.1 4.5 3.1 135.5 92.9 135.5-92.9 4.5-3.1 4.5 3.1zm0-208l140 96 6.6 4.5-9.1 13.2-6.6-4.5-135.5-92.9-135.5 92.9-4.5 3.1-4.5-3.1-135.5-92.9-135.5 92.9-6.6 4.5-9.1-13.2 6.6-4.5 140-96 4.5-3.1 4.5 3.1 135.5 92.9 135.5-92.9 4.5-3.1 4.5 3.1z"/></svg>