<svg xmlns="http://www.w3.org/2000/svg" viewBox="0 0 576 512"><!--! Font Awesome Pro 7.2.0 by @fontawesome - https://fontawesome.com License - https://fontawesome.com/license (Commercial License) Copyright 2026 Fonticons, Inc. --><path fill="currentColor" d="M568.2-14.1l-32 128-3.4 13.7-52.4-52.4-319.1 319.2 14.9 59.6 1.1 4.4-3.2 3.2-74 74-3.4-13.7-14.8-59.4-59.3-14.8-13.7-3.4 74-74 3.2-3.2 4.4 1.1 59.6 14.9 319.1-319.2-52.3-52.3 13.7-3.4 128-32 12.9-3.2-3.3 12.9zM40.1 435.7l50.3 12.6 4.7 1.2 1.2 4.7 12.6 50.3 50.8-50.8-13.7-55-55-13.7-50.8 50.8zm408-415.3l76 76 25.3-101.4-101.4 25.3z"/></svg>