<svg xmlns="http://www.w3.org/2000/svg" viewBox="0 0 512 512"><!--! Font Awesome Pro 7.2.0 by @fontawesome - https://fontawesome.com License - https://fontawesome.com/license (Commercial License) Copyright 2026 Fonticons, Inc. --><path fill="currentColor" d="M288.4 88c0 48.6-39.4 88-88 88l-32 0 9.2 101.1c44.2-33.3 99.2-53.1 158.8-53.1 66.3 0 127 24.5 173.3 64.9l6 5.3-10.5 12.1-6-5.3c-43.6-38-100.5-60.9-162.8-60.9-59.6 0-114.3 21-157.1 56.1l5 55.2 .7 8-15.9 1.4-.7-8-24-264-.8-8.7 64.8 0 0 16-47.2 0 5.8 64 33.4 0c39.8 0 72-32.2 72-72l0-72-209.8 0c-.2 .7-.3 1.4-.5 2.2-1.3 5.4-3.2 13.3-5.4 23.3-4.5 20.1-10.5 49-16.4 83.8-12 69.7-23.9 163.3-23.9 258.7 0 61.8 50 111.8 111.8 112l375.6-31.9 8-.7 1.4 15.9-8 .7-376 32-.3 0-.3 0c-70.7 0-128-57.3-128-128 0-96.6 12.1-191.1 24.1-261.3 6-35.1 12-64.3 16.6-84.7 2.3-10.2 4.1-18.1 5.5-23.6l2-7.9c0-.2 .1-.3 .1-.4 0 0 0-.1 0-.1l0-.1 1.6-6 238.2 0 0 88z"/></svg>