<svg xmlns="http://www.w3.org/2000/svg" viewBox="0 0 512 512"><!--! Font Awesome Pro 7.2.0 by @fontawesome - https://fontawesome.com License - https://fontawesome.com/license (Commercial License) Copyright 2026 Fonticons, Inc. --><path fill="currentColor" d="M68.9 443.1l78.7-22.2 15.8-4.5 4.1 15.9 20.1 79.2 57-58.6 11.5-11.8 11.5 11.8 57 58.5 20.1-79.2 4-15.9 15.8 4.4 78.7 22.2-12.2-43.1 16.6 0 18.7 66.2-106.2-30-27.1 107-77-79.1-77 79.1-27.1-107-106.2 30 18.7-66.3 16.6 0-12.2 43.1zM39 164.2l89 163.1 0-167.3 16 0 0 192-20.8 0-2.3-4.2-89-163.1 0 167.3-16 0 0-192 20.8 0 2.3 4.2zM312 176l-112 0 0 72 96 0 0 16-96 0 0 72 112 0 0 16-128 0 0-192 128 0 0 16zm40-16l0 86.8c0 10.2 2.2 20.2 6.3 29.5l21.7 48.2 28.7-63.8 2.1-4.7 10.3 0 2.1 4.7 28.7 63.8 21.7-48.2c4.2-9.3 6.3-19.4 6.3-29.5l0-86.8 16 0 0 86.8c0 12.4-2.6 24.7-7.8 36.1l-29 64.3-2.1 4.7-10.3 0-2.1-4.7-28.7-63.8-28.7 63.8-2.1 4.7-10.3 0-2.1-4.7-29-64.3c-5.1-11.3-7.7-23.7-7.8-36.1l0-86.8 16 0zm8.1-84.3l106.2-30-18.7 66.3-16.6 0 12.2-43.1-78.6 22.3-15.8 4.5-4-15.9-20.1-79.2-57 58.6-11.5 11.8-11.5-11.8-57-58.6-20.1 79.2-4.1 15.9-15.8-4.5-78.7-22.3 12.2 43.1-16.6 0-18.7-66.3 106.2 30 27.1-107 77 79.1 77-79.1 27.1 107z"/></svg>