<svg xmlns="http://www.w3.org/2000/svg" viewBox="0 0 512 512"><!--! Font Awesome Pro 7.2.0 by @fontawesome - https://fontawesome.com License - https://fontawesome.com/license (Commercial License) Copyright 2026 Fonticons, Inc. --><path fill="currentColor" d="M408 152c57.4 0 104 46.6 104 104 0 141.4-114.6 256-256 256-57.4 0-110.4-18.9-153.1-50.8 3.2-4.3 6.4-8.5 9.6-12.8 40 29.9 89.7 47.6 143.5 47.6 108.7 0 200.4-72.3 230-171.4-19.1 21.6-46.9 35.4-78 35.4-57.4 0-104-46.6-104-104s46.6-104 104-104zM256 0c57.4 0 110.4 18.9 153.1 50.8-3.2 4.3-6.4 8.5-9.6 12.8-40-29.9-89.7-47.6-143.5-47.6-108.7 0-200.5 72.3-230 171.3 19.1-21.6 46.9-35.3 78-35.3 57.4 0 104 46.6 104 104S161.4 360 104 360 0 313.4 0 256C0 254.1 0 252.2 .1 250.4 3.1 111.6 116.5 0 256 0zM408 168a88 88 0 1 0 0 176 88 88 0 1 0 0-176zm-304 0a88 88 0 1 0 0 176 88 88 0 1 0 0-176z"/></svg>