<svg xmlns="http://www.w3.org/2000/svg" viewBox="0 0 640 512"><!--! Font Awesome Pro 7.2.0 by @fontawesome - https://fontawesome.com License - https://fontawesome.com/license (Commercial License) Copyright 2026 Fonticons, Inc. --><path fill="currentColor" d="M449.5 432.5l124 47 48.1-15.2 7.6-2.4 4.8 15.3-7.6 2.4-50.7 16-2.7 .8-2.6-1-123.8-46.9-123.8 46.9-2.8 1.1-2.8-1.1-123.8-46.9-123.8 46.9-2.6 1-2.7-.8-50.7-16-7.6-2.4 4.8-15.3 7.6 2.4 48 15.2 124.1-47 2.8-1.1 2.8 1.1 123.8 46.9 123.8-46.9 2.8-1.1 2.8 1.1zM608.1 320c0 47-25.4 88.2-63.2 110.4l-19.7-7.9c39.4-17.4 66.9-56.7 66.9-102.5l0-66.1-71.1 47.4-4 2.7-393.7 0-4-2.7-71.1-47.4 0 66.1c0 45.8 27.5 85.1 66.9 102.5l-19.7 7.9c-36-21.2-60.8-59.5-63-103.8l-.2-6.6 0-96 96 64 384 0 96-64 0 96zm-232-80l-25.6 0-100-80-74.4 0 0 80-16 0 0-96 96 0 120 96zM208 112a56 56 0 1 1 0-112 56 56 0 1 1 0 112zm0-96a40 40 0 1 0 0 80 40 40 0 1 0 0-80z"/></svg>