<svg xmlns="http://www.w3.org/2000/svg" viewBox="0 0 448 512"><!--! Font Awesome Pro 7.2.0 by @fontawesome - https://fontawesome.com License - https://fontawesome.com/license (Commercial License) Copyright 2026 Fonticons, Inc. --><path fill="currentColor" d="M448 512l-16 0 0-32-416 0 0 32-16 0 0-512 448 0 0 512zM16 288l0 176 416 0 0-176-416 0zm256 80l-96 0 0-16 96 0 0 16zM16 272l192 0 0-112-192 0 0 112zm208 0l208 0 0-112-208 0 0 112zM16 144l192 0 0-128-192 0 0 128zm208 0l208 0 0-128-208 0 0 128z"/></svg>