<svg xmlns="http://www.w3.org/2000/svg" viewBox="0 0 640 512"><!--! Font Awesome Pro 7.2.0 by @fontawesome - https://fontawesome.com License - https://fontawesome.com/license (Commercial License) Copyright 2026 Fonticons, Inc. --><path fill="currentColor" d="M240.8 544l-16.9 0 37.3-112 16.9 0-37.3 112zm128 0l-16.9 0 37.3-112 16.9 0-37.3 112zm128 0l-16.9 0 37.3-112 16.9 0-37.3 112zM456.4 128c48.6 0 88 39.4 88 88 0 7.6-1 15-2.8 22 21 14.4 34.8 38.6 34.8 66l0 80-352 0 0-80c0-35.9 23.6-66.3 56.2-76.4-1.9-39.9 30.7-75.6 71.8-75.6 12.8 0 24.8 3.4 35.2 9.2 16.1-20.2 40.9-33.2 68.8-33.2zm0 16c-25.1 0-47.2 12.8-60.1 32.3l-4.6 6.9-6.7-4.8c-9.2-6.6-20.4-10.4-32.6-10.4-33.7 0-60.4 31.3-55.4 64.4l1.1 7.4-7.3 1.6c-28.8 6.2-50.4 31.9-50.4 62.6l0 64 320 0 0-64c0-23.7-12.9-44.5-32.2-55.5l-5.7-3.2 2.1-6.2c2.4-7.2 3.8-15 3.8-23 0-39.8-32.2-72-72-72zM301 45.6l106.5-20.8-12.3 62.8c-6.2 2.2-12.1 4.8-17.8 7.8l9.9-50.4-83.2 16.3-10.4 2-5.9-8.8-47.4-70.4-47.3 70.3-5.9 8.8-10.4-2-83.2-16.3 16.3 83.2 2.1 10.4-8.8 5.9-70.4 47.3 70.3 47.3 8.8 5.9-2 10.4-16.3 83.2 82.9-16.2 0 16.3c-29.6 5.8-63.9 12.5-103.2 20.2L94.1 252.6 4 192 94.1 131.4 73.3 24.8 179.8 45.7 240.4-44.4 301 45.6zM240.4 112c16.1 0 31.1 4.8 43.7 13-5.3 2.8-10.4 6.1-15.2 9.7-8.6-4.3-18.2-6.7-28.5-6.7-35.3 0-64 28.7-64 64 0 17.7 7.2 33.7 18.8 45.3-2.9 4.7-5.5 9.5-7.7 14.6-16.6-14.7-27.1-36-27.1-59.9 0-44.2 35.8-80 80-80z"/></svg>