<svg xmlns="http://www.w3.org/2000/svg" viewBox="0 0 640 512"><!--! Font Awesome Pro 7.2.0 by @fontawesome - https://fontawesome.com License - https://fontawesome.com/license (Commercial License) Copyright 2026 Fonticons, Inc. --><path fill="currentColor" d="M208.4 192c43.1 0 80.4 24.4 99.2 60.1 14.7-17.2 36.5-28.1 60.8-28.1 44.2 0 80 35.8 80 80l0 16c53 0 96 43 96 96l0 96-512 0 0-96c0-41.8 26.7-77.3 64-90.5l0-21.5c0-61.9 50.1-112 112-112zm0 16c-53 0-96 43-96 96l0 33.4-5.8 1.6c-33.6 9.5-58.2 40.4-58.2 77l0 80 480 0 0-80c0-44.2-35.8-80-80-80-2.5 0-4.9 .1-7.3 .3l-8.7 .8 0-33.1c0-35.3-28.7-64-64-64-23.7 0-44.4 12.9-55.5 32l-8.5 14.8-5.9-16C285 234.2 249.7 208 208.4 208zM461 45.6l106.5-20.8-20.8 106.5 90.1 60.6-90.1 60.6 14.4 73.9c-6.1-7.6-12.9-14.7-20.4-20.9l-9.7-49.8-2-10.4 8.8-5.9 70.3-47.4-70.3-47.3-8.8-5.9 2-10.4 16.3-83.2-83.2 16.3-10.4 2-5.9-8.8-47.4-70.4-47.3 70.3-5.9 8.8-10.4-2-83.2-16.3 16.3 83.2 2.1 10.4c-5.9 3.9-11.8 7.9-17.8 11.9-7-2.1-14.2-3.7-21.5-4.8l21.5-14.5-20.8-106.5 106.5 20.8 60.6-90.1 60.6 90.1zM400.4 112c44.2 0 80 35.8 80 80 0 13.1-3.2 25.5-8.7 36.4-3.5-4.8-7.3-9.3-11.4-13.6 2.7-7.1 4.2-14.8 4.2-22.8 0-35.3-28.7-64-64-64-31.2 0-57.1 22.3-62.8 51.8-5.8 1.4-11.4 3.3-16.9 5.5 3.4-41 37.8-73.2 79.7-73.2z"/></svg>