<svg xmlns="http://www.w3.org/2000/svg" viewBox="0 0 576 512"><!--! Font Awesome Pro 7.2.0 by @fontawesome - https://fontawesome.com License - https://fontawesome.com/license (Commercial License) Copyright 2026 Fonticons, Inc. --><path fill="currentColor" d="M120 256c27.9 0 52.7 13 68.8 33.2 10.4-5.8 22.4-9.2 35.2-9.2 41.1 0 73.7 35.7 71.8 75.6 32.5 10.1 56.2 40.5 56.2 76.4l0 80-352 0 0-80c0-27.4 13.8-51.6 34.8-66-1.8-7-2.8-14.4-2.8-22 0-48.6 39.4-88 88-88zm0 16c-39.8 0-72 32.2-72 72 0 8.1 1.3 15.8 3.8 23l2.1 6.2-5.7 3.2C28.9 387.5 16 408.3 16 432l0 64 320 0 0-64c0-30.7-21.6-56.3-50.4-62.6l-7.3-1.6 1.1-7.4c5-33.1-21.6-64.4-55.4-64.4-12.2 0-23.4 3.9-32.6 10.4l-6.8 4.8-4.6-6.9c-12.9-19.5-35-32.3-60.1-32.3zm272-64c40.5 0 74.6 27.4 84.8 64.7 3.7-.5 7.4-.7 11.2-.7 48.6 0 88 39.4 88 88l0 88-176 0 0-16 160 0 0-72c0-39.8-32.2-72-72-72-5.3 0-10.6 .6-15.6 1.7l-8.1 1.8-1.5-8.2c-6-33.7-35.4-59.3-70.8-59.3-30.1 0-55.9 18.5-66.7 44.7-3.6-4.5-7.5-8.7-11.8-12.6 14.5-28.5 44.2-48.1 78.4-48.1zM300.6 45.6l106.5-20.8-20.8 106.5 35.3 23.8c-9.6-2-19.5-3.1-29.7-3.1-1.2 0-2.3 0-3.5 .1-7.8-5.2-14.4-9.7-19.9-13.3l2-10.4 16.3-83.2-83.2 16.3-10.4 2-5.9-8.8-47.4-70.4-47.3 70.3-5.9 8.8-10.4-2-83.2-16.3 16.3 83.3 2.1 10.4-8.8 5.9-70.4 47.3 44.2 29.8c-5.4 2.6-10.6 5.6-15.5 8.8L3.6 192 93.7 131.3 72.8 24.8 179.4 45.7 240-44.4 300.6 45.6zM240 112c37.5 0 68.9 25.9 77.6 60.7-5 3-9.8 6.4-14.3 9.9-4.5-30.9-31.1-54.6-63.2-54.6-35.3 0-64 28.7-64 64 0 8.3 1.6 16.2 4.5 23.5-5.9-2-12-3.7-18.2-4.9-1.4-6-2.2-12.2-2.2-18.6 0-44.2 35.8-80 80-80z"/></svg>