<svg xmlns="http://www.w3.org/2000/svg" viewBox="0 0 640 512"><!--! Font Awesome Pro 7.2.0 by @fontawesome - https://fontawesome.com License - https://fontawesome.com/license (Commercial License) Copyright 2026 Fonticons, Inc. --><path fill="currentColor" d="M326.9-36.1L389.6 68.6c-4.8 2.3-9.5 4.9-14.1 7.6l-55.5-92.6-63.7 106.3-3 5.1-5.8-1.4-120.2-30.1 30.1 120.2 1.4 5.7-5.1 3-106.2 63.7 106.2 63.7 5.1 3-1.4 5.8-30.1 120.2 120.2-30.1 5.8-1.4 3 5.1 63.7 106.2 55.5-92.6c4.6 2.7 9.3 5.2 14.1 7.6l-62.7 104.8-6.9 11.4-6.9-11.4-67.5-112.6-127.3 31.9-13 3.3 3.3-13 31.9-127.3-112.6-67.5-11.4-6.9 11.4-6.9 112.6-67.5-31.9-127.3-3.3-13 13 3.2 127.3 31.9 67.5-112.6 6.9-11.4 6.9 11.4zM480 416a160 160 0 1 1 0-320 160 160 0 1 1 0 320zm0-304a144 144 0 1 0 0 288 144 144 0 1 0 0-288zM304 145.1c-3.8 6-7.3 12.2-10.5 18.6-40.2 11.5-69.6 48.4-69.6 92.3 0 43.8 29.4 80.7 69.5 92.2 3.2 6.4 6.7 12.6 10.5 18.6-54.3-7.8-96-54.4-96-110.8 0-56.4 41.7-103.1 96-110.9z"/></svg>