<svg xmlns="http://www.w3.org/2000/svg" viewBox="0 0 576 512"><!--! Font Awesome Pro 7.2.0 by @fontawesome - https://fontawesome.com License - https://fontawesome.com/license (Commercial License) Copyright 2026 Fonticons, Inc. --><path fill="currentColor" d="M576.9 257.9l-2.5 3.1c-1.6 1.9-8.5 10-19.7 20.7-12.8 12.3-31.6 28.6-56.1 44.9-.3 .2-.6 .3-.9 .5l49.5 85.8-13.9 8-49.2-85.2c-23.9 14.6-52.3 28.5-84.8 38.9l26.7 99.5-15.5 4.1-26.5-99.1c-26.8 7.3-56.1 11.9-87.8 12.6l0 104.2-16 0 0-104.2c-31.7-.7-61-5.4-87.8-12.6l-26.5 99.1-15.5-4.1 26.7-99.5c-32.5-10.3-60.9-24.3-84.8-38.8l-49.1 85.2-13.9-8 49.5-85.7c-.3-.2-.7-.4-1-.6-24.5-16.3-43.3-32.6-56.1-44.9-11.2-10.7-18.1-18.8-19.7-20.7l-2.5-3.1 12.4-10.1 2.5 3.1c1.3 1.5 7.6 9 18.3 19.2 12.2 11.7 30.4 27.4 53.9 43.1 47.1 31.4 115.6 62.7 201.6 62.7s154.5-31.3 201.6-62.7c23.5-15.7 41.7-31.4 53.9-43.1 10.7-10.2 17.1-17.7 18.3-19.2l2.5-3.1 12.4 10.1z"/></svg>