<svg xmlns="http://www.w3.org/2000/svg" viewBox="0 0 576 512"><!--! Font Awesome Pro 7.2.0 by @fontawesome - https://fontawesome.com License - https://fontawesome.com/license (Commercial License) Copyright 2026 Fonticons, Inc. --><path fill="currentColor" d="M152 464l48 0 0-64 16 0 0 144-16 0 0-64-48 0 0 64-16 0 0-144 16 0 0 64zm176-48l-32 0 0 128-16 0 0-128-32 0 0-16 80 0 0 16zm51-11.8l36.8 67 35.5-66.9 2.2-4.2 18.4 0 0 144-16 0 0-114.4-32.9 62.2-6.9 13.1-7.1-13-33-60 0 112.2-16 0 0-144 16.7 0 2.3 4.2zM536 528l32 0 0 16-48 0 0-144 16 0 0 128zM416 160l0 176-16 0 0-160-160 0 0-160-192 0 0 480 32 0 0 16-48 0 0-512 224 0 160 160zm-160 0L393.4 160 256 22.6 256 160z"/></svg>