<svg xmlns="http://www.w3.org/2000/svg" viewBox="0 0 512 512"><!--! Font Awesome Pro 7.2.0 by @fontawesome - https://fontawesome.com License - https://fontawesome.com/license (Commercial License) Copyright 2026 Fonticons, Inc. --><path fill="currentColor" d="M376 504c0 22.1-17.9 40-40 40s-40-17.9-40-40l0-24 16 0 0 24c0 13.3 10.7 24 24 24s24-10.7 24-24l0-104 16 0 0 104zm120-88l-32 0c-13.3 0-24 10.7-24 24s10.7 24 24 24c22.1 0 40 17.9 40 40s-17.9 40-40 40l-40 0 0-16 40 0c13.3 0 24-10.7 24-24s-10.7-24-24-24c-22.1 0-40-17.9-40-40s17.9-40 40-40l32 0 0 16zM416 160l0 176-16 0 0-160-160 0 0-160-192 0 0 480 192 0 0 16-208 0 0-512 224 0 160 160zm-160 0L393.4 160 256 22.6 256 160z"/></svg>