<svg xmlns="http://www.w3.org/2000/svg" viewBox="0 0 512 512"><!--! Font Awesome Pro 7.2.0 by @fontawesome - https://fontawesome.com License - https://fontawesome.com/license (Commercial License) Copyright 2026 Fonticons, Inc. --><path fill="currentColor" d="M288 400c17.7 0 32 14.3 32 32l0 112-16 0 0-48-48 0 0 48-16 0 0-112c0-17.7 14.3-32 32-32l16 0zm120 0c26.5 0 48 21.5 48 48s-21.5 48-48 48l-24 0 0 48-16 0 0-144 40 0zM512 544l-16 0 0-144 16 0 0 144zM272 416c-8.8 0-16 7.2-16 16l0 48 48 0 0-48c0-8.8-7.2-16-16-16l-16 0zm112 64l24 0c17.7 0 32-14.3 32-32s-14.3-32-32-32l-24 0 0 64zM311.7 12.9l9.1 45.5c10.1 3.3 19.8 7.4 29.1 12.1l38.7-25.8 10.9-7.3 75.2 75.2c-1.8 2.6-12.8 19.2-33.1 49.5 4.7 9.3 8.8 19 12.1 29.1l45.6 9.2 12.8 2.6 0 106.3c-3.1 .6-22.6 4.5-58.4 11.6-3.5 10.8-8 21.3-13.2 31.3l-18.2 0c8.1-14 14.5-29.1 18.9-45l54.9-11 0-80-54.9-11c-4.3-15.5-10.4-30.2-18.2-43.8L454 114.6 397.4 58 350.8 89.1c-13.7-7.8-28.4-13.9-43.8-18.2l-11-54.9-80 0-11 54.9c-15.5 4.3-30.2 10.4-43.8 18.2L114.6 58 58 114.6 89.1 161.2c-7.8 13.7-13.9 28.3-18.2 43.8l-54.9 11 0 80 54.9 11c4.3 15.5 10.4 30.2 18.2 43.8L58 397.4 114.6 454 161.2 422.9c9.8 5.6 20.1 10.2 30.8 14l0 16.8c-10.3-3.4-20.3-7.4-29.9-12.3-30.4 20.3-46.9 31.3-49.5 33.1l-75.2-75.2 7.3-10.9 25.8-38.7c-4.7-9.3-8.8-19-12.1-29l-45.5-9.1-12.9-2.6 0-106.3 12.8-2.6 45.5-9.2c3.3-10.1 7.4-19.7 12.1-29l-25.8-38.7-7.3-10.9 75.2-75.2 10.9 7.3 38.6 25.8c9.3-4.7 19-8.8 29.1-12.1l9.2-45.5 2.6-12.8 106.3 0 2.6 12.9zM256 352a96 96 0 1 1 0-192 96 96 0 1 1 0 192zm0-176a80 80 0 1 0 0 160 80 80 0 1 0 0-160z"/></svg>