<svg xmlns="http://www.w3.org/2000/svg" viewBox="0 0 512 512"><!--! Font Awesome Pro 7.2.0 by @fontawesome - https://fontawesome.com License - https://fontawesome.com/license (Commercial License) Copyright 2026 Fonticons, Inc. --><path fill="currentColor" d="M288.1 400c17.7 0 32 14.3 32 32l0 112-16 0 0-48-48 0 0 48-16 0 0-112c0-17.7 14.3-32 32-32l16 0zm120 0c26.5 0 48 21.5 48 48s-21.5 48-48 48l-24 0 0 48-16 0 0-144 40 0zm104 144l-16 0 0-144 16 0 0 144zm-240-128c-8.8 0-16 7.2-16 16l0 48 48 0 0-48c0-8.8-7.2-16-16-16l-16 0zm112 64l24 0c17.7 0 32-14.3 32-32s-14.3-32-32-32l-24 0 0 64zM331.7 79.5c14 6 27.2 13.7 39.3 22.7l92.6-30.7 56 97-73 64.8c.9 7.4 1.4 15 1.4 22.7 0 7.7-.5 15.2-1.4 22.7l73 64.8-4.9 8.5-18.5 0 3-5.2-63.2-56.2-6.2-5.6 1-8.3c.8-6.9 1.3-13.9 1.3-20.8 0-6.9-.5-13.9-1.3-20.8l-1-8.3 6.2-5.6 63.2-56.2-43-74.4-80.2 26.6-7.9 2.6-6.7-5c-11.1-8.3-23.2-15.3-36-20.8l-7.7-3.3-1.7-8.2-17-82.7-85.9 0-17.1 82.7-1.7 8.2-7.7 3.3c-12.9 5.5-25 12.6-36 20.8l-6.7 5-7.9-2.6-80.2-26.6-43 74.4 63.2 56.2 6.3 5.6-1 8.3c-.8 6.8-1.2 13.8-1.2 20.8 0 7 .4 13.9 1.2 20.8l1 8.3-6.3 5.6-63.2 56.2 43 74.4 80.2-26.6 7.9-2.6 6.7 5c12.6 9.4 26.5 17.2 41.4 23l0 17c-18.4-6.5-35.6-15.7-51-27.2l-92.6 30.7-56-97 72.9-64.8c-.9-7.4-1.3-15-1.3-22.7s.5-15.2 1.3-22.7l-72.9-64.8 56-97 92.6 30.7c12.1-9 25.3-16.7 39.3-22.7l19.7-95.5 112 0 19.7 95.5zM255.9 336a80 80 0 1 1 .1-160 80 80 0 1 1 -.1 160zm.1-144a64 64 0 1 0 -.1 128 64 64 0 1 0 .1-128z"/></svg>