<svg xmlns="http://www.w3.org/2000/svg" viewBox="0 0 576 512"><!--! Font Awesome Pro 7.2.0 by @fontawesome - https://fontawesome.com License - https://fontawesome.com/license (Commercial License) Copyright 2026 Fonticons, Inc. --><path fill="currentColor" d="M85 384c37.7 59.6 100.9 101.5 174.2 110.2-26.4-21.6-56.3-58.4-76.3-110.2l17.1 0c24.5 59.6 62.3 96.5 87.9 110.8 25.6-14.4 63.4-51.2 87.9-110.8l17.1 0c-20 51.8-49.9 88.6-76.3 110.2 73.4-8.7 136.6-50.6 174.3-110.2l18.7 0C465.4 460.5 382.7 512 288 512S110.6 460.5 66.3 384L85 384zM24 232.3c0 19.9 3.9 39.6 11.5 58l11.7 28.6 19-43.4c3.8-8.7 5.8-18 5.8-27.4l0-8 16 0 0 8c0 9.5 1.9 19 5.5 27.8l17.7 43.1 12-27.3c8.4-19.2 12.8-40 12.8-60.9l0-38.5 16 0 0 38.5c0 23.2-4.8 46.1-14.1 67.3l-14.6 33.3-2.1 4.8-20.2 0-2-4.9-19.2-46.7-20.4 46.8-2.1 4.8-20.2 0-2-4.9-14.3-34.7C12.3 276 8 254.3 8 232.3l0-40.3 16 0 0 40.3zm208 0c0 19.9 3.9 39.6 11.5 58l11.7 28.6 19-43.4c3.8-8.7 5.8-18 5.8-27.4l0-8 16 0 0 8c0 9.5 1.9 19 5.5 27.8l17.8 43.1 12-27.3c8.4-19.2 12.7-40 12.7-60.9l0-38.5 16 0 0 38.5c0 23.2-4.8 46.1-14.1 67.3l-14.6 33.3-2.1 4.8-20.2 0-2-4.9-19.2-46.7-20.4 46.8-2.1 4.8-20.2 0-2-4.9-14.3-34.7C220.3 276 216 254.3 216 232.3l0-40.3 16 0 0 40.3zm208 0c0 19.9 3.9 39.6 11.5 58l11.8 28.6 19-43.4c3.8-8.7 5.8-18 5.8-27.4l0-8 16 0 0 8c0 9.5 1.9 19 5.5 27.8l17.8 43.1 12-27.3c8.4-19.2 12.7-40 12.7-60.9l0-38.5 16 0 0 38.5c0 23.2-4.8 46.1-14.1 67.3l-14.6 33.3-2.1 4.8-20.2 0-2-4.9-19.2-46.7-20.4 46.8-2.1 4.8-20.2 0-2-4.9-14.3-34.7C428.3 276 424 254.3 424 232.3l0-40.3 16 0 0 40.3zM288 0c94.7 0 177.4 51.5 221.7 128L491 128C453.3 68.4 390.1 26.5 316.7 17.8 343.1 39.4 373 76.2 393 128l-17.1 0C351.5 68.3 313.6 31.5 288 17.2 262.4 31.5 224.5 68.3 200.1 128L183 128C203 76.2 232.8 39.4 259.3 17.8 185.9 26.5 122.7 68.4 85 128l-18.7 0C110.6 51.5 193.3 0 288 0z"/></svg>