<svg xmlns="http://www.w3.org/2000/svg" viewBox="0 0 640 512"><!--! Font Awesome Pro 7.2.0 by @fontawesome - https://fontawesome.com License - https://fontawesome.com/license (Commercial License) Copyright 2026 Fonticons, Inc. --><path fill="currentColor" d="M64 64l464 0 80 80 0 224-80 80-176 0 0 64-224 0 0-64-80 0 0-400-48 0 0-16 64 0 0 32zm80 432l192 0 0-48-192 0 0 48zM64 432l457.4 0 70.6-70.6 0-210.8-70.6-70.6-457.4 0 0 352zm352-48a128 128 0 1 1 0-256 128 128 0 1 1 0 256zm16-52.7l-35.1 35c6.2 1.1 12.6 1.7 19.1 1.7 27.9 0 53.4-10.2 73-27.1l-13.5-50.5-43.5-25.1 0 66.1zm-73.2-23.8l-48-12.9c11.5 31.3 36.6 56 68.1 67.1l37.1-37 0-50.2-57.2 33.1zM240 352l-112 0 0-16 112 0 0 16zM432 246.8l57.2 33 12.8 47.9c16.2-19.4 26-44.4 26-71.7 0-7.1-.7-14.1-2-20.8l-50.6-13.5-43.5 25.1zM329.9 184.3c-16.2 19.4-25.9 44.4-25.9 71.7 0 7.1 .7 14 1.9 20.7l50.6 13.6 43.5-25.1-57.2-33-12.8-47.9zM240 264l-112 0 0-16 112 0 0 16zM416 144c-27.9 0-53.4 10.2-73.1 27.1l13.6 50.6 43.5 25.1 0-66.1 35-35.1c-6.2-1.1-12.5-1.6-19-1.6zm0 43.3l0 50.2 57.2-33 47.9 12.8c-11.5-31.3-36.6-56-68.1-67.1l-37 37.1zM240 176l-112 0 0-16 112 0 0 16z"/></svg>