<svg xmlns="http://www.w3.org/2000/svg" viewBox="0 0 448 512"><!--! Font Awesome Pro 7.2.0 by @fontawesome - https://fontawesome.com License - https://fontawesome.com/license (Commercial License) Copyright 2026 Fonticons, Inc. --><path fill="currentColor" d="M223.3 35l95 120 4.2 5.3-4.6 5-171.4 187 90.8 114.7 10.3 13-247.5 0 0-448 220.9 0 2.4 3zM448 480l-139.3 0-12.7-16 135.9 0 0-416-137.3 0-12.7-16 165.9 0 0 448zM16 464l198.4 0-84.7-107-4.2-5.3 4.6-5 171.4-187-88.3-111.6-197.1 0 0 416zm368-48l-125.9 0-12.7-16 111 0-72.4-126.7 11.4-12.4 88.6 155.1zM128 208a48 48 0 1 1 0-96 48 48 0 1 1 0 96zm0-80a32 32 0 1 0 0 64 32 32 0 1 0 0-64z"/></svg>