<svg xmlns="http://www.w3.org/2000/svg" viewBox="0 0 576 512"><!--! Font Awesome Pro 7.2.0 by @fontawesome - https://fontawesome.com License - https://fontawesome.com/license (Commercial License) Copyright 2026 Fonticons, Inc. --><path fill="currentColor" d="M576 448l-576 0 0-384 576 0 0 384zM16 432l544 0 0-352-544 0 0 352zm432-80l-16 0 0-192 16 0 0 192zM120 296a40 40 0 1 1 0-80 40 40 0 1 1 0 80zm112 0a40 40 0 1 1 0-80 40 40 0 1 1 0 80zm112 0a40 40 0 1 1 0-80 40 40 0 1 1 0 80zM120 232a24 24 0 1 0 0 48 24 24 0 1 0 0-48zm112 0a24 24 0 1 0 0 48 24 24 0 1 0 0-48zm112 0a24 24 0 1 0 0 48 24 24 0 1 0 0-48z"/></svg>