<svg xmlns="http://www.w3.org/2000/svg" viewBox="0 0 640 512"><!--! Font Awesome Pro 7.2.0 by @fontawesome - https://fontawesome.com License - https://fontawesome.com/license (Commercial License) Copyright 2026 Fonticons, Inc. --><path fill="currentColor" d="M209.4 56.6l1.1 3.6 28 95.7 2.9 9.8 169.3 169.2 9.9 2.9 95.7 28 3.6 1.1 109.4 109.4-88.5 88.5-109.4-109.4-1.1-3.6-28-95.7-2.9-9.8-169.4-169.4-9.8-2.8-95.7-28-3.6-1.1-109.4-109.4 88.5-88.5 109.4 109.4zM445.4 447l95.2 95.2 65.9-65.9-95.2-95.2-93.1-27.2 27.2 93.1zM186.5 214.2C100 324.2 83.1 435.5 80.7 495.6 140.8 493.2 252.1 476.3 362 389.8l4.8 16.5C243.9 500.7 119.9 512 64.3 512 64.3 456.4 75.5 332.4 170 209.4l16.5 4.8zm60.3 47.4l-5.6 5.7c-18.7 18.7-18.7 49.1 0 67.9 18.7 18.7 49.1 18.7 67.9 0l5.6-5.7 11.3 11.3-5.6 5.7c-25 25-65.5 25-90.5 0-25-25-25-65.5 0-90.5l5.7-5.7 11.3 11.3zM576.3 0c0 55.6-11.2 179.5-105.7 302.5l-16.5-4.8c86.5-110 103.4-221.3 105.8-281.3-60.1 2.4-171.4 19.3-281.3 105.8l-4.8-16.5C396.7 11.2 520.7 0 576.3 0zM325.2 161.1c25.1-20.5 62.2-19 85.7 4.4 25 25 25 65.5 0 90.5l-5.7 5.7-11.3-11.3 5.7-5.7c18.7-18.7 18.7-49.1 0-67.9-18.7-18.7-49.1-18.7-67.9 0l-5.7 5.7-11.3-11.3 5.7-5.7 4.8-4.4zM34.1 35.7l95.2 95.2 93.1 27.2-27.2-93.1-95.2-95.2-65.9 65.9z"/></svg>