<svg xmlns="http://www.w3.org/2000/svg" viewBox="0 0 512 512"><!--! Font Awesome Pro 7.2.0 by @fontawesome - https://fontawesome.com License - https://fontawesome.com/license (Commercial License) Copyright 2026 Fonticons, Inc. --><path fill="currentColor" d="M255.5 0c70.7 0 128.5 57.9 128.5 128.6 0 10.8-1.4 21.7-4.1 32.3l-57 220.9c-1.9 7.5-2.9 15.1-2.9 22.8l0 3.4c0 48.6 39.4 88 88 88s88-39.4 88-88l0-56 16 0 0 56c0 57.4-46.6 104-104 104S304 465.4 304 408l0-3.4c0-9 1.1-18.1 3.4-26.8l57-220.9c2.4-9.2 3.6-18.7 3.6-28.3 0-61.9-50.7-112.6-112.5-112.6-61.3 0-111.5 49.7-111.5 111 0 15.4 3.2 30.6 9.4 44.7l69 156.8c6.3 14.4 9.6 30 9.6 45.8l0 1.8c0 61.9-50.1 112-112 112l-8 0 0-.3c-58.1-4.1-104-52.5-104-111.7 0-61.9 50.1-112 112-112 24.7 0 47.5 8 66 21.5L138.8 178.1C131.7 162 128 144.6 128 127 128 56.8 185.4 0 255.5 0zM120 280a96 96 0 1 0 0 192 96 96 0 1 0 0-192z"/></svg>