<svg xmlns="http://www.w3.org/2000/svg" viewBox="0 0 512 512"><!--! Font Awesome Pro 7.2.0 by @fontawesome - https://fontawesome.com License - https://fontawesome.com/license (Commercial License) Copyright 2026 Fonticons, Inc. --><path fill="currentColor" d="M512 448l-512 0 0-16 512 0 0 16zM256 32c97.2 0 176 78.8 176 176 0 22.6-4.3 44.2-12.1 64l92.1 0 0 16-116.8 0 5.4-11.4c9.9-20.8 15.4-44 15.4-68.6 0-88.4-71.6-160-160-160S96 119.6 96 208c0 24.6 5.5 47.8 15.4 68.6l5.4 11.4-116.8 0 0-16 92.1 0C84.3 252.2 80 230.6 80 208 80 110.8 158.8 32 256 32z"/></svg>