<svg xmlns="http://www.w3.org/2000/svg" viewBox="0 0 576 512"><!--! Font Awesome Pro 7.2.0 by @fontawesome - https://fontawesome.com License - https://fontawesome.com/license (Commercial License) Copyright 2026 Fonticons, Inc. --><path fill="currentColor" d="M400 544l-16 0 0-128 16 0 0 128zm147.3-72L536 483.3 444.7 392 456 380.7 547.3 472zM83.3 200l-5.7 5.7-27.5 27.6c-21.8 21.8-34.1 51.5-34.1 82.3 0 64.3 52.2 116.4 116.5 116.4 30.9 0 60.5-12.3 82.3-34.1l107-107 5.7-5.7 11.3 11.3-5.7 5.7-107 107C201.3 434.1 167.6 448 132.5 448 59.3 448 0 388.7 0 315.6 0 280.4 14 246.7 38.8 221.9l27.5-27.6 5.7-5.7 11.3 11.3zM443.5 64c73.1 0 132.5 59.3 132.5 132.4 0 35.1-14 68.8-38.8 93.7l-27.5 27.6-5.7 5.7-11.3-11.3 5.7-5.7 27.5-27.6c21.8-21.8 34.1-51.5 34.1-82.3 0-64.3-52.2-116.4-116.5-116.4-30.9 0-60.5 12.3-82.3 34.1l-107 107-5.7 5.7-11.3-11.3 5.7-5.7 107-107C374.7 77.9 408.4 64 443.5 64zM131.3 120L120 131.3 28.7 40 40 28.7 131.3 120zM192 96l-16 0 0-128 16 0 0 128z"/></svg>