<svg xmlns="http://www.w3.org/2000/svg" viewBox="0 0 512 512"><!--! Font Awesome Pro 7.2.0 by @fontawesome - https://fontawesome.com License - https://fontawesome.com/license (Commercial License) Copyright 2026 Fonticons, Inc. --><path fill="currentColor" d="M256.5 0c-35.7 0-69.6 7.4-100.5 20.6-.4 .2-.7 .3-1.1 .5-2.6 1.1-5.1 2.3-7.6 3.4-.6 .3-1.3 .6-1.9 .9-2 1-4 2-6 3-.7 .4-1.5 .7-2.2 1.1-2.4 1.3-4.8 2.6-7.2 4-14 8-27.1 17.2-39.3 27.6-.1 .1-.3 .3-.4 .4-8.9 7.6-17.3 15.8-25 24.5-.4 .4-.8 .9-1.2 1.3-2.1 2.3-4.1 4.7-6 7.1-.6 .7-1.2 1.5-1.8 2.2-17.4 21.8-31.3 46.6-40.8 73.3-.1 .4-.3 .8-.4 1.2-1.2 3.3-2.3 6.7-3.3 10.1-.2 .6-.4 1.1-.5 1.7-6.9 23.2-10.6 47.7-10.6 73.1 0 25.3 3.7 49.8 10.6 72.9 .2 .6 .4 1.2 .6 1.8 1 3.4 2.1 6.8 3.3 10.1 .1 .4 .3 .8 .4 1.3 1.3 3.5 2.6 7 4 10.5 .1 .2 .2 .4 .3 .5 4.6 11.1 9.9 21.8 15.9 32 .3 .6 .6 1.1 1 1.7 1.6 2.7 3.3 5.4 5 8.1 .3 .5 .7 1.1 1 1.6 6.5 9.9 13.8 19.4 21.6 28.3 .4 .4 .7 .8 1.1 1.3 2.3 2.6 4.6 5.1 7 7.5 .4 .4 .7 .7 1.1 1.1 5.4 5.6 11.1 10.9 17 15.9 .1 .1 .3 .3 .4 .4l0 0c12.2 10.4 25.3 19.6 39.3 27.6l0 0c.3 .2 .7 .4 1 .6 2.8 1.6 5.6 3.1 8.5 4.6 5 2.6 10.2 5 15.4 7.3 .4 .2 .7 .3 1.1 .5 30.9 13.2 64.8 20.7 100.6 20.7 46 0 89.2-12.2 126.5-33.5l-9.2-13.2c-34.7 19.5-74.7 30.6-117.3 30.6-19 0-37.6-2.3-55.3-6.5 86.1-38.7 147.1-123.5 151.1-223l.2-10.5c0-104.1-62.1-193.6-151.3-233.6 17.8-4.2 36.3-6.4 55.3-6.4 42.6 0 82.6 11.1 117.2 30.6L383 33.4C345.7 12.2 302.5 0 256.5 0zM176.6 29.8c93.2 33 159.9 121.8 159.9 226.2l-.2 9.8c-4 100.2-69.5 184.4-159.8 216.3-28.8-10.2-55-25.7-77.5-45.3-7.9-6.9-15.3-14.3-22.3-22.2-2.9-3.3-5.7-6.6-8.5-10.1-6.6-8.4-12.7-17.2-18.2-26.4-.3-.5-.6-1.1-.9-1.6-7.3-12.6-13.6-25.8-18.6-39.7-1.4-3.9-2.7-7.9-3.9-11.9-3.2-10.8-5.8-21.9-7.5-33.3L17.7 280c-.8-7.9-1.2-15.9-1.2-24s.4-16.1 1.2-24l1.5-11.7c1.7-11.4 4.2-22.5 7.4-33.3 .2-.6 .4-1.3 .6-1.9 2.1-6.9 4.6-13.7 7.3-20.4 0-.1 0-.1 .1-.2 2.8-6.8 5.9-13.3 9.3-19.8 7.6-14.5 16-26.9 24.3-37.4 10.2-12.8 20.7-23.5 30.8-32.3 20.3-17.7 43.6-32 69.1-42.1 2.8-1.1 5.7-2.1 8.5-3.2zM495.3 280c-6.3 63-36.8 118.7-82.2 157.8l9.2 13.2c49.5-42.1 82.7-102.6 89.1-171l-16.1 0zM413 74.1c45.4 39.1 76 94.9 82.2 157.9l16.1 0c-6.4-68.4-39.6-128.9-89.1-171L413 74.1z"/></svg>