<svg xmlns="http://www.w3.org/2000/svg" viewBox="0 0 512 512"><!--! Font Awesome Pro 7.2.0 by @fontawesome - https://fontawesome.com License - https://fontawesome.com/license (Commercial License) Copyright 2026 Fonticons, Inc. --><path fill="currentColor" d="M419.6 453.1c-38.6 32-86.7 52.8-139.4 57.7l0-16.1c48.3-4.8 92.4-23.9 128-53l11.4 11.4zM104.4 441.8c35.5 29.1 79.5 48.2 127.8 53l0 16c-52.6-4.9-100.6-25.7-139.2-57.7l11.4-11.4zM17.6 280c4.8 48.3 23.9 92.3 52.9 127.8L59.1 419.2C27.2 380.7 6.4 332.7 1.5 280l16.1 0zm493.6 0c-4.9 52.6-25.7 100.6-57.6 139.2l-11.4-11.4c29.1-35.5 48.2-79.5 52.9-127.8l16.1 0zM70.6 104.1c-29.1 35.6-48.2 79.6-53 127.9L1.5 232C6.4 179.3 27.2 131.2 59.2 92.7l11.4 11.4zM453.5 92.7c31.9 38.5 52.8 86.6 57.7 139.3l-16.1 0c-4.8-48.3-23.9-92.3-53-127.9l11.4-11.4zM280.2 1.1C332.9 6 381 26.8 419.5 58.8L408.2 70.2c-35.6-29.1-79.6-48.2-127.9-53l0-16.1zm-48 16.1C184 22 140.1 41.1 104.5 70.1L93.2 58.7C131.7 26.9 179.6 6.1 232.2 1.2l0 16.1z"/></svg>