<svg xmlns="http://www.w3.org/2000/svg" viewBox="0 0 512 512"><!--! Font Awesome Pro 7.2.0 by @fontawesome - https://fontawesome.com License - https://fontawesome.com/license (Commercial License) Copyright 2026 Fonticons, Inc. --><path fill="currentColor" d="M256 0C397.4 0 512 114.6 512 256S397.4 512 256 512L256 0zM95.4 434.3c31.2 28.1 69.8 48.2 112.6 56.8l0 16.2c-47.4-9-90.2-31-124.5-62.2l11.9-10.8zM272 495.4C397.1 487.2 496 383.2 496 256S397.1 24.8 272 16.6l0 478.8zM17.2 280c4.4 44.2 20.8 84.9 45.9 118.8L51.2 409.6C23.6 372.8 5.7 328.4 1.2 280l16.1 0zM63.1 113.2C38 147 21.6 187.7 17.2 232L1.2 232c4.5-48.4 22.4-92.9 50.1-129.7l11.9 10.8zM208 20.8c-42.8 8.7-81.4 28.7-112.6 56.8L83.5 66.8C117.8 35.6 160.6 13.6 208 4.6l0 16.2z"/></svg>