<svg xmlns="http://www.w3.org/2000/svg" viewBox="0 0 640 512"><!--! Font Awesome Pro 7.2.0 by @fontawesome - https://fontawesome.com License - https://fontawesome.com/license (Commercial License) Copyright 2026 Fonticons, Inc. --><path fill="currentColor" d="M326.9-36.1l67.5 112.6 127.3-31.9 13-3.2-3.2 13-31.9 127.3 112.6 67.5 11.4 6.9-11.4 6.9-112.6 67.5 31.9 127.3 3.2 13-13-3.3-127.3-31.9-67.5 112.6-6.9 11.4-6.9-11.4-67.5-112.6-127.3 31.9-13 3.3 3.3-13 31.9-127.3-112.6-67.5-11.4-6.9 11.4-6.9 112.6-67.5-31.9-127.3-3.3-13 13 3.2 127.3 31.9 67.5-112.6 6.9-11.4 6.9 11.4zM256.4 89.8l-3 5.1-5.8-1.4-120.2-30.1 30.1 120.2 1.4 5.7-5.1 3-106.2 63.7 106.2 63.7 5.1 3-1.4 5.8-30.1 120.2 120.2-30.1 5.8-1.4 3 5.1 63.7 106.2 63.7-106.2 3-5.1 5.8 1.4 120.2 30.1-30.1-120.2-1.4-5.8 5.1-3 106.2-63.7-106.2-63.7-5.1-3 1.4-5.7 30.1-120.2-120.2 30.1-5.8 1.4-3-5.1-63.7-106.3-63.7 106.3zM319.9 368a112 112 0 1 1 .1-224 112 112 0 1 1 -.1 224zm.1-208c-53 0-96 43-96 96s43 96 96 96c28.4 0 53.8-12.4 71.4-32-48.3-.3-87.4-39.6-87.4-88 0-28.7 13.7-54.1 34.9-70.2-6.1-1.2-12.4-1.8-18.9-1.8zm38.7 8.2c-23 12-38.7 36.1-38.7 63.8 0 39.8 32.2 72 72 72 4 0 7.9-.4 11.7-1.1 7.8-13.9 12.3-29.9 12.3-46.9 0-39.2-23.6-73-57.3-87.8z"/></svg>