<svg xmlns="http://www.w3.org/2000/svg" viewBox="0 0 512 512"><!--! Font Awesome Pro 7.2.0 by @fontawesome - https://fontawesome.com License - https://fontawesome.com/license (Commercial License) Copyright 2026 Fonticons, Inc. --><path fill="currentColor" d="M512 448l-512 0 0-384 512 0 0 384zM16 432l480 0 0-352-480 0 0 352zm432-48l-272 0 0-256 272 0 0 256zM128 368l-64 0 0-16 64 0 0 16zm64 0l112 0 0-224-112 0 0 224zm128 0l112 0 0-224-112 0 0 224zM128 304l-64 0 0-16 64 0 0 16zm120-96a16 16 0 1 1 0-32 16 16 0 1 1 0 32zm128 0a16 16 0 1 1 0-32 16 16 0 1 1 0 32z"/></svg>