<svg xmlns="http://www.w3.org/2000/svg" viewBox="0 0 640 512"><!--! Font Awesome Pro 7.2.0 by @fontawesome - https://fontawesome.com License - https://fontawesome.com/license (Commercial License) Copyright 2026 Fonticons, Inc. --><path fill="currentColor" d="M587.6 64l-11.3 11.3-32-32-192.4 192.4-15.7 133.3-.3 2.7-191.6 191.6-131.3-131.3 191.6-191.6 2.7-.3 133.2-15.7 192.4-192.4-32-32 11.3-11.3 75.3 75.3zM433.3 240.1l2.7 .3 191.6 191.6-131.3 131.3-142.1-142.1 11.3-11.3 130.7 130.8 108.7-108.7-176.4-176.4-25.8-3 14.4-14.4 16 1.9zM212 255.6L35.6 432 144.3 540.7 320.7 364.3 335.2 241.1 212 255.6zM139.6 0L107.6 32 261 185.4 240.8 187.8 96.3 43.3 64.3 75.3 53 64 128.3-11.3 139.6 0z"/></svg>