<svg xmlns="http://www.w3.org/2000/svg" viewBox="0 0 512 512"><!--! Font Awesome Pro 7.2.0 by @fontawesome - https://fontawesome.com License - https://fontawesome.com/license (Commercial License) Copyright 2026 Fonticons, Inc. --><path fill="currentColor" d="M512 448l-512 0 0-384 512 0 0 384zM16 432l480 0 0-352-480 0 0 352zM136 160c35.3 0 64 28.7 64 64l0 128-16 0 0-80-96 0 0 80-16 0 0-128c0-35.3 28.7-64 64-64zm176 0c30.9 0 56 25.1 56 56s-25.1 56-56 56l-56 0 0 80-16 0 0-192 72 0zM424 352l-16 0 0-192 16 0 0 192zM136 176c-26.5 0-48 21.5-48 48l0 32 96 0 0-32c0-26.5-21.5-48-48-48zm120 80l56 0c22.1 0 40-17.9 40-40s-17.9-40-40-40l-56 0 0 80z"/></svg>