<svg xmlns="http://www.w3.org/2000/svg" viewBox="0 0 512 512"><!--! Font Awesome Pro 7.2.0 by @fontawesome - https://fontawesome.com License - https://fontawesome.com/license (Commercial License) Copyright 2026 Fonticons, Inc. --><path fill="currentColor" d="M512 448l-512 0 0-384 512 0 0 384zM16 432l480 0 0-352-480 0 0 352zm88-80l-16 0 0-192 16 0 0 192zM224 160c30.9 0 56 25.1 56 56 0 22.9-13.8 42.5-33.5 51.2 20.1 12.8 33.5 35.2 33.5 60.8l0 24-16 0 0-24c0-30.9-25.1-56-56-56l-40 0 0 80-16 0 0-192 72 0zm168 0c30.9 0 56 25.1 56 56l0 8-16 0 0-8c0-22.1-17.9-40-40-40l-16 0c-22.1 0-40 17.9-40 40l0 80c0 22.1 17.9 40 40 40l16 0c22.1 0 40-17.9 40-40l0-8 16 0 0 8c0 30.9-25.1 56-56 56l-16 0c-30.9 0-56-25.1-56-56l0-80c0-30.9 25.1-56 56-56l16 0zM168 256l56 0c22.1 0 40-17.9 40-40s-17.9-40-40-40l-56 0 0 80z"/></svg>