<svg xmlns="http://www.w3.org/2000/svg" viewBox="0 0 320 512"><!--! Font Awesome Pro 7.2.0 by @fontawesome - https://fontawesome.com License - https://fontawesome.com/license (Commercial License) Copyright 2026 Fonticons, Inc. --><path fill="currentColor" d="M320 384l-.2 8.2C315.5 476.8 245.6 544 160 544S4.5 476.8 .2 392.2L0 384 0-32 320-32 320 384zM16 384c0 79.5 64.5 144 144 144s144-64.5 144-144l0-400-288 0 0 400zm144 48c8.8 0 16 7.2 16 16s-7.2 16-16 16-16-7.2-16-16 7.2-16 16-16zM80 352c8.8 0 16 7.2 16 16s-7.2 16-16 16-16-7.2-16-16 7.2-16 16-16zm80 0c8.8 0 16 7.2 16 16s-7.2 16-16 16-16-7.2-16-16 7.2-16 16-16zm80 0c8.8 0 16 7.2 16 16s-7.2 16-16 16-16-7.2-16-16 7.2-16 16-16zM80 304a16 16 0 1 1 0-32 16 16 0 1 1 0 32zm80 0a16 16 0 1 1 0-32 16 16 0 1 1 0 32zm80 0a16 16 0 1 1 0-32 16 16 0 1 1 0 32zm-80-80a96 96 0 1 1 0-192 96 96 0 1 1 0 192zm0-176a80 80 0 1 0 0 160 80 80 0 1 0 0-160zm0 112a32 32 0 1 1 0-64 32 32 0 1 1 0 64zm0-48a16 16 0 1 0 0 32 16 16 0 1 0 0-32z"/></svg>