<svg xmlns="http://www.w3.org/2000/svg" viewBox="0 0 640 512"><!--! Font Awesome Pro 7.2.0 by @fontawesome - https://fontawesome.com License - https://fontawesome.com/license (Commercial License) Copyright 2026 Fonticons, Inc. --><path fill="currentColor" d="M56 32c30.4 0 56.4 18.9 66.9 45.6 15-27.2 43.9-45.6 77.1-45.6 35.6 0 66.1 21.1 80 51.5 13.9-30.4 44.4-51.5 80-51.5 48.6 0 88 39.4 88 88l0 376 38.5 0 126.4-128-68.8 0 0-16 96 0 0 96-16 0 0-68.5-128.5 130.2-2.3 2.4-61.2 0 0-392c0-39.8-32.2-72-72-72s-72 32.2-72 72l0 360-16 0 0-360c0-39.8-32.2-72-72-72s-72 32.2-72 72l0 360-16 0 0-376c0-30.9-25.1-56-56-56l-24 0 0-16 24 0z"/></svg>