<svg xmlns="http://www.w3.org/2000/svg" viewBox="0 0 576 512"><!--! Font Awesome Pro 7.2.0 by @fontawesome - https://fontawesome.com License - https://fontawesome.com/license (Commercial License) Copyright 2026 Fonticons, Inc. --><path fill="currentColor" d="M296 544l-16 0 0-96 16 0 0 96zM157.9 397.4l-67.9 67.9-11.3-11.3 67.9-67.9 11.3 11.3zM497.3 454l-11.3 11.3-67.9-67.9 11.3-11.3 67.9 67.9zM288 392a136 136 0 1 1 0-272 136 136 0 1 1 0 272zm0-256a120 120 0 1 0 0 240 120 120 0 1 0 0-240zM96 264l-96 0 0-16 96 0 0 16zm480 0l-96 0 0-16 96 0 0 16zM157.9 114.6L146.6 125.9 78.7 58 90 46.7 157.9 114.6zM497.3 58l-67.9 67.9-11.3-11.3 67.9-67.9 11.3 11.3zM296 64l-16 0 0-96 16 0 0 96z"/></svg>