<svg xmlns="http://www.w3.org/2000/svg" viewBox="0 0 640 512"><!--! Font Awesome Pro 7.2.0 by @fontawesome - https://fontawesome.com License - https://fontawesome.com/license (Commercial License) Copyright 2026 Fonticons, Inc. --><path fill="currentColor" d="M464.1 320c38.7 0 71 27.5 78.4 64l1.6 0c35.3 0 64 28.7 64 64l0 64-320 0 0-72c0-39.8 32.2-72 72-72l30.7 0c12.3-28.2 40.5-48 73.3-48zm0 16c-27.8 0-51.6 17.8-60.4 42.7l-1.9 5.3-41.8 0c-30.9 0-56 25.1-56 56l0 56 288 0 0-48c0-26.5-21.5-48-48-48l-15.6 0-.8-7.1 8-.9 0 0-8 .9c-3.5-32-30.7-56.9-63.6-56.9zM326.9-36.1l67.5 112.6 127.3-31.9 13-3.2-3.2 13-31.9 127.3 112.6 67.5 11.4 6.9-11.4 6.9-65.7 39.3c-4.4-3.7-9.1-7.2-14-10.3l59.9-35.9-106.2-63.7-5.1-3 1.4-5.7 30.1-120.2-120.2 30.1-5.8 1.4-3-5.1-63.7-106.3-63.7 106.3-3 5.1-5.8-1.4-120.2-30.1 30.1 120.2 1.4 5.7-5.1 3-106.2 63.7 106.2 63.7 5.1 3-1.4 5.8-30.1 120.2 114.3-28.7c-.9 5.5-1.5 11.2-1.6 16.9l-121.8 30.5-13 3.3 3.3-13 31.9-127.3-112.6-67.5-11.4-6.9 11.4-6.9 112.6-67.5-31.9-127.3-3.3-13 13 3.2 127.3 31.9 67.5-112.6 6.9-11.4 6.9 11.4zM320.1 144c61.9 0 112 50.1 112 112 0 7-.7 13.9-1.9 20.5-6.2 1.7-12.2 3.9-18 6.5 2.5-8.6 3.9-17.6 3.9-27 0-53-43-96-96-96s-96 43-96 96c0 41 25.7 75.9 61.9 89.7l-.9 .7c-4.3 3.4-8.4 7.2-12.2 11.2-38.3-17.8-64.8-56.6-64.8-101.6 0-61.9 50.1-112 112-112z"/></svg>