<svg xmlns="http://www.w3.org/2000/svg" viewBox="0 0 640 512"><!--! Font Awesome Pro 7.2.0 by @fontawesome - https://fontawesome.com License - https://fontawesome.com/license (Commercial License) Copyright 2026 Fonticons, Inc. --><path fill="currentColor" d="M224.1 496a16 16 0 1 1 0-32 16 16 0 1 1 0 32zm160 0a16 16 0 1 1 0-32 16 16 0 1 1 0 32zm160 0a16 16 0 1 1 0-32 16 16 0 1 1 0 32zM326.9-36.1l67.5 112.6 127.3-31.9 13-3.2-22.1 22 0 0-120.2 30.1-5.8 1.4-3-5.1-63.7-106.3-63.7 106.3-3 5.1-5.8-1.4-120.2-30.1 30.1 120.2 1.4 5.7-5.1 3-106.2 63.7 106.2 63.7 5.1 3-1.4 5.8-30.1 120.2 0 0-22 22.1 3.3-13 31.9-127.3-112.6-67.5-11.4-6.9 11.4-6.9 112.6-67.5-31.9-127.3-3.3-13 13 3.2 127.3 31.9 67.5-112.6 6.9-11.4 6.9 11.4zM304.1 416a16 16 0 1 1 0-32 16 16 0 1 1 0 32zm160 0a16 16 0 1 1 0-32 16 16 0 1 1 0 32zm-80-80a16 16 0 1 1 0-32 16 16 0 1 1 0 32zm160 0a16 16 0 1 1 0-32 16 16 0 1 1 0 32zm-224-192c30.9 0 58.9 12.5 79.2 32.8l-11.3 11.3c-17.4-17.4-41.4-28.1-67.9-28.1-53 0-96 43-96 96 0 26.5 10.8 50.5 28.1 67.9l-11.3 11.3c-20.3-20.3-32.8-48.3-32.8-79.2 0-61.9 50.1-112 112-112zm144 112a16 16 0 1 1 0-32 16 16 0 1 1 0 32zm80-80a16 16 0 1 1 0-32 16 16 0 1 1 0 32z"/></svg>