<svg xmlns="http://www.w3.org/2000/svg" viewBox="0 0 640 512"><!--! Font Awesome Pro 7.2.0 by @fontawesome - https://fontawesome.com License - https://fontawesome.com/license (Commercial License) Copyright 2026 Fonticons, Inc. --><path fill="currentColor" d="M224.1 480l0 16-128 0 0-16 128 0zm384 0l0 16-336 0 0-16 336 0zm-64-80l-512 0 0-16 512 0 0 16zM326.9-36.1l67.5 112.6 127.3-31.9 13-3.2-3.2 13-31.9 127.3 112.6 67.5 11.4 6.9-11.4 6.9-95.4 57.1-31.1 0 .5-.3 106.2-63.7-106.2-63.7-5.1-3 1.4-5.7 30.1-120.2-120.2 30.1-5.8 1.4-3-5.1-63.7-106.3-63.7 106.3-3 5.1-5.8-1.4-120.2-30.1 30.1 120.2 1.4 5.7-5.1 3-106.2 63.7 106.2 63.7 .5 .3-31.1 0-95.3-57.1-11.4-6.9 11.4-6.9 112.6-67.5-31.9-127.3-3.3-13 13 3.2 127.3 31.9 67.5-112.6 6.9-11.4 6.9 11.4zM320.1 144c61.9 0 112 50.1 112 112 0 23.8-7.4 45.9-20.1 64l-20.4 0c15.2-17 24.5-39.4 24.5-64 0-53-43-96-96-96s-96 43-96 96c0 24.6 9.3 47 24.5 64l-20.4 0c-12.7-18.1-20.1-40.2-20.1-64 0-61.9 50.1-112 112-112z"/></svg>