<svg xmlns="http://www.w3.org/2000/svg" viewBox="0 0 576 512"><!--! Font Awesome Pro 7.2.0 by @fontawesome - https://fontawesome.com License - https://fontawesome.com/license (Commercial License) Copyright 2026 Fonticons, Inc. --><path fill="currentColor" d="M544.5 512l-512 0 0-16 512 0 0 16zM406.6 196.8l19.3 129.8 129.9 19.2 13.2 2-7.9 10.7-66.4 89.4-19.9 0 65.4-88.2-122.5-18.2-5.8-.8-.9-5.9-18.2-122.6-99.5 73.8-4.7 3.5-4.8-3.5-99.5-73.8-18.2 122.5-.8 5.8-5.9 .9-122.6 18.2 65.5 88.3-20 0-66.3-89.4-8-10.8 13.2-1.9 129.8-19.3 19.3-129.8 2-13.2 10.7 7.9 105.4 78.2 105.4-78.2 10.8-8 1.9 13.2zm-161 163.8c57.1-23.7 122.6 3.5 146.3 60.6 3.6 8.8 6.1 17.8 7.4 26.9l-16.3 0c-1.2-7-3.1-13.9-5.9-20.7-20.3-49-76.4-72.2-125.4-51.9-31.7 13.1-52.5 41.2-57.8 72.7l-16.3 0c5.5-37.8 30.2-71.8 68-87.5zM363.8 56l-11.3 11.3-56-56 0 180.7-16 0 0-180.7-56 56-11.3-11.3 75.3-75.3 75.3 75.3z"/></svg>