<svg xmlns="http://www.w3.org/2000/svg" viewBox="0 0 576 512"><!--! Font Awesome Pro 7.2.0 by @fontawesome - https://fontawesome.com License - https://fontawesome.com/license (Commercial License) Copyright 2026 Fonticons, Inc. --><path fill="currentColor" d="M384 304l64 208-16.7 0-59.1-192-296.4 0-59.1 192-16.8 0 64-208 320 0zM224 256a128 128 0 1 1 0-256 128 128 0 1 1 0 256zM563.3 120l-56 56 56 56-11.3 11.3-56-56-56 56-11.3-11.3 56-56-56-56 11.3-11.3 56 56 56-56 11.3 11.3zM224 16a112 112 0 1 0 0 224 112 112 0 1 0 0-224z"/></svg>