<svg xmlns="http://www.w3.org/2000/svg" viewBox="0 0 576 512"><!--! Font Awesome Pro 7.2.0 by @fontawesome - https://fontawesome.com License - https://fontawesome.com/license (Commercial License) Copyright 2026 Fonticons, Inc. --><path style="fill:var(--fa-secondary-color,currentColor);opacity:var(--fa-secondary-opacity,.4)" d="M296 48l0 416 200 0 0-416-200 0z"/><path style="fill:var(--fa-primary-color,currentColor);opacity:var(--fa-primary-opacity,1)" d="M64 96l16 0 0-48 200 0 0 416-200 0 0-48-16 0 0 64 448 0 0-448-448 0 0 64zM496 464l-200 0 0-416 200 0 0 416zM88 248l-80 0 0 16 80 0 0 80 16 0 0-80 80 0 0-16-80 0 0-80-16 0 0 80z"/></svg>