<svg xmlns="http://www.w3.org/2000/svg" viewBox="0 0 576 512"><!--! Font Awesome Pro 7.2.0 by @fontawesome - https://fontawesome.com License - https://fontawesome.com/license (Commercial License) Copyright 2026 Fonticons, Inc. --><path style="fill:var(--fa-secondary-color,currentColor);opacity:var(--fa-secondary-opacity,.4)" d="M20 192L44.9 80 531.2 80 556.1 192 20 192zM48 208l480 0 0 64-480 0 0-64z"/><path style="fill:var(--fa-primary-color,currentColor);opacity:var(--fa-primary-opacity,1)" d="M576 208l-32 0 0 240-16 0 0-160-480 0 0 160-16 0 0-240-32 0 32-144 512 0 32 144zM48 272l480 0 0-64-480 0 0 64zM20 192L556.1 192 531.2 80 44.9 80 20 192z"/></svg>