<svg xmlns="http://www.w3.org/2000/svg" viewBox="0 0 512 512"><!--! Font Awesome Pro 7.2.0 by @fontawesome - https://fontawesome.com License - https://fontawesome.com/license (Commercial License) Copyright 2026 Fonticons, Inc. --><path style="fill:var(--fa-secondary-color,currentColor);opacity:var(--fa-secondary-opacity,.4)" d="M48.3 48l200 0 0 416-200 0 0-416z"/><path style="fill:var(--fa-primary-color,currentColor);opacity:var(--fa-primary-opacity,1)" d="M480.3 128l-16 0 0-80-200 0 0 416 200 0 0-80 16 0 0 96-448 0 0-448 448 0 0 96zM48.3 464l200 0 0-416-200 0 0 416zM515.6 200l-56 56 56 56-11.3 11.3-56-56-56 56-11.3-11.3 56-56-56-56 11.3-11.3 56 56 56-56 11.3 11.3z"/></svg>