<svg xmlns="http://www.w3.org/2000/svg" viewBox="0 0 256 512"><!--! Font Awesome Pro 7.2.0 by @fontawesome - https://fontawesome.com License - https://fontawesome.com/license (Commercial License) Copyright 2026 Fonticons, Inc. --><path style="fill:var(--fa-secondary-color,currentColor);opacity:var(--fa-secondary-opacity,.4)" d="M54.9 256l89.4 89.4 0-178.8-89.4 89.4z"/><path style="fill:var(--fa-primary-color,currentColor);opacity:var(--fa-primary-opacity,1)" d="M9.7 233.4c-11.6 12.9-12.8 32.4 0 45.2l128 128c9.1 9.2 22.9 11.9 34.9 6.9l4.3-2.2c9.5-5.7 15.5-16.1 15.5-27.4l0-256-.3-4.8c-1.4-9.4-7-17.7-15.1-22.6l-4.3-2.2c-12-4.9-25.7-2.2-34.9 6.9l-128 128zm134.6-66.8l0 178.8-89.4-89.4 89.4-89.4z"/></svg>