<svg xmlns="http://www.w3.org/2000/svg" viewBox="0 0 512 512"><!--! Font Awesome Pro 7.2.0 by @fontawesome - https://fontawesome.com License - https://fontawesome.com/license (Commercial License) Copyright 2026 Fonticons, Inc. --><path fill="currentColor" d="M110.4 64c22.5 0 41.7 16.1 45.7 38.2l73.2 409.8 53.6 0 73.2-409.8c4-22.1 23.2-38.2 45.7-38.2 25.3 0 46.4 21.1 46.4 47 0 12.6-5 24.8-13.8 33.6l-15.7 15.7 45.3 45.2 15.7-15.7C500.4 168.9 512 140.3 512 111 512 50.3 462.9 0 401.6 0 348.2 0 302.4 38.3 293 91L256 298 219 91C209.6 38.3 163.8 0 110.4 0 49.1 0 0 50.3 0 111 0 140.3 11.6 168.9 32.6 189.8l15.7 15.7 45.2-45.2-15.7-15.7C69 135.8 64 123.6 64 111 64 85.1 85.1 64 110.4 64z"/></svg>