<svg xmlns="http://www.w3.org/2000/svg" viewBox="0 0 512 512"><!--! Font Awesome Pro 7.2.0 by @fontawesome - https://fontawesome.com License - https://fontawesome.com/license (Commercial License) Copyright 2026 Fonticons, Inc. --><path fill="currentColor" d="M64 86.7C110.9 33.6 179.5 0 256 0 397.4 0 512 114.6 512 256S397.4 512 256 512C155.9 512 69.2 454.5 27.2 370.9 46.3 361.3 65.3 351.7 84.3 342.2 116 405 181 448 256 448 362 448 448 362 448 256S362 64 256 64c-69.8 0-130.9 37.2-164.6 93.1l-.1 .2-.1 .2-32 51.4-59.2-16.9 0-192 64 0 0 86.7zM180 160c33.1 0 60 26.9 60 60 0 13.5-4.5 26-12.1 36 7.6 10 12.1 22.5 12.1 36 0 33.1-26.9 60-60 60l-52 0 0-48 52 0c6.6 0 12-5.4 12-12s-5.4-12-12-12l-44 0 0-48 44 0c6.6 0 12-5.4 12-12s-5.4-12-12-12l-52 0 0-48 52 0zm164 0c30.9 0 56 25.1 56 56l0 80c0 30.9-25.1 56-56 56l-16 0c-30.9 0-56-25.1-56-56l0-80c0-30.9 25.1-56 56-56l16 0zm-16 48c-4.4 0-8 3.6-8 8l0 80c0 4.4 3.6 8 8 8l16 0c4.4 0 8-3.6 8-8l0-80c0-4.4-3.6-8-8-8l-16 0z"/></svg>