<svg xmlns="http://www.w3.org/2000/svg" viewBox="0 0 512 512"><!--! Font Awesome Pro 7.2.0 by @fontawesome - https://fontawesome.com License - https://fontawesome.com/license (Commercial License) Copyright 2026 Fonticons, Inc. --><path fill="currentColor" d="M512 192l-59.2 16.9-32-51.4-.1-.2-.1-.2C386.9 101.2 325.8 64 256 64 150 64 64 150 64 256s86 192 192 192c75 0 140-43 171.7-105.8 19 9.6 38.1 19.2 57.2 28.7-42.1 83.6-128.7 141.1-228.8 141.1-141.4 0-256-114.6-256-256S114.6 0 256 0c76.5 0 145.1 33.6 192 86.7l0-86.7 64 0 0 192zM180 160c33.1 0 60 26.9 60 60 0 13.5-4.5 26-12.1 36 7.6 10 12.1 22.5 12.1 36 0 33.1-26.9 60-60 60l-52 0 0-48 52 0c6.6 0 12-5.4 12-12s-5.4-12-12-12l-44 0 0-48 44 0c6.6 0 12-5.4 12-12s-5.4-12-12-12l-52 0 0-48 52 0zm164 0c30.9 0 56 25.1 56 56l0 80c0 30.9-25.1 56-56 56l-16 0c-30.9 0-56-25.1-56-56l0-80c0-30.9 25.1-56 56-56l16 0zm-16 48c-4.4 0-8 3.6-8 8l0 80c0 4.4 3.6 8 8 8l16 0c4.4 0 8-3.6 8-8l0-80c0-4.4-3.6-8-8-8l-16 0z"/></svg>