<svg xmlns="http://www.w3.org/2000/svg" viewBox="0 0 512 512"><!--! Font Awesome Pro 7.2.0 by @fontawesome - https://fontawesome.com License - https://fontawesome.com/license (Commercial License) Copyright 2026 Fonticons, Inc. --><path fill="currentColor" d="M512 192l-59.2 16.9-32-51.4-.1-.2-.1-.2C386.9 101.2 325.8 64 256 64 150 64 64 150 64 256s86 192 192 192c75 0 140-43 171.7-105.8 19 9.6 38.1 19.2 57.2 28.7-42.1 83.6-128.7 141.1-228.8 141.1-141.4 0-256-114.6-256-256S114.6 0 256 0c76.5 0 145.1 33.6 192 86.7l0-86.7 64 0 0 192zM208 352l-48 0 0-129.2-18.7 9.4-21.5-42.9c11.7-5.9 31.2-15.6 58.5-29.3l29.7 0 0 192zM360 208l-72 0 0 24 20 0c33.1 0 60 26.9 60 60s-26.9 60-60 60l-68 0 0-48 68 0c6.6 0 12-5.4 12-12s-5.4-12-12-12l-68 0 0-120 120 0 0 48z"/></svg>