<svg xmlns="http://www.w3.org/2000/svg" viewBox="0 0 512 512"><!--! Font Awesome Pro 7.2.0 by @fontawesome - https://fontawesome.com License - https://fontawesome.com/license (Commercial License) Copyright 2026 Fonticons, Inc. --><path fill="currentColor" d="M272.1 72c0 48.6-39.4 88-88 88l-20.7 0 9.2 120.8 0 0c2.8 36.8 4.7 61.1 5.6 72.9l47.8-3.7c-.6-7.5-3.1-40.3-7.5-98.4 35.4-17.7 75.3-27.6 117.6-27.6 63.5 0 121.8 22.4 167.3 59.8l8.8 7.2 0 11.4-.1 161.7 0 22.5-22.4 1.5-360 24-.8 .1-.8 0c-70.7 0-128-57.3-128-128 0-97.9 12.2-189.4 24.4-256.3 6.1-33.5 12.2-60.9 16.8-80.1 2.3-9.6 4.2-17.1 5.6-22.2 .7-2.6 1.2-4.6 1.6-5.9 .2-.7 .3-1.2 .4-1.6 0-.2 .1-.3 .1-.4 0 0 0-.1 0-.1l0-.1 0 0 5-17.4 218.1 0 0 72z"/></svg>