<svg xmlns="http://www.w3.org/2000/svg" viewBox="0 0 512 512"><!--! Font Awesome Pro 7.2.0 by @fontawesome - https://fontawesome.com License - https://fontawesome.com/license (Commercial License) Copyright 2026 Fonticons, Inc. --><path fill="currentColor" d="M454.6 425l11.7 41.3c-23.6-6.7-59-16.7-106.2-30-12 47.6-21 83.3-27.1 107-17.1-17.5-42.8-43.9-77-79.1-34.2 35.2-59.9 61.5-76.9 79.1-6-23.8-15.1-59.4-27.2-107-47.2 13.4-82.6 23.4-106.2 30 8.6-30.2 14.8-52.3 18.8-66.3l383.1 0 7.1 25zM69.9 174.2l26.1 58.6 0-72.9 48 0 0 192-47.6 0-6.3-14.2-26.1-58.7 0 72.9-48 0 0-192 47.6 0 6.3 14.2zM312 208l-80 0 0 24 64 0 0 48-64 0 0 24 80 0 0 48-128 0 0-192 128 0 0 48zm72 56.9c0 5.2 1.1 10.4 3.1 15.2 6.3-9.4 11.7-17.5 16.1-24.1l25.7 0c4.4 6.7 9.8 14.7 16.1 24.1 2-4.8 3.1-10 3.1-15.2l0-104.9 48 0 0 104.9c0 13.6-3.2 27.1-9.3 39.3l-17.3 34.5-6.6 13.3-27.7 0c-3.9-5.9-10.3-15.5-19.2-28.7-8.8 13.2-15.2 22.8-19.2 28.7l-27.7 0-6.6-13.3-17.3-34.5c-6.1-12.2-9.3-25.7-9.3-39.3l0-104.9 48 0 0 104.9zM343.5 10.4l16.5 65.3c47.2-13.3 82.6-23.3 106.2-30-8.6 30.2-14.8 52.3-18.7 66.2l-383.1 0-7-25-11.7-41.3c23.6 6.7 59 16.7 106.2 30 12.1-47.6 21.1-83.2 27.1-107 17.1 17.6 42.7 44 76.9 79.1 34.2-35.2 59.9-61.5 77-79.1l10.5 41.6z"/></svg>