<svg xmlns="http://www.w3.org/2000/svg" viewBox="0 0 512 512"><!--! Font Awesome Pro 7.2.0 by @fontawesome - https://fontawesome.com License - https://fontawesome.com/license (Commercial License) Copyright 2026 Fonticons, Inc. --><path fill="currentColor" d="M408 152c57.4 0 104 46.6 104 104l-.3 13.2c-6.9 135.3-118.7 242.8-255.7 242.8-67.5 0-129-26.2-174.7-68.9 14.6-15.6 29.1-31.2 43.7-46.8 34.3 32.1 80.4 51.7 131 51.7 67.9 0 127.5-35.3 161.7-88.5-3.2 .3-6.4 .5-9.7 .5-57.4 0-104-46.6-104-104s46.6-104 104-104zM256 0c67.5 0 129 26.2 174.7 68.9-14.6 15.6-29.1 31.2-43.7 46.8-34.3-32.1-80.4-51.7-131-51.7-67.9 0-127.5 35.2-161.7 88.4 3.2-.3 6.4-.4 9.7-.4 57.4 0 104 46.6 104 104S161.4 360 104 360 0 313.4 0 256C0 254.1 0 252.2 .1 250.4 3.1 111.6 116.5 0 256 0zM104 216a40 40 0 1 0 0 80 40 40 0 1 0 0-80zm304 0a40 40 0 1 0 0 80 40 40 0 1 0 0-80z"/></svg>