<svg xmlns="http://www.w3.org/2000/svg" viewBox="0 0 640 512"><!--! Font Awesome Pro 7.2.0 by @fontawesome - https://fontawesome.com License - https://fontawesome.com/license (Commercial License) Copyright 2026 Fonticons, Inc. --><path fill="currentColor" d="M449.3 417.7l111.8 44.7c29.3-9.8 50.1-16.7 62.5-20.8l15.2 45.5c-9.6 3.2-35.9 12-79.1 26.4l-8.2-3.3-111.1-44.4-120 48-120-48-111.1 44.4-8.2 3.3C37.9 499.2 11.6 490.4 2 487.2l15.2-45.5c12.4 4.1 33.2 11 62.4 20.8l111.8-44.7 8.9-3.6 120 48 120-48 8.9 3.6zM608.4 320c0 34.1-13.4 65-35.1 87.9l-10.7 3.6-95.5-38.2-26.8-10.7-26.7 10.7-93.3 37.3-93.2-37.3-26.8-10.7-26.7 10.7-95.5 38.2-10.7-3.6c-21.7-22.9-35-53.9-35-87.9l0-96 96 64 384 0 96-64 0 96zm-368-192l144 112-224 0 0-112 80 0zm-32-32a48 48 0 1 1 0-96 48 48 0 1 1 0 96z"/></svg>