<svg xmlns="http://www.w3.org/2000/svg" viewBox="0 0 576 512"><!--! Font Awesome Pro 7.2.0 by @fontawesome - https://fontawesome.com License - https://fontawesome.com/license (Commercial License) Copyright 2026 Fonticons, Inc. --><path fill="currentColor" d="M32 32C72.6 32 108.8 51 132.2 80.5 158.6 50.7 197.1 32 240 32 319.5 32 384 96.5 384 176l0 65.2c18.8-10.9 40.7-17.2 64-17.2 70.7 0 128 57.3 128 128S518.7 480 448 480c-23.3 0-45.2-6.3-64-17.2l0 49.2-160 0 0-64 96 0 0-272c0-44.2-35.8-80-80-80s-80 35.8-80 80l0 240-64 0 0-256c0-35.3-28.7-64-64-64L0 96 0 32 32 32zM448 288a64 64 0 1 0 0 128 64 64 0 1 0 0-128z"/></svg>