<svg xmlns="http://www.w3.org/2000/svg" viewBox="0 0 576 512"><!--! Font Awesome Pro 7.2.0 by @fontawesome - https://fontawesome.com License - https://fontawesome.com/license (Commercial License) Copyright 2026 Fonticons, Inc. --><path fill="currentColor" d="M128 256c30.8 0 57.5 17.4 70.9 42.8 9.3-6.8 20.7-10.8 33.1-10.8 34.2 0 60.9 32 55.2 65.4 36.9 7.1 64.8 39.6 64.8 78.6l0 80-352 0 0-80c0-33.9 21.1-62.9 50.9-74.6-1.9-6.8-2.9-14-2.9-21.4 0-44.2 35.8-80 80-80zm272-80c32.9 0 61.1 19.9 73.4 48.2 2.2-.1 4.4-.2 6.6-.2 53 0 96 43 96 96l0 96-177.1 0c-5.2-41.7-30.4-77.2-65.8-96.5-6.7-27.7-24.4-51-48.3-65.1 10.4-7.8 23.1-12.9 36.8-14.1 7.3-36.7 39.6-64.3 78.4-64.3zM221.7 147.7c24.5-10.1 52.6 1.5 62.7 26 2.8 6.8 3.9 13.9 3.5 20.8-1 1.8-2 3.7-3 5.6-20.9 8.1-39 21.8-52.4 39.4-15.9-2.5-30.2-13-36.9-29-10.1-24.5 1.5-52.6 26-62.7zM253.3-24.7l47.3 70.4 83.3-16.3 23.3-4.5-4.5 23.3-15.8 80.7c-22.2 2.3-42.7 10.2-60 22.3-21.7-46.1-76-67.4-123.5-47.7-42.6 17.6-65.7 62.3-57.7 105.9-5.7-.8-11.6-1.2-17.6-1.2-25.8 0-49.8 7.6-69.8 20.7-25.8-17.4-44-29.6-54.6-36.7 4.7-3.1 34.7-23.4 90.1-60.6l-16.3-83.3-4.5-23.3 23.2 4.5 83.3 16.3 47.4-70.4 13.2-19.7 13.3 19.7z"/></svg>