<svg xmlns="http://www.w3.org/2000/svg" viewBox="0 0 640 512"><!--! Font Awesome Pro 7.2.0 by @fontawesome - https://fontawesome.com License - https://fontawesome.com/license (Commercial License) Copyright 2026 Fonticons, Inc. --><path fill="currentColor" d="M208.4 192c43.1 0 80.5 24.3 99.2 60 14.7-17.1 36.5-28 60.8-28 44.2 0 80 35.8 80 80l0 16c53 0 96 43 96 96l0 96-512 0 0-96c0-41.8 26.7-77.4 64-90.6l0-21.4c0-61.9 50.1-112 112-112zM413.7-24.7l47.3 70.4 83.3-16.3 23.3-4.5-4.5 23.2-16.3 83.3 70.4 47.4 19.7 13.2-19.7 13.2-70.4 47.3 14.5 73.9c-17.2-21.6-40.4-38.1-67.2-47.1-2.5-12.7-6.8-24.7-12.7-35.7 16.3-25.5 20.2-58.3 7.8-88.4-20.3-49-76.5-72.2-125.4-51.9-32 13.3-53 41.8-58.1 73.7-20.9-16-45.8-27-73-31.2l21.5-14.5c-12.8-65.5-19.8-101-20.8-106.5l23.3 4.5 83.3 16.3 47.4-70.4 13.3-19.7 13.3 19.7zM382 147.7c24.5-10.1 52.6 1.5 62.7 26 4 9.7 4.6 20 2.4 29.4-21.7-17-49-27.1-78.7-27.1-4.6 0-9.1 .2-13.5 .7 4.3-12.7 13.8-23.5 27.1-29z"/></svg>