<svg xmlns="http://www.w3.org/2000/svg" viewBox="0 0 640 512"><!--! Font Awesome Pro 7.2.0 by @fontawesome - https://fontawesome.com License - https://fontawesome.com/license (Commercial License) Copyright 2026 Fonticons, Inc. --><path fill="currentColor" d="M273.7 544l-50.6 0 37.3-112 50.6 0-37.3 112zm120 0l-50.6 0 37.3-112 50.6 0-37.3 112zm120 0l-50.6 0 37.3-112 50.6 0-37.3 112zM448.4 128c44.2 0 80 35.8 80 80 0 7.4-1 14.6-2.9 21.4 29.8 11.6 50.9 40.6 50.9 74.6l0 80-352 0 0-80c0-39 27.9-71.5 64.8-78.6-5.7-33.5 20.9-65.4 55.2-65.4 12.4 0 23.8 4 33.1 10.8 13.4-25.5 40.1-42.8 70.9-42.8zM253.7-24.7l47.3 70.4 83.3-16.3 23.3-4.5c-2.3 12.1-6.7 34.4-13.1 67.1-11.9 5.5-22.8 12.9-32.3 21.6-5.8-1-11.7-1.5-17.7-1.5-14.3 0-28 2.9-40.4 8.2-26.6-23.5-65.3-31.4-100.3-16.9-49 20.3-72.2 76.4-52 125.4 6.6 16 17.1 29.2 29.9 39.1-3.4 11.5-5.2 23.6-5.2 36.2l0 34.9-79.9 15.7-23.3 4.5 4.5-23.2 16.3-83.3-70.4-47.4-19.7-13.2c4.7-3.1 34.7-23.4 90.1-60.6l-16.3-83.2-4.5-23.3 23.3 4.5 83.3 16.3 47.4-70.4 13.3-19.7 13.2 19.7zM222 147.7c14.2-5.9 29.5-4.4 41.9 2.6-9.7 11.9-16.9 25.9-20.6 41.3-15 8.1-28.2 19.2-38.8 32.3-3.5-3.9-6.4-8.4-8.5-13.5-10.1-24.5 1.5-52.6 26-62.7z"/></svg>