<svg xmlns="http://www.w3.org/2000/svg" viewBox="0 0 640 512"><!--! Font Awesome Pro 7.2.0 by @fontawesome - https://fontawesome.com License - https://fontawesome.com/license (Commercial License) Copyright 2026 Fonticons, Inc. --><path fill="currentColor" d="M340.6-20.4L393 67.1c-23.9 11-45.4 26.5-63.3 45.3-3.2-.2-6.4-.3-9.6-.3-79.5 0-144 64.5-144 144s64.5 144 144 144c3.2 0 6.4-.2 9.6-.4 18 18.8 39.4 34.2 63.3 45.3-40.2 67.1-64.5 107.7-72.9 121.8-7.9-13.2-33.3-55.5-76.1-127-80.8 20.3-128.6 32.3-143.6 36 3.7-14.9 15.7-62.8 36-143.6-71.5-42.8-113.8-68.2-127-76.1 13.2-7.9 55.5-33.3 127-76.1-20.3-80.8-32.2-128.6-36-143.6 14.9 3.7 62.8 15.7 143.6 36 42.8-71.5 68.2-113.8 76.1-127l20.6 34.3zM480 416a160 160 0 1 1 0-320 160 160 0 1 1 0 320zM293.6 163.7c-13.8 27.8-21.6 59.1-21.6 92.3 0 33.1 7.8 64.4 21.5 92.2-40.1-11.5-69.5-48.4-69.5-92.2 0-43.8 29.4-80.8 69.6-92.3z"/></svg>