<svg xmlns="http://www.w3.org/2000/svg" viewBox="0 0 576 512"><!--! Font Awesome Pro 7.2.0 by @fontawesome - https://fontawesome.com License - https://fontawesome.com/license (Commercial License) Copyright 2026 Fonticons, Inc. --><path fill="currentColor" d="M579.4 262.4l-9.6 12.8c-16.1 19.6-33.6 37.3-52.7 53.4l52.1 90.2-41.6 24-49.3-85.5c-17.2 11.2-36.7 22.1-58.5 31.4l25.9 96.7-46.4 12.4-25-93.4c-19.4 5.2-40.1 9-62 10.6l0 97-48 0 0-97c-21.9-1.6-42.6-5.3-62-10.5l-25 93.3-46.4-12.4 25.9-96.7c-21.7-9.3-41.3-20.1-58.4-31.3l-49.3 85.4-41.6-24 52-90.2c-19.2-16.1-36.7-33.9-52.8-53.5L-3 262.4 48.2 224 57.8 236.7c0 0 22.3 29.1 61.2 57.4 40.5 29.4 98 57.9 169.2 57.9s128.7-28.4 169.2-57.9c39-28.3 61.3-57.4 61.3-57.4l9.6-12.7 51.2 38.4z"/></svg>