<svg xmlns="http://www.w3.org/2000/svg" viewBox="0 0 512 512"><!--! Font Awesome Pro 7.2.0 by @fontawesome - https://fontawesome.com License - https://fontawesome.com/license (Commercial License) Copyright 2026 Fonticons, Inc. --><path fill="currentColor" d="M388 496c0 28.7-23.3 52-52 52s-52-23.3-52-52l0-24 40 0 0 24c0 6.6 5.4 12 12 12s12-5.4 12-12l0-116 40 0 0 116zm120-76l-44 0c-6.6 0-12 5.4-12 12s5.4 12 12 12c28.7 0 52 23.3 52 52s-23.3 52-52 52l-52 0 0-40 52 0c6.6 0 12-5.4 12-12s-5.4-12-12-12c-28.7 0-52-23.3-52-52s23.3-52 52-52l44 0 0 40zM384 144l0 192-144 0 0 176-240 0 0-512 240 0 144 144zM208 176L325.5 176 208 58.5 208 176z"/></svg>