<svg xmlns="http://www.w3.org/2000/svg" viewBox="0 0 576 512"><!--! Font Awesome Pro 7.2.0 by @fontawesome - https://fontawesome.com License - https://fontawesome.com/license (Commercial License) Copyright 2026 Fonticons, Inc. --><path fill="currentColor" d="M196 548l-40 0 0-168 40 0 0 168zm84-168c24.3 0 44 19.7 44 44l0 16-40 0 0-16c0-2.2-1.8-4-4-4l-16 0c-2.2 0-4 1.8-4 4l0 80c0 2.2 1.8 4 4 4l16 0c2.2 0 4-1.8 4-4l0-16 40 0 0 16c0 24.3-19.7 44-44 44l-16 0c-24.3 0-44-19.7-44-44l0-80c0-24.3 19.7-44 44-44l16 0zm110.4 12.2l21.6 50.8 0-63 40 0 0 168-38.8 0-5.2-12.2-20-47.1 0 59.3-40 0 0-168 37.2 0 5.2 12.2zM572 420l-44 0c-6.6 0-12 5.4-12 12s5.4 12 12 12c28.7 0 52 23.3 52 52s-23.3 52-52 52l-52 0 0-40 52 0c6.6 0 12-5.4 12-12s-5.4-12-12-12c-28.7 0-52-23.3-52-52s23.3-52 52-52l44 0 0 40zM416 144l0 192-304 0 0 176-80 0 0-512 240 0 144 144zM240 176L357.5 176 240 58.5 240 176z"/></svg>