<svg xmlns="http://www.w3.org/2000/svg" viewBox="0 0 576 512"><!--! Font Awesome Pro 7.2.0 by @fontawesome - https://fontawesome.com License - https://fontawesome.com/license (Commercial License) Copyright 2026 Fonticons, Inc. --><path fill="currentColor" d="M164 444l24 0 0-64 40 0 0 168-40 0 0-64-24 0 0 64-40 0 0-168 40 0 0 64zm176-24l-32 0 0 128-40 0 0-128-32 0 0-40 104 0 0 40zm49.5-29.6l26.1 47.5 25.1-47.3 5.7-10.6 37.6 0 0 168-40 0 0-78.2c-5.7 10.8-15 28.2-27.7 52.2-13.1-23.9-22.6-41.1-28.3-51.5l0 77.4-40 0 0-168 35.8 0 5.7 10.4zM548 508l32 0 0 40-72 0 0-168 40 0 0 128zM416 144l0 192-336 0 0 176-48 0 0-512 240 0 144 144zM240 176L357.5 176 240 58.5 240 176z"/></svg>