<svg xmlns="http://www.w3.org/2000/svg" viewBox="0 0 576 512"><!--! Font Awesome Pro 7.2.0 by @fontawesome - https://fontawesome.com License - https://fontawesome.com/license (Commercial License) Copyright 2026 Fonticons, Inc. --><path fill="currentColor" d="M344 380c24.3 0 44 19.7 44 44l0 124-40 0 0-48-24 0 0 48-40 0 0-124c0-24.3 19.7-44 44-44l16 0zm120 0c33.1 0 60 26.9 60 60s-26.9 60-60 60l-12 0 0 48-40 0 0-168 52 0zM580 548l-40 0 0-168 40 0 0 168zM341.6 55c17.2 4.6 33.5 11.3 48.7 19.9l43.6-33.8 67.9 67.9-33.6 43.1c8.8 15.3 15.8 31.8 20.5 49.2l54.1 6.8 0 96-54.1 6.7c-2.4 8.7-5.3 17.1-8.7 25.3l-240 0 0 122.3c-19.8-4.7-38.6-12.1-55.8-22l-44.6 34.7-67.9-67.9 35-45.1c-8.3-14.7-14.8-30.5-19.3-47.1l-55.4-6.9-1.3-96 56.7-7.1c4.5-16.6 11.1-32.3 19.3-46.9l-35-45 67.9-67.9 44.6 34.7c14.8-8.5 30.7-15.3 47.5-20l7-55.8 96 0 6.8 55zM328 420c-2.2 0-4 1.8-4 4l0 36 24 0 0-36c0-2.2-1.8-4-4-4l-16 0zm124 40l12 0c11 0 20-9 20-20s-9-20-20-20l-12 0 0 40zM288 172c-46.4 0-84 37.6-84 84 0 11.3 2.3 22.1 6.3 32l155.3 0c4.1-9.9 6.4-20.7 6.4-32 0-46.4-37.6-84-84-84z"/></svg>