<svg xmlns="http://www.w3.org/2000/svg" viewBox="0 0 576 512"><!--! Font Awesome Pro 7.2.0 by @fontawesome - https://fontawesome.com License - https://fontawesome.com/license (Commercial License) Copyright 2026 Fonticons, Inc. --><path fill="currentColor" d="M344 380c24.3 0 44 19.7 44 44l0 124-40 0 0-48-24 0 0 48-40 0 0-124c0-24.3 19.7-44 44-44l16 0zm120 0c33.1 0 60 26.9 60 60s-26.9 60-60 60l-12 0 0 48-40 0 0-168 52 0zM580 548l-40 0 0-168 40 0 0 168zM328 420c-2.2 0-4 1.8-4 4l0 36 24 0 0-36c0-2.2-1.8-4-4-4l-16 0zm124 40l12 0c11 0 20-9 20-20s-9-20-20-20l-12 0 0 40zM363.7 79.5c14 6 27.2 13.7 39.3 22.7l92.6-30.7 56 97-73 64.8c.9 7.4 1.4 15 1.4 22.7 0 7.7-.5 15.2-1.4 22.7l64.5 57.3-303.1 0 0 105.9c-24.6-6.3-47.3-17.4-67-32.2l-92.6 30.7-56-97 72.9-64.8c-.9-7.4-1.3-15-1.3-22.7s.5-15.2 1.3-22.7l-72.9-64.8 56-97 92.6 30.7c12.1-9 25.3-16.7 39.3-22.7L232-16 344-16 363.7 79.5zM288 176c-44.2 0-80 35.8-80 80 0 11.4 2.4 22.2 6.7 32l146.6 0c4.3-9.8 6.7-20.6 6.7-32 0-44.2-35.8-80-80-80z"/></svg>