<svg xmlns="http://www.w3.org/2000/svg" viewBox="0 0 576 512"><!--! Font Awesome Pro 7.2.0 by @fontawesome - https://fontawesome.com License - https://fontawesome.com/license (Commercial License) Copyright 2026 Fonticons, Inc. --><path fill="currentColor" d="M363.3 384c-7.2 22.4-15.9 43.2-25.4 61.5-13 25-26.6 43.7-38.3 55.4-5.3 5.3-9.3 8.1-11.6 9.6-2.3-1.5-6.3-4.3-11.6-9.6-11.7-11.7-25.3-30.4-38.3-55.4-9.5-18.3-18.2-39-25.4-61.5l150.6 0zm-200.7 0c13.3 46.2 32.3 86.9 53 117.5-63.5-18.7-116.7-61.4-149.2-117.5l96.2 0zm347.1 0c-32.5 56.2-85.7 98.8-149.2 117.5 20.6-30.6 39.7-71.3 53-117.5l96.2 0zM36 227c0 16.8 3 33.4 8.9 49.2l3.1 8.2 7.7-20.4c2.9-7.7 4.3-15.8 4.3-24l0-20 40 0 0 20c0 8.2 1.5 16.3 4.3 24l7.7 20.4 3.1-8.2c5.9-15.7 8.9-32.4 8.9-49.2l0-55 40 0 0 55c0 21.6-3.9 43-11.5 63.2l-13.8 36.8-4.8 13-43.7 0c-3.2-8.5-6.5-17.5-10.1-27.1-3.6 9.6-7 18.6-10.1 27.1l-43.7 0-4.8-13-13.8-36.8C-.1 270-4 248.6-4 227l0-55 40 0 0 55zm208 0c0 16.8 3 33.4 8.9 49.2l3.1 8.2 7.7-20.4c2.9-7.7 4.3-15.8 4.3-24l0-20 40 0 0 20c0 8.2 1.5 16.3 4.3 24l7.7 20.4 3.1-8.2c5.9-15.7 8.9-32.4 8.9-49.2l0-55 40 0 0 55c0 21.6-3.9 43-11.5 63.2l-13.8 36.8-4.8 13-43.8 0c-3.2-8.5-6.5-17.5-10.1-27.1-3.6 9.6-7 18.6-10.1 27.1l-43.7 0-4.8-13-13.8-36.8C207.9 270 204 248.6 204 227l0-55 40 0 0 55zm208 0c0 16.8 3 33.4 8.9 49.2l3.1 8.2 7.7-20.4c2.9-7.7 4.3-15.8 4.3-24l0-20 40 0 0 20c0 8.2 1.5 16.3 4.3 24l7.7 20.4 3.1-8.2c5.9-15.7 8.9-32.4 8.9-49.2l0-55 40 0 0 55c0 21.6-3.9 43-11.5 63.2l-13.8 36.8-4.8 13-43.8 0c-3.2-8.5-6.5-17.5-10.1-27.1-3.6 9.6-7 18.6-10.1 27.1l-43.8 0-4.8-13-13.8-36.8C415.9 270 412 248.6 412 227l0-55 40 0 0 55zM215.6 10.4C194.9 41 175.8 81.8 162.6 128l-96.2 0C98.8 71.8 152 29.1 215.6 10.4zm72.4-9c2.3 1.5 6.3 4.3 11.6 9.6 11.7 11.7 25.3 30.4 38.3 55.4 9.5 18.3 18.1 39.1 25.4 61.5l-150.6 0c7.2-22.5 15.9-43.2 25.4-61.5 13-25 26.6-43.7 38.3-55.4 5.4-5.4 9.3-8.1 11.6-9.6zm72.4 9C424 29.1 477.2 71.8 509.7 128l-96.2 0c-13.3-46.2-32.4-87-53-117.6z"/></svg>