<svg xmlns="http://www.w3.org/2000/svg" viewBox="0 0 448 512"><!--! Font Awesome Pro 7.2.0 by @fontawesome - https://fontawesome.com License - https://fontawesome.com/license (Commercial License) Copyright 2026 Fonticons, Inc. --><path fill="currentColor" d="M266.5 152.5l-134.2 193.9-9.8 14.1 10.2 13.8 78.2 105.8-210.8 0 0-448 177.5 0 89 120.5zM448 32l0 448-177.5 0c-32.5-43.9-62.2-84.1-89.1-120.5 170.6-246.3 128.1-184.9 144-208L315.3 137.8 237.2 32 448 32zM240.5 358.6l42.4 57.4 117.1 0-93.8-152.3-65.8 94.9zM128 112a48 48 0 1 0 0 96 48 48 0 1 0 0-96z"/></svg>