<svg xmlns="http://www.w3.org/2000/svg" viewBox="0 0 640 512"><!--! Font Awesome Pro 7.2.0 by @fontawesome - https://fontawesome.com License - https://fontawesome.com/license (Commercial License) Copyright 2026 Fonticons, Inc. --><path fill="currentColor" d="M213 68.7l2.3 2.3 1.2 3.1 29.6 74.1 181.7 181.7 74.2 29.7 3.1 1.2 2.3 2.3 123.3 123.3-80.2 80.2-123.3-123.3-2.3-2.3-1.2-3.1-29.6-74-181.9-181.9-74-29.6-3.1-1.2-2.3-2.3-123.3-123.3 80.2-80.2 123.3 123.3zM185.2 222.9l39.2 39.2c-19.5 25.1-17.8 61.4 5.3 84.5 23.1 23.1 59.3 24.8 84.4 5.2l39.1 39.1 7.9 19.7C239.9 501.1 118.9 512 64.2 512 64.2 457.2 75 336.2 165.6 215l19.7 7.9zM576.2 0c0 54.8-10.9 175.8-101.4 296.9l-19.8-7.9-39-39c19.5-25.1 17.8-61.4-5.2-84.4-23.1-23.1-59.4-24.8-84.5-5.3l-39.1-39.1-7.9-19.8C400.4 10.9 521.4 0 576.2 0z"/></svg>