<svg xmlns="http://www.w3.org/2000/svg" viewBox="0 0 512 512"><!--! Font Awesome Pro 7.2.0 by @fontawesome - https://fontawesome.com License - https://fontawesome.com/license (Commercial License) Copyright 2026 Fonticons, Inc. --><path fill="currentColor" d="M512 448l-512 0 0-64 512 0 0 64zM256 32c97.2 0 176 78.8 176 176 0 16.6-2.4 32.7-6.7 48l86.7 0 0 64-160 0 0-54.4c10.1-16.8 16-36.4 16-57.6 0-61.9-50.1-112-112-112S144 146.1 144 208c0 21.1 5.9 40.7 16 57.6l0 54.4-160 0 0-64 86.8 0c-4.3-15.3-6.8-31.4-6.8-48 0-97.2 78.8-176 176-176z"/></svg>