<svg xmlns="http://www.w3.org/2000/svg" viewBox="0 0 576 512"><!--! Font Awesome Pro 7.2.0 by @fontawesome - https://fontawesome.com License - https://fontawesome.com/license (Commercial License) Copyright 2026 Fonticons, Inc. --><path fill="currentColor" d="M416 544l-64 0 0-112 64 0 0 112zm141.3-96l-45.3 45.3-78.6-78.6 45.2-45.2 78.6 78.6zm-432-224c-16.9 16.9-28.3 28.3-34.2 34.2-17.3 17.3-27.1 40.9-27.1 65.4 0 51 41.4 92.4 92.4 92.4 24.5 0 48-9.8 65.4-27.1 59.2-59.2 91.9-91.9 98.2-98.2L365.3 336c-6.3 6.3-39 39-98.2 98.2-29.3 29.3-69.2 45.8-110.7 45.8-86.4 0-156.4-70-156.4-156.4 0-41.5 16.5-81.3 45.8-110.7 5.9-5.8 17.3-17.2 34.2-34.2L125.2 224zM419.6 32c86.4 0 156.4 70 156.4 156.4 0 41.5-16.5 81.3-45.8 110.7l-11.6 11.5-22.6 22.6-45.3-45.3c16.9-16.9 28.3-28.3 34.2-34.2 17.3-17.3 27.1-40.9 27.1-65.4 0-51-41.4-92.4-92.4-92.4-24.5 0-48 9.8-65.4 27.1-59.2 59.2-91.9 91.9-98.2 98.2L210.8 176c6.3-6.3 39-39 98.2-98.2 29.3-29.3 69.2-45.8 110.7-45.8zM142.6 97.4L97.4 142.6 18.8 64 64 18.8 142.6 97.4zM224 80l-64 0 0-112 64 0 0 112z"/></svg>