<svg xmlns="http://www.w3.org/2000/svg" viewBox="0 0 640 512"><!--! Font Awesome Pro 7.2.0 by @fontawesome - https://fontawesome.com License - https://fontawesome.com/license (Commercial License) Copyright 2026 Fonticons, Inc. --><path fill="currentColor" d="M340.8-20.4l55.5 92.6c80.8-20.3 128.7-32.2 143.6-36-3.7 14.9-15.7 62.8-36 143.6 71.5 42.8 113.8 68.2 127 76.1-13.2 7.9-55.5 33.3-127 76.1 20.3 80.8 32.3 128.7 36 143.6-14.9-3.7-62.8-15.7-143.6-36-42.8 71.5-68.2 113.8-76.1 127-7.9-13.2-33.3-55.5-76.1-127-80.8 20.3-128.6 32.3-143.6 36 3.7-14.9 15.7-62.8 36-143.6-71.5-42.8-113.8-68.2-127-76.1 13.2-7.9 55.5-33.3 127-76.1-20.3-80.8-32.2-128.6-36-143.6 14.9 3.7 62.8 15.7 143.6 36 42.8-71.5 68.2-113.8 76.1-127l20.6 34.3zM320.2 112c-40.2 0-76.5 16.4-102.6 42.9-25.6 26-41.4 61.7-41.4 101.1 0 79.5 64.5 144 144 144 58.6 0 109.1-35.1 131.5-85.3 8-17.9 12.5-37.8 12.5-58.7 0-79.5-64.5-144-144-144zm0 48c13.8 0 26.9 2.9 38.7 8.1-23 12-38.7 36.1-38.7 63.9 0 39.8 32.2 72 72 72 4 0 7.9-.3 11.7-.9-16.5 29.2-47.8 48.9-83.7 48.9-53 0-96-43-96-96s43-96 96-96z"/></svg>