<svg xmlns="http://www.w3.org/2000/svg" viewBox="0 0 512 512"><!--! Font Awesome Pro 7.2.0 by @fontawesome - https://fontawesome.com License - https://fontawesome.com/license (Commercial License) Copyright 2026 Fonticons, Inc. --><path fill="currentColor" d="M512 448l-512 0 0-384 512 0 0 384zM48 400l96 0 0-48-96 0 0 48zm144 0l112 0 0-288-112 0 0 288zm160 0l112 0 0-288-112 0 0 288zM48 304l96 0 0-48-96 0 0 48zm200-96a24 24 0 1 1 0-48 24 24 0 1 1 0 48zm160 0a24 24 0 1 1 0-48 24 24 0 1 1 0 48z"/></svg>