<svg xmlns="http://www.w3.org/2000/svg" viewBox="0 0 640 512"><!--! Font Awesome Pro 7.2.0 by @fontawesome - https://fontawesome.com License - https://fontawesome.com/license (Commercial License) Copyright 2026 Fonticons, Inc. --><path fill="currentColor" d="M621.7 64l-45.3 45.3-32-32-195.1 195-13.2 98.9-1.1 8.1-182.7 182.7-137.9-137.9 182.7-182.7 8-1.1 98.9-13.2 195-195-32-32 45.2-45.2 109.3 109.2zm4.7 360L488.5 561.9 354.4 427.9c10.3-10.4 19.1-19.1 26.2-26.2 1.6-12.1 2.7-20.2 3.2-24.2l11-82.8 51.1-51.1 180.4 180.4zM173.7 0l-32 32 144.8 144.8-4.8 4.8-71.4 9.5-113.8-113.8-32 32-45.2-45.3 109.2-109.2 45.3 45.2z"/></svg>