<svg xmlns="http://www.w3.org/2000/svg" viewBox="0 0 640 512"><!--! Font Awesome Pro 7.2.0 by @fontawesome - https://fontawesome.com License - https://fontawesome.com/license (Commercial License) Copyright 2026 Fonticons, Inc. --><path fill="currentColor" d="M288.5 0c91.5 0 171.7 48 216.9 120.2 12.5 .7 24.5 3.2 35.7 7.2l17.4-17.4c18.7-18.7 49.1-18.7 67.9 0s18.7 49.1 0 67.9L612.3 192c7.8 16.4 12.2 34.7 12.2 54 0 27.3-8.8 53.8-25.2 75.6l-75.6 100.8-7.2 9.6-40 0c-5.2-6.9-9.2-12.3-12-16l-96 0 0-24c0-40.8-27.8-75-65.5-85-10.2-74-73.7-131-150.5-131l-24 0 0 48 24 0c57.4 0 104 46.6 104 104l0 24 24 0c22.1 0 40 17.9 40 40l0 24-32 0c-41.1 0-78.4-15.5-106.8-40.9l-32.1 35.7c36.8 33 85.5 53.1 138.8 53.1l223.6 0 0 48-223.6 0c-141.4 0-256-114.6-256-256S147.1 0 288.5 0zm208 208l-33.4-33.4c-27.4 12.1-46.6 39.5-46.6 71.4 0 16.9 5.5 33.3 15.6 46.8l44.4 59.2 40 0 44.4-59.2c10.1-13.5 15.6-29.9 15.6-46.8 0-31.9-19.2-59.3-46.6-71.4L496.5 208zm-32 52a20 20 0 1 1 0-40 20 20 0 1 1 0 40zm64 0a20 20 0 1 1 0-40 20 20 0 1 1 0 40zM434.4 110.1c-18.7-18.7-49.1-18.7-67.9 0s-18.7 49.1 0 67.9L380.6 192c14.2-29.9 39.8-53.3 71.2-64.6l-17.4-17.4z"/></svg>