<svg xmlns="http://www.w3.org/2000/svg" viewBox="0 0 576 512"><!--! Font Awesome Pro 7.2.0 by @fontawesome - https://fontawesome.com License - https://fontawesome.com/license (Commercial License) Copyright 2026 Fonticons, Inc. --><path fill="currentColor" d="M288.5-16c74.3 0 140.1 36.2 180.8 91.8 12.8-4.1 24.6-11.1 34.2-20.8l17-17 33.9 33.9-17 17c-12.6 12.6-27.6 22.5-43.8 29.1 12.1 27.5 18.9 57.9 18.9 89.9l0 320-232 0c-119.3 0-216-96.7-216-216l0-104c0-32 6.7-62.4 18.8-89.9-16.2-6.6-31.1-16.5-43.8-29.1l-17-17 33.9-33.9 17 17C83.1 64.7 94.8 71.8 107.6 75.9 148.4 20.2 214.2-16 288.5-16zm176 331.3c-25.5 22.8-59.1 36.7-96 36.7l-32 0 0 8c0 66.3 53.7 120 120 120l8 0 0-164.7zM443.2 128l-58.7 0c-39.8 0-72 32.2-72 72l0 56-48 0 0-56c0-37.3-28.3-68-64.7-71.7l-7.3-.3-58.8 0c-.7 0-1.3-.1-2-.1-12.3 24-19.2 51.2-19.2 80.1l.1 4.9c2.6 50.7 44.5 91.1 95.9 91.1l160 0c51.4 0 93.3-40.3 95.9-91.1l.1-4.9c0-28.8-7-56-19.3-80.1-.6 0-1.3 .1-1.9 .1zM192.5 216a24 24 0 1 1 0-48 24 24 0 1 1 0 48zm192 0a24 24 0 1 1 0-48 24 24 0 1 1 0 48z"/></svg>