<svg xmlns="http://www.w3.org/2000/svg" viewBox="0 0 448 512"><!--! Font Awesome Pro 7.2.0 by @fontawesome - https://fontawesome.com License - https://fontawesome.com/license (Commercial License) Copyright 2026 Fonticons, Inc. --><path fill="currentColor" d="M417.5 44.7L405.6 55.6c-1.4 1.3-22 21.1-42.4 54.2-17.9 29.1-35.4 68-41.2 114.2l126 0 0 64-126 0c5.8 46.2 23.3 85.1 41.2 114.2 20.4 33.1 41 52.9 42.4 54.2l11.8 10.8-43.3 47.2-11.8-10.8c-2.9-2.7-28.3-26.7-53.6-67.8-22.3-36.2-45-86.6-51.1-147.8l-67.3 0c-6.1 61.1-28.8 111.6-51.1 147.8-25.3 41.1-50.7 65.1-53.6 67.8l-11.8 10.8-43.3-47.2 11.8-10.8c1.4-1.3 22-21.1 42.4-54.2 17.9-29.1 35.4-68 41.2-114.2l-126 0 0-64 126 0c-5.8-46.2-23.3-85.1-41.2-114.2-20.4-33.1-41-52.9-42.4-54.2L30.6 44.7 73.8-2.4 85.6 8.4c2.9 2.7 28.3 26.7 53.6 67.8 22.3 36.2 45 86.6 51.1 147.8l67.3 0c6.1-61.1 28.8-111.6 51.1-147.8 25.3-41.1 50.7-65.1 53.6-67.8l11.8-10.8 43.3 47.2z"/></svg>