<svg xmlns="http://www.w3.org/2000/svg" viewBox="0 0 512 512"><!--! Font Awesome Pro 7.2.0 by @fontawesome - https://fontawesome.com License - https://fontawesome.com/license (Commercial License) Copyright 2026 Fonticons, Inc. --><path fill="currentColor" d="M512 448l-512 0 0-384 512 0 0 384zM251.4 128l-39.1 254.3-.2 1.7 48.6 0 39.1-254.3 .2-1.7-48.6 0zM64 352l48 0 0-72.9 26.1 58.7 6.3 14.2 47.6 0 0-192-48 0 0 72.9-26.1-58.6-6.3-14.2-47.6 0 0 192zM384 160c-35.3 0-64 28.7-64 64l0 128 48 0 0-48 32 0 0 48 48 0 0-128c0-35.3-28.7-64-64-64zm0 48c8.8 0 16 7.2 16 16l0 32-32 0 0-32c0-8.8 7.2-16 16-16z"/></svg>