<svg xmlns="http://www.w3.org/2000/svg" viewBox="0 0 512 512"><!--! Font Awesome Pro 7.2.0 by @fontawesome - https://fontawesome.com License - https://fontawesome.com/license (Commercial License) Copyright 2026 Fonticons, Inc. --><path fill="currentColor" d="M512 448l-512 0 0-384 512 0 0 384zM72 352l48 0 0-192-48 0 0 192zm88-192l0 192 48 0 0-56 8 0c13.3 0 24 10.7 24 24l0 32 48 0 0-32c0-17.9-6.6-34.2-17.3-46.8 10.7-12 17.3-27.8 17.3-45.2 0-37.6-30.4-68-68-68l-60 0zm216 0c-30.9 0-56 25.1-56 56l0 80c0 30.9 25.1 56 56 56l16 0c30.9 0 56-25.1 56-56l0-24-48 0 0 24c0 4.4-3.6 8-8 8l-16 0c-4.4 0-8-3.6-8-8l0-80c0-4.4 3.6-8 8-8l16 0c4.4 0 8 3.6 8 8l0 24 48 0 0-24c0-30.9-25.1-56-56-56l-16 0zM220 208c11 0 20 9 20 20s-9 20-20 20l-12 0 0-40 12 0z"/></svg>