<svg xmlns="http://www.w3.org/2000/svg" viewBox="0 0 640 512"><!--! Font Awesome Pro 7.2.0 by @fontawesome - https://fontawesome.com License - https://fontawesome.com/license (Commercial License) Copyright 2026 Fonticons, Inc. --><path fill="currentColor" d="M64 32c27 0 51.3 11.1 68.7 29 19.9-18.1 46.3-29 75.3-29 31.3 0 59.7 12.9 80 33.7 20.3-20.8 48.6-33.7 80-33.7 61.9 0 112 50.1 112 112l0 304 20.3 0 56.2-57.5-38.5-38.5 121.9 0 0 121.9-38.2-38.2-65.1 66.7-9.4 9.6-111.3 0 0-368c0-26.5-21.5-48-48-48s-48 21.5-48 48l0 336-64 0 0-336c0-26.5-21.5-48-48-48s-48 21.5-48 48l0 336-64 0 0-352c0-17.7-14.3-32-32-32l-32 0 0-64 32 0z"/></svg>