<svg xmlns="http://www.w3.org/2000/svg" viewBox="0 0 640 512"><!--! Font Awesome Pro 7.2.0 by @fontawesome - https://fontawesome.com License - https://fontawesome.com/license (Commercial License) Copyright 2026 Fonticons, Inc. --><path fill="currentColor" d="M224.2 512a32 32 0 1 1 0-64 32 32 0 1 1 0 64zm160 0a32 32 0 1 1 0-64 32 32 0 1 1 0 64zm160 0a32 32 0 1 1 0-64 32 32 0 1 1 0 64zM340.8-20.4l55.5 92.6C477.1 52 525 40 539.9 36.3L422 154.2c-26.1-26.1-62.1-42.2-101.8-42.2-79.5 0-144 64.5-144 144 0 39.8 16.1 75.8 42.2 101.8L100.5 475.7c3.7-14.9 15.7-62.8 36-143.6-71.5-42.8-113.8-68.2-127-76.1 13.2-7.9 55.5-33.3 127-76.1-20.3-80.8-32.2-128.6-36-143.6 14.9 3.7 62.8 15.7 143.6 36 42.8-71.5 68.2-113.8 76.1-127l20.6 34.3zM304.2 432a32 32 0 1 1 0-64 32 32 0 1 1 0 64zm160 0a32 32 0 1 1 0-64 32 32 0 1 1 0 64zm-80-80a32 32 0 1 1 0-64 32 32 0 1 1 0 64zm160 0a32 32 0 1 1 0-64 32 32 0 1 1 0 64zm-224-192c26.5 0 50.5 10.8 67.9 28.1L252.3 323.9c-17.4-17.4-28.1-41.4-28.1-67.9 0-53 43-96 96-96zm144 112a32 32 0 1 1 0-64 32 32 0 1 1 0 64zm80-80a32 32 0 1 1 0-64 32 32 0 1 1 0 64z"/></svg>