<svg xmlns="http://www.w3.org/2000/svg" viewBox="0 0 640 512"><!--! Font Awesome Pro 7.2.0 by @fontawesome - https://fontawesome.com License - https://fontawesome.com/license (Commercial License) Copyright 2026 Fonticons, Inc. --><path fill="currentColor" d="M448.2 320c39.5 0 72.4 28.7 78.8 66.3 5.5-1.5 11.2-2.3 17.2-2.3 35.3 0 64 28.7 64 64l0 64-320 0 0-72c0-39.8 32.2-72 72-72 4.8 0 9.5 .5 14.1 1.4 12-29 40.6-49.4 73.9-49.4zM340.8-20.4l55.5 92.6c80.8-20.3 128.7-32.2 143.6-36-3.7 14.9-15.7 62.8-36 143.6 71.5 42.8 113.8 68.2 127 76.1-19.2 11.5-49.5 29.7-91.1 54.6-20-20.4-46.7-34.2-76.6-37.7 .7-5.6 1-11.2 1-16.9 0-79.5-64.5-144-144-144s-144 64.5-144 144c0 55.7 31.6 104 77.9 127.9-8.9 16.7-13.9 35.8-13.9 56.1l0 .7c-77.6 19.5-124.1 31.2-139.7 35 3.7-14.9 15.7-62.8 36-143.6-71.5-42.8-113.8-68.2-127-76.1 13.2-7.9 55.5-33.3 127-76.1-20.3-80.8-32.2-128.6-36-143.6 14.9 3.7 62.8 15.7 143.6 36 42.8-71.5 68.2-113.8 76.1-127l20.6 34.3zM320.2 160c53 0 96 43 96 96 0 7.1-.8 14-2.3 20.7-26.4 7.4-49.4 23-66 43.9-23.2 2.4-44.4 11.4-61.8 25-36.2-13.8-61.9-48.7-61.9-89.7 0-53 43-96 96-96z"/></svg>