<svg xmlns="http://www.w3.org/2000/svg" viewBox="0 0 640 512"><!--! Font Awesome Pro 7.2.0 by @fontawesome - https://fontawesome.com License - https://fontawesome.com/license (Commercial License) Copyright 2026 Fonticons, Inc. --><path fill="currentColor" d="M224.2 464l0 48-128 0 0-48 128 0zm384 0l0 48-336 0 0-48 336 0zm-64-48l-512 0 0-48 512 0 0 48zM340.8-20.4l55.5 92.6c80.8-20.3 128.7-32.2 143.6-36-3.7 14.9-15.7 62.8-36 143.6 71.5 42.8 113.8 68.2 127 76.1-16.5 9.9-52.2 31.3-106.8 64l-74.8 0c9.6-19.3 15-41 15-64 0-79.5-64.5-144-144-144s-144 64.5-144 144c0 23 5.4 44.7 15 64l-74.8 0c-54.7-32.7-90.3-54.1-106.8-64 13.2-7.9 55.5-33.3 127-76.1-20.3-80.8-32.2-128.6-36-143.6 14.9 3.7 62.8 15.7 143.6 36 42.8-71.5 68.2-113.8 76.1-127l20.6 34.3zM320.2 160c53 0 96 43 96 96 0 24.6-9.3 47-24.5 64l-143.1 0c-15.2-17-24.5-39.4-24.5-64 0-53 43-96 96-96z"/></svg>