<svg xmlns="http://www.w3.org/2000/svg" viewBox="0 0 576 512"><!--! Font Awesome Pro 7.2.0 by @fontawesome - https://fontawesome.com License - https://fontawesome.com/license (Commercial License) Copyright 2026 Fonticons, Inc. --><path fill="currentColor" d="M544.1 512l-512 0 0-48 512 0 0 48zM412.8 216.6l15.8 106.8c82.4 12.2 131.3 19.5 146.5 21.7-15.1 20.4-32.6 44-52.6 70.9l-98.7 0c-.8-2.4-1.7-4.7-2.7-7.1-30.4-73.5-114.7-108.4-188.2-77.9-39.3 16.3-67.5 47.9-80.6 85l-98.7 0c-20-26.9-37.5-50.5-52.6-70.9 15.2-2.3 64-9.5 146.4-21.7 12.3-82.4 19.5-131.2 21.8-146.4 12.3 9.1 52 38.5 118.9 88.2 66.9-49.6 106.6-79 118.9-88.2l5.9 39.6zM251.3 375.3c45.1-18.7 96.1-.5 119.8 40.7l-166.1 0c10.2-17.7 26-32.3 46.3-40.7zM386 72l-33.9 33.9-40-40 0 126.1-48 0 0-126.1-40 40-33.9-33.9 97.9-97.9 97.9 97.9z"/></svg>