<svg xmlns="http://www.w3.org/2000/svg" viewBox="0 0 576 512"><!--! Font Awesome Pro 7.2.0 by @fontawesome - https://fontawesome.com License - https://fontawesome.com/license (Commercial License) Copyright 2026 Fonticons, Inc. --><path fill="currentColor" d="M64.4 128l64 0 0-32 128 0 0 320-128 0 0-32-64 0 0 96 448 0 0-448-448 0 0 96zm384 288l-128 0 0-320 128 0 0 320zM11.5 205.1l50.9 50.9-50.9 50.9 33.9 34 50.9-50.9 50.9 50.9 33.9-34-50.9-50.9 50.9-50.9-33.9-33.9-50.9 50.9-50.9-50.9-34 33.9z"/></svg>