<svg xmlns="http://www.w3.org/2000/svg" viewBox="0 0 448 512"><!--! Font Awesome Pro 7.2.0 by @fontawesome - https://fontawesome.com License - https://fontawesome.com/license (Commercial License) Copyright 2026 Fonticons, Inc. --><path fill="currentColor" d="M448 480l-448 0 0-448 448 0 0 448zM64 416l128 0 0-64-128 0 0 64zm192 0l128 0 0-64-128 0 0 64zM160 288l32 0 0-64-32 0 0 64zm192 0l32 0 0-64-32 0 0 64zm-96 0l32 0 0-64-32 0 0 64zM64 288l32 0 0-64-32 0 0 64zm0-128l128 0 0-64-128 0 0 64zm192 0l128 0 0-64-128 0 0 64z"/></svg>