<svg xmlns="http://www.w3.org/2000/svg" viewBox="0 0 448 512"><!--! Font Awesome Pro 7.2.0 by @fontawesome - https://fontawesome.com License - https://fontawesome.com/license (Commercial License) Copyright 2026 Fonticons, Inc. --><path fill="currentColor" d="M96 480l0-64-32 0 0-128 320 0 0 128-32 0 0 64 96 0 0-448-448 0 0 448 96 0zM384 96l0 128-320 0 0-128 320 0zM173.1 532.9l50.9-50.9 50.9 50.9 34-33.9-50.9-50.9 50.9-50.9-34-33.9-50.9 50.9-50.9-50.9-33.9 33.9 50.9 50.9-50.9 50.9 33.9 34z"/></svg>