<svg xmlns="http://www.w3.org/2000/svg" viewBox="0 0 576 512"><!--! Font Awesome Pro 7.2.0 by @fontawesome - https://fontawesome.com License - https://fontawesome.com/license (Commercial License) Copyright 2026 Fonticons, Inc. --><path fill="currentColor" d="M288.3 96c35.3 0 64 28.7 64 64 0 23.7-12.9 44.3-32 55.3l0 296.7-64 0 0-296.7c-19.1-11.1-32-31.7-32-55.3 0-35.3 28.7-64 64-64zM133.4 1.7c32 44.6 50.9 99.2 50.9 158.3 0 59.1-18.9 113.7-50.9 158.3L91.5 294.4c28.1-37.4 44.8-84 44.8-134.4S119.6 63 91.5 25.6L133.4 1.7zM485.1 25.6C457 63 440.3 109.6 440.3 160s16.7 96.9 44.8 134.4l-41.9 23.9c-32-44.6-50.9-99.2-50.9-158.3 0-59.1 18.9-113.7 50.9-158.3l41.9 23.9zM49.4 49.7C73.7 79.8 88.3 118.2 88.3 160S73.7 240.1 49.4 270.3L7 246.1c20.7-22.7 33.3-52.9 33.3-86.1S27.7 96.6 7 73.9L49.4 49.7zM569.6 73.9c-20.7 22.7-33.3 53-33.3 86.1s12.6 63.4 33.3 86.1l-42.4 24.2c-24.3-30.2-38.9-68.5-38.9-110.3s14.6-80.2 38.9-110.3l42.4 24.2z"/></svg>