<svg xmlns="http://www.w3.org/2000/svg" viewBox="0 0 512 512"><!--! Font Awesome Pro 7.2.0 by @fontawesome - https://fontawesome.com License - https://fontawesome.com/license (Commercial License) Copyright 2026 Fonticons, Inc. --><path fill="currentColor" d="M336.4 96l16 0 96 96 0 320-384 0 0-416 48 0 0-96 224 0 0 96zM310.5 248l-108.1 0-41.9-41.9-33.9 33.9 41.9 41.9 0 76.1-41.9 41.9 33.9 33.9 41.9-41.9 108.1 0 41.9 41.9 33.9-33.9-41.9-41.9 0-76.1 41.9-41.9-33.9-33.9-41.9 41.9zm-14.1 96l-80 0 0-48 80 0 0 48zM514.4 128l-33.9 33.9-97.9-97.9 33.9-33.9 97.9 97.9zM160.4 96l128 0 0-48-128 0 0 48z"/></svg>