<svg xmlns="http://www.w3.org/2000/svg" viewBox="0 0 640 512"><!--! Font Awesome Pro 7.2.0 by @fontawesome - https://fontawesome.com License - https://fontawesome.com/license (Commercial License) Copyright 2026 Fonticons, Inc. --><path fill="currentColor" d="M64 32c27 0 51.3 11.1 68.7 29 19.9-18.1 46.3-29 75.3-29 31.3 0 59.7 12.9 80 33.7 20.3-20.8 48.6-33.7 80-33.7 61.9 0 112 50.1 112 112l0 26.8c14.5-6.9 30.8-10.8 48-10.8 61.9 0 112 50.1 112 112S589.9 384 528 384l-48 0 0 64 64 0 0 64-128 0 0-128-48 0 0-64 48 0 0-176c0-26.5-21.5-48-48-48s-48 21.5-48 48l0 336-64 0 0-336c0-26.5-21.5-48-48-48s-48 21.5-48 48l0 336-64 0 0-352c0-17.7-14.3-32-32-32l-32 0 0-64 32 0zM528 224c-26.5 0-48 21.5-48 48l0 48 48 0c26.5 0 48-21.5 48-48s-21.5-48-48-48z"/></svg>