<svg xmlns="http://www.w3.org/2000/svg" viewBox="0 0 576 512"><!--! Font Awesome Pro 7.2.0 by @fontawesome - https://fontawesome.com License - https://fontawesome.com/license (Commercial License) Copyright 2026 Fonticons, Inc. --><path fill="currentColor" d="M432.5 306.2l136 80 13.8 8.1-16.2 27.6-13.8-8.1-127.9-75.3-127.9 75.3-8.1 4.8-8.1-4.8-127.9-75.3-127.9 75.3-13.8 8.1-16.2-27.6 13.8-8.1 136-80 8.1-4.8 8.1 4.8 127.9 75.2 127.9-75.2 8.1-4.8 8.1 4.8zm0-208l136 80 13.8 8.1-16.2 27.6-13.8-8.1-127.9-75.2-127.9 75.2-8.1 4.8-8.1-4.8-127.9-75.2-127.9 75.2-13.8 8.1-16.2-27.6 13.8-8.1 136-80 8.1-4.8 8.1 4.8 127.9 75.2 127.9-75.2 8.1-4.8 8.1 4.8z"/></svg>