<svg xmlns="http://www.w3.org/2000/svg" viewBox="0 0 512 512"><!--! Font Awesome Pro 7.2.0 by @fontawesome - https://fontawesome.com License - https://fontawesome.com/license (Commercial License) Copyright 2026 Fonticons, Inc. --><path fill="currentColor" d="M408.5 0c26.6 0 53.2 10.2 73.5 30.5 40.6 40.6 40.6 106.4 0 147.1l-11.3 11.3-22.6-22.6 11.3-11.3c28.1-28.1 28.1-73.7 0-101.8-14.1-14.1-32.5-21.1-50.9-21.1-33.7 0-62.5 24.4-68.1 57.7l-68.2 409-2.2 13.4-27.1 0-2.2-13.4-68.2-409c-5.5-33.3-34.3-57.7-68.1-57.7-18.5 0-36.8 7-50.9 21.1-28.1 28.1-28.1 73.7 0 101.8l11.3 11.3-22.6 22.6-11.3-11.3C-9.7 136.9-9.7 71.1 31 30.5 51.3 10.2 77.9 0 104.5 0 153.9 0 196 35.7 204.1 84.4l52.4 314.3 52.4-314.3C317 35.7 359.1 0 408.5 0z"/></svg>