<svg xmlns="http://www.w3.org/2000/svg" viewBox="0 0 576 512"><!--! Font Awesome Pro 7.2.0 by @fontawesome - https://fontawesome.com License - https://fontawesome.com/license (Commercial License) Copyright 2026 Fonticons, Inc. --><path fill="currentColor" d="M543.8 115.9l-6.9 27.4-56.7-56.7-310.2 310.3 13.8 55.2 2.2 8.8-90.4 90.4c-3.4-13.7-10.3-41.1-20.6-82.1-41-10.2-68.3-17.1-82.1-20.5L83.4 358.3 92.2 360.5 147.4 374.2 457.6 64 401 7.3 428.4 .5 582.3-38 543.8 115.9zM55.6 431.3l36.6 9.2 9.3 2.3 2.3 9.3 9.1 36.6 37.6-37.6-11.5-45.9-45.9-11.5-37.6 37.6zm408-406.7l56 56 18.7-74.7-74.7 18.7z"/></svg>