<svg xmlns="http://www.w3.org/2000/svg" viewBox="0 0 512 512"><!--! Font Awesome Pro 7.2.0 by @fontawesome - https://fontawesome.com License - https://fontawesome.com/license (Commercial License) Copyright 2026 Fonticons, Inc. --><path fill="currentColor" d="M288.1 104c0 48.6-39.4 88-88 88l-22.9 0 7.5 79.8c42.9-30.1 95.1-47.8 151.5-47.8 64.9 0 124.4 23.4 170.3 62.3l12.2 10.3-20.7 24.4-12.2-10.3c-40.4-34.2-92.6-54.7-149.7-54.7-56.2 0-107.8 20-147.9 53.3 3 31.7 4.8 50.7 5.4 57.1l-31.9 3-1.5-15.9-24-256-1.6-17.5 73.6 0 0 32-38.4 0 4.5 48 25.9 0c30.9 0 56-25.1 56-56l0-72-179.6 0c-1.2 4.7-2.7 10.8-4.3 18.1-4.4 19.3-10.4 47-16.3 80.7-11.9 67.4-23.8 158.5-23.8 253.2 0 52.8 42.7 95.7 95.5 96l367.2-31.9 15.9-1.4 2.7 31.9-15.9 1.4-368 32-.7 .1-.7 0c-70.7 0-128-57.3-128-128 0-97.2 12.2-190.2 24.2-258.8 6.1-34.3 12.1-62.6 16.7-82.3 2.3-9.9 4.2-17.6 5.5-22.9 .7-2.6 1.2-4.7 1.6-6.1 .2-.7 .3-1.2 .4-1.6 0-.2 .1-.3 .1-.4 0 0 0-.1 0-.1l0-.1 3.2-11.8 236.2 0 0 104z"/></svg>