<svg xmlns="http://www.w3.org/2000/svg" viewBox="0 0 512 512"><!--! Font Awesome Pro 7.2.0 by @fontawesome - https://fontawesome.com License - https://fontawesome.com/license (Commercial License) Copyright 2026 Fonticons, Inc. --><path fill="currentColor" d="M92.1 419.9c39.4-11.1 62.9-17.8 70.6-19.9l13 0c3.8 15.1 10.6 41.8 20.2 79.9 27.1-27.8 47.1-48.4 60-61.6 12.9 13.3 32.9 33.8 60 61.6 9.7-38.2 16.4-64.8 20.3-79.9l13.1 0c7.7 2.2 31.2 8.8 70.6 19.9l-5.6-19.9 33.3 0 18.7 66.3-106.2-30-27.1 107-77-79.1-77 79.1-27.1-107-106.2 30 18.7-66.3 33.3 0-5.7 19.9zM54.3 168.8l57.7 115.4 0-124.2 32 0 0 192-33.9 0-4.4-8.8-57.7-115.4 0 124.2-32 0 0-192 33.9 0 4.4 8.8zM312 192l-96 0 0 48 80 0 0 32-80 0 0 48 96 0 0 32-128 0 0-192 128 0 0 32zm56-32l0 82.1c0 7.1 1.4 14.2 4 20.8l12 30 17.2-42.9 4-10.1 21.6 0 4 10.1 17.1 42.9 12-30c2.6-6.6 4-13.7 4-20.8l0-82.1 32 0 0 82.1c0 11.2-2.1 22.3-6.3 32.7l-26.9 67.1-4 10.1-21.6 0-4-10.1-17.2-42.9-17.2 42.9-4 10.1-21.6 0-4-10.1-26.9-67.1c-4.2-10.4-6.3-21.5-6.3-32.7l0-82.1 32 0zm-7.9-84.2l106.2-30-18.7 66.2-33.3 0 5.6-19.9-51.1 14.5-19.3 5.4-13.2 0c-3.8-15.1-10.6-41.7-20.3-79.9-27 27.8-47 48.4-60 61.7-12.9-13.3-32.9-33.8-60-61.7-9.7 38.2-16.4 64.8-20.3 79.9l-13.2 0-19.3-5.4-51.2-14.5 5.7 19.9-33.2 0-18.7-66.2 106.2 30 27.1-107 77 79.1 77-79.1 27.1 107z"/></svg>