<svg xmlns="http://www.w3.org/2000/svg" viewBox="0 0 640 512"><!--! Font Awesome Pro 7.2.0 by @fontawesome - https://fontawesome.com License - https://fontawesome.com/license (Commercial License) Copyright 2026 Fonticons, Inc. --><path fill="currentColor" d="M452.4 425l121 45.8c28.3-10.6 45.7-17.1 52-19.5l11.2 30-15 5.6-42.7 16-5.6 2.1-5.7-2.1-121-45.9-121 45.9-5.7 2.2-5.7-2.2-121-45.9-121 45.9-5.7 2.1-5.6-2.1-42.7-16-15-5.6 11.2-30c6.3 2.4 23.7 8.9 52 19.5l121.1-45.8 5.7-2.2 5.7 2.2 121 45.8 121-45.8 5.7-2.2 5.7 2.2zM608.1 320c0 40.2-18.5 76-47.5 99.4L524.6 405c30.6-16 51.5-48 51.5-85l0-36.2-46.2 30.8-8.1 5.4-403.4 0-8.1-5.4-46.2-30.8 0 36.2c0 36.9 20.9 69 51.5 85L79.5 419.4c-27.3-22.2-45.3-55.4-47.2-92.8l-.2-6.6 0-96 96 64 384 0 96-64 0 96zm-212-80l-51.2 0-100-80-52.8 0 0 80-32 0 0-112 96 0 140 112zm-188-128a56 56 0 1 1 0-112 56 56 0 1 1 0 112zm0-80a24 24 0 1 0 0 48 24 24 0 1 0 0-48z"/></svg>