<svg xmlns="http://www.w3.org/2000/svg" viewBox="0 0 640 512"><!--! Font Awesome Pro 7.2.0 by @fontawesome - https://fontawesome.com License - https://fontawesome.com/license (Commercial License) Copyright 2026 Fonticons, Inc. --><path fill="currentColor" d="M208.4 192c40.2 0 75.4 21.1 95.1 52.9 15.3-13 35.2-20.9 56.9-20.9 48.6 0 88 39.4 88 88l0 8c53 0 96 43 96 96l0 96-512 0 0-96c0-41.8 26.7-77.2 64-90.4l0-21.6c0-61.9 50.1-112 112-112zm0 32c-44.2 0-80 35.8-80 80l0 46.7-12.8 2.6c-29.2 5.9-51.2 31.8-51.2 62.7l0 64 448 0 0-64c0-35.3-28.7-64-64-64-4.4 0-8.7 .4-12.8 1.3l-19.2 3.9 0-45.2c0-30.9-25.1-56-56-56-19.9 0-37.4 10.4-47.4 26.2l-18 28.5-10.7-32c-10.6-31.8-40.6-54.7-75.9-54.7zM413.7-24.7l47.3 70.4 83.3-16.3 23.3-4.5-4.5 23.3-16.3 83.3c55.4 37.3 85.4 57.5 90.1 60.6l-19.7 13.3-70.4 47.3 14.5 73.9c-10.9-13.7-24.2-25.3-39.2-34.3l-8.6-43.9-2-10.4 8.8-5.9 59.5-40.1-59.5-40-8.7-5.9 2-10.4 13.7-70.4-70.4 13.7-10.4 2-5.9-8.8-40.1-59.5-40 59.5-5.9 8.8-10.4-2-70.4-13.7 13.8 70.4 2 10.4c-6 4-11.6 7.8-16.9 11.4-12.5-5.5-25.9-9.5-39.9-11.6l21.5-14.4-16.3-83.3-4.5-23.3 23.2 4.5 83.3 16.3 47.4-70.4 13.2-19.7 13.3 19.7zM400.4 112c44.2 0 80 35.8 80 80 0 14.4-3.8 27.8-10.4 39.5-6.8-9.3-14.9-17.7-23.8-25 1.4-4.6 2.2-9.4 2.2-14.5 0-26.5-21.5-48-48-48-20.9 0-38.7 13.4-45.3 32.1-11.8 .5-23.2 2.5-34.1 5.8 5-39.4 38.6-69.9 79.4-69.9z"/></svg>