<svg xmlns="http://www.w3.org/2000/svg" viewBox="0 0 576 512"><!--! Font Awesome Pro 7.2.0 by @fontawesome - https://fontawesome.com License - https://fontawesome.com/license (Commercial License) Copyright 2026 Fonticons, Inc. --><path fill="currentColor" d="M128 256c23.9 0 45.9 8.8 62.7 23.3 10.2-4.7 21.5-7.3 33.3-7.3 41.8 0 76.1 33 79.6 73.4 28.7 14.5 48.4 44.2 48.4 78.6l0 88-352 0 0-88c0-27.4 12.5-51.8 32.1-68-2.1-53 41.3-100 95.9-100zm0 32c-38.3 0-68.8 35.5-63.3 73.3l1.5 10.1-8.6 5.6C42.2 387 32 404.3 32 424l0 56 288 0 0-56c0-24.4-15.6-45.2-37.4-52.8l-11.4-4 .8-12.1c1.7-27.1-20.7-51.1-47.9-51.1-10 0-19.3 3.1-27 8.3l-11.7 7.9-9.3-10.6c-11.8-13.3-28.9-21.7-48-21.7zm256-96c41.9 0 77.3 26.8 90.4 64.2 1.8-.1 3.7-.2 5.6-.2 53 0 96 43 96 96l0 96-178.2 0c1.4-7.8 2.2-15.8 2.2-24 0-2.7-.1-5.4-.2-8l144.2 0 0-64c0-35.3-28.7-64-64-64-4.7 0-9.4 .5-13.9 1.5l-16.3 3.6-2.9-16.4c-5.3-30-31.5-52.7-62.9-52.7-27.9 0-51.5 17.8-60.3 42.7-7.3-8.6-15.7-16.2-25-22.4 15.9-31 48.1-52.2 85.3-52.2zM240 112c33.6 0 62.3 20.7 74.2 50.1-9.9 5.5-19 12.1-27.3 19.6-4.7-21.5-23.9-37.7-46.8-37.7-26.5 0-48 21.5-48 48 0 13.6 5.7 25.9 14.9 34.7-1.9 .4-3.8 .8-5.7 1.3-11.8-7-24.8-12.3-38.5-15.7-1.7-6.5-2.7-13.3-2.7-20.3 0-44.2 35.8-80 80-80zM253.2-24.8l47.3 70.4 83.3-16.3 23.3-4.5-4.5 23.2-16.3 83.3 21.9 14.7c-7.9-1.3-16-2.1-24.2-2.1-10.7 0-21 1.2-31 3.4l-2-1.3 2-10.4 13.7-70.4-70.4 13.8-10.4 2-5.9-8.8-40.1-59.5-40 59.5-5.9 8.8-10.4-2-70.4-13.8 13.8 70.4 2 10.4-8.8 5.9-59.5 40 30.8 20.7c-12.6 3.3-24.5 8.2-35.5 14.6-24-16.2-41.5-27.9-52.4-35.3 4.7-3.1 34.7-23.4 90.1-60.6l-16.3-83.3-4.5-23.3 23.2 4.5 83.3 16.3 47.4-70.4 13.2-19.7 13.2 19.7z"/></svg>