<svg xmlns="http://www.w3.org/2000/svg" viewBox="0 0 640 512"><!--! Font Awesome Pro 7.2.0 by @fontawesome - https://fontawesome.com License - https://fontawesome.com/license (Commercial License) Copyright 2026 Fonticons, Inc. --><path fill="currentColor" d="M334.2-24.2l55.7 92.9c-9.6 4.7-18.9 10.1-27.6 16.2l-41.8-69.8-52.9 88.3-6.1 10.2-11.5-2.9-99.8-25 25 99.8 2.9 11.5-10.2 6.1-88.3 52.9 88.3 52.9 10.2 6.1-2.9 11.5-25 99.8 99.8-25 11.5-2.9 6.1 10.2 52.9 88.3 41.8-69.8c8.7 6.1 18 11.4 27.6 16.1l-55.7 93-13.7 22.9-13.7-22.9-60.5-101-114.2 28.6-25.9 6.5 6.5-25.9 28.6-114.2-101-60.5-22.9-13.7 22.9-13.7 101-60.5-28.6-114.2-6.5-25.9 25.9 6.5 114.2 28.6 60.5-101 13.7-22.9 13.7 22.9zM480.5 416a160 160 0 1 1 0-320 160 160 0 1 1 0 320zm0-288a128 128 0 1 0 0 256 128 128 0 1 0 0-256zm-176 17.1c-7.7 12.3-14.3 25.4-19.3 39.2-26.5 13.1-44.7 40.2-44.7 71.7s18.2 58.6 44.7 71.7c5.1 13.8 11.6 26.9 19.3 39.2-54.3-7.8-96-54.4-96-110.8s41.7-103.1 96-110.9z"/></svg>