<svg xmlns="http://www.w3.org/2000/svg" viewBox="0 0 576 512"><!--! Font Awesome Pro 7.2.0 by @fontawesome - https://fontawesome.com License - https://fontawesome.com/license (Commercial License) Copyright 2026 Fonticons, Inc. --><path fill="currentColor" d="M577.9 259.9l-5 6.2c-6.2 7.5-13.2 14.6-20.2 21.4-11.1 10.7-26.6 24.4-46.1 38.6l51.9 89.9-27.7 16-50.8-88.1c-20.6 12.6-44.3 24.8-71 34.5l27.2 101.4-30.9 8.3-26.8-100c-22.9 6.1-47.6 10.3-73.9 11.6l0 112.4-32 0 0-112.4c-26.3-1.2-51-5.4-73.9-11.6l-26.8 100-30.9-8.3 27.2-101.4c-26.7-9.7-50.4-21.9-70.9-34.5l-50.8 88-27.7-16 51.8-89.8c-19.6-14.2-35.1-27.9-46.2-38.7-7-6.8-14-13.9-20.2-21.4l-5-6.2 24.8-20.2 5 6.2c1.1 1.3 7.2 8.5 17.6 18.6 11.8 11.5 29.4 26.9 52 42.3 45.3 30.8 110.2 61.2 190 61.2s144.7-30.4 190-61.2c22.6-15.4 40.2-30.8 52-42.3 10.3-10 16.5-17.2 17.6-18.6l5-6.2 24.8 20.2z"/></svg>