<svg xmlns="http://www.w3.org/2000/svg" viewBox="0 0 512 512"><!--! Font Awesome Pro 7.2.0 by @fontawesome - https://fontawesome.com License - https://fontawesome.com/license (Commercial License) Copyright 2026 Fonticons, Inc. --><path fill="currentColor" d="M384 496c0 26.5-21.5 48-48 48s-48-21.5-48-48l0-24 32 0 0 24c0 8.8 7.2 16 16 16s16-7.2 16-16l0-112 32 0 0 112zm120-80l-40 0c-8.8 0-16 7.2-16 16s7.2 16 16 16c26.5 0 48 21.5 48 48s-21.5 48-48 48l-48 0 0-32 48 0c8.8 0 16-7.2 16-16s-7.2-16-16-16c-26.5 0-48-21.5-48-48s21.5-48 48-48l40 0 0 32zM416 160l0 176-32 0 0-144-160 0 0-160-160 0 0 448 176 0 0 32-208 0 0-512 224 0 160 160zm-160 0L370.7 160 256 45.2 256 160z"/></svg>