<svg xmlns="http://www.w3.org/2000/svg" viewBox="0 0 576 512"><!--! Font Awesome Pro 7.2.0 by @fontawesome - https://fontawesome.com License - https://fontawesome.com/license (Commercial License) Copyright 2026 Fonticons, Inc. --><path fill="currentColor" d="M280 384c22.1 0 40 17.9 40 40l0 16-32 0 0-16c0-4.4-3.6-8-8-8l-16 0c-4.4 0-8 3.6-8 8l0 80c0 4.4 3.6 8 8 8l16 0c4.4 0 8-3.6 8-8l0-16 32 0 0 16c0 22.1-17.9 40-40 40l-16 0c-22.1 0-40-17.9-40-40l0-80c0-22.1 17.9-40 40-40l16 0zm160 32l-40 0c-8.8 0-16 7.2-16 16s7.2 16 16 16c26.5 0 48 21.5 48 48s-21.5 48-48 48l-48 0 0-32 48 0c8.8 0 16-7.2 16-16s-7.2-16-16-16c-26.5 0-48-21.5-48-48s21.5-48 48-48l40 0 0 32zm128 0l-40 0c-8.8 0-16 7.2-16 16s7.2 16 16 16c26.5 0 48 21.5 48 48s-21.5 48-48 48l-48 0 0-32 48 0c8.8 0 16-7.2 16-16s-7.2-16-16-16c-26.5 0-48-21.5-48-48s21.5-48 48-48l40 0 0 32zM416 160l0 176-32 0 0-144-160 0 0-160-160 0 0 448 112 0 0 32-144 0 0-512 224 0 160 160zm-160 0L370.7 160 256 45.2 256 160z"/></svg>