<svg xmlns="http://www.w3.org/2000/svg" viewBox="0 0 576 512"><!--! Font Awesome Pro 7.2.0 by @fontawesome - https://fontawesome.com License - https://fontawesome.com/license (Commercial License) Copyright 2026 Fonticons, Inc. --><path fill="currentColor" d="M344 384c22.1 0 40 17.9 40 40l0 120-32 0 0-48-32 0 0 48-32 0 0-120c0-22.1 17.9-40 40-40l16 0zm120 0c30.9 0 56 25.1 56 56s-25.1 56-56 56l-16 0 0 48-32 0 0-160 48 0zM576 544l-32 0 0-160 32 0 0 160zM328 416c-4.4 0-8 3.6-8 8l0 40 32 0 0-40c0-4.4-3.6-8-8-8l-16 0zm120 48l16 0c13.3 0 24-10.7 24-24s-10.7-24-24-24l-16 0 0 48zM372.5 83.6c7.8 3.8 15.4 8.2 22.6 13l96.5-32 64 110.9-76.1 67.5c.3 4.3 .5 8.7 .5 13 0 4.3-.2 8.7-.5 12.9l75.4 67.1-48.1 0-48.6-43.2-11.7-10.4 1-15.6c.3-4 .4-7.5 .4-10.8 0-3.4-.2-7-.4-10.9l-1-15.6 11.7-10.4 56.5-50.2-37.9-65.7-71.8 23.8-14.9 4.9-13-8.8c-6-4-12.2-7.7-18.8-10.9l-14.1-6.9-3.2-15.4-15.2-74-75.8 0-15.3 74-3.2 15.3-14.1 6.9c-6.6 3.2-12.8 6.9-18.8 10.8l-13 8.7-14.9-4.9-71.8-23.8-37.9 65.7 56.6 50.3 11.7 10.4-1 15.6c-.3 3.8-.4 7.4-.4 10.8 0 3.5 .2 7 .4 10.8l1 15.6-11.7 10.4-56.6 50.3 37.9 65.7 71.7-23.8 14.9-4.9 13 8.8c12.6 8.5 26.4 15.1 41.2 19.8l0 33.3c-21.4-5.5-41.3-14.5-59.1-26.5l-96.5 32.1-64-110.9 76-67.6c-.3-4.3-.5-8.6-.5-12.9 0-4.4 .2-8.7 .5-13l-76-67.6 64-110.9 96.5 32c7.2-4.8 14.7-9.2 22.5-13L224-16 352-16 372.5 83.6zM288 344a88 88 0 1 1 0-176 88 88 0 1 1 0 176zm0-144a56 56 0 1 0 0 112 56 56 0 1 0 0-112z"/></svg>