<svg xmlns="http://www.w3.org/2000/svg" viewBox="0 0 640 512"><!--! Font Awesome Pro 7.2.0 by @fontawesome - https://fontawesome.com License - https://fontawesome.com/license (Commercial License) Copyright 2026 Fonticons, Inc. --><path fill="currentColor" d="M80 64l448 0 80 80 0 224-80 80-176 0 0 64-224 0 0-64-80 0 0-384-48 0 0-32 80 0 0 32zm80 416l160 0 0-32-160 0 0 32zM80 416l434.7 0 61.3-61.3 0-197.5-61.3-61.2-434.7 0 0 320zm320-32a128 128 0 1 1 0-256 128 128 0 1 1 0 256zm24-66.5l-3.3 4.3-23.5 30.1c.9 0 1.9 .1 2.8 .1 21.7 0 41.7-7.3 57.8-19.5l-18-44.3-15.8-9.1 0 38.4zm-65.2-10l-43.3-6c10.3 19.1 26.9 34.3 47 42.9l29.5-37.9 0-18.2-33.3 19.2zM240 320l-112 0 0-32 112 0 0 32zm192-73.2l33.3 19.2 2.1 5.1 14.3 35.2c9-14.6 14.4-31.8 14.4-50.3 0-4-.3-7.9-.7-11.8l-47.5-6.5-15.8 9.1zM318.3 205.7c-9 14.6-14.3 31.8-14.3 50.3 0 4 .2 7.9 .7 11.8l47.5 6.6 15.8-9.1-33.2-19.2-2-5.1-14.3-35.3zM400 160c-21.7 0-41.7 7.3-57.8 19.4l18 44.3 15.7 9.2 0-38.4 3.4-4.3 23.4-30.1c-.9 0-1.8-.1-2.8-.1zM240 224l-112 0 0-32 112 0 0 32zm168-18.6l0 18.2 33.3-19.2 5.4 .8 37.8 5.2c-10.3-19.1-26.9-34.4-47.1-42.9L408 205.4z"/></svg>