<svg xmlns="http://www.w3.org/2000/svg" viewBox="0 0 448 512"><!--! Font Awesome Pro 7.2.0 by @fontawesome - https://fontawesome.com License - https://fontawesome.com/license (Commercial License) Copyright 2026 Fonticons, Inc. --><path fill="currentColor" d="M235.6 38.6l81.4 112 7.3 10.1-8 9.6-152 182.4c58.7 80.7 89.5 123.2 92.6 127.3L0 480 0 32 230.7 32 235.6 38.6zM448 480l-131.8 0-23.3-32 123.1 0 0-384-102.6 0-23.3-32 157.9 0 0 448zM32 448l162 0-62.9-86.6-7.3-10.1 8-9.6 152-182.4-69.3-95.3-182.4 0 0 384zm352-48l-126 0-23.3-32 94.1 0-46.8-81.8 21.9-26.3 80 140.1zM128 208a48 48 0 1 1 0-96 48 48 0 1 1 0 96zm0-64a16 16 0 1 0 0 32 16 16 0 1 0 0-32z"/></svg>