<svg xmlns="http://www.w3.org/2000/svg" viewBox="0 0 576 512"><!--! Font Awesome Pro 7.2.0 by @fontawesome - https://fontawesome.com License - https://fontawesome.com/license (Commercial License) Copyright 2026 Fonticons, Inc. --><path fill="currentColor" d="M416 544l-32 0 0-128 32 0 0 128zm134.6-80L528 486.6 441.4 400 464 377.4 550.6 464zM98.2 204.4c-5.6 5.6-17.1 17-34.4 34.4-20.3 20.3-31.7 47.9-31.8 76.7 0 59.9 48.5 108.5 108.4 108.5 28.8 0 56.3-11.4 76.7-31.8l99.6-99.5 11.3-11.3 22.6 22.7-11.3 11.3-99.6 99.5c-26.3 26.3-62.1 41.2-99.3 41.2-77.6 0-140.4-62.9-140.4-140.5 0-37.2 14.8-73 41.1-99.3 17.4-17.4 28.9-28.8 34.4-34.4l22.6 22.6zM435.6 56c77.6 0 140.4 62.9 140.4 140.5 0 37.2-14.8 73-41.1 99.3-17.4 17.4-28.9 28.8-34.4 34.4l-22.6-22.6c5.6-5.6 17.1-17 34.4-34.4 20.3-20.3 31.7-47.9 31.8-76.7 0-59.9-48.5-108.5-108.4-108.5-28.8 0-56.3 11.4-76.7 31.8l-99.6 99.5-11.3 11.3-22.6-22.7 11.3-11.3 99.6-99.5C362.6 70.8 398.3 56 435.6 56zM134.6 112L112 134.6 25.4 48 48 25.4 134.6 112zM192 96l-32 0 0-128 32 0 0 128z"/></svg>