<svg xmlns="http://www.w3.org/2000/svg" viewBox="0 0 512 512"><!--! Font Awesome Pro 7.2.0 by @fontawesome - https://fontawesome.com License - https://fontawesome.com/license (Commercial License) Copyright 2026 Fonticons, Inc. --><path fill="currentColor" d="M256 0C114.6 0 0 114.6 0 256S114.6 512 256 512c34 0 66.3-6.7 96-18.7-93.8-38-160-129.9-160-237.3S258.2 56.6 352 18.7C322.3 6.7 290 0 256 0zm10.7 32.2c-65.1 52.8-106.7 133.4-106.7 223.8 0 90.4 41.7 171 106.8 223.7-3.6 .2-7.2 .3-10.8 .3-123.7 0-224-100.3-224-224S132.3 32 256 32c3.6 0 7.2 .1 10.7 .2zM452.6 363.4c-16.7 30.5-40.3 56.7-68.7 76.5 6.1 8.7 12.2 17.5 18.3 26.2 33.4-23.3 61-54.2 80.1-90.4l-29.8-12.3zm18.3-170.5c5.9 20 9.1 41.2 9.1 63.1s-3.2 43.1-9.1 63.1l29.8 12.3c7.3-23.8 11.3-49.1 11.3-75.4 0-26.3-4-51.6-11.3-75.4l-29.8 12.3zM393 58.9l-9.1 13.1c28.4 19.8 52 46 68.7 76.5l29.8-12.3c-19.2-36.2-46.8-67.2-80.1-90.4L393 58.9z"/></svg>