<svg xmlns="http://www.w3.org/2000/svg" viewBox="0 0 512 512"><!--! Font Awesome Pro 7.2.0 by @fontawesome - https://fontawesome.com License - https://fontawesome.com/license (Commercial License) Copyright 2026 Fonticons, Inc. --><path fill="currentColor" d="M256 0c29.8 0 58.4 5.1 85 14.5 .1 0 .2 .1 .3 .1 .1 0 .3 .1 .4 .2 8.2 2.9 16.1 6.2 23.9 9.9 33.6 15.9 63.1 38.9 86.7 67.1 .6 .7 1.2 1.5 1.8 2.3 1.7 2.1 3.4 4.1 5 6.2 .3 .4 .6 .8 .9 1.2 6 8 11.6 16.3 16.7 24.9 .4 .7 .9 1.5 1.3 2.2 21.6 37.5 34 81 34 127.4 0 46.6-12.5 90.3-34.3 128-.2 .3-.4 .7-.6 1-3.5 5.9-7.2 11.7-11.1 17.3-.1 .2-.2 .3-.3 .5-25.7 36.6-60.6 66.1-101.5 85.2-7.3 3.4-14.8 6.5-22.5 9.3-.1 0-.2 .1-.3 .2 0 0-.1 0-.2 0-26.7 9.4-55.3 14.6-85.2 14.6-54 0-104.1-16.8-145.4-45.3l20.7-24.6c35.6 23.9 78.6 37.9 124.7 37.9 10.9 0 21.6-.8 32.1-2.3-76.5-44.2-128-126.9-128-221.7S211.5 78.5 288 34.3c-10.5-1.5-21.2-2.3-32-2.3-46.2 0-89.1 14-124.7 37.9L110.6 45.3C151.9 16.7 202 0 256 0zm80 46.8c-84.2 32.2-144 113.7-144 209.2 0 95.5 59.8 176.9 144 209.2 34.1-13 64.2-34.2 87.9-61 7.8-8.8 14.8-18.2 21.1-28.1 3.7-5.8 7.1-11.8 10.3-17.9 5.1-9.9 9.5-20.3 13.1-31 .2-.6 .4-1.1 .6-1.7 3.7-11.4 6.6-23.2 8.4-35.4 1.7-11.1 2.6-22.5 2.6-34.1 0-8.1-.5-16.1-1.3-24-.3-2.5-.6-5.1-1-7.6-.1-.8-.2-1.7-.3-2.5-3.3-21.7-9.7-42.3-18.8-61.4-1.4-3-2.8-5.9-4.4-8.8-4.2-7.9-8.8-15.5-13.8-22.8l-.1-.2c-6.8-9.9-14.5-19.2-22.7-27.8l0 0C394.8 77.3 367.1 58.7 336 46.8zM33.3 280c5.4 50.7 27.8 96.3 61.2 131.2L73.8 435.8C33.5 394.9 6.8 340.5 1.2 280l32.1 0zM94.5 100.8C61 135.7 38.7 181.3 33.3 232L1.2 232C6.8 171.5 33.5 117 73.8 76.2l20.7 24.7z"/></svg>