<svg xmlns="http://www.w3.org/2000/svg" viewBox="0 0 512 512"><!--! Font Awesome Pro 7.2.0 by @fontawesome - https://fontawesome.com License - https://fontawesome.com/license (Commercial License) Copyright 2026 Fonticons, Inc. --><path fill="currentColor" d="M419.6 453.1c-38.6 32-86.6 52.8-139.4 57.7l0-32.2c43.9-4.7 84-22 116.6-48.3l22.7 22.8zM115.8 430.4c32.6 26.3 72.6 43.6 116.4 48.3l0 32.1c-52.7-4.9-100.7-25.7-139.2-57.7l22.8-22.7zM33.6 280c4.7 43.8 22 83.9 48.2 116.4L59.1 419.2C27.2 380.7 6.4 332.7 1.5 280l32.1 0zm477.6 0c-4.9 52.6-25.7 100.6-57.6 139.2l-22.8-22.7c26.2-32.6 43.6-72.6 48.3-116.4l32.1 0zM81.9 115.4C55.6 148 38.3 188.1 33.6 232L1.5 232C6.4 179.3 27.2 131.2 59.2 92.7l22.7 22.8zM453.5 92.8c31.9 38.5 52.8 86.6 57.7 139.2l-32.1 0c-4.7-43.9-22-83.9-48.3-116.5l22.7-22.8zM280.3 1.1C332.9 6 381 26.9 419.5 58.8L396.8 81.5c-32.6-26.3-72.7-43.6-116.5-48.2l0-32.2zm-48 32.2c-43.8 4.7-83.8 22-116.3 48.2L93.2 58.8C131.7 26.9 179.6 6.1 232.3 1.2l0 32.1z"/></svg>