<svg xmlns="http://www.w3.org/2000/svg" viewBox="0 0 512 512"><!--! Font Awesome Pro 7.2.0 by @fontawesome - https://fontawesome.com License - https://fontawesome.com/license (Commercial License) Copyright 2026 Fonticons, Inc. --><path fill="currentColor" d="M256 0C397.4 0 512 114.6 512 256S397.4 512 256 512c-34 0-66.3-6.7-96-18.7 93.8-38 160-129.9 160-237.3S253.8 56.6 160 18.7C189.7 6.7 222 0 256 0zM245.3 32.2c65.1 52.8 106.7 133.4 106.7 223.8 0 90.4-41.7 171-106.8 223.7 3.6 .2 7.2 .3 10.8 .3 123.7 0 224-100.3 224-224S379.7 32 256 32c-3.6 0-7.2 .1-10.7 .2zM59.4 363.4c16.7 30.5 40.3 56.7 68.7 76.5-6.1 8.7-12.2 17.5-18.3 26.2-33.4-23.3-61-54.2-80.1-90.4l29.8-12.3zM41.1 192.9c-5.9 20-9.1 41.2-9.1 63.1s3.2 43.1 9.1 63.1L11.3 331.4C4 307.5 0 282.2 0 256 0 229.7 4 204.4 11.3 180.6l29.8 12.3zM119 58.9l9.1 13.1c-28.4 19.8-52 46-68.7 76.5L29.7 136.2c19.2-36.2 46.8-67.2 80.1-90.4L119 58.9z"/></svg>