<svg xmlns="http://www.w3.org/2000/svg" viewBox="0 0 512 512"><!--! Font Awesome Pro 7.2.0 by @fontawesome - https://fontawesome.com License - https://fontawesome.com/license (Commercial License) Copyright 2026 Fonticons, Inc. --><path fill="currentColor" d="M256 0c111.7 0 206.6 71.5 241.6 171.2 .6 1.8 1.3 3.6 1.9 5.5 .6 1.7 1.1 3.5 1.6 5.2 .8 2.8 1.7 5.6 2.4 8.5 .5 1.8 .9 3.6 1.3 5.4 .4 1.6 .7 3.1 1.1 4.7 3.9 17.9 6.1 36.4 6.1 55.5 0 19.1-2.2 37.8-6.2 55.7-.3 1.3-.6 2.6-.9 3.8-1.6 6.8-3.5 13.5-5.7 20.1-.5 1.4-1 2.9-1.5 4.3-34.8 100.1-129.8 172-241.8 172L256 0zM100.9 417.5c29.2 28.1 66.1 48.3 107.1 57.2l0 32.7c-50.9-9.6-96.4-34.3-131.8-69.2l24.7-20.7zM288 477.7C396.5 462.1 480 368.8 480 256S396.6 49.8 288 34.3l0 443.3zM33.3 280c3.9 37.1 16.9 71.4 36.7 100.8L45.4 401.5C21.1 366.3 5.3 324.9 1.2 280l32.1 0zM70 131.2C50.2 160.6 37.2 194.9 33.3 232L1.2 232c4.2-44.9 19.9-86.3 44.2-121.5L70 131.2zm138-94c-41.1 9-77.9 29.2-107.1 57.2L76.2 73.8C111.6 38.8 157.2 14.2 208 4.5l0 32.7z"/></svg>