<svg xmlns="http://www.w3.org/2000/svg" viewBox="0 0 512 512"><!--! Font Awesome Pro 7.2.0 by @fontawesome - https://fontawesome.com License - https://fontawesome.com/license (Commercial License) Copyright 2026 Fonticons, Inc. --><path fill="currentColor" d="M512 448l-512 0 0-384 512 0 0 384zM32 416l128 0 0-320-128 0 0 320zm160 0l128 0 0-320-128 0 0 320zm160 0l128 0 0-320-128 0 0 320zM128 368l-64 0 0-32 64 0 0 32zm0-64l-64 0 0-32 64 0 0 32zm128-96a24 24 0 1 1 0-48 24 24 0 1 1 0 48zm160 0a24 24 0 1 1 0-48 24 24 0 1 1 0 48z"/></svg>