<svg xmlns="http://www.w3.org/2000/svg" viewBox="0 0 640 512"><!--! Font Awesome Pro 7.2.0 by @fontawesome - https://fontawesome.com License - https://fontawesome.com/license (Commercial License) Copyright 2026 Fonticons, Inc. --><path fill="currentColor" d="M288.5 0c95.1 0 178.1 51.9 222.2 128.9 8.1 1 15.9 2.9 23.4 5.6l24.4-24.4c18.7-18.7 49.1-18.7 67.9 0s18.7 49.1 0 67.9L602 202.3c4.2 11.8 6.5 24.4 6.5 37.7l0 3.2c0 25.7-8.6 50.7-24.5 71l-74.9 95.8-12.6 16.1-12.6-16.1-74.9-95.8c-15.9-20.3-24.5-45.2-24.5-71l0-3.2c0-13.2 2.3-25.9 6.5-37.7l-24.4-24.4c-18.7-18.7-18.7-49.1 0-67.9s49.1-18.7 67.9 0l24.4 24.4c4.8-1.7 9.8-3.1 15-4.2-40.3-59.3-108.2-98.3-185.3-98.3-123.7 0-224 100.3-224 224s100.3 224 224 224l64 0 0-16c0-26.5-21.5-48-48-48l-48 0 0-80c0-44.2-35.8-80-80-80l-16 0 0-32 16 0c61.9 0 112 50.1 112 112l0 48 16 0c44.2 0 80 35.8 80 80l0 16 128 0 0 32-224 0c-141.4 0-256-114.6-256-256S147.1 0 288.5 0zm208 208l-38.3-38.3c-24.9 13.6-41.7 40-41.7 70.3l0 3.2c0 18.6 6.2 36.6 17.7 51.3l45.1 57.6 34.5 0 45.1-57.6c11.4-14.6 17.7-32.7 17.7-51.3l0-3.2c0-30.3-16.9-56.7-41.8-70.3L496.5 208zm-32 52a20 20 0 1 1 0-40 20 20 0 1 1 0 40zm64 0a20 20 0 1 1 0-40 20 20 0 1 1 0 40zM411.8 132.7c-6.2-6.2-16.4-6.2-22.6 0s-6.2 16.4 0 22.6l17.6 17.6c6.4-8.6 14.1-16.2 22.6-22.6l-17.6-17.6zm192 0c-6.2-6.2-16.4-6.2-22.6 0l-17.6 17.6c8.6 6.4 16.2 14 22.6 22.6l17.6-17.6c6.2-6.2 6.2-16.4 0-22.6z"/></svg>