<svg xmlns="http://www.w3.org/2000/svg" viewBox="0 0 512 512"><!--! Font Awesome Pro 7.2.0 by @fontawesome - https://fontawesome.com License - https://fontawesome.com/license (Commercial License) Copyright 2026 Fonticons, Inc. --><path fill="currentColor" d="M256.1-16c75.7 0 141.9 40.4 178.3 100.8 15.9-4.2 30.6-12.3 42.4-24.2l11.3-11.3 22.6 22.6-11.3 11.3c-14.3 14.3-31.6 24.7-50.5 30.7 9.8 24.1 15.2 50.4 15.2 78l0 336-208 0c-114.9 0-208-93.1-208-208l0-128c0-27.6 5.4-53.9 15.2-78-18.9-6-36.2-16.4-50.5-30.7L1.5 72 24.1 49.4 35.4 60.7C47.2 72.5 61.9 80.7 77.8 84.8 114.2 24.4 180.5-16 256.1-16zM80.1 320c0 97.2 78.8 176 176 176l80 0c-38.9-29.2-64-75.7-64-128l0-32-88 0c-41.7 0-79.1-18.8-104-48.4l0 32.4zm352-32.4c-24.9 29.6-62.3 48.4-104 48.4l-24 0 0 32c0 70.7 57.3 128 128 128l0-208.4zM410.9 120l-58.7 0-8.2 .4c-40.3 4.1-71.8 38.2-71.8 79.6l0 48-32 0 0-48c0-41.4-31.5-75.5-71.8-79.6l-8.2-.4-58.7 0c-1.9 0-3.9-.1-5.8-.2-9.9 22-15.4 46.4-15.4 72.2l0 8 .1 5.3C83 260.3 128.5 304 184.1 304l144 0c55.6 0 101.1-43.7 103.9-98.7l.1-5.3 0-8c0-25.7-5.6-50.1-15.5-72.2-1.9 .1-3.8 .2-5.8 .2zM160.1 216a24 24 0 1 1 0-48 24 24 0 1 1 0 48zm192 0a24 24 0 1 1 0-48 24 24 0 1 1 0 48zm-96-200c-58.3 0-109.9 28.3-142 72l46 0 5.8 .1c38.3 1.9 71.5 23.2 90.2 54.2 19.6-32.5 55.3-54.3 96-54.3l46 0c-32-43.7-83.7-72-142-72z"/></svg>