<svg xmlns="http://www.w3.org/2000/svg" viewBox="0 0 448 512"><!--! Font Awesome Pro 7.2.0 by @fontawesome - https://fontawesome.com License - https://fontawesome.com/license (Commercial License) Copyright 2026 Fonticons, Inc. --><path fill="currentColor" d="M401 21.7c-7.2 6.3-13.5 14.1-19.5 21.6-8.6 10.7-20.1 26.5-31.6 46.7-21.3 37.2-42.2 88.7-45.4 150.1l143.5 0 0 32-143.5 0c3.2 61.4 24.2 112.9 45.4 150.1 11.5 20.2 23 36 31.6 46.7 6 7.5 12.2 15.3 19.5 21.6l-22.8 22.4c-7.1-8.2-14.9-15.5-21.7-24-9.4-11.8-21.9-29-34.4-50.8-23.1-40.5-46.5-97.5-49.7-165.9l-96.8 0c-3.2 68.4-26.5 125.4-49.7 165.9-12.5 21.8-25 39-34.4 50.8-6.8 8.5-14.6 15.9-21.7 24L47 490.3c7.2-6.3 13.5-14.1 19.5-21.6 8.6-10.7 20.1-26.5 31.6-46.7 21.3-37.2 42.2-88.7 45.4-150.1L0 272 0 240 143.5 240c-3.2-61.4-24.2-112.9-45.4-150.1-11.5-20.2-23-36-31.6-46.7-6-7.5-12.2-15.3-19.5-21.6L69.9-.8c7.1 8.2 14.8 15.5 21.6 24 9.4 11.8 21.9 29 34.4 50.8 23.1 40.5 46.5 97.5 49.7 165.9l96.8 0c3.2-68.4 26.5-125.4 49.7-165.9 12.5-21.8 25-39 34.4-50.8 6.8-8.5 14.6-15.9 21.7-24L401 21.7z"/></svg>