<svg xmlns="http://www.w3.org/2000/svg" viewBox="0 0 512 512"><!--! Font Awesome Pro 7.2.0 by @fontawesome - https://fontawesome.com License - https://fontawesome.com/license (Commercial License) Copyright 2026 Fonticons, Inc. --><path fill="currentColor" d="M256 512a256 256 0 1 1 0-512 256 256 0 1 1 0 512zm40-117.7c-12.7 3.7-26.1 5.7-40 5.7s-27.3-2-40-5.7l-30.7 74.2c22.2 7.4 46 11.5 70.7 11.5s48.5-4.1 70.7-11.5L296 394.3zm-240.3-38c21.7 43.2 56.8 78.3 100 100l30.8-74.2c-23.8-13.1-43.4-32.8-56.6-56.5L55.7 356.3zm326.4-30.8c-13.1 23.8-32.8 43.4-56.6 56.6l30.7 74.2c43.2-21.7 78.3-56.9 100-100l-74.2-30.7zM256 144a112 112 0 1 0 0 224 112 112 0 1 0 0-224zM43.4 185.2c-7.4 22.2-11.4 46-11.4 70.8 0 24.7 4 48.5 11.4 70.7L117.7 296c-3.7-12.7-5.7-26.1-5.7-40 0-13.9 2-27.3 5.7-40L43.4 185.2zM394.3 216c3.7 12.7 5.7 26.1 5.7 40 0 13.8-2 27.2-5.7 39.9l74.2 30.7c7.4-22.2 11.5-46 11.5-70.7 0-24.7-4.1-48.5-11.5-70.8L394.3 216zm-68.8-86.1c23.8 13.1 43.4 32.8 56.5 56.6l74.2-30.8c-21.7-43.2-56.8-78.3-100-100l-30.7 74.2zM155.7 55.7c-43.2 21.6-78.3 56.8-100 100l74.2 30.7c13.1-23.7 32.8-43.4 56.5-56.5L155.7 55.7zM256 32c-24.7 0-48.5 4-70.7 11.4L216 117.6c12.7-3.7 26.1-5.6 40-5.6s27.3 2 40 5.7l30.8-74.2C304.5 36 280.7 32 256 32z"/></svg>