<svg xmlns="http://www.w3.org/2000/svg" viewBox="0 0 640 512"><!--! Font Awesome Pro 7.2.0 by @fontawesome - https://fontawesome.com License - https://fontawesome.com/license (Commercial License) Copyright 2026 Fonticons, Inc. --><path fill="currentColor" d="M640 448l-640 0 0-384 640 0 0 384zM32 416l576 0 0-320-576 0 0 320zm86.3-247.2l57.7 115.4 0-124.2 32 0 0 192-33.9 0-4.4-8.8-57.7-115.4 0 124.2-32 0 0-192 33.9 0 4.4 8.8zM376 192l-96 0 0 48 80 0 0 32-80 0 0 48 96 0 0 32-128 0 0-192 128 0 0 32zm56-32l0 82.1c0 7.1 1.4 14.2 4 20.8l12 30 17.2-42.9 4-10.1 21.6 0 4 10.1 17.1 42.9 12-30c2.6-6.6 4-13.7 4-20.8l0-82.1 32 0 0 82.1c0 11.2-2.1 22.3-6.3 32.7l-26.9 67.1-4 10.1-21.6 0-4-10.1-17.2-42.9-17.2 42.9-4 10.1-21.6 0-4-10.1-26.9-67.1c-4.2-10.4-6.3-21.5-6.3-32.7l0-82.1 32 0z"/></svg>