<svg xmlns="http://www.w3.org/2000/svg" viewBox="0 0 512 512"><!--! Font Awesome Pro 7.2.0 by @fontawesome - https://fontawesome.com License - https://fontawesome.com/license (Commercial License) Copyright 2026 Fonticons, Inc. --><path fill="currentColor" d="M512 448l-512 0 0-384 512 0 0 384zM32 416l448 0 0-320-448 0 0 320zM144 160c35.3 0 64 28.7 64 64l0 128-32 0 0-64-64 0 0 64-32 0 0-128c0-35.3 28.7-64 64-64zm160 0c35.3 0 64 28.7 64 64s-28.7 64-64 64l-32 0 0 64-32 0 0-192 64 0zM432 352l-32 0 0-192 32 0 0 192zM144 192c-17.7 0-32 14.3-32 32l0 32 64 0 0-32c0-17.7-14.3-32-32-32zm128 64l32 0c17.7 0 32-14.3 32-32s-14.3-32-32-32l-32 0 0 64z"/></svg>