<svg xmlns="http://www.w3.org/2000/svg" viewBox="0 0 320 512"><!--! Font Awesome Pro 7.2.0 by @fontawesome - https://fontawesome.com License - https://fontawesome.com/license (Commercial License) Copyright 2026 Fonticons, Inc. --><path fill="currentColor" d="M320 384l-.2 8.2C315.5 476.8 245.6 544 160 544S4.5 476.8 .2 392.2L0 384 0-32 320-32 320 384zM32 384c0 70.7 57.3 128 128 128s128-57.3 128-128L288 0 32 0 32 384zm80-40c13.3 0 24 10.7 24 24s-10.7 24-24 24-24-10.7-24-24 10.7-24 24-24zm96 0c13.3 0 24 10.7 24 24s-10.7 24-24 24-24-10.7-24-24 10.7-24 24-24zm-96-40a24 24 0 1 1 0-48 24 24 0 1 1 0 48zm96 0a24 24 0 1 1 0-48 24 24 0 1 1 0 48zm-48-96a80 80 0 1 1 0-160 80 80 0 1 1 0 160zm0-128a48 48 0 1 0 0 96 48 48 0 1 0 0-96z"/></svg>