<svg xmlns="http://www.w3.org/2000/svg" viewBox="0 0 640 512"><!--! Font Awesome Pro 7.2.0 by @fontawesome - https://fontawesome.com License - https://fontawesome.com/license (Commercial License) Copyright 2026 Fonticons, Inc. --><path fill="currentColor" d="M48 32c28.6 0 53.7 15.1 67.8 37.7 17.5-22.9 45.1-37.7 76.2-37.7 33.4 0 62.8 17.1 80 43 17.2-25.9 46.6-43 80-43 53 0 96 43 96 96l0 352 43.1 0 94.5-96-41.7 0 0-32 96 0 0 96-32 0 0-41.1-98.8 100.3-4.7 4.8-88.5 0 0-384c0-35.3-28.7-64-64-64s-64 28.7-64 64l0 352-32 0 0-352c0-35.3-28.7-64-64-64s-64 28.7-64 64l0 352-32 0 0-368c0-26.5-21.5-48-48-48l-16 0 0-32 16 0z"/></svg>