<svg xmlns="http://www.w3.org/2000/svg" viewBox="0 0 576 512"><!--! Font Awesome Pro 7.2.0 by @fontawesome - https://fontawesome.com License - https://fontawesome.com/license (Commercial License) Copyright 2026 Fonticons, Inc. --><path fill="currentColor" d="M304 544l-32 0 0-112 32 0 0 112zM174.9 391.8l-79.2 79.2-22.6-22.6 79.2-79.2 22.6 22.6zM503 448.3l-22.6 22.6-79.2-79.2 22.6-22.6 79.2 79.2zM288 384a128 128 0 1 1 0-256 128 128 0 1 1 0 256zm0-224a96 96 0 1 0 0 192 96 96 0 1 0 0-192zM112 272l-112 0 0-32 112 0 0 32zm464 0l-112 0 0-32 112 0 0 32zM174.9 120.2L152.2 142.9 73 63.7 95.7 41 174.9 120.2zM503 63.7l-79.2 79.2-22.6-22.6 79.2-79.2 22.6 22.6zM304 80l-32 0 0-112 32 0 0 112z"/></svg>