<svg xmlns="http://www.w3.org/2000/svg" viewBox="0 0 640 512"><!--! Font Awesome Pro 7.2.0 by @fontawesome - https://fontawesome.com License - https://fontawesome.com/license (Commercial License) Copyright 2026 Fonticons, Inc. --><path fill="currentColor" d="M333.8-24.2l60.5 101 114.2-28.6 25.9-6.5-6.5 25.9-28.6 114.2 101 60.5 22.9 13.7c-2.3 1.3-43.6 26.1-123.9 74.2l28.6 114.2 6.5 25.9-25.9-6.5-114.2-28.6c-48.1 80.4-72.9 121.6-74.2 123.9l-13.7-22.9-60.5-101-114.2 28.6-25.9 6.5 6.5-25.9 28.6-114.2-101-60.5-22.9-13.7 22.9-13.7 101-60.5-28.6-114.2-6.5-25.9 25.9 6.5 114.2 28.6 60.5-101 13.7-22.9 13.7 22.9zM267.2 103.4l-6.1 10.2-11.5-2.9-99.8-25 25 99.8 2.9 11.5-10.2 6.1-88.3 52.9 88.3 52.9 10.2 6.1-2.9 11.5-25 99.8 99.8-25 11.5-2.9 6.1 10.2 52.9 88.3 52.9-88.3 6.1-10.2 11.5 2.9 99.8 25-25-99.8-2.9-11.5 10.2-6.1 88.3-52.9-88.3-52.9-10.2-6.1 2.9-11.5 25-99.8-99.8 25-11.5 2.9-6.1-10.2-52.9-88.3-52.9 88.3zM319.9 368a112 112 0 1 1 .3-224 112 112 0 1 1 -.3 224zm.3-192a80 80 0 1 0 -.3 160 80 80 0 1 0 .3-160z"/></svg>