<svg xmlns="http://www.w3.org/2000/svg" viewBox="0 0 576 512"><!--! Font Awesome Pro 7.2.0 by @fontawesome - https://fontawesome.com License - https://fontawesome.com/license (Commercial License) Copyright 2026 Fonticons, Inc. --><path fill="currentColor" d="M544.1 512l-512 0 0-32 512 0 0 32zM408 210.3l17.3 116.4 116.5 17.3 26.4 3.9c-5.5 7.4-26.3 35.4-62.4 84l-39.8 0 44.7-60.2-101.8-15.1-11.7-1.7-1.7-11.8-15.1-101.8-82.6 61.3-9.5 7.1-9.5-7.1-82.7-61.3-15.1 101.8-1.7 11.7-11.7 1.7-101.8 15.1 44.7 60.2-39.8 0-46.4-62.6-15.9-21.4 26.4-3.9 116.4-17.3 17.3-116.4 3.9-26.4c2.1 1.6 40.8 30.3 116 86l94.6-70.1 21.4-15.9 3.9 26.4zM245.2 360.5c57.1-23.7 122.6 3.5 146.3 60.6 1.5 3.6 2.8 7.2 3.9 10.9l-34.1 0c-17.4-39.9-63.6-58.7-103.9-41.9-19.9 8.2-34.6 23.6-42.6 41.9l-34.1 0c9.3-31.2 32.1-58.1 64.5-71.5zM374.7 64l-22.6 22.6-48-48 0 153.4-32 0 0-153.4-48 48-22.6-22.6 86.6-86.6 86.6 86.6z"/></svg>