<svg xmlns="http://www.w3.org/2000/svg" viewBox="0 0 576 512"><!--! Font Awesome Pro 7.2.0 by @fontawesome - https://fontawesome.com License - https://fontawesome.com/license (Commercial License) Copyright 2026 Fonticons, Inc. --><path fill="currentColor" d="M288 96c35.3 0 64 28.7 64 64 0 29.8-20.4 54.8-48 61.9l0 290.1-32 0 0-290.1c-27.6-7.1-48-32.1-48-61.9 0-35.3 28.7-64 64-64zM128.4 9.6c30.7 42.2 48.8 94.2 48.8 150.4s-18.1 108.1-48.8 150.3l-27.9-16c28.1-37.4 44.8-84 44.8-134.4S128.6 63 100.5 25.6l27.9-16zm347.1 16c-28.1 37.4-44.8 84-44.8 134.4s16.7 96.9 44.8 134.4l-27.9 16c-30.7-42.2-48.8-94.2-48.8-150.3S416.9 51.9 447.6 9.6l27.9 16zM44.3 57.7c23.1 27.7 37 63.4 37 102.3s-13.9 74.6-37 102.3L16 246.1c20.7-22.7 33.3-52.9 33.3-86.1S36.7 96.6 16 73.9L44.3 57.7zM560 73.9c-20.7 22.7-33.3 53-33.3 86.1s12.6 63.4 33.3 86.1l-28.3 16.2c-23.1-27.7-37-63.4-37-102.3s13.9-74.6 37-102.3L560 73.9zM288 128a32 32 0 1 0 0 64 32 32 0 1 0 0-64z"/></svg>