<svg xmlns="http://www.w3.org/2000/svg" viewBox="0 0 512 512"><!--! Font Awesome Pro 7.2.0 by @fontawesome - https://fontawesome.com License - https://fontawesome.com/license (Commercial License) Copyright 2026 Fonticons, Inc. --><path fill="currentColor" d="M320.1 96l32 0 96 96 0 320-384 0 0-416 64 0 0-96 192 0 0 96zM96.1 480l320 0 0-274.8-77.3-77.2-242.7 0 0 352zM374.7 240l-38.6 38.6 0 82.8 38.6 38.6-22.6 22.6-38.6-38.6-114.8 0-38.6 38.6-22.6-22.6 38.6-38.6 0-82.8-38.6-38.6 22.6-22.6 38.6 38.6 114.8 0 38.6-38.6 22.6 22.6zM208.1 352l96 0 0-64-96 0 0 64zM494.7 136l-22.6 22.6-86.6-86.6 22.6-22.6 86.6 86.6zM160.1 96l128 0 0-64-128 0 0 64z"/></svg>