<svg xmlns="http://www.w3.org/2000/svg" viewBox="0 0 576 512"><!--! Font Awesome Pro 7.2.0 by @fontawesome - https://fontawesome.com License - https://fontawesome.com/license (Commercial License) Copyright 2026 Fonticons, Inc. --><path fill="currentColor" d="M424 305.4c2.7-1.9 6.3-1.9 9.1 0l140 96c3.6 2.5 4.6 7.5 2.1 11.1s-7.5 4.6-11.1 2.1L428.5 321.7 293 414.6c-2.7 1.9-6.3 1.9-9.1 0L148.5 321.7 13 414.6c-3.6 2.5-8.6 1.6-11.1-2.1S.3 403.9 4 401.4l140-96c2.7-1.9 6.3-1.9 9.1 0L288.5 398.3 424 305.4zm0-208c2.7-1.9 6.3-1.9 9.1 0l140 96c3.6 2.5 4.6 7.5 2.1 11.1s-7.5 4.6-11.1 2.1L428.5 113.7 293 206.6c-2.7 1.9-6.3 1.9-9.1 0L148.5 113.7 13 206.6c-3.6 2.5-8.6 1.6-11.1-2.1S.3 195.9 4 193.4l140-96c2.7-1.9 6.3-1.9 9.1 0L288.5 190.3 424 97.4z"/></svg>