<svg xmlns="http://www.w3.org/2000/svg" viewBox="0 0 512 512"><!--! Font Awesome Pro 7.2.0 by @fontawesome - https://fontawesome.com License - https://fontawesome.com/license (Commercial License) Copyright 2026 Fonticons, Inc. --><path fill="currentColor" d="M416.5 0c24.6 0 49.1 9.4 67.9 28.1 37.5 37.5 37.5 98.3 0 135.7l-25.8 25.8c-3.1 3.1-8.2 3.1-11.3 0s-3.1-8.2 0-11.3l25.8-25.8c31.2-31.2 31.2-81.9 0-113.1-15.6-15.6-36.1-23.4-56.6-23.4-42.2 0-78.1 30.6-84.8 72.2l-67.3 417c-.6 3.9-4 6.7-7.9 6.7s-7.3-2.8-7.9-6.7l-67.2-417C174.6 46.6 138.7 16 96.5 16 76 16 55.6 23.8 39.9 39.4 8.7 70.7 8.7 121.3 39.9 152.6l25.8 25.8c3.1 3.1 3.1 8.2 0 11.3-3.1 3.1-8.2 3.1-11.3 0L28.6 163.9C-8.9 126.4-8.9 65.6 28.6 28.1 47.4 9.4 71.9 0 96.5 0 146.5 0 189.2 36.3 197.1 85.7l59.4 368 59.4-368C323.8 36.3 366.5 0 416.5 0z"/></svg>