<svg xmlns="http://www.w3.org/2000/svg" viewBox="0 0 512 512"><!--! Font Awesome Pro 7.2.0 by @fontawesome - https://fontawesome.com License - https://fontawesome.com/license (Commercial License) Copyright 2026 Fonticons, Inc. --><path fill="currentColor" d="M256 0C397.4 0 512 114.6 512 256S397.4 512 256 512c-103 0-191.8-60.8-232.4-148.5-1.9-4-.1-8.8 3.9-10.6s8.8-.1 10.6 3.9C76.2 439 159.5 496 256 496 388.5 496 496 388.5 496 256S388.5 16 256 16C191.5 16 129.7 41.6 84.1 87.2L13.7 157.7c-2.3 2.3-5.7 3-8.7 1.8S0 155.2 0 152L0 8C0 3.6 3.6 0 8 0s8 3.6 8 8l0 124.7 56.8-56.8C121.4 27.3 187.3 0 256 0zM180.4 160.8c2.5-1.2 5.4-1.1 7.8 .3s3.8 4 3.8 6.8l0 176c0 4.4-3.6 8-8 8s-8-3.6-8-8l0-163.1-36.4 18.2c-3.9 2-8.7 .4-10.7-3.6s-.4-8.7 3.6-10.7l48-24zM352 160c4.4 0 8 3.6 8 8s-3.6 8-8 8l-96 0 0 64 56 0c30.9 0 56 25.1 56 56s-25.1 56-56 56l-64 0c-4.4 0-8-3.6-8-8s3.6-8 8-8l64 0c22.1 0 40-17.9 40-40s-17.9-40-40-40l-64 0c-4.4 0-8-3.6-8-8l0-80c0-4.4 3.6-8 8-8l104 0z"/></svg>