<svg xmlns="http://www.w3.org/2000/svg" viewBox="0 0 576 512"><!--! Font Awesome Pro 7.2.0 by @fontawesome - https://fontawesome.com License - https://fontawesome.com/license (Commercial License) Copyright 2026 Fonticons, Inc. --><path fill="currentColor" d="M558.5-23.7c2.7-.7 5.6 .1 7.6 2.1s2.8 4.9 2.1 7.6l-32 128c-.7 2.8-2.9 5-5.6 5.8-2.8 .8-5.8 0-7.8-2.1l-42.3-42.3-319.1 319.1 14.9 59.6c.7 2.7-.1 5.6-2.1 7.6l-64 64c-2 2-5 2.8-7.8 2.1-2.8-.8-4.9-3-5.6-5.8l-14.8-59.4-59.3-14.8c-2.8-.7-5-2.8-5.8-5.6s0-5.7 2.1-7.8l64-64 1.7-1.3c1.8-1 3.9-1.4 5.9-.8L150 383.1 469.1 64 426.8 21.7c-2-2-2.8-5-2.1-7.8s3-4.9 5.8-5.6l128-32zM40.1 435.7l50.3 12.6 2 .8c1.9 1.1 3.2 2.9 3.8 5l12.6 50.3 50.8-50.8-13.7-55-55-13.7-50.8 50.8zm408-415.3L486 58.2c.1 .1 .1 .1 .2 .2s.1 .1 .1 .2L524.1 96.3 549.5-5 448.1 20.3z"/></svg>