<svg xmlns="http://www.w3.org/2000/svg" viewBox="0 0 512 512"><!--! Font Awesome Pro 7.2.0 by @fontawesome - https://fontawesome.com License - https://fontawesome.com/license (Commercial License) Copyright 2026 Fonticons, Inc. --><path fill="currentColor" d="M504 0c4.4 0 8 3.6 8 8l0 144c0 3.2-1.9 6.2-4.9 7.4s-6.4 .5-8.7-1.8L427.9 87.2C382.3 41.6 320.5 16 256 16 123.5 16 16 123.5 16 256S123.5 496 256 496c96.5 0 179.8-57 217.9-139.2 1.9-4 6.6-5.7 10.6-3.9s5.7 6.6 3.9 10.6C447.8 451.2 359 512 256 512 114.6 512 0 397.4 0 256S114.6 0 256 0c68.7 0 134.6 27.3 183.2 75.9L496 132.7 496 8c0-4.4 3.6-8 8-8zM180 160c28.7 0 52 23.3 52 52 0 18.6-9.8 34.8-24.4 44 14.6 9.2 24.4 25.4 24.4 44 0 28.7-23.3 52-52 52l-52 0c-4.4 0-8-3.6-8-8s3.6-8 8-8l52 0c19.9 0 36-16.1 36-36s-16.1-36-36-36l-44 0c-4.4 0-8-3.6-8-8s3.6-8 8-8l44 0c19.9 0 36-16.1 36-36s-16.1-36-36-36l-52 0c-4.4 0-8-3.6-8-8s3.6-8 8-8l52 0zm156 0c30.9 0 56 25.1 56 56l0 80c0 30.9-25.1 56-56 56l-16 0c-30.9 0-56-25.1-56-56l0-80c0-30.9 25.1-56 56-56l16 0zm-16 16c-22.1 0-40 17.9-40 40l0 80c0 22.1 17.9 40 40 40l16 0c22.1 0 40-17.9 40-40l0-80c0-22.1-17.9-40-40-40l-16 0z"/></svg>