<svg xmlns="http://www.w3.org/2000/svg" viewBox="0 0 512 512"><!--! Font Awesome Pro 7.2.0 by @fontawesome - https://fontawesome.com License - https://fontawesome.com/license (Commercial License) Copyright 2026 Fonticons, Inc. --><path fill="currentColor" d="M232.1 0c30.9 0 56 25.1 56 56l0 32c0 48.6-39.4 88-88 88l-32 0 9.2 101.1c44.2-33.3 99.2-53.1 158.8-53.1 66.3 0 127 24.5 173.3 64.9 3.3 2.9 3.7 8 .8 11.3-2.9 3.3-8 3.7-11.3 .8-43.6-38-100.5-60.9-162.8-60.9-59.6 0-114.3 21-157.1 56.1l5 55.2c.4 4.4-2.9 8.3-7.2 8.7s-8.3-2.9-8.7-7.2L147.3 123.6C145.2 100.2 163.6 80 187.1 80l13 0c4.4 0 8 3.6 8 8s-3.6 8-8 8l-13 0c-14.1 0-25.2 12.1-23.9 26.2l3.4 37.8 33.4 0c39.8 0 72-32.2 72-72l0-32c0-22.1-17.9-40-40-40L117.9 16c-32.8 0-61.1 22.1-67.5 53.8-14.1 69.5-34.3 190.2-34.3 314.2 0 61.8 50 111.8 111.8 112L503.4 464c4.4-.4 8.3 2.9 8.7 7.3s-2.9 8.3-7.3 8.7l-376 32-.3 0-.3 0C57.4 512 .1 454.7 .1 384 .1 258.5 20.4 136.6 34.7 66.6 42.7 27 77.9 0 117.9 0L232.1 0z"/></svg>