<svg xmlns="http://www.w3.org/2000/svg" viewBox="0 0 512 512"><!--! Font Awesome Pro 7.2.0 by @fontawesome - https://fontawesome.com License - https://fontawesome.com/license (Commercial License) Copyright 2026 Fonticons, Inc. --><path fill="currentColor" d="M67.3 434.8c-.8 2.8 0 5.8 2 7.8 2 2 5.1 2.9 7.8 2.1l59.8-16.9 2.4-.6c12.2-2.1 24.2 5.5 27.3 17.7L182 505.3c.7 2.8 2.9 5 5.7 5.8 2.8 .7 5.8-.1 7.8-2.2l43.3-44.5 1.8-1.7c9.5-7.9 23.7-7.3 32.5 1.7l43.3 44.5c2 2.1 5 2.9 7.8 2.2 2.8-.8 5-3 5.7-5.8l15.3-60.2 .8-2.4c4.3-11.6 16.9-18.2 29-14.8l59.8 16.9c2.8 .8 5.8 0 7.8-2s2.8-5 2.1-7.8l-9.8-34.8 16.6 0 8.6 30.5c2.4 8.4 0 17.4-6.1 23.5l-2.5 2.1c-5.9 4.5-13.7 6.1-21 4l-59.8-16.9c-4.3-1.2-8.8 1.4-9.9 5.7l-15.3 60.2-1 3.1c-2.8 6.9-8.7 12.2-16.1 14.2s-15.1 .3-21-4.3l-2.4-2.2-43.3-44.5c-3.1-3.2-8.3-3.2-11.4 0l-43.3 44.5-2.4 2.2c-5 4-11.5 5.7-17.8 4.9l-3.2-.6c-8.4-2.2-14.9-8.9-17.1-17.3l-15.2-60.2c-1.1-4.3-5.6-6.9-9.9-5.7l-59.8 16.9-3.2 .6c-7.4 1.1-15-1.4-20.3-6.7-5.4-5.4-7.8-12.9-6.8-20.3l.7-3.2 8.6-30.5 16.6 0-9.8 34.8zM136 160c4.4 0 8 3.6 8 8l0 176c0 3.6-2.3 6.7-5.8 7.7s-7.1-.4-9-3.4L32 195.4 32 344c0 4.4-3.6 8-8 8s-8-3.6-8-8l0-176c0-3.6 2.3-6.7 5.8-7.7s7.1 .4 9 3.4L128 316.5 128 168c0-4.4 3.6-8 8-8zm168 0c4.4 0 8 3.6 8 8s-3.6 8-8 8l-104 0 0 72 88 0c4.4 0 8 3.6 8 8s-3.6 8-8 8l-88 0 0 72 104 0c4.4 0 8 3.6 8 8s-3.6 8-8 8l-112 0c-4.4 0-8-3.6-8-8l0-176c0-4.4 3.6-8 8-8l112 0zm184 0c4.4 0 8 3.6 8 8l0 78.8c0 12.4-2.6 24.7-7.8 36.1l-29 64.3c-1.3 2.9-4.1 4.7-7.3 4.7-2.4 0-4.6-1-6.1-2.8l-1.2-1.9-28.7-63.8-28.7 63.8c-1.3 2.9-4.1 4.7-7.3 4.7-2.4 0-4.6-1-6.1-2.8l-1.2-1.9-29-64.3c-5.1-11.3-7.7-23.7-7.8-36.1l0-78.8c0-4.4 3.6-8 8-8s8 3.6 8 8l0 78.8c0 10.2 2.2 20.2 6.3 29.5l21.7 48.2 28.7-63.8c1.3-2.9 4.1-4.7 7.3-4.7s6 1.8 7.3 4.7l28.7 63.8 21.7-48.2c4.2-9.3 6.3-19.4 6.3-29.5l0-78.8c0-4.4 3.6-8 8-8zM305.1-8c6.1-6.2 15-8.7 23.4-6.5s14.9 8.9 17.1 17.3l15.2 60.2c1 3.8 4.5 6.2 8.3 6l1.6-.3 59.8-16.9c8.4-2.4 17.4 0 23.5 6.1s8.4 15.1 6.1 23.5l-8.6 30.5-16.6 0 9.8-34.8c.8-2.8 0-5.8-2-7.8-2-2-5-2.8-7.8-2L375.1 84.2c-13 3.7-26.5-4.1-29.8-17.2L330 6.8c-.7-2.8-2.9-5-5.7-5.8s-5.8 .1-7.8 2.2L273.2 47.7c-9.4 9.7-25 9.7-34.4 0L195.5 3.2c-2-2.1-5-2.9-7.8-2.2s-4.9 3-5.7 5.8L166.7 67c-3.3 13.1-16.8 20.9-29.8 17.2L77.2 67.3c-2.8-.8-5.8 0-7.8 2s-2.8 5.1-2 7.8l9.8 34.8-16.6 0-8.6-30.5c-2.4-8.4 0-17.4 6.1-23.5s15.1-8.5 23.5-6.1l59.8 16.9c3.8 1.1 7.7-.8 9.4-4.2l.6-1.6 15.2-60.2c2.1-8.4 8.7-15 17.1-17.3s17.3 .2 23.4 6.4l43.3 44.5c2.7 2.8 7.1 3.2 10.2 1.1l1.3-1.1 43.3-44.5z"/></svg>