<svg xmlns="http://www.w3.org/2000/svg" viewBox="0 0 448 512"><!--! Font Awesome Pro 7.2.0 by @fontawesome - https://fontawesome.com License - https://fontawesome.com/license (Commercial License) Copyright 2026 Fonticons, Inc. --><path fill="currentColor" d="M400 0c26.5 0 48 21.5 48 48l0 456c0 4.4-3.6 8-8 8s-8-3.6-8-8l0-24-416 0 0 24c0 4.4-3.6 8-8 8s-8-3.6-8-8L0 48C0 21.5 21.5 0 48 0L400 0zM16 288l0 176 416 0 0-176-416 0zm248 64c4.4 0 8 3.6 8 8s-3.6 8-8 8l-80 0c-4.4 0-8-3.6-8-8s3.6-8 8-8l80 0zM16 272l192 0 0-112-192 0 0 112zm208 0l208 0 0-112-208 0 0 112zM48 16C30.3 16 16 30.3 16 48l0 96 192 0 0-128-160 0zM224 144l208 0 0-96c0-17.7-14.3-32-32-32l-176 0 0 128z"/></svg>