<svg xmlns="http://www.w3.org/2000/svg" viewBox="0 0 640 512"><!--! Font Awesome Pro 7.2.0 by @fontawesome - https://fontawesome.com License - https://fontawesome.com/license (Commercial License) Copyright 2026 Fonticons, Inc. --><path fill="currentColor" d="M208.1 192c43.1 0 80.4 24.4 99.2 60.1 14.7-17.2 36.5-28.1 60.8-28.1 44.2 0 80 35.8 80 80 0 5.5-.7 10.9-1.8 16.1 .6 0 1.2-.1 1.8-.1 53 0 96 43 96 96s-43 96-96 96l-320 0c-53 0-96-43-96-96 0-42.5 27.7-78.6 66-91.2-1.3-6.8-2-13.7-2-20.8 0-61.9 50.1-112 112-112zm0 16c-53 0-96 43-96 96 0 8.5 1.1 16.7 3.2 24.5 .5 2.1 .2 4.3-.9 6.1s-2.9 3.2-5 3.7c-35.2 8.4-61.3 40-61.3 77.7 0 44.2 35.8 80 80 80l320 0c44.2 0 80-35.8 80-80s-35.8-80-80-80c-3.8 0-7.6 .3-11.4 .9-2.8 .4-5.6-.7-7.3-2.9s-2.3-5.2-1.3-7.8c2.6-7 4.1-14.4 4.1-22.2 0-35.3-28.7-64-64-64-23.7 0-44.4 12.9-55.4 32.1-1.6 2.7-4.5 4.2-7.6 4s-5.7-2.3-6.8-5.2c-13.5-36.7-48.8-62.8-90.1-62.8zm192-239.6c4.7 0 10 2 13.3 6.8L460.7 45.7 544 29.4c5.7-1.1 10.9 1.2 14.2 4.5s5.6 8.5 4.5 14.2l-16.3 83.3 70.4 47.4c4.8 3.2 6.8 8.5 6.8 13.2s-2 10-6.8 13.2l-70.4 47.4 14.4 73.9c-6.1-7.7-13-14.7-20.5-21l-10.7-55c-.6-3.2 .7-6.4 3.4-8.2l74.6-50.4-74.6-50.2c-2.7-1.8-4-5-3.4-8.2l17.1-88.4-88.2 17.2c-3.2 .6-6.4-.7-8.2-3.4L400.2-15.6 349.8 59c-.9 1.3-2.2 2.3-3.6 2.9s-3 .8-4.6 .5l-88.4-17.1 17.3 88.2c.6 3.2-.7 6.4-3.4 8.2l-13.3 8.9c-7-2.1-14.2-3.7-21.5-4.8l21.5-14.4-16.2-83.3c-1.1-5.7 1.2-10.9 4.5-14.2s8.5-5.6 14.2-4.5l83.3 16.3 47.4-70.4c3.2-4.8 8.5-6.8 13.2-6.8zm0 143.6c44.2 0 80 35.8 80 80 0 13.1-3.2 25.5-8.7 36.4-3.5-4.8-7.3-9.3-11.4-13.6 2.7-7.1 4.2-14.8 4.2-22.8 0-35.3-28.7-64-64-64-31.2 0-57.1 22.3-62.8 51.7-5.8 1.4-11.4 3.3-16.9 5.5 3.4-41 37.8-73.2 79.7-73.2z"/></svg>