<svg xmlns="http://www.w3.org/2000/svg" viewBox="0 0 576 512"><!--! Font Awesome Pro 7.2.0 by @fontawesome - https://fontawesome.com License - https://fontawesome.com/license (Commercial License) Copyright 2026 Fonticons, Inc. --><path fill="currentColor" d="M544 64c17.7 0 32 14.3 32 32l0 48c0 17.7-14.3 32-32 32l0 264c0 4.4-3.6 8-8 8s-8-3.6-8-8l0-72-256 0 0 72c0 4.4-3.6 8-8 8s-8-3.6-8-8l0-264-208 0 0 264c0 4.4-3.6 8-8 8s-8-3.6-8-8l0-264c-17.7 0-32-14.3-32-32L0 96C0 78.3 14.3 64 32 64l512 0zM272 176l0 176 256 0 0-176-256 0zm168 80c4.4 0 8 3.6 8 8s-3.6 8-8 8l-80 0c-4.4 0-8-3.6-8-8s3.6-8 8-8l80 0zM32 80c-8.8 0-16 7.2-16 16l0 48c0 8.8 7.2 16 16 16l512 0c8.8 0 16-7.2 16-16l0-48c0-8.8-7.2-16-16-16L32 80z"/></svg>