<svg xmlns="http://www.w3.org/2000/svg" viewBox="0 0 384 512"><!--! Font Awesome Pro 7.2.0 by @fontawesome - https://fontawesome.com License - https://fontawesome.com/license (Commercial License) Copyright 2026 Fonticons, Inc. --><path fill="currentColor" d="M336 0c26.5 0 48 21.5 48 48l0 456c0 4.4-3.6 8-8 8s-8-3.6-8-8l0-24-352 0 0 24c0 4.4-3.6 8-8 8s-8-3.6-8-8L0 48C0 21.5 21.5 0 48 0L336 0zM16 304l0 160 352 0 0-160-352 0zm216 48c4.4 0 8 3.6 8 8s-3.6 8-8 8l-80 0c-4.4 0-8-3.6-8-8s3.6-8 8-8l80 0zM16 288l352 0 0-144-352 0 0 144zm216-96c4.4 0 8 3.6 8 8s-3.6 8-8 8l-80 0c-4.4 0-8-3.6-8-8s3.6-8 8-8l80 0zM48 16C30.3 16 16 30.3 16 48l0 80 352 0 0-80c0-17.7-14.3-32-32-32L48 16z"/></svg>