<svg xmlns="http://www.w3.org/2000/svg" viewBox="0 0 640 512"><!--! Font Awesome Pro 7.2.0 by @fontawesome - https://fontawesome.com License - https://fontawesome.com/license (Commercial License) Copyright 2026 Fonticons, Inc. --><path fill="currentColor" d="M299.9-13.2c9.3-15.5 31.9-15.5 41.2 0l49 81.8c-4.8 2.3-9.5 4.9-14.2 7.6L327.4-5c-3.1-5.2-10.6-5.2-13.7 0L262.9 79.6c-5.4 9.1-16.2 13.5-26.4 10.9l-95.7-24c-5.9-1.5-11.2 3.9-9.7 9.7l24 95.7c2.6 10.3-1.9 21-10.9 26.4L59.5 249.1c-5.2 3.1-5.2 10.6 0 13.8l84.7 50.7c9.1 5.4 13.5 16.2 10.9 26.4l-24 95.7c-1.5 5.9 3.9 11.2 9.7 9.7l95.7-24c10.3-2.6 21 1.9 26.4 10.9L313.6 517c3.1 5.2 10.6 5.2 13.7 0L376 435.8c4.6 2.7 9.3 5.2 14.2 7.6l-49 81.8c-9.3 15.5-31.9 15.5-41.2 0l-50.7-84.6c-1.8-3-5.4-4.5-8.8-3.7l-95.7 24c-17.6 4.4-33.5-11.5-29.1-29.1l24-95.7c.8-3.4-.6-7-3.7-8.8L51.3 276.6c-15.5-9.3-15.5-31.9 0-41.2l84.6-50.7c3-1.8 4.5-5.4 3.7-8.8l-24-95.7c-4.4-17.6 11.5-33.5 29.1-29.1l95.7 24c3.4 .8 7-.6 8.8-3.7l50.7-84.6zM480.5 416a160 160 0 1 1 0-320 160 160 0 1 1 0 320zm0-304a144 144 0 1 0 0 288 144 144 0 1 0 0-288zm-176 33.2c-3.8 6-7.3 12.2-10.5 18.6-40.1 11.5-69.6 48.4-69.6 92.2s29.4 80.7 69.6 92.2c3.2 6.4 6.7 12.6 10.5 18.6-54.3-7.8-96-54.4-96-110.8s41.7-103.1 96-110.8z"/></svg>