<svg xmlns="http://www.w3.org/2000/svg" viewBox="0 0 576 512"><!--! Font Awesome Pro 7.2.0 by @fontawesome - https://fontawesome.com License - https://fontawesome.com/license (Commercial License) Copyright 2026 Fonticons, Inc. --><path fill="currentColor" d="M3.5 249.8c3.4-2.8 8.5-2.2 11.2 1.2 1.3 1.5 7.7 9 18.3 19.3 12.2 11.7 30.4 27.4 53.9 43.1 47.1 31.4 115.6 62.7 201.6 62.7S443 344.7 490.1 313.3c23.5-15.7 41.7-31.4 53.9-43.1 10.7-10.2 17-17.7 18.3-19.3 2.8-3.4 7.8-4 11.3-1.2 3.4 2.8 4 7.9 1.2 11.3-1.6 1.9-8.5 10-19.7 20.7-12.8 12.3-31.6 28.6-56.1 44.9-.3 .2-.6 .3-.9 .5l45.5 78.9c2.2 3.8 .9 8.7-2.9 10.9s-8.7 .9-10.9-2.9l-45.2-78.3c-23.9 14.6-52.3 28.5-84.8 38.9l24.6 91.7c1.1 4.3-1.4 8.7-5.7 9.8-4.3 1.1-8.6-1.4-9.8-5.7l-24.5-91.4c-26.8 7.3-56.1 12-87.8 12.7l0 96.2c0 4.4-3.6 8-8 8s-8-3.6-8-8l0-96.2c-31.7-.7-61.1-5.4-87.8-12.7l-24.4 91.4c-1.1 4.3-5.5 6.8-9.8 5.7-4.3-1.1-6.8-5.5-5.7-9.8l24.6-91.7c-32.5-10.3-60.9-24.2-84.8-38.8L47.4 414.1c-2.2 3.8-7.1 5.1-10.9 2.9s-5.1-7.1-2.9-10.9L79 327.3c-.3-.2-.6-.4-1-.6-24.5-16.3-43.3-32.6-56.1-44.9-11.2-10.7-18.1-18.8-19.7-20.7-2.8-3.4-2.2-8.5 1.2-11.3z"/></svg>