<svg xmlns="http://www.w3.org/2000/svg" viewBox="0 0 512 512"><!--! Font Awesome Pro 7.2.0 by @fontawesome - https://fontawesome.com License - https://fontawesome.com/license (Commercial License) Copyright 2026 Fonticons, Inc. --><path fill="currentColor" d="M368 400c4.4 0 8 3.6 8 8l0 96c0 22.1-17.9 40-40 40s-40-17.9-40-40l0-16c0-4.4 3.6-8 8-8s8 3.6 8 8l0 16c0 13.3 10.7 24 24 24s24-10.7 24-24l0-96c0-4.4 3.6-8 8-8zm120 0c4.4 0 8 3.6 8 8s-3.6 8-8 8l-24 0c-13.3 0-24 10.7-24 24s10.7 24 24 24c22.1 0 40 17.9 40 40s-17.9 40-40 40l-32 0c-4.4 0-8-3.6-8-8s3.6-8 8-8l32 0c13.3 0 24-10.7 24-24s-10.7-24-24-24c-22.1 0-40-17.9-40-40s17.9-40 40-40l24 0zM235.8 .3c14.7 1.5 28.4 7.9 38.9 18.4L397.3 141.2c12 12 18.7 28.3 18.7 45.2l0 149.5-16 0 0-149.5c0-3.6-.4-7.1-1.2-10.5L296 176c-30.9 0-56-25.1-56-56l0-102.8c-3.4-.8-6.9-1.2-10.5-1.2L96 16C69.5 16 48 37.5 48 64l0 384c0 26.5 21.5 48 48 48l144 0 0 16-144 0c-35.3 0-64-28.7-64-64L32 64C32 28.7 60.7 0 96 0l133.5 0 6.3 .3zM256 120c0 22.1 17.9 40 40 40l96 0c-1.8-2.7-3.8-5.2-6.1-7.4L263.4 30.1c-2.3-2.3-4.8-4.3-7.4-6.1l0 96z"/></svg>