<svg xmlns="http://www.w3.org/2000/svg" viewBox="0 0 576 512"><!--! Font Awesome Pro 7.2.0 by @fontawesome - https://fontawesome.com License - https://fontawesome.com/license (Commercial License) Copyright 2026 Fonticons, Inc. --><path fill="currentColor" d="M208 400c4.4 0 8 3.6 8 8l0 128c0 4.4-3.6 8-8 8s-8-3.6-8-8l0-56-48 0 0 56c0 4.4-3.6 8-8 8s-8-3.6-8-8l0-128c0-4.4 3.6-8 8-8s8 3.6 8 8l0 56 48 0 0-56c0-4.4 3.6-8 8-8zm112 0c4.4 0 8 3.6 8 8s-3.6 8-8 8l-24 0 0 120c0 4.4-3.6 8-8 8s-8-3.6-8-8l0-120-24 0c-4.4 0-8-3.6-8-8s3.6-8 8-8l64 0zm146.1 .3c3.5 1 5.9 4.1 5.9 7.7l0 128c0 4.4-3.6 8-8 8s-8-3.6-8-8l0-99.1-33.1 55.2c-1.4 2.4-4.1 3.9-6.9 3.9s-5.4-1.5-6.9-3.9L376 436.9 376 536c0 4.4-3.6 8-8 8s-8-3.6-8-8l0-128c0-3.6 2.4-6.8 5.9-7.7s7.2 .5 9 3.6l41.1 68.5 41.1-68.5c1.8-3.1 5.5-4.5 9-3.6zM528 400c4.4 0 8 3.6 8 8l0 120 24 0c4.4 0 8 3.6 8 8s-3.6 8-8 8l-32 0c-4.4 0-8-3.6-8-8l0-128c0-4.4 3.6-8 8-8zM235.8 .3c14.7 1.5 28.4 7.9 38.9 18.4L397.3 141.2c12 12 18.7 28.3 18.7 45.2l0 149.5-16 0 0-149.5c0-3.6-.4-7.1-1.2-10.5L296 176c-30.9 0-56-25.1-56-56l0-102.8c-3.4-.8-6.9-1.2-10.5-1.2L96 16C69.5 16 48 37.5 48 64l0 384c0 20.9 13.4 38.6 32 45.2l0 16.7c-27.6-7.1-48-32.1-48-61.9L32 64C32 28.7 60.7 0 96 0l133.5 0 6.3 .3zM256 120c0 22.1 17.9 40 40 40l96 0c-1.8-2.7-3.8-5.2-6.1-7.4L263.4 30.1c-2.3-2.3-4.8-4.3-7.4-6.1l0 96z"/></svg>