<svg xmlns="http://www.w3.org/2000/svg" viewBox="0 0 576 512"><!--! Font Awesome Pro 7.2.0 by @fontawesome - https://fontawesome.com License - https://fontawesome.com/license (Commercial License) Copyright 2026 Fonticons, Inc. --><path fill="currentColor" d="M85.1 384c34.1 54 89.1 93.4 153.6 106.9-25.2-22.2-46.4-60.4-60.4-106.9l16.8 0c4.9 15.6 10.7 30.1 17.1 43.2 22.7 46.1 50.6 68.8 75.9 68.8s53.2-22.8 75.9-68.8c6.4-13.1 12.2-27.6 17.1-43.2l16.7 0c-14 46.5-35.2 84.7-60.4 106.9 64.6-13.5 119.6-52.9 153.7-106.9l18.7 0C465.4 460.5 382.7 512 288 512S110.6 460.5 66.3 384l18.7 0zM144 192c4.4 0 8 3.6 8 8l0 31.6c0 37.6-13.3 70.8-33.3 100.9-1.5 2.2-4 3.6-6.7 3.6s-5.2-1.3-6.7-3.6L91.1 311.1c-4.5-6.7-8.2-13.9-11.1-21.3-2.9 7.4-6.6 14.6-11.1 21.3L54.7 332.4c-1.5 2.2-4 3.6-6.7 3.6s-5.2-1.3-6.7-3.6C21.3 302.4 8 269.1 8 231.6L8 200c0-4.4 3.6-8 8-8s8 3.6 8 8l0 31.6c0 29.5 9.2 56.4 24.2 81.7l7.4-11.1c10.7-16 16.4-34.9 16.4-54.2 0-4.4 3.6-8 8-8s8 3.6 8 8c0 19.3 5.7 38.1 16.4 54.2l7.4 11.1c15-25.3 24.2-52.2 24.2-81.7l0-31.6c0-4.4 3.6-8 8-8zm208 0c4.4 0 8 3.6 8 8l0 31.6c0 37.6-13.3 70.8-33.3 100.9-1.5 2.2-4 3.6-6.7 3.6s-5.2-1.3-6.7-3.6l-14.2-21.4c-4.5-6.7-8.2-13.9-11.1-21.3-2.9 7.4-6.6 14.6-11.1 21.3l-14.2 21.4c-1.5 2.2-4 3.6-6.7 3.6s-5.2-1.3-6.7-3.6c-20-30.1-33.3-63.3-33.3-100.9l0-31.6c0-4.4 3.6-8 8-8s8 3.6 8 8l0 31.6c0 29.5 9.2 56.4 24.2 81.7l7.4-11.1c10.7-16 16.4-34.9 16.4-54.2 0-4.4 3.6-8 8-8s8 3.6 8 8c0 19.3 5.7 38.1 16.4 54.2l7.4 11.1c15-25.3 24.2-52.2 24.2-81.7l0-31.6c0-4.4 3.6-8 8-8zm208 0c4.4 0 8 3.6 8 8l0 31.6c0 37.6-13.3 70.8-33.3 100.9-1.5 2.2-4 3.6-6.7 3.6s-5.2-1.3-6.7-3.6l-14.2-21.4c-4.5-6.7-8.2-13.9-11.1-21.3-2.9 7.4-6.6 14.6-11.1 21.3l-14.2 21.4c-1.5 2.2-4 3.6-6.7 3.6s-5.2-1.3-6.7-3.6c-20-30.1-33.3-63.3-33.3-100.9l0-31.6c0-4.4 3.6-8 8-8s8 3.6 8 8l0 31.6c0 29.5 9.2 56.4 24.2 81.7l7.4-11.1c10.7-16 16.4-34.9 16.4-54.2 0-4.4 3.6-8 8-8s8 3.6 8 8c0 19.3 5.7 38.1 16.4 54.2l7.4 11.1c15-25.3 24.2-52.2 24.2-81.7l0-31.6c0-4.4 3.6-8 8-8zM288 0c94.7 0 177.4 51.5 221.7 128L491 128c-34.1-54-89.1-93.5-153.7-106.9 25.2 22.2 46.4 60.4 60.4 106.9L381 128C376 112.4 370.3 97.9 363.9 84.8 341.2 38.8 313.2 16 288 16s-53.2 22.8-75.9 68.8C205.7 97.9 200 112.4 195 128l-16.8 0c14-46.5 35.2-84.7 60.4-106.9-64.6 13.5-119.5 53-153.6 106.9l-18.7 0C110.6 51.5 193.3 0 288 0z"/></svg>