<svg xmlns="http://www.w3.org/2000/svg" viewBox="0 0 576 512"><!--! Font Awesome Pro 7.2.0 by @fontawesome - https://fontawesome.com License - https://fontawesome.com/license (Commercial License) Copyright 2026 Fonticons, Inc. --><path fill="currentColor" d="M512 64c35.3 0 64 28.7 64 64l0 256-.3 6.5c-3.1 30.1-27 54.1-57.1 57.1l-6.5 .3-448 0-6.5-.3c-30.1-3.1-54.1-27-57.1-57.1L0 384 0 128C0 92.7 28.7 64 64 64l448 0zM64 80c-24.9 0-45.3 18.9-47.8 43.1L16 128 16 384c0 26.5 21.5 48 48 48l448 0c26.5 0 48-21.5 48-48l0-256c0-26.5-21.5-48-48-48L64 80zm376 80c4.4 0 8 3.6 8 8l0 176c0 4.4-3.6 8-8 8s-8-3.6-8-8l0-176c0-4.4 3.6-8 8-8zM120 296a40 40 0 1 1 0-80 40 40 0 1 1 0 80zm112 0a40 40 0 1 1 0-80 40 40 0 1 1 0 80zm112 0a40 40 0 1 1 0-80 40 40 0 1 1 0 80zM120 232a24 24 0 1 0 0 48 24 24 0 1 0 0-48zm112 0a24 24 0 1 0 0 48 24 24 0 1 0 0-48zm112 0a24 24 0 1 0 0 48 24 24 0 1 0 0-48z"/></svg>