<svg xmlns="http://www.w3.org/2000/svg" viewBox="0 0 576 512"><!--! Font Awesome Pro 7.2.0 by @fontawesome - https://fontawesome.com License - https://fontawesome.com/license (Commercial License) Copyright 2026 Fonticons, Inc. --><path fill="currentColor" d="M23.8-8.6C48.3-33 87.9-33 112.4-8.6l59.3 59.3c3.8 3.8 6.7 8.6 8.2 13.8l26.7 91.3 2.9 9.8 169.3 169.3 9.9 2.9 91.3 26.7c5.2 1.5 10 4.3 13.8 8.2L553 432c24.4 24.4 24.4 64.1 0 88.5l-4.8 4.3c-22.9 18.7-56.1 18.7-79 0l-4.7-4.3-59.3-59.3c-3.8-3.8-6.7-8.6-8.2-13.8l-26.7-91.3-2.9-9.8-169.4-169.4-9.7-2.8-91.3-26.7c-3.9-1.1-7.6-3-10.8-5.5l-3-2.7-59.3-59.3C-.6 55.5-.6 15.9 23.8-8.6zM412.3 443c.8 2.6 2.2 5.1 4.2 7l59.3 59.3 3.5 3.2c18.3 14.9 45.3 13.9 62.4-3.2s18.1-44.1 3.2-62.4l-3.2-3.5-59.3-59.3c-1.9-1.9-4.4-3.4-7-4.2l-89.1-26 26 89.1zM154.5 214.3c-68 86.4-93 173.6-101.7 236.2-3.4 24.5 16.7 44.6 41.2 41.2 62.6-8.8 149.8-33.8 236.2-101.8l4.8 16.5c-80.8 62-162 88.1-223.9 98.8l-14.8 2.3c-35 4.9-64.1-24.2-59.2-59.2 8.9-63.5 34-151.4 101.1-238.8l16.5 4.8zm60.3 47.4l-5.6 5.7c-18.7 18.7-18.7 49.2 0 67.9 18.7 18.7 49.1 18.7 67.9 0l5.6-5.7 11.3 11.3-5.6 5.7c-25 25-65.5 25-90.5 0s-25-65.5 0-90.5l5.6-5.7 11.3 11.3zM487.1 4c32-.7 57.4 26.9 52.8 59.8l-2.3 14.8c-10.6 62-36.7 143.2-98.7 223.9l-16.5-4.8c68-86.4 93-173.6 101.7-236.2 3.4-24.5-16.7-44.6-41.2-41.2-62.6 8.8-149.8 33.8-236.2 101.7l-4.8-16.5C329.2 38.5 417.2 13.4 480.7 4.5l6.4-.5zM293.3 161.1c25.1-20.5 62.2-19 85.6 4.4 25 25 25 65.5 0 90.5l-5.7 5.7-11.3-11.3 5.7-5.7c18.7-18.7 18.7-49.1 0-67.9-18.7-18.7-49.1-18.7-67.9 0l-5.7 5.7-11.3-11.3 5.7-5.7 4.9-4.4zM101.1 2.8c-18.2-18.2-47.7-18.2-65.9 0S17 50.5 35.2 68.7l59.3 59.3 1.5 1.3c1.6 1.3 3.5 2.2 5.5 2.8l89.1 26-26-89.1c-.6-2-1.5-3.8-2.8-5.5L160.3 62 101.1 2.8z"/></svg>