<svg xmlns="http://www.w3.org/2000/svg" viewBox="0 0 576 512"><!--! Font Awesome Pro 7.2.0 by @fontawesome - https://fontawesome.com License - https://fontawesome.com/license (Commercial License) Copyright 2026 Fonticons, Inc. --><path fill="currentColor" d="M401.2 64c16.9 0 32.9 7.6 43.5 20.8L571.2 240.9c7.1 8.8 7.1 21.4 0 30.2L444.7 427.3c-10.6 13.1-26.6 20.7-43.5 20.7L96.5 448c-35.3 0-64-28.7-64-64l0-256c0-35.3 28.7-64 64-64l304.7 0zM96.5 80c-26.5 0-48 21.5-48 48l0 256c0 26.5 21.5 48 48 48l304.7 0c12.1 0 23.5-5.4 31.1-14.8l126.4-156.2 1.3-2.4c.6-1.7 .6-3.6 0-5.2L558.7 251 432.3 94.8c-7.6-9.4-19-14.8-31.1-14.8L96.5 80z"/></svg>