<svg xmlns="http://www.w3.org/2000/svg" viewBox="0 0 512 512"><!--! Font Awesome Pro 7.2.0 by @fontawesome - https://fontawesome.com License - https://fontawesome.com/license (Commercial License) Copyright 2026 Fonticons, Inc. --><path fill="currentColor" d="M498.1 314.2c8.5 3.9 13.9 12.4 13.9 21.8s-5.4 17.9-13.9 21.8l-218.6 101-5.7 2.2c-13.5 4.5-28.3 3.8-41.3-2.2L13.9 357.8C5.4 353.8 0 345.3 0 336 0 327.8 4.2 320.3 10.9 315.9l3-1.7 68.7-31.8 19.1 8.8-81.1 37.5C17.8 330 16 332.9 16 336s1.8 6 4.7 7.3l218.6 101c10.6 4.9 22.9 4.9 33.6 0l218.6-101c2.8-1.3 4.7-4.2 4.7-7.3s-1.8-5.9-4.7-7.3l-81.1-37.5 19.1-8.8 68.8 31.8zM232.5 53.2c14.9-6.9 32.1-6.9 47 0l218.6 101c8.5 3.9 13.9 12.4 13.9 21.8s-5.4 17.9-13.9 21.8l-218.6 101-5.7 2.2c-13.5 4.5-28.3 3.8-41.3-2.2L13.9 197.8C5.4 193.8 0 185.3 0 176 0 167.8 4.2 160.3 10.9 155.9l3-1.7 218.6-101zm40.3 14.5c-10.6-4.9-22.9-4.9-33.6 0L20.7 168.7C17.8 170 16 172.9 16 176s1.8 6 4.7 7.3l218.6 101c10.6 4.9 22.9 4.9 33.6 0l218.6-101c2.8-1.3 4.7-4.2 4.7-7.3s-1.8-5.9-4.7-7.2L272.8 67.7z"/></svg>