<svg xmlns="http://www.w3.org/2000/svg" viewBox="0 0 512 512"><!--! Font Awesome Pro 7.2.0 by @fontawesome - https://fontawesome.com License - https://fontawesome.com/license (Commercial License) Copyright 2026 Fonticons, Inc. --><path fill="currentColor" d="M230 1.3C101.1 14.6 .5 123.6 .5 256S101.1 497.4 230 510.6c6.8 .7 13.5-1.5 18.6-6s7.9-11 7.9-17.8l0-461.6c0-6.8-2.9-13.3-7.9-17.8S236.8 .6 230 1.3zM422.4 439.2c-3.1-2.8-7.7-2.8-10.9-.1-28.6 24.2-62.9 41.9-100.7 50.7-3.7 .9-6.4 4.1-6.4 7.9 0 5 4.6 8.8 9.4 7.7 40.7-9.3 77.7-28.3 108.4-54.4 3.6-3.1 3.6-8.6 .1-11.8zM231.7 17.2c1.7-.2 3.4 .2 4.8 1.1l1.4 1c1.7 1.5 2.6 3.7 2.6 5.9l0 461.6c0 2.3-1 4.4-2.6 5.9-1.6 1.5-3.9 2.2-6.2 2-120.9-12.4-215.2-114.6-215.2-238.7S110.8 29.7 231.7 17.2zM502.6 280c-4.1 0-7.6 3.1-8.1 7.2-5.1 38.9-19.4 75-40.8 105.7-2.4 3.4-1.9 8 1.1 10.8 3.5 3.2 9 2.7 11.7-1.2 23.1-33.1 38.6-71.8 43.9-113.8 .6-4.7-3.1-8.7-7.8-8.7zM466.4 109.5c-2.7-3.9-8.2-4.4-11.7-1.2-3 2.8-3.5 7.4-1.2 10.8 21.4 30.8 35.8 66.8 40.9 105.8 .5 4.1 4 7.2 8.1 7.2 4.7 0 8.4-4 7.8-8.7-5.3-42-20.8-80.7-43.9-113.8zM313.9 6.6c-4.9-1.1-9.4 2.7-9.4 7.7 0 3.8 2.7 7.1 6.4 7.9 37.8 8.7 72.1 26.4 100.7 50.7 3.2 2.7 7.8 2.7 10.9-.1 3.5-3.2 3.5-8.7-.1-11.8-30.7-26.1-67.8-45.1-108.4-54.4z"/></svg>