<svg xmlns="http://www.w3.org/2000/svg" viewBox="0 0 512 512"><!--! Font Awesome Pro 7.2.0 by @fontawesome - https://fontawesome.com License - https://fontawesome.com/license (Commercial License) Copyright 2026 Fonticons, Inc. --><path fill="currentColor" d="M242.8 .3C107.6 7.2 0 119 0 256S107.6 504.8 242.8 511.7L256 512c32.3 0 63.2-6.1 91.7-17 3.2-1.2 5.3-4.4 5.1-7.9s-2.6-6.4-5.9-7.3C248.4 453 176 363 176 256S248.4 59 346.9 32.2c3.3-.9 5.7-3.9 5.9-7.3s-1.9-6.6-5.1-7.9C319.2 6 288.3 0 256 0L242.8 .3zM256 16c21.9 0 43.1 3 63.2 8.5-93.1 35.7-159.2 125.9-159.2 231.5s66.1 195.8 159.2 231.5C299.1 493 277.9 496 256 496l-12.3-.3C116.8 489.3 16 384.4 16 256S116.8 22.7 243.7 16.3L256 16zM474.1 372.3c-3.8-1.6-8.2 0-10.2 3.6-17 29.4-40 54.9-67.4 74.7-3.6 2.6-4.4 7.6-1.8 11.2 2.6 3.6 7.6 4.4 11.2 1.8 29.4-21.2 54-48.5 72.2-80.1 2.4-4.1 .5-9.3-3.9-11.2zm29-183.2c-1.2-4.6-6.2-6.9-10.6-5.1-3.8 1.6-5.8 5.8-4.7 9.8 5.3 19.9 8.2 40.7 8.2 62.2 0 21.5-2.9 42.4-8.2 62.2-1.1 4 .9 8.2 4.8 9.8 4.4 1.8 9.4-.5 10.6-5.1 5.8-21.3 8.8-43.8 8.8-66.9 0-23.2-3.1-45.6-8.9-66.9zM405.8 48.4c-3.6-2.6-8.6-1.8-11.2 1.8-2.6 3.6-1.8 8.6 1.8 11.2 27.4 19.8 50.5 45.3 67.5 74.8 2.1 3.6 6.4 5.1 10.2 3.6 4.4-1.8 6.2-7 3.9-11.1-18.2-31.6-42.8-58.9-72.2-80.1z"/></svg>