<svg xmlns="http://www.w3.org/2000/svg" viewBox="0 0 512 512"><!--! Font Awesome Pro 7.2.0 by @fontawesome - https://fontawesome.com License - https://fontawesome.com/license (Commercial License) Copyright 2026 Fonticons, Inc. --><path fill="currentColor" d="M269.2 .3C404.4 7.2 512 119 512 256S404.4 504.8 269.2 511.7L256 512c-32.3 0-63.2-6.1-91.7-17-3.2-1.2-5.3-4.4-5.1-7.9s2.6-6.4 5.9-7.3C263.6 453 336 363 336 256S263.6 59 165.1 32.2c-3.3-.9-5.7-3.9-5.9-7.3s1.9-6.6 5.1-7.9C192.8 6 223.7 0 256 0l13.2 .3zM256 16C234.1 16 212.9 19 192.8 24.5 285.9 60.2 352 150.3 352 256S285.9 451.8 192.8 487.5c20.1 5.5 41.3 8.5 63.2 8.5l12.3-.3C395.2 489.3 496 384.4 496 256S395.2 22.7 268.3 16.3L256 16zM37.9 372.3c3.8-1.6 8.2 0 10.3 3.6 17 29.4 40 54.9 67.4 74.7 3.6 2.6 4.4 7.6 1.8 11.2-2.6 3.6-7.6 4.4-11.2 1.8-29.4-21.2-54-48.6-72.2-80.1-2.4-4.1-.5-9.3 3.9-11.1zM8.9 189.1c1.2-4.6 6.2-6.9 10.6-5.1 3.8 1.6 5.8 5.8 4.7 9.8-5.3 19.9-8.2 40.7-8.2 62.2s2.9 42.4 8.2 62.2c1.1 4-.9 8.2-4.8 9.8-4.4 1.8-9.4-.6-10.6-5.1-5.8-21.3-8.8-43.8-8.8-66.9 0-23.2 3.1-45.6 8.9-66.9zM106.2 48.4c3.6-2.6 8.6-1.8 11.2 1.8s1.8 8.6-1.8 11.2c-27.4 19.8-50.5 45.3-67.5 74.7-2.1 3.6-6.4 5.1-10.2 3.6-4.4-1.8-6.2-7-3.9-11.1 18.2-31.5 42.9-58.9 72.2-80.1z"/></svg>