<svg xmlns="http://www.w3.org/2000/svg" viewBox="0 0 576 512"><!--! Font Awesome Pro 7.2.0 by @fontawesome - https://fontawesome.com License - https://fontawesome.com/license (Commercial License) Copyright 2026 Fonticons, Inc. --><path fill="currentColor" d="M474.8-5.6c3.1-3.1 8.2-3.1 11.3 0l64 64c3.1 3.1 3.1 8.2 0 11.3-3.1 3.1-8.2 3.1-11.3 0L512.4 43.3 320 235.7 305.7 357.9c-1.1 8.9-5.1 17.2-11.4 23.6L148.1 527.7c-19.7 19.7-51.6 19.7-71.3 0l-60-60C-2.9 448-2.9 416 16.8 396.4L162.9 250.2c6.4-6.3 14.7-10.4 23.6-11.4L308.7 224.4 501.1 32 474.8 5.7c-3.1-3.1-3.1-8.2 0-11.3zM188.4 254.7c-5.3 .6-10.3 3-14.2 6.8L28.1 407.7c-13.4 13.4-13.4 35.2 0 48.7l60 60c13.4 13.4 35.2 13.4 48.7 0L282.9 370.2c3.8-3.8 6.2-8.8 6.8-14.2l13.5-114.9-114.9 13.6z"/></svg>