<svg xmlns="http://www.w3.org/2000/svg" viewBox="0 0 640 512"><!--! Font Awesome Pro 7.2.0 by @fontawesome - https://fontawesome.com License - https://fontawesome.com/license (Commercial License) Copyright 2026 Fonticons, Inc. --><path fill="currentColor" d="M576 64c35.3 0 64 28.7 64 64l0 256c0 35.3-28.7 64-64 64L64 448c-35.3 0-64-28.7-64-64L0 128C0 92.7 28.7 64 64 64l512 0zM64 80c-26.5 0-48 21.5-48 48l0 256c0 26.5 21.5 48 48 48l512 0c26.5 0 48-21.5 48-48l0-256c0-26.5-21.5-48-48-48L64 80zm136 80c4.4 0 8 3.6 8 8l0 176c0 3.5-2.3 6.7-5.8 7.7s-7.1-.4-9-3.4L96 195.4 96 344c0 4.4-3.6 8-8 8s-8-3.6-8-8l0-176c0-3.6 2.3-6.7 5.8-7.7s7.1 .4 9 3.4L192 316.5 192 168c0-4.4 3.6-8 8-8zm168 0c4.4 0 8 3.6 8 8s-3.6 8-8 8l-104 0 0 72 88 0c4.4 0 8 3.6 8 8s-3.6 8-8 8l-88 0 0 72 104 0c4.4 0 8 3.6 8 8s-3.6 8-8 8l-112 0c-4.4 0-8-3.6-8-8l0-176c0-4.4 3.6-8 8-8l112 0zm184 0c4.4 0 8 3.6 8 8l0 78.8c0 12.4-2.6 24.7-7.8 36.1l-29 64.3c-1.3 2.9-4.1 4.7-7.3 4.7-2.4 0-4.6-1-6.1-2.8l-1.2-1.9-28.7-63.8-28.7 63.8c-1.3 2.9-4.1 4.7-7.3 4.7-2.4 0-4.6-1-6.1-2.8l-1.2-1.9-29-64.3c-5.1-11.3-7.7-23.7-7.8-36.1l0-78.8c0-4.4 3.6-8 8-8s8 3.6 8 8l0 78.8c0 10.2 2.2 20.2 6.3 29.5l21.7 48.2 28.7-63.8c1.3-2.9 4.1-4.7 7.3-4.7s6 1.8 7.3 4.7l28.7 63.8 21.7-48.2c4.2-9.3 6.3-19.4 6.3-29.5l0-78.8c0-4.4 3.6-8 8-8z"/></svg>