<svg xmlns="http://www.w3.org/2000/svg" viewBox="0 0 512 512"><!--! Font Awesome Pro 7.2.0 by @fontawesome - https://fontawesome.com License - https://fontawesome.com/license (Commercial License) Copyright 2026 Fonticons, Inc. --><path fill="currentColor" d="M448 64c35.3 0 64 28.7 64 64l0 256-.3 6.5C508.4 422.8 481.1 448 448 448L64 448C30.9 448 3.6 422.8 .3 390.5L0 384 0 128C0 92.7 28.7 64 64 64l384 0zM64 80c-24.9 0-45.3 18.9-47.8 43.1L16 128 16 384c0 26.5 21.5 48 48 48l384 0c26.5 0 48-21.5 48-48l0-256c0-26.5-21.5-48-48-48L64 80zm226.1 48.3c4.3 1.1 6.8 5.5 5.7 9.8l-64 240c-1.1 4.3-5.5 6.8-9.8 5.7s-6.8-5.5-5.7-9.8l64-240c1.1-4.3 5.5-6.8 9.8-5.7zM184 160c4.4 0 8 3.6 8 8l0 176c0 3.6-2.3 6.7-5.8 7.7s-7.1-.4-9-3.4L80 195.4 80 344c0 4.4-3.6 8-8 8s-8-3.6-8-8l0-176c0-3.6 2.3-6.7 5.8-7.7s7.1 .4 9 3.4L176 316.5 176 168c0-4.4 3.6-8 8-8zm200 0c35.3 0 64 28.7 64 64l0 120c0 4.4-3.6 8-8 8s-8-3.6-8-8l0-72-96 0 0 72c0 4.4-3.6 8-8 8s-8-3.6-8-8l0-120c0-35.3 28.7-64 64-64zm0 16c-26.5 0-48 21.5-48 48l0 32 96 0 0-32c0-26.5-21.5-48-48-48z"/></svg>