<svg xmlns="http://www.w3.org/2000/svg" viewBox="0 0 512 512"><!--! Font Awesome Pro 7.2.0 by @fontawesome - https://fontawesome.com License - https://fontawesome.com/license (Commercial License) Copyright 2026 Fonticons, Inc. --><path fill="currentColor" d="M448 64c35.3 0 64 28.7 64 64l0 256-.3 6.5C508.4 422.8 481.1 448 448 448L64 448C30.9 448 3.6 422.8 .3 390.5L0 384 0 128C0 92.7 28.7 64 64 64l384 0zM64 80c-24.9 0-45.3 18.9-47.8 43.1L16 128 16 384c0 26.5 21.5 48 48 48l384 0c26.5 0 48-21.5 48-48l0-256c0-26.5-21.5-48-48-48L64 80zm72 80c35.3 0 64 28.7 64 64l0 120c0 4.4-3.6 8-8 8s-8-3.6-8-8l0-72-96 0 0 72c0 4.4-3.6 8-8 8s-8-3.6-8-8l0-120c0-35.3 28.7-64 64-64zm176 0c30.9 0 56 25.1 56 56s-25.1 56-56 56l-56 0 0 72c0 4.4-3.6 8-8 8s-8-3.6-8-8l0-176c0-4.4 3.6-8 8-8l64 0zm104 0c4.4 0 8 3.6 8 8l0 176c0 4.4-3.6 8-8 8s-8-3.6-8-8l0-176c0-4.4 3.6-8 8-8zM136 176c-26.5 0-48 21.5-48 48l0 32 96 0 0-32c0-26.5-21.5-48-48-48zm120 80l56 0c22.1 0 40-17.9 40-40s-17.9-40-40-40l-56 0 0 80z"/></svg>