<svg xmlns="http://www.w3.org/2000/svg" viewBox="0 0 640 512"><!--! Font Awesome Pro 7.2.0 by @fontawesome - https://fontawesome.com License - https://fontawesome.com/license (Commercial License) Copyright 2026 Fonticons, Inc. --><path fill="currentColor" d="M56 32c30.4 0 56.4 18.9 66.9 45.6 15-27.2 43.9-45.6 77.1-45.6 35.6 0 66.1 21.1 80 51.5 13.9-30.4 44.4-51.5 80-51.5 48.6 0 88 39.4 88 88l0 348.9c0 15 12.1 27.1 27.1 27.1 7.3 0 14.2-2.9 19.3-8.1L612.9 368 552 368c-4.4 0-8-3.6-8-8s3.6-8 8-8l80 0c4.4 0 8 3.6 8 8l0 80c0 4.4-3.6 8-8 8s-8-3.6-8-8l0-60.5-118.2 119.7c-8.1 8.2-19.2 12.8-30.7 12.8-22 0-40.1-16.4-42.8-37.7-.2-.7-.4-1.5-.4-2.3l0-352c0-39.8-32.2-72-72-72s-72 32.2-72 72l0 352c0 4.4-3.6 8-8 8s-8-3.6-8-8l0-352c0-39.8-32.2-72-72-72s-72 32.2-72 72l0 352c0 4.4-3.6 8-8 8s-8-3.6-8-8l0-368c0-30.9-25.1-56-56-56L40 48c-4.4 0-8-3.6-8-8s3.6-8 8-8l16 0z"/></svg>