<svg xmlns="http://www.w3.org/2000/svg" viewBox="0 0 384 512"><!--! Font Awesome Pro 7.2.0 by @fontawesome - https://fontawesome.com License - https://fontawesome.com/license (Commercial License) Copyright 2026 Fonticons, Inc. --><path fill="currentColor" d="M344 32c22.1 0 40 17.9 40 40l0 48c0 22.1-17.9 40-40 40l-44.3 0 28.3 311.3c.4 4.4-2.9 8.3-7.2 8.7-4.4 .4-8.3-2.9-8.7-7.2L297.4 312 86.6 312 72 472.7c-.4 4.4-4.3 7.6-8.7 7.2s-7.6-4.3-7.2-8.7L84.3 160 40 160c-22.1 0-40-17.9-40-40L0 72C0 49.9 17.9 32 40 32l304 0zM100.3 160.7l-12.3 135.3 207.9 0-12.3-135.3-.1-.7-183.2 0-.1 .7zM40 48C26.7 48 16 58.7 16 72l0 48c0 13.3 10.7 24 24 24l304 0c13.3 0 24-10.7 24-24l0-48c0-13.3-10.7-24-24-24L40 48z"/></svg>