<svg xmlns="http://www.w3.org/2000/svg" viewBox="0 0 576 512"><!--! Font Awesome Pro 7.2.0 by @fontawesome - https://fontawesome.com License - https://fontawesome.com/license (Commercial License) Copyright 2026 Fonticons, Inc. --><path fill="currentColor" d="M432 320c38.7 0 71 27.5 78.4 64 35.5-.9 65.6 28.5 65.6 64 0 35.3-28.7 64-64 64l-184 0c-39.8 0-72-32.2-72-72s32.2-72 72-72c10.1 0 19.7 2.1 28.4 5.8 10.8-31.3 40.6-53.8 75.6-53.8zm0 16c-30.9 0-56.7 21.9-62.7 51.1-.5 2.6-2.3 4.7-4.7 5.7s-5.2 .8-7.4-.5c-8.5-5.2-18.5-8.2-29.3-8.2-30.9 0-56 25.1-56 56s25.1 56 56 56l184 0c26.5 0 48-21.5 48-48s-21.5-48-48-48c-2.4 0-4.8 .2-7.2 .5-2.2 .3-4.4-.3-6.1-1.6s-2.8-3.3-3.1-5.5C492.4 361.2 465.1 336 432 336zM267.4-13.2c9.3-15.5 31.9-15.5 41.2 0l50.7 84.6c1.8 3 5.4 4.5 8.8 3.7l95.7-24c17.6-4.4 33.5 11.5 29.1 29.1l-24 95.7c-.9 3.4 .6 7 3.7 8.8l84.6 50.7c15.5 9.3 15.5 31.9 0 41.2l-42.8 25.6c-4.4-3.7-9.1-7.2-14-10.3l48.5-29c5.2-3.1 5.2-10.6 0-13.8l-84.7-50.7c-9.1-5.4-13.5-16.2-10.9-26.4l24-95.7c1.5-5.9-3.9-11.2-9.7-9.7L372 90.6c-10.3 2.6-21-1.9-26.4-10.9L294.9-5c-3.1-5.2-10.6-5.2-13.7 0L230.4 79.6C225 88.7 214.3 93.2 204 90.6l-95.7-24c-5.9-1.5-11.2 3.9-9.7 9.7l24 95.7c2.6 10.3-1.9 21-10.9 26.4L27 249.1c-5.2 3.1-5.2 10.6 0 13.8l84.7 50.7c9.1 5.4 13.5 16.2 10.9 26.4l-24 95.7c-1.5 5.9 3.9 11.2 9.7 9.7l95.7-24c1.9-.5 3.7-.6 5.6-.7-.9 5.3-1.4 10.7-1.5 16.2-.1 0-.1 0-.2 0l-95.7 24c-17.6 4.4-33.5-11.5-29.1-29.1l24-95.7c.9-3.4-.6-7-3.7-8.8L18.8 276.6c-15.5-9.3-15.5-31.9 0-41.2l84.6-50.7c3-1.8 4.5-5.4 3.7-8.8l-24-95.7c-4.4-17.6 11.5-33.5 29.1-29.1l95.7 24c3.4 .8 7-.6 8.8-3.7l50.7-84.6zM288 144c61.9 0 112 50.1 112 112 0 7-.7 13.9-1.9 20.5-6.2 1.7-12.2 3.9-18 6.5 2.5-8.6 3.9-17.6 3.9-27 0-53-43-96-96-96s-96 43-96 96c0 41 25.7 75.9 61.9 89.7l-.9 .7c-4.3 3.4-8.3 7.2-12.1 11.2-38.3-17.8-64.8-56.6-64.8-101.6 0-61.9 50.1-112 112-112z"/></svg>