<svg xmlns="http://www.w3.org/2000/svg" viewBox="0 0 576 512"><!--! Font Awesome Pro 7.2.0 by @fontawesome - https://fontawesome.com License - https://fontawesome.com/license (Commercial License) Copyright 2026 Fonticons, Inc. --><path fill="currentColor" d="M184 480c4.4 0 8 3.6 8 8s-3.6 8-8 8L72 496c-4.4 0-8-3.6-8-8s3.6-8 8-8l112 0zm384 0c4.4 0 8 3.6 8 8s-3.6 8-8 8l-320 0c-4.4 0-8-3.6-8-8s3.6-8 8-8l320 0zm-64-96c4.4 0 8 3.6 8 8s-3.6 8-8 8L8 400c-4.4 0-8-3.6-8-8s3.6-8 8-8l496 0zM267.4-13.2c9.3-15.5 31.9-15.5 41.2 0l50.7 84.6c1.8 3 5.4 4.5 8.8 3.7l95.7-24c17.6-4.4 33.5 11.5 29.1 29.1l-24 95.7c-.9 3.4 .6 7 3.7 8.8l84.6 50.7c15.5 9.3 15.5 31.9 0 41.2l-72.4 43.4-27.5 0c1.9-2.5 4.2-4.7 7.1-6.4L549 262.9c5.2-3.1 5.2-10.6 0-13.8l-84.7-50.7c-9.1-5.4-13.5-16.2-10.9-26.4l24-95.7c1.5-5.9-3.9-11.2-9.7-9.7L372 90.6c-10.3 2.6-21-1.9-26.4-10.9L294.9-5c-3.1-5.2-10.6-5.2-13.7 0L230.5 79.6C225 88.7 214.3 93.2 204 90.6l-95.7-24c-5.9-1.5-11.2 3.9-9.7 9.7l24 95.7c2.6 10.3-1.9 21-10.9 26.4L27 249.1c-5.2 3.1-5.2 10.6 0 13.8l84.7 50.7c2.8 1.7 5.2 3.9 7 6.4l-27.5 0-72.4-43.4c-15.5-9.3-15.5-31.9 0-41.2l84.6-50.7c3-1.8 4.5-5.4 3.7-8.8l-24-95.7c-4.4-17.6 11.5-33.5 29.1-29.1l95.7 24c3.4 .8 7-.6 8.8-3.7l50.7-84.6zM288 144c61.9 0 112 50.1 112 112 0 23.8-7.4 45.9-20.1 64l-20.4 0c15.2-17 24.5-39.4 24.5-64 0-53-43-96-96-96s-96 43-96 96c0 24.6 9.2 47 24.4 64l-20.3 0c-12.7-18.1-20.1-40.2-20.1-64 0-61.9 50.1-112 112-112z"/></svg>