<svg xmlns="http://www.w3.org/2000/svg" viewBox="0 0 576 512"><!--! Font Awesome Pro 7.2.0 by @fontawesome - https://fontawesome.com License - https://fontawesome.com/license (Commercial License) Copyright 2026 Fonticons, Inc. --><path fill="currentColor" d="M192.4 496a16 16 0 1 1 0-32 16 16 0 1 1 0 32zm160 0a16 16 0 1 1 0-32 16 16 0 1 1 0 32zm160 0a16 16 0 1 1 0-32 16 16 0 1 1 0 32zM267.8-13.2c9.3-15.5 31.9-15.5 41.2 0l50.7 84.6c1.8 3 5.4 4.5 8.8 3.7l95.7-24c8.8-2.2 17.2 .7 22.8 6.3L475.7 68.7c-1.9-1.9-4.7-2.8-7.6-2.1l-95.7 24c-10.3 2.6-21-1.9-26.4-10.9L295.3-5c-3.1-5.2-10.6-5.2-13.7 0L230.8 79.6c-5.4 9.1-16.2 13.5-26.4 10.9l-95.7-24c-5.9-1.5-11.2 3.9-9.7 9.7L123 172c2.6 10.3-1.9 21-10.9 26.4L27.4 249.1c-5.2 3.1-5.2 10.6 0 13.8L112 313.6c9.1 5.4 13.5 16.2 10.9 26.4L99 435.7c-.7 2.9 .2 5.7 2.1 7.6L89.8 454.6c-5.6-5.6-8.5-14-6.3-22.8l24-95.7c.9-3.4-.6-7-3.7-8.8L19.2 276.6c-15.5-9.3-15.5-31.9 0-41.2l84.6-50.7c3-1.8 4.5-5.4 3.7-8.8l-24-95.7C79.1 62.6 95 46.7 112.6 51.1l95.7 24c3.4 .8 7-.6 8.8-3.7l50.7-84.6zM272.4 416a16 16 0 1 1 0-32 16 16 0 1 1 0 32zm160 0a16 16 0 1 1 0-32 16 16 0 1 1 0 32zm-80-80a16 16 0 1 1 0-32 16 16 0 1 1 0 32zm160 0a16 16 0 1 1 0-32 16 16 0 1 1 0 32zm-224-192c30.9 0 58.9 12.5 79.2 32.8l-11.3 11.3c-17.4-17.4-41.4-28.1-67.9-28.1-53 0-96 43-96 96 0 26.5 10.8 50.5 28.1 67.9l-11.3 11.3c-20.3-20.3-32.8-48.3-32.8-79.2 0-61.9 50.1-112 112-112zm144 112a16 16 0 1 1 0-32 16 16 0 1 1 0 32zm80-80a16 16 0 1 1 0-32 16 16 0 1 1 0 32z"/></svg>