<svg xmlns="http://www.w3.org/2000/svg" viewBox="0 0 512 512"><!--! Font Awesome Pro 7.2.0 by @fontawesome - https://fontawesome.com License - https://fontawesome.com/license (Commercial License) Copyright 2026 Fonticons, Inc. --><path fill="currentColor" d="M504.4 496c4.4 0 8 3.6 8 8s-3.6 8-8 8l-496 0c-4.4 0-8-3.6-8-8s3.6-8 8-8l496 0zm-164-288.6c14.6-10.8 35.4-2.2 38 15.7l14.5 97.6c.5 3.5 3.3 6.2 6.8 6.7l97.6 14.5c17.9 2.7 26.5 23.5 15.8 38l-50.5 68-19.9 0 57.6-77.5c3.6-4.8 .7-11.8-5.3-12.7l-97.6-14.4c-10.5-1.6-18.7-9.8-20.2-20.2l-14.4-97.6c-.9-6-7.8-8.9-12.7-5.3L270.7 279c-8.5 6.3-20.1 6.3-28.6 0l-79.2-58.8c-4.8-3.6-11.8-.7-12.7 5.2l-14.4 97.6c-1.6 10.4-9.8 18.7-20.2 20.2L17.9 357.8c-6 .9-8.8 7.9-5.2 12.7L70.1 448 50.2 448-.2 380c-10.8-14.6-2.2-35.3 15.8-38l97.6-14.5c3.5-.5 6.2-3.3 6.7-6.7l14.5-97.6c2.7-17.9 23.5-26.5 38.1-15.8l79.2 58.8c2.8 2.1 6.7 2.1 9.5 0l79.3-58.8zM213.5 360.5c57.1-23.7 122.7 3.5 146.3 60.6 3.7 8.8 6.1 17.8 7.4 26.9l-16.2 0c-1.2-7-3.1-13.9-5.9-20.7-20.3-49-76.5-72.3-125.4-52-31.7 13.1-52.5 41.3-57.8 72.7l-16.2 0c5.5-37.8 30.1-71.8 68-87.5zM256.4-16c4.4 0 8 3.6 8 8l0 172.7 50.3-50.3c3.1-3.1 8.2-3.1 11.3 0s3.1 8.2 0 11.3l-64 64c-2.7 2.7-7 3.1-10.1 1l-1.2-1-64-64c-3.1-3.1-3.1-8.2 0-11.3s8.2-3.1 11.3 0l50.3 50.3 0-172.7c0-4.4 3.6-8 8-8z"/></svg>