<svg xmlns="http://www.w3.org/2000/svg" viewBox="0 0 512 512"><!--! Font Awesome Pro 7.2.0 by @fontawesome - https://fontawesome.com License - https://fontawesome.com/license (Commercial License) Copyright 2026 Fonticons, Inc. --><path fill="currentColor" d="M90 32.3c-30.1 3.1-54.1 27-57.1 57.1l-.3 6.5 0 32 16 0 0-32c0-26.5 21.5-48 48-48l152 0 0 416-152 0c-26.5 0-48-21.5-48-48l0-32-16 0 0 32 .3 6.5C36.1 454.8 63.4 480 96.5 480l320 0c35.3 0 64-28.7 64-64l0-320-.3-6.5C476.9 57.2 449.6 32 416.5 32l-320 0-6.5 .3zM416.5 48c26.5 0 48 21.5 48 48l0 320c0 26.5-21.5 48-48 48l-152 0 0-416 152 0zM10.7 190.8c-3.1-3.1-8.2-3.1-11.3 0s-3.1 8.2 0 11.3L53.2 256-.7 309.8c-3.1 3.1-3.1 8.2 0 11.3s8.2 3.1 11.3 0l53.8-53.8 53.8 53.8c3.1 3.1 8.2 3.1 11.3 0s3.1-8.2 0-11.3L75.8 256 129.7 202.2c3.1-3.1 3.1-8.2 0-11.3s-8.2-3.1-11.3 0l-53.8 53.8-53.8-53.8z"/></svg>