<svg xmlns="http://www.w3.org/2000/svg" viewBox="0 0 448 512"><!--! Font Awesome Pro 7.2.0 by @fontawesome - https://fontawesome.com License - https://fontawesome.com/license (Commercial License) Copyright 2026 Fonticons, Inc. --><path fill="currentColor" d="M.3 89.5c3.1-30.1 27-54.1 57.1-57.1L64 32 64 48C37.5 48 16 69.5 16 96l0 152 416 0 0-152c0-24.9-18.9-45.3-43.1-47.8l-4.9-.2 0-16 6.5 .3C422.8 35.6 448 62.9 448 96l0 320c0 35.3-28.7 64-64 64l-320 0-6.5-.3C25.2 476.4 0 449.1 0 416L0 96 .3 89.5zM16 416c0 26.5 21.5 48 48 48l320 0c26.5 0 48-21.5 48-48l0-152-416 0 0 152zM136 64c0-4.4 3.6-8 8-8l72 0 0-72c0-4.4 3.6-8 8-8s8 3.6 8 8l0 72 72 0c4.4 0 8 3.6 8 8s-3.6 8-8 8l-72 0 0 72c0 4.4-3.6 8-8 8s-8-3.6-8-8l0-72-72 0c-4.4 0-8-3.6-8-8z"/></svg>