<svg xmlns="http://www.w3.org/2000/svg" viewBox="0 0 576 512"><!--! Font Awesome Pro 7.2.0 by @fontawesome - https://fontawesome.com License - https://fontawesome.com/license (Commercial License) Copyright 2026 Fonticons, Inc. --><path fill="currentColor" d="M524 64.5c12.6 2.2 22.9 11.8 25.7 24.6l17.8 80c3.8 17.3-7.1 33.8-23.3 37.9l0 233c0 4.4-3.6 8-8 8s-8-3.6-8-8l0-152-480 0 0 152c0 4.4-3.6 8-8 8s-8-3.6-8-8l0-233C17 203.1 6.5 188.7 8.2 172.8l.6-3.7 17.8-80C29.8 74.4 42.8 64 57.8 64l460.7 0 5.5 .5zM48.1 272l480 0 0-64-480 0 0 64zM57.8 80c-7.5 0-14 5.2-15.6 12.5l-17.8 80C22.2 182.5 29.8 192 40 192l496.2 0c10.2 0 17.8-9.5 15.6-19.5L534 92.5c-1.4-6.4-6.6-11.2-12.8-12.3l-2.7-.2-460.7 0z"/></svg>