<svg xmlns="http://www.w3.org/2000/svg" viewBox="0 0 448 512"><!--! Font Awesome Pro 7.2.0 by @fontawesome - https://fontawesome.com License - https://fontawesome.com/license (Commercial License) Copyright 2026 Fonticons, Inc. --><path fill="currentColor" d="M64 32C28.7 32 0 60.7 0 96L0 416c0 33.1 25.2 60.4 57.5 63.7l6.5 .3 320 0 6.5-.3c30.1-3.1 54.1-27 57.1-57.1l.3-6.5 0-320c0-35.3-28.7-64-64-64L64 32zM384 48c26.5 0 48 21.5 48 48l0 320c0 26.5-21.5 48-48 48l-152 0 0-80-16 0 0 80-152 0c-26.5 0-48-21.5-48-48L16 96c0-26.5 21.5-48 48-48l152 0 0 80 16 0 0-80 152 0zM213.7 178.3c-3.1-3.1-8.2-3.1-11.3 0l-72 72-1 1.2c-2.1 3.1-1.7 7.3 1 10.1l72 72c3.1 3.1 8.2 3.1 11.3 0s3.1-8.2 0-11.3L155.3 264 312 264c4.4 0 8-3.6 8-8s-3.6-8-8-8l-156.7 0 58.3-58.3c3.1-3.1 3.1-8.2 0-11.3z"/></svg>