<svg xmlns="http://www.w3.org/2000/svg" viewBox="0 0 576 512"><!--! Font Awesome Pro 7.2.0 by @fontawesome - https://fontawesome.com License - https://fontawesome.com/license (Commercial License) Copyright 2026 Fonticons, Inc. --><path fill="currentColor" d="M121.5 32.3c-30.1 3.1-54.1 27-57.1 57.1L64 96 80 96c0-26.5 21.5-48 48-48l152 0 0 416-152 0c-24.9 0-45.3-18.9-47.8-43.1l-.2-4.9-16 0 .3 6.5C67.6 454.8 94.9 480 128 480l320 0c35.3 0 64-28.7 64-64l0-320-.3-6.5C508.4 57.2 481.1 32 448 32l-320 0-6.5 .3zM448 48c26.5 0 48 21.5 48 48l0 320c0 26.5-21.5 48-48 48l-152 0 0-416 152 0zM96 168c-4.4 0-8 3.6-8 8l0 72-72 0c-4.4 0-8 3.6-8 8s3.6 8 8 8l72 0 0 72c0 4.4 3.6 8 8 8s8-3.6 8-8l0-72 72 0c4.4 0 8-3.6 8-8s-3.6-8-8-8l-72 0 0-72c0-4.4-3.6-8-8-8z"/></svg>