<svg xmlns="http://www.w3.org/2000/svg" viewBox="0 0 576 512"><!--! Font Awesome Pro 7.2.0 by @fontawesome - https://fontawesome.com License - https://fontawesome.com/license (Commercial License) Copyright 2026 Fonticons, Inc. --><path fill="currentColor" d="M2.3-29.7c3.1-3.1 8.2-3.1 11.3 0L88.9 45.5C99.7 37.1 113.2 32 128 32l320 0 6.5 .3c30.1 3.1 54.1 27 57.1 57.1l.3 6.5 0 320-.3 6.5c-1.2 12.2-6 23.3-13.2 32.5l75.2 75.2c3.1 3.1 3.1 8.2 0 11.3s-8.2 3.1-11.3 0L2.3-18.4c-3.1-3.1-3.1-8.2 0-11.3zM80 127.2l0 176.8 176.8 0 16 16-192.8 0 0 96c0 26.5 21.5 48 48 48l288.8 0 16 16-304.8 0c-35.3 0-64-28.7-64-64l0-304.8 16 16zM487.1 443.7c5.6-7.8 8.9-17.4 8.9-27.7l0-96-132.6 0 123.7 123.7zM347.4 304l148.6 0 0-128-276.6 0 128 128zM128 48c-10.3 0-19.9 3.3-27.8 8.8L203.4 160 496 160 496 96c0-26.5-21.5-48-48-48L128 48z"/></svg>