<svg xmlns="http://www.w3.org/2000/svg" viewBox="0 0 448 512"><!--! Font Awesome Pro 7.2.0 by @fontawesome - https://fontawesome.com License - https://fontawesome.com/license (Commercial License) Copyright 2026 Fonticons, Inc. --><path fill="currentColor" d="M448 416c0 35.3-28.7 64-64 64L64 480C30.9 480 3.6 454.8 .3 422.5L0 416 0 96 .3 89.5c3.1-30.1 27-54.1 57.1-57.1L64 32 384 32c35.3 0 64 28.7 64 64l0 320zM432 96c0-26.5-21.5-48-48-48L64 48C37.5 48 16 69.5 16 96l0 152 80 0 0 16-80 0 0 152c0 26.5 21.5 48 48 48l320 0c26.5 0 48-21.5 48-48l0-152-80 0 0-16 80 0 0-152zM301.7 266.3c3.1 3.1 3.1 8.2 0 11.3l-72 72-1.3 1c-3.1 2.1-7.3 1.7-10.1-1l-72-72c-3.1-3.1-3.1-8.2 0-11.3s8.2-3.1 11.3 0L216 324.7 216 168c0-4.4 3.6-8 8-8s8 3.6 8 8l0 156.7 58.3-58.3c3.1-3.1 8.2-3.1 11.3 0z"/></svg>