<svg xmlns="http://www.w3.org/2000/svg" viewBox="0 0 512 512"><!--! Font Awesome Pro 7.2.0 by @fontawesome - https://fontawesome.com License - https://fontawesome.com/license (Commercial License) Copyright 2026 Fonticons, Inc. --><path fill="currentColor" d="M423 32.3c30.1 3.1 54.1 27 57.1 57.1l.3 6.5 0 32-16 0 0-32c0-26.5-21.5-48-48-48l-152 0 0 416 152 0c26.5 0 48-21.5 48-48l0-32 16 0 0 32-.3 6.5c-3.3 32.3-30.5 57.5-63.7 57.5l-320 0c-35.3 0-64-28.7-64-64l0-320 .3-6.5C36.1 57.2 63.4 32 96.5 32l320 0 6.5 .3zM96.5 48c-26.5 0-48 21.5-48 48l0 320c0 26.5 21.5 48 48 48l152 0 0-416-152 0zM502.3 190.8c3.1-3.1 8.2-3.1 11.3 0s3.1 8.2 0 11.3l-53.8 53.8 53.8 53.8c3.1 3.1 3.1 8.2 0 11.3s-8.2 3.1-11.3 0l-53.8-53.8-53.8 53.8c-3.1 3.1-8.2 3.1-11.3 0s-3.1-8.2 0-11.3l53.8-53.8-53.8-53.8c-3.1-3.1-3.1-8.2 0-11.3s8.2-3.1 11.3 0l53.8 53.8 53.8-53.8z"/></svg>