<svg xmlns="http://www.w3.org/2000/svg" viewBox="0 0 640 512"><!--! Font Awesome Pro 7.2.0 by @fontawesome - https://fontawesome.com License - https://fontawesome.com/license (Commercial License) Copyright 2026 Fonticons, Inc. --><path fill="currentColor" d="M304 304c97.2 0 176 78.8 176 176l0 24c0 4.4-3.6 8-8 8s-8-3.6-8-8l0-24c0-88.4-71.6-160-160-160l-96 0c-88.4 0-160 71.6-160 160l0 24c0 4.4-3.6 8-8 8s-8-3.6-8-8l0-24c0-97.2 78.8-176 176-176l96 0zm-48-48a128 128 0 1 1 0-256 128 128 0 1 1 0 256zm0-240a112 112 0 1 0 0 224 112 112 0 1 0 0-224zM616 168c4.4 0 8 3.6 8 8s-3.6 8-8 8l-176 0c-4.4 0-8-3.6-8-8s3.6-8 8-8l176 0z"/></svg>