<svg xmlns="http://www.w3.org/2000/svg" viewBox="0 0 448 512"><!--! Font Awesome Pro 7.2.0 by @fontawesome - https://fontawesome.com License - https://fontawesome.com/license (Commercial License) Copyright 2026 Fonticons, Inc. --><path fill="currentColor" d="M248 0c22.1 0 40 17.9 40 40l0 56 5.5 0 6.3 .3c14.7 1.5 28.4 7.9 38.9 18.4l58.5 58.5c12 12 18.7 28.3 18.7 45.2L416 448c0 33.1-25.2 60.4-57.5 63.7l-6.5 .3-256 0c-33.1 0-60.4-25.2-63.7-57.5L32 448 32 160c0-35.3 28.7-64 64-64l0-56c0-22.1 17.9-40 40-40L248 0zM96 112c-26.5 0-48 21.5-48 48l0 288c0 26.5 21.5 48 48 48l256 0c26.5 0 48-21.5 48-48l0-229.5c0-12.7-5.1-24.9-14.1-33.9l-58.5-58.5c-9-9-21.2-14.1-33.9-14.1L96 112zM322.3 226.3c3.1-3.1 8.2-3.1 11.3 0s3.1 8.2 0 11.3l-29.7 29.7 0 105.4 29.7 29.7c3.1 3.1 3.1 8.2 0 11.3s-8.2 3.1-11.3 0l-29.7-29.7-137.4 0-29.7 29.7c-3.1 3.1-8.2 3.1-11.3 0s-3.1-8.2 0-11.3l29.7-29.7 0-105.4-29.7-29.7c-3.1-3.1-3.1-8.2 0-11.3s8.2-3.1 11.3 0l29.7 29.7 137.4 0 29.7-29.7zM160 368l128 0 0-96-128 0 0 96zM362.3 74.3c3.1-3.1 8.2-3.1 11.3 0l64 64c3.1 3.1 3.1 8.2 0 11.3s-8.2 3.1-11.3 0l-64-64c-3.1-3.1-3.1-8.2 0-11.3zM136 16c-13.3 0-24 10.7-24 24l0 56 160 0 0-56c0-13.3-10.7-24-24-24L136 16z"/></svg>