<svg xmlns="http://www.w3.org/2000/svg" viewBox="0 0 576 512"><!--! Font Awesome Pro 7.2.0 by @fontawesome - https://fontawesome.com License - https://fontawesome.com/license (Commercial License) Copyright 2026 Fonticons, Inc. --><path fill="currentColor" d="M568 288c4.4 0 8 3.6 8 8l0 128c0 30.9-25.1 56-56 56L56 480c-30.9 0-56-25.1-56-56L0 296c0-4.4 3.6-8 8-8s8 3.6 8 8l0 128c0 22.1 17.9 40 40 40l464 0c22.1 0 40-17.9 40-40l0-128c0-4.4 3.6-8 8-8zM416 32c35.3 0 64 28.7 64 64l0 224c0 35.3-28.7 64-64 64l-256 0c-35.3 0-64-28.7-64-64L96 96c0-35.3 28.7-64 64-64l256 0zM160 48c-26.5 0-48 21.5-48 48l0 224c0 26.5 21.5 48 48 48l256 0c26.5 0 48-21.5 48-48l0-224c0-26.5-21.5-48-48-48L160 48zm181.8 94.8c3.1-3.1 8.2-3.1 11.3 0s3.1 8.2 0 11.3l-53.8 53.8 53.8 53.8c3.1 3.1 3.1 8.2 0 11.3s-8.2 3.1-11.3 0l-53.8-53.8-53.8 53.8c-3.1 3.1-8.2 3.1-11.3 0s-3.1-8.2 0-11.3l53.8-53.8-53.8-53.8c-3.1-3.1-3.1-8.2 0-11.3s8.2-3.1 11.3 0l53.8 53.8 53.8-53.8z"/></svg>