<svg width="62" height="16" viewBox="0 0 62 16" fill="none" xmlns="http://www.w3.org/2000/svg">
<g clip-path="url(#clip0_2306_7915)">
<path d="M53.7532 0.306641C55.8631 0.306641 57.6214 1.04657 59.0279 2.52642C60.4492 4.00627 61.1598 5.83045 61.1598 7.99895C61.1598 10.1674 60.4492 11.9916 59.0279 13.4715C57.6214 14.9513 55.8631 15.6913 53.7532 15.6913H47.6433V0.306641H53.7532ZM53.7532 12.7902C55.0866 12.7902 56.1708 12.3506 57.006 11.4715C57.8411 10.5777 58.2587 9.42019 58.2587 7.99895C58.2587 6.5777 57.8411 5.42752 57.006 4.5484C56.1708 3.65463 55.0866 3.20774 53.7532 3.20774H50.6763V12.7902H53.7532Z" fill="#424750"/>
<path d="M39.6123 12.7902H45.4805V15.6913H36.5793V0.306641H39.6123V12.7902Z" fill="#424750"/>
<path d="M31.6787 13.6923C30.1255 15.2308 28.2354 16 26.0083 16C23.7812 16 21.8911 15.2308 20.338 13.6923C18.7995 12.1392 18.0303 10.2418 18.0303 8C18.0303 5.75824 18.7995 3.86813 20.338 2.32967C21.8911 0.776557 23.7812 0 26.0083 0C28.2354 0 30.1255 0.776557 31.6787 2.32967C33.2318 3.86813 34.0083 5.75824 34.0083 8C34.0083 10.2418 33.2318 12.1392 31.6787 13.6923ZM22.4698 11.6264C23.4222 12.5641 24.6017 13.033 26.0083 13.033C27.4149 13.033 28.5944 12.5641 29.5468 11.6264C30.4992 10.674 30.9754 9.4652 30.9754 8C30.9754 6.5348 30.4992 5.32601 29.5468 4.37363C28.5944 3.42125 27.4149 2.94505 26.0083 2.94505C24.6017 2.94505 23.4222 3.42125 22.4698 4.37363C21.5175 5.32601 21.0413 6.5348 21.0413 8C21.0413 9.4652 21.5175 10.674 22.4698 11.6264Z" fill="#424750"/>
<path d="M16.1367 7.42857V8.61538C16.1367 10.8132 15.4334 12.5934 14.0268 13.956C12.6202 15.3187 10.8034 16 8.57625 16C6.20262 16 4.23192 15.2308 2.66415 13.6923C1.11103 12.1392 0.334473 10.2491 0.334473 8.02198C0.334473 5.78022 1.10371 3.88278 2.64217 2.32967C4.19529 0.776557 6.11471 0 8.40042 0C9.83632 0 11.1477 0.32967 12.3345 0.989011C13.5213 1.6337 14.4444 2.49817 15.1037 3.58242L12.5103 5.07692C12.144 4.44689 11.5872 3.93407 10.84 3.53846C10.1074 3.14286 9.28687 2.94505 8.37845 2.94505C6.91324 2.94505 5.70445 3.42857 4.75206 4.3956C3.81433 5.34799 3.34547 6.55678 3.34547 8.02198C3.34547 9.47253 3.82166 10.674 4.77404 11.6264C5.74108 12.5641 7.01581 13.033 8.59823 13.033C9.77039 13.033 10.7374 12.7766 11.4993 12.2637C12.2759 11.7363 12.8034 11.0183 13.0818 10.1099H8.4224V7.42857H16.1367Z" fill="#424750"/>
</g>
<defs>
<clipPath id="clip0_2306_7915">
<rect width="62" height="16" fill="white"/>
</clipPath>
</defs>
</svg>
