<svg width="201" height="40" viewBox="0 0 201 40" fill="none" xmlns="http://www.w3.org/2000/svg">
<g clip-path="url(#clip0_1992_206)">
<path d="M81.3387 9.98243C84.0777 9.98243 86.3017 7.7563 86.3017 5.01465C86.3017 2.27299 84.0777 0.0351494 81.3387 0.0351494C78.5998 0.0351494 76.3758 2.26128 76.3758 5.00293C76.3758 7.74458 78.5998 9.97071 81.3387 9.97071V9.98243ZM76.3758 16.9654V39.9297H82.6848C84.6864 39.9297 86.3368 38.2894 86.3368 36.2742V13.3099H80.0278C77.9794 13.3451 76.3758 14.9502 76.3758 16.9654ZM191.039 29.9824H181.254C176.185 29.9824 171.761 26.2566 171.187 21.2068C170.497 15.1377 175.167 10.0176 181.078 10.0176H182.752C187.352 10.0176 191.039 13.7434 191.039 18.3128H187.75C184.098 18.3128 181.113 21.2771 181.113 24.9678H195.159C198.366 24.9678 201 22.3316 201 19.1213C201 8.55302 192.455 0.0351494 181.956 0.0351494H181.406C171.047 0.0351494 162.174 7.86175 161.261 18.2074C160.243 30.0527 169.513 39.9649 181.113 39.9649H201C201 34.4464 196.552 29.9824 191.039 29.9824ZM139.431 19.9649V39.9297H149.392V17.9145C149.392 13.5325 152.927 9.98243 157.317 9.98243C158.452 9.98243 159.365 9.06854 159.365 7.93205V0C148.374 0 139.431 8.96309 139.431 19.9649ZM52.474 0.187463C45.3924 -0.76157 39.0482 2.08553 34.8461 6.87756C31.2058 2.7065 25.9151 0 19.9221 0C8.90758 0 0 8.91623 0 19.9649V39.9297H6.30905C8.31062 39.9297 9.96104 38.2894 9.96104 36.2742V20.5507C9.96104 15.3251 13.7184 10.5682 18.9037 10.0527C24.8499 9.4669 29.8831 14.1418 29.8831 20V36.3093C29.8831 38.3245 31.5218 39.9649 33.5351 39.9649H36.2039C38.2055 39.9649 39.8559 38.3245 39.8559 36.3093V20.5858C39.8559 15.3603 43.6132 10.6034 48.7986 10.0879C54.7448 9.50205 59.778 14.1769 59.778 20.0352V36.3445C59.778 38.3597 61.4167 40 63.4299 40H69.739V20.7733C69.739 10.6503 62.517 1.54657 52.474 0.187463ZM112.907 0C101.881 0 92.9853 8.91623 92.9853 19.9649C92.9853 31.0135 101.893 39.9297 112.907 39.9297H117.87V33.6028C117.87 31.5876 116.232 29.9473 114.218 29.9473H112.872C107.359 29.9473 102.911 25.4833 102.911 19.9649C102.911 14.4464 107.359 9.98243 112.872 9.98243C118.385 9.98243 122.833 14.4464 122.833 19.9649V36.2742C122.833 38.2894 124.472 39.9297 126.485 39.9297H132.794V19.9649C132.794 8.96309 123.887 0 112.907 0Z" fill="#424750"/>
</g>
<defs>
<clipPath id="clip0_1992_206">
<rect width="201" height="40" fill="white"/>
</clipPath>
</defs>
</svg>
