<svg width="395" height="40" viewBox="0 0 395 40" fill="none" xmlns="http://www.w3.org/2000/svg">
<path d="M128.162 0.53232L139.455 33.308H139.901L151.193 0.53232H156.022L142.055 39.4677H137.3L123.333 0.53232H128.162Z" fill="#424750"/>
<path d="M166.553 0.53232V39.4677H161.947V0.53232H166.553Z" fill="#424750"/>
<path d="M187.527 39.4677H175.789V0.53232H188.047C191.737 0.53232 194.895 1.31179 197.52 2.87072C200.145 4.41698 202.157 6.64132 203.556 9.54373C204.955 12.4335 205.655 15.8935 205.655 19.924C205.655 23.9797 204.949 27.4715 203.537 30.3992C202.126 33.3143 200.07 35.5577 197.371 37.1293C194.672 38.6882 191.39 39.4677 187.527 39.4677ZM180.395 35.2852H187.23C190.375 35.2852 192.982 34.6641 195.049 33.4221C197.117 32.18 198.659 30.4119 199.674 28.1179C200.689 25.8238 201.197 23.0925 201.197 19.924C201.197 16.7807 200.696 14.0748 199.693 11.8061C198.69 9.52472 197.192 7.77567 195.198 6.55893C193.204 5.32953 190.722 4.71483 187.75 4.71483H180.395V35.2852Z" fill="#424750"/>
<path d="M245.476 20C245.476 24.1065 244.751 27.6553 243.303 30.6464C241.854 33.6375 239.867 35.9442 237.341 37.5665C234.815 39.1888 231.93 40 228.686 40C225.441 40 222.556 39.1888 220.03 37.5665C217.504 35.9442 215.517 33.6375 214.068 30.6464C212.62 27.6553 211.895 24.1065 211.895 20C211.895 15.8935 212.62 12.3447 214.068 9.35361C215.517 6.36249 217.504 4.05577 220.03 2.43346C222.556 0.811154 225.441 8.81869e-09 228.686 8.81869e-09C231.93 8.81869e-09 234.815 0.811154 237.341 2.43346C239.867 4.05577 241.854 6.36249 243.303 9.35361C244.751 12.3447 245.476 15.8935 245.476 20ZM241.018 20C241.018 16.6286 240.467 13.7833 239.365 11.4639C238.276 9.14449 236.796 7.3891 234.926 6.19772C233.069 5.00634 230.989 4.41065 228.686 4.41065C226.383 4.41065 224.296 5.00634 222.426 6.19772C220.569 7.3891 219.089 9.14449 217.987 11.4639C216.898 13.7833 216.353 16.6286 216.353 20C216.353 23.3714 216.898 26.2167 217.987 28.5361C219.089 30.8555 220.569 32.6109 222.426 33.8023C224.296 34.9937 226.383 35.5894 228.686 35.5894C230.989 35.5894 233.069 34.9937 234.926 33.8023C236.796 32.6109 238.276 30.8555 239.365 28.5361C240.467 26.2167 241.018 23.3714 241.018 20Z" fill="#424750"/>
<path d="M253.221 0.53232H258.719L271.646 32.8517H272.091L285.018 0.53232H290.516V39.4677H286.207V9.88593H285.836L273.949 39.4677H269.788L257.901 9.88593H257.53V39.4677H253.221V0.53232Z" fill="#424750"/>
<path d="M301.312 39.4677H296.483L310.45 0.53232H315.205L329.172 39.4677H324.343L312.976 6.69201H312.679L301.312 39.4677ZM303.095 24.2586H322.56V28.4411H303.095V24.2586Z" fill="#424750"/>
<path d="M335.097 39.4677V0.53232H347.949C350.921 0.53232 353.36 1.05196 355.267 2.09125C357.174 3.11787 358.586 4.53105 359.502 6.3308C360.418 8.13055 360.876 10.1774 360.876 12.4715C360.876 14.7655 360.418 16.7997 359.502 18.5741C358.586 20.3485 357.18 21.7427 355.286 22.7567C353.391 23.7579 350.97 24.2586 348.024 24.2586H337.622V20H347.875C349.906 20 351.54 19.6958 352.778 19.0875C354.029 18.4791 354.933 17.6172 355.49 16.5019C356.06 15.3739 356.344 14.0304 356.344 12.4715C356.344 10.9125 356.06 9.55006 355.49 8.38403C354.92 7.218 354.01 6.31813 352.76 5.68441C351.509 5.03802 349.856 4.71483 347.801 4.71483H339.703V39.4677H335.097ZM353.001 21.9772L362.362 39.4677H357.013L347.801 21.9772H353.001Z" fill="#424750"/>
<path d="M366.471 4.71483V0.53232H395V4.71483H383.039V39.4677H378.433V4.71483H366.471Z" fill="#424750"/>
<path d="M96.6141 0.621558C95.7544 -0.275716 94.2996 -0.191066 93.5557 0.807785C84.6945 12.6924 69.9976 20.4801 53.3499 20.4801C36.7187 20.4801 22.0052 12.6924 13.1441 0.807785C12.4001 -0.191066 10.9453 -0.275716 10.0857 0.621558L1.00959 9.91595C-0.230304 11.1857 -0.346027 13.2172 0.761616 14.5885C13.2433 30.0961 32.1559 40 53.3003 40H53.3664C74.5273 40 93.4234 30.0961 105.905 14.5885C107.013 13.2003 106.897 11.1857 105.657 9.91595L96.581 0.621558H96.6141Z" fill="#424750"/>
</svg>
