<svg width="234" height="47" viewBox="0 0 234 47" fill="none" xmlns="http://www.w3.org/2000/svg">
<path d="M175.32 29.68H165.93C165.71 29.68 165.493 29.6364 165.291 29.5516C165.089 29.4668 164.906 29.3426 164.752 29.1862C164.599 29.0297 164.478 28.8443 164.397 28.6406C164.315 28.437 164.276 28.2192 164.28 28V20.28C164.28 20.0633 164.322 19.8487 164.405 19.6486C164.488 19.4484 164.61 19.2665 164.763 19.1133C164.916 18.96 165.098 18.8385 165.298 18.7556C165.498 18.6727 165.713 18.63 165.93 18.63H175.32V29.68ZM179.76 13.11H167C164.804 13.11 162.698 13.9823 161.145 15.5351C159.592 17.0879 158.72 19.194 158.72 21.39V26.92C158.72 29.116 159.592 31.222 161.145 32.7748C162.698 34.3276 164.804 35.2 167 35.2H172.27C172.453 35.2 172.629 35.1282 172.76 35L175.3 32.45V34.12C175.3 34.2631 175.328 34.4049 175.383 34.5371C175.437 34.6694 175.518 34.7895 175.619 34.8907C175.72 34.9919 175.84 35.0722 175.973 35.127C176.105 35.1818 176.247 35.21 176.39 35.21H179.72C179.864 35.2113 180.007 35.1841 180.14 35.1299C180.273 35.0757 180.395 34.9956 180.497 34.8943C180.599 34.7929 180.68 34.6723 180.736 34.5394C180.791 34.4065 180.82 34.264 180.82 34.12V14.21C180.82 13.9182 180.704 13.6385 180.498 13.4322C180.291 13.2259 180.011 13.11 179.72 13.11" fill="#424750"/>
<path d="M223.76 21.4H215.5C215.318 21.4 215.139 21.3643 214.971 21.295C214.804 21.2256 214.652 21.124 214.524 20.9958C214.396 20.8677 214.294 20.7155 214.225 20.5481C214.155 20.3807 214.12 20.2012 214.12 20.02C214.12 19.8388 214.155 19.6593 214.225 19.4919C214.294 19.3245 214.396 19.1723 214.524 19.0442C214.652 18.9161 214.804 18.8144 214.971 18.7451C215.139 18.6757 215.318 18.64 215.5 18.64H224.74C224.861 18.6422 224.981 18.6193 225.093 18.5728C225.205 18.5264 225.306 18.4573 225.39 18.37L227.63 16.18C227.801 16.0071 227.898 15.7737 227.9 15.53V14.26C227.897 13.9611 227.777 13.6752 227.566 13.4639C227.354 13.2525 227.068 13.1326 226.77 13.13H215.63C213.834 13.1276 212.106 13.8155 210.803 15.0514C209.5 16.2873 208.722 17.9766 208.63 19.77C208.596 20.6956 208.749 21.6185 209.08 22.4835C209.412 23.3485 209.914 24.1379 210.557 24.8044C211.2 25.4709 211.971 26.0009 212.824 26.3627C213.676 26.7245 214.593 26.9106 215.52 26.91H223.75C224.1 26.9045 224.44 27.0277 224.705 27.2562C224.971 27.4848 225.143 27.8028 225.19 28.15C225.206 28.3415 225.183 28.5344 225.121 28.7165C225.059 28.8986 224.96 29.0658 224.831 29.2077C224.701 29.3496 224.543 29.4631 224.368 29.541C224.192 29.6188 224.002 29.6593 223.81 29.66H211.81C211.695 29.6548 211.58 29.6724 211.471 29.7119C211.363 29.7513 211.264 29.8119 211.18 29.89L208.98 32.13C208.811 32.304 208.717 32.5375 208.72 32.78V34.05C208.72 34.348 208.837 34.6339 209.047 34.8455C209.257 35.0572 209.542 35.1774 209.84 35.18H223.6C225.404 35.1953 227.145 34.5132 228.458 33.276C229.772 32.0388 230.557 30.3421 230.65 28.54C230.683 27.6144 230.53 26.6915 230.199 25.8265C229.867 24.9615 229.365 24.1721 228.722 23.5056C228.079 22.8391 227.308 22.3091 226.455 21.9473C225.603 21.5856 224.686 21.3994 223.76 21.4Z" fill="#424750"/>
<path d="M33.3704 13.13H30.0004C29.7087 13.13 29.4289 13.2459 29.2226 13.4522C29.0163 13.6585 28.9004 13.9383 28.9004 14.23V34.1C28.9004 34.3917 29.0163 34.6715 29.2226 34.8778C29.4289 35.0841 29.7087 35.2 30.0004 35.2H33.3304C33.4744 35.2 33.6169 35.1715 33.7498 35.1161C33.8827 35.0607 34.0033 34.9795 34.1047 34.8772C34.206 34.7749 34.2861 34.6536 34.3403 34.5202C34.3945 34.3868 34.4217 34.244 34.4204 34.1V14.23C34.4217 14.086 34.3945 13.9432 34.3403 13.8098C34.2861 13.6764 34.206 13.5551 34.1047 13.4528C34.0033 13.3505 33.8827 13.2693 33.7498 13.2139C33.6169 13.1585 33.4744 13.13 33.3304 13.13" fill="#424750"/>
<path d="M33.3704 4.83H30.0004C29.8564 4.82868 29.7136 4.8559 29.5802 4.91009C29.4468 4.96427 29.3254 5.04435 29.2232 5.1457C29.1209 5.24705 29.0397 5.36765 28.9843 5.50055C28.9289 5.63346 28.9004 5.77602 28.9004 5.92V9.28C28.9004 9.57174 29.0163 9.85153 29.2226 10.0578C29.4289 10.2641 29.7087 10.38 30.0004 10.38H33.3304C33.4744 10.38 33.6169 10.3515 33.7498 10.2961C33.8827 10.2407 34.0033 10.1595 34.1047 10.0572C34.206 9.95494 34.2861 9.8336 34.3403 9.7002C34.3945 9.5668 34.4217 9.42398 34.4204 9.28V5.92C34.4204 5.63092 34.3056 5.35367 34.1011 5.14926C33.8967 4.94484 33.6195 4.83 33.3304 4.83" fill="#424750"/>
<path d="M20.6403 29.68H11.2503C11.0302 29.6814 10.8121 29.6387 10.6088 29.5545C10.4055 29.4703 10.221 29.3463 10.0663 29.1898C9.91167 29.0332 9.78987 28.8473 9.70811 28.643C9.62636 28.4387 9.58631 28.22 9.59031 28V20.28C9.59031 20.0625 9.63332 19.8471 9.71686 19.6463C9.80041 19.4454 9.92284 19.2631 10.0771 19.1097C10.2314 18.9564 10.4145 18.835 10.6158 18.7527C10.8172 18.6704 11.0328 18.6287 11.2503 18.63H20.6403V29.68ZM25.0803 4.83H21.7503C21.6063 4.82868 21.4635 4.8559 21.3301 4.91009C21.1967 4.96427 21.0754 5.04435 20.9731 5.1457C20.8708 5.24705 20.7896 5.36765 20.7342 5.50055C20.6788 5.63346 20.6503 5.77602 20.6503 5.92V13.11H12.3503C10.1543 13.11 8.04827 13.9824 6.49547 15.5352C4.94267 17.088 4.07031 19.194 4.07031 21.39V26.92C4.07031 29.116 4.94267 31.222 6.49547 32.7748C8.04827 34.3276 10.1543 35.2 12.3503 35.2H17.6103C17.7012 35.2011 17.7914 35.184 17.8756 35.1496C17.9597 35.1153 18.0362 35.0644 18.1003 35L20.6503 32.45V34.1C20.6503 34.3917 20.7662 34.6715 20.9725 34.8778C21.1788 35.0841 21.4586 35.2 21.7503 35.2H25.0803C25.3721 35.2 25.6518 35.0841 25.8581 34.8778C26.0644 34.6715 26.1803 34.3917 26.1803 34.1V5.92C26.1803 5.77602 26.1518 5.63346 26.0964 5.50055C26.041 5.36765 25.9598 5.24705 25.8575 5.1457C25.7553 5.04435 25.6339 4.96427 25.5005 4.91009C25.3671 4.8559 25.2243 4.82868 25.0803 4.83Z" fill="#424750"/>
<path d="M200.19 29.68H190.79C190.571 29.6801 190.354 29.6364 190.152 29.5516C189.95 29.4668 189.766 29.3426 189.613 29.1862C189.459 29.0298 189.338 28.8443 189.257 28.6407C189.176 28.437 189.136 28.2192 189.14 28V20.28C189.14 19.8424 189.314 19.4227 189.623 19.1133C189.933 18.8039 190.353 18.63 190.79 18.63H200.19V29.68ZM204.63 4.83002H201.29C201.001 4.83002 200.724 4.94486 200.519 5.14927C200.315 5.35369 200.2 5.63093 200.2 5.92002V13.11H191.9C189.704 13.11 187.598 13.9824 186.045 15.5352C184.492 17.088 183.62 19.194 183.62 21.39V26.92C183.62 29.116 184.492 31.2221 186.045 32.7749C187.598 34.3277 189.704 35.2 191.9 35.2H197.16C197.343 35.2 197.519 35.1282 197.65 35L200.2 32.45V34.1C200.199 34.244 200.226 34.3868 200.28 34.5202C200.334 34.6536 200.414 34.775 200.516 34.8772C200.617 34.9795 200.738 35.0607 200.871 35.1161C201.004 35.1715 201.146 35.2 201.29 35.2H204.63C204.774 35.2 204.917 35.1715 205.05 35.1161C205.182 35.0607 205.303 34.9795 205.404 34.8772C205.506 34.775 205.586 34.6536 205.64 34.5202C205.694 34.3868 205.721 34.244 205.72 34.1V5.92002C205.72 5.63093 205.605 5.35369 205.401 5.14927C205.196 4.94486 204.919 4.83002 204.63 4.83002Z" fill="#424750"/>
<path d="M121.77 4.83H118.44C118.151 4.83 117.873 4.94484 117.669 5.14926C117.464 5.35367 117.35 5.63092 117.35 5.92V34.1C117.348 34.244 117.376 34.3868 117.43 34.5202C117.484 34.6536 117.564 34.7749 117.665 34.8772C117.767 34.9795 117.887 35.0607 118.02 35.1161C118.153 35.1715 118.296 35.2 118.44 35.2H121.77C122.061 35.2 122.341 35.0841 122.547 34.8778C122.754 34.6715 122.87 34.3917 122.87 34.1V5.92C122.87 5.77602 122.841 5.63346 122.786 5.50055C122.73 5.36765 122.649 5.24705 122.547 5.1457C122.445 5.04435 122.323 4.96427 122.19 4.91009C122.056 4.8559 121.914 4.82868 121.77 4.83Z" fill="#424750"/>
<path d="M91.3501 13.13H86.4501C86.2951 13.1338 86.1478 13.1985 86.0401 13.31L75.8501 23.48V5.92C75.8501 5.77602 75.8216 5.63346 75.7662 5.50055C75.7108 5.36765 75.6296 5.24705 75.5273 5.1457C75.4251 5.04435 75.3037 4.96427 75.1703 4.91009C75.0369 4.8559 74.8941 4.82868 74.7501 4.83H71.4201C71.131 4.83 70.8538 4.94484 70.6494 5.14926C70.445 5.35367 70.3301 5.63092 70.3301 5.92V34.1C70.3288 34.244 70.356 34.3868 70.4102 34.5202C70.4644 34.6536 70.5445 34.7749 70.6458 34.8772C70.7472 34.9795 70.8678 35.0607 71.0007 35.1161C71.1336 35.1715 71.2761 35.2 71.4201 35.2H74.7501C75.0419 35.2 75.3216 35.0841 75.5279 34.8778C75.7342 34.6715 75.8501 34.3917 75.8501 34.1V24.84L86.0001 35C86.1078 35.1115 86.2551 35.1762 86.4101 35.18H91.3101C91.5283 35.1809 91.7418 35.1168 91.9235 34.996C92.1052 34.8752 92.2469 34.7031 92.3305 34.5016C92.4141 34.3 92.4359 34.0782 92.3931 33.8642C92.3503 33.6502 92.2448 33.4539 92.0901 33.3L83.0001 24.16L92.1301 15C92.2884 14.8467 92.3969 14.6495 92.4418 14.4338C92.4866 14.2181 92.4656 13.9939 92.3816 13.7903C92.2976 13.5866 92.1543 13.4129 91.9704 13.2916C91.7865 13.1703 91.5704 13.1071 91.3501 13.11" fill="#424750"/>
<path d="M109 29.68H99.6C99.1658 29.6669 98.7544 29.4832 98.4548 29.1687C98.1553 28.8542 97.9919 28.4342 98 28V20.28C98 19.8424 98.1738 19.4227 98.4832 19.1133C98.7927 18.8038 99.2124 18.63 99.65 18.63H109V29.68ZM113.44 13.11H100.74C98.544 13.11 96.4379 13.9823 94.8851 15.5351C93.3323 17.0879 92.46 19.194 92.46 21.39V26.92C92.46 29.116 93.3323 31.222 94.8851 32.7748C96.4379 34.3276 98.544 35.2 100.74 35.2H106C106.183 35.2 106.359 35.1282 106.49 35L109 32.45V34.12C109 34.2631 109.028 34.4049 109.083 34.5371C109.138 34.6694 109.218 34.7895 109.319 34.8907C109.42 34.9919 109.541 35.0722 109.673 35.127C109.805 35.1818 109.947 35.21 110.09 35.21H113.43C113.573 35.21 113.715 35.1818 113.847 35.127C113.979 35.0722 114.099 34.9919 114.201 34.8907C114.302 34.7895 114.382 34.6694 114.437 34.5371C114.492 34.4049 114.52 34.2631 114.52 34.12V14.21C114.521 14.066 114.494 13.9232 114.44 13.7898C114.386 13.6564 114.306 13.535 114.204 13.4328C114.103 13.3305 113.982 13.2493 113.849 13.1939C113.717 13.1385 113.574 13.11 113.43 13.11" fill="#424750"/>
<path d="M142.17 29.68H132.78C132.561 29.68 132.344 29.6364 132.142 29.5516C131.94 29.4668 131.757 29.3426 131.603 29.1862C131.449 29.0297 131.328 28.8443 131.247 28.6406C131.166 28.437 131.126 28.2192 131.13 28V20.28C131.13 19.8424 131.304 19.4227 131.614 19.1133C131.923 18.8038 132.343 18.63 132.78 18.63H142.17V29.68ZM146.61 13.11H133.88C131.686 13.1126 129.583 13.9862 128.032 15.5387C126.481 17.0912 125.61 19.1957 125.61 21.39V26.92C125.61 29.1142 126.481 31.2188 128.032 32.7713C129.583 34.3238 131.686 35.1973 133.88 35.2H139.15C139.334 35.2 139.509 35.1282 139.64 35L142.18 32.45V34.12C142.18 34.2631 142.209 34.4049 142.263 34.5371C142.318 34.6694 142.398 34.7895 142.5 34.8907C142.601 34.9919 142.721 35.0722 142.853 35.127C142.985 35.1818 143.127 35.21 143.27 35.21H146.6C146.744 35.2113 146.887 35.1841 147.021 35.1299C147.154 35.0757 147.275 34.9956 147.378 34.8943C147.48 34.7929 147.561 34.6723 147.616 34.5394C147.672 34.4065 147.7 34.264 147.7 34.12V14.21C147.7 13.9182 147.584 13.6385 147.378 13.4322C147.172 13.2259 146.892 13.11 146.6 13.11" fill="#424750"/>
<path d="M66.4697 13.13H63.0497C62.9039 13.1287 62.7593 13.1561 62.6241 13.2106C62.489 13.2652 62.3659 13.3459 62.2619 13.448C62.1579 13.5502 62.075 13.6718 62.018 13.806C61.961 13.9401 61.931 14.0842 61.9297 14.23V34.1C61.931 34.2458 61.961 34.3898 62.018 34.524C62.075 34.6582 62.1579 34.7798 62.2619 34.882C62.3659 34.9841 62.489 35.0648 62.6241 35.1193C62.7593 35.1739 62.9039 35.2013 63.0497 35.2H66.4697C66.6155 35.2013 66.7601 35.1739 66.8952 35.1193C67.0304 35.0648 67.1535 34.9841 67.2575 34.882C67.3615 34.7798 67.4444 34.6582 67.5014 34.524C67.5584 34.3898 67.5884 34.2458 67.5897 34.1V14.23C67.5884 14.0842 67.5584 13.9401 67.5014 13.806C67.4444 13.6718 67.3615 13.5502 67.2575 13.448C67.1535 13.3459 67.0304 13.2652 66.8952 13.2106C66.7601 13.1561 66.6155 13.1287 66.4697 13.13Z" fill="#424750"/>
<path d="M66.4697 4.83H63.0497C62.757 4.82732 62.4751 4.94035 62.2653 5.14449C62.0556 5.34863 61.9349 5.62735 61.9297 5.92V9.28C61.931 9.42577 61.961 9.56986 62.018 9.70403C62.075 9.8382 62.1579 9.95983 62.2619 10.062C62.3659 10.1641 62.489 10.2448 62.6241 10.2993C62.7593 10.3539 62.9039 10.3813 63.0497 10.38H66.4697C66.6155 10.3813 66.7601 10.3539 66.8952 10.2993C67.0304 10.2448 67.1535 10.1641 67.2575 10.062C67.3615 9.95983 67.4444 9.8382 67.5014 9.70403C67.5584 9.56986 67.5884 9.42577 67.5897 9.28V5.92C67.5844 5.62735 67.4638 5.34863 67.254 5.14449C67.0443 4.94035 66.7624 4.82732 66.4697 4.83Z" fill="#424750"/>
<path d="M53.7205 29.63H44.3805C44.1651 29.6313 43.9516 29.5902 43.7521 29.509C43.5526 29.4278 43.3711 29.3081 43.2179 29.1567C43.0647 29.0054 42.9428 28.8253 42.8591 28.6269C42.7755 28.4284 42.7318 28.2154 42.7305 28V20.28C42.7305 19.8424 42.9043 19.4227 43.2137 19.1133C43.5232 18.8038 43.9429 18.63 44.3805 18.63H53.7305L53.7205 29.63ZM58.1605 13.13H54.8405C54.6973 13.13 54.5556 13.1582 54.4233 13.213C54.2911 13.2678 54.1709 13.348 54.0697 13.4493C53.9685 13.5505 53.8882 13.6706 53.8334 13.8029C53.7787 13.9351 53.7505 14.0769 53.7505 14.22V15.87L51.2205 13.34C51.1568 13.2743 51.0807 13.2218 50.9966 13.1858C50.9124 13.1497 50.822 13.1308 50.7305 13.13H45.4805C44.3975 13.1287 43.325 13.3409 42.3241 13.7544C41.3232 14.1679 40.4137 14.7746 39.6474 15.5399C38.8812 16.3052 38.2734 17.214 37.8587 18.2144C37.4439 19.2148 37.2305 20.2871 37.2305 21.37V26.89C37.2305 27.9729 37.4439 29.0453 37.8587 30.0456C38.2734 31.046 38.8812 31.9548 39.6474 32.7201C40.4137 33.4854 41.3232 34.0921 42.3241 34.5056C43.325 34.9192 44.3975 35.1313 45.4805 35.13H53.7205V36.21C53.7232 36.6505 53.5529 37.0744 53.2461 37.3905C52.9394 37.7065 52.5208 37.8895 52.0805 37.9H41.0805C40.9362 37.8972 40.7928 37.9239 40.6592 37.9784C40.5255 38.0329 40.4044 38.1142 40.3033 38.2172C40.2022 38.3202 40.1232 38.4427 40.0711 38.5773C40.019 38.712 39.995 38.8558 40.0005 39V40.35C39.9985 40.4595 40.0188 40.5682 40.06 40.6696C40.1013 40.771 40.1627 40.863 40.2405 40.94L42.5005 43.19C42.5778 43.2673 42.6699 43.3284 42.7712 43.3696C42.8725 43.4109 42.9811 43.4314 43.0905 43.43H51.0005C53.1913 43.4194 55.2886 42.541 56.833 40.9872C58.3774 39.4334 59.2431 37.3308 59.2405 35.14V14.25C59.2405 14.1069 59.2123 13.9651 59.1575 13.8329C59.1027 13.7006 59.0224 13.5805 58.9212 13.4793C58.82 13.378 58.6998 13.2978 58.5676 13.243C58.4353 13.1882 58.2936 13.16 58.1505 13.16" fill="#424750"/>
</svg>
