<svg width="426" height="40" viewBox="0 0 426 40" fill="none" xmlns="http://www.w3.org/2000/svg">
<path d="M375.877 0.104492H372.456C371.831 0.104492 371.327 0.60807 371.327 1.22452V4.65405C371.327 5.2705 371.831 5.77408 372.456 5.77408H375.877C376.502 5.77408 377.005 5.2705 377.005 4.65405V1.22452C377.005 0.60807 376.502 0.104492 375.877 0.104492Z" fill="#424750"/>
<path d="M98.8053 0.669313C97.9197 -0.216289 96.435 -0.13815 95.6797 0.860322C86.6153 12.7378 71.5774 20.4998 54.56 20.5085C37.5425 20.5085 22.5134 12.7378 13.4403 0.860322C12.6763 -0.13815 11.2002 -0.216289 10.3146 0.669313L1.0332 9.95076C-0.234424 11.2184 -0.355976 13.2414 0.781414 14.6219C13.5445 30.1112 32.8801 39.9917 54.5166 40.0004H54.5513H54.586C76.2312 39.9917 95.5581 30.1112 108.33 14.6132C109.467 13.2327 109.346 11.2097 108.078 9.94208L98.7966 0.660628L98.8053 0.669313Z" fill="#424750"/>
<path d="M318.808 22.791C322.732 22.791 325.919 19.6046 325.919 15.6802C325.919 11.7558 322.732 8.56934 318.808 8.56934H311.697C306.982 8.56934 303.171 12.3896 303.171 17.0954V22.791C303.171 27.5056 306.991 31.3258 311.697 31.3258H322.585C322.897 31.3258 323.192 31.2043 323.418 30.9785L325.571 28.8253C325.788 28.6082 325.919 28.3044 325.919 27.9918V26.6373C325.919 26.0817 325.467 25.6302 324.912 25.6302H309.926C309.335 25.6302 308.849 25.1526 308.849 24.5536V22.7824H318.799L318.808 22.791ZM308.849 15.3416C308.849 14.7425 309.335 14.265 309.926 14.265H318.738C319.476 14.265 320.145 14.8033 320.214 15.55C320.293 16.4008 319.633 17.1129 318.799 17.1129H308.849V15.3503V15.3416Z" fill="#424750"/>
<path d="M341.938 8.60449L337.632 8.63922C337.441 8.63922 337.258 8.71736 337.128 8.8476L334.497 11.4784V9.74188C334.497 9.11675 333.985 8.61318 333.369 8.61318H329.93C329.305 8.61318 328.802 9.11675 328.802 9.74188V30.293C328.802 30.9182 329.305 31.4217 329.93 31.4217H333.369C333.994 31.4217 334.497 30.9182 334.497 30.293V14.2654H342.016C342.598 14.222 343.067 13.7792 343.067 13.1801V9.74188C343.067 9.11675 342.563 8.61318 341.938 8.61318" fill="#424750"/>
<path d="M367.481 8.63064H364.052C363.496 8.63064 363.01 8.96926 362.828 9.47283L357.149 25.7262L351.48 9.47283C351.306 8.96926 350.811 8.63064 350.256 8.63064H346.887C346.105 8.63064 345.715 9.36865 345.993 10.0632L353.798 30.6925C353.98 31.1614 354.458 31.4739 354.979 31.4739H359.198C359.728 31.4739 360.197 31.1614 360.379 30.6925L368.445 10.0546C368.723 9.35996 368.254 8.61328 367.481 8.61328" fill="#424750"/>
<path d="M375.886 8.60449H372.482C371.866 8.60449 371.362 9.09939 371.362 9.72452V30.3017C371.362 30.9182 371.866 31.4131 372.482 31.4131H375.886C376.502 31.4131 377.006 30.9182 377.006 30.3017V9.72452C377.006 9.10807 376.502 8.60449 375.886 8.60449Z" fill="#424750"/>
<path d="M418.134 22.791C422.058 22.791 425.245 19.6046 425.245 15.6802C425.245 11.7558 422.058 8.56934 418.134 8.56934H411.023C406.309 8.56934 402.497 12.3896 402.497 17.0954V22.791C402.497 27.5056 406.317 31.3258 411.023 31.3258H421.911C422.223 31.3258 422.519 31.2043 422.744 30.9785L424.898 28.8253C425.115 28.6082 425.245 28.3044 425.245 27.9918V26.6373C425.245 26.0817 424.793 25.6302 424.238 25.6302H409.252C408.662 25.6302 408.175 25.1526 408.175 24.5536V22.7824H418.125L418.134 22.791ZM408.175 15.3416C408.175 14.7425 408.662 14.265 409.252 14.265H418.065C418.803 14.265 419.471 14.8033 419.541 15.55C419.619 16.4008 418.959 17.1129 418.125 17.1129H408.175V15.3503V15.3416Z" fill="#424750"/>
<path d="M387.207 14.2563H396.515C396.767 14.2563 397.01 14.1608 397.184 13.9784L399.458 11.7037C399.632 11.53 399.736 11.287 399.736 11.0352V9.72409C399.736 9.0816 399.215 8.56934 398.581 8.56934H388.397C383.639 8.56934 379.775 12.433 379.775 17.1909V22.7824C379.775 27.1409 382.988 30.8222 387.19 31.404H396.498C396.749 31.404 396.984 31.3084 397.166 31.1261L399.467 28.8253C399.641 28.6516 399.745 28.4085 399.745 28.1568V26.7502C399.745 26.1077 399.224 25.5955 398.59 25.5955H387.199C386.261 25.5955 385.497 24.8314 385.497 23.8937L385.523 15.9493C385.523 15.0117 386.287 14.2476 387.225 14.2476" fill="#424750"/>
<path d="M293.264 17.1046H284.669C283.878 17.1046 283.236 16.549 283.236 15.7502C283.236 14.9514 283.878 14.2568 284.669 14.2568H294.28C294.532 14.2568 294.775 14.1613 294.948 13.979L297.267 11.765C297.449 11.5826 297.545 11.3482 297.545 11.0964V9.77671C297.545 9.13422 297.024 8.61328 296.381 8.61328H284.669C280.727 8.61328 277.627 11.8084 277.627 15.7502C277.627 19.692 280.727 22.7829 284.669 22.7829H293.264C294.054 22.7829 294.697 23.408 294.697 24.1981C294.697 24.9882 294.063 25.6133 293.264 25.6133H280.779C280.527 25.6133 280.301 25.6741 280.128 25.8478L277.844 28.3136C277.671 28.4959 277.566 28.7303 277.566 28.9821V30.3018C277.566 30.9443 278.087 31.4653 278.73 31.4653H293.264C297.206 31.4653 300.401 28.2702 300.401 24.3284C300.401 20.3866 297.206 17.1046 293.264 17.1046Z" fill="#424750"/>
<path d="M156.569 8.57812H153.131C152.818 8.57812 152.532 8.70836 152.332 8.90805C152.124 9.10775 152.002 9.39426 152.002 9.70683V30.2146C152.002 30.5271 152.132 30.805 152.332 31.0134C152.54 31.2217 152.818 31.3433 153.131 31.3433H156.569C156.881 31.3433 157.168 31.2217 157.368 31.0134C157.576 30.805 157.698 30.5271 157.698 30.2146V9.70683C157.698 9.39426 157.567 9.10775 157.368 8.90805C157.159 8.69968 156.881 8.57812 156.569 8.57812Z" fill="#424750"/>
<path d="M156.569 0.00878906H153.131C152.818 0.00878906 152.532 0.139025 152.332 0.33872C152.124 0.538414 152.002 0.824931 152.002 1.1375V4.60176C152.002 4.91433 152.132 5.20084 152.332 5.40054C152.54 5.60891 152.818 5.73047 153.131 5.73047H156.569C156.881 5.73047 157.168 5.60023 157.368 5.40054C157.576 5.19216 157.698 4.91433 157.698 4.60176V1.1375C157.698 0.824931 157.567 0.538414 157.368 0.33872C157.159 0.130343 156.881 0.00878906 156.569 0.00878906Z" fill="#424750"/>
<path d="M147.991 0.00859479H144.561C144.249 0.00859479 143.971 0.138917 143.762 0.338612C143.554 0.546988 143.432 0.824736 143.432 1.1373V8.56949H134.872C132.519 8.56949 130.383 9.52446 128.837 11.0699C127.292 12.6154 126.337 14.7426 126.337 17.0955V22.9127C126.337 25.2656 127.292 27.4015 128.837 28.9382C130.383 30.4837 132.51 31.4388 134.872 31.4388H140.298C140.394 31.4388 140.489 31.4214 140.567 31.3867C140.645 31.3519 140.732 31.2998 140.802 31.2304L142.113 29.9194L143.424 28.6084V30.3101C143.424 30.6227 143.554 30.9004 143.754 31.1088C143.953 31.3172 144.24 31.4388 144.553 31.4388H147.982C148.295 31.4388 148.572 31.3086 148.781 31.0915C148.989 30.8745 149.111 30.5619 149.111 30.1973V1.01575C149.111 0.76396 148.981 0.503578 148.781 0.312566C148.572 0.121554 148.295 0 147.982 0M143.415 20.0129V25.7606H133.734C133.265 25.7606 132.84 25.5696 132.527 25.2657C132.224 24.9618 132.033 24.5364 132.033 24.0588V15.9668C132.033 15.4979 132.224 15.0725 132.527 14.7599C132.831 14.4474 133.265 14.2564 133.734 14.2564H143.415V20.0041V20.0129Z" fill="#424750"/>
<path d="M247.916 0.00878906H244.443C244.13 0.00878906 243.844 0.139024 243.635 0.347401C243.427 0.555778 243.297 0.842296 243.297 1.15486V30.2668C243.297 30.5794 243.427 30.8659 243.635 31.0743C243.844 31.2827 244.13 31.4129 244.443 31.4129H247.916C248.228 31.4129 248.515 31.2827 248.723 31.0743C248.932 30.8659 249.062 30.5794 249.062 30.2668V1.15486C249.062 0.842296 248.932 0.555778 248.723 0.347401C248.515 0.139024 248.228 0.00878906 247.916 0.00878906Z" fill="#424750"/>
<path d="M217.329 10.5309C217.685 10.175 217.737 9.68876 217.572 9.28937C217.407 8.88998 217.025 8.58609 216.522 8.58609H213.995H211.468C211.39 8.58609 211.312 8.60346 211.234 8.62951C211.165 8.66424 211.095 8.70765 211.034 8.75974L205.781 14.0126L200.529 19.2654V1.14531C200.529 0.832743 200.398 0.546223 200.199 0.346529C199.99 0.138152 199.713 0.0166016 199.4 0.0166016H195.962C195.649 0.0166016 195.363 0.146835 195.163 0.346529C194.955 0.554906 194.833 0.832743 194.833 1.14531V30.2833C194.833 30.5959 194.963 30.8824 195.163 31.0821C195.371 31.2905 195.649 31.412 195.962 31.412H199.4C199.713 31.412 199.99 31.2818 200.199 31.0821C200.407 30.8824 200.529 30.5959 200.529 30.2833V20.6633L205.781 25.9508L211.034 31.2384C211.095 31.2992 211.156 31.3426 211.234 31.3686C211.303 31.4034 211.39 31.412 211.468 31.412H213.995H216.522C217.025 31.412 217.407 31.1081 217.572 30.7088C217.737 30.3094 217.685 29.8232 217.329 29.4672L212.606 24.7179L207.883 19.9687L212.606 15.2541L217.329 10.5396V10.5309Z" fill="#424750"/>
<path d="M239.321 8.57812H226.193C223.84 8.57812 221.704 9.53318 220.159 11.0786C218.613 12.6241 217.658 14.76 217.658 17.1129V22.8259C217.658 25.1788 218.613 27.3147 220.159 28.8601C221.704 30.4056 223.84 31.3607 226.193 31.3607H231.619C231.715 31.3607 231.81 31.3433 231.897 31.3086C231.984 31.2738 232.062 31.2217 232.132 31.1523L233.443 29.8412L234.754 28.5302V30.2493C234.754 30.5619 234.884 30.8397 235.084 31.0481C235.292 31.2565 235.57 31.378 235.882 31.378H239.321C239.633 31.378 239.911 31.2478 240.119 31.0481C240.328 30.8484 240.449 30.5619 240.449 30.2493V9.7242C240.449 9.41163 240.319 9.1338 240.119 8.92542C239.911 8.71704 239.633 8.59549 239.321 8.59549M234.745 19.9607V25.6563H225.064C224.595 25.6563 224.17 25.4653 223.857 25.1614C223.545 24.8489 223.363 24.4234 223.363 23.9546V15.9755C223.363 15.5066 223.554 15.0812 223.857 14.7686C224.17 14.4561 224.595 14.2738 225.064 14.2738H234.745V19.9694V19.9607Z" fill="#424750"/>
<path d="M274.432 8.90805C274.224 8.69968 273.946 8.57812 273.634 8.57812H260.48C258.118 8.57812 255.982 9.53318 254.437 11.0786C252.891 12.6241 251.928 14.76 251.928 17.1216V22.8433C251.928 25.2049 252.883 27.3407 254.437 28.8862C255.982 30.4316 258.118 31.3867 260.48 31.3867H265.924C266.019 31.3867 266.115 31.3693 266.202 31.3346C266.288 31.2999 266.366 31.2478 266.436 31.1783L267.747 29.8673L269.058 28.5562V30.2754C269.058 30.5879 269.188 30.8744 269.388 31.0741C269.588 31.2738 269.874 31.4041 270.187 31.4041H273.625C273.938 31.4041 274.224 31.2738 274.424 31.0741C274.623 30.8744 274.754 30.5879 274.754 30.2754V9.70683C274.754 9.39426 274.623 9.10775 274.424 8.90805M269.041 19.9868V25.6911H259.334C258.865 25.6911 258.431 25.5001 258.127 25.1875C257.814 24.8749 257.623 24.4495 257.623 23.9806V15.9842C257.623 15.5153 257.814 15.0899 258.127 14.7773C258.431 14.4648 258.865 14.2738 259.334 14.2738H269.041V19.9781V19.9868Z" fill="#424750"/>
<path d="M190.83 8.57812H187.391C187.079 8.57812 186.792 8.70836 186.593 8.90805C186.384 9.10775 186.263 9.39426 186.263 9.70683V30.2146C186.263 30.5271 186.393 30.805 186.593 31.0134C186.801 31.2217 187.079 31.3433 187.391 31.3433H190.83C191.142 31.3433 191.429 31.2217 191.628 31.0134C191.837 30.805 191.958 30.5271 191.958 30.2146V9.70683C191.958 9.39426 191.828 9.10775 191.628 8.90805C191.42 8.69968 191.142 8.57812 190.83 8.57812Z" fill="#424750"/>
<path d="M190.83 0.00878906H187.391C187.079 0.00878906 186.792 0.139025 186.593 0.33872C186.384 0.538414 186.263 0.824931 186.263 1.1375V4.60176C186.263 4.91433 186.393 5.20084 186.593 5.40054C186.801 5.60891 187.079 5.73047 187.391 5.73047H190.83C191.142 5.73047 191.429 5.60023 191.628 5.40054C191.837 5.19216 191.958 4.91433 191.958 4.60176V1.1375C191.958 0.824931 191.828 0.538414 191.628 0.33872C191.42 0.130343 191.142 0.00878906 190.83 0.00878906Z" fill="#424750"/>
<path d="M182.278 8.57812H178.848C178.536 8.57812 178.258 8.69968 178.05 8.90805C177.841 9.11643 177.72 9.39426 177.72 9.70683V11.4086L176.409 10.0975L175.098 8.7865C175.028 8.71704 174.95 8.66495 174.863 8.63022C174.776 8.59549 174.681 8.57812 174.585 8.57812H169.159C166.806 8.57812 164.67 9.53318 163.125 11.0786C161.579 12.6241 160.624 14.7513 160.624 17.1042V22.878C160.624 25.2309 161.579 27.3668 163.125 28.9035C164.67 30.4403 166.797 31.4041 169.159 31.4041H177.694V32.5154C177.694 32.9843 177.503 33.4271 177.199 33.7483C176.895 34.0695 176.461 34.2779 175.992 34.2779H167.422C167.118 34.2779 166.849 34.3995 166.65 34.5992C166.45 34.7989 166.328 35.068 166.328 35.3719V36.6222C166.328 36.7871 166.363 36.9434 166.424 37.091C166.485 37.2386 166.571 37.3775 166.693 37.4904L167.761 38.5583L168.829 39.6263C168.942 39.7391 169.081 39.8346 169.228 39.8954C169.376 39.9562 169.532 39.9909 169.697 39.9909H174.854C177.207 39.9909 179.343 39.0185 180.889 37.4557C182.434 35.8928 183.389 33.7396 183.389 31.3867V20.5511L183.415 9.71551C183.415 9.40295 183.294 9.12511 183.085 8.91674C182.877 8.70836 182.599 8.5868 182.287 8.5868M177.694 19.9868V25.7084H168.021C167.553 25.7084 167.127 25.5174 166.815 25.2049C166.502 24.901 166.32 24.4668 166.32 23.998V15.9581C166.32 15.4893 166.511 15.0639 166.815 14.7513C167.118 14.4474 167.544 14.2564 168.021 14.2564H177.694V19.9781V19.9868Z" fill="#424750"/>
</svg>
