<svg width="248" height="40" viewBox="0 0 248 40" fill="none" xmlns="http://www.w3.org/2000/svg">
<g clip-path="url(#clip0_1994_324)">
<path d="M98.9636 0.619148C98.076 -0.268184 96.5926 -0.186456 95.8334 0.805955C86.7464 12.6915 71.691 20.479 54.65 20.479C37.609 20.479 22.5535 12.7032 13.4665 0.805955C12.7074 -0.198132 11.224 -0.268184 10.3363 0.619148L1.02742 9.91279C-0.234013 11.1737 -0.362493 13.2053 0.782141 14.5946C13.5717 30.1113 32.937 40.0004 54.6033 40.012H54.6383H54.6733C76.3513 40.012 95.7166 30.1113 108.494 14.5946C109.639 13.2169 109.511 11.1854 108.249 9.91279L98.952 0.619148H98.9636Z" fill="#424750"/>
<path d="M171.169 0.0234375H161.019C160.669 0.0234375 160.33 0.163543 160.085 0.408726L157.153 3.32758C155.097 1.28438 152.271 0.0234375 149.141 0.0234375H142.74C142.39 0.0234375 142.051 0.163543 141.806 0.408726L138.932 3.26921C138.687 3.51439 138.547 3.85298 138.547 4.20324V1.38946C138.547 0.642235 137.928 0.0234375 137.18 0.0234375H132.602C131.843 0.0234375 131.235 0.63056 131.235 1.38946V27.7876C131.235 28.5231 131.831 29.1186 132.567 29.1186H137.204C137.94 29.1186 138.535 28.5231 138.535 27.7876V7.29723H150.998C152.189 7.29723 153.159 8.26629 153.159 9.4455V27.7876C153.159 28.5231 153.754 29.1186 154.49 29.1186H159.127C159.863 29.1186 160.459 28.5231 160.459 27.7876V11.2902C160.459 9.87749 160.202 8.53482 159.723 7.28555H172.921C174.112 7.28555 175.082 8.25461 175.082 9.43383V27.7759C175.082 28.5115 175.677 29.1069 176.413 29.1069H181.05C181.786 29.1069 182.382 28.5115 182.382 27.7759V11.1851C182.405 5.03219 177.383 0.0234375 171.169 0.0234375Z" fill="#424750"/>
<path d="M213.743 0H196.935C190.897 0 186.003 4.892 186.003 10.9282V18.237C186.003 24.2732 190.897 29.1652 196.935 29.1652H203.885C204.13 29.1652 204.364 29.0718 204.527 28.8967L207.891 25.5342V27.7291C207.891 28.5231 208.545 29.1769 209.339 29.1769H213.731C214.525 29.1769 215.179 28.5347 215.179 27.7291V1.44775C215.179 0.653824 214.525 0 213.731 0H213.743ZM207.879 21.8681H195.475C194.272 21.8681 193.291 20.8873 193.291 19.6848V9.46877C193.291 8.2662 194.272 7.28546 195.475 7.28546H207.879V21.8681Z" fill="#424750"/>
<path d="M246.563 0.0233942H242.183C241.389 0.0233942 240.735 0.665543 240.735 1.45947V3.6311L237.383 0.280254C237.208 0.105122 236.986 0.0117188 236.741 0.0117188H229.814C223.799 0.0117188 218.929 4.88037 218.929 10.8932V18.1787C218.929 24.1798 223.799 29.0602 229.814 29.0602H240.7V30.4729C240.7 31.6755 239.731 32.7146 238.528 32.7146H223.974C223.192 32.7146 222.561 33.3451 222.561 34.1273V35.9136C222.561 36.2055 222.678 36.4857 222.888 36.6959L225.878 39.6615C226.089 39.8716 226.357 39.9767 226.649 39.9767H237.079C243.094 39.9767 247.965 35.038 247.965 29.0251L248 1.45947C248 0.665543 247.358 0.0233942 246.563 0.0233942ZM240.712 21.8097H228.378C227.175 21.8097 226.205 20.8407 226.205 19.6381V9.46881C226.205 8.26624 227.175 7.29718 228.378 7.29718H240.723V21.8097H240.712Z" fill="#424750"/>
</g>
<defs>
<clipPath id="clip0_1994_324">
<rect width="248" height="40" fill="white"/>
</clipPath>
</defs>
</svg>
