<svg xmlns="http://www.w3.org/2000/svg" viewBox="0 0 576 512"><!--! Font Awesome Pro 7.2.0 by @fontawesome - https://fontawesome.com License - https://fontawesome.com/license (Commercial License) Copyright 2026 Fonticons, Inc. --><path fill="currentColor" d="M416.4 306.2c5-2.9 11.2-2.9 16.3 0l136 80c7.6 4.5 10.1 14.3 5.7 21.9-4.5 7.6-14.3 10.1-21.9 5.7l-127.9-75.3-127.9 75.3c-5 2.9-11.2 2.9-16.3 0L152.5 338.5 24.6 413.8c-7.6 4.5-17.4 1.9-21.9-5.7-4.5-7.6-1.9-17.4 5.7-21.9l136-80c5-2.9 11.2-2.9 16.2 0l127.9 75.2 127.9-75.2zm0-208c5-2.9 11.2-2.9 16.3 0l136 80c7.6 4.5 10.1 14.3 5.7 21.9-4.5 7.6-14.3 10.1-21.9 5.7l-127.9-75.2-127.9 75.2c-5 2.9-11.2 2.9-16.3 0L152.5 130.5 24.6 205.8c-7.6 4.5-17.4 1.9-21.9-5.7-4.5-7.6-1.9-17.4 5.7-21.9l136-80c5-2.9 11.2-2.9 16.2 0l127.9 75.2 127.9-75.2z"/></svg>