<svg xmlns="http://www.w3.org/2000/svg" viewBox="0 0 512 512"><!--! Font Awesome Pro 7.2.0 by @fontawesome - https://fontawesome.com License - https://fontawesome.com/license (Commercial License) Copyright 2026 Fonticons, Inc. --><path fill="currentColor" d="M408 0c26.6 0 53.2 10.2 73.5 30.5 40.6 40.6 40.6 106.4 0 147.1l-9.8 9.8c-6.2 6.2-16.4 6.2-22.6 0-6.2-6.2-6.2-16.4 0-22.6l9.8-9.8C487 126.8 487 81.2 458.9 53.1 444.9 39 426.5 32 408 32l-6.2 .3c-31 2.8-56.6 26.2-61.8 57.4l-68.2 409c0 .2-.2 .5-.2 .7-.1 .5-.2 .9-.4 1.3-.2 .5-.3 1-.5 1.5-.2 .5-.5 1-.8 1.5-.2 .4-.5 .8-.7 1.2-.3 .5-.7 .9-1 1.3-.3 .4-.6 .7-.9 1.1-.4 .4-.9 .8-1.3 1.2-.3 .3-.6 .5-1 .7-.5 .3-1 .6-1.5 .9-.4 .2-.8 .4-1.3 .6-.5 .2-.9 .3-1.4 .5-.6 .2-1.1 .3-1.7 .4-.2 0-.3 .1-.5 .2-.3 0-.6 0-.9 0-.6 .1-1.2 .1-1.8 .1s-1.2-.1-1.8-.1c-.3 0-.6 0-.8 0-.2 0-.3-.1-.5-.2-.6-.1-1.2-.3-1.7-.4-.5-.2-.9-.3-1.4-.5-.4-.2-.8-.4-1.3-.6-.5-.3-1-.6-1.5-.9-.3-.2-.6-.5-1-.7-.5-.4-.9-.7-1.3-1.2-.3-.3-.6-.7-.9-1.1-.4-.4-.7-.9-1-1.3-.3-.4-.5-.8-.7-1.2-.3-.5-.5-1-.8-1.5-.2-.4-.3-.8-.4-1.2-.2-.6-.4-1.2-.5-1.8 0-.2-.1-.3-.1-.5L172 89.7c-5.2-31.2-30.8-54.6-61.8-57.4L104 32c-18.4 0-36.8 7-50.9 21.1-28.1 28.1-28.1 73.7 0 101.8l9.8 9.8c6.2 6.2 6.2 16.4 0 22.6-6.2 6.2-16.4 6.2-22.6 0l-9.8-9.8C-10.2 136.9-10.2 71.1 30.5 30.5 50.8 10.2 77.4 0 104 0l9.2 .4c45.3 4.1 82.9 38.3 90.5 84L256 398.7 308.4 84.4c7.6-45.6 45.1-79.9 90.5-84L408 0z"/></svg>