<svg xmlns="http://www.w3.org/2000/svg" viewBox="0 0 512 512"><!--! Font Awesome Pro 7.2.0 by @fontawesome - https://fontawesome.com License - https://fontawesome.com/license (Commercial License) Copyright 2026 Fonticons, Inc. --><path fill="currentColor" d="M86.5 425.4l54-15.2c17.3-4.9 35.3 5.5 39.7 23l13.8 54.3 50.6-51.9 2.5-2c2.6-1.8 5.8-2.8 9-2.8 4.3 0 8.5 1.7 11.5 4.8l50.6 52 13.8-54.3c4.4-17.4 22.4-27.8 39.7-22.9l53.9 15.2-7.2-25.4 33.3 0 8.6 30.5c2.4 8.4 0 17.4-6.1 23.5-6.1 6.1-15.1 8.5-23.5 6.1l-67.7-19.1-17.3 68.2c-2.1 8.4-8.7 15-17.1 17.3-8.4 2.2-17.3-.2-23.4-6.4l-49.1-50.4-49 50.4c-6.1 6.2-15 8.7-23.4 6.4s-14.9-8.9-17.1-17.3L149.2 441 81.5 460.1c-8.4 2.4-17.4 0-23.5-6.1s-8.4-15.1-6.1-23.5l8.6-30.5 33.2 0-7.2 25.4zM480 160c8.8 0 16 7.2 16 16l0 66.1c0 11.2-2.1 22.3-6.3 32.7L462.8 342c-2.4 6.1-8.3 10.1-14.8 10.1-5.7 0-10.9-3.1-13.8-7.9l-1.1-2.2-17.2-42.9-17.2 42.9c-2.4 6.1-8.3 10.1-14.8 10.1-5.7 0-10.9-3.1-13.8-7.9l-1.1-2.2-26.9-67.1c-4.2-10.4-6.3-21.5-6.3-32.7l0-66.1c0-8.8 7.2-16 16-16s16 7.2 16 16l0 66.1c0 7.1 1.4 14.2 4 20.8l12 30 17.2-42.9c2.4-6.1 8.3-10.1 14.8-10.1s12.4 4 14.8 10.1L448 293 460 263c2.6-6.6 4-13.7 4-20.8l0-66.1c0-8.8 7.2-16 16-16zm-352 0c8.8 0 16 7.2 16 16l0 160c0 7.2-4.8 13.5-11.7 15.4-6.9 1.9-14.3-1-18-7.2L48 233.7 48 336c0 8.8-7.2 16-16 16s-16-7.2-16-16l0-160c0-7.2 4.8-13.5 11.7-15.4s14.3 1 18 7.2L112 278.2 112 176c0-8.8 7.2-16 16-16zm168 0c8.8 0 16 7.2 16 16s-7.2 16-16 16l-80 0 0 48 64 0c8.8 0 16 7.2 16 16s-7.2 16-16 16l-64 0 0 48 80 0c8.8 0 16 7.2 16 16s-7.2 16-16 16l-96 0c-8.8 0-16-7.2-16-16l0-160c0-8.8 7.2-16 16-16l96 0zM305.1-8c13-13.3 35.9-7.2 40.5 10.8l17.2 68.2 67.7-19.1 3.2-.7c6.3-.9 12.8 .8 17.9 4.7l2.4 2.1 2.1 2.4c4.5 5.9 6.1 13.8 4 21.1l-8.6 30.5-33.3 0 7.2-25.4-53.9 15.2c-17.3 4.9-35.3-5.5-39.7-22.9L318 24.5 278.9 64.7c-12.6 12.9-33.3 12.9-45.8 0L194 24.5 180.2 78.9c-4.4 17.4-22.4 27.8-39.7 22.9l-53.9-15.2 7.2 25.5-33.2 0-8.7-30.5c-2.3-8.3 0-17.3 6.1-23.5l2.4-2.2C65.5 52 72 50.3 78.3 51.2l3.2 .7 67.7 19.2 17.3-68.2 1.1-3.2c6.3-15.5 27.2-20.1 39.4-7.6L256 42.4 305.1-8z"/></svg>