<svg xmlns="http://www.w3.org/2000/svg" viewBox="0 0 512 512"><!--! Font Awesome Pro 7.2.0 by @fontawesome - https://fontawesome.com License - https://fontawesome.com/license (Commercial License) Copyright 2026 Fonticons, Inc. --><path fill="currentColor" d="M408 152c57.4 0 104 46.6 104 104 0 1.1 0 2.2-.1 3.2-1.7 139.9-115.6 252.8-255.9 252.8-54.4 0-104.8-17-146.3-45.9-7.2-5-9-15-4-22.2 5.1-7.2 15-9 22.3-4 36.3 25.3 80.4 40.2 128 40.2 92 0 171-55.5 205.5-134.8-15.6 9.4-33.9 14.8-53.5 14.8-57.4 0-104-46.6-104-104s46.6-104 104-104zM256 0c54.4 0 104.8 17 146.3 45.9 7.2 5.1 9 15 4 22.2s-15 9-22.2 4c-36.3-25.3-80.4-40.2-128-40.2-92 0-171.1 55.5-205.5 134.8 15.6-9.4 34-14.8 53.5-14.8 57.4 0 104 46.6 104 104S161.4 360 104 360 0 313.4 0 256C0 254.1 0 252.2 .1 250.4 3.1 111.6 116.5 0 256 0zM104 184a72 72 0 1 0 0 144 72 72 0 1 0 0-144zm304 0a72 72 0 1 0 0 144 72 72 0 1 0 0-144z"/></svg>