<svg xmlns="http://www.w3.org/2000/svg" viewBox="0 0 640 512"><!--! Font Awesome Pro 7.2.0 by @fontawesome - https://fontawesome.com License - https://fontawesome.com/license (Commercial License) Copyright 2026 Fonticons, Inc. --><path fill="currentColor" d="M384 443.9c37.1-26.5 87.1-26.5 124.2 0 18.2 13 36.5 22.8 54.4 26.2 17.2 3.3 34.6 .8 52.6-12 7.2-5.1 17.2-3.5 22.3 3.7s3.4 17.2-3.8 22.3c-25.6 18.2-52 22.2-77.2 17.4-24.5-4.7-47.2-17.6-66.9-31.6-26-18.6-61.1-18.6-87.1 0-25.6 18.3-52.9 34.1-82 34.1s-56.4-15.8-82-34.1c-26-18.6-61.1-18.6-87.1 0-24.7 17.6-54.6 33.7-86.9 33.5-19.3-.1-38.6-6-57.2-19.3-7.2-5.1-8.9-15.1-3.8-22.3s15.1-8.8 22.3-3.7c13.4 9.6 26.4 13.2 38.8 13.3 22 .1 45-11 68.2-27.5 37.1-26.5 87.1-26.5 124.2 0 25.3 18.1 45.3 28.1 63.5 28.1s38.2-10.1 63.5-28.1zM559.8 256.4c20.8-13.9 48.7 1.1 48.7 26.1l0 37.5c0 40.2-18.5 76-47.5 99.5-6.7-2.9-15-7.6-24.9-14.7-1.6-1.2-3.3-2.3-5-3.4 27.2-16.9 45.4-47 45.4-81.4l0-36.3C540.6 307.4 498.6 320 455.6 320l-270.3 0c-43 0-85-12.7-120.9-36.3l0 36.3c0 34.4 18.1 64.5 45.3 81.4-1.7 1.1-3.3 2.2-4.9 3.4-10.2 7.3-18.4 11.8-24.9 14.7-27.4-22.2-45.4-55.4-47.3-92.9l-.2-6.6 0-37.5c0-25 27.9-39.9 48.7-26.1 28.9 19.3 62.6 30.2 97.3 31.4l6.9 .1 270.3 0c37.1 0 73.3-11 104.2-31.6zM231.6 128c16.1 0 31.8 5.5 44.4 15.6l120.5 96.4-51.2 0-89.3-71.4c-6.9-5.5-15.6-8.6-24.4-8.6-21.6 0-39.1 17.5-39.1 39.1l0 40.9-32 0 0-40.9c0-39.2 31.8-71.1 71.1-71.1zm-23.1-16a56 56 0 1 1 0-112 56 56 0 1 1 0 112zm0-80a24 24 0 1 0 0 48 24 24 0 1 0 0-48z"/></svg>