<svg xmlns="http://www.w3.org/2000/svg" viewBox="0 0 576 512"><!--! Font Awesome Pro 7.2.0 by @fontawesome - https://fontawesome.com License - https://fontawesome.com/license (Commercial License) Copyright 2026 Fonticons, Inc. --><path fill="currentColor" d="M128 256c23.9 0 45.8 8.8 62.6 23.3 10.2-4.7 21.5-7.3 33.4-7.3 41.8 0 76.1 33.1 79.6 73.4 28.7 14.5 48.4 44.2 48.4 78.6 0 48.6-39.4 88-88 88L88 512c-48.6 0-88-39.4-88-88 0-27.4 12.5-51.9 32.1-68-2-53 41.2-100 95.9-100zm0 32c-36.9 0-66.6 33-63.8 69.3 .7 8.6-3.1 16.9-9.9 22-13.6 10.2-22.3 26.5-22.3 44.7 0 30.9 25.1 56 56 56l176 0c30.9 0 56-25.1 56-56 0-22.7-13.5-42.3-33.1-51.1-8.9-4-14.6-12.8-15-22.3-.9-25.3-22.3-46.6-48-46.6-8.1 0-15.8 2-22.5 5.6-9.5 5-21.4 3.7-29.5-4-11.5-10.9-27-17.6-44.1-17.6zm256-96c41.9 0 77.3 26.8 90.4 64.2 1.8-.1 3.7-.2 5.6-.2 53 0 96 43 96 96s-43 96-96 96l-82.2 0c1.4-7.8 2.2-15.8 2.2-24 0-2.7-.1-5.4-.2-8l80.2 0c35.3 0 64-28.7 64-64s-28.7-64-64-64c-4.7 0-9.4 .5-13.9 1.5-4.2 .9-8.7 .1-12.3-2.3-3.6-2.4-6.1-6.2-6.9-10.5-5.3-30-31.5-52.7-62.9-52.7-27.9 0-51.5 17.8-60.3 42.7-7.3-8.6-15.7-16.2-25-22.4 15.9-31 48.1-52.2 85.3-52.2zM240 112c33.6 0 62.3 20.7 74.2 50.1-9.9 5.5-19 12.1-27.3 19.6-4.7-21.5-23.9-37.7-46.8-37.7-26.5 0-48 21.5-48 48 0 13.6 5.7 25.9 14.9 34.7-1.9 .4-3.8 .8-5.7 1.3-11.8-7-24.8-12.3-38.5-15.7-1.7-6.5-2.7-13.3-2.7-20.3 0-44.2 35.8-80 80-80zm0-143.8c5.3 0 10.3 2.6 13.3 7l47.3 70.4 83.3-16.3c5.2-1 10.6 .6 14.4 4.4s5.4 9.1 4.4 14.3l-16.3 83.3 21.9 14.7c-7.9-1.3-16-2.1-24.2-2.1-9.9 0-19.7 1-29 2.9-2-3.3-2.8-7.3-2-11.2L366.7 65.2 296.3 79c-6.3 1.2-12.7-1.4-16.3-6.8l-40.1-59.5-40 59.5c-3.6 5.3-10 7.9-16.3 6.7L113.2 65.2 127 135.7c1.2 6.3-1.4 12.7-6.8 16.3L60.8 192 91.5 212.7C78.9 216 67 220.9 56 227.3L23.2 205.2c-4.4-3-7-7.9-7-13.2 0-5.3 2.6-10.3 7-13.3l70.4-47.3-16.3-83.2c-1-5.2 .6-10.6 4.4-14.4 3.8-3.7 9.1-5.4 14.3-4.4l83.3 16.3 47.4-70.4 1.2-1.5c3-3.5 7.4-5.5 12-5.5z"/></svg>