<svg xmlns="http://www.w3.org/2000/svg" viewBox="0 0 640 512"><!--! Font Awesome Pro 7.2.0 by @fontawesome - https://fontawesome.com License - https://fontawesome.com/license (Commercial License) Copyright 2026 Fonticons, Inc. --><path fill="currentColor" d="M208.3 192c40.2 0 75.4 21.2 95.1 53 15.3-13 35.2-21 56.9-21 48.6 0 88 39.4 88 88 0 2.7-.2 5.4-.4 8 .1 0 .3 0 .4 0 53 0 96 43 96 96s-43 96-96 96l-320 0c-53 0-96-43-96-96 0-42.6 27.7-78.5 66-91.1-1.3-6.7-2-13.7-2-20.9 0-61.9 50.1-112 112-112zm0 32c-44.2 0-80 35.8-80 80 0 6.6 .9 13 2.4 19.2 3.5 13.7-5.2 27.4-18.4 30.8-27.6 7.1-48 32.2-48 61.9 0 35.3 28.7 64 64 64l320 0c35.3 0 64-28.7 64-64s-28.7-64-64-64c-1.4 0-2.8 .1-4.2 .2-9.1 .6-16.8-3.7-21.7-9s-8.3-13.4-6.8-22.3c.5-2.9 .7-5.8 .7-8.8 0-30.9-25.1-56-56-56-15.2 0-29 6.1-39.1 16-6.6 6.4-15.3 8.2-22.6 7.2-7.2-1-15.5-5-20-13.4-13.6-25-40-41.8-70.3-41.8zm192-255.8c5.3 0 10.3 2.6 13.3 7l47.3 70.4 83.3-16.3c5.2-1 10.6 .6 14.4 4.4s5.4 9.1 4.4 14.3l-16.3 83.3 70.4 47.4c4.4 3 7 7.9 7 13.2 0 5.3-2.7 10.3-7.1 13.3l-70.4 47.3 14.5 73.9c-10.9-13.7-24.2-25.3-39.2-34.3l-8.6-43.8-.3-2.4c-.2-5.5 2.4-10.8 7-13.9l59.5-40.1-59.5-40c-5.3-3.6-8-10-6.7-16.3L527 65.2 456.6 79c-6.3 1.2-12.7-1.4-16.3-6.8l-40.1-59.5-40 59.5c-3.6 5.3-10 7.9-16.3 6.7l-70.4-13.8 13.8 70.4c1.2 6.3-1.4 12.7-6.8 16.3l-8.2 5.5c-12.6-5.5-26-9.5-40-11.6l21.5-14.5-16.3-83.2c-1-5.2 .6-10.6 4.4-14.4 3.8-3.7 9.1-5.4 14.3-4.4l83.3 16.3 47.4-70.4 1.2-1.5c3-3.5 7.4-5.5 12-5.5zm0 143.8c44.2 0 80 35.8 80 80 0 14.4-3.8 27.8-10.4 39.5-6.9-9.3-14.9-17.7-23.8-25 1.4-4.6 2.2-9.4 2.2-14.5 0-26.5-21.5-48-48-48-20.9 0-38.8 13.4-45.3 32.1-11.8 .5-23.2 2.5-34.1 5.8 5-39.4 38.6-69.9 79.4-69.9z"/></svg>