<svg xmlns="http://www.w3.org/2000/svg" viewBox="0 0 640 512"><!--! Font Awesome Pro 7.2.0 by @fontawesome - https://fontawesome.com License - https://fontawesome.com/license (Commercial License) Copyright 2026 Fonticons, Inc. --><path fill="currentColor" d="M312.5-32c5.6 0 10.8 3 13.7 7.8l57.6 96.1c-9.5 5-18.5 10.7-27.1 17l-44.2-73.8-52.9 88.3c-3.6 6-10.8 9-17.6 7.3l-99.8-25 25 99.8c1.7 6.8-1.2 14-7.3 17.6L71.6 256 159.9 308.9c6 3.6 9 10.8 7.3 17.6l-25 99.8 99.8-25 2.6-.4c6-.5 11.9 2.4 15 7.7l52.9 88.3 44.2-73.8c8.5 6.3 17.6 12 27.1 17l-57.5 96.1c-2.9 4.8-8.1 7.8-13.7 7.8s-10.8-3-13.7-7.8l-60.5-101-114.2 28.6c-5.5 1.4-11.2-.2-15.2-4.2s-5.6-9.8-4.2-15.2l28.6-114.2-101-60.5c-4.8-2.9-7.8-8.1-7.8-13.7s3-10.8 7.8-13.7l101-60.5-28.6-114.2c-1.4-5.5 .2-11.2 4.2-15.2s9.8-5.5 15.2-4.2l114.2 28.6 60.5-101 1.2-1.7c3-3.8 7.6-6.1 12.5-6.1zm168 448a160 160 0 1 1 0-320 160 160 0 1 1 0 320zm0-288a128 128 0 1 0 0 256 128 128 0 1 0 0-256zM305.1 144.3c-7.2 11.3-13.4 23.3-18.3 36-31.5 10.7-54.2 40.6-54.2 75.7s22.7 65 54.2 75.7c4.9 12.7 11.1 24.7 18.3 36-58.4-3.8-104.6-52.3-104.6-111.7s46.2-107.9 104.6-111.7z"/></svg>