<svg xmlns="http://www.w3.org/2000/svg" viewBox="0 0 576 512"><!--! Font Awesome Pro 7.2.0 by @fontawesome - https://fontawesome.com License - https://fontawesome.com/license (Commercial License) Copyright 2026 Fonticons, Inc. --><path fill="currentColor" d="M176 384c8.8 0 16 7.2 16 16l0 128c0 8.8-7.2 16-16 16s-16-7.2-16-16l0-128c0-8.8 7.2-16 16-16zm104 0c22.1 0 40 17.9 40 40l0 8c0 8.8-7.2 16-16 16s-16-7.2-16-16l0-8c0-4.4-3.6-8-8-8l-16 0c-4.4 0-8 3.6-8 8l0 80c0 4.4 3.6 8 8 8l16 0c4.4 0 8-3.6 8-8l0-8c0-8.8 7.2-16 16-16s16 7.2 16 16l0 8c0 22.1-17.9 40-40 40l-16 0c-22.1 0-40-17.9-40-40l0-80c0-22.1 17.9-40 40-40l16 0zm152 0c8.8 0 16 7.2 16 16l0 128-.2 2.7c-1.1 6.2-5.8 11.3-12.1 12.8-7.2 1.7-14.7-1.8-18-8.4L384 467.8 384 528c0 8.8-7.2 16-16 16s-16-7.2-16-16l0-128 .2-2.7c1.1-6.2 5.8-11.3 12.1-12.8 7.2-1.7 14.7 1.8 18 8.4l33.7 67.4 0-60.2c0-8.8 7.2-16 16-16zm120 0c8.8 0 16 7.2 16 16s-7.2 16-16 16l-26.3 0c-7.5 0-13.7 6.1-13.7 13.7 0 5.2 2.9 9.9 7.6 12.2l31.2 15.6c15.5 7.7 25.3 23.5 25.3 40.8 0 25.2-20.4 45.7-45.7 45.7L496 544c-8.8 0-16-7.2-16-16s7.2-16 16-16l34.3 0c7.5 0 13.7-6.1 13.7-13.7 0-5.2-2.9-9.9-7.6-12.2l-31.2-15.6c-15.5-7.7-25.3-23.5-25.3-40.8 0-25.2 20.4-45.7 45.7-45.7l26.3 0zM235.8 .3c14.7 1.5 28.4 7.9 38.9 18.4L397.3 141.2c12 12 18.7 28.3 18.7 45.2l0 149.5-32 0 0-144-96 0c-35.3 0-64-28.7-64-64l0-96-128 0C78.3 32 64 46.3 64 64l0 384c0 17.7 14.3 32 32 32l16 0 0 32-16 0c-35.3 0-64-28.7-64-64L32 64C32 28.7 60.7 0 96 0l133.5 0 6.3 .3zM256 128c0 17.7 14.3 32 32 32l82.7 0-114.7-114.8 0 82.8z"/></svg>