<svg xmlns="http://www.w3.org/2000/svg" viewBox="0 0 576 512"><!--! Font Awesome Pro 7.2.0 by @fontawesome - https://fontawesome.com License - https://fontawesome.com/license (Commercial License) Copyright 2026 Fonticons, Inc. --><path fill="currentColor" d="M347.8 80.3c58.2 3.2 107 30.2 143.7 61.2 28.6 24.2 62.8 58.7 79.9 97.3l3.2 7.7 .6 1.9c1.2 4.9 1.2 10.1 0 15-.2 .6-.4 1.3-.6 1.9-15.7 41.7-52.5 79.2-83.1 105-36.7 31-85.5 58-143.7 61.2L336 432c-63.4 0-116.3-28.5-155.5-61.6-15.8-13.3-29.6-28.2-42.6-43.2l-89.8 52.4 0 0c-12.5 7.3-28.3 5.2-38.6-4.9l0 0c-10.3-10.2-12.4-26-5.2-38.6L50 256 4.2 175.9c-7.1-12.5-5.1-28.4 5.2-38.6 10.3-10.2 26.2-12.2 38.7-4.9l0 0 89.8 52.4c12.9-15.1 26.8-29.9 42.6-43.2 39.2-33.1 92-61.6 155.5-61.6l11.8 .3zm-21.7 32c-49.2 2.7-91.6 25.6-124.9 53.7-17.2 14.5-32.3 31.4-47.4 49.6-5 6-13.6 7.5-20.3 3.6L32 160 32 160 82.3 248.1c2.8 4.9 2.8 11 0 15.9l-50.3 88 0 0 101.4-59.1 2.6-1.2c6.2-2.3 13.4-.4 17.8 4.8 15.1 18.2 30.2 35 47.4 49.6 35.5 30 81.4 54 134.8 54s99.3-24 134.8-54c29.1-24.6 59.8-57 72.9-90-13.2-33-43.9-65.4-72.9-90-35.5-30-81.4-54-134.8-54l-9.9 .3zM416 280a24 24 0 1 1 0-48 24 24 0 1 1 0 48z"/></svg>