<svg xmlns="http://www.w3.org/2000/svg" viewBox="0 0 576 512"><!--! Font Awesome Pro 7.2.0 by @fontawesome - https://fontawesome.com License - https://fontawesome.com/license (Commercial License) Copyright 2026 Fonticons, Inc. --><path fill="currentColor" d="M344 384c22.1 0 40 17.9 40 40l0 104c0 8.8-7.2 16-16 16s-16-7.2-16-16l0-32-32 0 0 32c0 8.8-7.2 16-16 16s-16-7.2-16-16l0-104c0-22.1 17.9-40 40-40l16 0zm120 0c30.9 0 56 25.1 56 56s-25.1 56-56 56l-16 0 0 32c0 8.8-7.2 16-16 16s-16-7.2-16-16l0-128c0-8.8 7.2-16 16-16l32 0zm96 0c8.8 0 16 7.2 16 16l0 128c0 8.8-7.2 16-16 16s-16-7.2-16-16l0-128c0-8.8 7.2-16 16-16zM328 416c-4.4 0-8 3.6-8 8l0 40 32 0 0-40c0-4.4-3.6-8-8-8l-16 0zm120 48l16 0c13.3 0 24-10.7 24-24s-10.7-24-24-24l-16 0 0 48zM325.9-16c15.2 0 28.3 10.7 31.3 25.6l15.2 74c7.8 3.8 15.4 8.2 22.6 13l71.8-23.8C481.2 68 497 74 504.6 87.2l37.9 65.7c7.6 13.1 4.9 29.8-6.4 39.9L479.5 243c.3 4.3 .5 8.7 .5 13 0 4.4-.2 8.7-.5 13l56.6 50.3c5.1 4.5 8.4 10.5 9.8 16.7l-39.1 0-48.5-43.1c-7.4-6.6-11.3-16.2-10.7-26 .3-4 .4-7.5 .4-10.8 0-3.4-.2-7-.4-10.9-.7-9.9 3.3-19.5 10.7-26.1l56.5-50.2-37.9-65.7-71.8 23.8c-9.4 3.1-19.7 1.7-27.9-3.8-5.9-4-12.2-7.6-18.8-10.9-8.9-4.4-15.3-12.6-17.3-22.3l-15.2-74-75.8 0 0 0-15.3 74c-2 9.7-8.4 17.9-17.2 22.2-6.6 3.2-12.8 6.8-18.8 10.8-8.2 5.5-18.6 7-28 3.8l-71.7-23.8-37.9 65.7 0 0 56.5 50.3c7.4 6.6 11.3 16.2 10.7 26-.3 3.8-.4 7.4-.4 10.8 0 3.5 .2 7 .4 10.8 .7 9.9-3.3 19.5-10.7 26l-56.5 50.3 0 0 37.9 65.7 71.7-23.8 3.6-.9c8.4-1.8 17.2-.1 24.4 4.8 12.6 8.5 26.4 15.2 41.2 19.8l0 33.3c-21.4-5.5-41.3-14.5-59.1-26.5l-71.7 23.8C94.8 444 79 438 71.4 424.8L33.5 359.2c-7.6-13.1-4.9-29.8 6.5-39.9l56.5-50.3c-.3-4.3-.5-8.6-.5-12.9 0-4.4 .2-8.7 .5-13L39.9 192.8c-11.3-10.1-14.1-26.8-6.5-39.9L71.4 87.2C79 74 94.8 68 109.2 72.8l71.7 23.8c7.2-4.8 14.7-9.2 22.6-13l15.3-74C221.8-5.3 234.9-16 250.1-16l75.8 0zM288 344a88 88 0 1 1 0-176 88 88 0 1 1 0 176zm0-144a56 56 0 1 0 0 112 56 56 0 1 0 0-112z"/></svg>