<svg xmlns="http://www.w3.org/2000/svg" viewBox="0 0 576 512"><!--! Font Awesome Pro 7.2.0 by @fontawesome - https://fontawesome.com License - https://fontawesome.com/license (Commercial License) Copyright 2026 Fonticons, Inc. --><path fill="currentColor" d="M344 384c22.1 0 40 17.9 40 40l0 104c0 8.8-7.2 16-16 16s-16-7.2-16-16l0-32-32 0 0 32c0 8.8-7.2 16-16 16s-16-7.2-16-16l0-104c0-22.1 17.9-40 40-40l16 0zm120 0c30.9 0 56 25.1 56 56s-25.1 56-56 56l-16 0 0 32c0 8.8-7.2 16-16 16s-16-7.2-16-16l0-128c0-8.8 7.2-16 16-16l32 0zm96 0c8.8 0 16 7.2 16 16l0 128c0 8.8-7.2 16-16 16s-16-7.2-16-16l0-128c0-8.8 7.2-16 16-16zM309.8 0c22.9 0 42.6 16.2 47.1 38.6l3.4 17.1c.6 3.1 3.1 6.4 7.4 8.2 4.2 1.7 8.2 1.2 10.8-.6l14.6-9.7c19-12.7 44.4-10.2 60.5 6l30.8 30.8c16.2 16.2 18.7 41.6 6 60.6l-9.7 14.5c-1.8 2.7-2.3 6.7-.6 10.9 1.8 4.3 5.1 6.8 8.2 7.4l17.1 3.4c22.4 4.5 38.6 24.2 38.6 47.1l0 43.5c0 22.9-16.2 42.6-38.6 47.1l-17.1 3.4c-3.1 .6-6.4 3.1-8.2 7.4 0 .1-.1 .2-.1 .3l-32.6 0c.5-4.4 1.5-8.6 3.2-12.7 5.3-12.7 16.5-23.5 31.4-26.5l17.1-3.4c7.5-1.5 12.9-8.1 12.9-15.7l0-43.5c0-7.6-5.4-14.2-12.8-15.7L482 215.1c-14.9-3-26.1-13.8-31.4-26.5-5.4-12.8-4.9-28.3 3.5-40.9l9.7-14.5c4.2-6.3 3.4-14.8-2-20.2L431 82.2c-5.4-5.4-13.8-6.2-20.2-2l-14.5 9.7c-12.6 8.4-28.1 8.8-40.9 3.5-12.7-5.3-23.5-16.5-26.5-31.5l-3.4-17c-1.5-7.5-8.1-12.9-15.7-12.9l-43.5 0c-7.6 0-14.2 5.4-15.7 12.8l-3.4 17.1c-3 14.9-13.8 26.1-26.5 31.4-12.8 5.4-28.3 4.9-40.9-3.5l-14.5-9.7c-6.3-4.2-14.8-3.4-20.2 2L114.2 113c-5.4 5.4-6.2 13.8-2 20.2l9.7 14.5c8.4 12.6 8.9 28.1 3.5 40.9-5.3 12.7-16.5 23.5-31.4 26.5l-17.1 3.4C69.4 220 64 226.6 64 234.2l0 43.5c0 7.6 5.4 14.2 12.9 15.7l17 3.4c14.9 3 26.2 13.8 31.5 26.5 5.3 12.8 4.9 28.3-3.5 40.9l-9.7 14.5c-4.2 6.3-3.4 14.8 2 20.2L145 429.8c5.4 5.4 13.8 6.2 20.2 2l11.3-7.6c14.7-9.8 32.6-10.1 47.4-4.3 5.2 2.1 10.6 3.8 16.1 5.4l0 33c-9.5-2.3-18.8-5.1-27.8-8.7-6.7-2.6-13.4-1.9-18 1.2L183 458.4c-19 12.7-44.4 10.2-60.6-6L91.6 421.6c-16.2-16.2-18.7-41.5-6-60.5l9.7-14.6c1.8-2.7 2.3-6.7 .6-10.8-1.8-4.3-5.1-6.8-8.2-7.4l-17.1-3.4C48.2 320.4 32 300.6 32 277.8l0-43.5c0-22.9 16.1-42.6 38.6-47.1l17.1-3.4c3.1-.6 6.4-3.1 8.2-7.4 1.7-4.2 1.2-8.2-.6-10.9l-9.7-14.5c-12.7-19-10.2-44.4 6-60.6l30.8-30.8c16.2-16.2 41.5-18.7 60.6-6l14.5 9.7c2.7 1.8 6.7 2.3 10.9 .6 4.3-1.8 6.8-5.1 7.4-8.2l3.4-17.1C223.7 16.1 243.3 0 266.2 0l43.5 0zM328 416c-4.4 0-8 3.6-8 8l0 40 32 0 0-40c0-4.4-3.6-8-8-8l-16 0zm120 48l16 0c13.3 0 24-10.7 24-24s-10.7-24-24-24l-16 0 0 48zM288 352a96 96 0 1 1 0-192 96 96 0 1 1 0 192zm0-160a64 64 0 1 0 0 128 64 64 0 1 0 0-128z"/></svg>