<svg xmlns="http://www.w3.org/2000/svg" viewBox="0 0 576 512"><!--! Font Awesome Pro 7.2.0 by @fontawesome - https://fontawesome.com License - https://fontawesome.com/license (Commercial License) Copyright 2026 Fonticons, Inc. --><path fill="currentColor" d="M104.2 384c27.6 39.6 67.7 69.8 114.5 85.1-16.4-22-30.3-51.4-40.5-85.1l33.6 0c4.3 13 9.2 25.1 14.6 36.1 22.1 44.9 46 59.9 61.5 59.9s39.4-15 61.5-59.9c5.4-11 10.3-23.1 14.6-36.1l33.6 0c-10.1 33.7-24 63-40.5 85.1 46.9-15.2 86.9-45.5 114.6-85.1l37.9 0C465.4 460.5 382.7 512 288 512S110.6 460.5 66.3 384l37.9 0zM144 176c8.8 0 16 7.2 16 16l0 31.6c0 39.6-14 74.3-34.7 105.3-3 4.5-8 7.1-13.3 7.1s-10.3-2.7-13.3-7.1L84.4 307.5c-1.6-2.4-3-4.8-4.4-7.2-1.4 2.4-2.9 4.9-4.4 7.2L61.3 328.9c-3 4.5-8 7.1-13.3 7.1s-10.3-2.7-13.3-7.1C14 297.9 0 263.1 0 223.6L0 192c0-8.8 7.2-16 16-16s16 7.2 16 16l0 31.6c0 23.5 6.1 45.4 16.8 66.3l.1-.2c9.8-14.7 15.1-32 15.1-49.8 0-8.8 7.2-16 16-16s16 7.2 16 16c0 17.7 5.2 35 15.1 49.8l.1 .2C121.8 269 128 247.1 128 223.6l0-31.6c0-8.8 7.2-16 16-16zm208 0c8.8 0 16 7.2 16 16l0 31.6c0 39.6-14 74.3-34.7 105.3-3 4.5-8 7.1-13.3 7.1s-10.3-2.7-13.3-7.1l-14.2-21.4c-1.6-2.4-3-4.8-4.4-7.2-1.4 2.4-2.9 4.9-4.4 7.2l-14.2 21.4c-3 4.5-8 7.1-13.3 7.1s-10.3-2.7-13.3-7.1C222 297.9 208 263.1 208 223.6l0-31.6c0-8.8 7.2-16 16-16s16 7.2 16 16l0 31.6c0 23.5 6.1 45.4 16.8 66.3l.1-.2c9.8-14.7 15.1-32 15.1-49.8 0-8.8 7.2-16 16-16s16 7.2 16 16c0 17.7 5.2 35 15.1 49.8l.1 .2C329.8 269 336 247.1 336 223.6l0-31.6c0-8.8 7.2-16 16-16zm208 0c8.8 0 16 7.2 16 16l0 31.6c0 39.6-14 74.3-34.7 105.3-3 4.5-8 7.1-13.3 7.1s-10.3-2.7-13.3-7.1l-14.2-21.4c-1.6-2.4-3-4.8-4.4-7.2-1.4 2.4-2.9 4.9-4.4 7.2l-14.2 21.4c-3 4.5-8 7.1-13.3 7.1s-10.3-2.7-13.3-7.1C430 297.9 416 263.1 416 223.6l0-31.6c0-8.8 7.2-16 16-16s16 7.2 16 16l0 31.6c0 23.5 6.1 45.4 16.8 66.3l.1-.2c9.8-14.7 15.1-32 15.1-49.8 0-8.8 7.2-16 16-16s16 7.2 16 16c0 17.7 5.2 35 15.1 49.8l.1 .2C537.8 269 544 247.1 544 223.6l0-31.6c0-8.8 7.2-16 16-16zM288 0c94.7 0 177.4 51.5 221.7 128l-37.9 0c-27.6-39.6-67.7-69.9-114.6-85.1 16.5 22 30.4 51.4 40.5 85.1l-33.6 0c-4.3-13-9.2-25.1-14.6-36.1-22.1-44.9-46-59.9-61.5-59.9s-39.4 15-61.5 59.9c-5.4 11-10.3 23.1-14.6 36.1l-33.6 0c10.1-33.7 24-63 40.5-85.1-46.9 15.2-86.9 45.5-114.6 85.1l-37.9 0C110.6 51.5 193.3 0 288 0z"/></svg>