<svg xmlns="http://www.w3.org/2000/svg" viewBox="0 0 640 512"><!--! Font Awesome Pro 7.2.0 by @fontawesome - https://fontawesome.com License - https://fontawesome.com/license (Commercial License) Copyright 2026 Fonticons, Inc. --><path fill="currentColor" d="M64 32c8.8 0 16 7.2 16 16l0 16 421.5 0 6.3 .3c14.7 1.5 28.4 7.9 38.9 18.4l42.5 42.5c12 12 18.7 28.3 18.7 45.2l0 171-.3 6.3c-1.5 14.7-7.9 28.4-18.4 38.9l-42.5 42.5-4.7 4.2c-9.8 8-21.7 12.9-34.3 14.2l-6.3 .3-149.5 0 0 32c0 16.6-12.6 30.2-28.7 31.8l-3.3 .2-160 0-3.3-.2c-15.1-1.5-27-13.5-28.6-28.6l-.2-3.3 0-32-16 0-6.5-.3c-30.1-3.1-54.1-27-57.1-57.1L48 384 48 64 16 64C7.2 64 0 56.8 0 48S7.2 32 16 32l48 0zm96 448l160 0 0-32-160 0 0 32zM80 384c0 17.7 14.3 32 32 32l389.5 0c8.5 0 16.6-3.4 22.6-9.4l42.5-42.5c6-6 9.4-14.1 9.4-22.6l0-171c0-8.5-3.4-16.6-9.4-22.6l-42.5-42.5c-5.3-5.3-12.1-8.5-19.5-9.2L501.5 96 80 96 80 384zm320 0a128 128 0 1 1 0-256 128 128 0 1 1 0 256zm23.4-102.9c-2.3 25.5-11.4 50-26.4 70.8 1 0 2 .1 3 .1 21.7 0 41.7-7.3 57.8-19.5l-3.5-8.7c-6.7-16.6-17.4-31.2-30.8-42.7zM390 288.8c-23.3 10.8-49 15-74.6 12.5 10.3 19.2 26.9 34.5 47.1 43.1l5.9-7.6c11-14.1 18.3-30.6 21.6-48zM224 288c8.8 0 16 7.2 16 16s-7.2 16-16 16l-80 0c-8.8 0-16-7.2-16-16s7.2-16 16-16l80 0zm261.8-45.1c-17.7-2.5-35.7-.5-52.4 5.4 20.9 14.7 37.5 34.8 48.1 58.2 9.1-14.7 14.5-31.9 14.5-50.5 0-4-.3-7.9-.7-11.8l-9.4-1.3zM318.5 205.5c-9.1 14.7-14.5 32-14.5 50.5 0 4 .2 7.9 .7 11.8l9.5 1.3c17.7 2.4 35.7 .5 52.4-5.3-20.9-14.7-37.5-34.9-48.1-58.3zM400 160c-21.7 0-41.7 7.3-57.8 19.4l3.6 8.8c6.7 16.6 17.4 31.2 30.8 42.7 2.3-25.5 11.4-50 26.4-70.9-1 0-2-.1-3-.1zM224 192c8.8 0 16 7.2 16 16s-7.2 16-16 16l-80 0c-8.8 0-16-7.2-16-16s7.2-16 16-16l80 0zm207.6-16.8c-11 14.2-18.3 30.7-21.6 48.1 23.3-10.8 49-15.1 74.6-12.6-10.3-19.2-26.9-34.6-47.1-43.1l-5.9 7.6z"/></svg>