<svg xmlns="http://www.w3.org/2000/svg" viewBox="0 0 576 512"><!--! Font Awesome Pro 7.2.0 by @fontawesome - https://fontawesome.com License - https://fontawesome.com/license (Commercial License) Copyright 2026 Fonticons, Inc. --><path fill="currentColor" d="M512 64c35.3 0 64 28.7 64 64l0 256-.3 6.5c-3.1 30.1-27 54.1-57.1 57.1l-6.5 .3-448 0-6.5-.3c-30.1-3.1-54.1-27-57.1-57.1L0 384 0 128C0 92.7 28.7 64 64 64l448 0zM64 96c-16.6 0-30.2 12.6-31.8 28.7L32 128 32 384c0 17.7 14.3 32 32 32l448 0c17.7 0 32-14.3 32-32l0-256c0-17.7-14.3-32-32-32L64 96zm336 64c8.8 0 16 7.2 16 16l0 160c0 8.8-7.2 16-16 16s-16-7.2-16-16l0-160c0-8.8 7.2-16 16-16zM120 280a24 24 0 1 1 0-48 24 24 0 1 1 0 48zm96 0a24 24 0 1 1 0-48 24 24 0 1 1 0 48zm96 0a24 24 0 1 1 0-48 24 24 0 1 1 0 48z"/></svg>