<svg xmlns="http://www.w3.org/2000/svg" viewBox="0 0 576 512"><!--! Font Awesome Pro 7.2.0 by @fontawesome - https://fontawesome.com License - https://fontawesome.com/license (Commercial License) Copyright 2026 Fonticons, Inc. --><path fill="currentColor" d="M17.9-14.5c26.6-26.6 69.6-26.6 96.2 0l55.7 55.7c4.2 4.2 7.2 9.3 8.9 15l27.8 95.3 186.2 186.2 95.4 27.9c5.7 1.7 10.8 4.7 15 8.9l55.7 55.7c26.6 26.6 26.6 69.6 0 96.2s-69.6 26.6-96.2 0L407 470.8c-4.2-4.2-7.3-9.3-8.9-15L370.2 360.4 184 174.2 88.6 146.3c-4.2-1.2-8.2-3.3-11.7-6l-3.3-2.9-55.7-55.7C-8.6 55.1-8.6 12 17.9-14.5zM428.8 446.8c.1 .4 .4 .9 .8 1.3l55.7 55.7c14.1 14.1 36.9 14.1 51 0s14.1-36.9 0-51l-55.7-55.7c-.4-.4-.9-.7-1.3-.8l-71.3-20.8 20.8 71.3zm-270.1-230l7.9 7.9c-65.5 83.6-89.6 167.7-98 227.9-1.9 13.9 9.2 25 23.1 23.1 60.2-8.4 144.3-32.5 227.9-98l7.9 7.9 6.3 21.5c-80.4 61.4-161.2 87.3-222.8 97.9l-14.8 2.3c-35 4.9-64.1-24.2-59.2-59.2 8.9-63.2 33.8-150.7 100.2-237.7l21.5 6.3zm61.8 61.8c-12.5 12.5-12.5 32.8 0 45.3 12.5 12.5 32.8 12.5 45.2 0l0 0 22.6 22.6 0 0c-25 25-65.5 25-90.5 0-25-25-25-65.5 0-90.5l22.6 22.6zM487.1 4c32-.7 57.4 26.9 52.8 59.7l-2.3 14.8C527 140.3 501.1 221 439.6 301.4l-21.5-6.3-7.9-7.9c65.5-83.6 89.6-167.7 98-227.9 1.9-13.9-9.1-25-23.1-23.1-60.2 8.4-144.4 32.5-227.9 98l-7.9-7.9-6.3-21.5C330 38.3 417.4 13.4 480.7 4.5l6.4-.5zM293.3 161.1c25.1-20.5 62.2-19 85.6 4.4 25 25 25 65.5 0 90.5l-22.6-22.6c12.5-12.5 12.5-32.8 0-45.3-12.5-12.5-32.8-12.5-45.2 0l-22.6-22.6 4.9-4.4zM91.5 8.1C77.4-6 54.6-6 40.5 8.1s-14.1 36.9 0 51l55.7 55.7c.4 .4 .9 .7 1.4 .8l71.2 20.8-20.8-71.2-.8-1.4-55.7-55.7z"/></svg>