<svg xmlns="http://www.w3.org/2000/svg" viewBox="0 0 512 512"><!--! Font Awesome Pro 7.2.0 by @fontawesome - https://fontawesome.com License - https://fontawesome.com/license (Commercial License) Copyright 2026 Fonticons, Inc. --><path fill="currentColor" d="M498.1 314.2c8.5 3.9 13.9 12.4 13.9 21.8 0 9.4-5.4 17.9-13.9 21.8l-218.6 101-5.7 2.2c-13.5 4.5-28.3 3.8-41.3-2.2L13.9 357.7C5.4 353.8 0 345.3 0 336 0 326.6 5.5 318.1 13.9 314.2l68.7-31.8 38.1 17.6-77.8 35.9 202.9 93.8c6.4 2.9 13.7 2.9 20.1 0l202.8-93.8-77.7-35.9 38.1-17.6 68.8 31.8zM232.5 53.1c14.9-6.9 32.1-6.9 47 0l218.6 101c8.5 3.9 13.9 12.4 13.9 21.8 0 9.4-5.4 17.9-13.9 21.8l-218.6 101-5.7 2.2c-13.5 4.5-28.3 3.8-41.3-2.2L13.9 197.7C5.4 193.8 0 185.3 0 176 0 166.6 5.5 158.1 13.9 154.2l218.6-101zm33.6 29.1c-6.4-2.9-13.7-2.9-20.1 0L43.1 176 245.9 269.7c6.4 2.9 13.7 2.9 20.1 0L468.9 176 266.1 82.2z"/></svg>