<svg xmlns="http://www.w3.org/2000/svg" viewBox="0 0 512 512"><!--! Font Awesome Pro 7.2.0 by @fontawesome - https://fontawesome.com License - https://fontawesome.com/license (Commercial License) Copyright 2026 Fonticons, Inc. --><path fill="currentColor" d="M496.5 32c6.3 0 12.1 3.7 14.6 9.5s1.5 12.5-2.8 17.2l-91.8 101 0 .2-.2 0-143.8 158.2 0 161.8 96 0c8.8 0 16 7.2 16 16s-7.2 16-16 16l-224 0c-8.8 0-16-7.2-16-16s7.2-16 16-16l96 0 0-161.8-143.8-158.2-.2 0 0-.2-91.8-101C.4 54.1-.7 47.3 1.9 41.5S10.2 32 16.5 32l480 0zM139.9 160L256.5 288.2 373.1 160 139.9 160zm-29.1-32l291.3 0 58.2-64-407.7 0 58.2 64z"/></svg>