<svg xmlns="http://www.w3.org/2000/svg" viewBox="0 0 512 512"><!--! Font Awesome Pro 7.2.0 by @fontawesome - https://fontawesome.com License - https://fontawesome.com/license (Commercial License) Copyright 2026 Fonticons, Inc. --><path fill="currentColor" d="M256 0C397.4 0 512 114.6 512 256S397.4 512 256 512c-29.9 0-58.6-5.2-85.3-14.6-6.4-2.3-10.7-8.3-10.7-15.1s4.3-12.8 10.7-15.1C257.7 436.4 320 353.5 320 256S257.7 75.5 170.7 44.8c-6.4-2.3-10.7-8.3-10.7-15.1s4.3-12.8 10.7-15.1C197.4 5.2 226.1 0 256 0zm0 32c-10.9 0-21.6 .8-32 2.3 76.5 44.2 128 126.9 128 221.7S300.5 433.4 223.9 477.7c10.5 1.5 21.2 2.3 32.1 2.3 123.7 0 224-100.3 224-224S379.7 32 256 32zM46.1 368.9c7.6-3.1 16.3 0 20.7 6.9 13.3 21 29.9 39.6 49.2 55.1 6.9 5.5 8 15.6 2.5 22.5-5.5 6.9-15.6 8-22.5 2.5-22.6-18.1-42.1-40.1-57.4-64.8-5-8.1-1.3-18.5 7.5-22.1zM6.8 197.7c2.2-9.2 12.2-13.9 20.9-10.3 7.6 3.1 11.5 11.5 9.8 19.5-3.5 15.8-5.4 32.3-5.4 49.1s1.9 33.3 5.4 49.1c1.8 8-2.2 16.4-9.8 19.5-8.8 3.6-18.8-1.1-20.9-10.3-4.4-18.7-6.7-38.3-6.8-58.3s2.4-39.6 6.8-58.3zM96.1 56.1c6.9-5.5 17-4.4 22.5 2.5 5.5 6.9 4.4 17-2.5 22.5-19.3 15.5-36 34.1-49.3 55.1-4.4 6.9-13.1 10-20.7 6.9-8.8-3.6-12.5-14.1-7.5-22.1 15.4-24.8 34.8-46.7 57.5-64.9z"/></svg>