<svg xmlns="http://www.w3.org/2000/svg" viewBox="0 0 512 512"><!--! Font Awesome Pro 7.2.0 by @fontawesome - https://fontawesome.com License - https://fontawesome.com/license (Commercial License) Copyright 2026 Fonticons, Inc. --><path fill="currentColor" d="M256 0c32.8 0 64.1 6.2 93 17.4l1.6 .6c1 .4 2 .8 3 1.3 1.5 .6 3.1 1.3 4.6 1.9 1.4 .6 2.7 1.2 4 1.8 1.2 .5 2.4 1.1 3.6 1.7 1.8 .9 3.6 1.8 5.4 2.7 .7 .4 1.4 .7 2.1 1.1 1.7 .9 3.5 1.8 5.2 2.7 1.2 .6 2.3 1.3 3.5 2 35.2 19.9 65.2 47.9 87.5 81.5l1.4 2.2c.3 .4 .5 .8 .7 1.2 25.5 39.8 40.4 87.1 40.4 137.9 0 32.5-6.1 63.5-17.1 92.1-.2 .4-.4 .9-.5 1.3-7.1 18.1-16.2 35.1-27 50.9-.6 .8-1.1 1.6-1.7 2.5-20.8 29.7-47.7 54.7-79 73.3l-.1 .1c-.1 .1-.2 .1-.3 .2-1.4 .8-2.8 1.6-4.2 2.4-1.1 .6-2.2 1.3-3.4 1.9-1.6 .9-3.2 1.7-4.8 2.6-1.1 .6-2.2 1.2-3.4 1.7-1.4 .7-2.8 1.4-4.2 2-1.7 .8-3.4 1.6-5.1 2.4-.9 .4-1.8 .8-2.7 1.2-2 .9-4.1 1.8-6.1 2.6-.9 .4-1.8 .8-2.8 1.1-29 11.5-60.7 17.8-93.8 17.8-47.7 0-92.3-13.1-130.5-35.8-8.1-4.8-9.6-15.8-3.5-23.1 5.3-6.3 14.4-7.5 21.5-3.4 33.1 19.2 71.5 30.3 112.5 30.3 10.9 0 21.6-.8 32.1-2.3-76.5-44.2-128-126.9-128-221.7S211.5 78.5 288 34.3c-10.5-1.5-21.2-2.3-32-2.3-41 0-79.4 11-112.5 30.2-7.1 4.1-16.2 2.9-21.5-3.4-6.1-7.3-4.6-18.2 3.5-23.1 38.2-22.7 82.8-35.7 130.5-35.8zm79.9 46.8c-84.2 32.2-143.9 113.7-143.9 209.2 0 95.5 59.8 176.9 144 209.1 .3-.1 .6-.2 .8-.3 40.4-15.6 75-42.6 100.2-77 6.9-9.5 13.1-19.5 18.5-30 6.7-13 12.1-26.8 16.2-41.2 2.1-7.3 3.7-14.8 5-22.3 2.2-12.5 3.3-25.2 3.3-38.3 0-13.2-1.2-26.2-3.4-38.8-2.5-14.4-6.4-28.3-11.5-41.6-3.1-8.2-6.8-16.1-10.8-23.8-5.2-9.9-11.1-19.3-17.7-28.3-24.5-33.4-58.1-59.7-97.1-75.4-1.2-.5-2.4-.9-3.6-1.3zM18.8 280c8.2 0 15 6.2 16.4 14.3 6.9 40 24.4 76.4 49.6 106.1 5.3 6.3 5.7 15.5 .4 21.8-6.1 7.3-17.2 7.7-23.4 .5-30-34.9-50.7-77.9-58.4-125.3-1.5-9.3 5.9-17.5 15.4-17.5zm43-190.8c6.2-7.2 17.3-6.7 23.4 .5 5.3 6.3 4.9 15.6-.4 21.8-25.1 29.7-42.7 66.1-49.6 106.1-1.4 8.1-8.2 14.3-16.4 14.3-9.5 0-16.9-8.2-15.4-17.5 7.7-47.4 28.4-90.4 58.4-125.3z"/></svg>