<svg xmlns="http://www.w3.org/2000/svg" viewBox="0 0 512 512"><!--! Font Awesome Pro 7.2.0 by @fontawesome - https://fontawesome.com License - https://fontawesome.com/license (Commercial License) Copyright 2026 Fonticons, Inc. --><path fill="currentColor" d="M229.5 1.3C100.6 14.6 0 123.6 0 256S100.6 497.4 229.5 510.6c6.8 .7 13.5-1.5 18.6-6 5-4.5 7.9-11 7.9-17.8l0-461.6c0-6.8-2.9-13.3-7.9-17.8S236.3 .6 229.5 1.3zM422.2 426.8c-6.3-5.3-15.5-4.9-21.8 .4-24.3 20.5-53.1 36-84.7 44.7-8.5 2.4-13.5 11.2-11.2 19.7 2.4 8.5 11.2 13.5 19.7 11.2 36.8-10.2 70.3-28.4 98.5-52.6 7.2-6.2 6.7-17.2-.6-23.3zM224 477.7C115.5 462.1 32 368.8 32 256l.2-10.8C37.4 137.2 118.9 49.3 224 34.3l0 443.4zM493.2 280c-8.2 0-15.1 6.2-16.5 14.3-4.6 26.6-13.9 51.6-27 74.2-4.1 7.1-2.9 16.3 3.4 21.6 7.3 6.1 18.2 4.6 23.1-3.5 16-26.9 27.2-57 32.4-89 1.5-9.4-5.9-17.5-15.4-17.5zm-17-154.6c-4.9-8.2-15.8-9.6-23.1-3.5-6.3 5.3-7.5 14.4-3.4 21.6 13.1 22.5 22.4 47.6 27 74.2 1.4 8.1 8.3 14.4 16.5 14.4 9.5 0 17-8.2 15.4-17.6-5.2-32.1-16.4-62.2-32.4-89.1zM324.2 9.2c-8.5-2.3-17.3 2.6-19.7 11.2-2.3 8.5 2.7 17.3 11.2 19.7 31.6 8.7 60.3 24.2 84.7 44.7 6.3 5.3 15.5 5.7 21.8 .4 7.3-6.1 7.8-17.2 .6-23.3-28.2-24.2-61.7-42.4-98.5-52.6z"/></svg>