<svg xmlns="http://www.w3.org/2000/svg" viewBox="0 0 512 512"><!--! Font Awesome Pro 7.2.0 by @fontawesome - https://fontawesome.com License - https://fontawesome.com/license (Commercial License) Copyright 2026 Fonticons, Inc. --><path fill="currentColor" d="M256 0C114.6 0 0 114.6 0 256S114.6 512 256 512c29.9 0 58.6-5.2 85.3-14.6 6.4-2.3 10.7-8.3 10.7-15.1s-4.3-12.8-10.7-15.1C254.3 436.4 192 353.5 192 256S254.3 75.5 341.4 44.8c6.4-2.3 10.7-8.3 10.7-15.1s-4.3-12.8-10.7-15.1C314.7 5.2 285.9 0 256 0zm0 32c10.9 0 21.6 .8 32 2.3-76.5 44.2-128 126.9-128 221.7s51.5 177.4 128.1 221.7c-10.5 1.5-21.2 2.3-32.1 2.3-123.7 0-224-100.3-224-224S132.3 32 256 32zM465.9 368.9c-7.6-3.1-16.3 0-20.7 6.9-13.3 21-29.9 39.6-49.2 55.1-6.9 5.5-8 15.6-2.5 22.5 5.5 6.9 15.6 8 22.5 2.5 22.6-18.1 42.1-40.1 57.4-64.8 5-8.1 1.3-18.5-7.5-22.1zm39.4-171.3c-2.2-9.2-12.2-13.9-20.9-10.3-7.6 3.1-11.5 11.5-9.8 19.5 3.5 15.8 5.4 32.3 5.4 49.1s-1.9 33.3-5.4 49.1c-1.8 8 2.2 16.4 9.8 19.5 8.8 3.6 18.8-1.1 20.9-10.3 4.4-18.7 6.7-38.3 6.7-58.3s-2.4-39.6-6.7-58.3zM416 56.1c-6.9-5.5-17-4.4-22.5 2.5-5.5 6.9-4.4 17 2.5 22.5 19.3 15.5 36 34.1 49.3 55.1 4.4 6.9 13.1 10 20.7 6.9 8.8-3.6 12.5-14.1 7.5-22.1-15.4-24.8-34.8-46.7-57.5-64.9z"/></svg>