<svg xmlns="http://www.w3.org/2000/svg" viewBox="0 0 512 512"><!--! Font Awesome Pro 7.2.0 by @fontawesome - https://fontawesome.com License - https://fontawesome.com/license (Commercial License) Copyright 2026 Fonticons, Inc. --><path fill="currentColor" d="M282.5 1.3c129 13.3 229.5 122.2 229.5 254.7 0 132.4-100.6 241.4-229.5 254.6-6.8 .7-13.5-1.5-18.6-6s-7.9-11-7.9-17.8l0-461.6c0-6.8 2.9-13.3 7.9-17.8 5-4.5 11.8-6.8 18.6-6.1zM89.8 426.8c6.3-5.3 15.6-4.9 21.8 .4 24.3 20.5 53.1 36 84.6 44.7 8.5 2.4 13.5 11.2 11.2 19.7-2.4 8.5-11.2 13.5-19.7 11.2-36.8-10.2-70.3-28.4-98.5-52.6-7.2-6.2-6.7-17.3 .5-23.4zM288 477.7C396.6 462.1 480 368.8 480 256l-.3-10.8C474.6 137.2 393.1 49.3 288 34.3l0 443.4zM18.8 280c8.2 0 15.1 6.3 16.5 14.4 4.6 26.6 13.9 51.6 27 74.2 4.1 7.1 2.9 16.3-3.4 21.6-7.3 6.1-18.3 4.7-23.1-3.5-16-26.9-27.2-57-32.4-89-1.5-9.4 5.9-17.6 15.4-17.6zm17-154.6c4.8-8.2 15.8-9.6 23.1-3.5 6.3 5.3 7.5 14.5 3.4 21.6-13.1 22.5-22.4 47.6-27 74.2-1.4 8.1-8.3 14.3-16.5 14.3-9.5 0-17-8.2-15.4-17.5 5.2-32.1 16.4-62.2 32.4-89.1zM187.7 9.2c8.5-2.4 17.3 2.6 19.7 11.2s-2.7 17.3-11.2 19.7c-31.6 8.7-60.3 24.2-84.6 44.7-6.3 5.3-15.5 5.7-21.8 .4-7.3-6.1-7.7-17.2-.5-23.3 28.2-24.2 61.6-42.4 98.5-52.6z"/></svg>