<svg xmlns="http://www.w3.org/2000/svg" viewBox="0 0 512 512"><!--! Font Awesome Pro 7.2.0 by @fontawesome - https://fontawesome.com License - https://fontawesome.com/license (Commercial License) Copyright 2026 Fonticons, Inc. --><path fill="currentColor" d="M407.1 440.6c6.7 6.7 6.2 17.8-1.5 23.4-31.4 22.6-68.1 38.2-107.9 44.7-9.4 1.5-17.5-5.9-17.5-15.4 0-8.2 6.2-15.1 14.3-16.5 33.3-5.7 64.2-18.9 90.7-37.6 6.7-4.8 16-4.3 21.8 1.5zm-301.5 0c5.8-5.8 15.1-6.3 21.8-1.5 26.5 18.7 57.3 31.8 90.5 37.6 8.1 1.4 14.3 8.2 14.3 16.5 0 9.5-8.2 16.9-17.5 15.4-39.7-6.5-76.3-22.1-107.6-44.6-7.7-5.5-8.2-16.6-1.5-23.3zM19.1 280c8.2 0 15.1 6.2 16.5 14.3 5.7 33.3 18.8 64 37.6 90.5 4.8 6.7 4.3 16-1.5 21.8-6.7 6.7-17.8 6.2-23.4-1.5-22.5-31.3-38.1-68-44.6-107.7-1.5-9.4 5.9-17.5 15.4-17.5zm474.4 0c9.5 0 16.9 8.2 15.4 17.5-6.5 39.7-22 76.3-44.5 107.7-5.5 7.7-16.6 8.2-23.3 1.5-5.8-5.8-6.3-15.1-1.5-21.8 18.7-26.5 31.8-57.3 37.5-90.5 1.4-8.1 8.2-14.3 16.4-14.3zM71.7 105.2c5.8 5.8 6.3 15.1 1.5 21.8-18.7 26.5-31.9 57.3-37.6 90.7-1.4 8.1-8.2 14.3-16.5 14.3-9.5 0-16.9-8.2-15.4-17.5 6.5-39.8 22.1-76.4 44.6-107.8 5.5-7.7 16.6-8.2 23.4-1.5zm369.2 0c6.7-6.7 17.8-6.2 23.3 1.5 22.6 31.4 38.2 68 44.6 107.8 1.5 9.3-5.9 17.5-15.4 17.5-8.2 0-15.1-6.2-16.4-14.3-5.8-33.3-18.9-64.1-37.6-90.7-4.8-6.7-4.3-16 1.5-21.8zM280.2 18.8c0-9.5 8.2-16.9 17.5-15.4 39.8 6.4 76.4 22 107.8 44.5 7.7 5.5 8.2 16.6 1.5 23.4-5.8 5.8-15.1 6.3-21.8 1.5-26.6-18.7-57.3-31.8-90.6-37.6-8.1-1.4-14.3-8.2-14.3-16.5zm-48 0c0 8.2-6.2 15-14.3 16.4-33.2 5.7-63.9 18.8-90.4 37.5-6.7 4.7-16 4.3-21.8-1.5-6.7-6.7-6.2-17.8 1.5-23.4 31.3-22.5 67.9-38 107.6-44.5 9.3-1.5 17.5 5.9 17.5 15.4z"/></svg>