<svg xmlns="http://www.w3.org/2000/svg" viewBox="0 0 512 512"><!--! Font Awesome Pro 7.2.0 by @fontawesome - https://fontawesome.com License - https://fontawesome.com/license (Commercial License) Copyright 2026 Fonticons, Inc. --><path fill="currentColor" d="M448 64c35.3 0 64 28.7 64 64l0 256-.3 6.5C508.4 422.8 481.1 448 448 448L64 448C30.9 448 3.6 422.8 .3 390.5L0 384 0 128C0 92.7 28.7 64 64 64l384 0zM64 96c-16.6 0-30.2 12.6-31.8 28.7L32 128 32 384c0 17.7 14.3 32 32 32l96 0 0-320-96 0zM192 416l128 0 0-320-128 0 0 320zm160 0l96 0c17.7 0 32-14.3 32-32l0-256c0-17.7-14.3-32-32-32l-96 0 0 320zM112 336c8.8 0 16 7.2 16 16s-7.2 16-16 16l-32 0c-8.8 0-16-7.2-16-16s7.2-16 16-16l32 0zm0-64c8.8 0 16 7.2 16 16s-7.2 16-16 16l-32 0c-8.8 0-16-7.2-16-16s7.2-16 16-16l32 0zm144-64a24 24 0 1 1 0-48 24 24 0 1 1 0 48zm160 0a24 24 0 1 1 0-48 24 24 0 1 1 0 48z"/></svg>