<svg xmlns="http://www.w3.org/2000/svg" viewBox="0 0 640 512"><!--! Font Awesome Pro 7.2.0 by @fontawesome - https://fontawesome.com License - https://fontawesome.com/license (Commercial License) Copyright 2026 Fonticons, Inc. --><path fill="currentColor" d="M576 64c35.3 0 64 28.7 64 64l0 256c0 35.3-28.7 64-64 64L64 448c-35.3 0-64-28.7-64-64L0 128C0 92.7 28.7 64 64 64l512 0zM64 96c-17.7 0-32 14.3-32 32l0 256c0 17.7 14.3 32 32 32l512 0c17.7 0 32-14.3 32-32l0-256c0-17.7-14.3-32-32-32L64 96zm128 64c8.8 0 16 7.2 16 16l0 160c0 7.2-4.8 13.5-11.7 15.4s-14.3-1-18-7.2L112 233.8 112 336c0 8.8-7.2 16-16 16s-16-7.2-16-16l0-160c0-7.2 4.8-13.5 11.7-15.4s14.3 1 18 7.2L176 278.2 176 176c0-8.8 7.2-16 16-16zm168 0c8.8 0 16 7.2 16 16s-7.2 16-16 16l-80 0 0 48 64 0c8.8 0 16 7.2 16 16s-7.2 16-16 16l-64 0 0 48 80 0c8.8 0 16 7.2 16 16s-7.2 16-16 16l-96 0c-8.8 0-16-7.2-16-16l0-160c0-8.8 7.2-16 16-16l96 0zm184 0c8.8 0 16 7.2 16 16l0 66.1c0 11.2-2.1 22.3-6.3 32.7l-26.9 67.1c-2.4 6.1-8.3 10.1-14.8 10.1-5.7 0-10.9-3.1-13.8-7.9l-1.1-2.2-17.2-42.9-17.2 42.9c-2.4 6.1-8.3 10.1-14.8 10.1-5.7 0-10.9-3.1-13.8-7.9l-1.1-2.2-26.9-67.1c-4.2-10.4-6.3-21.5-6.3-32.7l0-66.1c0-8.8 7.2-16 16-16s16 7.2 16 16l0 66.1c0 7.1 1.4 14.2 4 20.8l12 30 17.2-42.9c2.4-6.1 8.3-10.1 14.8-10.1s12.4 4 14.8 10.1l17.1 42.9 12-30c2.6-6.6 4-13.7 4-20.8l0-66.1c0-8.8 7.2-16 16-16z"/></svg>