<svg xmlns="http://www.w3.org/2000/svg" viewBox="0 0 512 512"><!--! Font Awesome Pro 7.2.0 by @fontawesome - https://fontawesome.com License - https://fontawesome.com/license (Commercial License) Copyright 2026 Fonticons, Inc. --><path fill="currentColor" d="M448 64c35.3 0 64 28.7 64 64l0 256-.3 6.5C508.4 422.8 481.1 448 448 448L64 448C30.9 448 3.6 422.8 .3 390.5L0 384 0 128C0 92.7 28.7 64 64 64l384 0zM64 96c-16.6 0-30.2 12.6-31.8 28.7L32 128 32 384c0 17.7 14.3 32 32 32l384 0c17.7 0 32-14.3 32-32l0-256c0-17.7-14.3-32-32-32L64 96zm219.6 40.4c8.6 2 14 10.6 12 19.2l-48 208c-2 8.6-10.6 14-19.2 12s-14-10.6-12-19.2l48-208c2-8.6 10.6-14 19.2-12zM176 160c8.8 0 16 7.2 16 16l0 160c0 7.2-4.8 13.5-11.7 15.4s-14.3-1-18-7.2L96 233.8 96 336c0 8.8-7.2 16-16 16s-16-7.2-16-16l0-160c0-7.2 4.8-13.5 11.7-15.4s14.3 1 18 7.2L160 278.2 160 176c0-8.8 7.2-16 16-16zm208 0c35.3 0 64 28.7 64 64l0 112c0 8.8-7.2 16-16 16s-16-7.2-16-16l0-48-64 0 0 48c0 8.8-7.2 16-16 16s-16-7.2-16-16l0-112c0-35.3 28.7-64 64-64zm0 32c-17.7 0-32 14.3-32 32l0 32 64 0 0-32c0-17.7-14.3-32-32-32z"/></svg>