<svg xmlns="http://www.w3.org/2000/svg" viewBox="0 0 448 512"><!--! Font Awesome Pro 7.2.0 by @fontawesome - https://fontawesome.com License - https://fontawesome.com/license (Commercial License) Copyright 2026 Fonticons, Inc. --><path fill="currentColor" d="M448 416l0-320-.3-6.5C444.4 57.2 417.1 32 384 32L64 32C28.7 32 0 60.7 0 96L0 416c0 35.3 28.7 64 64 64l320 0 6.5-.3c30.1-3.1 54.1-27 57.1-57.1l.3-6.5zm-32-64l0 64c0 17.7-14.3 32-32 32L64 448c-17.7 0-32-14.3-32-32l0-64 384 0zm0-32l-384 0 0-128 384 0 0 128zM32 160l0-64c0-17.7 14.3-32 32-32l320 0c17.7 0 32 14.3 32 32l0 64-384 0z"/></svg>