<svg xmlns="http://www.w3.org/2000/svg" viewBox="0 0 384 512"><!--! Font Awesome Pro 7.2.0 by @fontawesome - https://fontawesome.com License - https://fontawesome.com/license (Commercial License) Copyright 2026 Fonticons, Inc. --><path fill="currentColor" d="M344 32c22.1 0 40 17.9 40 40l0 48c0 22.1-17.9 40-40 40l-35.6 0 27.5 302.6c.8 8.8-5.7 16.6-14.5 17.4-8.8 .8-16.6-5.7-17.4-14.5L290.8 320 93.2 320 79.9 465.4c-.8 8.8-8.6 15.3-17.4 14.5s-15.3-8.6-14.5-17.4L75.6 160 40 160c-22.1 0-40-17.9-40-40L0 72C0 49.9 17.9 32 40 32l304 0zM107.6 161.4l-11.5 126.6 191.9 0-11.5-126.6-.1-1.4-168.6 0-.1 1.4zM40 64c-4.4 0-8 3.6-8 8l0 48c0 4.4 3.6 8 8 8l304 0c4.4 0 8-3.6 8-8l0-48c0-4.4-3.6-8-8-8L40 64z"/></svg>