<svg xmlns="http://www.w3.org/2000/svg" viewBox="0 0 576 512"><!--! Font Awesome Pro 7.2.0 by @fontawesome - https://fontawesome.com License - https://fontawesome.com/license (Commercial License) Copyright 2026 Fonticons, Inc. --><path fill="currentColor" d="M176 480c8.8 0 16 7.2 16 16s-7.2 16-16 16l-96 0c-8.8 0-16-7.2-16-16s7.2-16 16-16l96 0zm384 0c8.8 0 16 7.2 16 16s-7.2 16-16 16l-304 0c-8.8 0-16-7.2-16-16s7.2-16 16-16l304 0zm-64-96c8.8 0 16 7.2 16 16s-7.2 16-16 16L16 416c-8.8 0-16-7.2-16-16s7.2-16 16-16l480 0zM288-32c5.6 0 10.8 3 13.7 7.8l60.5 101 114.2-28.6c5.4-1.4 11.2 .2 15.2 4.2s5.6 9.8 4.2 15.2l-28.6 114.2 101 60.5c4.8 2.9 7.8 8.1 7.8 13.7s-3 10.8-7.8 13.7l-84 50.3-51.2 0c.7-4.5 3.4-8.7 7.5-11.1l88.3-52.9-88.3-52.9c-6-3.6-9-10.8-7.3-17.6l25-99.8-99.8 25c-6.8 1.7-14-1.2-17.6-7.3L288 15.1 235.1 103.4c-3.6 6-10.8 9-17.6 7.3l-99.8-25 25 99.8c1.7 6.8-1.2 14-7.3 17.6L47.1 256 135.4 308.9c4.1 2.5 6.8 6.6 7.5 11.1l-51.2 0-84-50.3C3 266.8 0 261.6 0 256s3-10.8 7.8-13.7l101-60.5-28.6-114.2c-1.4-5.5 .2-11.2 4.2-15.2s9.8-5.5 15.2-4.2l114.2 28.6 60.5-101 1.2-1.7c3-3.8 7.6-6.1 12.5-6.1zm0 176c61.9 0 112 50.1 112 112 0 23.8-7.4 45.9-20.1 64L336 320c19.4-14.6 32-37.8 32-64 0-44.2-35.8-80-80-80s-80 35.8-80 80c0 26.2 12.6 49.4 32 64l-43.9 0c-12.7-18.1-20.1-40.2-20.1-64 0-61.8 50.2-112 112-112z"/></svg>