<svg xmlns="http://www.w3.org/2000/svg" viewBox="0 0 576 512"><!--! Font Awesome Pro 7.2.0 by @fontawesome - https://fontawesome.com License - https://fontawesome.com/license (Commercial License) Copyright 2026 Fonticons, Inc. --><path fill="currentColor" d="M424 320c40.3 0 74.2 27.1 84.6 64.1 1.1-.1 2.3-.1 3.4-.1 35.3 0 64 28.7 64 64s-28.7 64-64 64l-184 0c-39.8 0-72-32.2-72-72s32.2-72 72-72c5.8 0 11.4 .7 16.7 2 14.2-29.5 44.3-50 79.3-50zm0 32c-26.2 0-48.2 18-54.3 42.4-1.2 4.8-4.5 8.7-9 10.8-4.5 2-9.7 1.8-14-.5-5.6-3-11.9-4.7-18.7-4.7-22.1 0-40 17.9-40 40s17.9 40 40 40l184 0c17.7 0 32-14.3 32-32s-14.3-32-32-32c-3.8 0-7.4 .7-10.8 1.9-4.7 1.7-10 1.1-14.2-1.7s-6.9-7.3-7.3-12.3c-2-29.1-26.2-52-55.7-52zM288-32c5.6 0 10.8 3 13.7 7.8l60.5 101 114.2-28.6c5.4-1.4 11.2 .2 15.2 4.2s5.6 9.8 4.2 15.2l-28.6 114.2 101 60.5c4.8 2.9 7.8 8.1 7.8 13.7s-3 10.8-7.8 13.7l-57 34.1c-9.1-7.7-19.2-14.1-30.2-19.2l47.8-28.6-88.3-52.9c-6-3.6-9-10.8-7.3-17.6l25-99.8-99.8 25c-6.8 1.7-14-1.2-17.6-7.3L288 15.1 235.1 103.4c-3.6 6-10.8 9-17.6 7.3l-99.8-25 25 99.8c1.7 6.8-1.2 14-7.3 17.6L47.1 256 135.4 308.9c6 3.6 9 10.8 7.3 17.6l-25 99.8 96.5-24.2c-3.6 10.9-5.7 22.5-6.1 34.5L99.6 463.8c-5.5 1.4-11.2-.2-15.2-4.2s-5.6-9.8-4.2-15.2l28.6-114.2-101-60.5C3 266.8 0 261.6 0 256s3-10.8 7.8-13.7l101-60.5-28.6-114.2c-1.4-5.5 .2-11.2 4.2-15.2s9.8-5.5 15.2-4.2l114.2 28.6 60.5-101 1.2-1.7c3-3.8 7.6-6.1 12.5-6.1zm0 176c61.9 0 112 50.1 112 112 0 6.3-.6 12.5-1.6 18.5-13 2.5-25.4 6.8-36.8 12.8 4.1-9.6 6.3-20.1 6.3-31.2 0-44.2-35.8-80-80-80s-80 35.8-80 80c0 38.5 27.2 70.6 63.4 78.2-11.4 6.1-21.7 14-30.6 23.3-38.3-17.8-64.8-56.6-64.8-101.6 0-61.8 50.2-112 112-112z"/></svg>