<svg xmlns="http://www.w3.org/2000/svg" viewBox="0 0 576 512"><!--! Font Awesome Pro 7.2.0 by @fontawesome - https://fontawesome.com License - https://fontawesome.com/license (Commercial License) Copyright 2026 Fonticons, Inc. --><path fill="currentColor" d="M288 432c8.8 0 16 7.2 16 16l0 80c0 8.8-7.2 16-16 16s-16-7.2-16-16l0-80c0-8.8 7.2-16 16-16zM140.9 380.4c6.2-6.2 16.4-6.2 22.7 0s6.2 16.4 0 22.7L107 459.7c-6.2 6.2-16.4 6.2-22.6 0s-6.2-16.4 0-22.6l56.6-56.6zm271.5 0c6.2-6.2 16.4-6.2 22.7 0L491.7 437c6.2 6.2 6.2 16.4 0 22.6s-16.4 6.2-22.6 0l-56.6-56.6c-6.2-6.2-6.2-16.4 0-22.7zM288 384a128 128 0 1 1 0-256 128 128 0 1 1 0 256zm0-224a96 96 0 1 0 0 192 96 96 0 1 0 0-192zM96 240c8.8 0 16 7.2 16 16s-7.2 16-16 16l-80 0c-8.8 0-16-7.2-16-16s7.2-16 16-16l80 0zm464 0c8.8 0 16 7.2 16 16s-7.2 16-16 16l-80 0c-8.8 0-16-7.2-16-16s7.2-16 16-16l80 0zM84.3 52.3c6.2-6.2 16.4-6.2 22.6 0l56.6 56.6c6.2 6.2 6.2 16.4 0 22.7s-16.4 6.2-22.7 0L84.3 75c-6.2-6.2-6.2-16.4 0-22.6zm384.7 0c6.2-6.2 16.4-6.2 22.6 0s6.2 16.4 0 22.6l-56.6 56.6c-6.2 6.2-16.4 6.2-22.7 0s-6.2-16.4 0-22.7L469 52.3zM288-32c8.8 0 16 7.2 16 16l0 80c0 8.8-7.2 16-16 16s-16-7.2-16-16l0-80c0-8.8 7.2-16 16-16z"/></svg>