<svg xmlns="http://www.w3.org/2000/svg" viewBox="0 0 576 512"><!--! Font Awesome Pro 7.2.0 by @fontawesome - https://fontawesome.com License - https://fontawesome.com/license (Commercial License) Copyright 2026 Fonticons, Inc. --><path fill="currentColor" d="M528.3 480c8.8 0 16 7.2 16 16s-7.2 16-16 16l-480 0c-8.8 0-16-7.2-16-16s7.2-16 16-16l480 0zM382.8 199.8c4.5-3.3 10.5-4.1 15.7-1.9 5.2 2.2 8.9 6.9 9.7 12.4l17.3 116.5 116.5 17.3c5.6 .8 10.3 4.5 12.4 9.7s1.4 11.1-1.9 15.7l-46.4 62.6-39.8 0 44.7-60.2-101.8-15.1c-7-1-12.4-6.5-13.5-13.5l-15.1-101.8-82.7 61.3c-5.7 4.2-13.4 4.2-19 0L196.1 241.4 181 343.2c-1 7-6.5 12.4-13.5 13.5l-101.8 15.1 44.7 60.2-39.8 0-46.4-62.6c-3.3-4.5-4.1-10.5-1.9-15.7s6.9-8.9 12.4-9.7l116.4-17.3 17.3-116.4 .4-2c1.3-4.7 4.7-8.5 9.2-10.4 5.2-2.1 11.1-1.4 15.7 1.9l94.5 70.1 94.6-70.1zM245.4 360.5c57.1-23.7 122.7 3.5 146.3 60.6 1.5 3.6 2.8 7.2 3.9 10.9l-34.1 0c-17.4-39.9-63.5-58.6-103.9-41.9-19.9 8.2-34.6 23.6-42.6 41.9L181 432c9.3-31.2 32.1-58.1 64.5-71.5zM279.5-13.4c6.2-4.1 14.7-3.4 20.1 2.1l64 64c6.2 6.2 6.2 16.4 0 22.6-6.2 6.2-16.4 6.2-22.6 0l-36.7-36.7 0 137.4c0 8.8-7.2 16-16 16s-16-7.2-16-16l0-137.4-36.7 36.7c-6.2 6.2-16.4 6.2-22.6 0s-6.2-16.4 0-22.6l64-64 2.5-2.1z"/></svg>