<svg xmlns="http://www.w3.org/2000/svg" viewBox="0 0 448 512"><!--! Font Awesome Pro 7.2.0 by @fontawesome - https://fontawesome.com License - https://fontawesome.com/license (Commercial License) Copyright 2026 Fonticons, Inc. --><path fill="currentColor" d="M384 32c33.1 0 60.4 25.2 63.7 57.5l.3 6.5 0 320-.3 6.5c-3.1 30.1-27 54.1-57.1 57.1l-6.5 .3-320 0c-35.3 0-64-28.7-64-64L0 96C0 60.7 28.7 32 64 32l320 0zM240 448l144 0c17.7 0 32-14.3 32-32l0-64-176 0 0 96zM32 416c0 17.7 14.3 32 32 32l144 0 0-96-176 0 0 64zm0-96l384 0 0-128-384 0 0 128zM240 160l176 0 0-64c0-17.7-14.3-32-32-32l-144 0 0 96zM64 64C46.3 64 32 78.3 32 96l0 64 176 0 0-96-144 0z"/></svg>