<svg xmlns="http://www.w3.org/2000/svg" viewBox="0 0 448 512"><!--! Font Awesome Pro 7.2.0 by @fontawesome - https://fontawesome.com License - https://fontawesome.com/license (Commercial License) Copyright 2026 Fonticons, Inc. --><path fill="currentColor" d="M0 416c0 35.3 28.7 64 64 64l32 0 0-32-32 0c-17.7 0-32-14.3-32-32l0-144 384 0 0 144c0 17.7-14.3 32-32 32l-32 0 0 32 32 0c35.3 0 64-28.7 64-64l0-320-.3-6.5c-3.1-30.1-27-54.1-57.1-57.1L384 32 64 32C28.7 32 0 60.7 0 96L0 416zM32 96c0-17.7 14.3-32 32-32l320 0c17.7 0 32 14.3 32 32l0 144-384 0 0-144zM156.7 492.7c-6.2 6.2-6.2 16.4 0 22.6s16.4 6.2 22.6 0l44.7-44.7 44.7 44.7c6.2 6.2 16.4 6.2 22.6 0s6.2-16.4 0-22.6l-44.7-44.7 44.7-44.7c6.2-6.2 6.2-16.4 0-22.6s-16.4-6.2-22.6 0l-44.7 44.7-44.7-44.7c-6.2-6.2-16.4-6.2-22.6 0s-6.2 16.4 0 22.6l44.7 44.7-44.7 44.7z"/></svg>