<svg xmlns="http://www.w3.org/2000/svg" viewBox="0 0 448 512"><!--! Font Awesome Pro 7.2.0 by @fontawesome - https://fontawesome.com License - https://fontawesome.com/license (Commercial License) Copyright 2026 Fonticons, Inc. --><path fill="currentColor" d="M384 32c35.3 0 64 28.7 64 64l0 320c0 33.1-25.2 60.4-57.5 63.7l-6.5 .3-320 0-6.5-.3c-30.1-3.1-54.1-27-57.1-57.1L0 416 0 96C0 60.7 28.7 32 64 32l320 0zM64 64C46.3 64 32 78.3 32 96l0 320c0 17.7 14.3 32 32 32l144 0 0-64 32 0 0 64 144 0c17.7 0 32-14.3 32-32l0-320c0-17.7-14.3-32-32-32l-144 0 0 64-32 0 0-64-144 0zM220.7 172.7c6.2-6.2 16.4-6.2 22.6 0l72 72 2.1 2.5c4.1 6.2 3.4 14.7-2.1 20.1l-72 72c-6.2 6.2-16.4 6.2-22.6 0s-6.2-16.4 0-22.6L265.4 272 144 272c-8.8 0-16-7.2-16-16s7.2-16 16-16l121.4 0-44.7-44.7c-6.2-6.2-6.2-16.4 0-22.6z"/></svg>