<svg xmlns="http://www.w3.org/2000/svg" viewBox="0 0 576 512"><!--! Font Awesome Pro 7.2.0 by @fontawesome - https://fontawesome.com License - https://fontawesome.com/license (Commercial License) Copyright 2026 Fonticons, Inc. --><path fill="currentColor" d="M128 32C92.7 32 64 60.7 64 96l32 0c0-17.7 14.3-32 32-32l144 0 0 384-144 0c-16.6 0-30.2-12.6-31.8-28.7l-.2-3.3-32 0c0 35.3 28.7 64 64 64l320 0 6.5-.3c30.1-3.1 54.1-27 57.1-57.1l.3-6.5 0-320c0-35.3-28.7-64-64-64L128 32zM448 64c17.7 0 32 14.3 32 32l0 320c0 17.7-14.3 32-32 32l-144 0 0-384 144 0zM96 168c-8.8 0-16 7.2-16 16l0 56-56 0c-8.8 0-16 7.2-16 16s7.2 16 16 16l56 0 0 56c0 8.8 7.2 16 16 16s16-7.2 16-16l0-56 56 0c8.8 0 16-7.2 16-16s-7.2-16-16-16l-56 0 0-56c0-8.8-7.2-16-16-16z"/></svg>