<svg xmlns="http://www.w3.org/2000/svg" viewBox="0 0 512 512"><!--! Font Awesome Pro 7.2.0 by @fontawesome - https://fontawesome.com License - https://fontawesome.com/license (Commercial License) Copyright 2026 Fonticons, Inc. --><path fill="currentColor" d="M416.5 32c35.3 0 64 28.7 64 64l0 32-32 0 0-32c0-17.7-14.3-32-32-32l-144 0 0 384 144 0c17.7 0 32-14.3 32-32l0-32 32 0 0 32c0 35.3-28.7 64-64 64l-320 0-6.5-.3c-30.1-3.1-54.1-27-57.1-57.1l-.3-6.5 0-320c0-35.3 28.7-64 64-64l320 0zM96.5 64c-17.7 0-32 14.3-32 32l0 320c0 17.7 14.3 32 32 32l144 0 0-384-144 0zM493.2 188.7c6.2-6.2 16.4-6.2 22.6 0s6.2 16.4 0 22.6l-44.7 44.7 44.7 44.7c6.2 6.2 6.2 16.4 0 22.6s-16.4 6.2-22.6 0l-44.7-44.7-44.7 44.7c-6.2 6.2-16.4 6.2-22.6 0s-6.2-16.4 0-22.6l44.7-44.7-44.7-44.7c-6.2-6.2-6.2-16.4 0-22.6s16.4-6.2 22.6 0l44.7 44.7 44.7-44.7z"/></svg>