<svg xmlns="http://www.w3.org/2000/svg" viewBox="0 0 576 512"><!--! Font Awesome Pro 7.2.0 by @fontawesome - https://fontawesome.com License - https://fontawesome.com/license (Commercial License) Copyright 2026 Fonticons, Inc. --><path fill="currentColor" d="M524 64.5c12.6 2.2 22.9 11.8 25.7 24.6l17.8 80c3.8 17.3-7.1 33.8-23.3 37.9l0 225c0 8.8-7.2 16-16 16s-16-7.2-16-16l0-144-448 0 0 144c0 8.8-7.2 16-16 16s-16-7.2-16-16l0-225C17 203.1 6.5 188.7 8.2 172.8l.6-3.7 17.8-80C29.8 74.4 42.8 64 57.8 64l460.7 0 5.5 .5zM64.1 256l448 0 0-48-448 0 0 48zM40 176l496.2 0-17.8-80-460.7 0-17.8 80z"/></svg>