<svg xmlns="http://www.w3.org/2000/svg" viewBox="0 0 576 512"><!--! Font Awesome Pro 7.2.0 by @fontawesome - https://fontawesome.com License - https://fontawesome.com/license (Commercial License) Copyright 2026 Fonticons, Inc. --><path fill="currentColor" d="M4.7-27.2c6.2-6.2 16.4-6.2 22.6 0L95.5 40.9C105 35.3 116.1 32 128 32l320 0c35.3 0 64 28.7 64 64l0 320c0 11.9-3.3 23-9 32.5l68.3 68.3c6.2 6.2 6.2 16.4 0 22.6s-16.4 6.2-22.6 0L4.7-4.6c-6.2-6.2-6.2-16.4 0-22.6zM96 154.5l0 149.5 149.5 0 32 32-181.5 0 0 80c0 17.7 14.3 32 32 32l261.5 0 32 32-293.5 0-6.5-.3c-30.1-3.1-54.1-27-57.1-57.1l-.3-6.5 0-293.5 32 32zM478.8 424.3c.7-2.7 1.2-5.4 1.2-8.3l0-80-89.5 0 88.3 88.3zM358.5 304l121.5 0 0-112-233.5 0 112 112zM128 64c-2.9 0-5.7 .4-8.3 1.1l94.9 94.9 265.5 0 0-64c0-17.7-14.3-32-32-32L128 64z"/></svg>