<svg xmlns="http://www.w3.org/2000/svg" viewBox="0 0 448 512"><!--! Font Awesome Pro 7.2.0 by @fontawesome - https://fontawesome.com License - https://fontawesome.com/license (Commercial License) Copyright 2026 Fonticons, Inc. --><path fill="currentColor" d="M0 96C0 60.7 28.7 32 64 32l32 0 0 32-32 0C46.3 64 32 78.3 32 96l0 144 384 0 0-144c0-17.7-14.3-32-32-32l-32 0 0-32 32 0c35.3 0 64 28.7 64 64l0 320-.3 6.5c-3.1 30.1-27 54.1-57.1 57.1l-6.5 .3-320 0c-35.3 0-64-28.7-64-64L0 96zM32 416c0 17.7 14.3 32 32 32l320 0c17.7 0 32-14.3 32-32l0-144-384 0 0 144zM156.7 19.3c-6.2-6.2-6.2-16.4 0-22.6s16.4-6.2 22.6 0L224 41.4 268.7-3.3c6.2-6.2 16.4-6.2 22.6 0s6.2 16.4 0 22.6L246.6 64 291.3 108.7c6.2 6.2 6.2 16.4 0 22.6s-16.4 6.2-22.6 0L224 86.6 179.3 131.3c-6.2 6.2-16.4 6.2-22.6 0s-6.2-16.4 0-22.6L201.4 64 156.7 19.3z"/></svg>