<svg xmlns="http://www.w3.org/2000/svg" viewBox="0 0 448 512"><!--! Font Awesome Pro 7.2.0 by @fontawesome - https://fontawesome.com License - https://fontawesome.com/license (Commercial License) Copyright 2026 Fonticons, Inc. --><path fill="currentColor" d="M368 32c44.2 0 80 35.8 80 80l0 48c0 17.7-14.3 32-32 32l-176 0 0 256 96 0c8.8 0 16 7.2 16 16s-7.2 16-16 16l-224 0c-8.8 0-16-7.2-16-16s7.2-16 16-16l96 0 0-256-176 0c-17.7 0-32-14.3-32-32l0-48C0 70.6 31.5 36.5 71.8 32.4L80 32 368 32zM80 64c-26.5 0-48 21.5-48 48l0 48 384 0 0-48c0-26.5-21.5-48-48-48L80 64z"/></svg>