<svg xmlns="http://www.w3.org/2000/svg" viewBox="0 0 448 512"><!--! Font Awesome Pro 7.2.0 by @fontawesome - https://fontawesome.com License - https://fontawesome.com/license (Commercial License) Copyright 2026 Fonticons, Inc. --><path fill="currentColor" d="M64 32C28.7 32 0 60.7 0 96L0 416c0 33.1 25.2 60.4 57.5 63.7l6.5 .3 320 0 6.5-.3c30.1-3.1 54.1-27 57.1-57.1l.3-6.5 0-320c0-35.3-28.7-64-64-64L64 32zM384 64c17.7 0 32 14.3 32 32l0 320c0 17.7-14.3 32-32 32l-144 0 0-64-32 0 0 64-144 0c-17.7 0-32-14.3-32-32L32 96c0-17.7 14.3-32 32-32l144 0 0 64 32 0 0-64 144 0zM227.3 172.7c-6.2-6.2-16.4-6.2-22.6 0l-72 72-2.1 2.5c-4.1 6.2-3.4 14.7 2.1 20.1l72 72c6.2 6.2 16.4 6.2 22.6 0s6.2-16.4 0-22.6L182.6 272 304 272c8.8 0 16-7.2 16-16s-7.2-16-16-16l-121.4 0 44.7-44.7c6.2-6.2 6.2-16.4 0-22.6z"/></svg>