<svg xmlns="http://www.w3.org/2000/svg" viewBox="0 0 384 512"><!--! Font Awesome Pro 7.2.0 by @fontawesome - https://fontawesome.com License - https://fontawesome.com/license (Commercial License) Copyright 2026 Fonticons, Inc. --><path fill="currentColor" d="M336-16c8.8 0 16 7.2 16 16 0 62.1-35.4 115.8-87.1 142.4 69.9 28.7 119.1 97.4 119.1 177.6 0 106-86 192-192 192S0 426 0 320C0 239.8 49.2 171.1 119 142.4 67.4 115.8 32 62.1 32 0 32-8.8 39.2-16 48-16S64-8.8 64 0c0 70.7 57.3 128 128 128S320 70.7 320 0c0-8.8 7.2-16 16-16zM192 160a160 160 0 1 0 0 320 160 160 0 1 0 0-320z"/></svg>