<svg xmlns="http://www.w3.org/2000/svg" viewBox="0 0 576 512"><!--! Font Awesome Pro 7.2.0 by @fontawesome - https://fontawesome.com License - https://fontawesome.com/license (Commercial License) Copyright 2026 Fonticons, Inc. --><path fill="currentColor" d="M288 96c35.3 0 64 28.7 64 64 0 29.8-20.4 54.8-48 61.9L304 496c0 8.8-7.2 16-16 16-8.8 0-16-7.2-16-16l0-274.1c-27.6-7.1-48-32.1-48-61.9 0-35.3 28.7-64 64-64zM114.8 18.5c7.5-4.7 17.4-2.5 22.1 5 25 39.5 39.4 86.4 39.4 136.5s-14.4 97-39.4 136.5c-4.7 7.5-14.6 9.7-22.1 5s-9.7-14.6-5-22.1c21.8-34.6 34.5-75.5 34.5-119.5S131.6 75.1 109.8 40.5c-4.7-7.5-2.5-17.3 5-22.1zm324.4 5c4.7-7.5 14.6-9.7 22.1-5 7.5 4.7 9.7 14.6 5 22.1-21.8 34.6-34.5 75.5-34.5 119.5s12.6 84.9 34.5 119.5c4.7 7.5 2.5 17.3-5 22.1-7.5 4.7-17.4 2.5-22.1-5-25-39.5-39.4-86.4-39.4-136.5s14.4-97 39.4-136.5zM31.1 66.7c7.3-4.9 17.3-3 22.2 4.4 17 25.4 26.9 56 26.9 88.9s-9.9 63.5-26.9 88.9c-4.9 7.3-14.9 9.3-22.2 4.4-7.3-4.9-9.3-14.8-4.4-22.2 13.6-20.3 21.5-44.8 21.5-71.1s-7.9-50.8-21.5-71.1c-4.9-7.3-3-17.3 4.4-22.2zm491.6 4.4c4.9-7.3 14.9-9.3 22.2-4.4 7.3 4.9 9.3 14.9 4.4 22.2-13.6 20.3-21.5 44.8-21.5 71.1s7.9 50.8 21.5 71.1c4.9 7.3 2.9 17.3-4.4 22.2-7.3 4.9-17.3 3-22.2-4.4-17-25.4-26.9-56-26.9-88.9s9.9-63.5 26.9-88.9zM288 128a32 32 0 1 0 0 64 32 32 0 1 0 0-64z"/></svg>