<svg xmlns="http://www.w3.org/2000/svg" viewBox="0 0 448 512"><!--! Font Awesome Pro 7.2.0 by @fontawesome - https://fontawesome.com License - https://fontawesome.com/license (Commercial License) Copyright 2026 Fonticons, Inc. --><path fill="currentColor" d="M240.5 0c26.5 0 48 21.5 48 48l0 48 5.5 0 6.3 .3c14.7 1.5 28.4 7.9 38.9 18.4l58.5 58.5c12 12 18.7 28.3 18.7 45.2l0 229.5c0 33.1-25.2 60.4-57.5 63.7l-6.5 .3-256 0c-33.1 0-60.4-25.2-63.7-57.5l-.3-6.5 0-288c0-35.3 28.7-64 64-64l0-48c0-26.5 21.5-48 48-48l96 0zM96.5 128c-17.7 0-32 14.3-32 32l0 288c0 17.7 14.3 32 32 32l256 0c17.7 0 32-14.3 32-32l0-229.5c0-8.5-3.4-16.6-9.4-22.6l-58.5-58.5c-6-6-14.1-9.4-22.6-9.4L96.5 128zM309.2 228.7c6.2-6.2 16.4-6.2 22.6 0s6.2 16.4 0 22.6l-27.3 27.3 0 82.8 27.3 27.3c6.2 6.2 6.2 16.4 0 22.6s-16.4 6.2-22.6 0l-27.3-27.3-114.8 0-27.3 27.3c-6.2 6.2-16.4 6.2-22.6 0s-6.2-16.4 0-22.6l27.3-27.3 0-82.8-27.3-27.3c-6.2-6.2-6.2-16.4 0-22.6s16.4-6.2 22.6 0l27.3 27.3 114.8 0 27.3-27.3zM176.5 352l96 0 0-64-96 0 0 64zM365.2 60.7c6.2-6.2 16.4-6.2 22.6 0l64 64c6.2 6.2 6.2 16.4 0 22.6s-16.4 6.2-22.6 0l-64-64c-6.2-6.2-6.2-16.4 0-22.6zM144.5 32c-8.8 0-16 7.2-16 16l0 48 128 0 0-48c0-8.8-7.2-16-16-16l-96 0z"/></svg>