<svg xmlns="http://www.w3.org/2000/svg" viewBox="0 0 640 512"><!--! Font Awesome Pro 7.2.0 by @fontawesome - https://fontawesome.com License - https://fontawesome.com/license (Commercial License) Copyright 2026 Fonticons, Inc. --><path fill="currentColor" d="M352 32c53 0 96 43 96 96l0 65.7c20.3-20.8 48.6-33.7 80-33.7 61.9 0 112 50.1 112 112S589.9 384 528 384l-80 0 0 48c0 26.5 21.5 48 48 48 8.8 0 16 7.2 16 16s-7.2 16-16 16c-44.2 0-80-35.8-80-80l0-48-32 0c-8.8 0-16-7.2-16-16s7.2-16 16-16l32 0 0-224c0-35.3-28.7-64-64-64s-64 28.7-64 64l0 336c0 8.8-7.2 16-16 16s-16-7.2-16-16l0-336c0-35.3-28.7-64-64-64s-64 28.7-64 64l0 336c0 8.8-7.2 16-16 16s-16-7.2-16-16l0-352c0-26.5-21.5-48-48-48-8.8 0-16-7.2-16-16s7.2-16 16-16c28.6 0 53.7 15.1 67.8 37.7 17.5-22.9 45.1-37.7 76.2-37.7 33.4 0 62.8 17.1 80 43 17.2-25.9 46.6-43 80-43zM528 192c-44.2 0-80 35.8-80 80l0 80 80 0c44.2 0 80-35.8 80-80s-35.8-80-80-80z"/></svg>