<svg xmlns="http://www.w3.org/2000/svg" viewBox="0 0 576 512"><!--! Font Awesome Pro 7.2.0 by @fontawesome - https://fontawesome.com License - https://fontawesome.com/license (Commercial License) Copyright 2026 Fonticons, Inc. --><path fill="currentColor" d="M560 288c8.8 0 16 7.2 16 16l0 112c0 35.3-28.7 64-64 64L64 480c-35.3 0-64-28.7-64-64L0 304c0-8.8 7.2-16 16-16s16 7.2 16 16l0 112c0 17.7 14.3 32 32 32l448 0c17.7 0 32-14.3 32-32l0-112c0-8.8 7.2-16 16-16zM416 32c35.3 0 64 28.7 64 64l0 224c0 35.3-28.7 64-64 64l-256 0c-35.3 0-64-28.7-64-64L96 96c0-35.3 28.7-64 64-64l256 0zM160 64c-17.7 0-32 14.3-32 32l0 224c0 17.7 14.3 32 32 32l256 0c17.7 0 32-14.3 32-32l0-224c0-17.7-14.3-32-32-32L160 64zm172.7 76.7c6.2-6.2 16.4-6.2 22.6 0s6.2 16.4 0 22.6l-44.7 44.7 44.7 44.7c6.2 6.3 6.2 16.4 0 22.6s-16.4 6.2-22.6 0l-44.7-44.7-44.7 44.7c-6.2 6.2-16.4 6.2-22.6 0s-6.2-16.4 0-22.6l44.7-44.7-44.7-44.7c-6.2-6.2-6.2-16.4 0-22.6s16.4-6.2 22.6 0l44.7 44.7 44.7-44.7z"/></svg>