<svg xmlns="http://www.w3.org/2000/svg" viewBox="0 0 640 512"><!--! Font Awesome Pro 7.2.0 by @fontawesome - https://fontawesome.com License - https://fontawesome.com/license (Commercial License) Copyright 2026 Fonticons, Inc. --><path style="fill:var(--fa-secondary-color,currentColor);opacity:var(--fa-secondary-opacity,.4)" d=""/><path style="fill:var(--fa-primary-color,currentColor);opacity:var(--fa-primary-opacity,1)" d="M464.9 291.5l132 80 20.5 12.4-24.9 41.1-20.5-12.4-119.6-72.5-119.6 72.5-12.4 7.5-12.4-7.5-119.6-72.5-119.6 72.5-20.5 12.4-24.9-41.1 20.5-12.4 132-80 12.4-7.5 12.4 7.5 119.6 72.4 119.6-72.4 12.4-7.5 12.4 7.5zm0-192l132 80 20.5 12.4-24.9 41.1-20.5-12.4-119.6-72.5-119.6 72.5-12.4 7.5-12.4-7.5-119.6-72.5-119.6 72.5-20.5 12.4-24.9-41.1 20.5-12.4 132-80 12.4-7.5 12.4 7.5 119.6 72.4 119.6-72.4 12.4-7.5 12.4 7.5z"/></svg>