<svg xmlns="http://www.w3.org/2000/svg" viewBox="0 0 448 512"><!--! Font Awesome Pro 7.2.0 by @fontawesome - https://fontawesome.com License - https://fontawesome.com/license (Commercial License) Copyright 2026 Fonticons, Inc. --><path style="fill:var(--fa-secondary-color,currentColor);opacity:var(--fa-secondary-opacity,.4)" d="M48 80l0 80 352 0 0-80-352 0zm0 128l0 96 352 0 0-96-352 0zm0 144l0 80 352 0 0-80-352 0z"/><path style="fill:var(--fa-primary-color,currentColor);opacity:var(--fa-primary-opacity,1)" d="M448 32l-448 0 0 448 448 0 0-448zM400 352l0 80-352 0 0-80 352 0zm0-48l-352 0 0-96 352 0 0 96zm0-144l-352 0 0-80 352 0 0 80z"/></svg>