<svg xmlns="http://www.w3.org/2000/svg" viewBox="0 0 512 512"><!--! Font Awesome Pro 7.2.0 by @fontawesome - https://fontawesome.com License - https://fontawesome.com/license (Commercial License) Copyright 2026 Fonticons, Inc. --><path style="fill:var(--fa-secondary-color,currentColor);opacity:var(--fa-secondary-opacity,.4)" d="M80 48l0 384 152 0 0-384-152 0zm64 144l48 0 0 96-48 0 0-96zM280 48l0 384 152 0 0-384-152 0zm40 144l48 0 0 96-48 0 0-96z"/><path style="fill:var(--fa-primary-color,currentColor);opacity:var(--fa-primary-opacity,1)" d="M512 48l-32 0 0 464-48 0 0-32-352 0 0 32-48 0 0-464-32 0 0-48 512 0 0 48zM80 432l152 0 0-384-152 0 0 384zm200 0l152 0 0-384-152 0 0 384zM192 288l-48 0 0-96 48 0 0 96zm176 0l-48 0 0-96 48 0 0 96z"/></svg>