<svg xmlns="http://www.w3.org/2000/svg" viewBox="0 0 640 512"><!--! Font Awesome Pro 7.2.0 by @fontawesome - https://fontawesome.com License - https://fontawesome.com/license (Commercial License) Copyright 2026 Fonticons, Inc. --><path style="fill:var(--fa-secondary-color,currentColor);opacity:var(--fa-secondary-opacity,.4)" d="M256 192l0 160 320 0 0-128c0-17.7-14.3-32-32-32l-288 0z"/><path style="fill:var(--fa-primary-color,currentColor);opacity:var(--fa-primary-opacity,1)" d="M64 32l0 96 480 0c53 0 96 43 96 96l0 256-64 0 0-64-512 0 0 64-64 0 0-448 64 0zM192 192l-128 0 0 160 128 0 0-160zm64 160l320 0 0-128c0-17.7-14.3-32-32-32l-288 0 0 160z"/></svg>