<svg xmlns="http://www.w3.org/2000/svg" viewBox="0 0 512 512"><!--! Font Awesome Pro 7.2.0 by @fontawesome - https://fontawesome.com License - https://fontawesome.com/license (Commercial License) Copyright 2026 Fonticons, Inc. --><path style="fill:var(--fa-secondary-color,currentColor);opacity:var(--fa-secondary-opacity,.4)" d="M192 64l0 256 256 0 0-256-256 0z"/><path style="fill:var(--fa-primary-color,currentColor);opacity:var(--fa-primary-opacity,1)" d="M64 448l320 0 0 64-320 0c-35.3 0-64-28.7-64-64l0-320 64 0 0 320zM448 0c35.3 0 64 28.7 64 64l0 256c0 35.3-28.7 64-64 64l-256 0c-35.3 0-64-28.7-64-64l0-256c0-35.3 28.7-64 64-64L448 0zM192 320l256 0 0-256-256 0 0 256z"/></svg>