<svg xmlns="http://www.w3.org/2000/svg" viewBox="0 0 512 512"><!--! Font Awesome Pro 7.2.0 by @fontawesome - https://fontawesome.com License - https://fontawesome.com/license (Commercial License) Copyright 2026 Fonticons, Inc. --><path style="fill:var(--fa-secondary-color,currentColor);opacity:var(--fa-secondary-opacity,.4)" d=""/><path style="fill:var(--fa-primary-color,currentColor);opacity:var(--fa-primary-opacity,1)" d="M32 0C14.3 0 0 14.3 0 32l0 128 64 0 0-96 96 0 0-64-128 0zM64 384l0-32-64 0 0 128c0 17.7 14.3 32 32 32l128 0 0-64-96 0 0-64zM384 0l-32 0 0 64 96 0 0 96 64 0 0-128c0-17.7-14.3-32-32-32L384 0zM512 384l0-32-64 0 0 96-96 0 0 64 128 0c17.7 0 32-14.3 32-32l0-96z"/></svg>