<svg xmlns="http://www.w3.org/2000/svg" viewBox="0 0 512 512"><!--! Font Awesome Pro 7.2.0 by @fontawesome - https://fontawesome.com License - https://fontawesome.com/license (Commercial License) Copyright 2026 Fonticons, Inc. --><path style="fill:var(--fa-secondary-color,currentColor);opacity:var(--fa-secondary-opacity,.4)" d="M64 256a192 192 0 1 0 384 0 192 192 0 1 0 -384 0zm60.4 68l41.5-24c18 31.1 51.6 52 90.1 52s72.1-20.9 90.1-52l41.5 24c-26.2 45.4-75.4 76-131.7 76s-105.4-30.6-131.6-76zM208 208a32 32 0 1 1 -64 0 32 32 0 1 1 64 0zm160 0a32 32 0 1 1 -64 0 32 32 0 1 1 64 0z"/><path style="fill:var(--fa-primary-color,currentColor);opacity:var(--fa-primary-opacity,1)" d="M448 256a192 192 0 1 0 -384 0 192 192 0 1 0 384 0zM0 256a256 256 0 1 1 512 0 256 256 0 1 1 -512 0zm256 96c38.5 0 72.1-20.9 90.1-52l41.5 24c-26.2 45.4-75.4 76-131.7 76s-105.4-30.6-131.6-76l41.5-24c18 31.1 51.6 52 90.1 52zM144 208a32 32 0 1 1 64 0 32 32 0 1 1 -64 0zm192-32a32 32 0 1 1 0 64 32 32 0 1 1 0-64z"/></svg>