<svg xmlns="http://www.w3.org/2000/svg" viewBox="0 0 512 512"><!--! Font Awesome Pro 7.2.0 by @fontawesome - https://fontawesome.com License - https://fontawesome.com/license (Commercial License) Copyright 2026 Fonticons, Inc. --><path style="fill:var(--fa-secondary-color,currentColor);opacity:var(--fa-secondary-opacity,.4)" d="M64 256a192 192 0 1 0 384 0 192 192 0 1 0 -384 0zm56 24l272 0 0 54.4-3.2 5.6c-26.4 45.6-76.7 76-132.8 76s-106.4-30.4-132.8-76l-3.2-5.6 0-54.4zm88-72a32 32 0 1 1 -64 0 32 32 0 1 1 64 0zm160 0a32 32 0 1 1 -64 0 32 32 0 1 1 64 0z"/><path style="fill:var(--fa-primary-color,currentColor);opacity:var(--fa-primary-opacity,1)" d="M448 256a192 192 0 1 0 -384 0 192 192 0 1 0 384 0zM0 256a256 256 0 1 1 512 0 256 256 0 1 1 -512 0zm176-80a32 32 0 1 1 0 64 32 32 0 1 1 0-64zm128 32a32 32 0 1 1 64 0 32 32 0 1 1 -64 0zM144 280l248 0 0 54.4-3.2 5.6c-26.4 45.6-76.7 76-132.8 76s-106.4-30.4-132.8-76l-3.2-5.6 0-54.4 24 0zm112 88c33.4 0 63.9-15.7 83-40l-166.1 0c19.2 24.3 49.6 40 83.1 40z"/></svg>