<svg xmlns="http://www.w3.org/2000/svg" viewBox="0 0 512 512"><!--! Font Awesome Pro 7.2.0 by @fontawesome - https://fontawesome.com License - https://fontawesome.com/license (Commercial License) Copyright 2026 Fonticons, Inc. --><path style="fill:var(--fa-secondary-color,currentColor);opacity:var(--fa-secondary-opacity,.4)" d="M64 256a192 192 0 1 0 384 0 192 192 0 1 0 -384 0zm144-48a32 32 0 1 1 -64 0 32 32 0 1 1 64 0zM164 324l184 0 0 56-184 0 0-56zM368 208a32 32 0 1 1 -64 0 32 32 0 1 1 64 0z"/><path style="fill:var(--fa-primary-color,currentColor);opacity:var(--fa-primary-opacity,1)" d="M448 256a192 192 0 1 0 -384 0 192 192 0 1 0 384 0zM0 256a256 256 0 1 1 512 0 256 256 0 1 1 -512 0zm176-80a32 32 0 1 1 0 64 32 32 0 1 1 0-64zm128 32a32 32 0 1 1 64 0 32 32 0 1 1 -64 0zM192 324l156 0 0 56-184 0 0-56 28 0z"/></svg>