<svg xmlns="http://www.w3.org/2000/svg" viewBox="0 0 512 512"><!--! Font Awesome Pro 7.2.0 by @fontawesome - https://fontawesome.com License - https://fontawesome.com/license (Commercial License) Copyright 2026 Fonticons, Inc. --><path style="fill:var(--fa-secondary-color,currentColor);opacity:var(--fa-secondary-opacity,.4)" d="M64 112a48 48 0 1 0 96 0 48 48 0 1 0 -96 0zm0 288a48 48 0 1 0 96 0 48 48 0 1 0 -96 0zM352 112a48 48 0 1 0 96 0 48 48 0 1 0 -96 0zm0 288a48 48 0 1 0 96 0 48 48 0 1 0 -96 0z"/><path style="fill:var(--fa-primary-color,currentColor);opacity:var(--fa-primary-opacity,1)" d="M112 512a112 112 0 1 1 0-224 112 112 0 1 1 0 224zm288 0a112 112 0 1 1 0-224 112 112 0 1 1 0 224zM112 352a48 48 0 1 0 0 96 48 48 0 1 0 0-96zm288 0a48 48 0 1 0 0 96 48 48 0 1 0 0-96zM112 224a112 112 0 1 1 0-224 112 112 0 1 1 0 224zm288 0a112 112 0 1 1 0-224 112 112 0 1 1 0 224zM112 64a48 48 0 1 0 0 96 48 48 0 1 0 0-96zm288 0a48 48 0 1 0 0 96 48 48 0 1 0 0-96z"/></svg>