<svg xmlns="http://www.w3.org/2000/svg" viewBox="0 0 640 512"><!--! Font Awesome Pro 7.2.0 by @fontawesome - https://fontawesome.com License - https://fontawesome.com/license (Commercial License) Copyright 2026 Fonticons, Inc. --><path style="fill:var(--fa-secondary-color,currentColor);opacity:var(--fa-secondary-opacity,.4)" d="M115.8 187.3l0 0c-.3 24 8.7 48.1 27 66.5L320.2 431.2c6.6-6.6 13.1-13.2 19.7-19.7l0 0-224.1-224.1zM345 144.9l130.7 130.7 21.9-21.9c36.1-36.1 36.1-94.7 0-130.8-29.3-29.3-73.5-34.8-108.4-16.5-2.7 1.4-5.3 3-7.9 4.6-5.1 3.4-10 7.3-14.5 11.8L345 144.9z"/><path style="fill:var(--fa-primary-color,currentColor);opacity:var(--fa-primary-opacity,1)" d="M621.5 512L576.3 557.3 19 0 64.3-45.2 621.5 512zM115.8 187.3c-.3 24 8.7 48.2 27 66.5l177.4 177.4 19.7-19.8 45.3 45.3-65 65-222.6-222.6C52.8 254.2 40.9 189 61.8 133.3l54 54zM331.3 68.9c61.5-52 153.6-49 211.5 8.9 61.1 61.1 61.1 160.2 0 221.2l-21.9 21.9-45.3-45.3 21.9-21.9c36.1-36.1 36.1-94.7 0-130.8-36.1-36.1-94.7-36.1-130.7 0l-21.9 21.9-44.8-44.8 31.2-31.2z"/></svg>