<svg xmlns="http://www.w3.org/2000/svg" viewBox="0 0 576 512"><!--! Font Awesome Pro 7.2.0 by @fontawesome - https://fontawesome.com License - https://fontawesome.com/license (Commercial License) Copyright 2026 Fonticons, Inc. --><path style="fill:var(--fa-secondary-color,currentColor);opacity:var(--fa-secondary-opacity,.4)" d="M64 64l448 0 0 384-121.7 0c-16.6-28.7-40.4-52.7-69-69.5S259.5 352 224 352c-66.8 0-125.6 34.1-160 85.8L64 64zm64 160a96 96 0 1 0 192 0 96 96 0 1 0 -192 0zm256-60l0 56 96 0 0-56-96 0zm0 96l0 56 96 0 0-56-96 0z"/><path style="fill:var(--fa-primary-color,currentColor);opacity:var(--fa-primary-opacity,1)" d="M512 64l0 384-121.7 0c-33.2-57.4-95.2-96-166.3-96-66.8 0-125.6 34.1-160 85.8L64 64 512 64zM320.3 448l-192.7 0c24.6-24.7 58.7-40 96.3-40s71.7 15.3 96.3 40zM64 0C28.7 0 0 28.7 0 64L0 448c0 35.3 28.7 64 64 64l448 0c35.3 0 64-28.7 64-64l0-384c0-35.3-28.7-64-64-64L64 0zM224 184a40 40 0 1 1 0 80 40 40 0 1 1 0-80zm0 136a96 96 0 1 0 0-192 96 96 0 1 0 0 192zM480 220l0-56-96 0 0 56 96 0zm-96 96l96 0 0-56-96 0 0 56z"/></svg>