<svg xmlns="http://www.w3.org/2000/svg" viewBox="0 0 576 512"><!--! Font Awesome Pro 7.2.0 by @fontawesome - https://fontawesome.com License - https://fontawesome.com/license (Commercial License) Copyright 2026 Fonticons, Inc. --><path style="fill:var(--fa-secondary-color,currentColor);opacity:var(--fa-secondary-opacity,.4)" d="M128 96l320 0 0 256-320 0 0-256z"/><path style="fill:var(--fa-primary-color,currentColor);opacity:var(--fa-primary-opacity,1)" d="M576 424c0 30.9-25.1 56-56 56L56 480c-30.9 0-56-25.1-56-56l0-8 576 0 0 8zM448 32c35.3 0 64 28.7 64 64l0 256-64 0 0-256-320 0 0 256-64 0 0-256c0-35.3 28.7-64 64-64l320 0z"/></svg>