<svg xmlns="http://www.w3.org/2000/svg" viewBox="0 0 512 512"><!--! Font Awesome Pro 7.2.0 by @fontawesome - https://fontawesome.com License - https://fontawesome.com/license (Commercial License) Copyright 2026 Fonticons, Inc. --><path style="fill:var(--fa-secondary-color,currentColor);opacity:var(--fa-secondary-opacity,.4)" d=""/><path style="fill:var(--fa-primary-color,currentColor);opacity:var(--fa-primary-opacity,1)" d="M48 144a48 48 0 1 0 0-96 48 48 0 1 0 0 96zm432-16l32 0 0-64-352 0 0 64 320 0zm0 320l32 0 0-64-352 0 0 64 320 0zm32-160l0-64-352 0 0 64 352 0zM96 256a48 48 0 1 0 -96 0 48 48 0 1 0 96 0zM48 464a48 48 0 1 0 0-96 48 48 0 1 0 0 96z"/></svg>