<svg xmlns="http://www.w3.org/2000/svg" viewBox="0 0 384 512"><!--! Font Awesome Pro 7.2.0 by @fontawesome - https://fontawesome.com License - https://fontawesome.com/license (Commercial License) Copyright 2026 Fonticons, Inc. --><path style="fill:var(--fa-secondary-color,currentColor);opacity:var(--fa-secondary-opacity,.4)" d="M64 192c0 27.7 9 54.7 25.6 76.8 34.1 45.5 68.3 91 102.4 136.6L294.4 268.8C311 246.7 320 219.7 320 192 320 121.3 262.7 64 192 64S64 121.3 64 192zm168 0a40 40 0 1 1 -80 0 40 40 0 1 1 80 0z"/><path style="fill:var(--fa-primary-color,currentColor);opacity:var(--fa-primary-opacity,1)" d="M38.4 307.2C13.5 274 0 233.5 0 192 0 86 86 0 192 0S384 86 384 192c0 41.5-13.5 82-38.4 115.2L192 512 38.4 307.2zm256-38.4C311 246.7 320 219.7 320 192 320 121.3 262.7 64 192 64S64 121.3 64 192c0 27.7 9 54.7 25.6 76.8L192 405.4 294.4 268.8zM192 152a40 40 0 1 1 0 80 40 40 0 1 1 0-80z"/></svg>