<svg xmlns="http://www.w3.org/2000/svg" viewBox="0 0 576 512"><!--! Font Awesome Pro 7.2.0 by @fontawesome - https://fontawesome.com License - https://fontawesome.com/license (Commercial License) Copyright 2026 Fonticons, Inc. --><path style="fill:var(--fa-secondary-color,currentColor);opacity:var(--fa-secondary-opacity,.4)" d="M64 160l0 192c35.3 0 64 28.7 64 64l320 0c0-35.3 28.7-64 64-64l0-192c-35.3 0-64-28.7-64-64L128 96c0 35.3-28.7 64-64 64zm320 96a96 96 0 1 1 -192 0 96 96 0 1 1 192 0z"/><path style="fill:var(--fa-primary-color,currentColor);opacity:var(--fa-primary-opacity,1)" d="M64 96l0 320 448 0 0-320-448 0zM0 96C0 60.7 28.7 32 64 32l448 0c35.3 0 64 28.7 64 64l0 320c0 35.3-28.7 64-64 64L64 480c-35.3 0-64-28.7-64-64L0 96zM328 256a40 40 0 1 0 -80 0 40 40 0 1 0 80 0zm-136 0a96 96 0 1 1 192 0 96 96 0 1 1 -192 0z"/></svg>