<svg xmlns="http://www.w3.org/2000/svg" viewBox="0 0 448 512"><!--! Font Awesome Pro 7.2.0 by @fontawesome - https://fontawesome.com License - https://fontawesome.com/license (Commercial License) Copyright 2026 Fonticons, Inc. --><path style="fill:var(--fa-secondary-color,currentColor);opacity:var(--fa-secondary-opacity,.4)" d="M64 160l0 128c0 88.4 71.6 160 160 160s160-71.6 160-160l0-128-64 0 0 128c0 53-43 96-96 96s-96-43-96-96l0-128 64 0 0 128c0 17.7 14.3 32 32 32s32-14.3 32-32l0-128c0-53-43-96-96-96s-96 43-96 96z"/><path style="fill:var(--fa-primary-color,currentColor);opacity:var(--fa-primary-opacity,1)" d="M0 160C0 71.6 71.6 0 160 0S320 71.6 320 160l0 128c0 53-43 96-96 96s-96-43-96-96l0-128 64 0 0 128c0 17.7 14.3 32 32 32s32-14.3 32-32l0-128c0-53-43-96-96-96s-96 43-96 96l0 128c0 88.4 71.6 160 160 160s160-71.6 160-160l0-128 64 0 0 128c0 123.7-100.3 224-224 224S0 411.7 0 288L0 160z"/></svg>