<svg xmlns="http://www.w3.org/2000/svg" viewBox="0 0 448 512"><!--! Font Awesome Pro 7.2.0 by @fontawesome - https://fontawesome.com License - https://fontawesome.com/license (Commercial License) Copyright 2026 Fonticons, Inc. --><path style="fill:var(--fa-secondary-color,currentColor);opacity:var(--fa-secondary-opacity,.4)" d="M64 128a32 32 0 1 0 64 0 32 32 0 1 0 -64 0zM320 384a32 32 0 1 0 64 0 32 32 0 1 0 -64 0z"/><path style="fill:var(--fa-primary-color,currentColor);opacity:var(--fa-primary-opacity,1)" d="M352 480a96 96 0 1 1 0-192 96 96 0 1 1 0 192zM438.6 86.6l-384 384-45.2-45.2 384-384 45.2 45.2zM352 352a32 32 0 1 0 0 64 32 32 0 1 0 0-64zM96 224a96 96 0 1 1 0-192 96 96 0 1 1 0 192zM96 96a32 32 0 1 0 0 64 32 32 0 1 0 0-64z"/></svg>