<svg xmlns="http://www.w3.org/2000/svg" viewBox="0 0 512 512"><!--! Font Awesome Pro 7.2.0 by @fontawesome - https://fontawesome.com License - https://fontawesome.com/license (Commercial License) Copyright 2026 Fonticons, Inc. --><path style="fill:var(--fa-secondary-color,currentColor);opacity:var(--fa-secondary-opacity,.4)" d="M64 139.2l0 233.5c42.8-38.9 85.6-77.8 128.4-116.8-42.8-38.9-85.6-77.8-128.4-116.8z"/><path style="fill:var(--fa-primary-color,currentColor);opacity:var(--fa-primary-opacity,1)" d="M32 64l-32 0 0 384 76.4 0 9.2-8.3 176-160C268.2 273.6 272 265 272 256s-3.8-17.6-10.5-23.7L85.5 72.3 76.4 64 32 64zM192.4 256L64 372.8 64 139.2 192.4 256zM320 64l0 384 64 0 0-384-64 0zm128 0l0 384 64 0 0-384-64 0z"/></svg>