<svg xmlns="http://www.w3.org/2000/svg" viewBox="0 0 320 512"><!--! Font Awesome Pro 7.2.0 by @fontawesome - https://fontawesome.com License - https://fontawesome.com/license (Commercial License) Copyright 2026 Fonticons, Inc. --><path style="fill:var(--fa-secondary-color,currentColor);opacity:var(--fa-secondary-opacity,.4)" d=""/><path style="fill:var(--fa-primary-color,currentColor);opacity:var(--fa-primary-opacity,1)" d="M64 160c0-53 43-96 96-96s96 43 96 96c0 48.9-36.6 89.4-84 95.3-22.3 2.8-44 21.4-44 48.7l0 48 64 0 0-35.2C265 302 320 237.4 320 160 320 71.6 248.4 0 160 0S0 71.6 0 160l64 0zm96 328c22.1 0 40-17.9 40-40s-17.9-40-40-40-40 17.9-40 40 17.9 40 40 40z"/></svg>