<svg xmlns="http://www.w3.org/2000/svg" viewBox="0 0 512 512"><!--! Font Awesome Pro 7.2.0 by @fontawesome - https://fontawesome.com License - https://fontawesome.com/license (Commercial License) Copyright 2026 Fonticons, Inc. --><path style="fill:var(--fa-secondary-color,currentColor);opacity:var(--fa-secondary-opacity,.4)" d="M64 288l96 0 0 96-96 0 0-96zm288 0l96 0 0 96-96 0 0-96z"/><path style="fill:var(--fa-primary-color,currentColor);opacity:var(--fa-primary-opacity,1)" d="M0 160C0 89.3 57.3 32 128 32l32 0 0 64-32 0c-35.3 0-64 28.7-64 64l0 64 96 0c35.3 0 64 28.7 64 64l0 96c0 35.3-28.7 64-64 64l-96 0c-35.3 0-64-28.7-64-64L0 160zM64 320l0 64 96 0 0-96-96 0 0 32zm288-32l0 96 96 0 0-96-96 0zm0-64l96 0c35.3 0 64 28.7 64 64l0 96c0 35.3-28.7 64-64 64l-96 0c-35.3 0-64-28.7-64-64l0-224c0-70.7 57.3-128 128-128l32 0 0 64-32 0c-35.3 0-64 28.7-64 64l0 64z"/></svg>