<svg xmlns="http://www.w3.org/2000/svg" viewBox="0 0 512 512"><!--! Font Awesome Pro 7.2.0 by @fontawesome - https://fontawesome.com License - https://fontawesome.com/license (Commercial License) Copyright 2026 Fonticons, Inc. --><path style="fill:var(--fa-secondary-color,currentColor);opacity:var(--fa-secondary-opacity,.4)" d=""/><path style="fill:var(--fa-primary-color,currentColor);opacity:var(--fa-primary-opacity,1)" d="M288 32l0-32-64 0 0 88.4-64-64-39.6 39.6 103.6 103.6 0 56.4-56.4 0-103.6-103.6-39.6 39.6 64 64-88.4 0 0 64 88.4 0c-33.5 33.5-54.9 54.9-64 64L64 391.6c2.5-2.5 37.1-37.1 103.6-103.6l56.4 0 0 56.4C157.5 410.9 122.9 445.5 120.4 448L160 487.6c9.1-9.1 30.5-30.5 64-64l0 88.4 64 0 0-88.4 64 64 39.6-39.6-103.6-103.6 0-56.4 56.4 0 103.6 103.6 39.6-39.6-64-64 88.4 0 0-64-88.4 0c33.5-33.5 54.9-54.9 64-64L448 120.4c-2.5 2.5-37.1 37.1-103.6 103.6l-56.4 0 0-56.4C354.5 101.1 389.1 66.5 391.6 64L352 24.4c-9.1 9.1-30.5 30.5-64 64L288 32z"/></svg>