<svg xmlns="http://www.w3.org/2000/svg" viewBox="0 0 448 512"><!--! Font Awesome Pro 7.2.0 by @fontawesome - https://fontawesome.com License - https://fontawesome.com/license (Commercial License) Copyright 2026 Fonticons, Inc. --><path style="fill:var(--fa-secondary-color,currentColor);opacity:var(--fa-secondary-opacity,.4)" d="M64 64l320 0 0 384-320 0 0-384zm48 240a112 112 0 1 0 224 0 112 112 0 1 0 -224 0zm72-176a40 40 0 1 0 80 0 40 40 0 1 0 -80 0z"/><path style="fill:var(--fa-primary-color,currentColor);opacity:var(--fa-primary-opacity,1)" d="M384 448l-320 0 0-384 320 0 0 384zM448 64c0-35.3-28.7-64-64-64L64 0C28.7 0 0 28.7 0 64L0 448c0 35.3 28.7 64 64 64l320 0c35.3 0 64-28.7 64-64l0-384zM224 248a56 56 0 1 1 0 112 56 56 0 1 1 0-112zm112 56a112 112 0 1 0 -224 0 112 112 0 1 0 224 0zM264 128a40 40 0 1 0 -80 0 40 40 0 1 0 80 0z"/></svg>