<svg xmlns="http://www.w3.org/2000/svg" viewBox="0 0 576 512"><!--! Font Awesome Pro 7.2.0 by @fontawesome - https://fontawesome.com License - https://fontawesome.com/license (Commercial License) Copyright 2026 Fonticons, Inc. --><path style="fill:var(--fa-secondary-color,currentColor);opacity:var(--fa-secondary-opacity,.4)" d="M64 224l0 32c0 17.7 14.3 32 32 32s32-14.3 32-32l0-32-64 0zm10.6-64l426.7 0-57.6-96-311.5 0-57.6 96zM192 224l0 32c0 17.7 14.3 32 32 32s32-14.3 32-32l0-32-64 0zm128 0l0 32c0 17.7 14.3 32 32 32s32-14.3 32-32l0-32-64 0zm128 0l0 32c0 17.7 14.3 32 32 32s32-14.3 32-32l0-32-64 0z"/><path style="fill:var(--fa-primary-color,currentColor);opacity:var(--fa-primary-opacity,1)" d="M443.8 64l57.6 96-426.7 0 57.6-96 311.5 0zM96 0L0 160 0 256c0 28.4 12.4 54 32 71.6L32 448c0 35.3 28.7 64 64 64l384 0c35.3 0 64-28.7 64-64l0-120.4c19.6-17.6 32-43.1 32-71.6l0-96-96-160-384 0zM480 352l0 96-384 0 0-96c24.6 0 47-9.2 64-24.4 17 15.2 39.4 24.4 64 24.4s47-9.2 64-24.4c17 15.2 39.4 24.4 64 24.4s47-9.2 64-24.4c17 15.2 39.4 24.4 64 24.4zM64 256l0-32 64 0 0 32c0 17.7-14.3 32-32 32s-32-14.3-32-32zm128 0l0-32 64 0 0 32c0 17.7-14.3 32-32 32s-32-14.3-32-32zm128 0l0-32 64 0 0 32c0 17.7-14.3 32-32 32s-32-14.3-32-32zm128-32l64 0 0 32c0 17.7-14.3 32-32 32s-32-14.3-32-32l0-32z"/></svg>