<svg xmlns="http://www.w3.org/2000/svg" viewBox="0 0 512 512"><!--! Font Awesome Pro 7.2.0 by @fontawesome - https://fontawesome.com License - https://fontawesome.com/license (Commercial License) Copyright 2026 Fonticons, Inc. --><path style="fill:var(--fa-secondary-color,currentColor);opacity:var(--fa-secondary-opacity,.4)" d="M64 256a192 192 0 1 0 384 0 192 192 0 1 0 -384 0zm72-56l240 0 0 48-56 0 0 160-48 0 0-68-32 0 0 68-48 0 0-160-56 0 0-48zm160-72a40 40 0 1 1 -80 0 40 40 0 1 1 80 0z"/><path style="fill:var(--fa-primary-color,currentColor);opacity:var(--fa-primary-opacity,1)" d="M256 512a256 256 0 1 1 0-512 256 256 0 1 1 0 512zm0-448a192 192 0 1 0 0 384 192 192 0 1 0 0-384zM376 248l-56 0 0 160-48 0 0-68-32 0 0 68-48 0 0-160-56 0 0-48 240 0 0 48zM256 168a40 40 0 1 1 0-80 40 40 0 1 1 0 80z"/></svg>