<svg xmlns="http://www.w3.org/2000/svg" viewBox="0 0 640 512"><!--! Font Awesome Pro 7.2.0 by @fontawesome - https://fontawesome.com License - https://fontawesome.com/license (Commercial License) Copyright 2026 Fonticons, Inc. --><path style="fill:var(--fa-secondary-color,currentColor);opacity:var(--fa-secondary-opacity,.4)" d="M64 480l0 32 320 0 0-32c0-53-43-96-96-96l-128 0c-53 0-96 43-96 96zm96-352a64 64 0 1 0 128 0 64 64 0 1 0 -128 0z"/><path style="fill:var(--fa-primary-color,currentColor);opacity:var(--fa-primary-opacity,1)" d="M288 320c88.4 0 160 71.6 160 160l0 32-64 0 0-32c0-53-43-96-96-96l-128 0c-53 0-96 43-96 96l0 32-64 0 0-32c0-88.4 71.6-160 160-160l128 0zm-64-64a128 128 0 1 1 0-256 128 128 0 1 1 0 256zm416-4l-192 0 0-56 192 0 0 56zM224 64a64 64 0 1 0 0 128 64 64 0 1 0 0-128z"/></svg>